<svg xmlns="http://www.w3.org/2000/svg" xmlns:xlink="http://www.w3.org/1999/xlink" viewBox="0 0 976 1600"><path d="M960 22v1556c0 3.3-2.7 6-6 6H22c-3.3 0-6-2.7-6-6V22c0-3.3 2.7-6 6-6h932c3.3 0 6 2.7 6 6z" fill="#fff"/><defs><path id="a" d="M960 22v1556c0 3.3-2.7 6-6 6H22c-3.3 0-6-2.7-6-6V22c0-3.3 2.7-6 6-6h932c3.3 0 6 2.7 6 6z"/></defs><clipPath id="b"><use xlink:href="#a" overflow="visible"/></clipPath><g clip-path="url(#b)"><path d="M610.8 1312.7c-6.4-.6-10.7-7.8-16.8-9-8.9 2.9-17.5-1.6-26.3 1.7-21.2-1.2-7.8-26.4-4-37.4 5.5-11.3 17.4-15.2 26.4-21.7 18-7.3 38.5-8.3 57.1-4.2 14.5 1.6 58.5 43.8 23.2 42.8-11.6-7.2-18 9.8-30.2 5.1-7.4.8-8.6 12.7-16.1 14-7.1-2.3-7.1 8.8-13.3 8.7zm-385.9-5.2c-84.3-1.8-86.1-127.2-1.8-130.1 86.6-1.5 88.6 128.1 1.8 130.1zm2-326.1c-10.5-1.2-8.5-15.8-17.1-17.9-11.1-1-19-6-24.7-15.8 10.6-57.3 107.5-60.4 129.1-9.6 11.8 52.7-13.5 21.4-36 29.2-5.5-.1-9.3 5.3-15 2.2-6.6 1.4-10.3 9.2-16.8 11.2-6.3-.2-12.9-2.1-19.5.7z" fill="#ffeb5c"/><path d="M775.8 1604c-80-.3-213.3.2-292 0-18.5-21.5-37.3-46.6-60.8-66.4-154.7-151.1-155.8-11.3-195.2-179.2 8.2-23.4 28.9 50.5 87.7 30.1 56.9-49.2 45.5 20.4 90.4-14.1 16.8-25 19.7-61.8 43.4-81 21.4 31.2 21.2 27.4 55.3 43.1-5.2 20-21.4 38-22.4 59.6-.9 17.4 8.3 30 23.2 34.1 9.5.8 22.9 14.9 30.7 6.3 46.3-37.3 31.5-65.7 59.2-68.8 21-10 23-26 46-12 56.7 13-9.1 87.4-25.3 113-4.2 16.4 28.4 12.2 38.1 21.7 19.1 9.9 39.9 18.7 67.5 28.7 49.3 17.8 66.2 53.6 110.2 76.3 21.7 15.5-54.4 6.3-56 8.6zm-122.3-479.4c-43.4-50.3-108.6 17.2-45.9-61.4 60.5-62.2 3.8-164.9 54.2-143.1 24.5-5.1 39.4-24.2 36.1 15.1 1.9 10.5-3.2 49.6 12.9 42 64.7-59.2 29.4-157.3 38.5-234.5-3.5-17.5 14.8-43.7 4.4-55.5-7.5-55.1 9.7-117.4 10.7-174.9.6-39.5 9.7-171.5 52.3-70.6 1.7 33.8-.2 68.5-.9 102.5-.5 36.9-4.2 73.5-3.8 110-3.3 10.3-11.6 10.8-18.2 15.3-30.8 22.9-27.8 76.5 3.8 94.8 24.5 23.8 7 58.4 13.6 88.3 3 27.8-13.3 30.8-29.7 40.3-32.2 77.6 23.8 73.8 11.9 100-15 17.7-27.8 36-42.4 53.4-10.9-.1-7.7 14.1-13 20.2-5.3 9.2-13.9 15.1-24.8 17.1-22.2 3.7-40.5 29.6-59.7 41zm-487.6-48.1c-8 1.2-9.4-43.4-9.3-51.7 11.1-3.7 21.6 12.2 35.3 9 21.1.3 31.6-6 41.2-28.4 10.5 7 14.3 22 29.8 26.7 4.1 1.1 5.1 14 2.8 18.5-33.7-3.2-73.8-1.6-99.8 25.9zm15.9-220.1c-10-7.3-31.7-.3-29.8-15.5 2.8-29.2-.8-67.9-2.3-99.2-2.6-57.2-5.3-113.7-10.4-170.7-5-47.8 7.6-96.3-4-142.8-7.1-29.6-7.7-61.3 2.9-89.3 1.6-3.9 2.4-9.1-2.3-11-6.6-18.3-.2-43.4-2.5-62.9 4-27.6-42.7-187.1 18.6-162.8 32.8 14.6 19.1 74.8 25.6 105.8 7.4 68 25.4 137.2 19.5 205.1-11.8 26.2 6.4 53.6 7.7 83.2 1.1 32.3 16.5 67.9-6.6 94-7.7 23.4.1 49.7 22 62.7 5.4 3.9 5.1 14.6 4.1 18.5-5.4 34.2 12.9 67 5.8 102.4-.5 7.1-12.8 11.6-18.1 16.7-14 8.7-12.1 34.4-27.2 41.7-5.3 8 10.8 22.5-3 24.1zm499.6-53c-3.7.8-11.1-4.3-16.5-3.8-4.8-.8-21.8.5-20.8-4.9-.6-55.7 7.4-113.3 1.3-168.2-1.8-56.4 43.5-38.8 42.8 3.9-1.3 29.9 3.9 60.9.5 91 3.3 8.5-7.4 9.6-6.4 16.9 1.1 17 21 56.3-.9 65.1z" fill="#333"/><path d="M826.2 1474c-51.9-2.3-25-47.9-41.8-53.7-21.4 9.1-46.7 7-63.9-9.7-31.5-31.1 3.5-64.1-14.2-66-15 8.8-33.3 19.4-53.7 13-11.3 3-25.4-18.4-34.5-9.3-21.5 34.7-80.5 31.5-83.8-13.9-42.6 8.7-89.5-22.7-85.9-69.5-7.5-18.6-22 14.6-34.9 15.4-23.4 16.8-59.5-6.1-50.4 30.3 7.1 49.7-48.5 97.3-95.6 72.3-12.9-.9-29.4-39.5-39.4-26.2-35 91.6-195.3 46.9-136-52.3 2.8-19.6-45.5 3.9-63.3-58.4-15.5-46 18.2-92.8 65.9-91 11.4-5.9 48.7 21.3 50.2 2.9-16.3-61 47.6-122.6 110.6-105.1 28 3.4 40.3 25.8 57.5 42.7 10.2-6.5 22.3-14.2 35.4-13.2 31.8-.7 51.9 33 37.4 60.2 15.5 10.9 37.1 14.8 49.9 32.7 11.3 12.7 16.9 25.8 17.2 40.1 5.2 20.8 27.4-31.2 77.8-10 5.1.1 7.4-5.9 4.9-9.9-19.5-44.9 31.6-95.8 72-90.5 32.1-.2 55.4 30 55.3 61.3 3.3 12.4 16.3-1.5 23.3-1.9 31.3-13.2 72.3.1 90.8 28.5 33 48.3 4.7 113.4-59 114.5-7.3.2-6.2 7.8-4.4 12.5-3 38.7 25.7-5.1 45.3.9 12.1-2.4 20.5 8.1 30.8 9.4 16.6-.3-1-43.3 42.7-45.2 44.2 1.4 45.1 70.9-1.7 69-7.2-.1-25.6-10.7-20.7 5.9 9 44-24.2 38.7 31.4 43.3 5.5 1.3 3.4 8.8 9.5 9 5.2.5 7.4 5.4 9 12.5 4.7 22.8-6.5 49.8-33.7 49.4zm-247.1-169.2c15.6-5.2 34.2 20 42.7 8.8 10-40.2 85.7-8 40.4-55.2-22.3-15.7-56.1-14.6-77.9.1-15.9 7.2-37.5 54.5-5.2 46.3zm-352.8-5.3c76.7-3.2 72.4-116.4-4.9-115.3-73.3 6.8-69.3 116.6 4.9 115.3zm685.7-69.6c-80.7 3.7-83.4-104.8-9.4-109.2 66 2.2 73.9 95.1 9.4 109.2zm-380-140.8c-34.5 3.4-50.2-25.3-58.3-52.4-12.7 1.9-22.1 16.4-38.5 14.6-50.1-11.4-20.1-53.9-35.7-57.9-13.7 5.8-27.3 12.5-42 12.8-10.5 3.8-27.1-9.5-34 .6-13.1 34.8-70.6 35.5-84.4 1.3-11.8-16.2-16.6 29-43.4 24.2-26.5.4-60.5-22.5-56.9-47.1.9-4.1-3-7.1-6.7-7.2-95.6-26.5-50.8-156.4 58.1-121.1-.2-48.9 30.8-91.7 84.9-90.9 44.8-.6 94 42.5 80 92.1-4.1 15.4 10.5 9.1 19.3 8.3 21.9.1 39.4 14.1 54.7 25.5 7.6-4.3 14.8-9 23.3-6.8 41.5 5.8 34.3 73.4-10.2 59.3-48.4 59.3 28.8 8.2 34.5 65 5.7 18.9 26.6-24.5 52.5-18.6 61.1 2.8 64 91.1 2.8 98.3zM232.9 910.8c-18.1 3.9-35.4 20.1-40.6 36.3-9.5 9.9 4.8 12.6 11.9 16.1 14.9.5 22.6 48.1 34.2 30.7 12.8-27.8 44.6-28.5 68.2-24.9 17.2-42.6-38-65.5-73.7-58.2zm594.3 82.5c-77.4-8.6-67.5-118.5 5.3-118.5 84 5.5 72.1 120.3-5.3 118.5zM661 916.5c-87-2.1-70.9-134 13.7-112.5 64.4 21.7 49.3 108-13.7 112.5zM74.4 849.3C-4 850.6 16.2 733.9 88.2 758c48.5 22.2 36.4 83.7-13.8 91.3zm757-75.7c-72.1 2.7-80-110-4.5-115 79.6-5 82.9 114.3 4.5 115zM250.8 657c-68.9 6.8-74.2-97.2-6.5-97.9 60.7 2.6 68.2 86.5 6.5 97.9zm-173-152.1C16.9 496.1 25 398.6 88.1 403c28.9 1.5 41.2 17 45.2 36.4 17.3 36.7-19.3 68.3-55.5 65.5z" fill="#d81e1e"/><path d="M936.9 1126.2c-23.6-16.5-58.4-12.8-77.1 9.1-4.9 5.7-8.7 4.2-13.9 1.6-12.7-5.4-29.3-15.2-42.7-7.2 5 6.7 16.1 4.4 21.6 9.8 7.4 6.3 26.7-1.3 22.3 19.1-2.8 13.3-9.9 20.5-23.6 22.6-12.6 1.9-25 4.7-37.3 8.2-3.3.9-4.7 1.8-6.7-1.5-12.6-21.3-32.7-30.5-56.2-32.7-18.7-1.8-36.7 1.1-52.2 12.9-1.6 1.2-2 .8-2.1-1.2-3.7-41.2-21.8-33.6 2.3-51.4 17.9-16.3 40.3-25 61.7-35.3 12.1-6.6 18.4-18.2 24-30.1 8.2-17.3 22.7-30.1 32.9-46 3.8-8.4 5.9-17 19.8-9.9 44.9 22.6 95.3-24.4 87.2-71.5-.1-3.7.7-5.9 4.4-7.6 8.7-3 37.8-23.9 30.8-33.5-2.6-2-4.2 1.1-5.8 3-8 9.5-17.1 18.2-28.8 22.2-10.3 3.5-10.4-8.7-13.9-13.6-11-15.3-42.9-28-60.7-22.5-3.6 1.1-9.2 3.4-8.4-5.6 1.1-13.4 1.7-27.2-.2-40.4-2.2-14.9.3-29.6-1.4-44.3-.1-1-1.4-3.5 2.3-2.3 43.2 13.9 86.7-26.4 79.8-70.7-2.4-23.3-23.2-48.3-46.4-52.7-5.5-1-3.7-4-3.5-6.6 0-6.7 5.5-18.3-3.7-20.4-2.9-.4-2.3 3.9-3.5 5.6-4 5.8 5.2 16.5-7.6 19-16.3 4.2-16.2-7-13.5-19.6-1.3-52.9 4.4-105.5 4.1-158.4 0-21.4 2.5-43.2-13.8-61-48-66.2-44.9 109.2-50.6 131.7-3.8 40.3-7.2 80.6-11.5 120.9-.3 52.7-1.1 105.2-1.3 158 .9 15.7.6 31.4-.8 47.1 0 46.9-.2 76.2-41 107.8 0-18.2-.5-36.4.3-54 .3-7.2-4.2-13.7 3.6-22.3 20.8-23.3 23-51.5 5.8-78.7-6.5-10.2-16.1-17.8-17-31.7-2-29.1-2.2-58.1-1.8-87.2-.7-26.1-3.9-52-.2-78.1 2.5-14.5-10.2-34.1-24.9-38.8-6.8-2.2-18.4-5.2-20.4 6.2-3 17.7-7.5 35.2-5.9 53.8 1.7 19.2 4.7 38.5 1.7 58.1-1.8 11.8.5 24.2-.6 36.2-1.3 13.6-3.4 27.1-3.9 40.8 3.3 27.8-16.5 13-30.1 38.6-1.7 3-3.1 9-9.1 8.1-14.3-1.4-30.7-11.8-44.5-3.8 4.8 6.9 22.2 6.2 30.5 9.7 4.5 1.3 13.5 1.6 12.2 6.5-11.3 70.3 42.2 62.9 37.4 91.2-3 25.4 1.4 52.7-3.9 77.6-5.1 16.2-14.4 31-24.4 44.9-11.9 16.6-21.9 35-36.2 49.2-10 10.1-24.3 15.7-31.9 29.3-11.1 19.7-17.6 39.6-6.3 61.4.4 1.8 2.4 5.8-.8 5.5-23.4-8.6-56.5-8.7-72 13.9-2.1-2.1-2.5-4.5-2.6-7-2.6-31.4-30.2-52.1-57.5-63.4-1.8-.7-8.1.4-6.2-4 6-13.5 4.3-25.9-1.7-38.9-10.4-22.3-47.2-31.9-67.3-18-3 2.1-8.4 13.7-14.3 2-7-14-19.5-22.1-31.8-30.5-5.2-3.5-3.5-9.3-5.2-13.9-.8-2.2 1.4-2.1 2.9-2.1 20.2-.1 46.5-6.6 53.5-28.9.5-1.8 1.7-3.3 3.5-3.3 22.8 7.6 44.6 1.7 65.6-7.4 0 1.5.5 3.1 0 4.4-4.6 10.7-1.7 21.2 4.3 29.4 19.8 27.1 40 29.3 66.1 8.5 2.3-1.8 3.4-1.7 4 .2 9.6 75.5 109.7 66.2 109.8-5.3-5.9-52.3-71.4-69.9-101.1-24.7-2.4-24.2-15.3-39.7-40.6-41.7-1.4-.1-12.3 5.8-7.5-3.9 3.2-6.5 3.4-16.7 19-14.6 19.7 2.6 38.5-13.7 34-39.6-1-6 1.4-7.7 4.8-10 12-8.3 18-20.8 23-33.8.4-1.1 3.1-6-1.1-7.3-3.6-1.2-5.2 1.2-6.6 4.5-4.9 12-13.9 21-22.9 30-1.9 1.9-2.6.6-3.9-.6-17.7-17.2-27.6-18.5-49.4-6.8-20.3-18.6-43.9-30.9-71.1-22.5 20.1-71.3-59-126.9-124.1-97.4 1.8-16.6-.1-32.9-2.3-49.3-1.7-13.3-8.9-25.9-4.7-40 1.3-4.2.5-9 .1-13.5-.1-1.3-2.8-2.6-.9-4 1.1-.8 3.3-.7 4.8-.2 10.5 3.2 20.7 2.3 30.8-1.8 1.5-.6 5.2 0 5.3.4 1.8 10.6 6.5 21 3.1 32.2-4.3 8.5 4 19.1 6.5 8.9 5.1-14.1 2.9-28.2-.6-42.2-.6-2.6-1.7-4.4 1.2-7.1 53.8-42.7-3.1-125.3-61.8-90.5-3.5-21-3.3-42.3-6.3-63-5.2-21.6-9.1-43.4-9.6-65.6 9-75.9-11.1-149.9-19.6-224.8-2.1-24.5-4.3-49-6.1-73.5-1.2-16.7-4.5-29.4-22.2-36.5-29.2-11.7-37.6 13.6-35 37.4-.1 15.6-.3 31.2-.5 46.8-.2 14.9 5.2 28.9 7.6 43.4 3.3 39.3 5.2 77.4.2 116.8-2.1 18.2-1.8 36.9-.2 55.2 2 14.8.1 14.8-12.4 6-71-35.6-118.1 74.2-44 103.2 8.1 3.3 19.7 2.3 10.7 16.5-4 9.8 5.2 13.4 8.2.8 2.1-5.1.8-14 7.1-14.7 17.3-1.9 29.1-11.6 40.1-23.6-4.8 52.8-.3 106.7 6.3 159.5 3.2 65.4 4.2 130.9 6.2 196.4.1 4-1.1 5.4-5.1 5.1-11.7-.7-21.8 5.3-32.7 8-1.6.4-2.2 4.6-3.9 1.7-10.9-15.1 5.9-13.5 15.2-37.6 4.4-10.2.2-39.8-6.6-48.6-15.7-21.9-48.2-29.9-71.1-14.6-4.4 2.9-8 9.7-13.8 7.5-9.5-4.2-18-10.6-29-11.6-.9-.3-1.8-.3-2.6 1.4-1.5 3.2.7 4.6 2.9 5.7 6 3 12.4 5.1 18 8.7 2.2 1.5 8.5 1.9 6.1 6.5-25.5 40.6 16.6 94.7 62.1 78.5 2.2-.7 5-2.8 6.1-.7 2 4 5 10.4 3.4 12.7-35 39.8-21.1 110.2 35.9 116.2 1.4.8 2.3 2.2 1.8 4.9-3.6 19.1 14.7 26.5 18.3 43.8.9 7.8.9 16 1.9 23.8 1.4 11.1 6.3 22.8-.5 34.3-12.4 20.7-17.6 42.9-12.4 66.9.1 2.4.9 7.3-3 6.1-37.8-21.5-96.5-10.8-112.8 32.8-17 45.4 9.9 107.6 63.7 106.3-17.5 27.7-21.8 53.3-2.3 81.5 33.4 50.5 102.7 36.4 136.1-4.3.9-1 .4-6.9 3.6-1.7 17.6 28.7 7.6 73.3 48.8 84.1 31.8 1.3 51.9 14.2 78.5 29.6 34.1 21.4 62.9 50.1 91.1 78.5 10.8 10.4 19.6 23.3 31.4 32.5 6.5 2.6 11.6 1.7 3.8-7.1-42.7-52.5-122.4-132.7-191.2-142-50 .6-33.9-57-59-84.9-.9-1.1 1.9-5.3 3.1-7.9.2-.4 1.3-.3 2-.5.5 5.3 5.3 7.6 8.2 11.1 9.7 11.6 21.1 20.6 36.3 24.8 10.8 3 21.8-.1 32.5 3.4 8.7 2.9 12.3 10.8 18.8 15.5 17.2 12 34.8 23.5 53.7 32.7 53.8 17.9 88 65.8 112.7 114.2 5.4 6.6 21.7 48.9 30.1 42.8 2.1-1.9 2.1-3 .6-5.6-27.8-57.7-57.6-120.9-117.7-151.2-15.4-7.4-31.2-13.9-47.6-24.5 43 5.5 90-29.4 90.8-73.3-.6-4.5-6.5-6.7-6.2-.8-3.6 9.4-6.5 19.3-11.3 28-20.7 41.2-86.5 53.6-116.3 15.7 6.1-3.4 13-6.1 18.4-10.5 5.7-4.8 11.4-9.1 13.5-7.8 9.8 6 18.5 13.9 30.1 16.8 5.8 1.4 24.9-6.8 28-12 14.6-24.5 20.8-53 37.3-76.7 3.4-4.8 3.6-2 4.4 0 7.4 22.4 29.4 31.3 50 37.8-14.9 28.1-41.8 77.3-.1 94.9 10.9 3.9 21.9 7.7 32.1 13.2 20.9 11.1 41.8 21.7 64.2 29.9 18.3 6.6 38.1 9.3 55.3 18.2 22 11.4 44.8 20.5 68 28.9 43.9 14.6 69.2 55.7 109.6 76 1.8 1.4 4.9 3.2 6.3 0 2-3.5-1-5-2.8-6.3-23.1-16.9-43.4-37-65.4-55.2-20.7-19.1-48-25.7-73.7-34.7-23-11.1-45.8-22.6-70.5-29.6-3.3-.9-3.3-1.4-1.4-4 19.2-28 48.1-54.6 44-91.7-6.5-20.6 12-6.1 35-24 .7-.5 1.9-.2 2.8-.2-5.1 22.7-3.7 45 15.5 61.4 17.7 18.4 40.8 19.9 64.5 12.6-7.6 83.8 115.8 54.6 73.8-15.9-2.1-2.8-1.4-3.2.2-4.2 8.5-5.4 14.6-13 20.3-21 1.3-1.9-.2-5.9-.5-9-8.5 1.1-13.6 12.9-20.7 17.8-11.6 13.7-18.2-2.7-44.2 2.2 9.7-23.6-2.6-44.6 5.5-40 43.3 15 72.6-42.9 37.1-69.6-26.6-17.8-64.2-.6-63 34 .1 1.6 1.4 3.9-2.8 1.9-19.2-9.3-38.9-12.9-58.2-.5-10.6 6.8-13.6 4-13.2-7.8.1-2.4-1-4 .7-4.3 10.6 1.3 21.3.2 31-4.1 58.1-22.8 31.8-63.8 61.5-69.8 14.9-2.9 28.3-9.3 40.7-18 3.4-2.4 5.2-4.2 9.5-.2 62.7 56.5 142.3-42.3 74.6-92.5zm-373.5-113c17.8 17.9 9 46.8-5.9 61.4-2.7 2.8-5.8 5.9-9.2-1.5-3.2-7-11.8-11.5-15.1-18.5-2.4-17 11.9-35.3 23-47.3 4.8-5.2 5.5 3.9 7.2 5.9zm-74.7 4.8c10.1-19 35.8-29.8 58.5-19 8.8 1.2-22.1 20.5-22.5 45-.2 1.6-1.3 3.8-4.1 1.3-14.9-16-52.5-6.6-31.9-27.3zm2.8 23.7c22.3 5.5 40.7 21.3 52.3 40.6-28.2 11.4-60.9-10.9-62.2-39.3-.6-7.1 7.4-1.9 9.9-1.3zm-160.3 47.8c27.7-12.8 66.5 13.4 52.9 44.4-1.2 2.5-11.6 1-17.7.9-14.8-.3-29.1 1.9-43 9.4 10.5-24.2-19.5-46.8 7.8-54.7zm-35.7-62.7c-24.3 11.6-73.5-16.5-45.5-42 42.2-41.1 106.7 18.2 45.5 42zm-32.6 21c-24.1-4.2-47.3-4.7-69.7 5.9-10.2 4.2-19.7 9-26.5 18.3-1.2 1.7-2.6-1.4-2.6-2.8-.2-13.7-1.8-27.4-4.7-40.8 0-2 2.2-.8 3.1-.3 21.9 16 66.6 14.4 71.3-18.8 6.4 13.3 15.8 20.9 27.5 26.4 1.9 1 1.1 7.9 1.6 12.1zM438.6 981c48.6.5 42.9 66.1-2.6 66.1-39.2-4.7-37.7-67.4 2.6-66.1zm38.3-59.6c-1.5 15.9-18.7 24.2-32.9 19-.9-.2-.8-3.8-1.2-5.8-1.9-12.9 9.9-5.4 14.1-9.3 5.5-4.7 13.8-6.1 19.4-11 .2 2.4.8 4.9.6 7.1zM452.1 889c7.2.5 21 10 20.8 14.5-4.9 7.7-13.8 9.3-21 13.5-11.2 6.5-10.6-2.5-12.7-8.5-4.7-12.2-6.8-21.6 12.9-19.5zM254.3 652.8c-33.7 7-67.7-30.4-51.6-60.1 26.7 5.5 45.3 30.5 59 52.4 3.1 4.9 1.9 6.4-7.4 7.7zm24.3-74.8c7.1 8.8 11.3 19.6 11.8 30.8.9 8.9-16.9 50.2-24.5 27.5-.9-11.8-20.6-22.3-16.6-30 5.7-10.1 11.6-20.2 17.8-30 4.6-7.3 9.4-.9 11.5 1.7zM259 565.1c3.5.9 2.3 3.7 1.2 5-34.9 48.7 1.2 34-54.6 14 13.5-18.1 31.3-24.6 53.4-19zM61.1 494.4c-26-14.6-29.3-59.2-5.6-77.2 5.6-4.2 7 2 8.5 4.1 12.9 14.3 42.2 103.5-2.9 73.1zm22.4-58.2c-3.3-9.8-10.9-16.9-16.3-25.3 21.5-10.3 46.8-.8 59.1 15.9 1.6 1.9 2 3.5-1.5 4.7-38.9 11.6-32.3 28.1-41.3 4.7zm50.2 20c-1 23.3-18 40.4-39.7 44.6-.4-1.6-.8-3.3-1.1-4.5 2.9-12 .1-23-1.6-34.3-2.4-8 24.3-17.6 30.6-20.8 8.6-3.4 12.2 3.1 11.8 15zm9.6 114.6c-1-39.3-1-78.7 1-118.1 1-8.6-2.6-18.2-5.6-26.9-3.6-10.3-1.8-21-3.9-31.1-5.8-34.7 13.5-65 20.6-97.5 10.9-38.9 9.5-80 1.8-119.6-1.4-8-2.9-16-3.9-24.1-.4-2.9-1.7-2.5-3.6-2.5-2.9-.1-2.8 1.9-2.6 3.7 2.2 22.6 5.5 45.2 6.2 67.8.8 35.3-3.8 68-15.8 101.7-.2-40 1.9-72.1-5.5-109.7-3.2-17.9-9.9-35.4-5.4-54.7 5.3-16.1-8-38.9 3.8-52.8 6.1-5.6 13.9-2.7 20.6-.9 14 3.7 15 15.3 16.1 27.2 3.9 25.1 5.4 50.1 6.5 75.2 7.4 70.1 26.8 140.6 18.6 211.4-9.4-23.5-19-48.8-17.2-74.9 1.9-8.6-4.6-5.5-5.9.8-5.8 40 16.4 70.4 23.6 108.5 9.2 32.1 8.2 66.4 14.8 98.7 5.6 26.8-31.5 32.4-10 82.2 7 17.7 27.2 17 22.8 35.4-6 34.5 12.8 68.1 5.7 102.8-.8 5.5-11.6 9.1-16.9 14.4-10.6 10.6-16.7 23.7-20.1 38.4 3.1-69.2-8.3-137.5-15.3-206-3.2-34.8 2-70.1-2.8-104.8-.1-1.2-1.9-2.2-2.9-3.3-.8 1.1-2.1 2.2-2.2 3.3-.6 20.9-1.2 41.8-1.5 62.7-1.3 69.6 14.5 137.7 15 207.2 1 19.1-3.1 39.6 1.8 58.1 7.9 16-6 6.4-7.2 5.4-5.5-4.8-19.4 3.8-18-7.3 1.9-15.7 1.5-31.4.2-46.4-3.1-74.8-6.4-149.8-12.8-224.3zM44.9 767c13.1-8.6 26.9-10.4 42-5.2-8.7 9.7-16.8 19.5-22.6 31.3C57 779.8 32.8 773 44.9 767zm31.8 77.8c-67.9 4.8-52.6-88.8-33-60 14.6 15 30.2 29.2 41.8 47.2 9.2 14.2-4.2 10-8.8 12.8zm16.7-14.3c-7.3-24.1-32.5-25.2-16-42.6 4.7-6.8 11-12.5 16.4-18.9 2.2-2.5 4.1-1.7 5.6.1 7.6 9 16.8 17.2 15.6 28.7 2.1 9.2-13.7 52.3-21.6 32.7zm41.3 143.7c-51.1-5.3-64.3-69-30.9-102.9 20.4-19.8 57.8-18.9 82.9-8.5 5.8 2.5 11.6.9 10.4-8.3-12-75 85.2-110.9 134.6-61 18.4 16.4 25 38.7 19.4 63.8-.6 4.3-2.9 24.3 6 19.8 12-10.7 26-6.1 39.2-1.4 49.3 16.3 49.2 85.3 6.8 109.5-21.1 14.9-48.2 22-73 13-3-1.1-3.7-9.3-5-14.4-.8-3 2.5-2.5 4-3.4 10.1-4.3 60.5-45.3 53.4-55-4.7-3.3-7.6 2.2-9.4 4.8-3.5 7.6-54.2 57-57.7 40.9 17.6-18.4 32-39.6 42.7-62.7.9-2.1 6.6-7.6 1.3-9.6s-6.7 4.2-9.1 8.3c-10.8 18.7-23.3 36.4-36 54-4 6.5-11.3 5.7-15.6 3.2-6.5-2.8-.2-8.5 1.5-10.5 3.8-4.5 7.3-9.3 10.3-14.4 4.9-7.2 30.3-58.7 20.1-62.3-3.8-.7-4.9 3.4-5.5 5.7-4.9 16.2-11.5 31.9-19.8 46.7-6.1 10.9-12.9 21.3-20.5 31.2-3.5 4.6-10 .2-16.6 6 15.4-22 22.6-42.9 30.1-66.5 3.4-10.7 6.1-22.3 4.9-34.2-.2-2.2 1.8-4.6 1.6-6.8-.3-3.2 2.5-8.5-3-9-4.8-.5-4.4 5.5-4.6 7.9-2.8 30.9-24.3 104.2-52.5 119 18.2-38.7 29.1-80.9 26.3-123.8 0-3.9-.1-9.7-3.6-9.7-4.5 0-5.2 6.1-5 10 2.9 43.6-8.2 83.4-27.4 122.8-1.4-20.8 5.3-104.3-11.3-111.3-3.4 13.6 3.1 27.8 3 41.6.9 23.6-.2 47 .2 70.7-10.9-6.5-7.7-17.9-9.5-26.9-2.2-11.1-4.9-21.9-8.2-32.7-1.4-4.7-2.9-9.3-4.6-14-3-8.5-9.8-14.5-11.8-23.3-.8-3.3-4.4-1.7-6.5-1.4-2.6.3-1.8 3.4-1.1 4.5 12.1 23.5 20.4 50.2 25 75.8-31.9-3.3-18.1-37.9-61-69.7-4.2-2-6 4.7-3.1 7 16.7 15.4 26.2 35.6 35.8 55.5-18.3 6.8-19.6-23.8-48.9-38.8-4.8-2.7-8.2 4.8-3.6 7.4 8.3 8 16.8 15.8 24.4 24.3 4 4.4 11.7 10.3-.7 15.2-7.4 2.9-9.9 15.2-18.4 13.9zm16.8 34c-29.5-33.4 22.4-58.6 50.8-41.5 30.7 18 29.8 62.8-9.6 61.2-16.1-1.8-30.4-7.6-41.2-19.7zm281.4 296.7c-11.3 17.3-18.1 36.9-26 55.9-7.2 17.3-22.9 19.6-39.6 11.7-29.1-13.2 12.3-27.3-3-76.8-1.5-5 1.2-2.5 2.2-2.4 26.8 2.3 57.6-6.7 75.2-27.5 7.3 15.2-.7 26.7-8.8 39.1zm12.8-69.3c-10.6 40.5-54.7 55.8-92.3 47.4-2-.4-5-2-6.1 1s1.9 5.1 3.9 6c9.3 4.4 7.4 14.2 8 20.8 5 48.6-42.9 90.8-89.7 68.4-25.1-10.2-38.1-56-42.9-29.7-18.2 59.8-116.1 77.6-139.5 12.7-12.1-29.5 4.8-45.9 15.7-69.3-3.5-3.9-10.5-1.4-15.3-2-45.8 3.3-72.3-63.5-50.4-99.9 20.8-40.6 74-36.6 108.7-18 4.3 0 6.6-5.8 5-9.1-33.6-127 169.2-154.9 164.3-20.1-1.2 9.2-1.1 17.7 13 9.6 50.8-25.5 137 19.2 117.6 82.2zM874.5 1133c20.7-12.3 40.8-10.7 59.5 2.7-10.4 10.5-18.9 22.7-25 36.2-2.8 6.3-2.8 12.4-10.4 2.3-9.6-16.8-52.3-26.7-24.1-41.2zm-40.1-154c-2.6 18.4-13.7 6.8-20.8 5.8-21.8-2.9-38-30.3-36.7-46.1-1-9.9 6.6-46.1 17.1-38 26.2 19.2 38.8 45.9 40.4 78.3zm50.8-56.9c4-.5-.2 7.8 1.7 10.6 5.4 37.2-47.3 64.1-45.6 50.8 8.9-15.8-11.2-35.4 7.2-45 11.1-7.6 23.3-14.6 36.7-16.4zM865.3 890c5.6 4.4 10.5 9.6 14.7 15.4 9.4 13-5.8 9.5-9.3 11.1-12.9 5.6-24.8 12.1-34.9 22.8-7.5-19-20.6-35.2-37.5-46.6-3-2 .3-3.6 1.6-4.4 18.4-11.6 45.3-14.1 65.4 1.7zM843 665.1c.3-1.7.5-2.2 2.4-1.5 36.7 10.8 48.6 47.8 33 80.5-.6 3-4.8 1.2-6.7-.2-26.4-20-34.2-46.9-28.7-78.8zm-5 51c5.4 17.7 18.7 27.5 32.4 36.6-16.8 20.3-46.3 20.6-69.2 9.3 17.3-11.1 29.8-25.6 36.8-45.9zm-12.4-53.4c12.5-.6 9 7.3 6.9 11.5-3 6-.5 11.2-.2 16.5 1.3 26-12.4 44.2-30.7 59.8-13.2 12.7-21.4-11.6-23.8-25.1-7.9-29.9 19.1-61.4 47.8-62.7zM712.8 853.6c-.4 20.2-5.9 33.8-17.7 44.5-3.9 3.6-5.8 2.6-9-1.9-14.8-27.6-37.8-22.1-24.7-47.2 5.2-11 11.9-21.2 18.2-31.7 2.7-4.6 6.2-5.2 10.7-1.6 13.5 10.8 21.5 24.6 22.5 37.9zm-65.4-84.3c1.1-28.9 6.6-58.4 5.3-87.2-3.2-28.8-6.5-57.6 2.6-85.6.3-1.4 1.5-2.4 3.8-2 17.5 3.1 27.2 17.6 25.1 35.6-1.5 13.2-.1 26.4 1.1 39.8 2.4 19-1.2 37.8-.6 57.6-14.8-26-4.2-88.4-16-91-2.6.9-4.2 3.5-3.9 6.2.7 12.9 1.7 25.7 2 38.6 1.3 36.1 18.2 69 19.9 105.1 2.3 22.2-10.1 9.2-23.7 9.3-5.2-.8-14.9-.2-15.1-1.5-1.3-8.2-1-16.7-.5-24.9zm-31.7 58c12-17.3 36.1-25.9 58-19.4-7.5 14.7-19.2 27.3-22.8 44.2-1.6 6.3-1.9 6.2-13.9-1.8-6.5-4.3-12.7-9.2-19.6-12.5-6.8-3.3-5.1-6.3-1.7-10.5zm-7.9 46.4c-3.7-9.8-2.5-19.5-.7-28.9.5-2.9 2-1.1 3.2-.5 26.7 15 50.4 33.7 70.2 57.1 6.4 7.6-3.1 8.3-5.7 9.1-27.3 8.1-59.1-9.6-67-36.8zm-2.9 201.4c20.1-13 27.8 3.7 43.4 1.5 2.9-5.7-6.9-7.7-10.4-9.8-8.5-4.6-17.3-5.3-26.9-1.4 39.2-49.5 31.4-83.8 32.6-142.1-.1-4.4 9.8-.6 12.9-.9.3 0 .8 2.3.4 3.2-4.1 12-.9 24.2-1.7 36.3-.3 4.2-.3 8.4 0 12.6.1 2.9-1.4 8 2.4 8 10 1 4.5-42.6 5.5-50.8-.2-6.7 3.4-10.1 8.8-10.4 8-.3 13.6-5.3 20.5-7.9 4.2 12.8-.2 26.3 2.5 39.5 1.8 9 2.9 18.7 1.5 27.9-1.2 7.9-10.6 11.4-15.5 17.7-3.5 4.5-12.1 6.8-8.8 13.6.9 1.9 8.5-5.2 12.7-8.4 33.1-24 67.5-54.7 66.4-99.1 7.8-68.6-6.9-139.6 10-206.8 12.5-52.8 35.5-103 36.8-158.4.6-15.1.1-29.5-2.7-44.1-.2-.9-1.2-1.6-1.9-2.4-.8.9-2.4 1.9-2.4 2.8.2 7.8-1.6 15.2-.6 23.4 1.5 12.7-2.6 25.9-2.7 39-2.6 43.6-22.1 83.3-32.4 125.2 1.4-48.5 6.5-96.5 11.8-144.8 5-42.1-.1-86.6 16.4-126.4 2.2-4.1 5.9-7.3 10-1.4 7 10 19.2 17.3 19.5 31 1.1 65.6-.3 131.6-5.7 196.6-1.2 4.8 3 9.1 1.3 14.7-2.7 8.7-11.4 9-16.9 13.3-32.6 25-30.6 80.2 4.1 101.3 14.7 9.4 8.7 21.4 9.8 32.3 1.8 17.5.5 35.4 1.9 53 1.3 15.7-3.8 26.6-17.4 31.8-4.2-.1 1.2-7.4.3-9.9 0-16.1 4-32.1 2-48.3-1.2-9.5-2.3-19-3.3-28.6-.3-2.6-.6-4.8-3.6-5-3.8-.2-2.5 2.9-2.5 4.7.4 15.1 1.3 30.3 1.1 45.2-.2 12.7-2.2 26-4 39-2.6 18.4-13.2 34.6-11.6 54.1-1 19.3-25 29.1-34.4 44.6-3.1 4.5 1.4 9.5 4.9 3.7 54.7-44.5 13.8-38.3 51.2-3.3 4.3 3.6 2.6 6.8.2 9.9-13.9 17.1-28 34.5-40.7 52-1.2-5.3-10.8-34.6-16.5-33.1-3.7 3.3-2.5 7.5-1.5 11.4 15.2 18.8 10 53.1-18.9 58.7-13.5 2.5-25.9 12.3-37.1 21.5-7 5.8-13.7 12.1-20.3 18.3-2.9 2.7-3.5-.6-4.2-1.6-14.4-18.7-46-21.1-66.6-17.1 6.9-9.2 11.9-19.9 20.3-25.8zM503 1422.5c-13.2-3.2-14.2-13.7-17.2-26.2 6.4-15.5 14.3-32 20-49.2 4.5-13.7 15.4-7.5 24.7-10.8 3.7 22.8 13.5 40 39.4 39.4 8.4 0 2.3 7.2.7 9.7-7.6 13.5-18.1 24.8-28 36.8-14.9 17.9-26.4 3.5-39.6.3zm103.3-65.9c-13 11.5-43.1 16-57.5 2.7-6.3-5.8-7.1-13.4-7.8-19.5 0-21.7 14.2-27.1 30.1-30.3 28.4-6.8 64.6 21 35.2 47.1zm20 90.4c-4.6 5.4-8.6 11.2-12.1 17.4-3.2 6.1-7.5 4.9-12.4 3.6-20.3-5.2-2-14.2.1-16.2 13.7-13.1 46-58.3 28.5-74.8-1.1 1-3.2 2.1-3.2 3.2-1.1 28.4-20.3 47.3-34.6 69.2-14.2 22.2-33.7-3.4-49.8-8-5-2-3-3.3-.9-5.2 14.4-13.2 27.9-27.1 36.3-45.1 3.2-15.2 2.8-16 18.5-19.5 22.8-7 15.4-26.4 43.2-12.1 4.7 2.1 9.6 3.6 14.7 4.3 3.2.4 4.6 1.3 4.3 4.6.7 29.7-12 55-32.6 78.6zm79.9-110.4c-17 21.3-56.8 26.9-77.9 4.5-12.1-17.4.2-41.9 20.6-46.5 13.3-3 25.9-5.6 37.9.5 23.2 11.6 27.5 31.8 19.4 41.5zm17.8 71.6c-2-1.8-15-10.3 1.8-13.8 8.7-2.1 16.7-11.2 24.6-16.4 17 3.2 32.2 9 45.4 19.1 7.8 6-.8 10.5-3.5 12.7-19.7 16-48.5 16.6-68.3-1.6zm127.8 47.9c-13.4 22-50.5 17.6-56.8-8.3-.9-3.2 6-5.9 14.8-5.6 14.1-.1 27.9 2.2 41.4 5.8 7.4 2 2 5.6.6 8.1zm-4.3-39.3c7.1-2.9 7.7 7.2 9.2 12.1 2.8 9-.8 14.3-10.5 9.7-7.3-3.4-14.5-4-26.2-3.2 12.8-5.8 18.8-15.1 27.5-18.6zm-7.5-9.7c7.9 5.9-37.3 28.7-43.7 27.9-.2-.1-2.9-.7-2.9-1 1.4-23 26.2-35 46.6-26.9zm-7.3-118c40.7 4.2 38.8 61.3-2.2 61-39.3-5.7-38-58.6 2.2-61zm-38.4 50.8c12.8 9.2 17.2 38.7 9.9 52.8-11.8-11.2-26.6-16.6-41.5-21.7-1.8-.6-3.8-.3-1.2-2.6 25.2-20.8 20.3-45.5 32.8-28.5zm-30.8-14.8c10.8.6 20.1 4.4 10.4 13.8-15.1 21.4-34.3 38.5-57.9 50.3-6.6 3.3-5-3.3-5.4-5.7-1.7-32.8 20.3-61.7 52.9-58.4zm-11.9-30c-10.9 4.4-22.1 6.6-33.5 8.3-8 0-10.5-7.9-16-11.4 11.7-14 23-28.8 30.7-45.7 1.1-2.1 5.2-5.8 1-8.1-4-2.2-6.3 2.4-8 5-8.7 13.3-17 26.7-29 37.5-2.9 2.6-3.7 9-9.1 3.5 6.3-7 28.4-65.4 19.9-69.6-2-.3-3.7.2-4.8 3.6-6.4 20.1-12.4 41.1-22.2 59.9-1.8 2.4-4.3 3.8-9.2 2.8-10-2-1.6-8.2-1.3-10 .6-2.6 1.1-5.3 1.7-7.9 1.5-8.9 12.1-53.6 1.6-56-2.8.2-4.2 2.2-4.3 5.3-1.1 23.1-6.8 45.3-13 67.5-2 7-9.1 6.6-13.3 6.3-3.7-.3-.5-6.1.1-9.2 1.9-10.3 3-20.7 3.3-31.2-.1-11.3 0-50-7.4-56.7-1.8 3.4-5.6 7.2-5.1 10.1 3 14.6 4 29.6 3 44.5-1.2 15-3.8 30-5.6 44.9 1 5.2-3.9 7.6-6.8 11.2-4.5-15.2-6.5-112.7-22.9-108.3-3.6.8-1.5 4.3-.6 7.3 4.5 15.2 5.8 30.8 6.5 46.7-.7 12.4 11.1 56.2 3.5 63-6.6-3.3-13.1-5.8-12.8-15.8.6-18.8-4.8-36.8-9.3-54.9-2-8.1-3.4-16.6-8.7-23.5-2.9-6.5-9-3-6.9 3.2 7.3 26.1 12.5 52.7 15.6 79.6 0 1.1 3.9 2.9.1 3.4-2.5.3-5.9 1.8-7.7-2.3-4.2-9.7-8.9-19.1-14-28.3-6-10.9-13.4-21-21.9-30.1-4.1-3-4.9-14.9-11.7-11-2.5 1.7-1.6 3.8-.5 5.5 13.4 21.9 28 42.9 39.8 65.8-13.7 4.9-13-8.8-19.7-14.7-14.2-11.2-27-24.1-40.5-36.1-1.3-1.2-3.6-1.2-5.4-1.8-.5 2.5-1.9 5 .5 7.3 5.5 7.5 51.1 45.6 45.6 49.9-3.7 5.4-9.5 5.5-14.7.2-10.4-10.6-24-16.4-36.6-23.8-4.1-2.2-8.3 6.3-.4 9.1 12.2 6.4 23.8 13.4 33.3 23.5.9.9 2.5 1.1 3.1 1.4-4.2 18.8-18.5 16.5-32 14.5-45-3.3-64.2-55.2-47.6-93.8 10-26.5 32.9-35.5 59.9-29.4 7.1 1.6 14.1 4.6 22.2 2.8 15.3-1.2-22.3-23.8 5.4-69 14-22.1 34-29.3 57.4-31.3 39.5-3.4 59.8 38.3 55.5 72.9-.7 6.5 6.7 5.1 8.4.8 9-19 43.6-21.1 62.4-18.3 56.4 13.8 84.1 100.6 22 130.9zm93.2-81.1c-9.1 6.5-21.2 7-29.5 14.2-6.6-3.3-15.9 8.2-19.6.7-1.2-10.5-4.5-20.3-8-30.2-.1-.2 5.2-3 8.1-3.6 15.5-3.2 32-2 45.9-11.7 2.6-1.8 2.4 2 2.8 3.3 2.7 6.9 4.2 14.1 7.7 20.8 2.3 4.7-4.7 4.7-7.4 6.5zm60.5 11.1c-28.6.9-52.6-20.3-51.9-49-.8-8.6-1.5-17.2 3.7-19.9 4.5-2.3 9.6 5.3 14.6 8.3 21 12.6 34.7 31 43.8 53 4.9 11.8-6.8 7.6-10.2 7.6zm21-4.8c-1.9 4.5-6.2-18-9.7-21-10.3-12.6.3-22.1 5-31.8 4-8.1 10.3-15 15.9-22.3 2-2.7 3.5-3.1 6.3.7 18 25.2 8.9 60-17.5 74.4zm-149.6 378.6c-4.4 7.4-24.3-10-33.8-11.6-16.7-5.9-31.3-14.3-42.7-28.1-9-10.9-16.2-23.2-27.1-32.6-8.6-5.9-6.4-3.3-10-13.1 32.8 12.2 44.5 54.6 80.6 63.8 10.8 3.5 20.5 10.2 30.5 15.8 1.6 1 3.9 2.9 2.5 5.8zm-135.9-7.4c.7 1 .9 2.4 1.5 4.1-2.6 8.4-8.5.9-10.5-3-15.2-21.5-30.2-43.1-44.9-65-8.3-12.2-16.7-24.3-27.3-34.6-2-1.9-3.9-4.3-2.2-7.2 22.2 2.3 67 84 83.4 105.7zm-30.7 1c1.3 1.1 3.5 1.3 5.5 2.1-4.3 6.5-6.8 6.9-11.8 3.2-13.2-10-26.2-20.2-39.3-30.4-38.9-31.3-66.4-73.7-98.3-111.5-1.7-2.1-1.4-3.9.1-5.8 2.1-2.8 3.2.3 4.1 1 34.2 26.7 53.4 67.4 86 95.8 17.3 15.8 35.6 30.5 53.7 45.6zm-285-381.5c-24.2 4.3-44.3 8.5-68.9 15.1 13.6-9.8 25.3-17.9 37.9-27.6 3.2-2.5 9.9-5.6 6.5-10.5-3.1-4.4-7.1 1.2-10.2 3.2-13.4 8.9-26.1 17.8-39.6 27.1 10.5-23 25.2-42.8 37.6-64.7.7-1.1 0-3 0-4.6-8.1-.7-25.6 33-31.5 40.8-4.8 7.8-9.4 15.8-13.7 23.9-.8 1.6-.5 3.9-3.1 2.9-.5-.2-.6-2.5-.3-3.7 5-18.3 10.1-36.5 15-54.7 2.6-6.1-4.3-9.2-7.2-3.2-7 20-11.5 40.4-17.7 61-2.2-12.4-3.5-23-4.9-35.1-2.4-9.1-1-37.8-9.2-41.1-3.7.6-3.2 4.6-2.9 7.6 2.4 23.9 4.7 47 7.2 71.4-8.6-17.9-16.4-33.8-24.5-51-19.9-17.5 11.2 44.5 13.3 48.3.6 1.2 3.3 2.1 1.2 3.7-.6.4-2.9-1-4.1-2-7.7-6.7-15.5-13.4-23.2-20.2-4.2-2.2-24.5-25-26.5-19.6-5 7.9 16.6 19.4 21.2 25.3 7.8 8.9 16.8 16.7 26.6 23.3-1.6 1.8-3.1 2.6-6.8.5-13.5-7.8-27.5-14.9-41.3-22.2-1.5-.8-3-4.3-5.3-.1-2 3.8 0 6 2.2 7.3 13.1 7.4 26.4 14.5 39.6 21.7-.1.5-.1 1-.2 1.5-22.3-4.8-44.6-9.7-67-13.9-3.2-.1-8.6 6.3-2.3 7.7 22.8 6.5 47.6 9.7 69.6 17-17.9 7-36.8 11.3-55 17.4-19.4 18.3 53.7-7.8 59.6-9-18.2 14.6-36 28.3-53.5 42.9-4.2 3.5-12.3 8-10.1 12.8 2.5 5.5 7.4-1.8 11.3-3.3 10.4-8.8 21.6-17.4 32.4-25.9 8.5-5.7 15.5-14.3 25-18.1-.2 1.3.1 2.9-.6 3.9-5.2 7.7-10.2 15.5-14.8 23.6-1.8 4.8-17.8 28-11.6 30.1 3.2 1.3 4.5-1.3 5.8-3.6 10.5-17.2 20-32.7 31-50.7-4.8 14.2-5.3 21.2-7.5 33.9-3.3 16.1-8.5 31.8-13.3 47.4-.7 3.6-1.9 8.6 4 7.1 4.1-1 4.4-6.6 5.6-10.6 8.5-23.7 12.2-48.7 19.1-72.8.9 1.1 2.4 2.1 2.6 3.3 2.1 17.3 4.1 34.7 6.1 52.1.2 1.8-.9 4.2 2.4 4.5 9.9.2 3.9-13.4 4.6-19.4-1-14.7-1.9-28-3-43.7 13.5 23.8 18.1 46.5 29.8 70.1 4.3 8.2 12.4 2.1 6.1-4-11-23.1-15.4-44.6-26.8-69.5 12.1 16.8 26.6 27.4 40.3 41.4 3.4 3.8 9.5-2.1 5.1-5.4-13.5-14.1-27.2-28.1-40.3-42.6 6-2.8 8.7 3.3 13 5 6.7 1.7 13.3 3.9 19.6 6.8 7.8 1.9 42.9 25 45.7 20.5 3.8-9.4-35-23.5-42.5-28.2-8.2-3.8-16.5-7.5-24.8-11.2-2-.9-5.5-1.1-4.9-4.3.6-3 4-1.8 5.6-1.3 15.5 4.4 31.6 2.4 47.4 3.6 2.1.2 4.4-2.1 6.6-3.2-4.3-8.6-41.6-3.3-54-9.2 21.3-10.2 45.3-10.2 66.8-19.2 5.4-.7 4.6-7.9-.3-6.3zm-83.6 30.8c-.9 10-6 17.7-18.1 19.7-7.4-3.4-16.6-6.8-16.9-16.7-.3-10.5 6-18.9 17.3-19.4 10.1-.5 18.7 4.3 17.7 16.4z"/></g><g><path d="M52 1548v15l-37 37h946l-37-37v-15H52M52 52V37.7L14.3 0H0v1600h15l37-37V52m872 0V37.7L961.7 0H14.3L52 37.7V52h872m52-52h-14.3L924 37.7V1563l37 37h15V0z"/><path d="M961 1600h15V0h-14.3L924 37.7V1563l37 37H0V0H961.7M52 52V37.7L14.3 0m.7 1600l37-37V52h872m0 1496H52" fill="none" stroke="#333" stroke-width="2" stroke-linecap="square" stroke-miterlimit="3"/></g></svg>