<svg xmlns="http://www.w3.org/2000/svg" xmlns:xlink="http://www.w3.org/1999/xlink" viewBox="0 0 976 1600"><path d="M960 22v1556c0 3.3-2.7 6-6 6H22c-3.3 0-6-2.7-6-6V22c0-3.3 2.7-6 6-6h932c3.3 0 6 2.7 6 6z" fill="#fff"/><defs><path id="a" d="M960 22v1556c0 3.3-2.7 6-6 6H22c-3.3 0-6-2.7-6-6V22c0-3.3 2.7-6 6-6h932c3.3 0 6 2.7 6 6z"/></defs><clipPath id="b"><use xlink:href="#a" overflow="visible"/></clipPath><g clip-path="url(#b)"><path d="M436.9 890.2c-5.1-3.1-8.5-5.2-14.2-1.6-15.4-15.4-29.1-34.6-45.9-47.5-30.9-24-57.1-53.2-76.5-86.7-22 10.2-45.3 18-73.1 14.4-21.2-.9-165.3-36.6-117.6-64.1 6.9-3.3 20.8-8.2 11.6-16.1-1.9-14.1 13.9-28.1 15.4-44 11.3-66.3 89.5-89.5 136.1-46.3 13.8 13.7 33.7 46.3-4.3 37.5-31.4 3.3-78.8 7.3-95.6 33.4 1.2 2.9 4.5 4.4 7.5 3.4 39.8-12.2 76.8-20.2 119.1-13.3 16.2 3.2 3 29 16.5 32.4 99.5-78.5 107.3 98.6 110.6 162.9 23 29.7 18.4-87.9 12.4-102.7-5-31.2-21.2-59.1-35.8-85 21.1-17.1 51.6-17.6 75.1-10.2 18 1.9-4.7-37.1 6-45.7 42-22.8 100.3 10.3 144.1 24.9 28.2-13.5-84.5-59-97.9-60.8-5.4-2.8-23.2 5-20.6-6.1 38.5-60.9 139.2-50 177 13.3 21 38.9 29.9 83.9 47.1 122.5-14.8 40.5-136.4 40.8-173.4 22.9-11.2-.5-32.6-27.5-38.2-10.8-3.5 66.2-46.6 123.4-85.4 173.3zm3.4-367.4c-59.4-57.4 4.4-141.3 12.9-53-5.2 15.9.9 42.5-12.9 53zm49.5-1c-2.1-.1-3.8-1.7-4.1-3.7v.2c-9-121 95.8-85.7 6.5 2.9-.7.3-1.5.5-2.4.6zm-183.8-.4c-27.7-21-31.5-97.2 11.6-93.2 25.1 16.8 3.4 76-11.6 93.2z" fill="#5d4e8c"/><path d="M704.4 1604c-5.3.1-5.6-9.8-.5-10.4 13.3-17.3 2.6-50.3 8.4-72.9 5-39.4 2.6-76 8-114.4 2.8-5.2-4.3-8.7-.3-14.2 3.3-5.4-1.7-10.1 2.8-16.2 3-9.2-4.1-20.2.9-30.5-7.3-23.2-1.3-11.3 16.4-27.5 19.6-12.3 37.2-22.8 55.6-37.6 10.3-14.5 29.6-4.4 33.2-21.3 14.1-10.9 28.9-19.1 45.2-26.2 1.1-5.8 0-13.1 2.3-18.5 7.7-19.4 81 2 99.7-10.4 7.9-.3 2.8 24.7 3.7 28.7.5 21.1.4 53.4.2 74.9.5 24.1-.2 276.6.1 292.6.7 11.2-271.7.1-275.7 3.9zm-364.5 0c-16.3-9.5 59.7-45.2 65.9-53.7 29.3-13.6 51.5-44.4 84.2-54 15.4-21.2 45.2-32.6 65.4-46.6 2.4-5 35-33.9 30.4-15 2.2 10.5-5.4 16.1-3.7 24.2 1.8 1.7 2.7 12.5 1.5 17-1.7 6.5 2.1 10.9-2.6 18-3.9 5.2 4.7 15 1.6 19.6.5 13.2-8 24.2-2.1 34.9 1.5 15.6-4.9 33.8 4.2 46.7 13.2 21.6-242.6 3-244.8 8.9zM0 1527.2c-4.7 12.6-14-367.6 7.8-294.4 28.9 20.3 64.4 30.5 89.2 53.2 16.5 2 38.5 11.6 31.8 30.4-1.7 4.6-2.3 8.3 1.4 12 5.7 11.7.4 24 3.3 35.4 2.7 22.3 5.6 48.6 3.9 71.2-24.6 9.3-44 40.2-73.4 42.2-7.4.7-3.4 9.5-9.2 12.5A314.47 314.47 0 000 1527.2z" fill="#80e3ed"/><path d="M454.7 1213.3c-84.4-42.6-168.7-90.1-252-131-11.5-4.3-22.1-9.5-16.1-24.8 1.4-21.7-2.7-42.7-4.7-64-12.2-84.3-38.6-163-88.3-229.8-19-28.3-46.5-53-68.8-70.6 3.6-34.4 133 79.9 146.3 99 67 70.7 86.9 151.8 118 226.6 10.7-3.8 3.6-23.5 5.1-30.2-2.8-52.4-9.2-104.6-19-156.3-5.6-64.7-34.1-50.8 21.5-78.1 14.8 17.8 23.2 41.9 44.7 60.7 18.4 10.7 8 192.7 29.2 153.8 5.6-37.9 1.2-76.8 7.3-114.3 8.3-11.3 37.3 32 45.9 41.9 29.8 12.8 58.5-125.1 59.7 6.5 18.7 28 14.9-62.2 18.7-73.2 6.2-26.9 12.8-53.5 19.1-80.5 9.6-71.6 21.9 0 108.8-8.9 28.1-2.9 5.8 23.2 7 38.6-5.8 29.7-9.2 63.5-14 94.8-3.4 14-3.6 239.2 23.3 200.9 8-78.6 19.1-208.8 72.8-260.2 16.4-5.7 43.2 6 56.4 14.2 64.4-25.9 97.7 62.8 108.8 112.2 12.2 60.1 17.6 126.9 9.5 188.5-8 14-33.7-71.6-42.1-78.1-26.4-41.6-43-95.7-75.6-130.8-13.1 7.5-9.1 30.4-15 43.6-9.7 50.3-17.6 110.5-13.5 163.4 6.4 29.8-52.6-10.2-66.6-9.1-57-38.4-77.3 47.2-91.5.6-5.3-9.5-3.4-28.4-14.4-32.6-19.2 3.7-39.8-6.5-63.2-3.1-20.2-12-12.6 1.2-28.8 7.2-30 11.4-2.7 108.7-28.5 123.1zm-66.8-540.9c-14.6.7-20-13-19.8-22.2-1.7-8.3-6.9-24.2-.9-31.3 14.7 8.6 21.5 26.5 38.5 33.3 15.2 6.8-9.2 19.5-17.8 20.2zm56.1-21.5c-12.5-2.7-9.4-10.5-2.3-16.3 4.5-13.8 14.4-37.6 17.9-7.3 2.6 15.3 9.4 26.5-15.6 23.6zm-161.7-46.1c-24.6-23.8-52.2-36.1-87.1-28.1-12.3.2-32.1-60.6-45.7-73-32.7-54.8-74.3-110.9-126.3-150 33.6-9.9 127.5 71.1 157.2 97.8 25.3 25.8 126.8 121.4 101.9 153.3zm124.7-7.2c-53.7-52.4-48.3-6.1-56.1-33.8-6.5-37.3-26.2-74.1-19.9-112.3.3-11.2-1.7-19.9-12.7-26-15.5-33.8-22.2-76.1-37.9-110.3-3.5-55.6-164.5-262.3-26.7-132.2 64.3 69.9 116.4 150.1 154.2 237.2 15.9 23.9-3.6 48.5 12 72.6 6.7 16.6 32.1 34.7 11.8 51-14.4 13.5-6.8 50.8-24.7 53.8zm290.8-7.7c-16.8-12.8-26-37.1-44.1-46.3-12.4-2.4-34.7-10.3-43.3-17.8 37-87.4 121.1-152.8 209.1-184.6 10-11.4 181-29.8 132-7.5-118.7 43-197.2 149.8-253.7 256.2z" fill="#333"/><path d="M580.6 1604c-2.1-252.6 67.3-214.5-201.2-46.8-13.1 8-23.3 20.5-37.4 18.9-2.8 13.1-16.3 18.2-27.7 26.9-39.8 2.6-183 1.6-225.5-.2-6.2-3-88 8.2-92.7-2.8 3.4-3.7-5.9-82.8 4-80.8 9.5 4.9 15.4-1.9 23.1-7.2 143-101.5 120.6-33.5 106-215.8.3-10.1-47.7-25.3-62.5-36.3-21.7-7.1-43.4-33.9-65.6-28.1-10.2-.8-7.7-252.5-1-255.3 140.6 78.6 289.3 149.5 435.4 226.5 8.8 2.8 29 21.5 29.3 2.4 2.6-30.6 3-64.8 8.1-94 4.2-3.8 9-2.4 14.9 0 26.8 11.2 54.3 10.1 82.4.3 12.3-3.4 5.4 15.3 6.1 21.9-3 30.3 37-10.6 48.5-14.7 26.8-27.4 88.1 15.8 120.9 24.9 40.3 13.2 81.9 27.8 123.4 42 12.2 15.3 12.4 40.4-10.6 48.5-27.3 16.6-52.4 34-77 50.9-35.7 20.1-66.1 62.6-101 30.6-20.9 6.7-39-1.8-62.2 3.5-53.3 9.2 2.1 32.2 23.1 32 19.2 2.4 43.6 4.8 62.7 0 6.4-3.6 13 2.6 11.2 8.5-8.5 67-7 137.3-12.3 204.9 3.2 8.7-7.9 24.3 2.5 29 3 .4 3.4 4 3.2 6.4.6 10.7-124.2.5-128.1 3.9zm-355.5-378.3c-56.4-5.9-163.5 51.9-46.3 58.5 37.5 3.6 63.2-15.8 91.4-19 14.6 6.2 9.9-19.9 5.1-26.1-2.5-4.1 3.5-10.8-2.9-13.5-3.6-2.2-9-4.7-11.9 0-10.1 4.7-24.9-1.4-35.4.1zm209.1-380.9c-12.2-8.2-5.6-30.8-10-44-3.7-40.5-14.3-82.3-33-117.6 5.6-37.2 36.2 23.2 37 36.3 10.6 33.4 24 97.2 6 125.3zm-267-167.9c-25.6-5.9 39.3-27.7 46.1-30.7 28-11.9 55.8-2.9 80.8-12.5-10.8-37-7.5-77.4 13.3-110 24.5 1.7 15 76.3 2 93.5-23.1 32.7-7.4 9.6-7.9 39.9-44.7-.8-92 2-134.3 19.8zm254.7-21.7c-33.5-1.5-77.2-63.7-52.8-84 20.5 4.7 29.1 32.7 45.8 35.9 8.3-7.5 2.5-23.7 6.2-34 1.5-12 17.9-54.9 27.4-44.2 13.8 51.8 2.1 98.9-26.6 126.3zm208.5-18c-44.3-22.1-91.9-37.3-140.7-38.6-32.4 17.9-16.5-57.3-2.3-69.3 21.5-5.4 2.9 50.3 16 49.3 18.9-16.1 145.5 45.3 127 58.6z" fill="#ffeb5c"/><path d="M684.7 1353c-16.4 3.5-117.9-10.1-74.5-29.4 28.6-15.2 172.1 15.2 74.5 29.4zm-506.5-70.8c-133.2-11 41.8-79.5 89-46.6 33.5 32.4-66.8 48.1-89 46.6zm353.6-164.9c-15.4-1.9-53.7 1.2-56.3-17.7 28.4-39.9 183.8 6.7 56.3 17.7zm356-825c-19.7.2-40.8-8.1-50.5-24.3-15.1-8.7-39.4 36.8-70.9-3.7-80.9 50.3-71.3-19.6-96.7 6.8-36.9 27.4-102.7 28.7-123.5-20.9-32.7 8.1-66.3 17.2-91.3-10.4-26.5-28.5-3-69.1 22.1-82.8 8.1-6.5 12.5-2.6 20.7-2.1 4.7-3.9 13.4-14.3 8.4-20.4C456.5 36 447.9 93.2 415 47.7c-6.3-14.7 2.8-30.9 4-47.7 0-2.2 1.8-4 4-4h36.3c9-.3 506.9.2 516.7 0 11.3-.8.3 220 4 224-.3 6.5-9.8 1.7-11.2 8-13.9 32.5-39.2 62.2-81 64.4v-.1zM166.4 100.2c-27.5 1.4-43.9-21.9-57.4-39.5-17.6 11.2-39.3 14.2-60.7 6.9C31.7 66.4 17.9 43 0 42.9-8.4 44.3-2.1 3.3-4 0c0-2.2 1.8-4 4-4 3.6 2.6 319-5.1 319.9 2.7 2.9 40.3-38.8 87.8-79.4 64.6-14.3 8.5-25.6 30.8-47.6 23.6-8.3 4.9-13 15.4-26.5 13.3z" fill="#d81e1e"/><path d="M977.3 323c-11-6.3-24-5.5-35.5-5.5-130.1-6.4-254.8 67.6-321.3 178-9.7 14.4-15.3 33.6-39.8 27.9-32 2.9-62.4 15.1-78.8 49.2 2.9-15 3-26-.8-36.8-1.4-3.9-7.4-8-4.1-11.3 20.1-19.4 36-45.7 37.4-73.9-.3-22-30.6-19.4-39.2-3.8-12.8 20.7-18.4 43.4-14.3 67.9.8 4.5 3.4 10.5 1.5 13.1-8.5 14.8-16.2 31.6-17.3 48.4-.4 21.7 16.2 40.1 11.9 62.3-1.1 3.5 4 10 3.3 11.7-2.4 2.2-5.4-1-8.2-1.1-4-.2-2.6-2.8-3-4.8-1.6-8.1-3.3-16.2-5-24.2-2.2-10.4-6.6-20.9-6-31.2.8-15.5 2-31-.9-46.5-1.5-8-7.9-16.5-7-22.8 3.2-21.9 10.5-42.9 7.3-65.8-2.3-16.2-16.4-36.3-36.1-23.8-1.5 1-3.2 2.1-4.2-.8-38.4-94.5-130.3-244.7-219.7-294.8-2.9-1.6-5.9-6.4-9.2-1.5-2.5 3.8-.4 8.1 1.8 11.6 56.8 83.4 92.2 179 120.3 275.4-20.3 6.6-33.2 31.6-32.7 52 1.4 17.6 9.3 33.5 20.2 47.7 1 1.3 5.6 1.2 3.7 5.9-4.4 11.1-13.6 20.3-13.1 33.4-1.2 12.5-9.7 3.7-12.9-3.1C211.6 466 127.5 383.1 23 343.3c-4.4-1.4-11.4-4.3-14.1.5-3.7 6 3.2 9.2 8.2 12C89.8 408 135.4 487.1 178.5 563.5c2.6 5 8.3 12.7-3.9 16.7-48.2 22.3-42.3 92.3-80.7 129.8-1.2 1.4-2.2 3.9-4.7 2.1C71 700 32.3 676.7 11.3 676.6c-3.6.3-5.6 2.6-7.8 4.8.5 1.1 1.2 2.1 2.1 2.8 11.8 7.8 22.9 16.5 33.4 26.1C137.1 795.1 177.3 929 182.2 1055c-.1 1.4 6.8 14.2-4.9 9.1-16.7-7.2-32.4-16.6-48.5-25-38.5-19.7-76.7-40-115.1-59.9-2.9-1.5-7-6.3-10.4-1.3-2.2 3.1.5 6.8 3.3 8.4 90.3 49 183.4 92.7 274 141.4 58.4 31.9 118.5 60.2 177.3 91.4 1.7.9 1.6 2.6.1 3.6-23.9 14.4-47.5 29.4-70.6 45.2-8.1 5.6-14.9 7.8-24.1 2.5-85.1-47.7-172.4-91.3-259-136.3-30.5-14.9-59.8-32.4-89.8-48.4-3.5-1.8-7.8-5-12.4-1.7-5.6 4.9 3.3 9.8 8 9.2 82.3 45.8 163.6 84.9 247 130.2-42.4-3.7-103.6-2-132.3 32.5-.3.4-1.4.7-1.6.5-6.8-7.2-16.3-9.9-24.6-14.5-29.3-16.5-58.6-33-88.4-48.6-3.8-3.3-7.5-5.7-9.2 1.6 0 2.4 2.2 4.4 4.2 5.5 33.3 17.6 66.4 36 99.8 53.4 14.9 7 21.3 11.5 18 30-38.9-16.6-75.1-40.2-113.2-59-3-1.5-7.1-3.4-8.2-.8-1.2 2.8-.6 9.2 1.5 10.6 28.3 18 53.7 30.4 84.7 46.8-28.7-1.6-54.4 1.4-80-2.2-6.4-1.6-13.7 7.1-3.9 8 20.5.6 40.9 1.4 61.3 1.9 18.7.3 67.5-2.8 59.3 27.9-.9 4.3-5.8 1.7-8.9 1.7-7.9 0-15.9-1.1-23.7-1.2-26.8 2.1-70-4.3-86.2 21.8-9.9 15.5-6.5 48.2 10.1 58.3 11.2 6.3 23.7 6.8 35.9 7.1 25.5.7 51 .2 76.5.3 1.6 0 4.3-1.5 4.6 2-.6 4.1 5.1 27.5-.5 25.8-40.6.4-81.2.1-121.8.1-2.8 0-5.7 1.2-5.7 4.8 0 2.9 2.1 3.2 4.5 3.2h111.4c-8.6 5.7-15.3 10.2-22 14.6-9 5.8-17.6 15.1-27.3 16.5-20.8 3.1-42.2 2.1-63.4 2.7-3.6.1-7 .3-7.2 4.6-.3 4.6 3.8 3.7 6.6 3.6 15.6.7 31.6-1.2 47 1-15.7 11.7-34 20.8-49.9 32.7-3.1 2.1-4.8 6.7-2.6 10.2 1.9 3.4 4.2 1.5 6.4 0 117.6-79.3 237.3-155.5 356.3-232.9 87.3-57.3 174.4-114.8 261.9-171.8 9.1-6.1 16.3-14 29.5-8.6 28.5 12.5 59.3 20.1 87.3 33.7-219.2 149-441.2 297.6-661.5 446.4-10.7 4.3-1 13.7 6.4 8.7 45.8-33.6 94.6-63 141.1-95.5 135.9-94.7 275.5-184 410.7-279.7 37.5-24.8 75.2-49.3 111.5-75.8 2.6-1.8 4.8-.6 6.9.2 36.4 13.9 71.3 24.8 109.1 38-60.4 35-115.5 76.6-175.7 111.7-8.7 5.3-15.8 15.3-27.3 13.4-16.7-1.8-70.4-5.4-73.3 16.8-4 11.3-1.8 48.2-9 53-81.8 50.9-162.8 103.4-242.2 157.9-26.5 17.2-53.4 33.8-79.9 51-1.6 1-2.9 4.6-2.6 6.7 1.2 5 6.8 3.1 10.2 0 107.2-72 211.6-138.9 319.7-211.1-7.8 11.8 2 25.7-13.1 32-16.9 7-30.5 19.6-45.6 29.6-71.1 52.7-151.9 97.5-218.8 153.2 4.8 8.4 23.8.2 29.9-3.7 19.6-14 39.1-28.7 60.2-40.6 10.5-6.1 17.5-18.1 34.4-15.1 46.4 5.9 96-1.6 142 4.1 0 11.9-.3 23.8-.4 35.7.4 4.3-1.2 12.8 5.8 10.7 1.6-1.8 3.1-4.4 3.1-6.7-.4-36.2 1.3-72.2 3.8-108.3 3.2-42.3 3.2-84.8 6.7-127 .3-3.2 1.2-10.6 3.5-9.6 13.5 5.9 27 10.3 41.7 12.1 21.4 2.5 42.7 4.9 64.1 0 2.8-.6 7.1-2.9 6.3 4.2-9.2 74.1-6.9 148.7-13.5 222.6-2.2 5.8-2.2 16 6.8 15.6 7.8.4 9.2-6.9 8.7-13.2.1-42.1 6.7-83.9 6.6-126-.1-3.3 0-3.6 3.3-3.5 17.1.4 34.2.5 51.3 1.8 37.4 2.5 75.5-4 112.4 6.1 10.5 2.8 17.7 16.6 11.4 24.3-6.8 8.3-17 13.2-27.7 13.4-32.5 1.1-65-.7-97.4 2.3-40.8 4.3-29.2 68.6 17.5 64.6 41 2.7 81.9-2 123-.5 18 0 36 .2 53.9-.2 3.1-.1 6.3-2.2 9.4-3.4-8.5-11.2-58.5-5-74.3-5.4-17.8 1.2-35.8-.2-53.6-1.3-26.4-1.6-53.3 4.8-79.1-5.9-18.1-5.8-18.1-38.4 2-39.9 42.1-9.2 186.2 18.2 188.7-36.1 1.4-25.3-7.5-42.5-32.1-56.1-36.6-18.1-78.3-12.2-117.8-15.5-27.5-3-55.3-3.2-82.9-4.3-10.3-.1 0-9.1-2.7-15.2-.8-5.8 1.4-7.1 7-7 37.2.7 74.5-.6 111.7 1.9 42.3 1.1 84.7-.3 127.1.2 2.1.2 4-1.4 4.2-3.5v-.4c.1-2.8-2.4-2.1-4.1-2.2-13.1-.7-26.2-1.7-39.3-1.9-65.8-1.8-131.7-1.5-197.5-3.8-3.2 0-8 .8-7.7-2.1.7-7.3-2.3-15.4 3.4-21.9 9.2.2 18.7 1.4 28 1.3 32.1-2.6 64.4 1.2 96.2-.5 38.8.7 77.6-2.4 116.6-.9 5.3.6 3.5-5.2.2-6-42.7-1.8-85.4-.5-128-1.7-20-1.6-40.3-.9-60.5-.3-18.5.6-37.1-2.3-55.5 1.5-.8.2-2.2-1.2-2.7-2.2-1.4-2.4 1.1-1 1.7-1.4 15.2-9 27.6-26.3 47.4-23.7 64.1 4.1 128.5-.6 192.7-.5 5 .8 13.2 2.9 10.2-5.2-2.2-2.8-10.7-2.5-14.6-2.7-63.3 1.5-125.6.3-189 .3 6.2-4.1 10.9-7.7 16.1-10.6 9.6-5.4 16.7-16.7 27.9-17.2 50.8-.7 101.7-3.3 152.5-2.4 4.5.6 10.2-2.2 7.1-6.8-39.7-3.7-81.8 2.2-122.1-.8-7.5-.5-15.5 4.1-22.8-1.2 16.8-10.4 29.4-25 51.5-23.7 29.6 1.5 59.3.4 89 .5 3.3 0 7.3-.1 7.1-4.6s-4.4-3.9-7.6-3.9c-15.6.2-31.2.3-46.8.1-11.9-.2-23.8-2-35.5-1-16.5 1.5-8.8-8.8-8.3-15.3.4-6.2 5.7-3.3 8.6-3.3 27.4-.3 54.8-.3 82.3 0 4.6 0 4.6-3.1 5.6-5.9 2.5-3.7-13-3.9-15.2-4.3-10.5-2.3-83.5 6.7-80.5-4.3 1.9-8.4-4.3-12.2-10.7-14.3-31.8-12-63.7-23.9-95.8-35.3-12.3-4.3-24.2-7.2-22.3-24.8 2-19.3-1.6-39.6.3-59 2.5-47.4 14.1-93.2 20.8-140.2 44.2 69.8 81.4 146.1 115.2 222 2.7 8.4 8.2 8.8 10.2-.3 8.3-90.1 8-254.7-68-316.2-43.8-33.8-39.9 9.8-79-17-48.3-21.5-59.5 25.3-72.9 57.8-21.3 59.2-32.6 122-35.7 184.8-.1 5 .4 11.1-3.1 18.4-11.1-67.2-20.1-131.6-9.2-198.8 1.1-13.3 1.1-26.6 2.2-39.9.8-9.5 5.1-18.1 5.2-28.1.3-12.4 2.7-24.7 7.1-36.3 3.8-10-1.7-27.8 19.4-26.9 23.7-1 47.2-10.5 68.3-21.2 24.2-14.2.9-16.5-6.2-46.8-6.4-24.9-17.9-51.1-23.3-75.5 39.6-93 107.3-174.6 191.3-231.1 25.2-15.8 50.4-31.2 81.6-31.1 10.7 2.9 8.4-9.9.6-13.5zM12.7 1381.5c-7.7-12.9-2.4-25.7 4.7-38.5 10-23.2 77.2-11.6 100.8-14 2.9 0 7.8-.4 8.4.9 3.9 9 2.2 18.8 2.2 28.3-18.3-2.8-37.2-.8-55.7-1.2-12.2.2-24.4 1.3-33.8 10.7-7.8 7.8-6 21 4.7 27.4-13.5-.2-25.3-3.5-31.3-13.6zm116.4 13.4c-23 0-45.9.5-68.9-.2-13.5-.4-21.2-11.5-15.7-21 5-12.3 65.9-6.2 81.7-8.9 3.5-.1 4.9.7 4.9 4.6.2 8.2.8 16.4 1.8 24.5.5 4.4-2.3 2.2-3.8 1zm138-48.6c-40.9 26.6-81.7 53.5-123.1 79.3-4.9-48.4-5.5-97.6-12.7-145.9 96.8 31.4 143.5-34.5 137.8-1.6.5 20 1.3 40 2 60 0 3.7-.5 6-4 8.2zm4-101.1c-8.6 24.9-49.2 27.8-71.5 31.7-19.4 3.2-39.7.8-58.5-4.3-3.8-.4-8.1-4-7.7-8.5 7.7-24 65-30.4 86.9-33 8.7-.6 51.3 3.2 50.8 14.1zm17.2 87.2c-1.3-22.6-2.3-45.3-4.2-67.8-.8-9.3.6-19.4-5.6-27.8-.2-.3.1-1 .2-1.6 30.3 13.8 59.7 28.6 88.8 45.4l-79.2 51.8zm290.3 180.5c-3.5 21.4 2.3 29-21.9 23.6-15 1.6-30.5.7-45.2-.4-25.3-1-50.6-.4-75.6-1.4 29.8-20 46.4-42.9 85.6-34.3 15.3 2.3 31.2 1.4 46.8.3 10.5-.7 11.2 5.7 10.3 12.2zm.5-29.8c1 8.2-1.5 11.2-10 9.7-23.4-4.1-46.8-.6-70.4-2.1 25.4-17.3 46.4-40.7 79.4-30.2 4 4.7.4 16.4 1 22.6zm1.9-46.6c4.3 19.6-11.8 14.9-21.8 13.7 6.8-6.8 14.8-11.5 23.2-18.4-.7 2.3-1.6 3.6-1.4 4.7zm128.1-91.6c-20 9.3-91.7 3.5-105.8-12.3.6-5.1 6.3-4.5 9.5-5.2 31.2-4.8 76.1-6.9 101.9 13.2-1.9 1.4-3.5 3.3-5.6 4.3zm13.8 65.9c.8-2.2.4-3.9 3.6-3.8 23.5.8 47.2.2 70.6 2.4 44.4 5.4 92.7-4 133 19.6 18.3 12.2 23.3 28.7 21.6 45.5-2.9 23.9-34.5 26.8-54.2 25.9 9.3-8.8 15.3-17.4 9.5-30.4-10.5-22-42.9-17.5-63.3-22 0 .4-.1.9-.1 1.3-38.4-2.1-76.9-3.9-115.4-4.1-7.4 0-8.8-3.6-6.8-8.3 3.7-8.7-1.6-17.5 1.5-26.1zm149.6-205.4c4.6 18-12.1 22.3-22.7 29.1-23.8 15.5-47.6 31-70.8 47.4-21.5 15-43.3 29.5-65.9 42.8-3.9 2.3-12.1-2.8-18.3-4.2s-7.5-3.5-1.2-7.1c26.3-16.5 52.2-33.7 78.4-50.2 31.7-20.9 65.2-39.4 95.9-61.8 2.8-1.8 6.7-3.6 4.6 4zM764.3 929.5c-14 64.9-25.8 131.3-20.8 198.1 1.3 12.4-5 6.9-9.3 5.1-9.5-4.1-18.9-7.8-29-10.1-3.1-.7-7-2.4-4.9-6.9-3.2-84.6 12-169.4 34-250.5 12.5 14 21.2 31.8 32.9 46.9 4.6 6.7-2.4 11.4-2.9 17.4zm-42.7-112c7.6-3.7 42.5 5.5 47 12.3 7.9 12 15.5 24.3 22.2 37.1 25 46.3 47.4 93.6 64.2 143.5 4 10.4 8 20.9 12.2 31.2 1.2 4.4 6.7 4.7 5.8-1.1-13-44.1-26.2-87.7-49-128.1-14.2-27.2-25.2-56.2-44-81.1 79.3-23.5 102.7 110.7 109.7 166.5 1.9 43.2 7.3 87.2.2 129.8-16-48.4-43-91.5-66-136.5-28.6-53.6-56.7-109.5-100.2-152.7-4.8-3.8-10.2-8.7-11.9-14.2-1.9-6.2 6.4-5 9.8-6.7zm-72.5 280.7c5-90.3 15.5-185.6 58.6-266.4 15.1 21.5 27.3 18.4 14.6 46.7-7.1 28.7-16.1 57-20.8 86.3-6.2 44.4-12.3 88.8-9.8 133.7-1.1 10.5 6.8 23.8-10.6 15.4-10-3.8-19.5-8.9-30.1-10.9-3.3-.7-2-3.2-1.9-4.8zM498.4 590.1c22-32.6 108.9 25.8 132 43.2-40.5-18-81.4-38.9-127.4-36.4-4.4.3-11 3-4.6-6.8zm2.7-135.6c4.4-8.3 22.8-17.3 23.6-1.8-4.8 24-13.9 50.8-35 65.1-3.1-21.3-1-43.7 11.4-63.3zm-22 143.8c-9.2-15.2-1.3-52.4 11.1-66.2 11.9 23.5 2.6 44.2-7.5 64.8-1.3 2.8-2.8 3.4-3.6 1.4zm20.8 77.2c55.9 56.9-29.3 158.9-63 210.7 17.3-73.6 17.3-154.8-29.9-217.4 25-18.1 70.3-17.5 92.9 6.7zm56.3 270.9c1.5 43.4 4.3 87.3 13.2 129.9 2.1 9.1.2 8.4-6.6 6.7-16.7-4.3-33.7-4.5-50.8-4-2.7.1-4.4-1.2-4.7-3.4-5.7-36.3-10.1-73-11.7-109.7.4-45.6 7.1-90.3 10.4-135.9 6.2-26.2 12.8-53.5 19-79.9 2.2-9.2 3.9-18.5 6.2-27.7.4-1.7 1.2-4 4.7-1.6 12.4 8.8 27 13.1 41 18.7 6 2.4.5 8.3-.2 12.4-14.4 63.8-21.3 129.1-20.5 194.5zm-65.8-65.9c-2.7 0-1.2-3.5-1.2-5.4-.2-13.3-.1-26.6-1.8-39.9-1.4-11.2 9.4-18.1 12.6-30.5 2.8 12.7-2.7 21.8-3.6 31.6-1.1 12.7-3.5 25.4-3.5 38.3 0 2.3.7 6-2.5 5.9zm-120 42.4c-1 22.6-4.6 46.1-6 68.9-1-54.4-3.2-108.7-13.9-164.2 10.4 9.5 24.3 15.6 21.8 30-2.2 12.7-.2 25.3-2.4 37.9-1.6 9.1-1.5 18.4.5 27.4zm-43.8-135.5c-27.8-33.2-36.5-79.2 7.9-102.6 11.2-6.9 23.4-9 35.5-9.3 12-.3 15.8 11.8 20.5 20.1 29.9 58.3 31.5 124.2 32 189-26.5-39.8-67-60.6-95.9-97.2zM322.9 534c-1-6.1-8.2-10.8-5.8-17.7 2.8-8 6.9-15.5 10.7-23.7 16.5 55.4 26.8 109.7 35 166.4 1.5 8.2-4.5 6.2-8 6.6-15 1.9-26.7 10.8-39.1 18-6.6 6.6 1.8-29.9-14.3-45.2-1.3-1.5.2-2.7 1.5-4 24.5-26.7 27-66.6 20-100.4zm54.2 83.7c-8.6-12.4-12-27.7-9.7-42.6 21 7.2 54.1 47.9 57.5 70.7.8 3.3.2 6.2-4.6 5.3-19.8-4-32.5-17.3-43.2-33.4zm29.9 40c-7.8 4.3-12.5 14.2-25.5 9.5-11.2-4-7.3-12.5-9.8-18.6-2.8-6.9-2.1-15.3-3.2-25.8 9.9 15.5 25.6 27.9 38.5 34.9zm15 101.4c-5.5-27-14.7-53.2-27.3-77.7-1.1-2.1-1-3.8 1.3-4.2 11.6-8.1 26 35.8 28.4 43.6 13.1 37.6 17.9 81.2 9.9 120-.7-1.2-2-2.3-2.1-3.5-2.7-26.2-5.1-52.2-10.2-78.2zm31.2-141.8c2.7.2 1.3 4.3 1.7 6.7 1.1 6.3 2.1 12.7 3.6 18.9 1 4.1 1.4 4-14.5 4-12.8-3.4 6.3-10.3 3.7-15.5-.8-1.7 2.4-5.1 3.2-7.9.7-2.3-.3-6.4 2.3-6.2zM438.4 629c-.8 2.2-3.1 3.9-4.7 5.8-12.6-18.4-12.2-40.3-8.5-61.1 1.7-16.9 11.5-28.9 19.6-43.5 10.6 34.4 4.7 66.8-6.4 98.8zm-19.3-170.7c-.4-13.6 14.6-32.9 24.7-14.9 3.7 8 6.2 16.6 5.4 25.7-2.1 15.4-4.2 30.7-6.5 46-.2 1.3-1.6 2.4-2.4 3.5-10.8-18.3-23.8-37.1-21.2-60.3zm-126-119.7c-22.6-69.5-54.2-133.1-93.7-194.9 48.5 33.7 83.5 74.4 116.2 122.1 33 49 65.5 98.9 87.9 153.8 2.3 6.5 4.6 13.5 8.1 19.5 2.9 5-.4 8.6-1.2 12.2-3.5 14.8-1.3 30.3 6.1 43.5 41 64.4 4.7 15.3-3 95.9-21.3-101.1-52.1-204-109.5-290.6 0 1.6-.6 3.5 0 4.9 9 18.7 18.7 37.1 27.1 56.1 9.2 20.7 16.6 42.2 26.1 62.7 18.9 45.4 33.2 92.6 42.5 140.9 1.4 9 2.1 19 7.2 28.8-14-11.4-27.2-29.4-45.4-28-6.2 8-5.5 2.8-6.9-2.7-6.4-37.1-25.9-73.2-19.7-111.2.4-12.3-2.1-22.6-14.8-29.6-4.4-2.5-4.8-12.8-6.5-19.6-5.2-21.7-12.6-42.8-20.5-63.8zm-1 153.1c-7.9-17.9-4.1-37.3 6.9-52.1 4.8-4.1 8.7-11.8 16.9-7.8 21.7 11-.8 68.4-9.8 85.6-4.4-9.2-10-16.9-14-25.7zm-1.4 107.2c1.6-29.1 7.4-51.9 19.7-72.6 12 22 7.6 49 3.1 72.8-2.4 10.3-9.6 17.5-13.4 26.8-.6 1.6-2.6 1.3-3-.9-2-10.4-6.8-20.3-6.4-26.1zm-1.3 42c8.1-.5 8 8.1 9 13.7-30.8-3.6-62-1.5-92.1 6.1-12.9 4-26.4 6-38.6 12.1-.6.3-1.5-.1-3.3-.3 45.1-24.7 74.4-31.4 125-31.6zM152.8 501.5c-26.6-42.4-53.7-85-91-118.9-10.7-10.4-20-22.9-34.7-28.7 72.7 27 140.6 86.2 193 143.8 21.3 26.2 43.8 51.8 61.5 80.8 3.6 8.4-3.7 11 .7 22.3-9.9-11.5-22.3-19.3-35.8-25.6-10.8-5.5-14.6-17.2-21.4-26.2-12.2-14.1-26.1-41.2-43.4-47.7 16.4 24 33.4 47.1 49.1 71.1-.8.2-1.6.7-2.3.5-11.4-3.2-22.8-2.9-34.2 0-4.9 1.2-3.8-4-4.6-5.9-10.4-23.1-23.5-44.4-36.9-65.5zm-27.2 179.1c19.3-32.4 19.1-79.6 59.7-94.8 38.1-15.4 89 2.3 101.5 42.9 1 2.8-.2 4.8-3.8 4.3-57.9-6.4-111.5 24-159.4 52.6.5-1.7 1.2-3.4 2-5zm-12.5 26.8c50-27 100.8-46.3 158.9-46.6 6.6-1 16.7.4 26.5 2.5 6.4 1.4 5.1 8.5 6.4 13.5 4.1 15.1-5.9 26.4-10.6 39.2-9.1 22.1 10.3 34.2-9.3 40.7-34.5 16-73.4 7.5-108.2-2.8-11.9-3.8-104.5-32.7-63.7-46.5zm174.2 414.1c-7.6-5.4-39.8-17.3-38.4-24.1-.4-38.2-6.1-76.2-12.4-113.8-15.6-58.8-28.8-125.5-73.2-169.7-4.1-2.5-4.4 3.4-2.4 5.4 54.5 74.9 70.5 168.7 79.9 258.8 1.8 9.8 1.6 26.2-10.7 13.8-11.7-7.4-24.5-12.3-36.8-18.2-7.8-3.8-3.2-11-2.9-15.8-2.9-136.5-52.3-282.3-163.4-368 143.4 51.9 276.2 266.9 260.3 431.6zm1-100.5c-20.1-105.1-74.2-193.6-147-269.4 36.1 13.3 73.3 23.3 112.1 23.8 10.1-1.1 19.4 82.2 21.6 94.2 7.8 50.1 16 100.6 13.3 151.4zm11.1 106.7c-1-.5-2.3-1.7-2.3-2.7-1.1-21.3 1.6-42.4.7-63.8-1-24.2 1.4-48.6.1-72.9-4.6-70.4-12.8-141.5-30.5-209.8-4.9-12.1 13.8-4.3 27.7-19.6 2.5-2.4 3 1.8 3.3 2.5 8.8 22 24 39 39.8 56.1 4.9 5.3 5.5 15.2 6.4 23.1 9.7 68.9 11.5 138.6 10 208-1.7 29.7-3.3 59.4-9.3 88.6-.9 4.4.7 9.3 1.2 15.1-15.9-8.3-31.5-16.4-47.1-24.6zm105.2 54.9c-17-8.7-34.1-16.6-50.3-26-7.5-4.3-.7-12.1-.5-18.1 10.8-53.3 12.3-108.7 19.6-162.6 3.7-21.7 3.1-43.4 5-65.1 2.5-18.4-2.3-37.6 3.2-55.6 13.3 12 25.5 25.2 36.2 39.5 12.2 16 6 34.1 6.3 51.4.4 79.6-13.8 157.5-19.5 236.5zm60.2-45.8c-11 95.7 7.4 77-49.9 51.9-7.9-3.3-2.8-9.2-2.5-12.8 6.5-71.7 17.3-143.1 20-215.2.8-17.3.7-34.7.5-52.1-.1-6.2 4-9.7 7.1-13.8 11.3-15.1 22.9-30 34.5-45.1 7.3 41.5 2.9 84.8 8.5 126.7 5.2 32.1 4.2 64.6 7.8 96.7 3.1 16.9-22.9 10.5-24 30.1-.8 11.1-1 22.4-2 33.6zm108.6-19.7c-1 10.1-1.5 20.1-2.4 30.2-.4 4.8-5.7 5-8.5 6.9-31.2 19.9-61.2 43.5-94.2 60.1.7-27.7 3.9-55.7 6.3-83.4.7-8.9-5.1-23.2 11.4-15.9 28 11.7 56.8 10.4 85.3.4 1.4-.5 2.3-.7 2.1 1.7zm3.1-15.9c-2.9 16.7-94.8 15.2-97.2-.4 5.2-16 93.7-16.4 97.2.4zm64.2-351.8c-7.1 12.5-6.9 26.9-9.5 40.3-3.5 17.8-6.6 35.7-8.3 53.9-.7 7.5.3 16.2-3.5 23.7-5.2 78.4-4 159.7 18.6 235.9 1 2.7-2.1 2.8-3.8 3.9-10.5 6.6-20.8 13.6-30.9 20.7-4.4 3.1-6.2 2.1-10.1-10.4-12.1-32.9-17.2-67-21.3-101.7l1.3-.1c-6.1-58-8.8-117-2-174.9 2.1-32.3 11-63.4 15.8-95.3.5-3.7 1-3.3 4.6-3.2 9.2.3 18.2 2.8 27.8 1.7 5.9-.7 12.7.8 19.1.5 3 0 3 3.5 2.2 5zm28.4-17.9c-47.6 7.3-101 6.1-139.3-26.7-5.7-5.5-5.8-13.4-9.5-19.7-5.7-9.8-14.6-16.8-22.7-24.6-10.1-9.8-15.7-35.5-9.9-47.9 3.7-8 12.4-4.5 17.9-4.3 42.9-1 85.1 15.4 123.6 33.1 36.9 17.8 64.1 52.3 100.3 70.1-19 12-39.3 16.2-60.4 20zm40-82.6c6.2 18.1 9.8 37.5 21.4 53.8-47.3-31-81.2-78.5-133-103.8-26.6-12.9-53.4-30.6-84.2-27.8 19.5-33.6 63.3-43.2 98.9-35.8 59.1 12.5 81.6 59.7 96.9 113.6zM952.5 329c-114.6 41.1-205 148.6-254.7 256.9-11.3-12.9-19.6-28.2-33.7-38.9-4.6-3.9 2-7 3.7-9.5 19.9-30 38-61.3 61.9-88.5 7.8-9.9 17-19.7 22.8-30.9-10.9 3-18.6 14-25.7 22.5-26.1 30.8-47.2 66.6-71.4 98.3-9.1 2.5-25.7-9.6-35.9-11.7-8.7-1.8-5.2-6.4-3-10 22.8-41.4 53.4-76.9 89.9-106.9 68.1-60 161.1-89 250.9-82.1-1.2 2.7-3.3.2-4.8.8zM440.1 73.4c34.2 6.9 42.3 29.5 54.9 58.3 5.7 11.8 5.8 12.1.2 13.4-40.4 7.3-75.8 59-47.4 95.7 20.3 24.4 50.2 27.8 78.6 21.3 5.2-1.2 11.7-13.3 19.3.1 11.4 19.9 30.3 31.8 53 34.4 53 7.7 77.2-31 86.4-19.2 18.9 17.9 47.1 14.7 68.5 2.5 4.3-2.4 8-11.5 15.8-4.1 37.6 32.7 55.5-14.4 71.5 7.9 27.3 29.9 78.1 18.1 104.4-7.7 16.7-14.9 29.3-32.8 29.9-56.2 0-1.8-.5-3.3-2.7-3.7-3.5-.6-4.4 3.3-5.6 5.9-14.4 37.6-48.9 73.4-93 64.8-34.3-4.6-35.1-38.6-45.7-26.2-12 15-41.4 24.1-53.8 6.2-3.2-5.3 8.1-11 10.7-16.4 4.9-2 2.8-12.9 8.7-10.1 14.9 7 28 4.4 41.6-2.5 4.2-2.1 10.7-5.5 13.2-3.9 40 21.4 91-11.8 102-53.1 5.3-18.3-7.6-46.6-25.9-51.5-10.2-2.7-6-5.4-2.8-10.3 26.3-38.8-16.8-71.5-52.2-62.2-14.5 3.8-22.3 4.4-33.8-8.8-19-25.7-94.5-21.7-92.3 20.8 2 12.9 6.2 27.2 22.5 31.5 5 1.1 10.1-1.4 12.3-6.1-13.1-2.3-27.2-14.9-23.6-29.2 4.2-15.6 17.3-18.5 30.7-20 25.3-2.8 46.5 6.9 54.7 30.8 2.6 7.7 8.1 7.3 12.3 2.2 15.8-23.8 69.4-6.5 64.4 17.9-3.9 17.6-11.9 32.2-30.1 38.8-2.7 1-4.7 5.2-8.3 2.4-18.2-13.9-37.7-12.8-56.9-3.6-23.3 11.1-42.1 29.9-66.8 39.1-9.9 3.7-30.5 1.6-31.5-6.3-1.2-9.7 1.3-18.9 9.8-24.5 9.4-6.2 19.7-10.2 31.5-7.4 2.5.6 4.5 7.3 7.7 1.1 2.7-5.3-1-8.5-5-10.6-12.8-6.9-42.3 2.9-49.9 16.4-7.5 7.1-6-23.5-49.7-27.3 23.2-6.7 28.5-47.8 16.1-66.3-28.1-42-87.5-20.8-96.4 20.1-30.5 14.7-17.4-2.5-44.1-8.2-39.8-4.3-71.4-14.5-75.1-59.7-.4-2.3-1.3-4.2-4-4-7.3 1-6 10.9-3.3 15.6 14 80 90.2 29.5 107.7 88.9 7.9 52.5-58 55.9-71.5 12.1-9.7-27.3-28.2-44.1-57.1-50.1-27-2.6-26.4-35-17-54.3.6-1.3 0-3.1 0-4.7-10.8 4.1-13.6 17.3-15.2 28.2-2.9 26.6 12.1 36.2 32.3 41.8zm450.1 85.4c-3.2-13 3.4-12.9 10.1-16.2s12.4-10.5 21.5-5c9.7 5.9 19.2 20.8 19.2 33.6-4.3 32-42.1 61.4-75.3 55.9-2.6-.6-6.3 3.2-8-.9 20-16.3 39.9-39.7 32.5-67.4zm-173.8 18.3c36.1 32.3 79.8-18.1 113.1-33.1 43.8-17.9 65.2 22.4 39.5 55-12.1 16.4-51.9 46.7-72.9 28.3-7.7-6.9-12.4.7-14.8 6.4-13.3 31.8-64.9 64.5-90.8 32.3-11.5-22-19.1 12.2-66 19.1-27.6 5.8-61.8-5.3-71.7-33.5-4.2-22-54.2 28.3-95.1-14.6-23.3-25.1-4-62.6 21.4-76.6 9.8-7.4 15.9-1.5 17.1 8.8 5.2 27.1 37.1 38.5 62.1 36.9 4.1.2 9.3-1.9 6.7 6.7-5.3 17.4 12.7 42.9 30.4 46.5 26.6 5.4 66.4-19.8 70.3-46.7.8-4 4-4.8 7.7-5.3 17-1.3 28.5-15.6 36.3-29 2-3.1 2.8-5.6 6.7-1.2zm-113.6 52.1c1.2 3.6 2.7 1 4.4.2 10.5-4.8 17.8-22.1 13.3-32.4-4.3-9-13.8-9.2-22.4-12.7 14.6-7.3 29-8.3 42.1-1.8 39.9 19.4-5.7 66.9-37.6 64.6-29.3-1.4-38.9-37.2-13.1-50.7 6.8-4.2 18.5-1.7 22.5 7.2 5.8 13.5-11.8 17.7-9.2 25.6zm-6.9-167.8c24-40.8 91-33.3 83.8 21.7-5.5 19.5-26.7 36.8-40.3 35.9-4.4-.3-5.2-1.3-3.4-5.3 5.9-13.2-7.2-38.2-21.3-40.9-5.9-1.1-11.7-2.7-17.6-3.4-10.4-1.1-1.7-7.2-1.2-8zm-17.4 41.7c-2.5-6.1-.4-13.2-5-19.1-2.2-2.8 3.1-2.7 4.9-3.6 17-8.3 45.3 4 49.3 21.3 3.5 27-36.3 55.6-64.7 42.9 11-6.2 19.8-30.7 15.5-41.5zm-68.9 42.2c26.3 16.4 35.7-1.3 61 9.8 39.4 8.3 64.3-34.9 103.8-30.3 71.6 16.5.7 97.9-8.3 68.1-13-38.2-71.3-32.4-89.9-1.1-4.2 5.8-13.4 4.5-20.1 4.6-21.9 2-45.1-12.7-52.6-33.4-1.8-7.4 4-13 6.1-17.7zM40.3 71c7.9 4.8 17.3 4.1 25.9 5.6 27.8 6.6 38.8-15.3 47.4-1.2 6.1 9 13.7 17.1 23.4 22.8 14.9 8.7 30 10.7 46 2.8 4.9-2.4 6.4-9.7 14.5-8.2 11.2 2 21.3-2.2 29.9-10 24.5-25 6.6.5 51.7-9.6 22.6-.9 63.5-58.2 39.5-74-4.7 0-3.6 4.9-3.6 8.3-1.1 28-21.7 56.2-51.1 57.1-28 2.9-11.8-6.5-10.8-23.1 1.9-14.8-20.3-27.7-32.9-28.5C180 7.3 142 59.2 181.1 87.4c11.5 12.4-44.8 14.6-60.4-18-3.7-6.9-8.2-24.8-21.8-7.1-30.9 13-65.1 0-87.8-22.6-2-1.9-4.7-6.6-7.8-4-7.5 13.2 28.2 29.8 37 35.3zm137.5-27.3c14.9-22.6 36.9-28 60.1-12.2 3.1 2.1 5.3 6.9 4.8 11.8-6.3 20.3-28.4 49-53 37.9-13.2-5.7-20.3-24.9-11.9-37.5z"/></g><g><path d="M52 1548v15l-37 37h946l-37-37v-15H52M52 52V37.7L14.3 0H0v1600h15l37-37V52m872 0V37.7L961.7 0H14.3L52 37.7V52h872m52-52h-14.3L924 37.7V1563l37 37h15V0z"/><path d="M961 1600h15V0h-14.3L924 37.7V1563l37 37H0V0H961.7M52 52V37.7L14.3 0m.7 1600l37-37V52h872m0 1496H52" fill="none" stroke="#333" stroke-width="2" stroke-linecap="square" stroke-miterlimit="3"/></g></svg>