<svg xmlns="http://www.w3.org/2000/svg" xmlns:xlink="http://www.w3.org/1999/xlink" viewBox="0 0 976 1600"><style>.st2{fill:#333}</style><path d="M960 22v1556c0 3.3-2.7 6-6 6H22c-3.3 0-6-2.7-6-6V22c0-3.3 2.7-6 6-6h932c3.3 0 6 2.7 6 6z" fill="#fff" id="Paper_Backing"/><g id="Wikipedia_Cropped"><defs><path id="SVGID_1_" d="M960 22v1556c0 3.3-2.7 6-6 6H22c-3.3 0-6-2.7-6-6V22c0-3.3 2.7-6 6-6h932c3.3 0 6 2.7 6 6z"/></defs><clipPath id="SVGID_2_"><use xlink:href="#SVGID_1_" overflow="visible"/></clipPath><g clip-path="url(#SVGID_2_)"><path class="st2" d="M763.8 1420.8c-23.2 3.7-37.8-22.1-56.7-21.8-39.3 34.8-81.7-21.2-93.4-55.3-7.6-11.2-6.7-31.7-18.8-37.7-34.8 24.6-50.1 11.6-72.4-16.1-24.5 26.8-81.5 42.1-107 5.8-33-59.5 31.5-110.9 72.9-138.5 8.4-29.2 29.9-52.8 44.8-76.3 12.6 19.2-8.8 74.8 28.2 77.2 26.6 1 18-34.8 30.3-41.8 14.7 9.1 15.4 30.6 26.9 42.9 6.9 6.8 19.6-1.2 28.4-.8 9.2-5.3 6.3-25 5.4-36.2 2.9-13.5 24.1 14.5 34.5 13.6 34.6 6.4 27.2-37.2 11.1-57.1-9.5-21.8 42.8 18 52.5 10.8 11.1.2 22.1 7.4 29.4 19.2 30.4 39.3-36.5 67-1.3 80.7 46.3 26.3 39.1 61 25.4 98.4 42.4 43.6 28.2 131-40.2 133zm-590.9-178.5c-25 1.1-43-26.6-47.9-47.8-43 8.3-84.9-41-58.5-79.2 2.8-9.3 24.2-10.9 26.9-21.6-9.3-21-4.5-52.7 14.8-67.5 18.1-17.5 43.7-4.8 63.3-6.5 3.2-12-.3-28.6 6.7-38.6 5.9-25.1 38.1-23.8 58.1-14.5 10-14.6 25.4-26 45.8-18.7 28.4 2.2 20.6 38.3 53.8 41.5 18.3 4.8-8 21.9 1.6 32.5 8.7 13.5 33.4 8.9 43.6 21.6 2.1 9.3-7.9 22.9-3 27.4 2.7 9.9 36.9 10.7 28.3 26.2-3.5 31-31.2 61.2-65.4 61.6-8.3 16.6-10.5 31.7-35.7 31.8-23.2 4.8-42.1-6.8-59.2-19.4-16.4 23.5-31.9 71.3-73.2 71.2zm784.6-275c-24.9-4.3-40.5-14.9-67.5-6.2-40.3-2.6-77.4-22.9-111.8-42.3-31.7-15 31.1-25.9 32.8-46.8-.5-7.4 7.3-9.1 7.7-15.2-4.8-18.1-54.7-3-31.6-29.3 14.5-51.5 61.9-119.3 122.4-84 14.9-16.5 41.1-25.9 63.8-25 15.3-12.4 2.9 130.6 6.7 128.9-6.3 15.8 18.2 131.4-22.5 119.9zm-678.4-81.9c-19.8 2.8-40.9-9.5-58-20.7-54.2 24.9-100.6-16.6-53.6-64.2-8.3-9.5-26.5.2-37.9-1.4-18.1.5-47.7-20-50.6-38.2-3.2-54.7 5.8-14.8-19.5-54.7-16.1-57 25.3-68.9 69.8-60.6 11.3-12.1 23-18.1 36.3-16.1 40.1-.9 51.4 43 60.3 27.7 5.1-13.6 20.8-25.9 35.8-26.1 27.6-1 23 34.7 29.8 52.5 21.9-3.7 35-6.3 40.9 21.6 14.1 35.1.4 70.4-2.6 104.8-6.5 6.3-14.2-4.7-20.4-7.2-21.7 0-17.5 32.6-11.8 49 16 34 26.3 33.9-18.5 33.6zM607.3 714c-57.6-52.2-86.4-135.1-115.4-202.6-4.6-1.5-9.5 4.2-13.6-.6-27.1-35.5-77.8-1-109.6-26-47.1 26.2-182-28.4-182.4-77.2 31.9-13.2 75-17.9 110.8-21.6 27.8 0 47.4 12.8 73.3 2.4 38 2.5 39.1 46.6 77 51.4 22.5 19.7 44 38.4 27.7-7.9-12.5-46.1-26.4-94-67.2-123.8-4-2.4-3.4-6.5 1-9.2 32.9-37.4 33.9 13.7 70.2 13.5 26.5 1.9 53.3-58.6 71.6-17.9-35.7 56-48.6 144-16.8 206.5 20.4-19.1 22.9-53.7 52.6-76.4 8.8-10.5 28.1-18.1 43.2-10.1 10.2-4.1 22.3-14.6 35.1-12.5 27.6-4.2 32.4 32 55.4 20.5 48.7-5.5 100.1 7.5 134 44.8 44.7 40.4 13.8 31.3-22.9 47.6-70.8 21-62 69.6-133.2 29.9-46.4 24-74.5-32.3-117.9-35.9-15.1-9.8-27.2 6.3-32 19.1-3.6 3.8-10.7 5.6-6.6 12.7 17 55.4 52 103.8 83.9 151.5 9.4 6.9-11.9 19.9-18.2 21.8z"/><path d="M634.3 1158.7c-25.2-3.4-25.6-39.7-44.5-48-7.7 2.2-3.8 12.9-4.8 18.4-.6 32.8-43.5 37.3-45.7 3.7-5.1-41.1 1.6-85.9 9.2-127.1 11-29.8-6.1-7.2-3.4-37.3-.2-12.6 1.1-25.3 4.5-35.1-.6-7.2-6.4-14.2-5.6-22.3-5.1-21.9-3.1-50.2-20.4-64-20.5-23.6-42.7 15.3-44.5 34.2-6 39.9 24.1 77.3 52.8 106.7 0 5.4 12.9 6.9 6.5 12-25 23.6-51.8 46.6-78.8 66.3-20.2 23.3-106.9 27.9-75.9-20.7 8.1-15.8-37.5-7.6-44.7-23.8-8-7.6-1.7-15 1.2-21.7-1-6.8 11.5-8.4 18-5.5 25.3 6.7 56.1 1 81.8-4.1 57.9-8.4 51.5-9.6 7.6-41.2-22.4 29.1-111.5 7.3-139.3-17.2-18.5-15.9-19.1-45.6 8.6-43 6.8 0 8.8 2.2 9.4 2.9 14.7 14.3 44.6 38.9 68.4 32.6 1.4-2.3 1.2-5.3-.6-7.3-10.4-10.6-15.5-24.9-17.9-39.2-25.3-21.8-57.1-59.6-39.8-100.2 3-19 24.7-39.5 37.5-16 5.2 4.7 5 17.4 13.4 17.9 15.3-21.6 18.7-51.2 46.1-59.1 32.9-8.6 27.5 36.3 33.2 56 1.4 5.6 7 4.3 11.2 4 20.5-2.5 22.9 24.2 35.2 32.1 10.4-4.4 8.1-21.9 15.8-30.6 3.8-11.5 17.5-11.6 17.9-21.6-10.6-48.8 24.4-93.9 61.7-41.1 14.5-18 51.8-39.9 69.1-9.4 13.2 13-11.8 48.3 10.9 40.3 52.1-50.3 63.5 6.4 43.3 52.5-5.2 13.1-9.3 32.8-19.2 41.5-8.8 3.2-3.5 13.9-10 21.9-47.2 79.1 78.3-45.6 103.9-19 41 47.8-116.2 92.2-149.9 82-6.1-8.7-13.6 8.5-18.8-2.2-5.2-5.4-2-18.2-12.1-16.6-10.8-5.3-26 2.8-30 14.2 2.2 26.2-24.8 36.5-30.9 57.5 3.2 6.3 9.2 2 14 .9 15 11.5 15.3 41 27.7 56.9 10.1 35.6 49.3 55.9 47.2 95.4-.3 10.9-4.5 23.4-19.3 23.4zM391.6 786c-7.8.3-5 8-5.7 12.9-13.5 23.5-5.5 52.5 8 72.3 14.4 5.3 26.7 15.5 38.7 23.3 6.4-1 9.7-9.2 17.2-7.4 15.4-5.8-12.2-39.7-3-57.6 1.9-6.5-3.4-8.1-7.8-10.5-10.4-16.9-27.3-28.2-47.4-33zm223.7 37.8c14.3-2 14.7 18.7 25.4 20.7 15.8-17.4 7.7-69.9-14.2-77.2-17 1.4-18.8 2.2-25.4 17.8-6.3 6.7-3 18.7-11.4 22.9-10.3 2.7 0 17.7-7.3 22.3-5.7 3.2-2.1 13.1 4 13 9.6-3.9 15.8-20.9 28.9-19.5zm128 264.8c-58.1-15.2-101-67.7-130.9-116-5-8.3 6.3-12.3 10.4-17.2 4.8-3.3 6.7-11.7 12.9-10.7 41.4 16 90 35.4 136.4 31.3 7.2-1.5 13.7 2 18.7 5.6 27.8 13.8 38.4 53-1.2 55.5-12.3 3.6-27.9-7.6-39.5-1.8-2.9 13 31.1 45.4-6.8 53.3zM477.9 312.7c-24.2-.5-43.3-40.6-57.6-26-13.6-1.6-21.3-2.7-33.7-4.2-23.3-3-44.2-12.7-64.7-21.9-26-7.5-67.5-62.3-21.8-66.1 63.3 3 80.9 65.2 114.8 72.1 5.6-8.4-6.1-21.6 2.2-30.9 2.7-4 9-7.8 4.4-12.9-38-71.5 44.6-70.4 32.9 3.3-.7 4.9 1.3 10.9 1.9 16.2-.2 3.8-4.8 7-1.3 10.9 7.7 12.6 34.3 51.2 22.9 59.5zm21.7-9.7c-9.5-15.1 14.4-64.3 24.2-82.4 22.5-34.6 41.4-6.4 50.6-18.2 2.5-49.6 113.1-91.2 72.8-16.6-22.7 22.7-47.5 44-72 59.7-4.8 1.3-10-6.9-14.1 0-13.2 21-38.6 43.7-61.5 57.5zm193.9-2.3c-3.3 2.7-117.2-19.3-94.7-28.3 45.4-1.6 87.3-34.7 127.9-10.1 26.4 25.6-7.3 41.8-33.2 38.4z" fill="#ffeb5c"/><path class="st2" d="M760.9 1604c-11.5-4.3 19-43.4 18.8-55.9 11.2-24.9 19.9-56.2 19-83.8-.4-15.3-11.7-27.2-14.4-41.9 8.4-9.3 24.5-11.5 33.1-27.6 1.8-3.8 4-8.2 7.2-7.7 13.7 0 11 51.7 26.9 30.6 14.3-86.8 15.3-176.1 13.3-263.7-1.2-29.8-7.3-67.8-23.2-96.4-15.3-13.6-24.7-30.6-26.7-49.9-4.1-13.7-16.2-21-30.3-28.4-8.7-12.3 27.3-8.1 20.6-34.7-.1-20.2 41.4 12.9 55 11.3 9.9 2.6 12.7 2.9 11.5 13.5 33.2 95.5 40.6 196.4 39.3 297.4-3.3 35.8 7.7 69.9 7.6 105.6-12.1 45.7-39.8 90.2-58.6 135-2.8 11.8-14 19.8-13.3 32.3-6.5 20.7-17.9 40.8-20.5 62.3.7 4.6-63.6.8-65.3 2z"/><path d="M466.3 1139.4c-42.8-7.7-8.9-60.9 7.7-79.3 4.5-14.2 79.1-59.6 63.1-69.6-97.9-68.4-42.3-201-5-126.4 12.9 35.7 13.9 84.4 10.8 123.4-6 7.6 5.8 8.7 5.8 14.7-6.9 54-22.4 123.6-82.4 137.2zm226.4-3.1c-57.4-15.2-81.2-86-103-133.3-4.2-21.3-3.2-25.1-24.6-15.7-11.9-7.9 16.4-23.3 20.2-32.8 12.9-11.6 5.5-40.6 25.4-44.8 17.6-3.9 22.3 9.2 27.4 21.2 20.7 2.6 42.7-1.2 63.4-3.1 35.6-11 88.4-28.2 103.3 20-19.6 62-128.3 8.1-170.5-3-7.8 5.8-26.2 16.9-22.8 27 18.9 33.3 36.4 56.7 61.7 77.8 23 14.4 62.4 76.9 19.5 86.7zM392.2 995.8c-28.2-2.2-96.6-1.5-86.6-48.3 17.2-14.3 64.1 19.3 95.4 13.9 27.8-1.4 54.4-5.5 79.4 10.7 11.5 14.4-76.1 23.6-88.2 23.7zm1.2-66.8c-116.1-22.2-120.6-183-58.7-100 10.2 15 68.9 90.4 58.7 100zm301.3-34.3c-16.7-3.9 17.3-39.5 18.7-51 51.5-113.9 157.2-28.5-18.7 51zm-264.1-3.9c-11.2-3.1-18.1-16.3-30.3-18.8-52-40.3-4.1-128.9 43.1-45.9 3.9 7.6 2.2 17 3 25.2-2.4 9.7 17.3 28.5 6.5 34.5-9-7.9-14.1 4.4-22.3 5zm209.2-44.6c-9.5-8.7-11.8-25.2-24.9-22.9-11.7-2.8-14.3 14.6-23.7 17.8-12.6-26.4 30.2-110.5 52.2-53.3 3.4 17.7 10.4 45.2-3.6 58.4zm-126.3-34.8c-4-.6-6-5-7.9-8.4-6.9-32.2-40-16.6-36.2-38.2 12.9-73.7 78.3-69 71.7 2.9-11.2 8.6-18 20.5-22.4 38.6-.9 2.7-2.4 4.9-5.2 5.1zm131.2-475c-27-2.8-105.8-35.2-98.8-64.7 37.7-34.1 133.1-112.9 178.6-66.5 11.9 41-83.5 57.5-112.3 64-45.6 11.6 34.1 17.7 39.8 33.7 12.1 11.5 9.5 32.7-7.3 33.5zm-320-2.7c-60.3-7.6-18.8-58.6 20.8-59 21.8-1.2 43.5 9.9 66.3 10.6 27.7 10.2-76.4 52.3-87.1 48.4zm163-22.8c-14.7-16.6-19-41.7-26.7-55.9-10.5-19.9-11-91 25.7-74.3 5.4 5.2 11.6-1.1 10.6-7.2-6.7-38.5 54.5-77.8 48.9-18.1-12.3 38.3-23.8 68.2-45.4 94.4-5.2 19.3.4 46-13.1 61.1zm-72.7-37c-105.2-72.1-20.9-155.4 5.9-44.1-21.6 12.6 7.1 38.9-5.9 44.1z" fill="#d81e1e"/><path d="M980.4 958.6c-1.4-1.9-3.6-1.9-5.5-.5-26.7 17-42.9-12.2-67.3-4-43.8 10.6-87.7-17.9-125.4-37.8-26.8-12.3 10.8-6.8 32-40.6 1.5-2.4-.2-13.9 8.6-8.7 15.2 9.1 29.6 19.5 44.5 29 2.1 1.3 5.6.3 8.4.4-.5-8.9-41.2-30.1-51.1-38.5 10-1.7 19.3-3.8 28.6-4.8 8.7-.9 17.5-6.9 26.2-.1 16.6 17.5 25.2 8.7 18.1 35.4-1.5 12.3-9.3 23.9-14.4 35.8-1.1 4.1-4.5 8.4 1.2 10 3 2 3.4-1.3 4-2.7 7.8-17.7 16.9-34.9 19.5-55.1 13.2 15.1 26.2 29.7 35.7 47.1 1.6 2.9 3.9 10.3 8.5 7.5s-.4-7.6-2.3-11.3C934.1 892 914 868 888.3 849.5c1.7-.9 3.6-2.7 5.1-2.5 6.7 1 13.9-3.7 20 3.9 9.1 11.3 23.6 14.8 36 21.3 4.7 2.4 12.4 9.1 17 1.7 2.6-4.4-6.2-5.6-9.1-6.8-14-5.6-26.5-13.3-39.7-22 17-1.2 32.9 0 48.8 1.5 3.5 0 10.4 2.8 12-1.3.3-2.6-.7-3.7-2.2-4.1-37.1-7.9-72.4-4.3-110.1-.1 12.7-8.4 23.7-15.9 34.9-23 6.4-4.1 11.3-13.7 18.7-12.3 8.1.9 43.5 8.1 45-2 0-5.6-32.9-3.1-39.2-4.7 7.4-10.7 14.2-20.5 21-30.3 1.7-2.5.5-4.5-1.6-5.9-1.5-1-2.7-.4-3.9 1.4-15.9 20.5-33.8 42.9-57.3 54 4.6-7.9 6.2-53.6-6.8-51.6-3.1.5-1.9 2.9-1.7 4.3 2.5 17.9 9.8 42.6-4.6 56.1-13 11.9-29 21-48.1 21.6-9.1.3-15.2-8.4-24.5-7.7-25 2-6.7-10.6-4.4-15.5 3.6-7.8 3.3-16.7 6.7-24 17.3-38.4 59.7-82.6 103.5-56.1 3.7 2.2 10.4 11.3 14.3-2.3 3.3-11.6 37.8-23.6 49.2-19.3 2.7 1.1 7.4-.2 9.5-3.3.8-.9.7-2.4-.2-3.2-.4-.3-.9-.5-1.4-.6-22.7-4.1-43.2-.8-59.4 17.2-2.8 3.1-4.5 6.2-9.7 1.7-10.7-9.2-24.6-11.5-37.4-8.5-29.8 7.1-50.3 27.5-66.4 52.4-4.7 7.2-3.4 16-17.8 8-16.6-9.3-32.6 3-47.4 13.1 4.2-13.9 5.4-28.3 9.9-42 4-12.6-8.5-31.5-21.7-32.1-20.7-1.8-30.8 12-43.4 25-.2-.5-.8-1.2-.6-1.6 3.4-7.7 4.5-15.5 4.6-24.1.3-22.5-16.5-40.1-39-36.6-10.8 1.7-16.6 3.1-23.2-8.4C606 644.4 516.2 548 566 515c46.2-10.1 72.1 50.3 118 40.5 6.4-1.6 12.3-9.8 18.2-5.7 43.5 35.4 60 7.2 98.1-15.1 18-9.2 36.9-15.8 55.6-22.9 9.7-3.7 19.5-9.5 30.8-6.7 6.4 1.6 10.2-1.9 12.2-7.2 1.9-5.2-3.1-6.6-6.2-8.5-31.3-19.7-52.3-52.2-89.6-62.9-26.5-9-54.5-12.3-82.3-9.8-26.6 8.8-18.4-30.3-70-18-11 2.7-19.7 14.4-33 8.4-37.5-6.9-70.1 62.4-82.8 91.6-17.2-65.7-19.3-136.2 18.2-195.1 2-3.2 3.1-3.6 6.6-1 20.5 14.8 41.7 29.8 66.6 36.1 8.4 2.8 18.5 5.8 26.6 1.1 30.4-15.2-5-41.5 10-38.6 14.5 3.5 29 6.7 43.9 3.9 28.8-1.8 45.7-19.5 25-44-9.3-10.9-23.1-9-36.1-10.6 7.5-5.6 17-6.8 23.3-13.4 7.3-7.6 16.9-16 13.3-26.7-7.2-21.5-34.4-30-56.4-22.3-10 3.6-20.3 6.6-30.7 9 53.8-65.6-37.5-80.9-70.4-7.8-2.3 3.9-2.2 13-6.3 11.1-13.9-6.4-25.3-3.1-36.8 5.6 3-6.7 6.5-12.6 8.4-18.9 4-14.1 12.3-26.9 11.2-42.5-1.2-16.7-13.3-28.7-27.1-25.4-11.2 2.7-28.7 25.5-29.3 37.4-.4 8.4 1.4 17.1-2.4 25.1-18.5-21-28.3-5.3-38.4 9.6-1.6-14.3-13.7-27.3-25.6-28.1-15.4-1.1-16.9 12.3-22.3 21.5-20.8-27.1-55.4-9.3-47.4 23.4.4 1.4-.2 3.2-.4 4.8-100.2-69.3-115.2 30.8-19.6 59.7-53.1.9-79.3 66.5-9.7 65.1 21-1.6 38.5-11.6 57.1-19.8 5.9-2.6 10-16.6 21.6-5.2 40 38.1 53.8 91.6 66.7 143.3-8.6-8.3-17-16.3-27.7-21.1-7.8-3.5-17.9-4.8-23-10.6-9.1-10.3-15.6-22.6-26.6-31.9-8.6-7.2-33.5-12.3-42.5-5.6-4.4 3.3-8.6 2.6-13.3 1.1-30.5-9.8-61.9-6.9-92.6.5-21.5 4.2-42.6 11.1-64.9 10.9-4.1 0-8.4 4-6.7 8.5 8.1 29.4 34.7 45.9 60 59.6 37.3 18.2 78.9 36.3 120.9 26.4 4.5-.9 8.4-6.7 14-2.6 16 11.9 35.1 12.2 52.6 8.9 26.3-5 60.5 10.9 70.3 35.4 13.3 33.2 27.5 66 44.8 97.2 9.9 17.8 21.5 34.7 32 52.2 11.2 12-25-2.5-30.1 42-30.4-45.3-65.8-12.6-74.3 29.4.4-18.5-5.3-41.5-26.8-41.4-33 3.5-50.2 38.7-52.3 68.9-12.7-35.8-23.5-43.2-45.8-30.8 1.6-27.1-4.2-87.7-43.3-76.4-1.3.4-5.6 3.9-6.2-1.4-1.7-18-1.2-44-23.5-47.8-18.7-3.4-34.7 6.2-44 22.9-1.8 3.3-1.8 14.8-9.1 1.7-13-23.1-56-36.4-81.9-18.1-3.9 2.8-5.4 12.5-14.2 7.8-11.7-6.3-42.6-3.1-51.7 4.8-26 22.8-23.7 62.6 4.8 82.5 1.3.9 4.1 1.3 2.8 4-7.9 15.8-2.9 30.8 5.6 43.6 19.6 30.4 59.4 34.1 91 21.3-55.6 29-26.3 90.5 30.5 77.8 41.3-15.9 15.9 23.7 90.2 13.3-9.4 12.7-1.7 35.9 16.2 51.7-5.4 1.7-10.4 3.7-11.4 12.3-2-6.2-6.4-5.4-9.5-7-16.4-8.6-41.3-2.6-50.7 12.4-1.9 3.1-2 6.1-7.6 3.5-40.8-21.8-69.6 19.1-59.9 56.3-51.9-17.7-93.2 8.4-84.7 64.4.6 3.7 10.9 10.1-.2 14.9-32.8 10.8-41.7 48.1-23.8 73.5 11.7 20.7 30.9 29.2 53.6 27.6 9.9-.7 9.3 4.7 10.3 10 16.6 51.2 79.2 47.5 102.1 3 6.4-12.6 13.4-24.8 18-38.2 21.3 27.9 82.4 33.6 95.6-3.2.1-20.2 8.4-.3 34.1-18.1 36-20.7 26.3-52.2 42.8-65.2 15.2-1.4 27.1-8.6 39.7-15.8-7.1 15.6-18.1 29.4-17.3 47.9.1 15.8 9.7 25.2 25 25.3 10.4.1 17.9-6.9 26.8-10.7-4.7 7.3-3.3 18.5-10.8 22.8-32.7 22.3-78.9 57.3-81.8 100-5.6 73.6 75.9 85.7 121 41.2 1.6-1.5 2.8-2.3 4 1.4 8.4 28 51.7 32.1 68.9 10.9.6-.8 2.6-2.9 2.5-.7-.5 7.2 4.2 12.2 6.4 18.3 4.7 13 7.3 27.7 14.9 38.7 11.3 16.2 20.8 34.3 41.3 43.2 15.9 6.9 33.5 8.5 45.8-3.2 12-14.3 22.5 27.7 65.2 20.7 7.5-1.1 9.4.2 14.1 7.3 21.1 36.5 5.3 77.4-8.5 113.3-2.8 9.2-25.5 49.6-20.3 53.9 6.8 1.3 9.1-6.9 10.8-12.2 6.3-13.1 13.3-25.9 17.3-40 13.1 5.2 32.3 15.9 45.3 6.9-1.3-1-2.6-2.8-4-3-8.9-1.2-17.6-3.2-26.1-5.9-7.4-2.4-12.6-4.9-11.2-7.7 7.4-15.6 9.1-33 14-49.4 2.4-8.1-4.9-22.6 12.7-23.9 3.1-.2 8.7-6.5 8.3-12.1-.3-4.6-4 1.6-5.6-.8-1.9 2.4-15.5 12.4-15.8 6.5.5-11.9-5.3-21.4-11.4-30.9-8.2-10.9 14.7-5.7 31.2-32.2 1.4-2 2.6-7.8 4.9-4.9s6.1 8 3.9 13.2c-1.6 7.8-21.6 20.4-18 24.7 1.8 2.5 3.4.9 5.1 0 7.7-4.3 14-9.8 17.2-19.1.9 11.3 8.9 21.9 8.2 32.2-2.9 15.7-8.7 30.9-13.4 46.3-.6 1.9-3.5 4.2-.8 5.5 35.3-26.4 39.2-192.8 41-240.9-.8-10.1 24.4-1 32.1-6.3.9-.3 5.6-3.8 5.7 1.4 4.6 16.1-16.9 3-16.9 13.8 1.2 8.8 18-4.5 17.2 4.3-3.3 35.2 7.3 69.2 7.5 104.1 2.4 13-10.8 17.6-15.4 4.3-.7-2.1 1.6-6.3-2.3-5.9s-4 4.5-4.1 8c0 3.9 3 5.4 4.8 8 3 4.4 12.8 3.7 11 8-17 37.5-35 74.9-52.1 112.2-4.5 7.2-3.5 18-14.8 21.1-14.5 5.9-38.7-5.7-40.2.5-1.5 3.2 2 4.1 3.7 4.6 11.4 3.3 22.8 7.8 35.1 3.5 1-.2 2-.2 2.9 0-4.9 19.3-14 37.7-19.9 56.8-1.3 3.4-2.2 8.9 2.3 10.7 7.5 6.8 17.9-39.8 20.8-45.1 16.6-44.7 36.3-87.8 57.8-130.2 8.7-19.6 22.1-38.2 20.6-60.9-12.5-82.4-4-165.7-13.6-248.3-3.5-50.8-19.2-98.7-34.2-147-.6-2.2-2.7-8.8 3.3-7.6 23.8 7.3 34.4-8.4 50.5.7 14.2 7.8 36.2 12 47.7-1.3 1-1.4 3.8-2.2 1.9-4.5zm-196.3-31.7c25.9 14.1 19.4 39.9-9.3 44.1-44.8 4.1-87.1-13-129-26.2-2.5-.8-7-1.5-6.3-4.7 3.2-10.5 25.5-1.1 34.2-5.5 25-2.3 49.6-6 73.2-15.4 13.7-5.3 25.6.2 37.2 7.7zm-85.3 204.2c-48.4 5.4-89.7-91.6-105.3-129.5-5.2-14.1-2.8-23.1 11.8-28 1.6-.5 2.5-.9 3.8 1.3 14 25.1 30.2 48.3 51.3 68.3 14.1 13.3 31.5 24.1 39.1 43.7 5.7 11.5 14.9 36.9-.7 44.2zm-155.2-68.8c2.8-6.8 6.2-73.2 15.2-64.2 5.3 12.4 7.8 25.4 10.3 38.6 2.6 16.1 9.9 31.4 10 47.9 1.4 21 10.9 67.6-20.2 68.1-21.6-4.2-18.4-44.8-16.2-61.5 1.6-9.5-1.1-19.6.9-28.9zm-63.3-93.9c-16.8-10.8-32.6-23.1-40.1-42.8-3.3-8.5-6.5-17.5-2.4-26.1 6.8-14.5 17-6.6 27.3-3.8 15.2 4 11.1 18 15.3 27.1 12.7 25.8 23.9 46 47.5 65.6-17-3.7-33.1-10.5-47.6-20zm22.3 21.4c-21.6 12.3-46.6 15.4-69.9 23.9-20.6 7.5-40.2 20.9-64.2 17.4-10.5-1.5-19.5-5-26.8-12.3-7.1-7 2-13 2.6-19.5.3-3.4 8.1-2.5 12.7-1 12.8 4 26 3.2 39 2.6 22.7 1.6 95.5-23.2 106.6-11.1zM381.4 885.4c-1.2-4.7 2.5-6 4.5-8.4 5.8-8 26.8 9.9 33.9 12.9 16.3 9.9-5.2 24.1 21.3 57-25.6-13-52.3-32.4-59.7-61.5zm12 39.6c-105.8-27.1-110.8-142.1-74.3-110 17.7 23.9 36.7 47.1 51.7 72.6 7.2 12.1 11.9 25.9 22.6 37.4zm99 1.8c-9.4-20.1-10.9-40.3-2.8-60.2 3.4-8.3 7.2-20.5 21.3-19.8 11.8 1.3 14.7 11.5 17.7 20 14.2 36.8 9.4 77.2 11.9 115.4 0 1.5-1.3 3.1-2 4.7-20.8-14.2-34.3-37.7-46.1-60.1zm45.2-64c-5.7-16 13.6-39 30.7-31.5 18.2 11.4 18.2 53.8 7 70.9-1.9 3.3-4.2 2.5-6.2 3.4-8 3.5-15.1 7.8-19.5 17.8-3.2-21.8-4.8-41.7-12-60.6zM549 965c-1.1-21.2 8.2-62.8 37.4-49.3 18.1 19-20.8 57.3-36.8 67-.9-5.9-.5-11.9-.6-17.7zm41.8-106.4c-.6-10.8 5.3-19.7 13.3-26.2 19.8-16.2 30.1 13.6 30.9 29.4 3.4 14.6.6 28.2-6.2 41-2.8 9.8-15.5-7.6-28.8 9.9-4.3 6.1-6-6.6-12.4-6.1-13.1-2.4 8.7-10.2 3.2-48zm77.5-9.7c6.7-5.8 14.7-9.1 20.5-9.8 38 2.5-9.9 54-21.4 66.1-7.3 7.4-15.7 13.7-23.6 20.6-2 1.8-2 .6-3.2-1.1-8.5-12.5-.4-23.4 1.8-35.4 3.5-17.5 13.4-29.6 25.9-40.4zM647.2 860c1.4-12.8 3.8-24.2 3.8-35.6-.1-22.7 14.9-33.1 32.1-42 5.3-2.7 12.6-3.6 16.5 1.2 5.2 8.8-2.3 21.9-4 31.7-9.7 26.1-23.6 10-48.4 44.7zm-4.3-35.4c.1 5.8.8 11.8-3.2 17.7-5.9-24.3-35.7-34.2-47.5-4.9 4.4-23 3.3-37.4 16.4-54.9 5.2-6.4 11.5-11.3 19.7-8.9 15.5 5.7 15.1 37.2 14.6 51zm-16.7 120.3c-16.1 19-37.7 30.6-61 38.3 7.8-8.8 15.8-17.3 23.3-26.3 13.2-12.6 7.5-40.5 22.9-43.4 18.9-4.7 26.9 18.3 14.8 31.4zm-47.6 98.6c-4.2-16.3-5.5-33-9.1-49.2-.6-2.8.7-5.4 2.2-4.8 3.3 1.2 6.7-6.3 9.2.2 4.8 12.4 8.2 25.6 14.2 37.3 12.1 23.5 22.4 48 39.5 68.8 8.8 10.7 18.1 22.4 14.7 38.6-1.4 7.2 1 16.1-10.5 19.6-9.6 2.9-13.6-3.4-17.5-8-24.5-29-33.9-66.4-42.7-102.5zm86.7-8.6c-6.5-6.1-60.6-67.2-46.9-69.6 4.6 1 3.7-11.6 10.7-3.7 24.6 26.2 56.4 45.3 88 62.1 16.2 5.1 30.2 15.5 35.8 32 1.7 4.4 6.6 8.2 4.3 12.9-4 44.9-77.6-19.5-91.9-33.7zm61.3-17c-37.4-13.5-66-40.4-97-63.6 5.2-11.3 11.8-2.4 17.1-.4 18 6.8 36.1 13.2 55 17.2 24.3 6.1 48.3 13 73.6 8.6 16.4 2 32.8 18.5 37.5 33.8-1.5 36-66.4 13.5-86.2 4.4zm78.2-167.1c7.9 3.1 6.9 11.3 2.9 18.3-23.9 35.8-79.5 49.6-119.7 55.8-8.6.7-17.2 1.4-25.8 2-1.8.1-4.3 1.1-1.5-2.7 10.1-13.3 23.9-20.6 38.8-27.5 23.6-11 45.8-24.7 66.3-40.7 10.2-8 25.7-10.4 39-5.2zm-35-57c37.5-1.5 12.4 41.1-4.9 51.3-22.8 16.3-45.2 35.7-71.5 45.3 11.7-24.6 26.4-49.5 39-74.2 7.3-12.3 21.6-20 37.4-22.4zm-90.5-21.7c6.8-22.7 51.7-59.3 59.4-19.1-4.8 30.2-12.5 57.8-25.5 85-1.5 3.3-1.9 2.7-3.5.9-6.8-9.3-19.6-5.9-7.3-17.6 5.3-12.2 7.5-25.5 6.5-38.8-.8-9.2-19.3-13.5-29.4-8-.1-.9-.5-1.8-.2-2.4zm-40.8-71c14.2-4.3 27.5-3.1 35.3 10.7 12.4 22.4-14.7 63.4-22 90.2-2.7-22-16.1-39.2-28.2-39.1-15.7 7.3-10.4-4.4-10.5-11-1.9-20.5 2.1-45.4 25.4-50.8zM829.7 511c-24 9-46.5 20.5-66.7 36.6-14.8 11.8-26.2 14.5-44.3 1.5-10-7.2-18.4-10.5-29.3-6.9-37.4 21.6-67.1-37.5-112.5-37.7 19-13.1 41.2-17.5 63-23.5 11.3-3.3 20.5 3.6 23.4 15.1 2.8 10.1 11.5 34.2 23.1 35.8 0-2.3 1-5.8-.1-6.9-10.2-9-9.9-23-18.3-34.3 26.3 15.4 52.3 26.4 79.1 36.2 2.7-.3 7.8 1.9 7.6-1.7-.4-5.8-7.1-6.4-11.5-8.1-26.4-9.3-50.7-23.1-75.3-36.2-1.7-.9-4.4-2.5-4.3-3.7.1-2.5 2.9-1.8 4.8-2.1 26.1-4.3 52.3-3.2 78.6-1.6 13.9.8 22.7 10.3 33.1 17.3 4 1.9 28 18.4 29 11.3 3.3-3.6-30.1-19.6-34.3-23.3 33.3 3.8 66.2 7.7 98.8 17.1-15.1 5.1-29.6 9.8-43.9 15.1zm-280.5-24.6c11.6-24.4 41.5-82 75-69.2 11.4 5.1 16.4-6.6 25.1-9 20.8-5.7 37.5-.7 49.9 16.7 6.5 9.2 15.1 2.5 21.6 1.4 10.9-1.8 21.4-.9 32-.2 12 .7 24.5.2 35.5 5.6 16.4 8.1 36.7 9.5 48.7 25.2 8.4 11 21.7 16.3 30.1 27.9-45.6-11.5-91.6-17.5-138.7-22.5 15-6.3 30.8-10.7 46.8-13.2 6.5-1.9 15 .6 19.7-5-11.9-9.4-41.6 1.9-55.5 5.8-17.2 5.8-33 13.8-52.8 14.1-29.4-1-57.8 9-85.4 18.5 16.8-23.8 40.3-40.9 65.8-54.3 1.8-1.2 5.7-2.5 3.5-5.3-8.8-8.8-60.7 32.7-67.1 42 2.4-9.5.9-19 1.8-28.3.3-3.3 3.2-7.6-1.6-8.2-4-.5-6.8 5.5-6.4 8.3 1.5 10.4-2.5 20.2-1.1 30.8 1.4 27.7-44.3 29.2-52 59.2-7.2-11.9-7.4-12.8 5.1-40.3zm104.6-159.6c-13.2 21.7-90.5-28.8-104.2-41.8 34.9.9 72.4-4.2 99.3 20.6 5.9 6.4 8.8 13.9 4.9 21.2zm70.6-61.2c7.2 4.9 8.3 14.2 6 21.9-18.4 19.1-78.2 5.3-101-4.3-8.3-3.2-17.6-4.1-30.2-6.9 45.2-1.3 85.4-34 125.2-10.7zM616.6 154.5c13.3-7.1 38.1-12.1 35.9 10.3.7 21.6-60.5 63.9-78.9 76.8-1.2-35.1 10.3-68.5 43-87.1zm-22.4 83.3c25.6-18.9 101.7-65.8 126.8-30.5 6.3 10.8-2.4 16.2-8.5 21.3-47.6 32.4-107.6 39.6-163.6 45.9 13.3-15.1 29.3-25.8 45.3-36.7zm-92.9-63.9c-.7-46.8 47.3-64.9 41.1-19.5-8.2 31-22.5 57-37 85.9-.1-23.7-6.2-44.8-4.1-66.4zm26 48.9c10.3-19.4 48-26.8 38.5 5.5-13.4 31.1-39.6 51.2-66.1 70.7 7.4-26.6 12.4-53.3 27.6-76.2zM461.4 200c3.5-15.8 20.2-29.6 27.1-8.1 14 37.8 8.1 76-.8 115.1-14.7-34.9-36.7-68.9-26.3-107zM477 305.8c.4.9.6 1.9.8 2.9-22.3-2.1-84-59.6-50.4-75.6 26 15.2 39.5 45.3 49.6 72.7zm-56.1-129.7c6.6-6.4 13-4.1 17.6 1.6 18.2 20.2 9.2 41.4 13.7 65.1-6.4-9.4-16.4-14-25.3-20.3-9.6-6.4-16.8-37.7-6-46.4zm-51.7 12.5c1.7-4.3 5.6-8.6 10-8.5 22.7.5 29 25.8 38.4 42.2.7 1.3 1.4 3.8.8 4.3-15.7 12.7-9.3 27.2-3 43.2-22.2-22.9-57.2-45.3-46.2-81.2zm-45.7 68.3c-68.2-37.6-46.5-91 38.5-31.4 8 4.8 12.1 15.4 19.1 22.4 9.5 9.6 19.6 18.6 30.2 26.9 3 2.4 4.4 7.1 9 8-33.9-2.7-66.7-10.3-96.8-25.9zm27.3 67.1c-60.2 22.6-79.8-34.2-1.1-46.1 6.2-1.5 13.8 3.7 20.9 5 14.1 2.6 28.4 4.6 43.9 7-20.2 14.6-41 26.5-63.7 34.1zM238 399c33.4-8.2 68.9-14.5 101.9-1.6 9.5 3.6 15.3-2.2 22.9-4 24.9-5.3 41.4 17.1 52 36 7.1 10.9 21.1 6.8 30.2 13.7 16.5 12.7 35 26.3 38 48.6-14.5-16.2-31.7-26-49.9-35.1-10.6-5.3-23.9-4.2-32.2-13.1-10-10.8-18.7-22.9-27.8-34.6-1.5-1.9-3-4.2-5-3.5-8.6 7 16.8 29.7 20.8 36.6-38.9 1.3-64.2-31.7-101.3-36.5-2.1-.3-3.7.1-3.8 1.7.2 1.7 1.2 3.1 2.7 3.8 15.9 5.9 33 11.2 46.3 22-50-5.5-92.1-9.6-142.5-25.3 19-3.5 33.4-5.9 47.7-8.7zm243.5 109.3c-23.8-32.4-63.6-11-96.3-19.4-1.1-.2-2.8 0-3.3-.6-7.6-9.6-15.5-9-26-3.7-47.1 16.9-141.5-28.4-168.1-70.3 37.6 16.2 76.2 18.2 117.3 25-10.6 3.1-55.3 5.4-52.6 11.8.1 3.1 3.2 2.1 5.2 1.9 21-2.5 41.8-5.1 62.4-11.1 9.9-2.9 22.2 2 33.4 3.8s22.3 3.8 33.4 6.4c-1.2 1-2.5 2.8-3.7 2.8-19.9-.1-36.5 10.7-54.6 16.4-2 .6-5.2 6.4-1.7 7 20.6-5.3 40.4-14 61.7-17.5 37.4-6.2 77 16.1 95.6 48.1-.9-.3-2.3-.1-2.7-.6zm78.7 138.1c-24.8-39-44.6-81.1-58.7-125.2-14.1-52-22.3-106.7-44.6-156.1-11.4-23-24.6-44.9-46.4-60-1.1-.8-2-.8-.3-2.2 4.1-3.1 8.4-6.2 11.9-10 12.6-13.4 15.2 3.8 21.3 7.6 14.4 8.9 27.9 20.5 46.1 14.1 14-5.5 25.1-18.8 37.8-26.7 2.8-1.5 5.3-8.4 10.2-2.9 4.6 5.2 15.3 7.4 4.8 18.7-38.4 54.8-34 129.4-18 191.5 15.3 75 55.9 140.7 100.2 202-5.8 2.6-8.8 8.1-13.3 11.2-7.4 5.1-7.9-4.1-11.4-7.2-17.4-15.2-27.2-36.1-39.6-54.8zm-10.4 81.7c4-34.7 42.7-39.6 51.1-4.5 2 13.6 2.1 27.3 2.8 40.9.7 13.3-9.7 20.2-11.6 31.2-.6 3-.7 6.3-3.3 8.5-.6-.7-1.7-1.3-1.7-2-1.9-17.8-12.6-31.2-27.7-40.1-3-.9-8.9-1-8.9-1.8-.7-10.8-1.7-21.7-.7-32.2zm2.9 41.6c20 3.4 28 30.5 28.2 48.7 3.3 27.9-17.7-27.5-51.2 28.3-3.4-3.2-9.6-6.2-9.7-9.6-1.2-20.4 6.9-66.8 32.7-67.4zm-79.5-3.5c6-17.2 8.9-38.2 28.7-49.6 10.4-5.9 28.2 4.5 31.1 17.5 2 8.9 4.7 17.7 7.4 26.5.8 2.6-.9 3.3-2.2 4.3-14.7 10.7-18.8 26.9-24.8 42.5-1.4-1.9-3.3-3.7-4.2-5.8-13.7-38.7-39.5-19.5-36-35.4zm-8.2 23.5c27.6-19.8 39.7 19.8 43.8 41.3 1.9 6.8-5.3 5.3-8 6.9-16.7 9.7-22 25.8-25.8 43-.6 2.6 1.4 7.8-1.6 7.5-4.3-.5-10-3.2-11.9-6.7-14.7-25.9-17.5-68.6 3.5-92zm-68.6-13.3c1.7-24 43-79.9 60.6-37.8 3.3 12.8.9 26.4 5.6 39-12.4 10.1-16.8 24.1-20.3 38.9-24.5-37.9-51-25.3-45.9-40.1zm-7.4 26.7c12.8-23.1 44.3 10.9 50.8 24.9 3.4 6.7 1.7 15.8 2.6 23.8 1.1 10.2 5.7 19.2 10.5 30.1-7.3-7-13.7-1-16.2 1.6-8.2 8.5-12-1.3-15.3-3.7-6.3-4.5-12.4-8.9-19.9-11.5-19.3-6.5-23.7-50-12.5-65.2zm-37.3-46c18-11.3 28.8 26.5 30.5 40-11.2 19.7-9.3 44.4 2.1 64.2.6 1.4 2.6 2.8.4 4.2-6.6 4.2-13.9 12.3-19.1-1-4.7-12.1-15-20.1-21.1-31.1-9.6-17.2-14-34.4-4.7-53.8 3.8-7.8 4.6-17.2 11.9-22.5zM240.5 872.5c-10.4-6.4-16.7-17.3-29.4-8.5-37.1 20.4-88.8-24.9-40.9-54.9 7.9-4.3 16-8.4 22-15.3-3.3-1-6.7-2.9-9.9-2.7-16.9 1-33.7 2.3-50.5 4-31.2.9-61.3-33.8-47.7-66 .7-1.8-6-7.4-10.2-9.7-18-13.7-18.1-43.5-4.7-60.8 13.3-16.1 37.3-13.7 55-6.6 9.2 2.3 17.4-22.4 40.9-18.5 28.9 3.3 42.3 13.3 54.7 41.3.3 1 2.5 1.4 3.9 2.1 6.2-15.6 7.5-30 24.5-38 17.9-9.5 32.8-.4 35.2 20.1 1 9.1 1.6 18.1 1.8 27.2.1 4.7 3.7 6.2 7.1 4.5 22.9-11 29.2-8.9 36.4 15.6 4 13.6 6.3 27.6 6.7 41.8.6 20.4-11.5 38.7-8.5 59.3 0 .2-1.4 1-1.7.9-10.1-6.6-20.3-13-30.1-20-5.8-4.1-4.6-23.3.2-30.8 8.3-12.8 11.1-27.9 15.6-42.2.8-2.5 2-8.3-1.3-8.6-4.6-.5-5.1 5.4-6.5 8.9-5.6 12.7-8.7 27.3-15.4 39.2-5.4-6.5-21.8-79.6-33.6-73.3-4.3 2-.4 7.1 1.2 10.1 14.5 28 21.1 59 29.3 89-22.5-4.7-28.6-27.5-40.6-42.8-7.4-8.8-30-42.9-40.4-42.2-.6 1.5-.4 3.2.4 4.5 14.7 21 33.7 39.9 45.8 62.4-21-10.4-42-21.5-61.8-33.9-5.7-3.7-7.2-13.6-10.9-20.5-8.4-15.9-17-31.7-25.6-47.5-1.1-1.9-3.5-2.6-5.4-1.5-.2.1-.5.3-.7.5-2 1.7-.4 3.7.8 5.9 3.4 6 5.6 12.7 8.8 18.8 4.1 7.8 8.6 15.4 13.5 22.7 3.3 4.9 2.4 11.9 8.5 15.4-30.6-12.8-58.4-31.7-91.3-37.8 15.3 12.3 33.6 18.3 50.5 26.9 23.8 13.4 49.5 24.7 71.6 40.6-29.9 2.1-60.2 3.6-90.1 1-23.2 9.3 56.2 8.8 60.1 8.6 14-.3 27.9-3 41.5-2.5 14.7.6 26.2 13.1 40 18.7 3.1 2.2 18.6 5.2 12.1 10.1-10.7 8.9-21.9 21.3-36.4 12.1-9.5-5.2-20.5-4.5-30.1-8.8-3.3.2-6.4 6.8-.9 7.9 12.9 3.6 25.7 7.3 38 10.9-17.8 11.2-36.3 22.9-56.8 31.2-3.4 1.4-6.8 4.5-5.4 7.8 2 4.8 5-.3 7.3-1.1 25.7-9.3 48.6-23.6 71.2-39.2-.5 5.6-2.4 11-1 15.3 3.9 11.8-2.6 22.3-2.3 33.6-.9 5.5 5 5.9 6.4.6 6.4-17.6 6-35.5 4.6-53.9-.3-3.9 8.1-9 13.3-12.6 4.8-3.3 7.6 2.8 11.4 4.3 14.8 5.7.9 12-.3 17.5-3.1 13.7-.3 26.5 3.5 39.3 2.9 9.8 8.6 17.9 14.2 26.1 1.2 1.8.3 1.9-1 1.9-22.5-.5-45.7 4.3-66.6-8.4zm58.7 26.2c.7-4.5 20.5-8.1 24-4.2 29.2 35.4 80.5 33.6 114.3 61.7-37.7 6.6-142.6-3.3-138.3-57.5zm9.4 51.5c2.9-3.4 6.5-5.5 11.8-3.1 25.6 11.4 52.3 17 80.4 18.4 38.7.4 39.4-9.5 78.2 10.4-46.7 13-91 22.5-137.6 9.6-14.7-3.5-27.4-8.5-33.1-24.1-1.4-4-2.5-8 .3-11.2zm92.9 150.9c-2.6 20.1-26.4 51.1-46 51-15-.1-21.3 2.5-23.9 17.9-2.3 13.4-16.6 15.1-27.3 16.5-18.3 2.4-35.6-1.7-49.8-15.1-3.1-2.9-5.1-11-9.8-7.8-6.9 4.6-10.3 13.6-11.5 21.6-9.1 32.3-59.3 74.9-88.6 39.8-8.2-8.3-14-19-13.6-31.4.2-6.7-1-7-7.7-5-16.9 5.1-42.1.2-54.5-23.5-13.2-22.5-6.4-52.3 19.8-60.4 12.3-4.8 8.6-13.1 5.8-20.9-6.2-17 1.7-43.3 16-54.3 24.8-24.2 78.1 11.5 68.7-9.8-7.9-17.8 2.1-55.7 25.3-55.7 25.4-2.6 31.7 19 38.1 3.2 6.9-20.4 29.1-18.7 46-13.9 7.5.8 9.7 7.5 12 13.6 6 15.7 18.9 22.1 33.9 26.3 9.6 2.7.4 7.1-.4 9.1-11.7 28.7 15.4 32.8 37 37.7-12.2 5.1-23.8 10.8-36 14.5-6.6 2-10.2-6.7-16.3-8.5-17-4.8-14.9-22.2-21.7-33.7-8.2-13.8-15-28.3-22.6-42.4-.5-.9-1.2-3.9-3.8-2.4-9.8 1.6 24.4 55.6 25.6 65.5-3.5-.9-7.5-1-10.5-2.7-24.2-13.8-50.4-22.6-76.4-32-3-1.1-5.3-.2-6.4 1.9-1.5 3 1.9 2.7 3.4 3.3 21.8 9.8 43.8 16.9 64.7 28.9-21 6.6-43 9.6-65 8.7-1.9-.1-5.4-1.8-5.4 2.7-.1 4.1 3 3.2 5.3 3.4 25.3 2.7 49.7 1 73.7-9.3 6.5-2.8 14.4 4.5 21 9 3.8 3.8 31 11.6 16 15.8-14.8 2.1-26.9 11.5-40.8 14.9s-26.9 15.7-41.2 10.8c-31-9.2-61.5-22-93.8-25.1-7.2-1.7-9.3-5.5-16.4 1.5 1.1 1 2 2.5 3.2 2.8 12.1 2.6 24.3 4.6 36.3 7.6 22.5 6 41.4 12.2 64.7 18.5-40.7 14.4-77.2 26.7-115.6 43.5-1.4.6-2.2 2.4-3.3 3.7 1.9.7 4.2 2.5 5.7 1.9 16.4-5.7 32.7-11.7 48.9-17.8 3.4-1.3 7.1 1.7 10.8-.9-11.4 14.1-22.7 28.2-34.3 42.1-1.6 2-.9 3.1.3 3.9 2.9 2 6.8 1.5 9-1.3 11.7-13.8 25.5-26.6 33.8-42.2 8.6-16.2 24.2-13 36-19.5 2-1.1 4.3-1.4 7.3-2.3-14.9 31.9-30 61.1-49.1 90.1-1.8 3-6.6 6.5-2.5 9.3 5 8.5 39.9-57.1 44.7-63.5 7.1-12.4 11.7-26.3 18.9-38.7 4.1-7 13.9-5.8 20.9-8.8 24.4-8.1 47.5-19.5 71.9-28.1 1.1-.2 2.2 0 3.2.5.1 2.1.4 4.4-.5 6.2-4 8.4-7.5 17.1-10.4 26-2.6 7.7-13 5.8-19.7 8.9-7.7 3.2-46.3 28.6-45 35.8 1.5 1.9 3.6.8 5.6-.4 17.1-11.6 32.9-25.5 53.1-32-7.2 19.1-18.4 36.3-27.8 54.4-.8 1.6-3 3-.3 4.3 13.4 3 42.5-71 49.1-84.3 7.9 13.7 15.9 25 21.7 38.9 2.7 6.6 10.9 4.4 7.3-2.8-12.2-43-55.9-48.8 10-74.4-9.4 21.6-7.3 32.1 15.5 38.7 14.1 4 8.8 7.4 7.7 16.2zm55.6-38.1c-13.4 10-28.9 15.5-45.6 17.9-21.9.7-43.7-17.3-22.1-36 10.9-11.9 25.8-17.1 40.7-21.9 24.8-9.1 49.9-17.1 75.9-21.9 6.4-1.5 13.3-2 19.2-4.8 4.3-2 6.3 2 10.4.7-25.6 24.1-50.4 45.4-78.5 66zm10.4 72.1c-.8.3-1.7.3-1 .2-38-6.8-3.5-56.1 10.5-72.6 20.3-22.7 43.8-42.7 67.6-61.4-3 15.1-5.7 30.4-7.7 45.8-6.8 38.5-30.3 76.3-69.4 88zm23.4 171.9c-38.7 15.7-81.4.8-80.9-45.6 3.2-45.8 40.5-66.2 70.2-96.4-6.2 21.9-7.7 40.8.4 60.1-7.4-1.4-57.2 2.7-51.3 14.8 2.5 4.3 5.9-1 9.1-1.5 12.7-2.2 25.4-4 41-6.4-8.3 6.1-57.2 57.9-47.9 61.8 3.5 2.9 5.9-2.1 7.9-4.4 8.4-9.9 16.5-20.1 25-30.4 2.1 11.3-1.6 22.4 2.5 33.1 1 6 5.4 3.2 6.1-.9 0-12.2-.7-24.4-.7-36.6 0-9.1 7.8-13 14-16.8 2.5-1.5 5 4.7 6.8 7.8 4.5 7.8 13.2 10.2 19.7 15.4 11.5 20.2 1 38.5-21.9 46zm291.4 106.5c-42.9 16.8-64.5-29.9-76.7-18.6-36.9 34.5-77-20-88.4-52.8-6.2-13.8-10.8-28.3-16.5-42.4-1.8-4.4-4.7-3.2-7.5-.1-32.1 35.7-69 3-67.9-34 .5-7.5-2.7-11.5-8.9-14.2-40.9-19.1-36-70-20.4-104.5 7.9-24.6 28.9-37.9 37-62 1.4 28.1-8.5 71.5 27.8 77.1 18.1 1.6 28.9-21.1 28.4-37.3-.2-1.3 1.4-2.9 2.2-4.4 5.7 4.6 7 12.5 11.2 18.2 5.1 7.8-2.7 12.8-4 19.1-1.7 8.3-5.3 16.3-8.2 24.4-2.6 7.2-9.9 7.4-15.5 8.7-18.4 4.3-35 12.6-51.7 20.9-2.6 2.3-15.2 5.7-12.9 9.2 1.2 2.4 3.9 3 6.5 1.9 21.5-9.9 43-19.6 66-25.5-.5 24.4-13.3 47-14.1 71.8-.3 3-4.6 7.5.6 8.2 4.1.5 4.7-5.3 5.8-9.3 10.6-38.9 21.2-77.3 34.5-115.3 47.5 79.3 13.3 19.4 9.2 122.9-.3 3.6 1.5 5.4 5.1 5.7 4.6.3 2.8-3.2 2.9-5.2 2-22.3 4.8-44.4 12.2-65.7.7-1.5 2.5-2.8 3.7-.6 7.3 12 14.6 24 21.8 36 .5.9.3 2.3.3 3.4.7 23.1.3 46.3 2.4 69.3 1.4 15.6 6.3 31 9.8 46.4 1.5 4.8 6.7 1.8 5.8-2.4-7.7-33.8-8.8-68.2-9.5-102.8 27.3 43.5 61.2 82 103.5 108.9 0-1.5.5-3.5-.2-4.3-17.7-19.1-39.3-36-54.5-56.8 3.2 0 6.5-.6 9.4.3 17 5.5 34.9 8.5 50.8 17.3.8.4 2.5-.8 3.8-1.3-10.9-20.1-57.9-19.4-76.8-29.6-12-7.6-17.7-26.9-27-38.3-5.7-6.6-1.4-8.3 4-8.4 27.5-.6 55-.7 82 5.6 2.3.5 5-.6 7.4-1-3.8-13.5-79.1-16-92.6-12.3-16.8 2.8-18.2-10.7-23.6-18.3-12.4-17.6-21.7-37.2-32.6-55.8 9.5-1.5 18.8-2.8 28-4.4 11.2-1.9 16.1 8 23.5 12.7 18.9 12.2 39.2 21.5 59.8 30 2.4 1.2 5 2.5 6.4.1 1.5-2.6-.5-4.9-3.1-6.3-23.5-12.9-47.5-20.5-68.2-38.5 11.5-1.8 80.3 4.6 77.2-4.5-.1-2.6-2.8-3.7-5.8-3.7-28.4.1-56.7 0-85.1.1-10.2.8 1.5-8.9-3.8-29.4 49.7 45.5 78.7 1.7 44.1-46.8 16.2 10.2 31.3 18.3 50 18.7 22.3.5 39.8 32.7 30.4 52.7-4.2 8.7-9.3 16.9-15.3 24.4-19.5 23.4 55.7 23.5 45.2 86.5.6 8.6-18.2 26.2-12.5 30.3 36.3 36.2 39.2 106.3-15.4 126zm76.5-130.7c-2.6 45.2-5.3 91.4-13.3 135.6-4.8-12.6-8.4-25.2-15.3-36.6 7.8-34.8-.6-66.7-20.2-96.8-4-7.1 5.1-12.5 7.6-18.9 12.7-33.7-11-68.3-41.1-82.1-12.9-6.6-.3-10.9 2-14.4 19.2-29 21.3-61.1-15.9-78.7-7.8-3.7.3-6.8.9-9.2 4.1-14.6-3.5-37.5-16.3-46.4 14.7 5.3 29.7 6.3 45.2 6.2 12.7-.4 23.2-14.4 31.5.2 23.9 31.9 32.9 67.6 34.7 106.9 2.4 44.5 2.9 89.4.2 134.2zm23.8-261.4c2.6 12.8-13.8 7.5-20.1 13.1-2.6 1.5-8.8.4-6.6 4.8.9 1.9 2.8 2.5 5 2.5 10.4 1.4 29.9-16.9 27.6 1.3 13.3 63 20.4 128.1 17.5 192.5-.7 7.7-9.8 2.5-14.8 4.9-4.5 2.2-10.4 1.5-15.7 1.5-3 0-6.5.1-6.5-5-.3-57.3 6.2-117.1-19.4-170.6-3-5.9 5.4-4.6 8-4.9 5-1.1 24.6-4.7 24.6-10.1-.4-2.8-5.9-2.9-8.6-1.8-8.7 4.4-18.6 5.2-28 4.9-6.3-.2-7.5-9.6-12.6-13.3-24.2-23.9 1.7-42.5-46.6-65.4 19-4.8 24.2-17.7 23-34.5 19.3 7.9 36.9 15.8 58.7 21.3-11.6 5.7-22.2 11.4-33.2 16.2-3.6 1.6-7.6 2.2-9.8 5.8 3.4 12.8 35.3-10.8 42.9-13.4 5 16.9 9.9 33.5 14.6 50.2z"/></g></g><g id="Layer_1_2_"><g><path d="M52 1548v15l-37 37h946l-37-37v-15H52M52 52V37.7L14.3 0H0v1600h15l37-37V52m872 0V37.7L961.7 0H14.3L52 37.7V52h872m52-52h-14.3L924 37.7V1563l37 37h15V0z" id="Layer0_0_FILL_1_"/></g><g><path id="Layer0_0_1_STROKES_1_" d="M961 1600h15V0h-14.3L924 37.7V1563l37 37H0V0H961.7M52 52V37.7L14.3 0m.7 1600l37-37V52h872m0 1496H52" fill="none" stroke="#333" stroke-width="2" stroke-linecap="square" stroke-miterlimit="3"/></g></g></svg>