<svg xmlns="http://www.w3.org/2000/svg" xmlns:xlink="http://www.w3.org/1999/xlink" viewBox="0 0 976 1600"><path d="M960 22v1556c0 3.3-2.7 6-6 6H22c-3.3 0-6-2.7-6-6V22c0-3.3 2.7-6 6-6h932c3.3 0 6 2.7 6 6z" fill="#fff"/><defs><path id="a" d="M960 22v1556c0 3.3-2.7 6-6 6H22c-3.3 0-6-2.7-6-6V22c0-3.3 2.7-6 6-6h932c3.3 0 6 2.7 6 6z"/></defs><clipPath id="b"><use xlink:href="#a" overflow="visible"/></clipPath><g clip-path="url(#b)"><path d="M226.5 1109.3c-11-1.3-15.3-10-25.9-7.1-14.1-3.8-25.5-.3-39 4-17.5-1.5-4.2-25.7-.9-36.4 7.2-22.5 30.8-33.3 51-40.5 29.5-8.6 66 5.6 76.6 34.5-.6 9.5-17.9 3.6-22.9 8.9-4.8 8.3-16.4 5.3-20.3 12.9-7.5 19.6-2.5 12.2-18.6 23.7zm500.7-303.1c-6.7-.2-9.3-8.5-15.6-9-9.2.9-19.2 2.2-27.7-.4-14 6.4-10.8 10.2-27.3 3.4-4.8-6.5-10.7-13.5-10-21.6-1.9-8.1-17.8-10.4-19.3-19.3-6.1-7.7-32.3-2.7-27-19.1 20.4-21.7 59-29 88.2-18 19.3 8 43.4 19.6 47.6 42.3 3.2 12.3 11.1 37.4-8.9 41.7zM431.6 321.1c-16.4-1.1-30.8-1.7-46.9-3.3-13.7-1.7-28.4 2-41-2.2-8.3-3.2-18.9 2.4-27.6-1.8-9.2 3-21 2.5-28.8-4.5 5.6-28 46.7-50.9 76.1-51.2 15.4.1 30.8 2.4 44.7 9.1 16.9 7.9 62.8 51.6 23.5 53.9z" fill="#ffeb5c"/><path d="M309.3 1604c-28.5.9-188.9-.7-221 0-17.2-2.9 47.8-44.6 51.2-54.7 21.9-17.1 37.1-44.9 63.4-54.6 22.4 4.7 48.1-11.5 56.9-33.4-.5-31.7 28.9-47.4 47.4-71.5 28.1-23.9-2.7-54.5-26.7-71.4-16.3-2-31.4-6.7-15-25.6 12.3-6.6 1.8-41.5 13.3-38.3 46.5 27.8 95.8 65.7 145.4 22.6 12.5-6.4 25-36.3 39.3-27.3 12.3 13.5 21.2 41.7 42.8 39 20.6-5.4 43-6.1 63.1-4.3 18-10.9 40-6.2 59.8-9.4 12 4.8-9.7 18.6-11.9 24.5-56 71.8-129.3 131.9-179.7 205.9-22 35.3-56.6 66.8-78.8 98.7l-49.5-.2zm-125.4-369.9c-12.1-6.3-62.9-76.8-40.3-82.8h-.1c64.6 22.2 29.5 22.9 74.9 58.6 5.6 8.4-12.5 11.1-18.1 12.7-7.7.2-8.8 11.2-16.4 11.5zm527.9-29c-16.9-10.3-22.1-36.4-34.7-52.6-14.9-21.2-24.4-43.1-38.3-65.9-31-33 21.1-55.3-11.3-83.3-12-13-28.7-19.8-42.1-31.5-25.9-36.9-39.8-87.3-48.6-131.3 21.8-3.6 43.6 33.8 63.3 5.1 14.1-.3 30.6-2.8 43.7-7.9 16.8-1.9 9.7 37.6 7.9 49.7 3.9 33 70.7 85.6 105.2 88.2 42.1 11.3 90.6-29.2 125.3 8.8 35.7 48.9 21.8 52.5-17.6 86.6-19.4 12.1-41.1 51.4-64.4 45.4-17.6 11.2-24.4 34.9-41.5 46.8-6.7-3.3-10.3 2.3-12.3 7.9-16.6 3.9-15.6 31.1-34.6 34zM224.1 633.7c-23.8-17.7-41.8-41.2-60.4-54.4-13.6-14.5-36.1-25.7-40.9-44.7-10.1-5.7-19.2-6.7-25.5-22.7-20.3-45.5 43.9-70.5 30.7-112.2-20.5-49.8 13.2-75.1 42.5-110.9 11.9-5.3 14.1 18.7 25.7 19.9 7.9 3.1 7.5 7 7.4 9.1-3 50.3 6.6 99.8 8.9 149.7 1.8 39.3 9 79 11.4 117.8-1.5 11.5 11.8 39.3.2 48.4zm255.4-67.6c-9.1-15.8-3.1-44.7-9.8-64.7-3.7-26.3 10.9-40 23.5-57.5 26.6-33.7 48.3-72.3 77.4-104 4-4.2-1.5-7.6-1.8-11.7 8.3-20.8 22.1-40 33.4-59.9 14.5-16.4 12.4-54.7 36.1-66.5 16.5-4.3 20.3 18.1 16.3 30.7-10.5 33-30.3 59.8-45.2 90.3-26.4 43.9-30.5 95.3-63.7 134.8-3.3 5.6-11.6 1.7-13.7 8.1-14 34.8-29.6 71.9-52.5 100.4zM281.9 238.5c-13.8-10.8-29.8-13.6-42.8-21.6-7 1.4-14 4.1-20.3-1.3 8.3-37.9 47.1-69.6 61.4-108C291.6 66 330.3 29.8 330.4 0c-2.7-9.2 77.6-1.6 80.3-4 5.6-.1 5.5 11.4 1.3 13.1-33.4 43-46.3 93.3-78.1 140.3-26.5 50.9-45.1 12-48 85.1 0 2.2-1.8 4-4 4z" fill="#333"/><path d="M216.6 1493.3c-76.3 6.2-87.1-97.9-11-108.2 66.6 1.6 78.6 95.1 11 108.2zm3.9-180.3c-37.8.6-58.8-50.9-33-77.6 1.6-21.3 60.7-9.4 38.8-31.1-14.8-13.1-5.7-30.3-8-45.1-16.1-2.8-34.1 8-51 .7-42.4-6.7-6.5-33.2-57.9-21.1-85.6-.8-90.6-81.1-22.1-115.6-1.7-75.1 11.2-80.6 73.6-109.7-14.7-15.3-37-18.3-36-50.1.7-40.5 51.1-56.5 78.8-27.4 39.3 53.1-41 71.8-16.5 81.4 18.9 1.8 33.3 8.8 41.5 20.7 5.8 10.2 13.6 3.8 21.6-1.2 13.4-15.1 55.8 0 54.3-15.3-17.9-59.3-34.4-123.9-49.5-182-32-130.9-36.8-266.6-52.5-399.3l.1.8c.5-46.7-3.7-18.2-22-48.9-36.9-64.3 53-92.8 96.1-55.3 16.7 6.1 5.1-48.6 47.1-63.7 51.9-23.4 106.4 1.4 129 47.8 40-22.7 115.9 9.6 105.5 59.8-8.1 46.2-57.5 65.2-99 68.9-4.7 36 3.8 76 3.6 113.5 2.8 75 17 151 31.2 224.2 8.9 19.7 22.8-31.8 43.3-32.9 24.2-12.3 46.8-1.3 70.7 3.2 12.1-65 114.8-97.1 151-37.5 8.2 14.8 17.5 34.8 15.7 58.2-.6 3.3 1.7 6.5 5 7 .2 0 .4.1.5.1 18.8.4 38.9 11 51.7 22.6 65.3 57.9 18.4 153.7-65.1 136.3-23.6-6.6-16.4 11.6-29.6 24.4-26.5 26.9-81.5 5.8-86.3-28.4-7.1-14.1-19.1 8.3-33.4 5-34.7 4.7-76.9-42.3-67.7-72.9 1.4-3 .1-6.6-2.9-8-.8-.4-1.6-.6-2.5-.6-26.6-9.8-47.4-53.2-32.9 8.4 15 52.6 25.8 108.2 46.9 157.7 29.2 79.3 70.1 153.6 113.5 225.9 3.5 17.7 81.6 109.3 51.3 107-73.3 3.2-145.1 13.4-217.5 20.7-34.1-2.4-50.3-69.8-77.9-87.6-12.2 2.4-1.3 16.9-3.2 25.8-1.1 42.8-60.4 66.9-88.6 32.8-34.3-27.2-11-89 36-87.6 5.1-1.4 8.1 2.9 12.5 3.6 5.8-2.4 11.7-.1 15.8 4.1 10.1 11.8 26.9 11.5 14.9-6.4-20.1-33.9-41.5-72.3-56-106.5-7.6-11.6-22.3 15-30.4 19.7 17.8 30-12.8 49.9-42.7 57.1-14.5 8.6 17.9 24.1 11 44.3-.9 18.1-20.1 36-38.8 36.1-11.1 1.6-3.7 12.4 2 16.3 1.3 1.3 2.8 2.9 2.6 5.3.4 6.6 7.8 7.4 7.5 15.6 3.8 21.4-5.1 46.4-32.6 55.1-7.1-5-10.7.2-17.5 1.7zm-32.6-211c13.5-5.9 45.3 22.6 49.6 6.9-1.4-42.1 76.4-23.4 26.6-64.3-31.5-21.2-78.6-6.9-95.9 26.3-11.3 28.5-13.8 37.9 19.7 31.1zm445.2-374.4c-67.3 32 18 22.8 21.9 76.9 5.4 14.7 21.5-9.7 29.2-6.1 18.5-2.7 33.3 10.7 46.9 7 15.2-58.1-47-91.1-98-77.8zM342.1 269c-13.6 3-63.1 37.2-42.4 48 47.3.5 89.9 4 135.8 4.8 15-4.6-2.5-19.5-7.7-29.6-20.4-24.4-55.4-30.7-85.7-23.2zM115.7 686.7c-62.4.3-60.8-98.9 3.9-97.7 63.1 6.4 60.3 96.1-3.9 97.7zm5.2-458.8c-67.5-2.9-67.5-100.2-.3-103.2 36.3-1.2 74.9 51.6 38.7 84.2-10.1 11.7-22.2 20.8-38.4 19z" fill="#d81e1e"/><path d="M948.7 257c7.3-1.5 8.2 3.3 8.5 9.6.4 9.2-6.6 12.7-12.8 13.9-15.9 2.2-12.1-26.6 4.3-23.5zm-6.4 1187.4c-16.3-.1-16.6 30.5 1.2 27.4 8.8-.7 12-6.8 11.6-16.2 1.8-9.3-5.7-11.6-12.8-11.2zm-9.5-78.7c7.4 1 16.5-.4 14.3-12 2-8.2-1.2-13.3-8.8-14.6-17.8-5.4-22.1 24.2-5.5 26.6zm1 189.5c-15.8-4.4-14.5 26.4 5.1 23.6 12.3-2 10-28.2-5.1-23.6zm-9.7-1376.3c-1.1 15.2 22.8 18.1 21.6-.5-.2-12.3-22.8-12.4-21.6.5zm21.1 1021.4c-1.1-6.5-.7-14.8-11.4-15.3-13.4-.6-14 9.5-14.8 18.6-.9 10.4 7.6 13 14.8 13.1 9.2.1 11.2-7.7 11.4-16.4zm-10.4-275.8c-.2-15.4-26.7-14.3-25.5 1.1.9 6.4 2.2 14.9 12.8 13.5 10.6 1 12.8-6.8 12.7-14.6zM915.2 79.1c25.2 4.4 23.5-26.9 6.6-24.8-12.3.7-16.7 19.9-6.6 24.8zm-12.6 1024.2c4 3.6.9 13.2 9.2 13.4 8.9.2 17.7-3.6 18.5-14 .7-9.6-6.2-15.2-15.2-15.5-9.3-.3-10.1 8.2-12.5 16.1zm10.9-528.8c7.3-.8 13.1-5 11.4-13.9 1.5-11.4-6.2-12.4-14-11.5-10 1.2-8 9.6-7.9 16.2s5.5 9.8 10.5 9.2zm-11 687c-9-.5-12.6 6.7-11.5 15.4-1.2 8.5 1.8 13.6 10.8 14.2 13 .8 13-9.6 14.1-17.6 1.1-9.2-8-11.7-13.4-12zM559.2 1374c-34.9 39.2-74.3 74.2-104.8 117.2-27.5 37.6-55.3 75.8-90.7 106.6-5.3 6.1-10.3-1.9-4.3-6.3 46.3-39.9 75.4-94.3 114.5-140.4 52.4-57.3 106.9-110.9 155.3-172.2-18.4 2.7-37.2-.3-53.8 6.5-9.1 4-13.4 15.3-18.6 23.2-12.5 19.7-23.4 40.8-40.2 57.1-35.5 31.6-73.9 60-98 102.1-14.9 24.7-21.2 53.9-42 75.8-19.2 22.1-45.4 34.3-65.8 54.6-2.5 2.6-6 7.9-9 1.7-1.9-4 3.9-5.6 5.5-8.5 8.5-15.3 24.8-21.7 37.3-32.5 9.9-8.7 18.7-18.2 27.7-27.8 9.8-10.5 15-23.3 20.5-35.9 10.3-23.5 23.7-45.6 39.9-65.5 21.8-27 48.9-47.5 74.8-69.9 12.6-10.9 20.2-26.5 29.6-40.4 7.1-11 15.8-20.8 22.8-31.9-62.8-4.5-56.9 30-99.6-35.6-1.5-2.1-3.4-1.2-5.1.4-18.5 16.7-34 40.7-61.1 43-6.7.4-11.3 7.1-18.4 7.9-11.5 1.4-20.8-4.3-30.2-8.8-24.7-9.4-45.9-23-68.8-36.7 2.3 13.4-.1 27.3-8.2 37.4-17.7 22.2 7.9 15.5 13.2 19.2 25.5 20.1 59.5 46 28.4 77.9-12.3 14.5-25.6 28.2-38.9 41.8-8 8.2-4.2 19.1-7.8 28.6-8 20.8-34.6 40.1-57.1 36.3-14.7-2.5-17.5 10.4-25.2 16.8-33.6 27-59.6 63.5-96.7 86.2-2.5 2.1-4.6 8.5-8.2 3.5-1.2-1.7-.9-3.6.1-5.4 35.9-29.6 66-65.6 101.6-95.7 2.7-2 4.2-5.5 5.9-7.8-72.9-45.2-17.3-148 56.9-106.2 6.9 4.4 8.3-3.8 12.6-5.3 4.5-1.5 8.1-5.5 12.3-8.3.8-.6 1.5-3.4 3.3-.8 1.1 1.6 2.5 2.9.5 5-3.3 3.5-5.6 8.1-9.4 10.8-16.2 11.9 6.7 19 5.2 33.3 13.1-12.8 42-39.3 45.5-56 1.7-28.8-36.2-45.6-57-56.9-1.8-1.2-2.9-1.1-4.3.3-4.2 4.3-15.2 2.1-11.8 14 2.1 7.3 4.5 30.8-6.4 31.1-2.6-.1-2.4-2.4-2.6-4.5-.5-9.8-.3-19.7-2.3-29.2-1.3-6-9-4.1-13.6-4.7-19.1-2.4-39.6-25.9-42.6-44.6-2.1-12.9 3.6-22.5 6-33.6 2-9.5-7.8-15.4-13.1-22.1-19.6-22-28.6-48.7-33.1-77.4-.9-3.3-3.6-1.6-5.7-.7-54.2 18-119.6-34.2-78.1-90.2 10.8-13.3 23.1-24.3 39.8-29.4 3.1-.9 1.7-1.6 1-3.3-20.6-49.3 16.9-96.5 66-105.9-47.4-17.9-41.1-89.4 9.2-96.2 6.4-.2 12.7-.5 19.3.7 12.6 2.3 8.1-11.3 13.3-16.4 3.2-3.2 4.4-8.4 6.8-12.5 3-2.2 4.8 2.3 4.3 4.5-2.8 8.4-5.2 17.1-9.1 25-4.7 9.6 5.3 9.8 8.4 12.8 24.4 24.3 14.9 66.8-14.6 80.5 42 2 39.3 37.8 62.4 20.2 24.1-17.8 49.1 4.1 41.7-18.5-11.1-41.5-27.8-82.4-35.1-124.6-2.9-23-18.9-32.4-34.4-44-24.8-19.5-43.5-45.7-69.4-64.2-4.6-3.7-7.7 2.8-10.6 4.9-55.3 32-109.3-45.8-61.9-87 40.5-36.3 107.1 10.8 83.5 61.7-10.3 11.6.4 17.3 6.8 22.3 26.8 20.5 45.2 51.9 75 67.9-5-34.1-17.2-67.1-20-101.8-.2-2.5-4.8-4.5-7.1-7-29.6-27.4-59.9-53.7-88.5-82.2-36.6-27.4-65.5-62.2-30.5-102.5 21.7-28.4 16-62.2 14.3-95-1.9-41.2 55.7-54.5 50-96.3.1-10.3 1.9-19.8 9.2-27.6 2.4-2.6-1.6-3.8-8.4-10.2-12.8-11.9-19.8 2.8-29.1 4.8-23.2 4.8-43.3 1.1-59.2-17.1-46.6-62.3 38-132.1 88.2-71.5 15.7 19.2 14.9 46.3-.3 67.7-1.8 3.1 1.9 4.4 3.7 6.3 9.1 10 17.5 7.1 28.9 1.9s13.1-15.6 18.9-23.5c28.1-39.7 53-81.6 72.3-126.2C301.4 49 313.5 30 327 12.1c1.7-2.3 6.8-5.2 7.4-5.2 3.8 4.3-.1 8.5-2.2 11.5-31.3 40.3-43.2 91.3-72.6 132.3-12.9 19.5-25.1 39.4-37.6 59.1-.4.7-.6 2.1-.2 2.5 26.7 13.1 37.1-39.9 47.9-56.1.6-1.2 1-3.5 3-2 1.7 21.6-12.2 42.9-23.3 61.1-.4.6-3.3 2.4.1 3.1 12.1 2.9 23.6 7.1 32.5 15.6 1.7-43 21.8-83.7 35.3-124 11.6-29.3 26.6-57.2 35.9-87.4.8-2 .4-7 4.7-5.8 4.6 1.2 3.8 5.9 2.9 8.9-17 52.2-41.6 100.1-58.8 152.9 15.3-6.7 20.9-20.3 28.6-31.8 31-44.3 45.2-101.6 80.1-141.9 7.7 1.8 3.5 4.8.7 8.3-27.3 49-47.7 101.8-77.9 148.9 41.9-12 95.9-2 115.4 40.8 6.1 12.9 14.4 9.7 25.1 7.3 30.9-8.4 65.6 8.9 84.3 34.2 9 13.1 7.8 42.2.4 56.6-16.6 30.6-50 50.6-84 51.1-14-.8-12 7.5-11.2 14.8 5.1 32.3 3.7 63.9 8.3 96.4 23-35.6 51.2-65.9 71.8-102.7 26.7-49.9 56.8-98 79.6-149.9 14.7-32.1 41.5-9.6 37.5 18.4-4.8 22.8-17.8 41.8-27.7 62.1-17.1 30.8-33.9 61.8-46 95-8.8 26-17.1 52.3-36 73.7-27.2 34.2-48.7 74.2-66.9 113.8-3.3 8.7 1.4 20.5 3.2 30.8 4.8 25.3 8.2 51.1 14.7 76 18-36.8 66.1-47.2 100.6-27.7 3.2 1.5 4.3 1.8 6.3-7.8 5.9-27.7 25.2-43.2 49.1-53.8 42.8-20.4 97.5-6.8 113.6 41.1 16.6 38.2-3.7 54.8 21.9 51.7 116.4 30.3 88.8 195.1-35.7 161.4-2.1-.7-4-2.2-4.4 1.8-6.6 44.8-61 45-91.1 21.7-17.2 38.8 29.9 58.3 51.3 82.8 8.6 9 17.9 15.7 32.7 15.8s29.6 3.3 44.7 3c32.9-4.3 34.8-16 72.3-5 28 5.8 32.4 33.8 45.9 53.9 6.3 14.6-4.3 22.8-13.1 30.9-38.5 35.3-78.3 69.2-117 104.2-20.3 18.4-40.2 37.4-60.2 56.1-1.7 1.6-1.6 2.4-.3 4.4 7.2 12.2 13.8 24.7 20.9 36.9 5.9 10.2-1.9 15.3-8.5 16.3-18 2.7-36.6 2.2-54.6 4.9-10.7 1.6-23.1-1.9-31.8 5.7-20.8 18.4-35.5 42.5-55 62.2-11 10.5-21 21.5-30.4 33zM124.8 185.1c18.2 2.6-7.1-16.1.8-49.5 1.6-9.8-3.5-5.8-10.5-7.4-22.1 3.5-47.3 31.6-41.6 55.5.6 2.3.2 8.8 3.9 7.1 15.3-7 31.2-6.8 47.4-5.7zm14.3 14.5c-9.9-3.2-20.4-6.2-29.7-4.6-10.6.3-20-1.8-27.9 4.9 9.2 19.5 31 27.1 51.3 22.8 16.6-3.3 24.9-12 6.3-23.1zm21.8 3.3c20.2-26.1.7-62.1-23-71.3-2.2-.7-2.6.4-2.8 2.2-2.3 26 3.6 49.4 21.1 69.4 1.8 2 3 2.6 4.7-.3zm-86 431c70.7 10.5 31.1 32.3 59.6-26.7 10.1-11.7-7.7-11.8-14.9-14.1-19.6 1.4-35.2 8.8-43.8 29.6-1.3 2.8-6.1 10.4-.9 11.2zm73.2 36.8c-6.7 1.9-9.5-2.5-13-4.8-17.8-11.6-37.6-18.1-58.1-22.6-1.2-.3-4.2-1.3-3.8 1.4 4.2 36.3 46.6 49.6 74.9 26zm4.1-60.8c-1.8-1.3-4.3-9.5-7.2-4.1-6.6 12.2-11.7 25.4-14.1 37-.7 15.3 12.6 13.8 18.2 20.1 2.3 2.5 3.8 1.5 5.9-.8 9.8-11.2 8.7-43.4-2.8-52.2zm54.2 852.1c-3.6-16.9-13.8-31-23.4-45.1-3-4.4-9.4-11.6-11.1-10.8-14 8.4-15.3 29.5-13.4 44.9 2.9 19.8 27 41.2 46.1 36.8 1-8.6 3.5-17.7 1.8-25.8zm27.6-56.7c10.1-12-17.8-14.1-24.7-16-10.7-1.3-20.6 3.5-29.2 8.8-1.8 1.1 8.9 7.7 11.9 13.4 7.9 11.2 14.1 23 20.1 36.3 2.9-17.5 12-30.3 21.9-42.5zm11.3 2.5c-17.8 21.2-29.3 47.2-30.5 75.3-.3 4.5-1.4 7.4 4.4 5.8 34.2-6.8 54.5-55.9 26.1-81.1zm402.3-520.6c10.2-75.7-4.6-31.5-44.5-38.9-24.1 28.8-42.6-1.2-63.4-5 8.4 30.5 17.3 61 29.7 90.2 5.1 12.3 7.9 26.1 18.6 35.4 13.3 11.6 29.9 18.3 42.4 31.8 37 34.6-19.4 43.5 11.7 83.8 8 11.8 13.2 25.4 20.5 37.7 12.4-16.3 34.6-57.2 31.4-77.2-5-20.9-13.1-41-23.9-59.6-18.6-29.4-41.8-57.6-46.8-93.2.5-5.1 7.3-7.2 7.9.1 2.6 26.3 20.7 47.2 35.3 68.1 17.9 26.4 36.4 59.5 37.7 91.6-2.8 19.7-11.8 38.2-20.8 56.3-5.3 10.6-20.3 19.3-9.3 34.4 13.4 16.3 21.9 36.2 33 54.2 3.1 5.4 4.8 5.9 10.7 1.2 14.5-11.9 15.8-28.3 16.8-44.2 1.1-16.9-8.4-31.9-13-47.7-6.5-14.2 4.9-36.9 7.4-22.5-2.6 35.4 21 42.3 13.6 86 56.5-128.4-9.3-112.6 16.6-160.8 3.4-9.6 14.8-9.7 9.7-1.2-22.7 36.7 27.2 44.8.6 116.1-2.8 11.2-6.8 22.2-11 35.8 34.9-40.4 59.1-84.7 97-122.1 4.4-4.2 5.8-10.7.1-16-10.6-9.9-23-16.4-37.6-16.7-2.3-.1-7.1-1.4-8.6 2.8-.4 1.6 0 3.2 1 4.4 8 6.4 14.6 14.8 25.3 17.5 2.2.9 4.6 5.1 2 7.1-4-1.4-8.3 1.6-12.6-1.4-9.5-7.8-29.9-14.5-26.7-29.3 6.7-28.3 73.6-2.1 70.7 22.5.2 11.1-6.3 18.4-14.2 25-14.6 12.1-26.1 27.2-36.6 42.5-3.9 5.7-11.7 10.4-11.1 19.9 29.1-21.2 53-47 80-70.6 5.7-5.2 15.7-10.4 13.1-17.7-5.1-14.3-13-27.8-21.5-40.5-9.5-14-26.5-12.4-40.8-15.4-11.4-2.4-21.3 5.8-32 7.3-32.4 5.2-71.2 3.6-97.6-18.7-19.5-21.1-60.5-42.1-60.8-73zm-18.9 126.3c-10.8-10.1-21-23.5-36-27.2 8.1 22.7 21.2 43.2 31.7 66.1 1.4-3.8 3.6-6.9 3.5-9.9-.1-9.6 10.8-19 .8-29zm-84.5-240.4c.7-2.8.4-4.9-1.9-5.6-9.8-3-16.8-10.1-24.8-16.3.4 15.4 6 30.7 10.3 45.4 4.5 12.7.5 28.6 16.6 37.1 13 5.9 32.3 20 46.3 12.6 0-.9-.3-1.7-.9-2.3-29.3-17.1-51.1-35.3-45.6-70.9zm16.9 33c12 22.3 30.7 35.2 56.9 35.1 30-2.4 43.7-31.2 23.8-58.6-12.9-21.9-55.1-40.2-76.5-22.8-16.6 15.5-17.3 22.1-4.2 46.3zm183.7 36.4c3.6-36.9-81.6-63-90.3-8.5-.9 46.2 87.3 62.1 90.3 8.5zM507.1 704c1.2 24.1 13.9 41.4 33 54.8 2.2 1.6 4.2 1.6 7.2-.7 5.9-4.5 13.3-7.2 19.5-11.4 2.8-1.9 10.1-.2 7.9-6.1-4.6-12.5-3.3-26.3-9.3-38.4-.9-1.8-2.2-5.9 1.5-7.3 4-1.6 3.8 2.5 5 4.5 6.2 10.9 6.8 23.4 9.1 35.3 1.5 7.9 5.8 8.9 12 8.6 2-.1 1.5 0 2.2-8 1.5-15.5 2.5-30.8-1.8-46-.4-1.5 2-4.9 3.9-5.8 9.3-.2 9.5 48.6 6.1 56.2-2.5 9.5 11.1 10.1 17 12.3 4.6-17.6 6.9-35.7 6.9-53.8 0-3.8-2.7-10 3.5-10.8 5.1-.7 2.5 4.3 3.1 7.3 3.4 15.7 2.5 32.1-2.7 47.3-4.3 12.3-.1 18.6 8.4 25.2 3.9 3 5.1.4 5.4-2.3.7-6.3 3.3-12.3 5-18.1 5.6-18.6 7-37.7 9.1-56.9.3-2.8-.4-6.8 3.2-6.6 12.2-1.5-1.6 66.7-5.1 74.3-6.7 15.3-10.6 26.1 2.8 40.3 11-23.2 20.2-47.3 27.3-72 4.1-14.4 6.7-29.1 7.8-44 0-2.4 1.7-4.4 4.1-4.7 2.8-.4 1.6 2.5 2.2 4 4 42.3-16.2 80.4-31.6 119.3 22.1-14.2 34.1-38.1 45-60.6 5.4-11.9 10-24.3 14.5-36.7.6-1.6 2.3-2.8 3.4-4.2 7 3.8 2.9 10.4.7 15.7-8.5 30.3-20.6 55.6-43 80.3 8.9-4.4 15.6 2.3 19.7-2.6 7.8-9.5 15.4-19.3 22.4-29.4 7.3-10.5 13.8-21.6 19.4-33.2 1.1-2.2 1.7-7.6 6.1-6.9 8.7 6.5-17.4 43.7-22.3 51.5-4.4 6.3-8.9 12.5-13.4 18.7-1 1.4-5.1 3.1-1.7 4.4 3.2 1.2 5 8 10.6 2.8 16.6-15.6 30.6-33.5 44.8-51.1 2.3-4.5 8.7-1.3 5.4 3.1-10.5 17-22.5 34.6-37.2 47.8-8.2 6.7-6.3 9.8-1 15.3 1 1 .7 1.1 7.4-2.2 19.9-9.9 36.5-23.9 51-40.7.8-1 1-4.6 3.3-2.6.9.8 3.2 3 1.1 6.3-11.9 19-28.3 32.5-47.7 43.1-3.6 2-7.6 3-6.4 10.6 2.3 14.4 13.6 9.3 20.3 10.5 29.6 5 63.9-6.1 79-33.4 28.5-50.5-20.5-118.5-75.7-118-1.5-.1-3 2.4-5 0-1.7-2.1-1.7-4.1-.6-6.4 7.6-50.3-32.3-103-89.3-87.7-33.1 6.1-67.5 32.2-65.6 69.1 0 .9-.3 2.5-.6 2.6-1.6.3-3.8.7-4.7-.1-36.6-27.5-102.3-11.9-102.6 37.5zm-33.4-203.1c2.9 20.1 7.2 40.5 5.9 61.2 19.8-35.8 42.2-70 51.9-110.2 2.8-14.6 8.7-28.7 13.7-42.9 1.6-8.3 16.3-9.7 9.7-2-7.4 15.7-8.5 33.2-15.2 50.6 20.4-17.4 26.9-42.9 35.7-66.9 8.5-23.8 19.5-46.8 30.6-69.6 7.2-20.5 73.3-109.3 34-115.6-11.4 4.5-15 17.8-18.3 28.3-9.6 35.1-35.1 62.3-48.7 94.9.7-.3 1.7-.4 2-.9 7-11.7 17.8-20.2 25.2-32 11.1-17.7 17.7-37.8 30.7-54.2 1.6-3.8 4.3-3.9 4.2 1-2.2 15.8-13.5 27.6-18.9 42.2-18.9 39.3-55.5 66.5-78.4 103.6-14.4 22.6-30.8 43.8-46.8 65.2-10.6 14.1-20.4 26.3-17.3 47.3zm-292-215.5c12 29.5 26.3 17.6 51.7 21 13.4 1.6 26.9 2 40.3 2.4 2.9.1 9.5 1.5 8.6-1.5-3.7-12.3-9.3-24-14-36-1.7-4.3-6-8.7-1.9-13.3 2.5-2.8 4 1.4 5.1 2.9 7.2 10.3 11.7 21.9 15.8 33.8 1.9 5.8.6 15.7 9.6 15.2 5.4-.2 18 8.4 15.8-7.6-2.1-15.3-5.3-30.4-10.9-44.8-1.4-3.6 1.2-5.6 2.2-8.3 1.6.9 4.2 1.6 4.6 2.8 2.6 8.6 5.8 17 8.3 25.6 2.8 9.5 4.8 19.1 4.2 29.3-.1 1.5-.5 5.7 1.2 4.5 4.6-3.2 14.1 5.6 14.4-5.1.2-13.8-.4-27.7-1.9-41.4.1-11.3-8.3-32.6-4.7-41.6 2.1-1.1 6-.4 6.6 2.9 2.7 13.8 5.8 27.5 7.2 41.4s.4 28.2 1.3 42.2c.5 6.8 7.3 1.7 10.7 3.9 1.6 1 2.8 0 3-2.4 2-27.7 7-55.1 4-83-.2-5.2-1.3-11.1 2.7-15.2 7.6 5.1 7 14.9 6.9 22.4 1.2 24.1.9 48.2-5.1 71.9-.4 1.4-4.7 4.8-.2 5.7 5.7 1.1 11.7.6 17.6.8-.6-11.6 6.9-20.9 9.4-31.7 3.3-14.1 7.5-28 11.5-41.9 1.4-7 7.2-1.2 6.6 2.4-5.7 7.1-2.7 15.9-4.9 23.8-3.9 13.9-6.1 28.2-13.2 41-1.2 2.2-1.5 4.9-2.2 7.3 5.5-4.9 13.3 9.4 19.7-4.5 8.2-17.5 16.4-35.1 24.6-52.6 1.2-2.6 1.2-6.7 5.1-4.6s1.1 9.8-.4 13.1c-3.4 8.2-5.8 16.9-9.3 25.1-3.5 8.8-10.3 15.8-12.2 25.5 8.6-.8 18.4 3 25.1-5.1 8.3-13.1 15.9-26.8 24.6-39.7 1.5-2.3 3.4-6.8 7.4-4.7 8.1 3.1-21.4 43.1-24.2 49.4 2.6-1.1 4 3.2 7.6.5 12.7-9.2 23.7-20.2 35.2-30.6 1.5-1.4 4.8-.7 7.2-1 0 1.8.7 4.3-.1 5.1-8.5 8.4-16.7 17.1-26.1 24.4-8.6 6.6-16.2 12.3-11.9 25 .9 2.6.3 5.8 3.7 4.7 14.2-4.7 29.4-4.9 43.2-11.9 45.6-19.8 64.7-84.9 7.8-108-19.6-8.2-39-12.2-58.6-1.5-5.5 3-10.2 6.8-13.4-.6-15-35.2-43.4-55.7-84.7-53.9-38.9-1.6-73.5 26.9-71.8 65 3.1 8.3-2.2 20.8-10.8 10.6-14.5-13.5-33-17.5-51.1-20.9-32.2-7.3-66.3 31.7-46.9 61.8zM129.8 396c6.6-33.2 30.5-56.2 48.2-82.8 2.4-3.6 6.6-7 4.6-11.4-1.9-4-5.8-7.1-8.8-10.6-33 45.7-55.8 41.1-44 104.8zm95.1 230.5c-2.6-14.8-1.8-31.2-6.6-45.2-14.4-11.9-26-26.3-37.3-40.9-21-29.1-27.9-65.4-39.8-98.7-1.2-2.9-5.6-7.2-.2-8.8 5.8-2 6.3 4.6 7.9 7.8 6.8 13.5 12.8 27.4 15.1 43.1 2.4-10.6 4.7-20.6 7-30.5 1.1-4.7 4.8-10.8 3.1-13.7-7.4-12.1-9.3-26.9-18.3-38.2-2.5-4.6 1.1-9.3 5.7-4.6 8.7 7.5 11.4 18.3 16.7 29.4 3.2-16.4 3.9-31.3-2.6-45.8-2-5.7 1.6-10.8 5.8-4 19.6 30.8-1.6 67-5.9 99.1-7 41.2 17.9 67.4 44.8 97.4-7.5-45.3-9.9-82.2-13.2-126.3-2.2-43.1-10.5-85.7-7.2-129 .4-5-6.6-4.4-9.3-7.6-9.6 10.5-15.5 24-24.6 35-21.9 25.4-28.6 57.6-39.1 88.3-8.3 26.6-41 45.9-26 76.9 7.6 16.2 16.2 21 33.8 16.9 14.7.7-3.3 10.4-7.2 13.2 31.4 30.4 65.5 58.7 96.6 89.4.3-1 .9-2.1.8-3.2zM181.3 889c.4 3-3.7 15.8 2.4 13.2 28.9-10.4 36.5-54.6 8.4-69.9-6 18.3-9.6 37.4-10.8 56.7zM137 842.7c16.5 5.6 26.3 18.4 35.5 31.9 4.2-15.5 5.5-32 12.2-47-17.6-5.2-33.6-3.9-46.3 11.1-1 1.1-3.7 3.2-1.4 4zm32.3 62.2c.8 0 2.4 1.3 2.5-1.7.5-19.9-11.7-32.7-24.8-45-4.1-3.9-9-9.6-14.2-7.7-5 1.8-4 9-3.8 13 .1 24.4 18.2 42.5 40.3 41.4zm-81.5 183.2c7.4-10.6 45.1 19.3 53.2 25.5 4.5 3.9 7-2.4 10.3-4.2.7-.4 1.4-.6 1.2-1.4-14.4-16.7-30.9-31.8-47.5-46.3-1.8-1.6-5.6-3.3-3.4-5.8 2.1-2.3 6.4-2.1 9.1.3 14.9 12.9 32.1 23.8 42.9 40.5 4.9 9.2 12.3 3.9 19.4 2 .2-.7.2-1.4 0-2.1-11.6-16.9-23.7-33.3-38.1-48-2.6-2.7-8.6-4.9-5.3-8.6 9-6 28.5 22.8 34.9 29 6.3 7.8 11.9 16.1 16.8 24.8 4.2 7.5 14.8.3 21.3 5-.3-6.6-3.3-10.4-7.7-14.9-11.5-20.9-24.7-40.4-42.6-56.4-3-2.7-.3-3.6.4-5.2 1-2.2 2.2-1.5 3.9-.5 21.4 14.6 40.3 41.6 51.3 64.5 3.9 10.3 7.2 17.5 18.3 18.8-5.3-23.5-13.1-47.3-24.1-68.8-5.2-10.4-11.5-20.2-19.9-28.9-1.9-2-1.8-3.2-.5-5 4.6-6.8 16.1 9.7 19.7 13 18.3 24.7 25.4 53 34.4 83.3 1-8.6 7.5-13.2 5-21.1-6.3-25.2-5.6-51.9-17.6-75.6-1.5-3.2-5.9-8.1-.5-12.1 2.8-2 4.1 1.6 5 3.2 17.2 25.4 17.6 55.1 23 84 4-2.6 10.3-3.1 11.7-8.3 5-24.1-.8-48.1-4.7-72.1-.4-3.6-5-9.2.1-11.2 3.5-1.4 5.7 3.6 7.1 7.6 7.6 21.4 9 43.5 8.1 65.9-.1 2.4-3.3 8 3 7.7 5 .2 9.1-2.6 8.9-8 .4-9.7 2.3-19.4 4-29 2.4-13.7 3.1-27.3.2-41.1-.3-1.4 2.1-4 3.9-5.1 11.5-2.5 5.3 74.2-2 81.9 0 .1-.1.2-.1.2 2.8-2.7 6-1.2 8.2-1.5 4.5-.7 9.6 5.8 13.9-1.7 5.3-9.5 9.1-19.8 11.1-30.5 1.7-8.6 7.5-17.8 3.3-26.3-8.5-17.6-12.9-36.7-21-54.3-2.8-6-1.3-16.3-7.6-17.8-15.9-3.8-32.6-1.4-46.7 6.7-8.4 4.8-17.1 13.9-26.8 0-21.2-26.9-61-21.4-89.7-11.1-69.5 31.4-30.4 82.7-48.2 100.1-30.4 10.7-57.5 54-37.6 82 15.5 19.1 75.2 37.8 88.3 9.9-14.4-9.2-28.8-18.6-43.3-27.6-2.7-1.5-9.4-.4-7-5.4zm126.7 77.1c.6-1.6-.4-2.4-1.9-1.8-6.8 2.8-14.2 4.1-21.5 3.7-3.8-.2-3.1 1.4-1.7 3.2 8.6 11.7 15.6 24.9 29.3 32.4-4.3-12.4-8.5-24.5-4.2-37.5zm18.6-32.3c-.4-7.3-2.7-13.5-9.5-17.2-23.8-16.4-79-12.9-79.7 21.5 2.3 31.1 90 25.8 89.2-4.3zm24.4 81.9c50.5-3.5 44.3-74.7-3.5-71.9-44.9 5.5-43 70.4 3.5 71.9zm28-80.4c15.2-4 28.3-10.2 39.7-21 8-7.6 6.1-15 1.9-23-7.6-14.7-22-14.1-32.4-15.4-65.8-.4-72.1 66.6-9.2 59.4zm61.7-79.6c-3.5-6.3-8.7-27.2-13.4-28.6-2.2 10.8-3.1 21.6-8.2 31.8-1.9 3.9-7.1 7.9-4.1 12.7 1.4 2.3 7.8 4.3 9.2 3.2 6.6-5.5 13.4-11.2 16.5-19.1zm-167.7 170.9c2.6 3.6 3.8 7.3 8.6 1.2 2.6-3.4 5.8-7.8 11.9-8.3 5.1-.4 10-3.5 15.8-5.7-12.1-7.7-19.7-18.4-28.3-29.3-4.6-5.3-3.8-14.9-12.5-16.5-12.1-1.6-22.8-6.1-33.3-12.2 1.6 27.4 22.6 49.2 37.8 70.8zm43.3 78.5c-7.2-20-18.1-38.5-32.3-54.4-9.1-17-11.6 18.3-9.8 24.3 1 15.9 21.6 34.9 36.3 34.8 2.9-.3 8.2 1.8 5.8-4.7zm35.1-62.5c2.3-1.9.1-3-1-4.3-15.6-19.3-51.6-21.5-65.6-.5-1.1 2.8 2.1 4.1 4 5.7 14.1 11.3 23.3 26.2 31.3 43.4 4.4-19.6 17.3-32.3 31.3-44.3zm9 17.2c-1.3-9.8-4-13.5-10.5-4.2-10.1 9.3-16.1 21.1-22.2 33.3-3.9 7.7-2.5 12.6 1.2 17.6 3.2 4.3 6-1.3 9.2-2.4 21.5-8.1 22.9-29.4 22.3-44.3zm185.4-18.1c-7-11.5-16.9-21.1-22.7-33.7 5.6 31.3-16.7 67-49.4 69.6-34.6 2.3-55.1-12.8-64.5-49.2-11.9-42.2 49.4-89.8 93.1-54-15.9-31.1-34.9-60.8-49.3-92.6-6.3-14-10.1-17.3-20.1-3.8-2.5 3.4-3.5 4.3-1.6 9 16.8 31.2-24.7 56.6-53.5 57.4 14.3 6.3 20.3 29.9 18.1 42.2-3.5 24.9-21.3 33.4-43.1 40.8 11.9 5.5 10.7 21.3 24.6 27.3 20.4 8.9 39.5 21.3 60.1 30.1 14.5 6.2 28.4 15.4 44.9 3.3 5.7-4.2 15.6-2.8 21.2-7.1 14.4-11 27.5-23.7 41-35.8.8-.8 2.4-1.4 1.2-3.5zm-111.9 14.1c14 10.2 29.1 15.2 46.5 9.4-11.3-13-12.6-29.5-16.5-46.2-6.7 10.2-13.3 18.9-22.5 25.4-5.7 4.1-8.9 10.4-7.5 11.4zm10.4-26c12.6-12.9 21-29.3 24-47.1 1.6-9.1 3.7-10.5 1.8-10.6-29.5-3.2-56.2 22.6-52.9 52.7 7.3 29.5 8.1 24.5 27.1 5zm44 30.7c.5.6 1.3.8 2.1.6 15.2-9.2 22.6-23 23.8-38.7-.6-18.2-6.7-32.4-20.5-41.8-14.7-14.9-18.3 1-19 15.2-1.6 21.9 1.3 45.9 13.6 64.7zm254.5 4.4c24.1-1.9 48.3-3.3 72.4-5.2 2.4-.2 9.3 1.7 5.5-4.7-23.6-38.1-47.6-75.9-69.5-115-45.3-73.4-82.9-151.3-112.3-232.3-16.4-43.2-24.3-89.4-37.6-133.6-16.6-76.9-31.5-154.3-42.4-232.2-6.5-68.6-10.9-137.9-11.9-206.8.1-1.3 3.3-6.9-2.9-7.2-8.7-.5-17.4-1.7-26.2-1.9-68.2-1.3-136.6-5.8-204.8-6.7-4 1.1-13-4.3-13.7.9 10.6 123.5 21.4 247.8 42.1 370.2 16.6 75.8 37.8 150.9 58.9 225.4 34.1 102 77.2 201.6 136.4 291.9 13.6 19.7 29.1 38.4 40.7 59 8.9 15.7 19.7 14.2 32.5 12.8 44.2-4.7 88.4-11 132.8-14.6zM895 369.9c-6.7-1.4-7.7 3.4-8 8.8-4.4 20.1 22.4 20 22.5 2-.2-8.2-6.4-10.8-14.5-10.8zm.7 1041.1c-16.5-1.7-9.9 12.1-11.6 19.7-1.1 4.9 1.8 10.5 8 10.2 12.8-.6 17-9.9 17.2-20.9 0-7.9-6.3-9.4-13.6-9zm-9.2-1288c.4 5.5-1.5 14 8.8 12.2 9.4 1.5 11.7-4.5 12.3-11.3 1.7-14.6-23.3-16-21.1-.9zm12.2 334.3c11.3 1.7 11.2-23.2-.7-22-7.5.4-13.7 4.2-13.1 13.2-1 11.6 9 7.8 13.8 8.8zm-4.4 235.5c-9.7 0-8.7 8.1-9.6 13.9-1.2 7.5 4 11.8 10.5 12.1 15.5-.1 15.6-26.8-.9-26zm-2.6 167.9c14.8 1.4 19.9-24 2.6-23.7-12.4-2.5-13.6 24.2-2.6 23.7zm.8-613.6c16.9.2 14-24.5-2.4-22.1-8.4.1-7.8 7.4-8 12.3-.1 5.5 3.4 10.1 10.4 9.8zm-2.4 1252.4c-8.3.4-16.3 5-12.8 16.4-4.2 13.3 7.2 14 14 14.5 14.8.8 14.5-32.6-1.2-30.9zm-4.1-1177c15.9.9 20.7-24.6 2-23.4-7.9 0-6.9 7.6-9.4 11.7 1.1 5.5 3.1 11.9 7.4 11.7zM884.3 27c8.8 1.1 12.2-4.5 12.5-11.3.7-15.2-26.3-16.4-22.6.4.5 5.8 1.7 12.2 10.1 10.9zm-5 606.1c8 .7 10-4.5 10.3-10.6.4-8.3-1.5-15.3-12-15.6-16.1-.8-13.5 27.4 1.7 26.2zm-28.5-442.4c-1.4 18.7 26.5 14.7 26.5-1.8 1.5-18.9-27.4-15.3-26.5 1.8zm21.1 304c1.3-17.4-22.5-17.2-22.6-.7.4 7.2 5.5 11.5 14.2 11.1 8.3 2 8.4-4.8 8.4-10.4zm-24.4 695.1c-11.5.1-14 27.5 7.1 24.5 6.7-.3 6.9-5.5 6.3-11.3 2.3-10.5-5.9-13.3-13.4-13.2zm4.2 262.6c-22.4-4-23.9 25.3-9.8 27.9 9.5-.8 17.2-6.5 17.2-18.8 1.1-5.2-3-8.7-7.4-9.1zM846.5 87c9.2.2 11.4-6.9 12.4-13.8 1.2-8.1-4-10-11.1-10.4-7.9-.4-11.9 2.5-11.9 11.4.4 6.2 1.7 12.6 10.6 12.8zm-33.4 809.2c.1 6 .9 13.2 9 12.7s16.5-2.3 17.5-13.5c-1.8-6.2-1.4-14-10.9-14.5-10.5-.4-15.7 5.2-15.6 15.3zm23.9 500.4c.1-16.4-25.6-13.5-25.5-1.6-3.8 26.3 28.6 21.2 25.5 1.6zm-2.2-1036.5c.9-16.4-24.4-20.6-21.8-.7-2.2 10 6.3 10.9 13 11.4 5.8.3 8.8-5.6 8.8-10.7zM813 269.5c.6 6.6 1.1 13.4 10.1 13.7 9.7.8 9.3-7.1 9.6-12.5 2.8-15.7-21.4-15.4-19.7-1.2zm-.3-119.8c8-.6 8.5-9.1 9.1-14.8.8-8.4-7.4-9.3-12.9-9.5-21.4.2-11.2 28.1 3.8 24.3zm8.6 269.5c-.3-13.9-21.1-13.8-18.3 1.1-4 11.5 20.9 11.1 18.3-1.1zm-11.4 129.5c15.5.2 14-26.7-2.6-24.6-14.3.9-10.5 24.9 2.6 24.6zm-5.7 986.1c-17-1.5-17.1 28.8-2.4 28.9 18.9 1.8 19.4-29 2.4-28.9zm-17-1055.7c17 2.3 18.9-23.1 2.2-22.4-7.8-.5-11.8 3.6-11.9 10-.2 6.2.3 14.4 9.7 12.4zm-5.3 991.9c-13.1-.5-10.6 10.5-12.8 16.3-1 11.3 7.4 11.5 12.7 11.4 16.3-.1 18-28 .1-27.7zm3.2-1424c17.5-.9 14.7-26.9-1-25.9-14.3-1.1-13.9 27.9 1 25.9zm-19.2 272.1c-7.6-.8-8.6 5.4-8.8 10.8-.3 9.5 6.6 11.3 13.9 11.2 7.9-.1 6.9-7 7.8-9.8 1.5-13-6.9-11.6-12.9-12.2zm-6.4-120.2c-9.7-.9-9.8 7.3-10.1 12.9-.3 4.8.2 11.5 8.7 11.4 15.4 1.4 16.6-25.2 1.4-24.3zm-9.2-94c10.3.7 14.6-5.4 13.4-15-.5-4.4.4-11.5-8.2-9.3-9-.9-14.3 2.7-13.3 12.2.5 5 1.1 11.6 8.1 12.1zM737 464.7c9.9.1 9.3-8.5 9-15.3-.3-7.8-6.3-10.4-12.7-10.3-7.7.1-9.5 6.3-10.3 12.4-2.4 12.2 6.8 13.2 14 13.2zm-5.2 1051.1c-9.9.2-13 8.7-12.1 14.3 1.1 6.9-.2 19.2 13.8 18 18.6 1 15.1-33.9-1.7-32.3zm-22-1239.4c6.4.1 16.3-.8 15.2-12.5-.3-5.4-2.1-12.4-7.2-12.3-6 .1-15.3.3-15 11.2.2 6 1.6 13.5 7 13.6zM707 1433c-8.4.3-14 4.1-12.9 13.2.9 7.5.8 17 13.5 14.7 12.9 3.3 12-7.3 12.1-14.3s-3.5-14-12.7-13.6zm1-1030c13.4.9 12.4-19.3.5-19.4-10.4-.9-14.1 20-.5 19.4zm-20.8-281c-11.3.3-11.8 22.3-.2 22.9 6.9.5 14.3.1 14.1-12.1 1.5-9-4.8-11.9-13.9-10.8zm0-49c5.3-.9 11.5-1.6 10.7-9.5-.7-6.6-1.7-13-7.8-12.7-9.6.8-14.8 5.3-14 10.5.9 6.4 2.1 13.3 11.1 11.7zm-22.4 1426c-18.4-1-17 26.7-.3 27.1 15.8 1.6 17.1-26.3.3-27.1zm-8.1-63.1c1.2-9.9-8.7-10.6-14.7-10.5-9 .1-12.8 7.9-12.8 16 0 8.6 6.6 11.5 16.9 11.9 10.7.9 9.7-10.1 10.6-17.4zm-16.5-1412c16 2 19.1-22.9 4-22.9-7 .2-12.7 1.9-11.2 10.4-.1 6.1-.4 12.5 7.2 12.5zm1.1 1142.7c-2.2-1.9-3.5 0-4.7.9-30.5 27-81.5 49.8-115.5 16.4-31.2-36.2-21.7-89.5-52.9-126.5-20.9-27.4 13.1-44.3-1.6-62.7 49.3-29.6 34-106.1-23.1-74 4.2-16.1 11.1-31.4 20.4-45.3 1.4-2 1.5-5.8.5-8.2-.9-2.2-4.2-1-6.6-1.2-12-.6-18.8 9-28 13.7-11.6 5.9-21.1 16.2-35.7 15.1-21-3 0 29.5 34.4 4 1.6-.7 3.2-1.3 4.9-1.8.1 1.9 1 4.4.1 5.7-10.6 15.7-13 34.5-20.1 51.5-2.2 5.3-3 12.8 2.6 16.2 5.4 3.3 10.9-1.9 12.5-6.3 6.1-16.4 25.7-40.8 45-34.6 12.1 6.6 8.6 27.8 1 36.3-8.3 9.9-16.7 21.2-32.9 15.1-8.2-2.9-16.5 10.5-7 14.9 3.6 1.6 7.9 2.6 10.6 5.3 3.4 3.4 16-1 8.6 12.6-23.4 38.7 21.7 64.1 26.9 103 7.8 57.3 36.9 114.8 104.5 94.1 23.4-6.5 43.6-17.7 56.1-39.7.8-1.3 2.1-2.7 0-4.5zM628.2 116.8c7.6 0 13.1-3.6 11.8-12.7.7-5.9-1.1-11.2-7.9-10.9-15.3-1.6-20.4 22.5-3.9 23.6zm-15.9 1441.9c-14.9-1.4-10.1 25.8 4.2 24.3 16-.6 14-26-4.2-24.3zm-28.5-91.9c-7.8-.4-9.5 5.7-8.7 11.8.8 6.7.1 15.6 9.8 16.2 7.6.5 13.4-3.2 12.3-11.4.3-10.4-4.2-16.1-13.4-16.6zM584.5 63c7.1.6 12-2.9 12.6-10.2.5-6.4.8-13.5-7.3-12.1-8.4.3-14.7.7-14.8 9.3 0 6.4 1.7 12.3 9.5 13zm-38.6 36.1c13.7-.3 13.8-23.5-2.2-22-13.6-.6-11.2 24 2.2 22zM537 1521c-18.2-.6-19 28.5 1.3 26 10.7 2.4 8.7-6.8 9.3-12.9.7-7.3-1.4-13.6-10.6-13.1zM513.7 179.4c11.2.4 12.2-8.8 13.1-16.4.9-7.3-4.5-10.6-11.1-9.8-13.4 0-14.9 26.3-2 26.2zm-35.1-71.3c-.1 4.6-.1 10.2 9.4 8.6 2.7-1.7 11.6 2 10.9-7.6-.4-5.7 1.4-14.2-8.7-14-8.2.1-11.6 5.7-11.6 13zm-12.5 1451.4c-15.8 2.4-8.9 26.5 6.1 26.8 7.6.8 13-4.4 12.9-15.5-1.6-8.3-12.8-6.6-19-11.3zm5.3-1496.4c15.3.2 15.9-28.4.7-23.9-16.5-4.2-17.5 26.5-.7 23.9zM351.3 1493.3c15.6-13.7 28.3-29.9 40.8-46.4 23.1-30.6 53.5-54.9 75-86.9 2.4-3.6 7.3-6.8 3.2-10.8-4.8-4.7-5.1 2.5-6.9 4.3-42.5 39.5-76.3 86.8-115.5 129.2-43.6 34.5-59.5 55.7-80.2 107.2-2.6 3.8-3 12.1 3.7 14.6 19.5-49.1 35.4-80.2 79.9-111.2zM361.9 865c-6.1.3-12-1.8-14.6-7-14-27 18.6-47.5 39.7-57.4 6.5-2.9 4.9-8.9 3.4-12.7-8.4-21.7-15.7-43.9-29-63.4-1.7-2.5-2.8-6.9.5-9.5 3.9-5.1 14.4 12.5 15.4 15.5 6.2 18.7 16.1-3.8 47.5-1.6 6.9 1.5-.1 9.6-4.1 10.1-9.2 2.8-18.5 5.2-27.7 8-11.2 1.1 13 33 10.5 44.3.1 4.3 6.6 1.7 9.8.5 17.9-5.3 39.6 3.5 38.4 22.7-3 16.9-14 30.8-24.2 45.2-5.6 6.8-16.8 29.5-27.2 24.3-5.3-15.4 44.5-60.9 35.5-74.8-4.1-4.7-10.6-3.8-16.8-3.8-19.6.3-14.5 16.6-17.6 26.8-5.1 17.1-21.8 32.1-39.5 32.8zm29-46c-.7-1.1 1.3-5.5-3-2.9-10.5 6.2-19.9 13.9-28.1 22.9-2 2.2-3.1 5.8-.7 8.9 10.5 10.7 33.4-16.2 31.8-28.9zm-104.5 670.8c22-37.9 55.7-65 88.4-92.9 27.7-30.5 54.8-64.4 72.6-101.6-.9-2.7 1-5.7-2.3-6.2-2.5-.4-3.3 1.9-4.5 3.8-7.8 11.9-15.4 24-23.8 35.6-21.1 28.5-43.1 56.8-70.5 79.6-1.2 1-3.2.8-4.9 1.2 14.8-32.9 23.1-69.8-5.4-98.4-5.7-9.4-10.5-.4-5.8 6.4 28.4 35.6 10.9 81.5-13 113.7-11 16.1-25.2 30-35.7 46.3-11 17-23.3 31.8-40.5 42.7-34.1 21.7-67.7 44.2-98.4 70.5-2.4 1.9-3.2 4.6-1.7 7.2 1.8 3.1 4.5.8 6-.2 6.3-3.8 13.1-7.3 18.1-12.4 37.4-36.3 92.4-50.3 121.4-95.3zM410 99.5c-.1 18.6 23.4 14.2 22.5-1.8-.1-10.9-23.6-13.8-22.5 1.8zm-62.5 601.4c-11.7 17.2-27.1 5.8-28.4-10.3-19-71.1 114.9-94.5 103.8-25.8-5.4 41.9-48.9 62.1-36.4 38.6 6.5-9.5 14.5-18.4 19-28.8 6.6-13.8.6-38.2-19.2-33.4-15.6-3.2-11.5 11.1-14.9 17.9-7.3 14.4-13.8 28.7-23.9 41.8zm16.8-54.3c.3-.9.4-1.9.4-2.9-22.3 3.6-40.3 27.4-28.6 49.1 13-8.4 20.6-32.4 28.2-46.2zm-44.4-115.8c-14 23.6-49.7 22-40.7-11.7 5.9-16.9 10.8-34.1 25.1-46.7 1.9-1.7 1.3-7.5.3-10.9-2.2-7.5-2.3-15-1.4-22.4 1.1-10-4.9-8.2-9.9-6.5-10.5 3.4-25.8-2.9-30.3-13.2-3.7-6.7 5.2-9.2 8.9-6 7.2 5.4 15.1 4 22.9 3.4 4.6-.4 8.3-2.6 8.5-8.8.3-9.5 2-18.9 2.6-28.3 1.8-12-9.9-2.2-12.5-9.7-.6-3-.3-6.1 1-8.9 1.8-3.8 4.9-.5 7.5-.5 9.1 0 18.1.5 19 11.8.7 8.3 2.2 17-1.3 25.4-1 2.4-.1 5.5-.1 7.9 19.2-5.6 37.7-18.4 58.3-13.2 5.1 1.6 10.7 2.7 9.2 8.7s-9 5.1-13.4 5.2c-15.6.7-29.7 6.7-43.9 11.9-13.6 2.6-12.4 12.7-10.6 22 1.3 6.8-2.1 19.8 2.4 19.1 12.5-1.9 26.2-6.8 27.8-23.7.2-2.6.7-5.6 2.2-7.4 2.1-2.6 3.1-8 7.9-6.3s4.6 5.6 2.6 10.2c-18.1 35.4 61.9 7.3 37.1 74.9-2.5 18.1-61.6 70.2-30.3 77.5 13.5 1.5 12.1 12.1-.6 12.1-22.9 1.3-30.9-14.1-20.1-36.7 8.3-20 54.1-62.3 35.6-83.4-8-8.3-19.2-9.5-29.5-9.1-6.1.3-6.1 9.7-8.7 15-4 8.1-7.2 16.5-10.9 24.7s6 12.3 6.2 19.4c.1 3.2 5.5 6.7.7 9.5-11.6 5.5-11.3-19.6-21.6-5.3zm5.5-37.7c2.6-8 8.4-13.9 6.7-19.9-12.7 1.8-7.6 10.4-6.7 19.9zm-10.5 8.4c-1.6-6.3-3.1-18.4-8.8-7.9-6.6 11-12 22.7-12.8 35.9.6 13.9 25.5-17.1 21.6-28zM235.8 77.1c-5.8.9-14.1.5-13.7 9.8.3 6.4 1.5 13.7 11.5 12.2 13.6 3.1 16-23.9 2.2-22zM229.6 38c14.9-.9 14.4-23.5 0-22.6-8.1.7-10.9 7.1-10.6 14.6.3 7.1 6.9 6.2 10.6 8zm-54.3 29.8c11.2.2 13.9-24.1.8-23.7-14.5-.2-16.2 24.8-.8 23.7zm-46.2 692.9c-11.3.6-11.3 10.6-11.7 17.6-.6 10.2 8.5 10 15.5 9.2 12.1-1.4 8.3-12.8 9.4-19.3s-7-7.4-13.2-7.5zm-1.2 577.2c17.8 1.5 16.5-27-.2-24.9-11.1.8-11.1 9.1-10.5 16.9.5 5.9 5.4 7.9 10.7 8zM124.1 42.5c9.5-.3 15.3-8 14.5-17.5-.7-7.9-8.8-7.6-14.7-7.9-13.8-.7-10 26.7.2 25.4zm-15.2 1396.6c-9.1-1.5-14.1 3.6-13.6 11.6.4 5.2-2.3 14.5 8.7 14.4 12.9-.1 17.5-5.9 15.4-18.8-1.1-7.4-4.9-7.9-10.5-7.2zM99.8 294.9c24.5 1.3 20.9-31.6.7-29.7-18.3.1-13.5 27.2-.7 29.7zM72.4 409.3c1.3 15.2 24.8 12.7 24.7-4.6.8-7.1-.5-13.9-9.9-11.8-11.7-.6-14.6 2.4-14.8 16.4zm10.8 761.6c-6.2-.1-7.9 4.4-8.1 9-.2 7.1-2.6 16.7 7.1 18.7 9.3 2 16.2-2.3 14.8-13.3 1.9-11.3-4.5-14.2-13.8-14.4zM81.6 96.3C95.9 94.1 97 73.2 81 73c-13.6.2-13.2 21.9.6 23.3zm5.8 1171.5c1.7-17.9-21.2-22.3-21-7.6 1.1 6.2-3.1 17.4 10.4 14.7 5.6.5 10.6.7 10.6-7.1zM67.7 841.5c13-.8 15.1-7.4 15.6-15.5.6-10.7-8.8-10.8-14.3-10.6-12.5.3-12.4 25.9-1.3 26.1zm-8-135.3c-9.8.8-9.4 10.2-10.5 16.8-1 6.2 3.7 8.8 7.9 8.2 20.2 2.4 21.4-26.8 2.6-25zm12.1-178.9c.1-17-22.2-14.8-22.7-.2-1.6 19.5 23.1 14.5 22.7.2zM51.6 928.5c15.9 1.2 20-32.7 1.8-30.5-10 .5-10.8 9.2-12.4 16.4-1.8 8.4 4.5 14.1 10.6 14.1zm-5.5 418.7c-6.3.5-13.1 2.2-13 10.8.1 6.4-2.3 15.1 7.8 15.9 19.9 4.1 25.9-28 5.2-26.7zm1.6-1031.1c-9 1.2-9.5 8.5-9.2 15s6 7.6 9.6 8c12.3.5 14.2-7.8 14.2-14.8 0-9-7.7-9.1-14.6-8.2zM45.7 56c12.6-2 8.5-24.9-4.3-23.9-9.1-.1-12.1 5.7-12.4 13.6C28.4 59 37 57.2 45.7 56zm-9.1 384.9c-14.3-.8-19.3 24.9-4.6 25.8 5.4-.1 14.4-.7 13.4-8.6-.7-5.8 5.3-17.4-8.8-17.2zm-2.3-177.8c8.2-.2 10.4-5.9 10.6-12.5.3-8-5.4-9.4-13.6-9.8-13.7-1.2-11 24.1 3 22.3zm-14.7 977.2c-7.9.4-8.2 7.5-8.4 12.9-.2 6.4 3.7 10.1 10.5 9.8 17.6-2.3 13.2-25.7-2.1-22.7z"/></g><g><path d="M52 1548v15l-37 37h946l-37-37v-15H52M52 52V37.7L14.3 0H0v1600h15l37-37V52m872 0V37.7L961.7 0H14.3L52 37.7V52h872m52-52h-14.3L924 37.7V1563l37 37h15V0z"/><path d="M961 1600h15V0h-14.3L924 37.7V1563l37 37H0V0H961.7M52 52V37.7L14.3 0m.7 1600l37-37V52h872m0 1496H52" fill="none" stroke="#333" stroke-width="2" stroke-linecap="square" stroke-miterlimit="3"/></g></svg>