<svg xmlns="http://www.w3.org/2000/svg" xmlns:xlink="http://www.w3.org/1999/xlink" viewBox="0 0 976 1600"><path d="M960 22v1556c0 3.3-2.7 6-6 6H22c-3.3 0-6-2.7-6-6V22c0-3.3 2.7-6 6-6h932c3.3 0 6 2.7 6 6z" fill="#fff"/><defs><path id="a" d="M960 22v1556c0 3.3-2.7 6-6 6H22c-3.3 0-6-2.7-6-6V22c0-3.3 2.7-6 6-6h932c3.3 0 6 2.7 6 6z"/></defs><clipPath id="b"><use xlink:href="#a" overflow="visible"/></clipPath><g clip-path="url(#b)"><path d="M502.6 1336.7c-29.7-7.3-8.8-81.2 7.3-96.6 19.5 16.5 23.3 88.6-7.3 96.6zm98-129.8c-81.8.1-29.1-33.2 16.2-38.7 43.2 5.9 15.8 43.5-16.2 38.7zM439.5 1195c-30-2.4-79-14.8-70.4-48.4 17.9-18.6 108.1 48.1 70.4 48.4zm159.6-84c-59.4 1.4-5.5-31.9 25.7-33.9 46.8 9.3-.6 38.3-25.7 33.9zm-156.4-17.5c-23.8 0-86.5-38.6-48.8-60.4 17.1-.6 90.7 59.1 48.8 60.4zm-244.4-20.7c-28.2 0-12.9-81.9 5.2-95.5 18.5 13.2 27.2 89.8-5.2 95.5zm414.6-56.1c-59.6 2.6 6.8-44.1 36.3-39.8 9 0 14.1 4.1 15.8 12.6 4.6 24.7-34.9 26.1-52.1 27.2zm-159.3-37.2c-63.5-9.1-78.3-83.3-20.8-43.2 4.9 11 42.3 37 20.8 43.2zm393.7-17c-21.3-2.2-48.7-55.5-29.5-71.4 19.2 8.3 64.5 59.4 29.5 71.4zm-565.1-31c-81.4-3 46.4-66.9 53-19.8-4.8 21.7-35.4 17.5-53 19.8zm-134.9-.5c-21.7-1.3-48.3-17.1-55.3-41-2.6-9.5 8.7-21.8 17.1-14.1 9.7 6 63.5 52.6 38.2 55.1zm444.1-2c-55.9 0 36.4-56.1 54.1-34.6 13.8 27.4-34.8 31.6-54.1 34.6zm-140.2-66.3c-26.7 3.8-87.1-43.5-42.4-48.1 9.6.6 67.3 40.9 42.4 48.1zm434.3-2.6c-20.9-.1-39.5-7.4-56.8-14.7-19.3-12.3 20.3-20.8 29.1-19.6 19.2-4.5 61.2 26 27.7 34.3zm-292.4-27.2c-50.1.9 15-42.4 33.8-40.3 21.3-2.2 45.7 19.1 18.4 28.9-16.7 7.6-34.5 10.1-52.2 11.4zm-316-12.1c-38.1-10.4 32.8-42.1 46.6-37.8 15.9-1.4 28 21.1 9.6 26.1-17.2 9.2-36.7 10.1-56.2 11.7zm-118-4.1c-51.3-7.5-82.6-107.3-17.5-50 5.9 9.3 39.8 47.3 17.5 50zm285.6-62.5c-74.9-5.5-78.7-89.1-15.1-34.8 4.9 8.7 27 27.2 15.1 34.8zm144.6-18.7c-62.6 2.1 58.5-70.2 65.3-35.6-.1 25.3-43.3 33.3-65.3 35.6zm-301.1-16c-66.3 4.8 12.7-43.9 36.1-34.3 43.3 17.1-13 38.2-36.1 34.3zm-128-2.4C131 715.7 76.6 660.6 115 646c22.6 3.4 56.8 51.7 45.2 71.1zm2.1-116.2c-28.4 4.3-72.4-63.3-29.1-58.3 11.4 5.4 54.2 53.1 29.1 58.3zm159.6-5.8c-83.1 3.8-30.4-43.6 16.4-41.5 59 4.4 20.1 45.1-16.4 41.5zm-50.3-100.2c-28.6-10.5 41.9-44.9 52.9-40.1 66.1 13.7-31.2 43.5-52.9 40.1z" fill="#5d4e8c"/><path d="M518.4 669.4c-32.8-27.4-26.9-112.5 20.7-119.8 20.7 34.1 15.7 95.6-20.7 119.8zm193.4-40.7c-48.3-67.4 63.2-196.2 37.2-43.5-8.2 30.8-15.9 37.9-23.1 40.5-6.2-4.2-9.1.5-14.1 3zm136.7-15.3c-32.4.1-51.1-40.5-45.7-72.2 1.5-10.3 8.3-5.4 10-17.7 27.5 2.6 53.8 66.6 35.7 89.9zM429 563.5c-29.1-22 27.8-61.9 54.4-65.1 17.6 24.6-24 65.2-54.4 65.1zm215.9-12.9c-116.3-21.8-55.9-152.1 15.5-11.9 2.7 4.4-11.5 13.2-15.5 11.9zm229.6-54.8c-12.2.6-72-16.7-60.8-44.9 16.1-28.3 114.6 35.9 60.8 44.9zm-202.5-19c-3-1.1-8.6-2.2-8.2-6.5 5.8-47.5 16.6-55.2 47.9-64.9 37.1 14.5-14.4 72.2-39.7 71.4zm-268.5-22.4c-16.7-28.7 43.5-80 71.5-65.4-4.9 27-24.5 54.6-52.3 63.5-9.7.1-9.7-5.3-19.2 1.9zm-281.8-4.8c-22.6-14.4-1.3-84.9 25.1-82.8 14.4 6.4 19 6 14.3 24.4-3.2 23.5-15.5 48.8-39.4 58.4zM864 404c-37.5.5-62-19.5-73.7-45.5 20.9-35.1 150.9 40.4 73.7 45.5zm-583.2-9.4c-22.5 3-78.9-49.5-43.2-63.1 23.8-1 70.4 48.1 43.2 63.1zM643.6 383c-38-7.2 5.2-72.7 32.7-69.7 27.6 20.2-10.9 62.7-32.7 69.7zm-252.4-44.6c-27.9-19.8 31.3-58.1 50.2-50.4 2.9 12.8 13.3 0 19.4 4.5-8.8 28.7-43.7 43.7-69.6 45.9zm209.5-13.9c-27.2-3.2-62.8-48.6-42.1-71 21.5 7.5 49.3 26.3 50.2 51.2-3.9 2.8-2.3 7.7.4 10.7 5.2 6-3.5 8.9-8.5 9.1zm-482.6-25c-80.2-1.1 50.6-81.8 50.6-24.5-12.5 17-28.1 24.5-50.6 24.5zm689.3-2.8c-18.7-.9-66.6-9.1-68.7-38.1 5-32.7 152 28.2 68.7 38.1zm-515.9-28.6c-24.2-18.4-18.5-81.6 10.9-88.4 15.1 11.7 27.1 79.4-10.9 88.4zm578.5-5.6c-25.3-8.9-71.9-50.4-52.9-74.3.7-6.9 9-8.5 13.2-4.2 28.2 17.2 52.5 41.4 46 76-1.1 2.5-3.9 2.3-6.3 2.5zM359.8 237c-10.9-10.8 21.3-65.7 38.2-71.1 13.2-9.4 9.9 5.8 18.6 7.1 16.7 17.4-17.6 51.3-33.9 60.1-9.2 5.4-14.4-3.6-22.9 3.9zm212-3.4c-13.5-22.3.3-55.4 13.5-76.3 3.7-4.4 12.1 3.6 14.1-4.8.5-1.8 2.2-3 4-2.9 16.6 25 1.2 79-31.6 84zm-437.7-32.5c-11-1-27.2-1.2-35.9-8.7.4-8.2-9.6-10.1-5.9-17.3 13.8-17.9 65-18.2 83-1.9 1.3 20.8-22.5 27.3-41.2 27.9zM537.5 134c-19.4.1-52-11.2-58.6-34.9-3.6-1.4-2.8-7.2 1.1-7.6 34.9-12.1 118.1 32.1 57.5 42.5zM872 123.3c-17.3-.6-80.8-8.5-53.5-36.6 24.1-9 50.7 1.1 70.6 13 6.5 17.3 3.4 22.9-17.1 23.6zm-645.1-19.9c-12.1-1.3-80.1-6-64.8-31.4 46.8-38 154.2 25.1 64.8 31.4z" fill="#333"/><path d="M835 824.4c-13.3 6.7-26.1 10.7-41.3 11.2-12.5.4-14.6-10.6-22.6-14.1-31.4-13.5-27.1-52.2-34.7-80.3-3-18.9-9.9-37.1-9.5-56.7.2-9.5-.4-19-1-28.5-3.7-28.8 9.8-21.6 19-42.9 12.2-25.8 19.9-55.6 13.1-84-2.3-10.5-11.5-20.2-8.4-30.5 5.9-16.6 12.3-35 21.9-49.5 7.4 14.8 12.7 30.9 19.4 46.2 3.9 9.4 12.8 20.3 10.6 28-4.8 17-4.9 32.7-2.7 49.9-2.9 18 52.7 69.9 56.3 50.2 7.1-31.5 2.7-65.5-18.3-91.4-8.5-10.7-25.4-10.2-30-26.8-5.2-19-14.2-37-21.8-56.2 20.1 4.4 20 13 31.3 26.3 20.4 18.7 43.7 29.8 72.1 25.5 12.1-.9 15.9-13.3 8.2-22.8-19-21.9-42.7-45.5-74.5-37.4-20.8 9.1-44.4.5-51.2-23.4-4.9-22.1-20.2-40.4-27.8-61.5 64.4 9 34.3 19.7 82.3 46.3 15 8.6 31 7.8 46.7 8.6 8.5.4 20.8 1 24.6-9.5 5.8-22.4-33-44.7-50.9-51.6-17.6-6.4-34.9-6.5-52.7-.7-5.1 1.6-8 8.5-16 4.7-9.4-4.5-20-6.2-30.7-6.8-3.6-.2-9-.5-11.5-5-13.5-27.6-30.6-53.6-41.6-82.2 7.3-.5 15.3 1.5 22.1 4 5.6 2.6 13.1-1.1 17 4.9 11.3 17.2 28.8 24.9 47.1 30.6 13.2 4.4 54.5 7.9 62.5-4.5 1.5-18.2-19.5-30.4-33.4-38.5-20.3-11.3-43.7-17.7-64.2-7.7-15.6 7.6-28.5 5.6-42.2 2.1-5.5-1.4-13 3-16.5-3.4-30.7-68.5-68.4-131.6-113-192.2 65.9 21.4 128.6 50.6 183 93.9 8.6 7.6 18.2 14 27.2 21.1 7.5 6 18.7 10.8 20.2 20 6 29.9 22.9 56.1 50 70.4 7.6 4.5 17.7 8.5 24.2 3.4 17.1-20.1-2.7-55-21.1-68-17.1-13.6-23-27-49.5-19.6-27.3-22-54.6-44.5-83.4-64.4 1-.8 1.9-2.2 3-2.3 23.3-2.9 46.7-4.3 70.1-4.1 2.6 0 5.2-.7 7.7 1.9 20.9 19.9 62.8 27.1 89.9 16.7 9.8-4.1 12-8.7 8.2-16-9.8-18.8-42.5-30.7-63.7-30-10.9.8-19.9 2.3-29.5 7.6-4.8 2.6-3.7 10.2-10.3 9.6-4.6-.4-9.3-1.7-13.8-1-20.3 2.9-41.1-.8-61.4 5.5-4.8 1.5-12.8 4.9-17.6 1.8-34.4-21-72-36.3-109.6-50.3-16.2-6.6-35.1-7.3-46.7-23.9-7.6-10.8-18-21-27.4-31.8-1.3 10.3 6.5 17.1 10.9 23.2 11.2 17.1 23.6 33.3 35.3 50.1 9.2 13.3 18 26.8 27.2 40.1 5.1 7.4 8.7 14 4.3 24-5.5 12.4-19.1 17-24.9 28.9-9.5 18.6-26.7 68.3.4 79 4.6 1.4 8.3-1.8 11.7-4.8 23.6-20.8 40.3-60.5 20.6-89.1-2.7-3.4.3-8.5 2.6-10.8 2.6-2.6 4 2 5 3.9 27.7 47.5 53 96.8 77.2 146.3 4.5 9-2.5 23.2-11.4 23-38.2-1-59.2 35-60 69.5 0 40.5 56.7-6.9 62.6-23.5 6.2-11.7 12.6-23.7 8-38.4-1.7-5.3 4.7-9 9-11.4 3-1.7 3.4 3 4.1 4.9 7.5 20.2 20.2 37.7 29.6 57 2.1 4.4 6.1 9.6 4 13.1-4.6 7.5-10.3 17.2-18.9 18.3-15.2 1.9-28.8 6.9-40.3 16-15.6 6.8-35.3 67.4-11.9 68.8 36-1.9 66-37.8 61.5-73-.4-11.1 10.5-13.1 14.6-20.5.7-1.2 1.9-.2 7.2 10.2.7 1.3 1.2 2.6 1.7 4 10.9 24.9 19.9 28.1.8 55-6.8 15.6-9.9 32.6-23.7 45.3-34.8 29.8-46.6 84.1-27.6 126.4 3 5.8 11.3 9.9 6.5 20.3-10.2 21.9-16.5 45.5-17.2 70.2.1 32.9 6.6 72.8 38.2 89.9 5 2.8 11.6 4 13.7 10.8 23 73.6 52.6 144.7 74.4 218.7 14 41.3 19.7 84.5 18.3 128-.4 34.1-19 58.7-45.3 78-7.4 5.4-12.2 5-11.6-6.8-6.1-54.2-77.8-38.4-71.7 11.6 3.2 27.7 35 27.5 56 20.9 2.8-.7 4.3-.2 3.7 3-1.3 8-2.2 16.2-4.2 24.1-13.8 45-7.6 125.8 57.9 116.1 22.2-4.6 45-51.7 19-62.3-.2 1.6-1.2 3.8-.5 4.6 5.5 7 3 14.3 2 22-3 22.4-24.6 32.9-44.4 22.2-38.6-22.1-28.4-71.9-20.4-107.6 2.3-11.9-2-27.9 15.2-33.4 2.4-.8 5.2-1.1 7-2.7 36.6-25.8 53.1-63.7 50.9-108.2-.4-55.1-15.5-107.7-34.3-158.7-8.1-27-17.8-53.8-27.8-80-3.6-18-13.7-33.3-18.1-50.9-2.8-11.2-7.3-21.9-11.7-34.6 16.5 10.5 27 23.4 36 37.5 6.1 9.6 17.4 17.8 14.9 30.7-3.3 23.2 6.5 56.1 26.3 69.8 34.2 14.3 34.5-14.8 24.8-36.7-6.5-15.8-20.9-26.1-34-37.1-4.1-3.5-10.3-4.2-12.8-10.2-4.2-13.3-12.6-24.1-19.6-36 12.3 3.6 26.1-5.5 36 6.9 106.6 54.4 89.8-54.7 6-26.5zm8.8-260.4c4.8 14.7 9.6 30 4.8 45.4l-33.1-82.9c15.3 9 23.4 22.6 28.3 37.5zm-36.1-26.3c9.6 23.5 22.7 46.7 30.7 70.9-25.1-9.8-37.6-46.2-30.7-70.9zm78.2-58.6c.7.7.6 2 .9 3.1-23-10.3-45.4-21.1-69.1-32 30.7-6.7 49.9 10.2 68.2 28.9zm-1.8 11.2c-14.1 5.2-47-3.1-70.5-30.4l70.5 30.4zm-83.2-119.5c27.6 8 54.7 15.7 81.9 27.1-31.7 7.1-67.7-4.9-81.9-27.1zm81.9 15.4c.5.8.8 1.6 1 2.5-29.3-9.3-58.2-22.6-89.4-30.4 32.2-12.7 67.1 5.7 88.4 27.9zm-139-117.5l79.8 20.4c-11.8 8.4-53.6 2.3-79.8-20.4zm87.2 16.6c-29.5-13-59.4-19.2-88.4-27.3 14.4-8.7 53.1-8.5 88.4 27.3zm-9.4-98.1c2.1-3.6 5.3-.5 6.9.5 20.1 13.8 45.3 31.4 44.8 58.6-15.3-19.3-28.6-38.3-47.9-53.4-1.7-1.6-5.7-2.2-3.8-5.7zm31.4 48.3c6.3 7.8 14 14.5 19.8 22.7-27.1-5.9-49.8-34.7-58.5-61.2 16.2 11.9 27.5 25.2 38.7 38.5zm32.2-118.6c-18.6 6.1-51.6-1.3-69.1-12.7 26.7 2.8 48.7 3.4 72.8 9.9-1.2 1-2.3 2.3-3.7 2.8zm-65.4-26.4c24.5-8.3 46 .6 67.3 12.7-25.3-5.5-46.7-5-71.1-9.5 1.2-1.1 2.3-2.7 3.8-3.2zM572 229.6c-3.5-28 2.8-50 16.6-70-6.8 23-12.4 46.4-16.6 70zm10.1-1.3c7.2-25.3 13.6-48 21.2-74.6 6.9 30.9-1.1 53.1-21.2 74.6zm51.5 148.4c-3.9-27.5 20.2-59.3 42.8-59.4-12.9 18.1-28.7 34.3-38.9 54-1 2-.8 4.8-3.9 5.4zm49-44.3c-6.8 20.1-17.9 36.8-39 46.6 11.4-19.7 25.8-36.1 38.6-53.6.2 2.3 1.2 4.9.4 7zm29 77c-14.3 19.9-34.1 35.2-43.9 61.4 5.6-45.3 14.7-51.5 43.9-61.4zM672 472.8c16.8-19.6 31.3-39.5 48.2-57.5 5.3 21.4-26.1 56.6-48.2 57.5zm53.9 148.8c1.7-35.1 8.2-69.5 17.7-103.4 14 21 1.7 92.5-17.7 103.4zm5.9-105.8c-9.9 37-17.1 72.6-20 108.8-13.5-38.9-8-74.8 20-108.8zM712.3 667c2.1 45.4 14 89.2 23 137.3-45-42-36.5-89.3-23-137.3zm55.3 586c-2.7 11.6-19.7 7.7-30.1 8.9-31.3 1.5-13.1-44.9 9.5-42.9 10.9.1 24.5 17.3 20.6 34zm85.7-319.8c-.1-.2-.2-.5-.3-.7.2.3.3.5.3.7zm-30.7-35.6c11 10.9 22 21.8 30.4 34.9 1.3 7.3 3.8 12.9 2.7 17.5-3.1 12.1-12.5 9.3-18.3 3.7-14.9-14.4-21-33.1-22-53.6-.4-8.2 5.6-4 7.2-2.5zm71.1-47.2c-6 16.1-55-5.5-65.7-9.7-3.1-2.6 6.4-6.5 8.3-7.4 15.7-6.2 55.7-4.8 57.4 17.1zM631.5 972.5c-19.1 6.8-36.3 14.9-47.6 32.4-1.8 2.9-3.9 7-6.6 7.7-14.6 4-28.2 10.6-41.7 17.3-6 3-8.8 3.9-8.8-5.1 0-18.4 1.7-36.8-1-55.2-1.5-10.8.9-20.8 13.2-23.9 8.5-2.1 14.8-7.9 22.5-11.2 3-1.3 5.6-4.3 9.4-3.1 27.2 8.7 52 2.3 75.3-12.5 14.7-7 12.2-29.3-3.3-33.9-20.8-6.8-39 2.1-52.9 14.8-18.5 16.8-39.7 28-61.3 39.3-4.6 2.4-3.7.1-3.7-2.6 0-23.2.6-46.5-.3-69.7-1.1-13.1 10-12.5 18.3-17.1 8.6-4.4 16.8-11.1 25.9-12.7 10.9-2 22.2 1.4 33.8.8 19.3-1.1 36.7-5.9 52.8-15.3 34.7-24.4-32.6-58.9-76.3-12.5-5 4.8-6.8 13.8-12.4 17-13.6 7.8-28.4 13.2-43.9 20.1.8-8.3 2.8-14.9 1.9-21.1-2-20.6-2.8-42.6-.7-62.8 60-36.8 41.3-14.1 93-26 17.2-7.1 50.1-17.3 43.5-41.6-14.5-26.3-60.9-1-77.5 12.3-9.5 7-13 20.2-22.5 25.8-12.6 7.4-27 11.9-39.9 21.3 2.3-26.2-2.4-51.3-1.7-76.7.1-2.8 1.5-4 3.4-5.4 20.6-15.8 34.8-34.6 35.1-62.6.2-21.9-.7-43.4-11.9-62.3-4.9-8.2-10.1-14.9-8.6-25 4.1-13.3-2.6-28.6.9-42.1-.5-9.7-2.6-21.5 12.5-12.1 6.8 4.2 18.6 7.4 19.6 12.7 2.5 12.6 7.3 23.6 12.6 35.1 10.7 23.2 40.6 42.8 68.3 38.3 9.6-1.6 15.2-8.5 13.4-16.9-7.5-34.6-33.7-66.4-70.6-69.4-9.6-1.2-19.9 4.2-29.1-3.7-10.3-10.2-28.5-.4-26.7-21.2 0-70.4-14.3-137.7-31.7-206 6.2 3.7 10.7 6.3 15.1 9 7.2 4.4 19.4 7.8 20.6 13.5 6.8 28.6 25.5 63.8 57 68.7 44.6-1.1 1.9-61.9-18.6-72.6-13.2-9.7-29.1-3-42-11.3-35.5-28.5-32.5 3.7-45.5-48.8-11-33.3-34.5-67.4-46.5-97 7.5 2.8 16.9.6 22.7 7.3 22.5 26 49.8 38.1 84.2 30.2 4.8-1.1 11.8-.5 13.6-6.7 3.8-19.6-21.4-33.5-36.6-40.5-49.4-20-51.3 7-72.3 1.6-10.4-4-22.7-1.6-30.4-13.5-8.9-10.5-49.5-81.9-58.4-76.1-3.7 1.4 0 4.3.6 5.9 12.4 27 24.4 15.1-3.5 43-12.7 10.5-25.3 21.2-35.8 34-3.9 4.8-11 12.5-14.2 11.4-20.8-6.7-41-12.5-60-26.8-37.8-36.6-132.7-5.4-104.5 19 28.9 19.6 64.8 25.8 98.6 17 8.3-1.9 13.9-11.7 23.6-9.7 12.2 3 25.2 5 36.5 10.7-17.1 18-33.5 36.6-48 56.8-1.9 2.6-5.8 7.2-6.7 6.7-9.4-5.1-19.6-.9-29.2.4-14.4-.6-30.9 3.5-44.1-.2-11-3.7-21.3-9.7-33.1-12.8-21.3-5.6-40.3-3.6-58.4 9.6-12.7 9.3-13.7 19.6-.9 28.5 24.8 14.6 62.6 18.9 84.1-3.8 2.8-3 5.6-8.4 8.6-8.6 22.9-.8 45.4-4.1 68-7.1-11 18.9-24.4 36.4-36.3 54.7-5.1 7.6-8.8 18.2-16 22-12.2 6.2-24.5 5.8-38.2 1.3-47.5-20.7-104 50.3-66.2 51 89.5 8.7 63-38.7 98.8-40.2-5.3 13-14.1 24.6-19.8 37.6-7.2 15.1-11.8 31.8-20.7 45.8-6.3 9.9-18.8 15-27.5 23.9-18.4 18.9-25.2 61.2-11.3 84.6 3 5 11.3 8 14.9 2.9 8.6-12.3 22.1-20 28.6-34.2 7.5-16.4 12.9-32.6 8.2-50.7-1.5-5.7-5.5-12.3-4-17.1 10.8-31.6 25.3-63.1 43.7-90.8 6.5 33.8 0 68.7-.6 102.8-2.9 79.8-8.4 159.5-5.6 239.4-8.7-4.2-18.2-8.3-21.5-16.8-7.6-19.9-31.8-63.1-57.1-55.9-29 17.2 3.9 57.6 25.3 65.7 12.4 4.2 27.7-4 38 9.5 4 5.3 14.2 5.8 15.1 13.5 3.7 35.9 2.6 72.3 1.5 108.3-16.9-19.7-26.8-10.5-35.5-38.3-6.8-24.3-45.2-78.9-67.8-41-3.9 22.8 13 43 28.3 53.8 16.3 11.5 38.2 9.9 53.6 22.3 9.7 7.8 23.9 12.4 22.6 30.6-3.5 24 2.3 48.7-1.1 72.6-1.4-1-3.4-1.6-4.2-2.9-3.2-5.2-8.8-7.1-13.4-10.5-3.1-2.3-8.6-3.6-9.4-6.4-3.6-21.9-43.1-84.3-68-66-21.3 38 32.2 68.8 62.5 78.1 11.7 3.8 19.1 12.4 29.2 17.6 1.6.8 3.5 3.1 3.5 4.7-.3 13.8-1.4 27.6-1.6 41.4-.3 19.4-.1 38.8-.1 60-5-3.6-7.8-5.1-9.9-7.2-10.7-10.6-26.5-15-35.4-27.8-11.5-15-37.3-52.2-58.7-43.3-33 26.6 27.8 69.8 54.9 64.4 3.8-.6 8.3-3.9 13.4 1.2 6.3 6.3 14.8 10.5 22.6 15.1 18.5 8.5 9.1 18.8 3.2 33.5-9.3 22.8-28.7 86.5 4.3 96.3 45.9 5.6 38.5-79.9 20.8-103.4-6.7-9.4-3.4-19-6.2-28.3 0-8.3 10.1-5.7 14.6-9.1 8.4-2.9 21.6-12.9 28-10.5 25.2 12.1 49.9 7.2 74.8 1.4 15-3.6 24.1-25.4 9.2-35-46.1-26.5-80.4 28-123.1 36.9-2.8-9.3-1.9-18.3-.4-27.6 1.7-11.5-3.7-57.2 4-61.6 12.8-6.9 26.4-12.2 38.8-20 2-1.2 5.3-2.5 6.9-1.6 7.5 3.8 16 5.4 24.4 4.6 17.5-1 66.2-6.4 64-30.8-6.7-32.4-58.3-17.7-73.5-1.1-16.5 16.4-36.8 23.8-56.5 33.5-4.3 2.1-6.2 1.8-6.1-4.1.1-19.1-2.4-38.4 0-57.2 1.2-9.7-8.7-24.6 8.2-29.8 15-4.6 26.6-17.5 45.7-12.8 20 5.4 82.3 2.6 80-27.5-8.7-34.3-69.8-15-84.5 6.3-3.4 4.3-5.7 10.2-11.2 11.1-11.2 1.8-20.9 7.5-31.5 10.8-2.1.6-5.7 4.1-6.1 1.5-1.4-8.5-1.8-17.2-1.2-25.8 1.6-18.5 1.2-37.1-1.1-55.6-2.7-19.4 2.4-34.8 19.8-37 16.4-3.4 28.4-18.2 49.3-12 27.6 8.2 57 9.6 84.3-5.2 7.6-4 12.2-12 11.8-20.6-1.2-21.8-32.6-24.5-49.9-21.6-13.8 1.9-26 6.8-37.7 13.8-9.1 5.5-13.2 17.4-22.1 21.5-17.3 7.9-36 12.7-54.1 18.7-.3.1-1.3-1-1.4-1.6-3.5-15.4-.4-31-1.7-46.3-.8-10.1 5.2-19.8.1-30-2.5-6.9 9-8.5 13.6-10.9 14-5.3 26-16.1 42.2-14.9 20.7 5.9 91.3-6.6 88.4-35-9.5-30.3-59.4-12.2-76.7 2.2-8.5 6.2-12.6 17.4-21.1 22.1-13.9 7.7-29.6 12.1-42.2 17.1V325.2c4.4 5.3 4.9 10.9 6 16.3 3.6 16.7 12.9 30.8 24.3 43.6 6.7 7.5 16.1 8.7 24.7 11.9s17.2.1 25-2.7c4.6-1 1.2-18.1-.4-22.1-6.1-20.1-20.8-32.4-38.8-41.2-15.7-7.3-39.6-4.4-39.2-29.1 3.4-14.1-2.3-20.4-4.3-32.2-1.8-29.9 60.8-97.2 80.5-128-1.3 11.8 3.5 22.5-1.9 29.6-12 16.1-15.1 34.7-18.4 53.4-3.6 20.5 8 35.9 18.3 51.5 2.2 3.3 7.1 9.6 12.5 4.5 17.2-20 26.3-48.7 19-74.6-3.8-12.9-4.1-28.4-19.6-35.2-.6-.2-1.3-1.4-1.1-1.9 1.9-6 .4-12.1.7-18.1.3-5.8-4.8-12.1-.5-17.4 11.5-13.6 23.5-26.7 35.7-39.7 16.3-17.4 32.9-34.5 49.6-51.5.2-.2 2.3-5.8 5.8-.4 15.3 22.8 31.5 45.3 47 68.1 2 3.2 7.4 7 4.8 11.4-4 6.7-8.8 12.8-14.3 18.3-4.5 4.5-6.2 11.4-13.7 13.6-19 5.6-35.8 14.5-47 32.2-7.9 12.5-9.6 26.9-14.8 40.2-4.6 11.9 2 18.8 13.8 17.6 14.6-1.4 25.5-9.8 36.9-18 13-9.4 26.2-37.6 23.2-52.8-.8-3.7-2.9-8.7-1.3-11 7.5-10.5 16-20.2 24.2-30.4 19.2 37.2 36.4 74.8 46.6 115.6 1.8 5.8 5 16.4 3.5 17.3-11.8 6.3-25 15.7-38.7 15.8-37.4-2.2-73.5 11.3-86.1 48.8-10 25.1 41.4 12.2 52.4 5.3 16.5-8.3 29.9-19 38.1-35.5 1.9-3.8 1.3-9 6.1-11.1 9.1-4 18.3-8 27.4-11.9 1.8-.8 2.7-1.6 3.8 1.7 7.5 24.6 9.7 50.3 15.7 75.2 1.8 7.4-.1 12.9-8 14.6-4.8 1-8.5 3.9-12.9 5.5-7.4 2.8-12.8 12.2-21 10-38.2-9.2-91.6 34.5-77.2 74.4 2.5 4.7 10 3.5 16.1 2.6 27.3-3.9 42.4-23.3 57-43.3 5.5-7.5 5.3-18.7 13.3-24.4 9-6.5 19-11.5 28.6-17.3 5.4-3.2 7.3-2.4 7.7 3.7 1.5 26.5 2 53.1 4.8 79.5 1.7 15.6-3.5 24.3-17.6 29.6-6 2.3-13.2 10.5-16.6 9-30.8-9.9-71.9 24.2-77.3 54.4-7.3 26.5 28 19.5 41.7 10.6 16.8-8 26.8-22.8 35.2-38 4.9-8.8 5.5-19 16.3-25.1 15.2-8.5 17.5-9.9 17.4-1.8 7.5 62.3-28.1 50.5-35.8 107.7-3 19.7 1.5 36.9 9.4 54.4 2.5 5.6 8.6 9.2 8.8 14.9.6 38.4 3 78.1 2.6 115.4-13.2-7.1-24.8-17.3-37.2-25.7-6.4-4.7-15-8.4-18.3-14.8-11.7-22.4-39.5-62.6-68.4-51.7-30.1 21.4 14.8 56.3 38.9 59 29.9-.3 40.2 16.5 64 30 15.3 8.5 25.3 19.4 23.3 39.7-1.7 17.6-2.4 35.8 1.3 53.6.3 1.7-1.4 3.9-2.2 5.8-6.7-2.6-12.1-7.4-17.8-11.6-11.7-9.3-25.9-15.3-36-26.7-13.4-18.4-58.2-61-72.8-24.6-2.9 11.6 6 18.7 12.2 25.1 12.1 12.9 28.9 20.2 46.5 20.3 7.2.1 15.9-3.2 21.5-.3 15.8 8.1 30.3 18.7 45.4 28.1 6.1 8.5 1.4 20 1.7 29.4-.4 27.1 2.2 54.4 1.2 81.4-9.7-6.1-18-14.3-27.1-21.2-7.1-5.7-16.2-9.9-21.1-17.1-15.6-21.3-39.3-60.2-70.1-45.9-7.3 4.6-8.3 14.7-4.8 22.5 10 22.6 30.2 31.6 52.6 37.2 29.8 1.9 37.1 11.4 60 27.8 7 4.6 12.5 9.6 12.2 18.6-1.8 31.3-.6 63.2-4.2 94.2-12.3-9.2-24.1-19.2-37.4-27-5.4-3.5-12.5-7.1-14.6-12.4-8.4-24.2-44.6-58.8-71-55.5-7.4 1.6-12.9 8-13.5 15.6-4.9 34.1 43.6 55 72.4 55.2 4.1 0 8.4-3 13.1.1 11.4 7.6 23.3 14.3 34.9 21.5 10 6.2 17.4 11.8 16 27-1.7 18.6-4.7 37.5-2.1 56.4.5 3.7-1.8 7.8-2.9 11.7-7.9-2.9-15.1-9.2-22.6-13.3-35.9-17.1-56.9-52.8-96.4-63.1-19-6.8-37.2 8.8-24.1 27.7 14.2 23.9 58.5 39.4 84.9 31.1 5.5-1.9 9-.9 13.5 2.2 9.6 6.6 20.4 11.6 29.7 18.5 6 4.4 21.2 4.7 10 19.9-15.6 19.5-35.1 96.1-4.3 107 7.7 2.2 15.7-2.5 21.4-8.7 18.4-19.9 9.7-43.5 9.5-66.2-.1-14.7-13.8-25.5-9.3-40.7 1.7-5.6-6.7-15 7.2-16.2 7-.6 13.8-7.1 20.6-6.9 28.9 3.1 60.4 17.2 87.8-.4 8.4-5.7 15.3-13.6 12.1-24.7-10.2-29.2-51.8-18.1-71.5-5.7-15.9 9.8-29.3 23.8-48.7 27.1-2.2.4-6.8 4.9-6.6-2.1.9-21.7 2-43.5 3.2-65.2.2-3.3-.9-8.7 3.6-9.2 9.2-.9 16.9-6.2 24.8-10.4 9.5-5.1 18.1.6 27.2 1.5 20.4 1.9 41.4 4.1 60.7-7.3 19.5-8.2 15.8-34-3.3-37.7-17.3-2.7-34.1 1.7-49.6 10.8-9.5 5.6-16.2 15.4-25.4 19.8s-19.3 7.2-28.5 12.2c-4 2.1-7.3 1.9-7.9-4.7-1.8-19.2 4.9-38.2.7-57.4-.5-2.4-.5-8.9 5.6-9.9 11.1-1.8 19.3-9.9 29.5-13.7 5.5-2 11.2-6.6 16.3-8.3 14.3-.5 28.3 4.4 42.8 3.2 72.6 2.4 65.6-69.1 11.3-51.1zM577 920.6c48.4-46.9 90-21.6 54.9-5.3-17.1 6.9-35.5 11.9-54.2 7.6-1.7-.3-1.9-1.2-.7-2.3zm.9-95.5c34.4-47.8 103.7-22.5 63.4-6.3-6.2 4.9-64.7 16.1-63.4 6.3zM640.2 695c17.4-.7 10.8 17.6-.2 21-20.8 11.2-42.5 18.4-66.9 14.3 18.9-20.5 39.6-34.3 67.1-35.3zm16.6-154.5c-23-25.9-39.7-43.2-67.3-60.9 23.1-3.8 43.5 14.1 67.3 60.9zM581.4 487c25.7 16.4 47.7 36.3 68.1 59.3-29.2 4-70.2-31.8-68.1-59.3zm25-185.4l-47.8-44c23.1 8.3 36.9 22.1 47.8 44zm-50.5-30.7c18 15 36.8 29.3 50.9 48-19.2 7.3-51.7-28.9-50.9-48zm-70.2-162.3l65.7 19.9c-25.8 5.5-46.4-4.7-65.7-19.9zm69.3 10.5l-74.4-23.6c30.7-4.5 63 5.5 74.4 23.6zM254.9 79.5c-31.3-3.8-60.2-9.3-90.2-4.5 22.2-18.2 70-10.1 90.2 4.5zm-92.4 3c31.1.3 63.1 2.9 94.7 9.2-18.8 13-57.2 9.1-94.7-9.2zm-43.1 113.1c-5.9-1.9-13.8-1.4-18.2-5.9.8-.5 1.7-1.4 2.5-1.4 22.5-1.3 44.7-4.8 67.3-4.7-15.9 13.3-33.2 15.4-51.6 12zM105.1 177c-8.4-1-4.7 3-9.6 2.2 3.7-11.4 35.3-17 46.1-13.6 8.1 2.8 16.7 4.1 29.8 7.2-25.3 1.5-45.8 2.8-66.3 4.2zm57.3 85.4c-24.3 5.7-45.3 15.8-67.5 24.8 11.8-17.1 38.8-34.7 67.5-24.8zm-62.9 31.8c22.8-4.6 42.5-17.4 65.9-21.5-18.4 25.1-43.3 24.3-65.9 21.5zm23.4 147.6c-.3 1.3-.8 2.5-1.2 3.8-13.7-23.2-.2-59.5 21.6-76.9-8.4 24.6-14 48.2-20.4 73.1zm35.5-56.9c-4.4 19.5-7.3 40.1-26.1 54.7 8.6-19.1 10.3-38.9 18.8-56.7 0-3.8.4-9.8 3.6-9.2 4.5.8 4.2 8.7 3.7 11.2zm7.9 211.7c-17.2.9-32.6-10.5-41.5-24.2-4.8-6.8-10.7-32.4 6.6-26.2 8.8 4.3 16.6 15.2 25.1 25.7 5.6 6.9 7.1 15 10.1 22.7.2.6 0 1.4-.3 2zm-44.5 96c-9.4-9.3-17.6-20.3-14.6-34.7 2.4-11.5 11.8-8.1 17.2-4.1 19.6 14.3 30.6 35.6 35.7 59.3-14.5-4.9-27.9-10.4-38.3-20.5zm35.1 119.7c-21.4-11-50.3-27.8-47.6-55.5.3-2.8 2.5-4.7 6.1-3.8 23.6 9.1 40.5 36 47.8 59.5-2.1 0-4.5.6-6.3-.2zM147.6 927c-15.3 1.6-64.3-26.3-48-47.8 2.7-3.2 5-1.5 7.4.1 18 11.5 30.9 28 43.3 44.8 2.3 3.2-1 2.7-2.7 2.9zm65.4 82.8c3.8 15.9 6.6 58.1-16.7 58.8-10.8-3.3-8.9-14.4-9.3-24.5 2.4-19.1 3.9-44.8 16.5-62.8 6 2.7 7.2 21.9 9.5 28.5zm46-90.9c13.6-14.3 62.5-33.3 72.2-8-2 9.6-10.4 12.9-17.4 13.5-18 1.7-36.2 6.7-54.2-1.3-4-1.7-3.2-2.2-.6-4.2zm20.3-116.3c13.9-9.5 49.2-27.3 59.2-5.6 2 6.4-5.6 7.6-9.7 9.7-6.1 6-87.8 20.9-49.5-4.1zm44.4-113.4c6 .8 11.9 4.2 11.7 10.5-2.6 18.2-55.8 16.1-71 14.8 16.4-18.1 35.1-28.4 59.3-25.3zm-40.8-108.7c9.2-20.4 55.4-27.5 73.9-19.2 12.4 4.3 9.3 18.1-2.2 22-11.5 5.8-24.2 8.5-37.1 7.7-8-.3-42.8.7-34.6-10.5zm-13.3-94.3c16.5-17.5 39.5-30.8 63.9-26.4 3.7 1.7 9.8 3.2 9 7.6-7.7 17.3-56.5 23.5-74.2 22.9.4-1.4.4-3.2 1.3-4.1zm15.1-107l-47.4-43.8c19.2 1.1 48.2 28.4 47.4 43.8zm-28.9-12.8c8.1 8.9 17.5 16.4 27.7 24-22 2.6-54.6-27.6-53.9-50.3 6.9 11.5 18 17.4 26.2 26.3zm35.7-102.3c-18.4-24.7-10.1-50.7 0-76.8v76.8zm10.9-80.4c11.2 23.8 15.7 49.2 0 77.7v-77.7zm57.4 49.3c11.2-26.4 17.4-58.2 46.7-65.5-11.6 22-30.7 41.8-46.7 65.5zm56.9-46.7c-7.6 20.1-20.9 38.9-42.4 45.3 15.4-18.8 25.9-39.1 43-54.5-.2 3 .4 6.4-.6 9.2zm21.7 104.4c-1.3 6.7-8.3 5.3-12.3 8.3-12.4 9.2-25.4 17.6-40.4 27.9 13-22.4 29.4-34.6 52.7-36.2zm-47.2 43.7c20.2-16.2 42.6-29.4 66.5-39.4-17.2 23.5-38.7 37.4-66.5 39.4zm30.3 114.3c-1.2.4-2.9-.5-4.4-.9.5-1.3.7-3 1.7-3.8 15.7-12.8 31.5-25.5 49.8-40.3-13.2 20.9-25.3 38.2-47.1 45zm13.2-31.3c-11.8 9.1-20.9 21.8-31.2 33 3.1-38.1 40.5-60.5 67.7-60.5-14.9 6.9-24.7 18.5-36.5 27.5zm-7 124.4c11.9-20.6 29.7-33.4 55.7-39.4-23.4 17-42.3 31.7-60 51.6 1.4-4.1 2.1-8.5 4.3-12.2zm1.3 17.7c18.3-15.9 36-31.1 55.9-44.8-12 23.4-26.5 42.5-55.9 44.8zM440.9 749c-19.6-4.8-54-12.2-51.5-38.4.8-4 4.8-6.6 8.8-5.8.2 0 .4.1.6.1 21.8 5.8 37.5 25.3 45.9 45.3-1.2-.4-2.5-.9-3.8-1.2zm10.3 109.8c-22-2.3-40.8-9.7-52.8-29.6-1.7-2.8-2.3-6.4-.6-7.6 15.5-13 49.8 22.9 56.9 36.5l-3.5.7zm5.3 115.2c-2.8 3.8-7.3-.6-10.6-1.5-16.7-3.9-56.9-23.3-41.1-44.6 11.5 2.6 19.4 3.8 25 10.9 7.2 9.1 14.8 17.9 22.1 26.9 1.9 2.6 6.5 5.7 4.6 8.3zm-13.8 115.4c-18.7-2.4-68.7-23.9-52.9-50.2 4.6-5 8.5.2 13 1.6 19.4 6.8 43.1 28.5 49.3 47.5l-9.4 1.1zm-1.4 101.5c-25-1.3-62-9-70.4-36-1.2-8.3 6.3-8.7 11.4-7.5 26.2 6.3 47.1 22.8 64.3 42.9-1.8.3-3.5.5-5.3.6zm77.4 84.6c-1.4 15 5.5 30.8-3.6 45.2-3.6 5.7-7.1 13.7-14.8 11.8-19-6.5-.6-75.5 9.7-88.3 6.5 9.4 9.8 20.1 8.7 31.3zm-6.5-619c-19.1-34.4-10.8-71.1 11.2-99.1l-11.2 99.1zm17-51.2c3.2-17.5 3.1-35.7 7-53 12 19 10.6 44 9.6 66.2-1.8 20.2-15 31.8-27.4 46.8 3.9-21.1 7.8-40.4 10.8-60zm75.4 568.7c46.2-10.4 47.9 45.9-45.1 23.5 13.4-13.3 28.7-20.2 45.1-23.5zm-27.9-72c10.5-11.4 58.1-33.9 63.5-10.7-1.5 16.8-52.2 17.5-64.9 13 .4-.8.9-1.6 1.4-2.3zm72.4-95.3c-18.7 6.4-38.7 7.8-58.1 3.9 13.7-20.2 33.3-28.3 56.4-29.6 6.6-.4 12 1.1 13.7 9.3 2.1 10.3-5.5 14.1-12 16.4z"/></g><g><path d="M52 1548v15l-37 37h946l-37-37v-15H52M52 52V37.7L14.3 0H0v1600h15l37-37V52m872 0V37.7L961.7 0H14.3L52 37.7V52h872m52-52h-14.3L924 37.7V1563l37 37h15V0z"/><path d="M961 1600h15V0h-14.3L924 37.7V1563l37 37H0V0H961.7M52 52V37.7L14.3 0m.7 1600l37-37V52h872m0 1496H52" fill="none" stroke="#333" stroke-width="2" stroke-linecap="square" stroke-miterlimit="3"/></g></svg>