<svg xmlns="http://www.w3.org/2000/svg" xmlns:xlink="http://www.w3.org/1999/xlink" viewBox="0 0 976 1600"><path d="M960 22v1556c0 3.3-2.7 6-6 6H22c-3.3 0-6-2.7-6-6V22c0-3.3 2.7-6 6-6h932c3.3 0 6 2.7 6 6z" fill="#fff"/><defs><path id="a" d="M960 22v1556c0 3.3-2.7 6-6 6H22c-3.3 0-6-2.7-6-6V22c0-3.3 2.7-6 6-6h932c3.3 0 6 2.7 6 6z"/></defs><clipPath id="b"><use xlink:href="#a" overflow="visible"/></clipPath><g clip-path="url(#b)"><path d="M434.5 1288.9c-65.2-10.4-131.6-15-197-21.8-31.8.5-44.6 2.2-20.1-30.8 60.6-96.5 120.2-195.5 161.2-301.7 45.1-136.4 76.8-281.5 91.1-424.1C473 452 481 393.4 479 334.9c.9-19.3 17.9-7.2 28.9-10.5 274 11.5 229.5-79.9 212.9 145.8-19.7 254-104.7 638.8-283.2 821.8l-3.1-3.1z" fill="#5d4e8c"/><path d="M277.3 1505.5c-8.3-2.5-2.1-17-1.4-23.5 5.7-29.5 24.4-52.9 37.3-79-7.4-15.8-58.8-8.3-57.2-19.7 27.7-45.9 75.7-90 129.8-96.3 16.8-3.5 49.7 15.8 62.6 1 17.2-22.6 31.3-53.2 52.6-69.7 15.7 8.7 45.5 7 52.7-11.6 8.4-16.9 11 30.2 35 27.1 11.7 3.7-6 35.8 7.5 42 2.4 32.7 23.4 41.1 48.3 43.9 6.8 71.7-47.6 131.7-100.2 174.6-19 28.7-28-14-32.1-29.5-1.4-5.1-7.6-5.4-10.9-2.1-23.7 14-48.6 11.3-73.7 12.4-46.1 1.9-105.9 10.1-150.3 30.4zm567.3-10.5c-36.6 4.1-60.4-21.9-79.5-43.2-60.1 32.6-70.9 11.2-80.7-49.6.5-31.1-11.7-89.8 26.7-97.1 16.3-9.3 24-26.5 33.6-42.2 9.5-12.2 24.2-16.9 27.6-33.2 2.2-5.7 8-10.3 3.3-16.4-8.1-22.6 46.4 21.7 56-18.2 6.4-36 121.2 34.4 119.3 58.9-5 12.1-18.8 20-28.2 28.5-12.3 6.1 21.3 35.8 12 66.7-2.7 43.6-20 93.1-15 140.7-4.7 2.8-10.7 1.8-16.2.7-19.7-4.6-38 6.7-58.9 4.4zM232.9 895.1c-41.2.9-84-8.3-124.5-2.4-13.3-3.4 3.2-17.1 5.7-23.8 45.4-62.9 34.3-32.3-20.8-63.3-29.5-19.8-69.1-36.5-83.1-67.8 13.5-6.2 31.3-6.2 45.9-14.4 37.6-13.7 70.7-38.4 111.2-44 16.2-8.8-15.9-38.3-23.1-48.9-6.6-7.8-3.1-10.8 4.6-12.6 68.9-34.2 155.9-20.1 219.4 21.1 86.3 54.2 67.3 70.8 46.1 153.4-3.9 91.6-109.8 104-181.4 102.7zm485.1-9.2c-12.1-12.9-11.8-26-33.7-26.6-40.3.2-20.3-31.3-15-55.3.9-4.7 7.9-4.2 9.3-8.5-4.3-14.6 4.6-27.5 11.4-39.7-17.9-73.4 48.5-99.6 110.9-104.5 27.9-4.5 56.3-5.9 83.9-12.2 6.4-.2 20.1-14.6 22.3-3.4-11.8 127.4-99.5 124.5-37.8 160.6 60.3 29.1-67.8 86.5-93.8 87.3-5.4 2.3-11.6-3.8-13.4-7.2-13.2-16.5-34.1 2.1-44.1 9.5zM444.5 638.8c-12.1-15.2-2.7-46.3-14.1-63.5-4.1-1.8-9.2 1-11-5-39.8-120.5-190.2-43.9-132-97 13.6-15 43.7-26.5 65.6-28.9 16.2-3.4 30 15.5 43.9 14.6 1.9-30.2-24.6-64.2-36-93.5-1.3-8.8-10.9-5.1-17.1-6.7-9.5-.2-46.7-13.7-33.7-27.3 20.2-.1 40.8.7 54.4-13.7 22.5-10.8.5-28.3 25.9-31.5 12-16.9 22.1 5.9 16.7 19.2-1.2 5.4-9.1 9.2-5 15 4.8 8.8-14.6 16.9-4.7 24.4 25.6 55.7 73.8 138.6 64.3 205.1-3.2 24.6-7.4 50-11.1 73.9-1.4 0 .1 15.9-6.1 14.9zm271.1-60.3c-8.1-5.3 1.3-38.2 5.3-48 .7-8.8-4.2-18.6 0-28.2-.3-21.5 16.8-29.3 27.2-43.3 37.3-59.3 104-51.5 146-8.3-10.7 10-33.1 7-47.1 12.3-55.4 18.7-93.3 76.7-131.4 115.5zM152.7 394.6c-15.9-3.8-16.1-2.6-9.5-18.8 9.4-39.8 42.1-77.1 85.9-76.6 11.1-.4 8.4 17 17.6 18.4 7.8 1.3 25.9 6 27 14.6-21.1 15-56.5 10.4-79.2 26.9-16.5 7.7-26.3 27.1-41.8 35.5zm274.5-137.1c-13.7-2.8-2.5-20.9-5.4-28.8-1.4-5.9-3.9-27.8 7.6-22.8 39.2 4.6 112.1.1 130.3 39.8 9.6 2.9 2.3 10.9-5 8.9-42.6-10.5-84.5-2-127.5 2.9zM200 242.3c-13.6-5-24.4-21.8-39.3-25.6-21.7-9.9-53.5 10-72-2.3 14-23.9 46.5-41.9 77.1-44.8 19 3.2 49.2 5.3 41 30.8-3.8 9.9 11.2 35.8-6.8 41.9zm211.6-54.4c-9.3.1-10.7-10.1-17.9-11.9-42-14.7 26.8-36 40.4-46.4 28.5-12.8 56.1 11.2 81.2 21.6 5.2 4.1-2.6 10.5 1.5 16.3-43.7 11.7-51.3-20.2-105.2 20.4z" fill="#333"/><path d="M633.6 1316.4c-54.1-6.5-24.7-65.8-39.6-83.4-24.4 3.5-27-36-39.8-24.5-6.5 16.3-66.6 22.9-48-4.4 26.4-45.1 53.1-87 73.4-135.3 20.1-42.1 36.7-85.9 51.5-128.6 3.2-19.7 13.3-41.6 18.5-60.3-.9-11.6 5.4-31.5 20.4-21.6 14.4 5.4 30.9.5 39.6 19.1 2.3 3.9 2.5 10.7 8.3 10.6 10.1-5.3 16.1-19 28.5-17 16.1-.7 22.2 19.3 39.3 19.8 13.3 2.6 21.7 12.8 22.9 27.9 4 12.7 19.6 26.5 18.5 40-10.2 32.3 12.3 11.4 26.1 25.7 11.5 16.9-1.7 38.4 19.7 57.6 6.8 12.2 5.3 25.2-4.1 34.9-12.7 14.9-5.5 43.1-27.6 50.1-3.1 1.3-4.5 4.8-3.3 7.8.4.9.9 1.7 1.7 2.3 10.2 8.5 9.6 26.5-1.5 34.5-5 8.4-3 19.4-9.3 27.7-19.4 33.2-57.8-12-59.4 10.1 11.9 37.3-24.3 39.3-33.5 66.3-21.9 48.3-64.9 26.6-102.3 40.7zM311.9 329.9c-30.3.1-70.7-5.6-79-36.6-29.5-.2-44.3-37.4-23.7-59.6 6.3-8 .7-20.5-.5-30.4-7.9-18.9 42.6-62.2 57.9-59.9 26.6-7.8 36.2 37 47.7 24.2 10.4-17.3 22.2-21 39.4-21.6 22.9 5.4 24.2 29.6 45.6 37.9 27.9 20.3 16.2 31.6 18.7 55.3 6 22.9-13.9 42.5-33.1 47.9-3.7-.6-7.8 1-8.3 5.1-3.6 29.7-37.8 39.2-64.7 37.7z" fill="#d81e1e"/><path d="M961.2 1528.4c-.1 11.6-8.6 14.1-16.6 14.1-6.5 0-6-7.5-6.5-12.4-2.8-17.2 24.3-19.2 23.1-1.7zM942.7 110.9c-18.8-1.8-17.5 28.7.8 26 5.8-.6 11.5-2.9 10.4-7-1.6-10.8-.3-19-11.2-19zm-19.4 1355.3c-2 10.6 10.5 39.5-10.6 30.8-15.5-6.1-30.2 1.6-45.2 3.2-36.5 4.7-79.8-.9-97.3-38.1-5.6-12-13 .3-19.2 2.1-14.9 4.3-30.3 13.2-45 6.2-27.6-19.1-30.6-77.4-28.8-108.5.8-15.5 2.5-30.9 9-45.7 2.4-5.5-5.8-1.6-8-1.7-8.4-.3-16.8 1.6-25.3 2.6-1.9.2-2.1 1.2-1.9 2.7 2.7 21-.2 42.3-8.5 61.8-20.8 54.2-65.1 93.7-108.3 130.6-9.2 8.8-10.7-5.1-12.6-8.3-6.7-11.4-13.3-23.3-14.8-36.9-.2-1.5-.4-2.3-2-1.2-25 17.6-53.9 13.4-82 15.8-47.9 4.7-99.6 9-143.5 30.2-24.7 17.9-6-45.2-2.3-53.3 4.7-13.5 11.2-26.2 19.5-37.9 7.9-9.8 17.8-19.5-1.5-21.2-12.6-2.8-25.7-3.7-38.3-6.6-26.7-10 40.4-72 53.8-77.7 15-8.6 28.2-20.6 44.3-27-14.1-4.9-28.6-2.4-42.7-4.7-21.1-3.5-42.4-7.1-63.6-7.3-13-.1-25.4-4.1-38.2-2.7-15.6-.2-19.9-11.5-11.1-23.1 72.8-122.8 153.2-246.4 191.1-384.9-69 44.4-154.6 38.5-233.1 34.8-18-.5-36-3.5-53.9.8-12 2.7-13.1-4-7.4-12.6 44.5-89.5 67.2-37.5-13.8-81.6-13.3-8.2-25.9-18-38.9-26.3-14.9-9.5-25.8-21.9-36.5-35-9-10.9-4.8-16.5 8.6-16.5 54.3-6.9 98.7-53.3 153.9-53.5-10.1-16.6-19.7-32.2-31.4-46.4-13.5-19.5 42.6-29 55.4-33.3 89.7-17.8 181.3 23.2 240.4 90.1 13.9-52.7-12-108.1-40.4-151.7-25.8-31.4-84.3-34.6-122.1-33.2-9.4-.5-37.1-2.2-20.9-15.5 18.6-14.9 39.5-26.6 61.9-34.5 28.1-14.5 55.8-18.6 80.7 4.9-8.6-31.4-22.4-62.1-38.3-90.5-1.3-2.1-8-.8-12.2-1.2-13.9-1.5-26-6.8-35.3-17.5-10.4-12-20.9-12.5-36.4-6.5-15.3 5.9-31.8 8.8-47.8 13.1-37.8 7.9-59.5 41.5-84.5 67.8-4 4.5-8.7 2.9-12.7 1.7-3.7-1.1-1.1-5-.5-7.4 9.1-33.3 21.6-66.4 41.4-95 13.5-15.6 32.9-18.7 51.3-24.2-13.6-12.3-27.7-24.3-23.2-45.5 2.2-11.1-11.2-11.6-17.1-17.3-19.1-18.6-42.5-9.9-64.7-8.4-11.6.8-23.3 1.5-34.9 2.3-4.5.3-9.1-.8-13.6 1.6-10.5 4.4-5.3-8.4.3-11.9 38.5-30.3 90.4-72.3 139.8-39.9 14.6-.2 35.4-34.6 55.6-39.8 11.9-4.5 37.8 6.4 43.3 18.1 1.5 3.2 4.5 5.7 6.7 8.5 10.2-19.7 45.7-31.7 56.9-18.2 16.3 19.7 24.9.7 35.5-3.6 20.8-10.9 42.8-29.3 67.9-18.5 16.4 6.5 77.4 34.3 80.6 50.2-12.3 9.4-54.5 1.7-69.9-1.2-25-5.7-43.9 4.4-62.9 16.9-.6.4-.9 2.7-.5 3 3.9 2.7 1.4 10.8 8 10.5 49.8-.7 103.1 6.7 145.4 34.2 7.3 4.7 14 10.6 21 15.8 7.7 5.4 1.2 12.4-6.5 11.1-26.6-.6-51.7-12.6-78.5-10.7-27.3 2-54.8 4.2-81.7 8.8-27.7 9.8 1.8 40.2-22.3 73.1-6.5 9.8 3.9 15 7.2 21.4 21 45.1 43.9 88.3 51.4 138.2 4.7-9.9 2.5-18.6 3.5-26.9 2.1-16.4.8-33.2 2.6-49.5 2.5-21.8 4.3-43.7 5.4-65.5.6-8.9.5-17.9-.2-26.8-1-10.8 8.1-4.3 9.7-4.4 74.1-4 148.5-6.4 222.3-11.2 9.3-2.7 18.7-.1 27.9-1.4 4.5-.6 4.5 2.8 4.4 6-.8 53.6-3.6 106.9-9.5 160.2 23.8-22.8 40.2-59.1 75.3-64.1 36.8-5.2 67.1 12.5 97.7 29.8 4.3 1.9 7.3 4.8 6.5 9.7-.7 4.3-5.5 2.9-8.2 4.4-19.3 10-41.6 8.5-61.7 15.9-30 15.2-52.4 41-76.2 64.2-11.6 14.6-45.8 44.1-45.9 61.1-1.1 22.6-6.3 44.7-9.7 66.9-.6 4.1-1.9 9.9.1 12.1 3.6 3.9 6.9-2 9.8-3.8 40.4-26.7 91.2-26.4 137.7-32.7 20-2.2 40.1-5.4 57.3-18.8 4.2-3.3 5.3 5.2 4.6 8.8-9.5 64.5-22.4 97.7-65.5 147.5 25.4 9.9 60.1 41.3 25.7 64.4-26 21.2-51.9 41.3-86 47.2 16 3.2 20.8 13.6 22.8 25.5s13.1 17.9 16.6 29 7.3 21.2-.6 31.9c20.2-5.1 38.2 4.5 36.2 23.7-2.2 20.6 10.6 33.1 16.8 49.1 9.3 22.2-15.5 34-15.6 54.5-.6 14.5-10.3 27.8-23.8 32.6 12.7 7.1 12.7 16.9.5 43.7 42.7 10.1 85.4 29.4 111.1 66.7 6.1 8.4-.7 23.9-10.6 29.1-6.5 3.5-11.6 9.6-17.1 14.8-.7.6-.2 3.4.6 4.5 11.4 15.8 17.3 33.4 15 52.9-5.2 39.9-13.1 79.9-17.8 120.2zM425 226.4c43-2 85.9-5.7 127.1 11.3-10.5-9-21.8-14.4-32.6-15.9-29.7-6.1-58.9-12.9-89.5-10.9-1.6 0-4-3.3-4.4-1.2-1.1 5.4-.7 11.1-.6 16.7zm0 24c.6 2.4.1 3.6 3.6 3 20.3-2.9 40.9-4.1 61.2-7.2 13.5-2 27-2.7 40.2.2 9.5 2.1 18.7 5.4 30.3 4-36.1-18.1-75.9-19.9-115.4-15.8-10.9 1.4-24.7-4.3-19.9 15.8zm398.4 885.2c-16.4 3.7-30.9-16.8-36.2 3.5-6.5 40.1-35.3 38.8-18 52 16.1 13.3 40.7 27.4 56.5 5.9 5.8-7.9 3.8-18.9 9.2-27.5 3-4.7 9.6-7.7 8.1-14.4 0-12.6-7.8-19-19.6-19.5zm-292.1 33.3c-6.8 11.2-13.5 22.6-19.2 34.4-1.8 3.7-8.6 6.2-5.8 10.1 7.8 10.9 38.1 4 45-7.8 9.4-16.4 2.5-36.4 13.7-52.3-6.3 6.1-13.6 9.7-21 13.2-4.2 2-9.9-2.3-12.7 2.4zm38.9-69.5c-11 20.1-21.7 39.7-32.3 59.3 26.9-3.9 37.9-40.2 32.3-59.3zm-70.4 123.2c-4.9 5-10 10.9-13.3 16.9-9.2 17.1-23 30.5-34.1 48.9 4.3-4.5 8-2.1 11-2.7 53.9-13 63.8 39.7 93.8 18 17.8-16.6 36.2-39.8 31.1-66-18.3-2.3-26.5-14.1-30.5-30.9-.6 13.2-31 24.5-41.9 21.1-5.6-2.2-14.5-7-16.1-5.3zm100.5 6.5c9.3-.4 18.9-1.7 27.9 2.2 26.9 10.4 37.5-29 64.6-26.3 10.8.5 12.7-8.1 13.6-15.1 1-7.2-4.5-13.2-10.7-16.6-11.9-6.7-23.8-13.3-32.5-24.3-1-1-2.2-1.8-3.5-2.4-7.5 10.4-21.7 13.2-27.9 25.3-5.6 11.1-20.5 13.8-31.3 7.6-12.3-6.8-16.6-19.1-23.1-30.3-14.7 26.4-20.9 82.3 22.9 79.9zm130.6-155.6c2.3-7.2-.8-15.6-5-20.4-16.2-18.6-15.7-41.3-19.2-63.3-1.1-6.7-2.6-14-11.8-17.3-18.7-6-39 2.7-47.5 20.5-2.8 8.1-4.3 16.6-10.6 23-2.4 2.4-2.7 5.3-.4 7.4 16.5 14.6 14.8 36.9 5.7 56.3-1.2 2.5-9.9 5.4-2.3 11.4 11.6 9.2 24.6 14.1 38.5 18.4 20.1 6.2 56.2-7.1 52.6-36zm-98.5 17.8c-16.9 9.7-53 17.1-49.2 42.2.7 19.9 19.8 55.6 41.7 34.6 6.2-6.7 10.6-15.5 19.4-18.9 9.2-3.5 12.8-9.5 13-22.3 1.3-15.5-17.3-22.1-24.9-35.6zm103.4-38c4.1 8.4 2.4 23.9 19.3 19.1 22 2.4 51.8-13.2 40.7-40.9-5.4-12.6-16.8-21.2-21.5-33.9-2.5-6.8-3.5-14.5-7.1-20.6-7.4-12.4-32-15.3-43.7-5.9-3.5 2.8-11.2 3.6-9.7 8.8 8.5 37.6-.8 36.3 22 73.4zm4.7-104.3c-3.6-8.9-12.5-11-19.9-15.1-14.3-5-31.3-38.2-41.3-32.3-1.4.5-3 3.5-2.7 5.1 2.4 13.2-4.2 23.5-10.2 34-3.5 6.2-13 9.3-13.8 14.2-1.1 6.6 1 14.2-2.2 22.8C688 940 703 982.4 718.3 965c2.5-3.2 7.5-2.8 10.8-4.4 4.6-2.4 16.2.5 11.4-11.6zm-34.6-70c-6.2-12.9-18.2-13.7-30.5-14.7-5.3-.5-11.5-5.9-15.4-4.4-5.7 2.2-4.4 10.9-6.7 16.5-1.2 2.9 2.4 3.8 4.9 4.8 8.3 1.9 11.3 15.5 16.9 13.6 3.6 1.8 6.2-2.7 10.7-1 7.6 3 13.2 7.9 18.5 13.6 1.9 2 3.5 2.4 4.4-.3 3.1-9.7 1.5-19.2-2.8-28.1zm-57.3 13.8c-5.7 13.3-5.2 28.4-13.1 40.8-1.1 1.7-1 6.2.1 6.9 4.4 2.7 12.1 7.5 13.8 6 16.5-12.7 27.2-42.4 6.4-56.2-2.4-1.8-4.7-3.2-7.2 2.5zm-15 56.4c-3.7-1.3-3.8 3.6-4 4.6-2.7 13-7.9 25.9-13.5 37.2-7.2 14.5-1 18.3 9.1 23.6 2.5 1.3 3.9 1.4 5.3-.9 9-14.8 11.2-31.7 14.4-46 1.1-9.6-2.9-15.6-11.3-18.5zm-23.9 66.2c-6.1-3.3-8.1 17.7-11.4 21.8-4.9 11.2-10.1 22.2-15.2 33.3-1.8 7.6-14.1 19.6-3.9 25 5.1-1.8 6.7-16.9 10.3-22.1 4-6.6 16.8-38 23.1-37.6 2.1.5 3.4 3.8 2.3 6.3-8.4 18.5-17.1 36.9-25.1 55.5-.8 1.8-5.8 6.3-1.1 6.8 4.3.4 10.9-3.3 11.9-8.4 3.3-15.7 12.4-28.4 19-42.5.8-1.6 2.8-3.8 5.2-1.9 1 .7 2.2 2.7 1.8 3.4-5.6 12.5-11.4 24.9-17.3 37.7 44.6-13.5 35.5-64.8.4-77.3zm130.1 159.9c29.6 1.2 32.8-21.3 41.3-43.1 6.4-12.3 22.5-21.5 13.5-38.3-3.6-6.8-4.8-18.7-18.6-15.1-11.3 3-23.2 5.2-34.6-.7-3 37.4-48 51.2-84.1 32.9 12.9 21 1.3 22.2 7.8 29 20.9 19.2 44.7 36.1 74.7 35.3zm81.8-190.2c-10.8 3-15.8 15.7-27.6 17.3-7.2 1-4 4.2-1.4 7 21 22 20.3 42.8-2.5 62.9-1.3 1.2-1.1 1.6.2 2.9 10.9 11.1 18.9 23.4 12.5 39.6-6.2 14.8 22.5 11.7 30.7 10.5 28.8-4.7 17-34 32.5-51 7.4-7.7 10-18.5 3.5-30.2-6.4-11.3-19-20.7-14.8-33.7 2.8-30.3-13.5-30.8-33.1-25.3zm-36.7-90.3c-11.7-2.3-21-7.8-28.3-17.2-19.4-10.4-33.6 10-39.5 29-1.3 3.6-5.1 9.2-4.2 10.1 13.1 12.9 38.1 15.4 38.1 38.4 0 2.1 1.3 1.4 2.5 1.9 40 11.3 14.4 47.7 42.8 34.9 10-8.6 27-17.4 26.8-32.9-.7-18.7-15.9-25.6-18.5-39.9-1-11.8-6.8-21.7-19.7-24.3zm-84.7-198.6c-4.5 15.5-9.5 32.5-10 48.6 9.3-13.5 16.3-28.8 24.9-42.8.8-1.3 2.8-1.9 4.3-2.8.4 2 1.7 4.4 1 5.8-8.8 17.6-18 34.9-26.8 52.5-4.7 9.4-11.4 18.1-12.8 29.9 13.7-7.1 26.8-13.7 39.6-20.6 4.1-2.2 10.2-4.9 10.9-8.3 3.5-17.2 33.5-73.9 52.3-73.1-.1 1.3.3 3.2-.4 3.9-18.8 18.6-27.6 41.2-41.4 64.4 41.2-22.2 77.1-48.7 113.1-77.8 2.5-2 5.2-4.5 8.8-1.9 1.6 1.1 1.5 2.5 0 3.7-26.1 24.8-51.1 41.7-82 63.8 19.3-2.3 35.9-4.4 52.4-6.2 2.1-.2 5.5-.1 6.2 1.2 4.4 7.1-26.1 7.3-30.7 10.9-15.7 5.9-33.3-7.1-47.9 5.7-23.8 15.9-50.5 27.4-75.3 41.8-.8.4-3.5-.8-2.4 1.7 8.1 5.5 19.5 7.2 29 9.7 7.3 1.3 15.5 7.8 21.3 3.6 20.7-14.1 44.7-27 70.4-26.9 5.7-.1 8 6.5 1 6.3-20.1 2.9-37.8 12.3-55.8 20.8-1.6.7-2.6 2.7-3.9 4 25.8 7.1 53.4-.3 79.8-1 2.6-.2 3.6 1.6 4.2 3.4.2.5-1.7 2.5-2.8 2.7-40.6 7-74.3 9.3-114.2-3.4 19 25.3 49.1 24.9 76.2 31.9.1 0 0 1.5-.2 1.5-13.2 7.3-27.2.4-40.8-2-17.6-4.2-34.3-12.9-44-27-8.1-11.8-20-10.7-29.3-16.8-.2-.1-1.8 1.1-2 1.9-2.8 10-5.9 20-7.8 30.2-.9 5-7 11.3.8 15.4 5.6 2.9 12 3.9 18.6 4.7 16.3 1 28 10.1 33.3 26.5 1.6-1.3 3.9-2.2 4.8-3.9 6.2-12.1 34.8-17.3 42.8-3.7 1.5 2.5 5.3 6 7.3 5.6 17.9-3.5 35.5-6.6 52-16.5 18.1-10.9 35.5-22.3 50.7-36.7 4.4-4.1 14-9.7 2.1-18.6-11.3-8.5-21-19.2-34.1-25.5-3.3-1.6-6.7-5.2-4.1-8.9 12.5-18.6 28.3-35.5 39.3-55 12.1-26.5 21.4-54.4 24.4-83.6-56.2 26.7-124.2 8.3-178.6 42-8.6 5.5-20.6 8.7-24.2 18.9zM890 450.4c-63.3-17.8-90 1.4-133.7 44.8-9 8.9-14.6 21.7-24.4 29.1-17.3 13.2-10.2 31.7-16.3 50.2 30.7-38.2 84.2-102.2 130.5-115.5 14.2-3 28.5-5.6 43.9-8.6zm-165.1 52.2c-1.5 5.9-2 12-1.6 18.1 31.8-35.7 73.4-88.2 126.8-84 8.2 1.6 16.7 1.5 27 2.3-11.9-7.3-25-12.5-38.6-15.5-41.1-13.3-66.4 9.9-89.7 41-9.6 11.6-24.8 19.8-23.9 38.1zM403.9 291c-4-17.4-10.3 3.7-17.9.9-6.7-2.5-5.7 8.9-6.4 13.5-2.4 11.9 29.9 13.8 24.3-14.4zm109-124.3c-38.6-20.9-76.4-16.7-110.1 11.8 17 18.9 18.8-24.3 76.4-15.2 11.8 1.6 23.4 4.9 33.7 3.4zm-128.5-1.3c9.8 14 18.5 2 25.9-1.9 13.3-7.1 26.3-15.4 40.9-18.1 21.3-4 40.9 6.4 62.3 9.5-24.4-9.8-50.2-33.2-77.7-21.6-17.3 8.7-34 18.7-50.9 28.2-1.5.8-2.2 1.5-.5 3.9zm-53.6 48.1c13.2 25.1 45.6 34.8 50.2 65.8-.4 4.5 4.1 4.4 7.2 3.2 11.1-7.9 26.2-15.7 26.7-31.2 0-11.9-3.6-23.8.2-33.7 0-15.3-8.4-23.5-18-30.4-29.4-16-25.1-34.6-43.8-37.2-8.3-1-14.3 3.1-21.3 4.9-6.7 1.7-18.3 19.1-18.5 26-.4 14.5 11.4 21.9 17.3 32.6zM99.5 203.2c21.3-7.8 43.2-16.1 66.1-17 13.6-.8 24.7 9.6 37.2 13.9.4-5 2.5-13.6.9-14.4-39.6-24.9-69.8-5.1-104.2 17.5zm102.9 8.2c-36.5-31.3-70.5-8-109.8 2.7 23.5 1.8 46.2-8.5 69.4-1.1 12.5 4.5 22.1 13 31.8 21.4 2 1.7 5.1 4.4 6.6 3.8 5.1-2 6.8-23.5 2-26.8zm30.2 73.9c14.5-21.6 26-44.2 31.2-70.1 2.9-14.6 13.2-26 28.6-26.3 11.3-.2 14.6-.6 10.7-12.5-6-18.2-17.8-29.3-34.3-29.3-17.2-.9-21.5 10.5-32.5 20-12.4 9-26.1 16.3-23.6 35.8 1.4 11 7.2 23.6-.3 33.4-22.3 22.3 4 63.2 20.2 49zm-87.8 102.9c35.5-52 26.4-61.6 92.1-76.4-3.2-2.5-2.9-9.3-8.6-8.6-52.4 2.3-72.1 41.2-85.5 85.5.6-.1 1.7-.1 2-.5zm123.5-58.3c-24.4-16.1-73-6.8-89 19.6-8.8 13.8-17.7 27.4-26.6 41.1 36.1-38.4 55.1-46.4 107-55.7 2.1-1.2 13.9-1.9 8.6-5zm72.3-6.6c40.9-9.1 39.7-51.7 10.7-74.2-13.8-8.1-23-20.1-30.5-33.9-5.5-10-13.2-17.6-25.5-18.1-14.7-.6-26 15.9-27.9 33.5-2.1 19.6-11.8 34.8-22.9 49.8-27.8 45.4 70.1 49.8 96.1 42.9zm55.8 5.4c1.3-1.6 1.6-4 2.3-6-23.3 3.4-21.1-12.6-31.4-2.2-15 15.6-36.6 14.8-57.3 14.9 7.9 13.3 21 17.3 34.3 19.4 23.1 3.5 38.7-9.6 52.1-26.1zM291.1 471.9c49.1-10.6 93.7-9.1 121.4 45.7-3.5-28-12.4-49.6-34.8-62.4-33.3-19-58.7 5.9-86.6 16.7zm134 97.8c-1.5-11.6-1.8-24.4-8.7-33.6-8-10.7-14.5-22.3-23-32.7-27.5-37-79.3-30.9-117.6-15 5.6 4.5 13 2 18.9 2 67.3 4.1 102.9 15.2 129.6 80.3.4-.3.9-.7.8-1zm19.5 65.1c4.5-28.5 9.2-57 13-85.5 1.4-10.6 4.7-21.8 2.5-31.8-4.9-21.8-11.8-43.3-19.5-64.4-11.7-32.1-24.5-63.8-40.3-94.2-1.7-3.3-2.3-17.5-13.1-8.1-6.6 5.8-14.3 10.1-22.7 12.6 44.3 85.3 70.7 175.7 80.1 271.4zm-42.1 190.6c2.2-11.4 6.9-22.5 7.9-34 .5-5.5 14.4-17.6-4.9-18-17-.4-35.2-7.8-48.3 11.6-5.8 8.6-19.8 13-22.7 21.8-9 27-27.7 51.6-55.5 60.8-5.5 1.5-7.4-4.4-2.3-6.5 21-9.7 38.6-27.8 46.5-50-45.7 26-95.7 44.7-147.7 53.2-1.5.3-4.4-2.1-5.1-3.8-.9-2.3 1.9-1.3 3.1-1.5 34.9-7.1 65-19.2 99.8-31.2-28-7.4-51.7-1.9-79.1 1.3-2.2.3-4.9-.2-5-2.8 0-1.1 2.8-2.8 4.6-3.2 18.6-7.1 38.1-5.6 57.5-7 14-.3 26.6 11.5 42.2 1.4 23.4-15.2 48.8-27.3 68.5-48-49-.4-102.4-17.1-147.2 10.7-7.8 6.6-57 28.2-63.6 16.8-1-2.4 2.3-3 4.3-3.6 26.1-5.1 45.8-16.5 73.5-28.9-39 3-71.6-.3-109.7-1.6-11-1.5-29.9-.2-36.2-11 38.5 1.6 76.5 2.8 115.4 4.9 27.5-.1 54.8-1.7 82.4-1-31-23.8-70-32.8-105.8-45.8 15.2-12 68.5 15.7 86.5 22 15.1 6 22.9 23.2 41.5 23.6 21.2.5 42.4 3.3 64.3 5.2-2-3.7-3-7.9-5.6-9.6-9.9-6.5-14.3-17.7-22.9-25.2-6.7-5.9-12.2-15.4-20.9-16.5-19.9-3-80.6-9.3-90.8-25.4-.2-.5 2.9-3 3.4-2.7 23.7 11.2 50.7 12 76 18-16.6-11.1-31.7-23.9-50.4-30.5-10.6-3.8-18-13.3-29.1-16.6-3.2-1-10-1.3-7-7.2 2.5-4.9 7.7-.3 10.4.9 27.9 15.7 58.7 26.7 83.8 46.8 11.8 9.5 23.1 19.7 35.7 30.4-11.3-27.3-20.9-54.8-42.1-76.2-2.7-2.7-.5-6.8 3.2-4.3 9.6 5 15.6 13.6 21 22.4 8.7 14.3 16.8 28.9 21.6 45.3 2.3 7.9 1.7 16.8 4.6 23.4 3.8 8.3 11.2 15.7 17.2 23.3 10 12.6 28 3.9 40.8 11.3 3.6-14.7 7.3-29.3 10.5-44.1 1.6-7.5 5.7-17.4 2.6-22.6-40.4-60.7-119.5-97.6-191.3-98.9-29.8-.5-59.6 4.7-86.8 18.7-1.4.7-10.2.3-4.2 6.2 14.2 14.1 23.2 31.6 33.1 48.6 2.2 3.8 2 7-4.3 6.9-41.7 1-76.6 28.7-114.7 42.5-14.5 5.8-28.8 12-44.7 13.3-1.5.1-4.1-.5-1.6 2.4 3.8 4.4 7.2 9.3 11.6 13 32.9 26.2 67.8 53.4 109.3 63.9 5.1 1 12.3-1.8 15.1 4.4s-3.7 11-6.9 13.8c-15.5 14.1-24.5 32.7-36.2 49.4-.4.9-1 3 .8 2.7 69.9-7.1 141.6 13 211.2-5.4 32.4-9.4 72.5-21.1 82.7-57.8zm-46.1 449.8c21 2.6 42.2 3.3 63.2 7 22.2 6.4 24.1 1.7 35.9-18.2 131.3-172 191.4-383.8 237.3-592 17.5-114.8 25.9-230.8 37.8-346.3.4-2.9 0-5.1-4.2-4.7-22.6.5-45.1 1.6-67.6 3.7-56.2 3.5-112.5 3.6-168.8 3.5-4.9.6-7.3-1.6-7.1 6.4 3 38.3-3.5 75.9-4.8 114.1-4.9 91.9-16.8 183.5-39 272.8-16.2 71.9-30.6 145.2-56.8 214.3-42.6 110.8-105.3 212.5-167.9 312.9-7.4 9.7-11.9 16.5 6.2 14.2 45.4 1.1 90.6 7.7 135.8 12.3zm279.6 45.9c-25.8 3.8-41.4-21.8-43.7-44.7-3 7.3-9 17.5-14 22.4-25.7 29 27.3 35.1 20.6 105.1 0 1.8-.9 5.2-4.3 5.1-6.6 1-3.5-28.1-5.7-34-1.7-13.2-5.8-25.6-15-36.9-2.7 20.3-1.2 39.8-6.7 58.6-5.6 14.5-8.8 52.4-22.4 59.4-3-.4-2.2-3.3-1.8-4.8 8.4-22.7 12.1-46.7 17.8-70.1.3-1.2-.3-2.5-.5-3.8-13.5 13.1-25 28.9-31.7 46.8-.6 1.8-4.5 3.8-6.3 3.4-7.3-3.3 13.1-34.7 17.8-38.8 7.4-7.9 16.2-15.6 20.3-25.1 6.3-14.3 1.6-30.4 2.2-45.8.1-2.6-1.5-5.9-5.9-2-5.7 5-13.1 8.2-18.7 13.4-5.9 5.6-15.5 6.8-18.9 14.5-8.6 26.3-17.6 53-37.5 73.3-2.1 2.3-2.1 8.6-7.1 4.8-4.6-3.5-.2-7 2-10 13.6-19.8 28.8-41.2 33.8-64.6-18.4 10.8-38.5 21.2-55.3 34-2.2 13.4-32.2 65.3-45.7 65-2-.4-1.5-3.7-.1-5.6 12-16.7 27-32.9 33.5-52.4-11.4 3.2-20.1 11.1-30.1 16.7-22.4 12.5-44.6 25.1-61.7 44.8-1.3 1.5-2.2 4.6-5 2.5-9.8-6 34.9-41.3 42.9-45.3-3.4 0-5.7-.6-7.5.1-16.4 6.5-32.8 13.1-49 19.8-2.7 1.7-9.4 5.6-9.3-.4 14.4-13.9 42.5-23.3 62.3-28.3 9.1-1.8 19.5 2.2 27.7-5.2 19.6-13.5 39.9-22.4 61.7-35.1-20.9-3.4-38.3 4.2-56.3 5.8-2.3.2-5-.2-5.1-1.3-.7-11 56-16 66-15.5 4.3.1 9.5 1.3 12.8-.5 13.6-7.5 26.6-16 40.9-24.8-30.2-2-57.4-4-86.6 1.7-12.9 2.1-27.8.7-33.6 17.2-1.1 2.7-2.9 5.1-5.4 6.8-8.3 5.8-39.7 28.4-48.1 19.2-.5-3 3.3-4.3 6-5.4 14.9-6.6 31.5-13.7 39.5-29-1.4-.3-2.9-1.1-4-.8-13.8 3.7-26.8 10.8-41.4 9.5-2.4-8.6 49.6-20.3 57.8-21.8 33.4-8.6 69.2-6.5 103-6.4-26.7-34.8-71.2-7.1-106-18.1-22.3-4.7-44-6-63.4 5.5-35 23-72 46.2-91.3 85.2 19.9-1.8 38 5.1 56.1 11.9 5.1 1.9 7.5 4.1 2.7 10-21.5 27-38.6 59.7-41 94.5 46.6-21.4 99.4-27.4 150.1-30.4 24.4-1.1 49.3 1.7 71.8-11.8 4-2.4 11.6-11.6 15.3-.6 4.7 12.6 6.6 32.2 16 41.5 54.5-39.1 107.4-100 112.4-171.2.4-4.8-.8-9-6.9-8zm96.5-47.3c14-34.6 35.5-21.8 34.8-51.5 0-6.8-1.6-13.4-4.6-19.5-10.8-31.7-22.7-9.9-45.4-21.6-1-.5-2.6.1-3.8.3-.2.7-.2 1.5.1 2.2 4.4 12.4-.5 25.9-13.6 28.8-35.5 4.2-41.2 37.1-73.6 28.9-25.8-6.6-24.4-4.7-25 21-.2 9.1 2.4 18.2 3.8 27.3 1.9 13.1 21.5 25.9 33.3 21.9 35.7-15.9 69 11.7 94-37.8zm198.2 74.9c7.4-46.4-29.2-57.3-11.9-68.5 5-3.4 10.7-6.8 13.7-11.8 4.7-7.6 23.8-10.2 8.8-25.7-23.2-24.9-52.1-44.4-86-50.3-6-1-14.8-13-19.8 3.8-8 26.4-36.4 23.5-57.1 13.1 2.5 7.6 8.4 12.9 11.3 20.6 1.5 4.4 3 13.6 7.6 12.4 8.4-2.3 17.3 0 25.7-8.3 14.8-14.7 34.3-22.6 56.5-19.2 10.1.2 9.1 8.1-.3 6.2-18.8-1-34.1 7.1-51.6 17.8 15.9-.4 88.7.8 89.5 15.4-.1 1.7-1.8 3.8-3.4 2.5-5.3-4.3-11.9-4.1-17.8-4.6-13.4-1.2-26.7-6-40.5-2.3 10.8 7 21.8 13 34.6 15.7 3 1.2 8.6 0 10 3.3-1.2 2.6-3.8 4.2-6.7 4.3-14.4.1-25.9-7.5-37.8-14.1-6.7-3.7-10.2-12.7-19.9-11.4-6.8.9-14.3-.4-20.3 2-5.1 2-22.9-4.7-12 13 5.2 8.4 2 21.6 14.7 25.7 25.7 5.1 48.2 21.5 67.4 38.9 3.7 3.7 10.9 7.2 8.8 13.6-.8 2.6-5.2-.7-8.2-3.3-19.8-16.4-44.8-36.1-69.9-40.4-4.1 2.7 1.9 7.1 3.3 10.9 1.7 4.6 4.8 8.8 5.8 13.6 5.3 26.2 20 44.8 43 58.5 8.6 4.3 36.5 27.7 31.4 38-2.8 2.7-2.6-.8-3.3-1.5-14.7-18.6-32.6-29.1-52.2-44.4 9.2 28.7 25 51.5 43.3 74.5 1.2 1.5 4.6 3.3 1.9 5.7-2.3 2.1-4.6-.7-5.8-2.2-28.6-25.6-43.8-61.6-57.5-96.7-9.2 23.3 6.3 72.9 15 96.8 1 2.6 2.4 6.4-.6 8.2-3.8 2.3-3.7-2.7-5-4.3-11.5-24.5-17.3-50.7-20.4-77.5 3-53.2 11.1-29.6-12.5-84-14.5 32.6-16.3 67.9-12.5 102.8.4 3-.4 7.7-2.4 9.1s-3.5-2.3-4.5-5.1c-9.2-29.6-3.1-60.2 4-89.4 5.1-17.4 18.4-28.3 5.4-48.2-.8.5-2 .8-2.5 1.5-4.7 7.8-9.7 15.4-13.7 23.5-7.1 14.2-14.2 28.3-19.8 43.1-2.1 5.6-8.4 10.8-4.5 18 11.3 21.1 12.9 43.3 7.2 66.2-.4 1.6-1.9 4.8-5.3 4-3.7-.9-.7-2.9-.6-4.2 2.3-19.4.9-38.4-7.1-57.4-6 17.2-10.3 33.9-10.8 51.4-.1 3.2.8 8.2-3.2 8.1-18-14.4 13.5-84.2 22-102.2-29.5 6.3-42.7 74.8-46.4 55.9-2.2-5.4 1.9-9.3 3.5-13.7 6.2-17 13.1-33.2 29.5-43.8 6.8-4.4 16.2-5.5 20.6-13.6 8.2-15.1 15.4-30.7 27.1-43.7 2-5.2-8-21.4-9.9-28.4-11.7 30.6-12.7 19-30 38.6-9.7 15.9-17.6 33.5-35 43.6-5.7 3.3-14.6 1.1-17.5 8.3-14.5 35.1-12.6 121.7 17 147.3 16.6-1.3 32.7-6.4 47.1-14.9 15.3-10.2 20.6 28.6 51.7 36.8 18.5 6.2 36.8 5.4 55.9 3.6 12.3-1.2 24.3-8 37.3-3 3.5 1.3 7.8.4 11.7.5-8.1-46.5 12-92.3 13.9-138.7zM941.3 851c-8.1-1.4-12 4.2-11.9 11.4.1 6.3-.5 16.1 8.9 16.2 16.2 2 22.2-29.1 3-27.6zm-4.2-818.4c18 .5 17.6-27 6.2-25.2-21.7-.6-21 25.5-6.2 25.2zm13.5 275.9c-.4-8.2-7.6-13.3-14.8-13.1-7.7.2-9.5 8.2-10.9 13.5-1.6 23.4 28.5 20.1 25.7-.4zm-17.3 84.1c-7.6 1-8.6 7.2-7.8 10.5 1.3 5.7 1.7 13.1 5.7 15.1 23.2 5.5 23.8-29.6 2.1-25.6zm3.1-155.8c6.8-.9 11.7-6.8 11.4-13.6-.5-8.5-.1-19.9-15.2-18-10.6-3.2-12.3 6.2-11 12.1 1.7 7.8.6 21 14.8 19.5zm1.1 735.4c-16.1-.6-17.1 30.2-.3 29.6 17.5 1.3 18.6-28.6.3-29.6zm-1.9-395.1c14.7 2.3 15.7-25.2 2.1-24.1-17.1-1.1-20.4 24-2.1 24.1zm-20.8 196.2c-.7 12 6.4 16.7 16.2 17.5 8.3.7 8.8-7.1 10-12.5 5.1-18.1-27.4-24.3-26.2-5zM900 1144.7c9.3.7 14.8-5.6 15.2-15.2 1.2-11.4-7.2-14-15-14.2-14.7.4-15.1 28.8-.2 29.4zM881 282c-2.4 16.5 22.8 24.2 25.9 6.1.8-8.4-1.8-15.3-13.3-15.5-5.9-.2-11.8 1.3-12.6 9.4zm.1 234.8c-1.8 19.9 23.4 21.3 23.5 1.5-.1-5.1-3.9-9.4-8.9-10.3-4 4-14.2-1.2-14.6 8.8zm8.2-433.1c17.5 2 18.6-28.1 1.5-28-6.8 0-12.9 5.5-12 14.8-1.7 8.2 2.3 13.4 10.5 13.2zm3.8 851.6c13.8-1.8 13.4-29.4-2.8-28.1-20.1-1.8-15.5 30.1 2.8 28.1zm-2.7 639.6c-17.5-2-17.8 26.7-1.8 23.9 13.2.2 16.3-26.1 1.8-23.9zM859.2 143.8c.7 7.8 1.5 16.8 7.8 17.3 16.4.2 20.9-6.2 20-16.6-.8-16-29.7-17.7-27.8-.7zm9.6 185.1c-8.1-.7-13.2 1.8-13.9 10.9-1 12.1 8.5 15.5 16.2 16.6 16.5 1.8 15.7-30.5-2.3-27.5zm-13.2 256c-8.1.1-13.7 3-13.5 10.8.2 9.5 3.8 15.5 15.5 14.2 14.2-1.1 10.3-26.3-2-25zm-6.2-546.4c17.6 2.1 17.2-23.4 3.3-25-7.2.2-16.8 2-15.5 12.8.8 6.7 1 16.6 12.2 12.2zM807 188.9c.8 15.4 30.2 12.1 27.8-3.3-.8-11.9-11-11.6-19.6-12.6-5.7-.1-8.4 4.7-8.2 15.9zm5.9-99.8c17.8 2.9 19.1-27.2 3.4-27.5-7.3-.7-14.1 3.6-13.4 13.6.4 7.2-1.3 15.6 10 13.9zM803 1522c-13.9 3.2-14 32.2 9.5 26.8 6.3-.9 10.2-5.3 8.6-11.9.9-14.2-7.3-16.7-18.1-14.9zM763.3 167c0 5.3 2.4 13.3 7.9 13.4 6.1.1 14.8-1.9 13.8-12.3-.2-16.1-22-17.8-21.7-1.1zm5.8 59.9c-10.2-1.2-13.2 23.3-.1 21.7 4.3-.5 13 .9 11.7-8.2-.9-6.4-1.9-13.9-11.6-13.5zm.9 362.7c-15.6-.1-22.1 24.5-2.2 22.8 10.9 1.9 13.1-21.7 2.2-22.8zM754.9 95c-1 11.2 7.6 12.5 14.9 12.6 4.9.1 6.9-5.8 7.2-10.7 1.7-13.9-23.9-17.1-22.1-1.9zm-2.7-48.5c19.5 3.3 16.9-24.7 7.2-23-9.5.9-17.7.1-17.9 8.3-.3 6.1 4.1 13.7 10.7 14.7zm-2.4 1448.3c-16-.1-17.3 23.2-2 23.8 13 .3 14.6-21.6 2-23.8zm-5.8 60.4c-6.9.2-12.7 3.1-11.3 10.5.2 9 4.2 14.3 11.5 14.2 11-.2 10.2-10 10.7-17.1.4-6.8-6.4-7.7-10.9-7.6zM685 128.5c.4 9.1 7.3 10.1 14.3 10.6 8.5.6 9.6-5.3 10.2-14.7 1.7-11.4-26.7-13-24.5 4.1zm13.7 62.4c-11.4-.6-12.9 7.9-13.1 15.6-.2 9 8.6 7.1 13.6 7.3 13.4 1.6 13.3-23.5-.5-22.9zm-6.3-118c15 1.6 15.4-26.7-.9-21.7-18.3-4.5-14.4 23 .9 21.7zm-24.3 1452.2c-10-.2-8.1 8.5-9.2 14.5-1.8 10.4 4.9 13.6 12.5 13.1 20-1.9 16-28.8-3.3-27.6zm-6.3-52.5c0-12.9-10.3-14.2-20-14.4-13.2-.2-6 30.6 10.6 26.8 10.9 2.6 9.4-7.1 9.4-12.4zm-19-1271.4c7 .1 12.5-1.8 12.1-10 1-14.3-25.7-18.1-24-2.3 0 8 3.9 12.2 11.9 12.3zm-33 1367.8c-9 0-8.9 6.8-8.9 13.9-1 7.8 2.8 11.5 11.3 12.3 18.9 1 15.1-28.1-2.4-26.2zm-2.1-1467.2c14.9 1.5 21.4-31 3.3-25.3-19-3.9-20.6 25.3-3.3 25.3zm-22.3 1408.3c-17.2-2.5-17.3 25.8 1.3 25.7 16.2.7 14.1-26.9-1.3-25.7zM545.5 34.4c8.9-.1 11-8.8 11.3-15.9.5-10.9-10.2-7.6-15.5-8.8-13.4.6-10.1 26.4 4.2 24.7zm-30.9 1530.9c-8.3.3-11.8 8-12.3 15.2-.9 11.4 8.4 8.8 15.5 9.3 14-.7 9.1-25.9-3.2-24.5zM497.5 66.8c20.1 1.9 21.7-28.1.1-28-11.8.7-13.3 28.6-.1 28zm-66 1460.2c-10.5 1-8.5 9.2-8.5 15.9 0 11.9 9.3 11.3 16.9 11.4s8.1-5.9 7-11.8c1.8-12-4.2-16.5-15.4-15.5zM401.2 45.3c13.2.5 11.9-10 13.6-17.3 1.2-5.3-3.5-9.8-8.8-9.3-8.5.9-14.1 5.7-13.1 13.3.2 7.7-.4 13 8.3 13.3zm-2.3 51.5c13.1.4 10.5-24.4-2.1-23.7-7.3-.6-10.1 4.1-10.1 11.7-.8 8.2 5.3 11.4 12.2 12zM333 98.9c7.3-.4 10.5-5.1 10-12.9.5-4-.6-9.5-5.8-8.6-6.1 1.1-15.9-.7-15.4 10.9.5 7.2 4.3 11 11.2 10.6zm-45.3 1469.9c-10.8-1.1-14.4 4.6-14.9 12.4-.2 13.2 8.3 14.6 16.5 14.4 10.2-.2 11.2-9 11.5-16.4.5-8.5-6-9.7-13.1-10.4zM252 88.7c15.8 3.1 21.7-29 10.2-27.4-7 2.3-18.6-1.1-18.7 13.8 2.7 3.8.1 13.3 8.5 13.6zm-47.6-47c5.6 0 14.6.6 13.3-9-.8-5.6 1.1-16.2-8.8-14.9-6.9.9-17.5 1.6-17.9 13.2-.3 9.6 7.1 10.6 13.4 10.7zm-.5 1471.1c-16.7-4.4-20.3 26.1-4.7 26 15.7 1.5 24.1-23.1 4.7-26zm-1.7-158.4c-17.4-2.3-18.4 24-2.3 25.3 7.8.6 10.1-5.7 10-11.8 0-5.5.8-13.4-7.7-13.5zM190 132.8c20.6 2.2 19.3-26.1 5.2-25.8-7.9.6-15.4 2.2-13.7 15.7 1.4 2.6 1.1 10.1 8.5 10.1zm-2.8 428.5c9.4-.7 16.7-1.7 15.9-12.2-.6-7.9-5.1-12.5-12.9-12-7.1.5-11.7 4.9-11.1 12.6.3 6.1.8 12.6 8.1 11.6zM181 1568.9c-12.6 1.9-11.4 31.6 4.4 28.1 18.6-1.6 12.1-30.3-4.4-28.1zm-2.5-101.4c-.2-5.5-1.5-14.3-9.9-12.8-10.5.2-15.5 4.2-15.7 13.3.4 17.5 26.8 15.5 25.6-.5zm-18-965c17 .1 18.3-31.3-1.5-28.9-8.4 1-9.5 8-10.2 13.9-3.5 11.4 3.6 15.5 11.7 15zm-8.8-422c7.9.6 16.5-4.3 17-13.7 1.4-14.9-22.1-16.1-26.6-3 2.9 6.2 1.3 16 9.6 16.7zm-12.8 999.6c-8.9-1.4-10.4 5.3-11.1 12.2-.8 8.9 3.3 13.7 12.1 13.7 21.4 1.2 18.8-24.9-1-25.9zm-6.3-45.1c18 3.5 18.3-28.6 2.2-27.6-7 .4-13.1 5.1-12.4 13.4.5 6.5-1.9 16.3 10.2 14.2zm-.8-896.8c11.9.5 13.6-8.6 14-17.6.3-5.3-3.6-7.8-8.3-7.9-16.4-2.5-20.8 24.6-5.7 25.5zM129 1324.6c-13.7 1-13.7 28.1 1.2 28.8 10.6-2.2 14.1-9.8 13.7-19.8s-8.8-9.5-14.9-9zm-7.3 198.2c-10.9.5-11.2 9.2-12.2 15.6-.9 6.2 4 10.3 10.3 10.5 14.7 1.7 14.7-24.1 1.9-26.1zm-8.8-383.7c-6.7 1-14.8 2.4-14.4 14.4.3 10.6 7.6 11.6 15.3 12 16.3 1.5 17.7-28.6-.9-26.4zM89.3 543.7c.4 15.3 25.8 9.8 28.2-2.4-1.7-6.6-.7-15.3-10-15.2-10.7.3-18.1 6.2-18.2 17.6zm12.6 887.3c-8.9-1.7-15.2.4-13.2 10.4-1.1 7.8 2.2 11.6 8.5 12.1 12.4 2.1 17.3-19.9 4.7-22.5zM88.8 90.8c7.1-1 14.2-3.9 14.3-13.4.1-7.7-2.8-12.6-13.1-12.7-13.1-3.2-15.3 28.5-1.2 26.1zm-.9 219.9c6.6-.8 15-2.2 13.1-11.8 0-9-5.3-14.2-13.8-13.8-11.8.6-8.1 10.4-8.9 16.8s5.1 9.3 9.6 8.8zm-2-139.8c8-.3 9.8-7.5 10.9-13.2 1.7-8.8-6.1-10-11.8-9.5-11.7 1.4-10.7 24.3.9 22.7zM65.1 1201.4c-.5 11.5 2.8 16.4 10.7 15.3 9.7-1.4 12.8-10.6 15.2-18.6 2.3-7.7-3.4-10.7-9.7-11-11.9-.6-15 7.7-16.2 14.3zm17.3 59.6c-8.3.4-15.6 2.7-15.6 14.2-1.3 7.2 6.1 11.2 10.4 11 16.5.4 18.9-25.8 5.2-25.2zm-7.2-295.9c-14.7.1-14 26.7 2.5 24 14.3 2.8 10.7-26-2.5-24zM74.9 365c-12.9-3.8-13.4 20.7-2 19.7 5-.3 13.1 1 12.5-8.3-.4-6-1.2-12.7-10.5-11.4zM60.6 465.7C58.4 479.2 85 482.2 83 465c-.8-7.8-4.4-13.6-13.3-14-8.1-.4-8.9 5.1-9.1 14.7zM57.2 44.8c6.3 0 13.6-1.5 13.7-10.3.1-6.2-1.8-11.6-12.2-12-11.6-3.4-14.9 22.9-1.5 22.3zm-5.8 1514c-8.1.6-10.8 4.9-10.3 11.7.5 7.1-.3 16.2 9.7 14.9 8.4-.3 15-.7 16.2-9 1.6-11.8-2.1-18.6-15.6-17.6zm3.2-181.4c-7.6-.3-12.9 5.1-13.6 13.6-1 10.5 4.7 15.9 14.2 15.9 9.2 0 9.2-8.5 10.8-15.5-2.2-5.8-3.8-13.8-11.4-14zM44 1040.7c-6.7-.5-7.2 7.8-7.3 13.4-.2 8 4.6 12.1 12.5 13.2 23.3-3.5 13.6-27.6-5.2-26.6zm14.7 461.5c.6-22.3-24.2-20.4-23.3 1-.4 14.5 24.6 12.5 23.3-1zm-18-889.4c16.5 3.7 22.4-27.5-.5-28.6-8.1-.4-8.9 8.9-8.5 12.9.6 5.6-.8 15.4 9 15.7zM25 1136.2c-.1 19.1 27 17.3 24.9-4.4.6-15.6-27.1-11.1-24.9 4.4zm6.5-997c6-1.4 15.2 0 15.1-9.3-.1-5.6-3.3-12.1-11.7-13.1-15.3-2.4-19.3 21.3-3.4 22.4zm1.1 387.6c11.1-.4 5.6-10.8 7.7-13.7 5.6-21.4-24-15.6-19.6 2 1 7.7 4.9 12 11.9 11.7zM25.7 335c16.9 3.8 20.6-23.8 3.1-23.8-14.2-1.5-21.3 25.9-3.1 23.8zm-3.8 1003.7c8.2 0 18.2-2.4 16.7-13.6-.8-5.6 2.2-16.8-9.8-16.1-8.8.5-18.1 1.8-15.8 14-.2 7.7-.3 15.8 8.9 15.7zM5 421c.3 7.9.7 16 15.2 16.3 8.4 1 12.6-6.4 12.6-16.1 1.2-15.4-29-17.5-27.8-.2zm9.3 809.7c-6.7.9-7.8 4.5-7.1 9.3 1.2 8 2.8 16.3 14.7 15 4.2.7 10.8-.4 8.7-5.5-3.1-7.4-.8-20.9-16.3-18.8zm.5 194.6c-6.7.2-14.4 2-13.9 12.6-1.7 11.7 9.6 11.5 15.8 12.5 15.2 1.8 12.6-26.9-1.9-25.1zM9.6 84.9c16.9 1.4 15.1-23.3-2.7-22.2C-5 62-5.3 86.9 9.6 84.9z"/></g><g><path d="M52 1548v15l-37 37h946l-37-37v-15H52M52 52V37.7L14.3 0H0v1600h15l37-37V52m872 0V37.7L961.7 0H14.3L52 37.7V52h872m52-52h-14.3L924 37.7V1563l37 37h15V0z"/><path d="M961 1600h15V0h-14.3L924 37.7V1563l37 37H0V0H961.7M52 52V37.7L14.3 0m.7 1600l37-37V52h872m0 1496H52" fill="none" stroke="#333" stroke-width="2" stroke-linecap="square" stroke-miterlimit="3"/></g></svg>