<svg xmlns="http://www.w3.org/2000/svg" xmlns:xlink="http://www.w3.org/1999/xlink" viewBox="0 0 976 1600"><path d="M960 22v1556c0 3.3-2.7 6-6 6H22c-3.3 0-6-2.7-6-6V22c0-3.3 2.7-6 6-6h932c3.3 0 6 2.7 6 6z" fill="#fff"/><defs><path id="a" d="M960 22v1556c0 3.3-2.7 6-6 6H22c-3.3 0-6-2.7-6-6V22c0-3.3 2.7-6 6-6h932c3.3 0 6 2.7 6 6z"/></defs><clipPath id="b"><use xlink:href="#a" overflow="visible"/></clipPath><g clip-path="url(#b)"><path d="M484.5 1477.1c-20.6-22-3.9-88.5 37.2-88.7 23.7 27-11 78-37.2 88.7zm216.9-77.9c-22.9-3.3-51.5-45.8-33.3-64.9 3.2-.3 4.7 3.9 8 3.5 2.4 0 4.8-2.4 7.1-.6 20 12.9 32.6 48 18.2 62zm-562.5-207.6c-36-6.8 24.6-63.8 45.1-48.2 4.7 7.3 13.7-6.8 16.4 2.5-1.1 30.8-35.9 43.3-61.5 45.7zm490.5-85.2c-32-17.8 5.2-66.3 25.8-77.3 36.1-2.3-5.3 75.5-25.8 77.3zM287.5 726.5c-28.2-17 3.2-60.2 25.4-72.2 28.6 10.6-4.8 67.2-25.4 72.2zm526-183.6c-4-3.3-10.4-.7-13.2-4.9-2.8-31.2 26.3-55.9 51.7-67.6 52.2-15.4-4.9 74.1-38.5 72.5zM199.7 275.1c-94-1.8-4.2-53.3 37.2-37.8 4.1-.4 10.3-1 9.7 4.9 22.2 23.4-32.8 34.5-46.9 32.9zm137.1-124.5c-23.9 3.6-77.3-86.4-27.5-67.7 20.5 6.3 62.9 52.7 27.5 67.7z" fill="#333"/><path d="M588.4 1372.5c-25 2.3-35.5-22-53.5-28.9-12.8 7.9-27.3 18.1-43.4 17-7.7.3-12.2-1.7-12.8-12.3-4.3-30.7-42-4.3-41.2-26.3-4.7-38.6 27.2-54.4 43-80.4 20.9-33.3 42-66.5 62.4-102.2 25.4-5.9 26.3 34.4 37 50.7 20.4-3.3 37-7.3 58.6 4.3 17.5 9.5-16.7 34.4 13.7 42.6 27.2 9.7-9.4 34.5-19.8 42.2-.7 16.1 10.7 32.2 2 52-2.8 7.1-6.4 6.3-10.9 4.5-34.6-7.6-12.8 35.5-35.1 36.8zM543.9 1241c-29.6 5.5-27 40.5 2.5 40.7 25.8-3.2 21.7-39.4-2.5-40.7zm-326-302.2c-46.5-15.2-36.9 20.7-45.8-29-5.3-13.6-32.7-1.9-26.6-18.9 2.8-18.3 23.5-26.3 20.6-40.3-13.3-12.4-16.1-67.4 9.5-55.3 31.9 2.8 22.3-33.5 37.1-33.9 16.2 3.8 31.6 11.7 42.6 23.8 7.8 11.6 24-20.9 56.7-20.5 3.1 0 8.4 1.4 8.9 10.7 3.1 40.8 42.9 5 42 26.7.6 11.3.3 24.6-7.7 37.2-5.3 10.4 29.6 17 34.6 36.5 4.5 7.1-1.2 13.3-3.6 19-5.9 14.4-8.8 41.9-28.2 31.7-36.2 10.6-20.4-43.1-47.5-49.7-9.7 10-14.3 13.8-29.3 15.4-14.5-2.3 11.4-25 .5-33-9.1-12.6-18.3-10.6-30.1-3.3-5 2.3-9.4 11.7-8.3 17-.5 5.1 4.2 9.7 1.9 14.1-21.5 16.5-14.8 49.8-27.3 51.9v-.1zm493.6-155.7c-17.6-3.1-33.3-32.4-23.9-46.4 5.7-15.6.4-22.4 12.2-37.7 3.4-3.7-.6-6.9-1.1-10.5-1.4-11.5 6.6-18.1 5.3-27.3.7-7.3-1.7-18.5 4.8-24.2 5.4-9.6-1.7-24.6 4-36 5-28.2-5-42 22.1-61.7 24.6 5.4 24 36.6 39 53.6 9.8-.3 19.3-7.4 29.7-6 48.1 1.6-10.7 23.3 50.2 41.5 2.8 12.5-12.5 29.3-18.7 37.6-2.2 2.3-2.2 6 0 8.3 13.9 13.3 24.9 46.8 8.7 63.1-43.2-9.2-16.1 33.1-37.7 31.5-16.7.4-28.6-8.2-41.2-16.7-4.9-3.2-8.4 1.5-10.8 5.3-10.5 11-26.3 22.7-42.6 25.6zm30.1-95.9c12.2 4.6 29.9-11.4 26.3-23.8-4-3.5-.4-10.3-5.4-12.9-5.8-5.3-9.6-7.1-17.2-6.8-5.6-1.5-8.8 1.6-14 3.6-7.4 1.8-2.8 10.3-7.7 15-4.3 8.1 7.9 27.4 18 24.9zm-.3-279c-23-2-1.6-60-4.3-75.5-5.3-22.2 2.9-29.3-25.6-25.1-12.3-1-.8-15-3.7-21.5-2.2-9.5-3.7-14.1-13.3-18.3-3.1-3-6.3-3.2-10.3-3.3-6-1.5-5.3-9.6-11.5-9.5-11 2.2-18.2-16.7-28.3-11.1-1.6 1.6-6.4.8-8.4 1-14.1-4.5-33.5 12.7-39.6 0 3.7-14-9.6-24.9-10.1-37.6 12.1-10.4 31.8 3.2 31.1-21.7 30.7-73.3 37.8 21.4 68.8-26.4 2.3-6.8 8.8-5.8 12.8-.6 11.2 10.9 5.8 33 18.3 39.3 15.3-6.1 77-23.3 61.7 12.6-2 21.2 23.4 15.3 33 22.4 10.8 25.1-37.9 54.2-26.8 61.6 16.8 10 39.2 59.8 13.9 70.1-9.2-1-22.8-7.1-29.7 2.9-12.7 17.8 8.2 39.9-28 40.7zm-316.2-51c-44.3-22.2-86.2 10.4-71.3-20 3.2-4.4 6.3-9 2.2-13.1-74.5-33.8 5-34.8-35.2-66.3-4.7-4.5-15.8-13.2-11.6-19.8 13.2-16.8 37.6-17 53.8-21.2 4.1-13.9 3.9-46.1 21.7-51 14.7 9.2 37.1 20.3 45.8-2.3.4-6.5 4.7-10.2 6.4-9.3 19.5 3.2 24.3 28.9 38.6 37.4 14.7-17.4 96.9-18.7 75.3 11.9-8.8 15.5-28 12.3-41.9 4.6-10.7 6.4-11.4 21.9-23 30.7-5.1 5 3.9 10.4-.1 15.8-3.3 6.5 2.2 15.7-3.9 21.8-34.9 19.5-6-32.9-45.8-24.3-7.2 1.3-10.9 8.8-13.2 14.9-9.9 14.7 22 20.1 11 32.8-12.5 12.9 4.3 15.7 9.9 25.8 13.3 12.6-4.3 32.3-18.7 31.6z" fill="#ff8db6"/><path d="M237.6 1503.2c-22.6 0-20.4-40.8 3.9-38.1 27-.7 24.4 41-3.9 38.1zm28.5-74.2c-25.8-11.6-4.8-34.7-49.8-9.5-26.6-9.4-16.3-43-16.9-61.9-17.7-5.7-37-10.4-49.1-25.1-9-22.7 34.6-11.3-.5-54.7 9.1-20.8 36.4-14 54.6-17.9 9.3-26.9 31-53.1 46.1-79.7 4.8-13.5 69.7-91.4 26.7-81-10.7 12.4-26.3 19.4-42.7 19.3-14.7-.7-3.4-30.2-27.3-29.3-8-2.1-17.5 14.6-23.2 3-21.9-26 7.5-46.3-3.3-59-11.1-5.9-27.1-17.2-27-31.2 13.1-10.9 29.8-17.8 12.5-35.1-15.8-33.8 36.8-29.4 55.9-28.2 6.8-12.9 4.2-29.8 15.9-42.1 4.1-5.1 12.5-10.6 5.9-17.5-4.2-15.3 9.3-27 23.6-27 30.2 2.1-.8 41.5 17.2 43 10.5 1.6 16.8-12.7 27-14.6 15.6 5.9 17.3 28.7 23 42.3 3 6.8 11.5 2.5 17.1 2.8 9.4-.6 16 5.7 24.4 6.4 65.5-167 90.4-346.4 102-528.1.5-10.1 5-24-9.4-21.8-13.4-3.9-47.4-16.6-29.7-30.1 35.1-20.9-24-34.8-.2-53.2 6.9-8.2-6.8-10.5-10.6-14.8-8.9-12-.6-34.2 14.8-31.7 13.4-.1 19.9 10.2 18.5 23.4-1 10.6 22.8 7.4 23.1-1.5-.7-21.5 5.8-41.6 20.1-61.3 7.9-10.1 13.4 6.7 24.1 3.9 18.9 3 21.1-19.9 34.2-21.7 24.5 6.1 28.3 34.5 36.7 53.9 23.9-1.7 58.8-9.6 73.1 16.2 1.7 6.2 8.3 3.3 12.8 3.7 22.1 1.2 23 23.7 19.9 39.2 7.1 8.3 21.3-1.8 29.6 4.7 3.7 19.7-4.1 44.2-4.1 62.7-12.2 111.9-16.2 229.5-43.5 338.3-.8 16.5-10.8 33.5-8.5 49 22.2 2.7 16.8 53.9 41.9 36.9 61.8-19 14.8 28.7 57.6 29.3 26.3-2 8.3 40.4-2.3 49.6-3.1 3.3-1.5 7 1.2 10 29.3 61.3-8.2 28.1-18.5 41.9-15.9 11.5 7.7 35.4-9.9 37.5-13.9 2.2-25.9 2.5-38.1-8-2.5-2.1-6.3-1.8-8.4.8-.2.2-.3.4-.5.6-7.8 13.5-44.7 37.9-52.9 16.2.6-16.7-4-23.1-18.4-27.1-18.4-5.4-29.1 66.5-40.1 81.6-16.2 37.3-123.4 279.4-166.7 250.9-9.9-.6-35.5-13.4-33.9 5.5-3.7 7.7-23 13.2-15 22.9 70.5 60.1-20.9 28.1 3.8 73.3 2.7 2.8 2.6 7.3-.2 10-1 1-2.3 1.6-3.7 1.9-17.6 8-35.9 2.4-52.6-9.3-13.7-3.4-24.3 39.9-56.3 41.7zm495.8-51.8c-28.3 1.6-28-42.2-1-41.3 25.5-1.4 27 41.4 1 41.3zm-214.8-98c-26.2 3.9-28.8-36.7-4-36.3 23.7-2.2 27.5 35.7 4 36.3zm166.1-155c-21.9 0-28.3-40.1-.3-39.5 28.3-4.1 27.6 40.9.3 39.5zM204.4 697.7c-25.9.2-22.6-40.9 3.3-38.9 25.4.5 25.3 41.8-3.3 38.9zm543.3-10.8c-33.7-.5-28.3-40.6-2.4-43.4 27.1-.2 27.7 43.6 2.4 43.4zM243.4 573.5c-6.3-.3-8.4-7.6-5.7-13.2 6.6-50.6-69.8 4.1-39.9-68.1 2.3-5.9-4.2-8.2-8.4-9.3-20.1-9.3-34.4-24.6-43.6-46.8-2-11.8 26-12.6 30.9-27.6 4.8-15.2-27.4-38 5.8-41.3 13-8.5 49.9 1.4 47.1-13.7 2.4-16.5 12.2-36.1 26.3-45.7 8.7 1.5 22.3 19.1 31 17.2 13 1.6 27.9-35.4 41.4-13.1 9.2 11.5 13 24.8 17.1 37.9 11.1 9.3 46-10.8 71.4 7.5 6 3.4 5.8 7.7 1 11.5-45.3 51.5 62.7 36-15.9 85.9-10 9.6 12.7 29.3 7 49-3.6 16.9-28.1-1.5-37.4 15.1-16.5 9.8 3.8 37.1-14.6 40.5-17.3-2-34.2-4.7-46.2-18.7-11.6-7.1-24.5 32.6-67.3 32.9zm-22.1-380.3c-32.3.1-29.2-47.8.3-48.1 31.2-.2 31.7 49.4-.3 48.1zM817 154.8c-33.9.3-35.1-52.8-.4-51.7 33.9-.2 33.6 50.4.4 51.7z" fill="#d81e1e"/><path d="M976 195.8c6.6 24.1-19.6 25.2-19.2 7.6-.5-11.5 14.6-20.3 19.2-7.6zm-22.7-68.7c.1 24.1 28.9 18 22.8-2.7-2.9-8.9-24.7-9.2-22.8 2.7zm7.8 633c-17.3-3.3-23.9 24.6-5 24.8 13.8 2.6 19.2-23.9 5-24.8zM952.8 45c10.9.4 16.1-4.5 16.3-15 .3-12.1-10-9.9-16.2-10.8-9.8-1.4-10.7 6.5-10.4 13.9.3 7.1 1.5 13.2 10.3 11.9zM946 324.4c7.9-.9 16-4.8 15.1-15.9-.8-10.3-9.5-8-15.2-7.9-11.4.5-9.8 23.9.1 23.8zm-5.7 499.1c-9.2 1-8.7 10.4-9.8 19.7-1.4 4.9 4.7 7.7 8.4 7.3 17.5-.1 19.8-27.9 1.4-27zm-.6 107.5c-8.1 0-8.3 6-9 11.4.5 7.1 1.3 13.6 10.5 12.6 8.2-.8 11.2-6.9 11.7-13.9.7-9.3-6.2-10.1-13.2-10.1zm2.1-239.4c16-1.5 20-29.6 1.4-28.4-10 .2-9.5 10.5-11.4 16.5-1.5 4.5 3 12.8 10 11.9zm-17-589c6.7-.8 11-6.8 10.1-17-.3-2.1 1.5-8.4-5.6-8.6-17.5-2.6-24.6 29.4-4.5 25.6zM917 428.8c-10.8 1.2-10.5 23.9 1.6 24.1 16.7.9 16.7-25.5-1.6-24.1zm-3.3 1026.4c-7.4-1.3-7.5 6.1-7.4 10.2.1 5.6-.5 13.9 9.6 11.4 6.4 1.4 10.5-2.1 10.8-7.2.5-8.3-5.6-13.2-13-14.4zM888.8 244.6c-1.1 18.6 25.8 14.5 25.8-1.2 3.4-17.8-25.5-13.2-25.8 1.2zm28 506.8c1.5-15.3-21.9-12.8-21.8-.3-1.7 17.2 23 14.7 21.8.3zm-4.5 362c-.6-16.4-22-16.2-19.4.7-.5 5.1.7 10.9 6.4 10.5 5.8-.4 13.7-1.2 13-11.2zm-8.4 273.1c-8.9-.2-19.1-.8-16.9 13.8.3 7.2 4 11.2 11.9 10.4 11-.3 17.6-22.4 5-24.2zM886.2 162.1c.1 8 4.7 12.8 13.1 13 10.2.5 10.5-7.9 10.5-13.7-.1-8.7-8.6-9.6-14.9-10.2-7.1-.8-8.8 5.7-8.7 10.9zm11.4 1042.6c11.8.3 14.3-25.7-.1-23.9-18.6-.4-18.3 26.2.1 23.9zm-4 322.7c-7.6-.3-13.1 4.9-10.5 13.6-.7 6.7-.8 13.4 7.2 13.8 7 .3 13.3-2.7 12.7-11.7-.5-6.9-.8-15.4-9.4-15.7zM890 30.6c15-.4 21.7-28.6 1.5-27.4-16.3.8-20 30.2-1.5 27.4zm.8 886.6c9.4-.8 9.4-8.4 9.7-14.2.3-6.8-2.7-12.7-11.8-12.2-8.8.5-12.6 4.7-11.8 12.9-.4 10.2 4.1 14.3 13.9 13.5zm.1 89.9c8.2-.9 8.2-7.6 8.1-13.8-.1-9.8-7.8-11.3-14.4-10.8-6.5.5-8.2 6.6-7.7 13.3-1.1 10.2 5.7 12.2 14 11.3zm3.5 297.7c1-9-6.4-11.3-12.8-10.6-12.6.7-15.9 27.1.1 24.8 10.3 1.2 11.8-6.9 12.7-14.2zm-19.7-915.9c15.4 1.8 19.4-29.3 6.6-28.2-19.7-1.5-25.5 26.6-6.6 28.2zm9.5 422.4c-.1-8.3-5.1-11.6-12.3-11.2-7.7.4-9 6.4-9 13.8-2.2 16.5 22.7 13 21.3-2.6zm-174-20.5c2.9 18.9 5.8-6.5 46.3 2.4 4 .7 7.4 3.6 5 9.6-4.2 10.3 4.8 21 17.1 20.8 33.5.3 16.8 43.8 1.3 58.4-3.7 4.1 4.6 9.9 7.1 15 5.7 11.1 7 23.8 3.7 35.8-1.7 6.5-6.1.4-8.5-.3-7.3-2-14.9-4.4-19.7 2.9s-6.7 15.8-1.6 24.2c7.4 12.2-5.4 11.8-9.8 12.8-15.1 3.2-30.6 4.3-42.6-9.1-1.1-1.2-2-1.7-3.7.9-9.1 19.3-58.7 44.6-61.7 10.1-.6-5 .2-11-4.5-13.6-16.2-8.6-14.6 8.2-16.9 14.4-20.3 53.1-42.1 105.7-69.3 155.6-1.8 3.4 2.6 4.5 4.3 5.2 13 5.2 19.7 28.8 23.5 41.4 11-21.3 23.1-41.5 31.5-63.2 2.8-7.3-.7-18.5-.5-27.9-2.8-17.2 42-80 57.7-58.2 15.1 36.9-15.7 70-45 88-8.4 5.7-11.9 19.3-16.5 29.9-2.5 5.6-8.1 9.7-7.8 17 25-23.4 54.9-41.7 87.7-50.7 3.9-.4 1.5-5.7 1.6-8.7-.2-24.4 33-35.1 46.9-14.8 10.6 14 4 32.8-13.1 39.3-19.1 7.9-22-9.7-35.5-9.1-34.4 15.1-67.6 35.4-94.1 62.4 21-1.8 40.6 1 57.5 14 8.4 7.7-25 28.7 9.2 38.4 15.8 4 10.6 10.5 6.7 19.1-5.8 12.7-15.7 21.5-27.2 28 12 8 25.6 11.2 37.2 19.3 18.9 12.8 42.8 18.5 59.7 34.7 4.3 3.9 7.1 3.5 11.3.3 12.5-9.6 32-3.2 36.8 11.9 17.1 46.9-60.2 46.5-47.8 1.4 3.5-13.2-70.5-40.1-80.7-50.2 2.1 9.8 11.8 20.5 26.3 30.3 20.7 13.9 30.9 33.3 28.7 58.2-.5 5.6-.5 14.4-7.1 15.5-34.3-1.9-51.9-43.1-41.7-74 1.1-4.2-6.8-10.3-9.2-16.2-2.2-5.4-7.9-6.7-10.4-11.5-.6 81.5-25.1 11-37 52.5-.6 2.2-.3 4.8-1.3 6.7-2.6 4.7 3.2 12.3-4.7 14.7-24 9.2-42.5-7.9-59.1-22.9-3.9 8.7-8 18-12.2 27.3-2.8 6.1 2.5 10.3 3.9 15.2 11.5 38.2-16.6 73.6-49.2 89.9-2.2 1.2-8.8.1-8.9-6.9-.4-14.5-3.9-29.2-2-43.3 2.3-16.4 11.6-30.3 24.8-41.6 19.9-14 26.7-13 33.2-40.2-13 8.9-54.5 27.4-54.8.2.2-10.6-13.7-19.6-23.8-15.8-22.8 6.6-22.3-28.3-16.5-42.4 2.3-5.1-4.4-4.9-6.9-5-8.7-.3-17.1-2.8-25.5-3.7-7.1-.7-9 9.2-15.1 12.5-26.5 14.3 19 18.4 22 52.5 2.4 16.2-46.2-6.8-24.1 36 7.5 14.1-7.4 13.9-12.4 15.6-20.2 6.9-38-1.3-54.8-12.9-15.6 44.2-48 31.2-65.1 69.5-.9 1.7-1 2.8 2.9 5.5 31.9 24.9-18 69.3-38.5 27-3.1-12.6 3.8-29.3 14.2-30.2 16.5-1.4 19.8-15.4 24.9-25.9 2.4-4.8-3.5-15.4-9.7-19.4-19.5-9.4-30.5 25.5-47.2-3.2-8.1-12.2-10.4-26.8-5.6-39.4 7.4-19.5-7.9-16.1-16.1-17.8-9.3-2-50.3-25.7-32.8-36.5 6.9-3.3 14.9-7.3 13.6-15.8-.9-6.1-3.5-13.3-10.3-17.1-3.6-2-5.9-6.3-4.9-9.9 9.5-18 33.2-22.1 51.9-21.7 5.6 0 4.7-9 7.9-13.4 15.3-20.9 25.7-44.8 40.3-66.2 14.4-21.2 25.9-44.5 38.4-67 .8-1.5-1-4.4-1.6-6.6-2.2.8-4 2.4-5 4.4-5.6 10.5-17 13.2-26.9 15-16.3 3.1-29.4 11.2-42.4 20.4-4.9 3.5-.3 8.7-1.8 13.5-7.1 22.9-24.6 32.8-44.8 36.5-7.8 1.4-16 4.5-23.4 3.2-11.8-2.1-13.4-18.4-5.8-29.4 16.5-23.7 39.6-29.9 66.8-30.7 9.5-.3 19.4-8.2 27.8-14.4 4.9-3.6-6.7-23.2-13.8-24.8-6.4-1.4-11.5.2-16.8 3.8-26 12.8-28.8-47-13.7-60 1.9-2.4-2.3-2-3.4-3.3s-3.4-1.3-4.9-2.4c-9.9-6.4-36.1-27.3-18.3-38 17.3-7.8 19.2-19.2 3.7-30.1-19.9-14.2 19.4-20.6 14-40.3-1.5-10.9-6.5-17.5-17-19.5-30.4-3.2-3.4-37.4 8.2-48.9 5.2-5.5-3-9.8-5-14.2-8.4-17.7-4.5-34.9.3-52.2.9-3.4 4.7-6.7 8.9-2.5 6.9 6.7 15.1 4.3 21.5.9 6.6-3.6 10.7-10.5 10.8-18 2.4-31.9 46.2-3.6 58.4 10-1.4-10.6-31.9-90.3-42-77.2-12 4.2-22.4 0-29.4-8.6-7.9-9.7-7.3-21.4-.5-32.4 21-23.3 58.5 1.9 42.4 30.4-1.3 2.8 4.1 9.6 7.6 13.5 14.3 15.7 19.2 35.6 26.3 54.8 3.8-13 14.1-24.8 9.4-38.5-4.3-32.5 16.1-63.6 47.3-73.1 7.2-2.2 7.9 8 8.6 13 4.4 31.3-10.2 54.5-36.1 68.9-19.1 11.8-17.8 30.6-25.9 47.5 17-11.3 34.7-21.1 55.2-19.2 11.4 1.9-3.3 41.7 33.1 28.9 15.6-5.1 14.8 4.8 15.7 13.2 1.5 13.7.2 27.2-8.1 39.1-1.3 1.8-1.3 3.5 1.3 4.1 42.1 15.2 20 49.3 43.9-33 19.1-68.4 32.2-138.6 44.7-208.7 12.8-71.3 15.3-144 21.6-216 .3-3.1-1.6-1.7-2.6-2-15.5-4.5-32.8-5.2-41.4-22.5-50 57.6 39.1 40.5 3.8 74.1-8.9 8.7-17.1 18.3-29.8 22.9-4.7 1.7 1.9 6.1 3.3 8.5 8.3 14.7 9.3 29.9 5.2 45.6-1.3 4.9-6.6 4.1-10.2 2.8-21.6-9-35 13.6-28.6 32.5 4.7 12.4-5.1 13.7-12.4 13.7-13.9 0-28.1 1.6-40-10-3.8-3.6-10.3-5.2-13.5-10.7-13.7 21.7-33.5 33.3-59.3 35.1-9.7.7-13.2-4.1-13.9-12.8-1.2-58.5-46.3 2.4-45.5-35-1.5-13.2-2.4-27 6.9-38.6.8-1 .4-1-8.5-5.2-16.4-4.1-69.4-56.4-33.3-63.2 17.8-3.9 21.3-17.6 12.5-33.1-9.3-16.5-12.3-14.6 14-26 13.3-6 30.5-2.5 43.7-7 3.8-1.8 4.5-10.6 6.2-16.4 3.6-12.5 10.8-22.7 18.7-32.9 16-20.3 28.9 29.6 49.3 5.3 9.2-10.3 18.4-20.6 27.3-31.1 9.4-11-4.5-14.4-8.1-19.6-13.3-18.8-34.4-11.6-52.6-11.8-4.3 0-8.5 8.4-13 12.7-24 22-59.1 19.4-87.8 10.4-10.6-6-9.4-18.3.9-25.7 45-36 86.9-2.5 135.3-6.5-18-16.2-36.5-33.2-55.7-49.5-1.4-1.2-7.1 2.4-10.7 3.9-15.9 6.4-30.6-.6-37-17.4-8.3-20.9 21.5-48.1 41.2-33.2 11.4 8.8 18 19.8 11.5 35.4-1.9 4.6 5 6.3 7.8 8.5 15.1 12.1 29.7 24.4 41.8 39.6 12 15.6 18.6-15.3 56.5-12.9 14.2.6-.3-14 10.2-32.7 2.8-6.3-4.6-8.7-6.5-13.3-4.9-12.2-17.3-10.3-26.4-13.9-26.3-10.2-43.6-36.2-46.7-63.5 1.1-39.6 61.3 3.6 64.6 24.7 14 30.4-3.1 30.7 20.1 53.1 7.8-9.2 9.7-12.9 21.7-7.1 20.2 9.6 29.6 16 37.4-8.9 11.5-23 40.4 20.7 46.1 31.8 1.3 2.5 2.2 1.9 3.6.5 18.7-16.6 54-20.4 73.6-4.1 8.9 8 20.8 9.9 29.5 18 2.8 2.6 11.7-2.8 17.4-1.9 10.3 1.6 12.7-2.9 13.7-8.4.8-17.3 13-30.9 26.2-40.4 3.7-2.5 7.3 1.4 10 4.3 17.3 19.1 18.9 19.1 34.8-.1 17.6-24.4 29.3 20.7 32.1 34.4 19.9-14.9 38.9-33.1 62.5-42.8 9.9-3.3 7.8-11.4 8.8-18.8 2-16.2 14.3-28.8 29.9-28.7 40.9-.3 41.5 63.1-1.5 62.5-10.3-.5-15.5-6.6-22.2-11.5-6-4.5-8.9 1.9-12 3.5-18.1 9.3-34.1 22-52.9 36.6 19.9-7.6 36.4-5 53.5-1.9 9.4 1.7 8.5 7.1 6.8 11.7-15.2 46.5 39.3 7.4 28.8 46.4-1.9 15.2-8.5 28-20.3 36.4-11.1 7.9-8.7 10.6-.4 19.4 17.3 18.3 23 41.1 13.3 65.5-4.4 11.1-13.7 1.6-20.6 2.3-43.8-.5.7 38.7-31.5 42.8-6.2 2-25.5-1.3-24.7 7.3-1.7 42.7-7.6 85.7-11.2 127.7 7.2-2.3 7.4-16.2 13.7-14.5 7.3 2.7 14.3 8.7 19.1 15.1 8.2 11 14.9 23.2 18.4 36.8 2.7 8 15.2-24.2 18.9-26.5 4.9-6.5 2.3-13.3 2.6-19.8 1.1-38.9 32.6-64.9 68.2-72.1 12-.3 16.3 7.2 13.1 21.3-7.1 30.6-27.1 49.3-55.9 58.6-19.3 6.2-24.2 23.4-32.8 38.1-.1.2 1.5 1.9 1.8 1.8 12-5.3 23.9-1.3 35.7.4 17.8 4.1-11.2 28.2 20.2 33.8 29.1 5.4 4.7 37.2-6.5 49.6-1 1.2-1.7 1.9-.4 3.2 14.8 10 29.7 64.2 8 70.4-2.5.8-3.7-.6-5.4-1-8.9-2-18.6 5.7-19.6 15-.6 5.7 3.6 13.3-2.6 16.6-19.5 8.9-41.5-4.8-56.9-16.3-2.1-1.5-2.1-.6-3 .6-11.4 15.5-26.2 26-45.1 30.4-2 .8-5.9 1.7-3.8 4zM804 536.6c9.2-11.5 37.2-54.6 52.2-51.4 2.4 2.1-.7 4.5-2 5.6-16.4 13.5-28.5 30.7-40.7 48.1 29-8.4 57.6-34.8 54-67.5-4.5.8-9.7.3-13.4 2.5-26.1 13-50.3 31.5-50.1 62.7zM794.3 130c2.8 27.2 41.8 27.1 44.7-.6-.3-29.2-45.6-29.7-44.7.6zM347 133.4c-5.9-20-16.2-36.9-36.2-45-4.8-2-13.9-11.4-17.9-.2 1.7 23.2 20.2 50.2 39.9 56.8 3 2.2 9.1 2.5 4.8-2.1-9-10.2-18-20.3-26.8-30.7-1.1-1.3-5.1-1.8-2.3-5.5 4.4-8.6 28.5 20.7 31 25.6 2.2 3.3 9.7 10.7 7.5 1.1zm-125.5 15.7c-24.5 1-27.7 39.5 0 40.1 27.3.1 26-39.9 0-40.1zm28.1 102.7c-6.6-1.3-13.8 3.2-20.6 2.8-13.2.6-25.3 5.8-38.2 7.3-1.7.2-3.8-2.2-5.7-3.4 1.6-1.1 3-2.9 4.8-3.3 17.5-4.4 35-8.6 52.6-12.9 0-.4-.1-.8-.1-1.2-27.7-3.5-53.3-3.8-76.2 14.4-2.4 1.7-3.6 5.3-4.9 8.3-.2.4 3 3.3 4.2 3.1 7.3-1.7 13 3.5 20.1 3.9 22.5.7 49.9 1.6 64-19zm30.4 464c11.4-9.6 12-28.5 26.3-35.4 2.4 11.4-15.6 30.1-18.8 42.2 18.9-9.8 41.2-43.8 27.7-64.9-21.3 11.9-34.7 33.7-35.2 58.1zM222.7 679c-.3-22.1-32.8-20.7-32.3 0-2 20.1 33.3 19.3 32.3 0zm-26.3 467.5c-14.8 10.1-29.1 20.1-43.7 29.6-2.6 1.7-6.8 6.1-9.6 1.6-4.5-8 33.5-24 37.7-31.7-16.7-4.1-40.1 12.4-45.4 28-1.2 3.7-6.6 7.1-3.6 10.7 3.9 4.6 10.3 2.8 15.4 1.7 8.8-2 17.3-5 26-7.3 9.1-2.5 24.5-23.1 23.2-32.6zm45 322.7c-19.8-2.1-21.8 31.4-2 29.9 21.7 1.2 23.1-31 2-29.9zm280.3-76.8c-5.6 10.2-21 65.9-29.5 62.1-7.8-2.6 18.3-51.2 18.3-61.3-29.5 15.9-33.3 48.5-27.5 77.9.5 2.5 1.9 2 3.2 1.2 23.5-16.5 47.7-44.8 35.5-79.9zm177.5 2.2c1.3.4 3.6 1.5 3.6-1.4 0-20.2-1.9-39.6-21.8-52.7 1.6 6.8 16.2 32.3 10.9 34.4-2.2 1.1-4.4.4-5.8-2.6-5.9-11.2-10-24-17.7-34-7.6 20.4 11.4 50 30.8 56.3zm45.3-35.8c.5 18 32.5 19.9 32.3-1.1 1.9-24.9-35.6-22.7-32.3 1.1zm-46.2-256.6c-.7 23.6 32.6 23.7 32.1.2-.7-19.7-33.3-18-32.1-.2zm-79-10.2c.6 1.4 3.7 5 3.7.6 6.1-10.4 12.1-20.9 18.3-31.3 1.3-2.1 3.2-4.9 6.4-2.3 2.9 2.4.6 4.4-.5 6.8-5.3 11.4-10.5 22.8-17.9 33.2-.5.7 0 2.2.1 3.4 15.4-6.5 35.9-38.9 35.2-56.9.3-12.8-3.3-15.3-7.4-13-18.8 10.9-29 28.2-35.8 48.1-1.2 3.7 1.4 8.1-2.1 11.4zm-29.5-881.2c5.8 10.4 12.1 20.5 10.2 33.2.4 1 1.1 1.9 2 2.6 12.2-6.3 25.5-5.7 39.5-5.7-5.8-6.9-18.6-14.7-19.9-21.7 2.1 1.2 2.8-3.5 5.6-1.1 14.5 11 26.8 25.4 43.4 33.1 2.3-8.4-12.5-52.2-2.5-52.5.9-.1 2.6.4 2.7.9 4.2 18.8 6.8 37.9 10.7 56.8 1.1 3.9 6.1 7.3 5.8.9 4.7-11.6 9.3-23.2 13.8-34.9 1.1-2.9 3.2-4.1 6.3-3.4 2.8.6 2.2 3.1 1.7 4.4-4.1 11.9-8.2 23.8-12.7 35.6-.8 2-2 4.6-.4 5.2 3.2 1.1 5.7 5.8 9.6 3.3 15-9.7 29.7-19.6 44.6-29.5 4-3.8 10.4 2.5 5 5.7-13.2 9.1-26.4 18.2-39.2 27.8-2.3 1.7-7.7 2.5-6.2 6.4.8 2.1-.5 7.3 4.3 6.9 9.3-.7 18.7 1.5 28.1-1.5 4.1-1.3 10.1 0 12.9 4.3 4.6 6.9-33.4 4.8-37.6 5.2-7-.3-7.8 4.3-7.8 8.2 0 4.9 4.6 1.5 6.9 1.7 5.4.6 10.8.6 16.1.1 6.9-.6 6.5 3.1 6.5 8.3-5.2 31.3 19.4 24.9 12.6 36-5.3 5.8-6.9-5.3-11.9-5.6-1.3 15.1-2.8 30.3-3.8 45.5-.5 8.5-5.5 20.8 12.3 15.9 5.2-1.4 13.8-4.4 13.4-6.3-1.9-11-3.4-21.9 4.3-31.7s19-7.7 27.5-5.3c11.9 3.4 11.2-3.3 11.5-9.9 1-23.6-7.1-42.8-27.8-55.8-3.9-2.5-3.2-6.4.5-8.9 13.8-9 24.3-20.8 28.8-36.8 1.8-6.4 8.5-17.4-8.9-15.1-13 1.7-26.7-15.2-22.3-25.3 2.8-6.4 6.5-12.1-5-14.2-16.9-3.1-32.6 1-48 6.6-12.3 9.4-12.9 9.1-15.3-6.9-3.4-12.1-4.5-28.1-15.9-35.5-13.6 25.6-31.6 24.9-47.6 2.2-2.2-2.4-2.2-1.6-3.8-.4-27.6 22.4-14.1 44.9-29.9 46.2-4.1 1.6-21.9-.8-20.1 5zm114 84.7c-2.4-14.5-6.7-21.9-18.3-22.3s-17.7 6.4-17 17c-1.1 19 33.8 20.9 35.3 5.3zm-288.9 65.4c-18.4-9.4-37.3-9.5-57.1-5-4.4 1-10.6 13-14.8.3-34-106.3-30.4 6.5-77.5-37.9-3-2.8-9.2-7-9.9-6.4-9.7 9.5-15.3 21.6-21 33.9-3.5 7.5 4.2 24.6-17 20.1-10.6-2.3-23 3-34.5 5.3-30.5 2.9 7.3 24.6-3.3 39.6-6.9 10-16.5 17.6-28.6 21.1-1.4.4-2.6.9-1.9 2.7 22.1 53.4 60.7 40.2 53.2 56.3-5.9 12.9-15.3 47.1 9.4 39.9 18-5.4 36.4 15.2 29.4 31.2-1.9 4.3-.1 8 2.5 7.5 21.4-3.8 41.8-9.3 54-30.2 3.4-5.8 8.7-7.4 15.4-1.6 9.1 7.9 19.1 17.4 31.9 15.1 4.4-.8 18.9 10.1 15.7-7.8-8-22.5 18.3-44.6 38.2-37.6 13.2 4.4 2.2-36-2.9-40.5-10.8-16.9 18.6-16.7 31.5-41.6 6.3-7.6-16.1-7.1-22.4-23.2-11.6-25.8 19.3-38 9.7-41.2zm24.3-13.9c4.5-3.9 8.1-9.9 3.6-16-3.8-5.2-7.8-14.3-14.7-10.9-12.7 5.7-8.8 21-16.9 18.7-2.1-.6-3-2-1.7-4.1 6.9-11.9 13.9-23.8 20.6-35.9 1-1.8 4.7-4 1.5-6.6-1.5-1.2-2.7-4.6-6-2.4-12.9 8.8-25.8 17.5-38.7 26.2-2.1 1.5-4.3 1.8-6.2 0-5.3-8.1 36.6-27.1 39.9-34.8.3-.5-1.8-3.8-2.8-3.8-15.9-.4-31.7-.6-47.6-.5-3.4 0-6.3-.2-8.8-2.4-9.9-11.1 48.4-3 54.2-5.4 4.5-.1 3-4.3 5-5.9.8-.6.7-3.7.6-3.7-10.7-2.4-18.6-10.2-28.3-14.5-2.5-1.1-5.8-1.6-6.2-5.2-3.5-14.8 30.9 10.3 35.1 12.8.8.5 3.3 3.3 5.4.6 1-1.3 3.4-3.1 3.1-3.7-5.3-12.4-7-25.8-10.6-38.7-.9-3.3-2.6-7.1.8-8.6 7.4-4 11.5 30.6 14.2 36.1.8 2.9 1.3 5.9 2 8.9.9 3.8 12.4.6 13.7-3.8s8.9-31.2 14.1-28.8c3.9 1.3 2.9 4.7 2 7.1-1.3 7-14.6 27.2-8.4 31.7 1.1.7 3.1 1.8 3.6 1.3 14.8-11.6 29.2-23.5 36.7-41.4 2.4-5.6 6.5-9.4 11.2-12.7.5-.3 3.2 1.3 3.7 2.5 3.4 7.6 10.4 7 16.7 8 10.5 1.2 14.8-7.1 20.3-13.3.2-.2 2.7-2.8 0-4.8-20.4-15.8-54.3-14-73 4.2-2.8 2.7-6.9 3.2-7.8.4-7-15.1-16.5-31.9-32.1-39-3.8-1.5-2.1 6.7-4.9 9.7-2 2.2-3.4 5-5.5 7.1-8 8.4-23.6 7.8-35.1-.2-3.6-2.5-7.8-10.3-13.6.2-7.6 13.8-11.1 27.8-9.7 43.2.2 2.3.6 4.9-3.2 4.5-19.9-1.3-40.2 3.3-54.1 18.2 3.7 4.5 6.6 10.3 11.2 13.3 16.9 10.8 18.8 27.4 3.7 40.3-2.8 2.4-3.1 3-1.4 4.1 6.6 4.3 11 10.9 18.6 14.5 10.4 5 26.6 8.7 13.1 26.2-2.1 2.8-3.1 6.4-1.3 8.5 1 1.1 5.6-.5 8.4-1.4 38.4-14.1 56.4 18.7 75.6.2zm43.6-94.5c2.9-10.3-18.3 9.5-18.8 13 2.4 4.5-.2 11.3 6.4 11.3 18.6-.2 6.4-17.1 12.4-24.3zm-41.9 4.1c-9.6.8-11.9 7.3-12 16.7-.9 9.2 6.8 12.5 14.1 12.7 20.4 1.5 19.6-32.5-2.1-29.4zM472.8 377c6.8-71.1-17.8-62 52.4-61.9 6.3.3 2.2-6.2 5.7-7.3-1.9-7.4-30.3-10.3-29.7-19.2.5-3.8 4.1-1.6 6.2-1.6 10 0 17.3 7.1 26.1 10.4 4.7 1.8 6.7-3.5 10.6-3.1-2.9-15.3-4.8-30.8-7-46.2-.2-1.5 1.8-3.4 2.7-5 6.5 6.2 8.7 35.2 11 45.6 1 7.8 8.1 2.2 10.6 6.3 1.2 1.9 2.7.6 4-1.4 5.5-8.3 9.7-17.5 17.6-24 1.5-1.3 2-5.3 5-3 2.8 2.1 2.2 6.5.3 8-7.5 6.1-10.4 15.5-16.6 22.6-2.7 3.1-.6 7 1.3 10.4 1 1.8 1.3.1 2-.1 14.6-5.6 29.2-11.3 44-16.4 2.9-1 6.6.5 9.9.8-1.7 2.3-2.9 5.8-5.1 6.7-10.4 4-21 7.1-32.3 10.9 22.5 2.5 47.8-2.5 71.3-2.6 2.6-.1 1.9-.5.7-2.4-6-9.4-8.1-18.7-1.2-29.3 1.8-2.8 12.2-5.1 3.2-13.2-17.1-15.4-36.3-12.2-55.9-9.5-29.2 12.7-4.4-17.6-37.1-47.9-5.2-4.9-12.3-9.7-17.7 2.1-6.8 14.8-31.6 19.2-43 8.3-2.4-2.3-2.8-.9-3.9.5-13.6 18.7-20.9 39.3-19.1 62.8.1 1.4 3.3 4.9-3.4 5.6-16.5 1.6-32.6 5.8-44.7 18.9-3.9 4.2-5.7 8-3 10.3 5.8 5.2 13.7 8.9 15.3 17.7 2 11.3-.9 20.5-12.4 25-14.1 5.1 29 27.6 32.2 21.2zm71.3-74.2c-5.2 1.1-6 5.5-6.6 8.4-.6 3.2 3.8 1.5 5.8 1.5 7.7.3 15.5.1 23.4.1-5.4-8.8-12.5-12.2-22.6-10zM175.2 907.3c6.8 8.4 2.5 18.4 4.1 26.4 9.2-4.5 18.6-3.9 27.5-1.2 27.3 9.8 1-11.5 35.3-48.1-12.8 5.8-23.9 11-35.2 15.8-3.3 1.4-7.3 3.2-10.1-1-1.1-1.6-.4-3.3 1.7-4.2 13-5.9 26-12 39-17.9 4-.9 2.1-3.7-1.1-4-11.7-1.4-23.4-2.7-35.1-4.1-3.1-.4-4.9-2.6-5.5-5.5-3.4-5.9 36 1 40.4.5 2.8.3 4.8.7 6.1-2.5 1.4-3.3-.7-4.6-2.7-6.5-8.6-7.8-16.9-15.9-25.4-23.8-2.6-2.4-1.3-5.2-.8-7.7 0-.3 4.5-.7 5.1.2 6.1 8.5 15 13.8 22.4 20.6 3.7 3.4 5.4 10.6 12.6 6.4 8.2-4.3 2.5-28.2 3.5-36.8.5-4.2 6.6-11 7.9-2.2.5 9.5 1 19.1 2 28.6.2 2.1-2.3 5.6 2.6 6.7 4.4 1 7.4-1.3 9.2-3.9 7.8-10.5 16.7-19.9 26-29 2.2-2.1 4.9-.2 4.2 2.4-5.8 14.2-20.2 23.1-27 36.3 1.8 11.7 39.1-8.4 49.3-2.8-2.6 7.2-16.1 8.6-22.9 10.6-7.4 1.5-17.7.1-20.8 6.9-2.7 6-2.1 13.9-7.7 20.7 10.1-3.4 21.3-.1 23.6-14.4.2-1.3 2-6 4.6-6.3 11.9 6 19.1 18.7 25.2 30.8 4.3 9.4-1.6 29.9 21 23.5.5-.1 1.4 1 1.7.8 4.9-2.4 10.8 6.3 14.2.3 5.1-9.3 9.1-19.1 11.9-29.2 1.5-5.2 7.6-9.8 4-15.9-15.5-32.3-46.4-21.8-35.2-39.7 7.5-11.1 8.4-23.2 7.7-35.8-.2-2.9 1.4-6.4-4.9-3.7-18.5 8.2-36.2-3.1-37-23-.2-4.6-1.4-7.8-7-6.6-45.6 5.5-40.4 34.4-54 22.3-8.9-8.4-17.6-18.2-30.2-21-35.3-18.4.6 23.7-49 29.3-4.2-.1-11.8-6.2-13.2 1.1-12.9 47.7 18.5 49.1 9 57.8-12.1 9.6-20.6 23.1-24.2 38.1 10.8 0 20.5 1.7 27.2 10.7zm100.5-46c-3.4-7.1-10.5-5.1-15.3-3.8-8.2 2-15.5 10.8-12.6 20.7 1.1-.3 2.7-.3 3.4-1.1 9.1-9.6 13.8-2.6 18.7 4.7 1.1 1.6 3.2 5.3 4.6 3 4.5-7.1 5-16 1.2-23.5zm10.8 231.8c.6.9 1.3 1.8 1.9 2.6 7.8-13 15.2-26.3 22.4-39.7 2.8-5.3 7.8-12.2 6.3-16.3-2.4-6.3-9.6-10.8-14.5-16.3-3.7-4.2-7.2.3-10.8-.1-5-2.1-3.4 39.6-4.7 45.2-.1 2.6-1.5 4.1-3.9 4.3-3 .2-1.9-2.4-2.3-4-3.3-13-.9-26.1-.1-39.1.1-2.1 2.2-5.5-1.7-6.7-3.7-1.2-5.6 1.7-7 4-7.4 12.3-16.5 23.3-26 34-1.4 1.6-2.5 5.5-5.6 3.1-2.6-2-2.4-5.1-.4-8 9.6-13.4 19.3-26.8 30.4-42.5-16.8 5.2-30.1 11.4-46.3 17-2.2.8-5.9 1.4-7-1.9-1-2.9 2-3.3 4.1-4.2 12.7-5.3 25.4-10.6 38-16.1 5.3-1.7 4.3-8.6-1.5-7.5-16.7-1.4-33.4-2.6-50-4.3-2.9-.3-6.9-1.8-6.7-5.3.2-4 4.4-2.8 6.9-2.6 16.9 1.2 33.8 2.6 50.7 3.9 6.5 2.1 8.5-5.7 3.8-9.5-8.4-7.6-16.6-15.3-24.9-23-2-1.9-7.2-3.1-3.9-6.8s7.6-1 10.7 1.8c8.4 7.5 17.1 14.7 24.9 22.8 4.5 4.7 6.4.4 9.4-1.1s2.5-3.7 2.4-6.5c-.9-16.4-1.5-32.8-2.3-49.3-.9-5.5 7.7-5.3 7.9-.7 1.6 17.1 3.4 34.2 3.8 51.3.1 3.9 2.5 3.2 3.7 4.6 1.7 2 3.2-.7 3.8-1.6 7.1-11.6 13.9-23.4 21.2-35 3.2-9.4 11.6-4 6.7 3.8-6.9 12-14 23.9-20.9 35.9-5 3.8 2 7.2 5.8 4.2 5.2-3.7 10.9-6.8 16-10.5 17.1-10.5 36-17.5 41-39.5-6-1.7-11.4-4.5-18.5-3.8-27 7-17.5-21.8-30.9-37.7-3.3-4.4-4.7-12.8-13.7-3.1-13.6 14.6-29.6 12.8-42.8-1.9-.9-1-2.9-2.3-3.9-2-19.4 8.2-27.4 29.4-29.7 48.9-.6 3.8-.5 11.7-7.1 10.5-15-2.9-29.5-6.2-44.7.2-8.6 3.7-13.3 13.1-7.7 19.4 13 14.4 11 25.3-5.7 35.4-2 1.2-7.5 2.3-5.9 6 4 9.3 12.2 15.1 19.8 21.5 34.7 11.2-15.8 22.2 9.7 62.2 1 1.4 1 4.9 4.4 2 13.4-11.3 29.8-6.6 37.9 9.3 2.4 4.8-2.6 13.9 5.2 13.9 17.1-.2 31.7-7.5 42.4-21.3 4-4.6 6.7-4.7 9.9.1zm56.6-101.5c2.7-8.2 6.8-16 10.7-25.2-14.1 8.8-27.3 16.8-40.4 25.1-1.3.9-2.1 2.4-2.2 3.9.1 2.7 2.5 1.3 3.9 1.4 10-1 23.2 9 28-5.2zm-10.6 15.5c-7.6.5-19.5-5.7-23.2 1.4-6.2 13.1 10.4 14.8 12 24 1.6-3.1 17.5-25.6 11.2-25.4zM288 983.8c-19-1.7-21 28.7-4.1 31.1 24.4 3 24.3-29.8 4.1-31.1zm99 302c-12-1.8-27-6.8-37.8-3.4-15.8 6.9-29.9 17.4-45 26.1-2.4 1.4-2.6 1.8-1.6 4.2 1.2 2.9 2.2 1.2 3.9.9 10.6-1.8 21.3-3.3 32-4.5 1.4-.2 3 1.9 4.5 2.9-6.7 5.4-23.8 8.1-32.8 8.2-4.4-.2-5.3 2.8-5.6 6.6s3.1 3.1 4.4 3.7c10.9 4.5 22.1 8.2 33 12.8 2.2.9 3.3 4.5 4.9 6.9-9 2.2-30.2-9.5-40.7-12.2-2.7-1-4.8-3.6-7.5.6-7.1 8.8 7.1 19.5 9.9 28.6 3.1 6.2-1.4 11.6-5.9 3.7-8.6-7.3-6.6-27.2-26.1-21.7-3 .9-5.6 0-6.8 4.1-3.5 8.5-6.4 29.4-14.4 33.2-8.3-1.8 6-28 7.2-33.9 1.7-5.2-1.7-11.1-5.1-10.2-9.7.7-36.4 17.9-41.9 11.2-1.2-1.3-1.6-3.6.8-4.6 10.8-4.1 21.6-8.1 32.3-12.2 1.4-.5 5.5.3 3.9-1.3-3.8-3.8 2.1-11-4.6-12.2-6.7-2.6-40.8-1.5-39.1-9.3 0-3.9 3.3-5 5.6-4.8 10 1 20 2.6 29.9 4.7 3 .7 6.4 2.3 7.9-.1 1.3-2.1 3.5-5.5-1.5-8.8-4.2-3.2-36.3-24.9-24.8-28.4 9.7 4.2 16.8 14 25.7 19.9 3.3 2.5 5.9 8.2 11.8 4.4 3.3-1.3-2.5-5.6-2.4-8.3-5.9-32.8-34.2-20.7-58.9-26.8-16.5-2-32.7-2.5-46.4 9.2-2.5 2.1-3 3.2.2 6.1 32 35.2-11.9 40-2.6 48.7 12.2 12.2 28 21.3 45.9 21.5 15.5.1-8.3 37.3 8.1 55.9 3.6 5.3 7.2 13 16.4 4.3 11.5-11 28.3-9 33.9 4.2 6.9 26.9 48.2-14.6 51.5-26.7 1.5-6 3.8-12.1 11.6-7.4 15.3 10.8 33.5 19.9 52.3 11.4 2.7-1.2 5.3-1.3 2.3-6-10.7-16.4-4.3-30.7 14.6-36.4 2.7-.8 10.2.4 8.5-4.1-5.5-14.8-17.4-25-29.5-34.6-1.9-1.5-5.7-1.7-5-4.8.7-2.7 2.5-4.9 4.9-6.3 7.3-3.4 12.6-9.1 18.1-15zm-109 19.3c-25.3-.2-24.8 38.1 3 36 20.7-.2 19.1-36.8-3-36zm13.2-5.2c2.1 1.9 4.7 4.6 7.3 2.6 11.8-9.3 25.9-14.6 38.8-22.8-8.1-.9-15.5-2.2-22.9-2.6-7.3-.4-16.7-7.9-20.7 5.1-1.3 4.3-1.3 9.1-3.2 13.1-1.2 2.5-1 3.2.7 4.6zm-2.3-24.4c-7.5-5.8-17.2.8-24.1-4.8-11.4-.8 7.1 29.8 13.8 25.8 9.1-3.1 5.1-14.7 10.3-21zm257-133.5c-14.4 19.6-22.1 43.9-37.7 62.9-2.1 2.8-6.4 6.8-3.5 9.9 8.2 8.8 17.6 16.6 26.3 25.1 3.1 3.1 4-1.2 6.2-.9s2-1.3 1.8-2.7c-1.9-14.9-4-29.9-5.7-44.8-.8-2.8-1.5-7 2.9-6.6 4.1-.1 4.7 3 5 6.3 1.7 15.1 3.4 30.1 5.3 45.2.1 1 2.3 2.1 3.8 2.6 3.1 2.3 11.9-24.8 15-28.8.5-1 2.7-1.5 4.2-1.6 7.2 12.2-16.9 27.8-6.1 40 .7.5 1.6.7 2.4.4 12.4-5.7 24.8-11.6 37.2-17.3 2.4-1.1 4.9-1.7 6.8 1.4 1 1.7.9 3-.7 3.7-12 5.5-24.2 10.8-36.1 16.5-2 1-6.3.5-5.6 4.4-.1 7.7 30.8 8.5 38 13.6 16.3 14.6-36.5-4.2-40 1.1-1.3 1.7-3 5.3-2.3 6.1 9.7 11.1 19.8 22 29.8 32.8 1.4 1.5 3.8 3.6 1.4 5.2-1.6 1-5.6.9-6.8-.4-9.7-10.1-19.3-20.4-28.3-31-3.9-4.6-6.7 1-10 0-3.6.6-.9 16.2-1.7 20h-.2c0 3.7.2 7.3-.1 11-.1 1.8 1.6 4.9-2.2 4.8-2.8-.1-3.5-2.2-4-4.8-1.9-9.4-2.2-19.1-1-28.6.5-3.9-5.4-3.2-7.7-5.7-1-1.1-2.1-1-3.3.4-8.5 9.3-17.3 18.3-25.4 28-1.9 2.2-2.9 6.2-5.9 4.1-8.2-7.1 27.2-31.3 25.2-40.6-.5-3.2-2.9-.8-3.9-.6-10.3 1.7-38.1 14.2-45.5 10.7-2.7-8.8 33.9-15.3 40.7-18.9 3.1-1.1 5.1-2.4 4.9-6.1-.2-2.1-.5-3.5-3-3.7-8.9-.4-17.7-2-26.1-4.9-7.2-2.6-13.2-1.3-17.5 6.8-11.8 20.6-36.7 35.8-31.1 62.8.5 2.8-.4 9.8 4.9 8 12.4-4.3 29.2 1.9 35.1 13.3 2.7 5.1-.5 14.7 6.4 15.2 13.7.9 27.2-3.4 37.9-12 21.4-18.9 25.4 22.8 59.9 23.9 12.5 3.1 9.8-12.3 11.5-20.6 1.3-11.7 18-21.2 28.3-15.8 10.6 6.2 8.8-35.7 4.7-40.8-1.2-3.1-5.8-4.5-3.9-9.6 3.5-9.2 13.1-10.4 19-16.5s11.4-12.4 13.1-20.8c.2-1-7.4-3.4-11.4-5.2-10.6-4.5-14.4-15.9-10.9-26.4 1.4-4.2 9.5-10.9 1-14.8-16.1-7.4-33.1-11.3-50.7-3.8-7.5 3.2-11.6.4-13.3-7.6-3.4-12.9-11.6-44.3-27.1-44.3zM521 1248.3c1.6.3 2.8 1.5 4.2-.7s-.4-2.5-1.3-3.5c-7.4-7.1-14.9-14.1-22.1-21.4-1.7-1.7-2.7-2.5-4.1-.2-4 6.8-11.7 11.1-13.1 19.1 11.9 2.2 24.1 4.4 36.4 6.7zm23.6 26.7c19 2.6 19.4-27.6.3-28.1-19.9-2.2-21 29.1-.3 28.1zm88.1-368.7c23-79.6 44.5-159.4 62-240.3 9.7-54.1 13.8-109 20.1-163.5 6.2-61.1 11.1-122.3 17.7-183.3.3-2.7-.1-4.5-3.7-4.2-78 3.8-157.3 8.8-235.3 7.2-5.6 0-9 .4-8.8 4.9-1.6 87.6-7.1 175.7-19.6 262.4-19.6 114.9-41.9 230.6-81.2 340.5-42.6 110.6-104.9 212.4-167.5 312.5-6.6 9.3-12.4 16.8 6 14.3 66.6 2.8 132.8 11.7 199 19.2 8.7 1.6 20.4 7.3 27.7-4.9 16-27.1 37-51 53.4-77.8 55.8-89.5 97.8-186.8 130.2-287zm89.8-254.8c-.5-5.7-8.9-12.5-10.7-11.6-6.5 3.3-.7 11.7-4.2 17.7-1.7 3 3.5 3.3 7.3 3.4 7.2 1.6 7.9-5.8 7.6-9.5zm-5.2 17.9c-3.8-.1-9.3-2.6-11.3 1.9-2.3 5.3-3.2 11.5-3.3 17.4 0 1 3.4-2.6 5.5-3.7 4.9-2.5 10-4.8 13.7-10.1-1.8-2.3-3.2-5.5-4.6-5.5zm-45 190.7c.4-.8-6-7.8-9.4-7.9-4.5-.1-2.5 7.1-6.5 10.9 6-2.2 12.2 3.1 15.9-3zM662 870.7c-12.5.6-7.2 11-10.7 16.4-.8 1.2-4.4 3.6-1.2 5.6 7.6-.4 14.6-9.2 21.1-13-2.7-4-1.5-9.4-9.2-9zm47.5-62.3c-4.1 0-7.7-2.6-10.1-10.4-3.7-10.3-8.9-20-15.6-28.8-9.2 21.6-12.1 46.1-18.6 68.8-1.7 7 5.9 8.6 9.1 12.7 2.5 3.1 8.1 2.5 9.3-.1.2-10.1-5.4-22.2-6.4-32.8-1.8-6.8 6.6-10.3 7.6-2.4 3 6.6 4.8 32.2 10.8 33.5 4.5 1.1 3.8-3.1 4.5-4.9 3.5-4.9 5.5-27.3 12.4-24.8 7.2.5-4.8 25.3-5.4 30.8-.6 1.8-1 2.3 1.2 3.3 1.6.7 1.9 1.3 3.7-.1 7-5.4 14.1-10.7 21.5-15.6 7.4-4.4 14.5 2.1 4.5 6.5-3.3 3.8-25.5 16-22.3 19.9 1.3 2.4 2.1 5.1 6.2 5.1 6.7-.4 13.5.7 20.2 2 8.4 1 10.3 11-.2 7.7-6.8.1-13.7-1-20.3-2-4.4 0-5.4 3.3-7 7.5s2.1 4.5 3.3 5.8c6.9 8.6 16.8 14.9 22.3 24.5-15.3 2.9-21-20.7-35.3-21.5-1.2 0-3.5 2.4-3.4 3.4 1.3 9.9 2.9 19.8 4.8 29.6.5 2.5 2.7 5.3-.6 6.6-13.7 3.8-3.9-38-19.1-36.8-1.7 0-4.3 4.5-4.8 7.3-1.5 8.3-6.5 14.8-10.4 21.8-1.7 3.1-4 3.2-6.5 2.6-6.4-.4 9.5-25.2 10.2-29.8 1-2.3 4.7-3.9 2.6-7.3-3.2-5.2-6.7-1.1-8.8.6-7.6 6.1-19.3 7.5-23.5 17.1-4.5 10.3-6.9 21.5-10 32.3-10 15.8 19.2-2.1 17.9 37 0 2.1.4 3.7 2.7 3.9 17 1.7 39.1-11.3 45.4-27.2 3-7.7 6.3-2.7 8.7-.4 8 7.6 16.7 12.8 27.1 10.9 3.8 0 7.1 1 9-.3 2-1.3 9.3 1.7 5.5-6-9.6-18.9 7-45 28.7-33.8 1.8.9 2.8-.1 3-2.4 1.1-9.2-1.5-17.4-5.2-25.8-22.4-26.9 11.3-14.2 9.2-60.1.8-10-27.7 7.3-35-23.7-1.1-4.5 4.3-10.5-.2-11.1-25.1-5.5-23.2 1.9-42.7 6.9zM694 888.5c22.4.1 17.5-35.5-3.8-31.9-17.4 2.4-15.9 32 3.8 31.9zM719.1 777c11.8-5.7 23-12 32-22 3.2-3.6 5.2-12.5 11.4-8.8 13.2 8.2 26.4 19.5 43 18.8 12 .3 4.2-8.4 5.1-12.3 3.7-15.9 17-24.7 32.1-19.5 2.1.7 1.8-.5 2.1-1.5 4.9-20.4 2.6-39.1-12.8-54.8-2.8-2.8-7.8-6.3-2.8-10.8 7.4-6.7 12.5-15.1 16.7-23.6 2-4 12.2-15.1-5.4-15.8-15.9-.6-25-16.2-19.9-30.9.7-2 0-2.3-1.9-2.8-13.8-3.5-26.8-2.5-39.7 4-7.9 4-8.2 3.5-10.5-1.7-9.5-18.1-12.9-41.8-32.3-52.2-3.2 9.8-18.4 10.2-17.4 24 1 11.6.3 23.3-2.1 34.7-3.5 15.9-7.3 30.6 10.5 40.7 4.3 2.4 5.7-1.7 8.6-1.8.3-.5.4-1.1.4-1.6-1.6-10.6-9.8-43-2.3-50.1 1 1 2.8 1.9 2.9 3 1.3 8.5 6.2 16.5 3.7 26.1.8 6.3 1.7 12.9 2.5 19.6.5 4.2 4.9-.7 5.8 2.5 6.1-3 9.4-31.8 17.4-26.4 4.4 2.5 0 7.7-.8 11.9-2 7.5-13.2 14.4-1.3 21 6.6 3.8 10.6-4.1 15.9-6.2 6.2-2.5 11.5-7.3 17.3-10.9 4.7-3.5 11.5 2.7 4.6 5.3-10.1 6.9-20.4 13.5-30.6 20.2-.9.6-2.2 2.3-1.9 2.8.9 1.8 2.8 4.8 3.5 4.6 9-2.6 17.8 1.4 26.8.5 4.3-.4 6.8 3.2 6.9 6.3.1 3.6-4 1.6-6 1.7-8.7.3-17.3.1-26 .1-5.8 0-3.5 6.8-7.2 8.6-.1.9.1 1.8.7 2.5 10.4 7 18.9 16 27.8 24.6 7.2 5.8 1.5 12.3-4.3 5.7-9.4-8.2-18.8-16.4-27.5-25.2-4.8-4.8-4.9 4.3-8.4 2.1-.1-.1-2.3 2-2.1 2.8 1.6 8 3.9 15.9 5.1 24 .6 7.2-6.7 12-7.8 2.2-1.8-6-1.2-26.5-8.1-27.1-1.7-.3-4.8.2-5.2 1.2-4.4 10.1-8 20.6-12.6 30.6-1.5 3.3-2.4 9.8-8.4 7.8-9.1-4.3 14.4-35.6 13.3-43.7-8.2-12-31.2 17.8-32.8 24.9-.5 4.5-2.9 9-2.8 13.5.2 12.7-13.2 24.9.5 38.5 7.2 7 9.5 20.1 24.3 12.9zm8.3-111c.8 18 32.8 26.5 35.3 1 .3-10.5-5.8-17.8-16.5-19.4-7.2-1.1-20.4 11.9-18.8 18.4zM854 1481.7c-5.1 0-13-1.2-13.3 8.3-.3 9.7 3.4 15.6 13.8 14.9 7.3-.5 6-6.7 6-7 1.1-10.2.1-16.2-6.5-16.2zm4.7-123.4c.3-15.6-21.9-14.4-21.8.4-.2 10.6 7.4 10.9 13.3 11.2 7 .3 8.5-6.8 8.5-11.6zm-2.3-188.4c1.4-18.3-21.6-17.4-22.9-.7-.3 5.5-.2 14.5 7.6 14.1 11.6-.1 15.2-7 15.3-13.4zM843 1233c-10.8-1.6-10 6.8-11 13.2-1.9 16.5 22.1 11.2 20.9-2.6-.2-5.5-1.3-11.9-9.9-10.6zM829.5 60.6c18.7 1.5 16.7-24.2 2.7-25.4-7.5-.4-11.4 5.2-13.6 12.2 1.7 6.2 3.5 13.3 10.9 13.2zm-4 1356.3c-13.8-2.3-14.7 21.8-.8 20.2 9 .5 11.2-6.7 11.9-12.5.9-6.6-5.3-8-11.1-7.7zm-13.8 121.5c-7 .8-3.4 23.2 8.6 22.4 12.8-.6 13.3-23-8.6-22.4zm-46.4-80.9c-12.1 0-11.3 24.4 1.3 23.2 14.5-.4 12.5-24.2-1.3-23.2zM762.6 56.2c12.3-1.5 5.9-25.9-4.8-23.2-14.3 1.2-13.5 26.7 4.8 23.2zm-24.7 1464.7c-11.9-.5-11.4 18.2 0 17.5 10.2.5 11.3-18.8 0-17.5zm-19.9 49.4c-2.3 1.1-4.9 5.3-4.8 10.1.3 12.2 10.3 8.2 16.5 8.2 5.9 0 4.9-7.8 4.8-10.7-.5-7.6-7.1-9.3-16.5-7.6zM675 35.4c1.1 15.9 27.5 11 27.2-8.1.6-8.1-4.3-14.8-14.4-14.5-16 .8-12.6 12.9-12.8 22.6zm-7.7 1452c-12.5-.9-11.3 23.9 3 21.7 7.7 1.3 8-6 8.5-11 .6-7.2-6-10-11.5-10.7zm-9.5-1364c20.7.9 23.1-28.6 4.7-26.1-11 1.7-10 11.9-10.1 20.1 0 5.7 4.5 6.2 5.4 6zm-5.6 397.4c-9.3-7.1-18.3-14.5-27.2-22-4.3-3.6-7.1-3.3-10.3 1.7-18.5 27.2-38 60.1-71.3 70.3-6.6 1.4-9.1-3.8-3.6-7.8 25.9-19.3 47.6-43.6 63.9-71.4 3.3-5.8-3.2-4.5-5.9-5.6-24.5-9.5-23.3-11.2-34.5 10.4-6.7 7.1-11 16.4-16.4 24.6-3.1 4.7-7.7 2.1-11.7 1.8-3-.2-3.6-2.6-4.5-5.3-5.1-16-14.2-29.8-25-42.4-12.6-19.2 20.3-17.1 27.7-18.1 11-.2 21.9.8 32.7 2.8 7.3 1.2 9.3-8 13.2-12.8 6.9-9.4 14.9-18.6 19.4-29.5-16.6 1.8-30.5 11.3-47.8 3.4-7.3-2.9-13.2-8.6-13.6-16.9-.2-4.5 3.7-8.1 8.6-4.3 27.9 22.2 51.5-11.3 71.1-.7 4.7 3.3 3.6 8.3 1.5 11.4-11.4 16.7-17.9 36.5-32.6 51-4.6 4.6 22.6 9.6 25.9 12.9 7.1 3.8 16-26.9 28.4-31.8 3.2-2 6.8-5.2 10.9-3 5 2.6 5.3 8.3 5.7 12.9 2.1 21.3 3.7 42.7 8.2 63.7 1.2 8.9-7.6 9.4-12.8 4.7zm-101-47c-8.2-.9-16.8-1.7-25.9.8 1.6 9 11.1 12.8 12.8 22.1 1.2 5.4 3.8 4.3 6.3.4 2-5.7 22.4-23.7 6.8-23.3zm93.6-.6c-.3-4.7-1.4-9.3-2.1-14-2.5 3.6-5.9 6.9-7.4 11-1.7 4.4-9.5 7.4-5.4 12.6 3.6 4.4 9.9 6.6 15 9.8 0-6.4.3-12.9-.1-19.4zm-19-394.4c16.6-.7 18.6-26.3 1.3-25.4-14.4-.6-19 27.5-1.3 25.4zm-18.5 1456.4c-7.2-.4-7.6 6.3-8.2 11.5-1.1 9.7 6.8 12.9 13.3 13.8 15-.3 9.1-26.9-5.1-25.3zm1.1-98.1c4.5-.3 10.6 2 9.5-6-.8-6 .4-13.2-10-12.4-7.5.6-10.6 3.8-10.9 10.8-.5 9.4 6.4 7.2 11.4 7.6zM588 26.9c7.5-.6 10.8-5.8 11.1-13.2.4-10.5-7.8-9.9-14-10.4-7.1-.6-8.6 4.9-8.1 11.5-1.1 7.7 2.3 12.8 11 12.1zM577 652c11.4 11 19.3 36-4 36.5-9.8-.3-12.6 5.6-14.7 12.4-3.3 10.3-2.6 19.6 8.5 25.8 9 3.8 25.7 28.3 15.4 35.7-4.5 3.7-18.2-18.6-22.4-22.1-1.9-2.2-2-.8-2.8 1.2-2.8 12-5 44.8-23.6 26.7-7.7-7-14.3-15.2-22.1-22.1-6.6-11.3-23.7 62.8-26.2 68.7-4.5 15.8-10.3 31.3-14.7 47.2-8.2 23.9-10.6 43.8 19.3 50.8 16.1 5.8 31.9 2.3 47.5-2.6 13.7-4.1 26.5-10.7 37.9-19.3 1.5-1.1 4.1-3.7 5.5-1.2 2.8 5-2.2 8-4.6 11.3-24.3 32.9-103.1 44.9-123.6 2.6-12.2-25.6 22.4-100.4 28.6-132.9 4-13.4 9.4-26.4 16.3-38.6 1.4-2.4.6-3.3-.5-4.5-12.7-14.4-5-33.3 7-43.1 6-4.9 11.8-9.7 19.2-12.5 1.6-.6 4-3.7 3.6-4.5-2.5-8.5-19.4-6-17.2-14.2 1-3.7 3.5-4.8 7.5-4.2 10.2 1.6 20.8 3.5 24.1 14.6 4.6 15.5-8.7 20.7-18.5 27.3-9.1 5-23.8 16.2-12 26.5 2.1 2.9 3.1-1.2 4.7-1.8 15.8-8.5 27.9 5.8 27.8-9.5.8-17.4 11.1-29 27.8-31.3 8-.3-3.1-15.1-3.6-19.5-3-7.1 6.9-6.6 9.8-3.4zm-47.2 77.1c-19.6-.9 3.1 14.8 7.5 20.7 1.9 2.1 3.5 3.5 5.2-.2 6-12.9 1.5-20.5-12.7-20.5zm14.2 838c-11.1-1.9-13 21.6-2.1 21.6 14.5 1.3 14.9-21.2 2.1-21.6zm-1.9-62.1c13.7 2.8 14-19.9 2.3-19.5-13.4-.6-13.8 22.2-2.3 19.5zM511.5 38.6c7.5-.7 14.4-5.2 13.5-15.6 1.8-8.2-5.5-10-10.6-9.6-12.6-1-16.7 25.2-2.9 25.2zm-.3 1011.3c24.7 56.9-37.4 101.8-87 110.8-.9.3-3.4-2.2-3.8-3.7-3.7-6 37.1-20.8 43.4-26.1 20.6-11.7 44.7-33.8 37.6-64.6-4.3-18.7-21.9-34.4-41.5-33-14.7 3.9 20.3 24.8-21.1 44.1-21.5 10.7-43.4 22.2-56.4 43.5-3.4 3.4-6.8 8.7-12.3 5.9-24.8-12.3 3.3-65.2 18.7-78.9 30.5-35.5 98.2-43.7 122.4 2zm-66.8.1c-1.5-5.5-.6-10.4-1.2-15.6-34.2 4.4-65.9 35.4-67.9 70 16.5-17 35.7-31.1 56.8-41.8 4.9-2.8 14.7-3.9 12.3-12.6zm39.2-943.1c19.9 2.7 25.5-24.7 7.8-28.4-11.3-1.1-13 8.2-14.8 17.2 1.7 3.9-.1 10.9 7 11.2zm-4.6 1450c-9.4-.3-14.6 3.4-15 12-.4 7.2 5.4 7.8 10.5 8.1 13.1 2.6 19.3-22.7 4.5-20.1zM428 58.8c9.8.2 13.8-6.8 15.3-15.5.9-10.1-6.5-10.1-12.7-10.2-15.8-1.7-19 25.3-2.6 25.7zm-14.7 1450.6c-5.8.6-9.8 5.6-8.4 12.8-.5 7.1 2 11.4 10.3 10.9 16.2-1.9 13.9-25.9-1.9-23.7zm3.9-53.3c1.6-15.9-23-10.2-21.3 3.5.2 14.1 23.4 12.5 21.3-3.5zM365.6 38.8c7.5.2 11.6-5.1 11.6-14.2.5-8.1-5.8-10.9-13.4-11.5-6.8-.5-9.5 4-8.8 10.1.9 6.8 1.3 15.3 10.6 15.6zm4.7 405.6c-1.9 5.3-8.4 3.2-13 2.3-12.7-2.4-25.3-5.3-38-7.3-1.5-.2-3.8 3.6-5.4 5.8-.3.5.8 2.3 1.6 3.2 9.6 10.3 19.3 20.6 29.1 30.9 2 1.7 2.1 4.8.4 6.7-.1.1-.2.3-.4.4-5.2 3.8-26.2-22.6-30.4-27.1-1.8-2-3.4-6.2-7.3-5-8.8 2.6-9 8.8-7.3 16.7 2.2 9.6 4 19.4 4 29.2 0 7.3-4.2 4.6-6.6.6-4.3-11.8-3.3-25.3-6.3-37.5-1.3-6.2-6.8-3.2-10.8-3.2 2.3 2.3-.2 4-1 5.5-5.1 9.1-10.5 18.1-16 27-.7 1.2-2.1 4-4.6 1.5-6.3-4.4 11.9-27 14.5-33.3 2.4-3.8 1.2-6.6-.9-9.6-2.9-4.1-6.1-.8-8.4.4-9.6 5.1-18.9 10.6-28.1 16.3-4.1 3.5-9.4-2.8-4.9-5.8 9-7.1 19-12.8 29.6-17 6-2.4 4.7-7.3 4.6-11.7-.1-3.9-3.2-4-6.4-4.3-10.2-1.1-20.5-2.4-30.6-4.2-6.7-2.7-4.7-7.4 0-7.8 12.7 1.6 22.1 2.4 31.4 4 6.1 1.1 9.6-2.2 11-6.7-2.7-10-20.2-22.3-27.3-31.2-2.1-2.2-3.5-5 0-7 7.4-5.2 24.9 23.5 30.8 28.7.8 1 3 2.1 3.5 1.8 3.4-2.4 9.1-5.2 9.1-7.9 0-11.7-1.7-23.4-2.8-35.1-.3-3-2.3-6.2.6-8.7 6.7-4.7 7.6.1 6.7 5.9 1.5 11.9 2.3 23.9 4.3 35.7.8 4.7 6.3 4 9.9 4.9 4 1 4.1-3.7 5.6-5.9 5.3-7.4 9.9-15.3 15-22.8 1.8-2.6 4.2-4.4 7.7-1.9 4.1 3-.2 5.1-1 6.4-5.9 9.4-12.4 18.4-18.5 27.7-3 4.6 2.4 7.1 3.5 10.8.8 2.9 2.7-.7 3.9-1.1 12.8-3.9 25.5-8.4 38.3-12.5 2-.6 4.8-.2 5.4 2.7 1.6 7.1-37.9 16-44.7 18.5-.9.2-1.5 4.4-.9 6.3 1.3 7 55.4 5.8 51.1 14.7zm-59.6-17.9c-2.8-27.9-38.1-19.7-37.6 7.9-1.4 10.7 6.8 14.9 16 16.3 10 1.4 22.6-12.7 21.6-24.2zm45.2 1126.4c-10.4-2.2-9.7 19.3.3 18 12.9 1.3 13.8-18.7-.3-18zm-15.8-79c-5.8-.1-10.2 3.2-9.7 9 .4 4.5-2.4 12.3 7.8 12.2 12.1.8 15.3-20.5 1.9-21.2zm-25.7 45c-6.4.4-13 0-13.5 8.9-.4 6.7 1.1 12 9.1 11.4 13.3 2.6 18.2-20.5 4.4-20.3zM288.2 32.7c5.7-.4 11.9-3.3 10.9-11.5.3-5.2-1-10-7.1-10-14.4-2.1-18.7 21.2-3.8 21.5zm-17.1 1530.6c-6.5-.9-6 5.3-6.4 11.8-1.4 8.2 7.4 9 12.7 9.1 5.7.1 7.3-7.3 7.3-12.1 0-8.4-8.3-8-13.6-8.8zM213 53c17 1.1 16.6-25.4-.2-23.9-13.7-.2-13 24 .2 23.9zm-2.6 57.9c13.9 1.2 12.2-22.8-.6-21.4-15.2-1.2-14.5 21.7.6 21.4zm-10.7 1444c-12.4-2-12.2 22.5 2.6 21.7 13.3.1 12.3-23.9-2.6-21.7zM158.6 74c8.2-.2 10.7-5.1 10.5-12.4-.3-6-.9-12.1-8.9-11.5-5.3.4-13.9-2.1-13.8 6.7.1 7.3-.3 17.5 12.2 17.2zm-28.1 1453c-14.1-2.6-15.6 20.7-1.8 20 5.7-.3 12.1-.9 12.2-8.3 0-6.3-1.4-13.1-10.4-11.7zM121.2 26.5c16.4 2.1 17.6-26.4.7-25.2-14.8-1.2-13.4 24.1-.7 25.2zm-.2 130.1c-10.2-.1-12.5 9.3-13.6 16.3-1.3 8.8 7.5 11.8 14 11.7 16.6 1.2 16.6-28.7-.4-28zm3.8 1300.2c3.3-12.2-7.4-10.3-13.5-10.7-10.2 1.5-7.2 22.9 5 21.1 6.9-.2 9.9-2.9 8.5-10.4zM105.2 338.9c9.5-1.2 7.9-10.1 9.4-14 1.5-9.6-4.9-11.8-8.7-11.5-16.8-.5-19.7 27.9-.7 25.5zm-3.1-224c12.8 2.2 11.5-7.5 11.8-15 .3-8.2-7.2-7.4-11.8-7.4-7 0-10.3 5.6-9.7 12 .4 5.3.6 12.5 9.7 10.4zm6.9 983.5c3.9-13.7-17.7-18.9-18.7-4.8-2.3 18.4 21 19.1 18.7 4.8zM97.3 863.6c11.2-.8 10.3-22.4-2.5-21.1-8.6 0-9.2 6.8-9.7 12.5-.7 8.6 6.9 8.7 12.2 8.6zM72.2 744c-.9 8.3 5.3 11.6 12.1 10.6 11.4-.6 12.9-24.3-1.8-21.6-8.8-1.9-9.6 5.4-10.3 11zm.4 396.5c-13.7-.6-13.4 24.5 1.4 24.6 9.8.4 11.6-6.4 11.9-13.3.3-8.4-4.7-11.9-13.3-11.3zM69.1 231c-8.8.5-9.8 7.1-10.8 18.1-.2 1.1 2 5.9 7.2 5.4 6-.6 15.2.2 15.2-9.2-.1-6.5-1.4-14.9-11.6-14.3zm-.5-173.9c8.6 1.2 8.5-5.7 9-11.1.7-7-1.5-13.2-9.9-12.9-15.7-1.1-15.7 25 .9 24zm-9.5 1420.3c-10.1.7-9.4 20.6 1.3 22.1 4.1-3 11.9-2 12.5-9.4.8-9.5-6.6-12.5-13.8-12.7zm-2 83.2c-10.3 1-10.8 20.1.5 18.7 16.6 2.1 14.8-21.8-.5-18.7zm-6.8-160.4c.2 6.3 2.5 11.2 10.7 11 12.4 1.1 8.2-22.8-2.3-21.9-6-.1-8.6 5.2-8.4 10.9zm3.6-371.6c10.7-.2 8-10.2 8.9-16.6.8-5.5-2.7-11.3-8.3-10.7-16.7.5-14.1 28.3-.6 27.3zm-9.1-610c18.3-.3 18.7-27.1 2.1-25.6-14.9-1.3-16.1 25.5-2.1 25.6zm13.9 847.2c.1-10.1-20.5-13.6-19.1 1.8.1 3.7 1.1 11.1 8.6 9.4 8.7.8 10.3-5.8 10.5-11.2zM48.8 165.2c15.9 1.3 10.6-25.3-2.1-25.8-10.9-2.2-16.2 26.9 2.1 25.8zm-3 634.2c6.9.1 9.8-3.8 9.3-11.3 2-8.5-4.1-12-11.2-11.8-11.6.7-13.3 24.7 1.9 23.1zm-7.2-471.5c11.7-2.1 8.7-24.9-4.2-23.1-15.3-.7-15.9 26 4.2 23.1zM30.4 1070c-15-1.4-15.5 25.5.3 25 9.5.1 9.6-7.4 10.2-13.6.7-7.1-3.7-11.1-10.5-11.4zm-13.3 221.3c-13.8-2.9-21.3 21.8-2.8 25 6.1.5 11.5-3.8 11.3-10.3-.1-5.7.1-14.3-8.5-14.7zm-6.6 230.2c-14.1.4-12.2 27.4 2.6 25.7 18.8-.9 13.6-27.5-2.6-25.7zm-.2-60.3c4.6-.2 13.2 3.4 12.8-8.6-.6-5.5-1.6-13.1-10.5-13.4-6.5-.3-10.8 4.1-10.5 11.2.2 5.4 2 11.2 8.2 10.8z"/></g><g><path d="M52 1548v15l-37 37h946l-37-37v-15H52M52 52V37.7L14.3 0H0v1600h15l37-37V52m872 0V37.7L961.7 0H14.3L52 37.7V52h872m52-52h-14.3L924 37.7V1563l37 37h15V0z"/><path d="M961 1600h15V0h-14.3L924 37.7V1563l37 37H0V0H961.7M52 52V37.7L14.3 0m.7 1600l37-37V52h872m0 1496H52" fill="none" stroke="#333" stroke-width="2" stroke-linecap="square" stroke-miterlimit="3"/></g></svg>