<svg xmlns="http://www.w3.org/2000/svg" xmlns:xlink="http://www.w3.org/1999/xlink" viewBox="0 0 976 1600"><path d="M960 22v1556c0 3.3-2.7 6-6 6H22c-3.3 0-6-2.7-6-6V22c0-3.3 2.7-6 6-6h932c3.3 0 6 2.7 6 6z" fill="#fff"/><defs><path id="a" d="M960 22v1556c0 3.3-2.7 6-6 6H22c-3.3 0-6-2.7-6-6V22c0-3.3 2.7-6 6-6h932c3.3 0 6 2.7 6 6z"/></defs><clipPath id="b"><use xlink:href="#a" overflow="visible"/></clipPath><g clip-path="url(#b)"><path d="M736.1 1501.2c-69.3-7.2 13.9-58 43-42.5 6.6 13 5.9 5.1 14.9 10-9.5 22.6-41.2 32.1-57.9 32.5zm-125-55.9c-55.2-6.2 12.4-59.4 41.6-53.2 19.3-.3 12.5 3 20.3 13.7 2 .9 2.9 3.2 2.1 5.3 0 0 0 .1-.1.1-9.2 21-40.9 34.4-63.9 34.1zm-119.9-68.1c-57.2 3.9-11.5-46.8 23-42.2 6.2 2 36.5-2.9 32.5 10.2-4.6 4.8 5.3 9.7 0 13.8-17 12.2-35.2 18.2-55.5 18.2zm305.1-14.7c-22.5-3-48.3-93.4-12.5-81.2 18.1 11.7 49.9 79.4 12.5 81.2zm-147.9-56.3c-27.8-18.3-51-55.7-36.4-84.8-1.7-3.6-.2-8.7 4.5-7.7 28.9 12.3 50.8 54.3 34.2 80-1.6 4.4 5.7 11.5-2.3 12.5zm123-192.5c-17-27.4 17.3-78.2 40-64.9 16.2 24.4-10.7 51.3-24 62.5-6.6 2.1-8.4-3.5-16 2.4zM623 1051.8c-34.3-5.1-53.1-20.2-65.9-49-1-3-.8-6.9 2.9-7.5 5.6-1.6 5.5-9.4 12.9-8.5 23.4-2.9 85.1 46.8 50.1 65zm69.7-7.9c-19.2-21.3 9.4-63.7 23.1-76.6 5.9-6.7 12.1 2.4 18.7-2 19.1 17.8-1.7 63.3-24.4 77.8-8.4.9-7.1-6.1-17.4.8zm-95.3-133.2c-78.9-5.7 14-67.9 48.8-42.7 18.6 31.8-24.2 42.9-48.8 42.7zm-146.6-24.2c-39.4-17.2 23.8-72.2 49-70.9 36 17.2-24.4 72.2-49 70.9zm-109.1-7.1c-19.2-15.3 25.5-96.1 53-66.9 17.1 21.8-14.1 51.1-31.7 62.2-8 8.7-11-5.2-21.3 4.7zm464.9-22.5c-24-27.2-10.8-101.8 31.4-111 19.8 32.6 6.1 76.3-14 100.1-21.5 2-6.3 4.9-17.4 10.9zm-587.8-4.2c-7.2-1.8-.9-11.1-10.4-14 2.4-27.9 40.2-41 66.5-41.6 20 4.7-.4 6.9 21.6 17.3-6.2 33.7-49.2 38.4-77.7 38.3zm503.1-60.4c-29.8-.4-42.1-162.7 17-87.4 14.5 24.4 13.6 56.4-.6 78.5-3.5 4.5-10.7-.7-12.6 6.1-.6 1.7-2.1 2.8-3.8 2.8zm-426.6-24.4c-21.8 0-37.1-13.2-52-26-8.6-42.5 65-16.7 80.5 3.8 1.4 1.7 1.1 4.3-.6 5.7-.2.1-.4.3-.6.4-6.5 15.8-9.3 15.9-27.3 16.1zm292.3-47.6c-41-11-66.1-48.2-64.1-78.1 18.5-18.2 44.8-.5 55.2 18.7 6.4 14 26.5 35.9 12.2 48.9-1.1 3.8 3.3 10-3.3 10.5zM565.3 608c-21.3-1.3-34.9.4-44.4-22.8 8.6-27.2 60.7-24.6 79.5-1.8-3.4 4.1-1.5 7.7 1 11.5-5 11.5-23.6 12.1-36.1 13.1z" fill="#333"/><path d="M154.9 1298.1c-75.4-13.4 25.5-57 51.5-63.5 8.7.2 7.1 10.2 4.4 15.8-4.9 23.7-28.4 48.9-55.9 47.7zm160.1-8.2c-35.8-8.1 3.8-67.5 23.3-75.2 19.5 10.1.1 76.4-23.3 75.2zm85.9-32.3c-31.3-4.1 6.4-68.8 24.3-76.2 15.2 21.5 3.9 71.8-24.3 76.2zM219 1164.8c-20.1-3.3-40.7-8.4-55.9-27.5-20.2-57 93.5 16.5 55.9 27.5zm81.6-54c-19.6-3.5-68.4-57.1-32.3-70.3 20.5 10.3 44.2 50.5 32.3 70.3zm85.6-39.1c-55.7-30.3-36.3-112.6-5.5-64.5 6.8 19.1 18.7 44 5.5 64.5zM260.4 611.5c-18-.6-43.5-6.5-39-30.8 14-34.8 116.8 33.3 39 30.8zm498-40.8c-100.3 2.7 16-61.8 36.2-23.4 7 21.2-23.4 21.3-36.2 23.4zm-507.4-37c-21.8 1.3-64.6-13.7-48.1-40.6 14.9-17.4 103.2 44.9 48.1 40.6zm153.6-6.9c-18.8-10.5 28.3-42.5 40.3-48.9 12-6.6 26.3 2.7 26 16.9-1.6 28.6-44.8 25.5-66.3 32zm167.9-27.1C503.4 493 485 390 546.7 448c5.7 10.2 45.6 47.1 25.8 51.7zm164.3-5c-87.6 2.1 51.4-80.5 55.6-23.9-6.1 22.7-36.4 22.7-55.6 23.9zm-503-56.2c-68.1 6.5-85-62.4-35.3-42.2 7.7 5.8 53.9 33.3 35.3 42.2zm137.7-3.3c-15.1-14.4 31.7-57.7 46.9-51.8 65.5 7.9-18.6 57.1-46.9 51.8zm224.9-33.7c-32.2-1.7-92.2-61.1-48.1-83.2 31.9 3.1 47.5 43.7 52.1 72 1.8 3 2.2 11.5-4 11.2zm133.1-.3c-44.2-6.9 51.3-69.7 66.6-42.9 15.9 33-45.9 39.9-66.6 42.9zm-399.3-52c-21.8-8.6 22.5-51.8 32.8-54.8 12.7-7.6 32.3-2.6 32.7 14-10.7 22.9-41.2 37.5-65.5 40.8zm-132.1-9.8c-22.6.8-89.5-42.7-49.7-58.8 10.9-1.8 84.6 61.3 49.7 58.8zm458.2-30.9c-18.2-13.4-14.2-50.3-11.4-67.2 2.1-12.5 37.1-45.9 40.7-16.6 4 29.3-10.7 65.2-29.3 83.8zm-397.7-23.6c-78.5-71.7 19.7-141.2 12.9-57.2-5.5 18 .6 44.8-12.9 57.2z" fill="#d81e1e"/><path d="M973.9 1524.6c-34.9-42.3-81.9-73-126.9-104-7.4-4.7-18.5-8.4-20.8-15-4.4-12.6-13.5-23.7-8.1-40.7 10-33.4-9.5-72.2-37.4-92.2-10-6.9-10.5-1.1-13.8 4.4-3.5 5.7-5.7 12-6.6 18.6-3.8 28.1 7.1 49.9 25.8 70 6.2 6.7 18.5 5.6 20.2 17.2.8 5.3 1.9 10.8 6.3 15.7-12-2.1-20.9-8.4-30.5-12.8-12.1-5.5-24.5-10.2-36.9-14.7-9.5-3.5-19-6.8-28.5-10.3-10.3-3.9-24.8.3-30.4-14.4-3-15.9-18.5-26.1-22.9-41.7-4.1-15.7.4-32.3-3.9-48.5-5.2-19.8-16-34.4-33-44.9-8.8-5.4-18.9-10.1-23.2 4-10.2 34.5 7 72.9 34.8 94.9 6.3 4.6 15.5 2.2 19.6 8.8 6 10 12.7 19.5 20.1 28.5.6.7.5 2 .8 3-12.2.2-24.4-4.1-36.7-5.4-23.5-3.6-47.3-5-71-4-3.3.1-7.1 1.6-9.5-.7-19.5-18.5-43.6-12-65.5-10.3-17.9 1.4-31.5 14.7-37.4 32.6-1.8 5.4-4.4 12.9 5.5 16.7 28.4 8.8 61.4 5.3 85.1-13.2 5.3-4.2 10.1-12.2 15.5-12.5 49.8-3.3 99.8 4.9 147.5 19-.5.7-.8 1.8-1.4 1.9-13.1 3.2-21.1 17.3-38.5 13.1-20.3-4.9-41.2-1.6-60.5 9.1-12.2 4.1-39.7 39.5-24.1 48.4 31.2 14.6 67.1-.2 89.3-24 8.7-8.9 8.3-24.3 23.4-28.8 10.1-3 19.3-14.6 28.5-14 14.3.9 27.5 8.1 40.3 14.1 26.4 12.5 53.1 24.8 77 41.8-8.7 6.4-19.9 8.4-29.7 12.8-6.8 2.6-14.4 8.5-20.3 7.2-16.3-3.6-31.9-6.4-48.9-3.7-21.1 3.5-36.9 12.7-45.1 32.4-1.8 4.3-7.8 11.5.7 15.5 32.3 18.5 68.3 5.3 94.5-17 7.1-5.6 5.3-17.5 16-20.5 8-2.3 15.5-7.3 23.5-8.7 9.6-1.6 15.8-14 29.7-4.1 23.5 16.8 47.3 32.9 68.5 52.5 10.6 9.8 23.7 17.1 32.1 29.4 3.9 6.8 12.5.8 6.8-5.5zm-199.7-242.5c3.7 26.9 13.9 51.5 22.2 76.3-21.9-16.5-30.6-45.6-22.2-76.3zm33.5 73c-9.4-22.1-17.7-44.3-23.9-69.8 16 14.9 32.2 59.9 23.9 69.8zm-196.8-114.3c-.5-3-2.3-5.6.2-8.4 14.5 23.2 23.5 45.1 37.4 69.7-21.8-16.8-33.7-36.6-37.6-61.3zm41.2 45.8c-7.2-15.3-17.4-28.2-23.3-43.5-2.9-9.1-10.9-16.3-13.5-25.5 26.5 11.1 38.7 41.2 36.8 69zm-180.7 70.8c19.4-23.2 46.1-19.4 72.2-15.5-.1.3 0 .8-.2.9-2.3 1.3-4.7 2.6-4.9 2.7-26.4 1.3-46.3 9.6-69.3 15.5.6-1.2 1.4-2.4 2.2-3.6zm-3.9 13.2c25.9-6.9 50.7-12.5 76.8-14.8-23.3 16.7-48.4 20.7-76.8 14.8zm196.2 26.5c.7.2 1.3.6 1.9 1-.9.9-1.7 2.2-2.8 2.6-24.3 9.1-44.5 24.6-69.8 31.9 9.6-27.5 45.6-40.3 70.7-35.5zm-20.4 37c-13.3 5.8-27.8 8.8-43.8 6.2 20.3-8.2 40.1-15.6 58.3-26.3 4.2-2.5 8.8-4.1 13.6-4.6-5.9 12.2-16.6 19.7-28.1 24.7zm131.8 27.1c.8 0 1.5.8 2.3 1.2-17.9 9.9-39.3 14.3-58.5 22.1-1.6.6-3.6.4-6.1.6 15.7-23 38.6-24.7 62.3-23.9zm-58.6 32.9l74-23.3c-20.8 19.9-43.9 32.6-74 23.3zm-145.6-394.8c27.3-2.4 54.5 1.2 81.5 4.3 12.3 1.4 25.8 2.5 36.3 10.5 14.8 11.2 26.5 25.5 39.1 38.9 83.4 83.6 155.5 177.6 238.9 261.2 3.8 2.9 9.8 1.6 4.3-4.1-47.3-64.2-103.6-120.6-153.9-182.3-18.5-20.4-37.6-40.4-56.6-60.4-1.2-1.3-.8-1.2-.1-2.7 3.9-8.7 6.5-18.1 11-26.5 3-5.7 3.1-15.5 9.8-16.4 21.6-5.2 44-37.7 41.1-60-.7-7.4-.1-16-7.2-20.6-28-14.3-55.9 31.1-56.2 55.5-1.1 15.2 6.7 29.3-.9 46.1-7.9 17.5-11.4 12.2-19.7 2.4-12.7-15-26.6-28.8-41.7-41.3-7.7-6.4-14.3-14.1-5.9-26.3 6.9-10.1 8-24.5 22-29.2 25.8-9.9 51.4-73.6 21.8-90.2-9.3-4.8-16.9 2-24 6.7-14.1 9.5-21.8 24.1-27.4 39.6-4.3 11.8-5 23.8-2.8 36.7 1.1 6.6 8.8 10.5 6.1 17.5-3.1 8.1-6.9 15.9-10.2 23.6-6.5-5.8-13.5-11.7-20-18-5.2-4.9-14.7-8.5-14.5-15.2.6-23.8-13.9-38.9-28.4-53.8-12.4-12.8-29.5-15.7-46.2-13.2-15.6-1-21.9 1.9-16 21.2 9.4 29.5 31.5 48.6 61.8 54.1 7.2 1.4 17-1.2 21.4 2.7 13.8 12.3 25.5 26.8 34.2 36.2-76.2-17.7-160-1.2-234.4 20-7.9 3.1-13.3 11-20.5-2.5-25.5-39.4-9.5-87.5-34.3-121.1-42.4-27.5-41.7 47.3-16.4 64.8 7.5 6.7 18.6 10.8 23.5 18.8 8.7 14.2 13.6 30.7 21 45.8 2.7 5.5-2.5 4.5-3.3 4.6-17.1 3.3-32.8 10.8-49.2 16.2-8.2 2.7-15 9.5-22.6-2.6-8-12.6-23.7-19.2-23.6-38.3.1-24-10.9-44.5-28.3-61.4-35.2-28.2-37.3 33.5-16 48.5 9.8 8.9 19.9 17.3 30.1 25.6 13.9 11.2 24.7 26.5 39.9 37.9-19.2 5.8-35.5 19.3-53.7 28-4.5 2.5-11.8 7.9-13.2 6.7-21.6-15.7-29-18-40.9-43.9-12.3-18.2-49.8-48.8-69.5-27-7.1 7.9-4 16.1.4 24.4 5.2 9.9 15.2 12.8 23.5 18.5 18.8 12.8 44.5 5.2 61.9 21.7 4.5 4.3 9.6 8 14.4 12 1.7 1.4.1 1.3-.9 2.1-7.8 6.1-15 13.1-23.3 18.4s-11.8 18-26 15.7c-29.4 3-58.2 18.2-81.1 36.4-5.3 3.8-11.4 10.7-8.3 19.5 22 48.1 96 11.1 100-31.8 1-6.7-2.1-16.1 3.1-20 40.6-31.3 85.3-56.3 131.7-77.9-2.1 9.5-6.3 18.1-8.1 27.7-1.7 8.9-4.9 19.3-11 25.4-20.3 20.2-40.3 39.8-38.3 71.5 1.2 14.6 17.5 21.8 30.2 14.8 22.7-14.6 26.5-48.3 24.5-72.9-.6-5.9-6.5-9.8-3.6-16.7 4.5-10.8 6.5-22.7 11.2-33.3 3.6-8.1-.6-19.9 14.3-23.3 18.7-4.3 36.6-12 55.9-18.9 1.3-.5 2.6-.9 3.9-1.4-5.8 11.7-6 20.9-8.6 32.1-5 16.4-16.7 29.5-26 43.7-13.3 17.1-27.7 69.2 10.4 60 29.8-10.8 38.5-62.2 23.8-87.5-3.3-4.9-1.2-10 .5-15.2 2.5-8.1 5-16.3 5.5-24.6.5-9 4.5-12.1 12.3-13.7 40.5-7.5 80.1-21.3 121.5-23.8zm240-46.6c5.2 26.3-9.9 41.1-26.2 55.6 8.4-17.8 16.8-35.7 26.2-55.6zm-9.4-3l-30.1 60c-4.8-30 16.5-56.7 30.1-60zm-67-80.3c8.6 11.4-.8 54.5-26.5 70.4 9.2-24.7 17.9-47.9 26.5-70.4zm-43.3 56.4C687 1007.2 726 952.4 723 973c-.7 2.1-1.1 4.4-2.3 6.2-13.4 18.2-15.2 43-28 60.7-3.1-4-1.1-9.5-1.5-14.1zm-110.4 4.4c-9.2-8.6-16.6-19.2-20.2-30.9 23.6 13.1 40.2 32.6 62.4 48.5-17.4-3.1-30.6-7.7-42.2-17.6zM568.7 992c21.5-7 60.9 26.4 61.8 48.6-19.5-17.6-40.1-33.9-61.8-48.6zm-181.4 60.5c-.4 5.1-.7 10.1-1.1 15.2-3.9-3.4-7.7-6.9-11.6-10.3-12.5-9.8-34.1-53.4-11.1-59.9 15-5 25.2 44.1 23.8 55zM296 1105c-14.5-6-52.7-49.9-29.4-60.9 22.7 12.1 31.5 38.6 34 62.6-1.6-.4-3.1-1-4.6-1.7zm-81 55.6c-11.8-2.5-58.8-16.5-49.2-37.3 13.9-18.8 79 42.6 49.2 37.3zm-6.1 82.8c-5.4 17.3-11 34-28.5 43.8-17.7 9.7-41.3 10.6-49.8-5.4 2.4-10.5 12.2-11.6 18.3-16.8 15.8-13.7 36.7-16.3 54.6-25.6 2.8-1.4 6.5-1.3 5.4 4zm133.3-14.4c-1.8 14-3.4 28-9.1 41.4-7.1 19.2-30.9 21.4-28.1.4.2-10.9 6.3-20.9 13.8-30.4 4.8-7.6 22.7-36.4 23.4-11.4zm69 20.1c-4.4 4.3-11.4 6-15.9 2.8-10.7-13.5 16.9-57.1 28.9-66.7 7.2 20.1 2.8 48.7-13 63.9zM205.5 343c2.5-.3 4.2-2.5 7.7-1 15.3 6.8 30.9 12.7 46.3 19.2 6 2.5 15.1 4.4 16.9 8.9 10.3 25.7 15.2 53.3 26.3 78.9.1.3-1 1.7-1.3 1.6-17.3-5.9-35.2-10.5-51.6-18.2-13.6-6.3-19-22.6-32.4-30.6-11.5-7-21.9-15.7-35.9-16.7-20.3-.9-22.9 25.8-11.2 37.8 18.4 23.1 49.1 19.5 74.5 19.3 14.9 2.5 29.3 9 43.3 15.3 7.5 3.4 17.6 2.6 21.2 13.8 6.1 19.1 13.8 37.6 20.7 56.4 1.5 4.2 4.5 10 2.9 12.5-1.9 3-6.4-1.9-9.8-3-5.2-1.7-11.4-1.6-15.7-4.5-10.2-6.8-23.4-1.5-33.5-12.3-15-16.9-73.1-63-80.8-19-1.9 32.4 43.5 41 68.4 35.8 20-7 40.2 5.1 59.4 10.1 6.4 2.3 15.6.5 18.9 7.1 1.6 5.2 28.7 58.2 18.5 54.4-15.7-2.6-31.4-5.3-47.1-8.1-5.5-1-13.7-.4-15.9-3.7-14.4-22.1-35.7-29-60.3-31.5-16-1.5-24.7 15.4-18.7 28.3 9.2 19.5 41.6 29.7 62.3 20.4 6.3-2.8 13.4-7.3 19.6-6.5 16.6 1.9 33 6.1 49.5 9.5 7.1 1.5 18.6 1.1 20.5 5.2 9.1 19.1 18.7 37.9 28.7 56.4 13.7 25.2 29.3 49.4 49.9 69.6-4.9 3.4-10.5 3.8-16.2 4.9-13.6 2.4-26.8 7-40.5 9.4-25 9.3-22.2 7.2-46.5-3.8-6.6-3.3-12.5-7.8-16.1-15.7-17.3-31-65.8-37-96.6-23.4-4.1 1.9-10.1 6.5-6.1 9.9 8.7 7.4 14.5 17.2 23.4 24.6 16.1 13.5 32.9 19.9 53.6 19.5 27.5-5.8 21.5-15.5 51.6.3-7.5 4.8-16.6 7.7-25 10.5-12.7 3.4-22.8 14.3-38.5 9.7-32-9.3-59 1.4-81.5 24.7-13.5 13.3-17.6 34.6 6.2 37.9 31.3 6.7 70-.7 85.2-32.3 3-6 2.1-14.5 10.7-17.5 35.6-12.9 70.1-26.5 106.9-36-5.3 5.9-9.9 11-14.4 16.2-3.2 3.7-6.1 10.4-9.5 10.6-19.2 1.2-32.7 11.7-45.4 24.5-14.9 15-18.3 33.7-17.5 53.4.2 5.7-.6 17.4 9 14.6 28.3-7.5 63-30.5 63.7-63.3-.3-10.9-4.4-21.9 5.8-31.1 13.3-10.4 17.7-29.6 36.8-30 38.8-7.6 80.6-5.4 117.2 9.6-15.2 10.5-30.5 21.1-46 31.5-2.5 1.7-5.9 4-8.3 3.4-9.1-2.3-18.2-.6-25.8 2.6-27 11.3-45.8 30.5-53.4 59.7-3.5 13.6.3 20.3 12.7 20.2 32.8-.7 78-28.4 75-65.7-.4-4.5.8-7.6 4.5-10.2 12.7-9.1 25.3-18.4 38.1-27.4 4.2-2.6 12-10.7 16.8-9.4 17.6 8 34.4 17.9 50.8 28.1 24.8 18.6 50.7 33.4 72.3 56.7-16.2-2.8-29.4 7.8-44.7.2-7-4.1-14.7-6.9-22.7-8.2-30.6-4.7-55.1 7.5-74.7 30-2.6 3-11 7.9-1.7 14.6 29.4 22.3 90.5 23.9 101.6-18.9 3.4-5.2 24.7-6.4 31.4-7.5 9.2-.9 17.1-6.2 25.6 2.3 57.5 56.7 101.7 123.7 152.4 186.1 34.1 44.5 66.8 90.1 102.2 133.7.7.9 2.5 1 3.8 1.4-8.7-40.1-42.6-69.2-63.6-103.3-33.9-46.9-70.7-91.6-104.8-138.4-5.3-7.8-13.4-13-8.1-25.7 6.3-15.1 7.9-32.2 13.1-47.8 8.8-39.6 33.1-29.9 43.2-75.6 3.2-18.1 7.3-53.2-8.2-66.2-20.3-13.9-46.6 22.8-51.7 40.3-7.5 23.8-8.2 46.9 1.6 70.5 2.3 5.6 11.1 7.8 8.5 14.6-8.1 21-12.2 43.1-18.5 64.4-57.8-63.2-35.9-42.1-47-121.5-3.9-19.8 12.3-16.1 17.3-48.7 6.8-30.1-7.1-87.6-47-82-6.4 1.4-10 7.6-12.2 13.1-13.1 33.4-8.6 74.3 16.8 100.8 6.7 6.7 14.3 11.7 14 24-1.4 17.7 5.6 36 4 53.6-6.2-4.8-12-10.3-17.2-16.2-12.5-15.1-33.4-21.6-40.4-42.7-21-63.3-25.8-130.8-24.8-197-3.1-22.6-1.4-21.8 19.8-29.2 51.4-31.3 72.2 6.7 119-12.7 15.9-5 26.5-26.5 10.3-37.5-18.2-13.9-37.3-9-55.9-1.1-11.6 5-19.5 16.7-30.2 21.6-19.5 8.9-39.5 17-58.7 26.6-3 1.5-5 0-4.8-4.2.7-13.7.4-27.4 1.6-41 .5-5.6-2.1-12.7 5.7-16.4 8.4-4 16.5-8.8 24.8-13.2 7.9-4.2 16.8-13.2 23.5-11.8 25.4 5.5 49.8 8 75.1-.7 30.3-11.4 29.5-48.2-6.4-52.5-25.7-.8-45.1 13-62 29.3-16.1 15.5-35.6 25.5-53.2 38.5-1.7 1.3-4.4 1.1-6.7 1.6 0-17.7 1.5-35.3 1.5-53-.5-11.7-1.2-25 12.8-28.2 22.4-6.6 36.8-27.2 63.7-24.9 25 5.5 83-11.1 81.3-43.4-12.2-32-54.5-16-73.9 1.1-10.2 8.4-16.8 20.3-26.7 28.2-15.9 12.7-35.1 21.6-52.5 32.1-6.3-3.8-1.7-15.2-1.6-21.4 1.7-17.7 2.7-35.4 3.1-53.1.3-10.5-.4-22.2 3.8-31.3 17.8-27.6 37.6-57.5 34.2-92.4-1.1-11.7-10.8-24.7-18.6-22.9-49 8.8-50.8 71-30.5 106.9 1.9 3.7 6.9 7.6 6.2 10.4-5.4 22.1-3.8 44.8-6.8 67.1-.9 6.6-3.4 13.6-1 21.1 1.4 4.3-2 10.1-3.2 15.2-66.5-41.2-15.8-54.5-64.7-100.3-22.4-24-60.2-10.7-47.2 27.8 6 22.8 22.8 37.4 43.6 47.6 12.5 6.1 28.7 1.8 39.1 14.8 8.8 11.8 29.1 15.1 28.6 33-2.3 26.3-3.4 52.8-5.1 79.1-.2 2.4 3.9 4.9-.3 7.4-3.5 2.1-3.9-2.4-4.7-3-18.5-16.5-40.6-28.7-53.8-51.3-12-20.2-23.3-42-46.1-53-8.1-3.9-16.9-5.6-23.9 3.1-20.1 27.4 22.7 63.6 47.4 70.6 9.6 3.2 21 .1 28.5 5.1 16 10.5 30.1 23.8 44.8 36.2 2.9 2.5 9.1 1.2 8.6 8-.8 10.5-1.3 21.1-1.2 31.6 0 5.3-2.7 4.3-5.9 4.2-16.6-.5-27.8-13.1-42.2-18.7-18.9-7.3-37.6-12.8-56.3-1-64.1 43 55.2 71.3 83.6 30.6 6-2.2 13.6-1.1 20.2.3.7.1 1.1 2.3 1 4.9-4 13.5.5 20.8 1.5 33.9-3.5 37 .9 73.6 4.9 110.3-12.8-14.8-39.4-17.9-37-43.7-11-29.6-26.5-74.2-66.6-72.5-32.6.2-21 31.4-12 49.9 11.6 24.2 35.8 48.5 64.3 46 1.8-.2 2.7-3.6 5.7-.7 8.7 8.7 18.4 16.3 29 22.7 7 4.3 16 8.5 19.4 15.1 6.8 13.2 5.6 29.4 12.6 43.1.4.8-.1 2.2-.2 3.3-54.2-37.6-116.8-68.3-184.3-62.2-9.4 3.3-15.1 7.5-21.4-5.6-33.3-50.7-63.3-103.5-86.4-159.7-2.7-7.4-13.5-16.9.2-25 11.3-4.3 19.1-19.3 29.5-22 24.3-6.2 78.4-4.9 82.7-36.1 1.7-9-1.7-15.1-6.3-21.1-17.8-18.6-41.3 3.3-56.2 15.3-11.5 10-17.1 24.8-27.8 35-10.1 9.6-22.4 17-33.6 25.3-6.5-16.9-13.7-34.2-19.9-51.9-3.9-11.1-15-23.8 2.3-33.2 13.9-7.6 21-24.3 40.3-25.7 24.6-1.8 48.5-7.5 65.3-29.5 6.4-8.3 10.8-14.7 5.6-24.5-22.8-31.4-69.6 2.5-82 29.5-2.7 5.3-.9 13.9-4.6 17.3-12.1 11.1-25.7 20.5-40.9 32.1 4.3-6.9-1.6-8.1-2.7-11.8-5.6-17.8-11.6-35.5-17.4-53.2-11.1-21.9-.5-22.4 13.4-36.4 8-8.6 19-7.5 28.5-11 19.7-6.7 65.5-26.7 60.9-52.7-21.1-40.9-69.5 3-79.7 29.4-3.3 7.2-.8 16.3-7.2 22-7.7 7-16.3 13.1-24.3 19.9-6.6-15.1-9-31.9-13.7-47.7-4.4-17.6-9.9-34.1-5.5-53.5 6-26.3 21.1-78.6-14.9-89.7-8.7-1.8-17.4 2.2-24.1 8.2-21.1 18.8-12.1 53.6.6 74.7 6.5 10.8 18.8 19 23.9 28.8 9.6 18.7 11.9 40.6 17.2 60.8.2.8-.4 1.8-.6 2.6-6.8-3.1-13.6-6.3-20.1-9.9-14-8.1-31.3-8.2-43.3-22-15.4-17.5-30.5-35.8-51.6-47.6-6.6-3.7-23.9-2.5-26.2 3-14.3 38.7 43.6 65.4 72.5 62.9zm28.5 91.5c-17.6-.5-33-2.7-47.1-9.7-12.3-6.1-17.1-22.4-8.3-27.9 12.5-8.4 51.1 25.6 56.4 37.2l-1 .4zm32.4 92.2c-15.9 7.7-40.1.7-55.3-8-6.4-3.8-5.8-10.4-8-14.9.6-29.8 56 13.5 63.3 22.9zm18.6 76.4c-.7 1.8-1.7 2.2-2.8 2.1-17 1.7-32 5.2-48.8-4.2-12.1-5.3-12.6-29.5 3.5-26.1 13.9 1.9 47.9 10.8 48.1 28.2zm29.4 157.7c-25.7 10.4-53.7-5.3-69.8-24.4 22.6 3.8 45 14.4 67.5 20.5 2.2.7 5 .9 2.3 3.9zm-65-35.1c11.8-8.9 56.7 4.7 71.3 22.5l-71.3-22.5zm-37.9 110.6c6.8-21.8 48.2-41.6 69.7-32.7-23.5 8.7-45.5 18.2-65.7 31.6-1.4 1-2.6 2.8-4 1.1zm81.2-18.4c-14.4 28.5-45.5 30.4-73.8 30.8 2-5.2 79.9-41.8 73.8-30.8zm92.8-8.4c-8.1 6.6-37.7 50.3-43.8 65.9-4-28 23.1-68.1 43.8-65.9zm-24.4 61.1c-.6.3-4.6 7.6-5.5-.1-.2-1.7 4-3.5 5-5.8 8.8-17.7 20.2-34 33.8-48.3 6.1 22-17.4 45.8-33.3 54.2zm80.7 2.6c-3.2-18.2 37.1-54.4 58.8-53.6l-58.8 53.6zm6 9.1l61-54.8c-6.1 27.9-40.9 58-61 54.8zm196.6-10.7L572 887.8c20.7-19.1 49.2-27.3 72.4-16.2zm1.6 15.8c-9.4 21.4-59 24.1-76.2 12 25.6-4.5 51.9-13.9 78.1-15.8-.6 1.3-1.3 2.5-1.9 3.8zm192.3-137.5c8 33.1 7.1 64.7-17.3 93.5 5.4-32.1 15.1-62.1 17.3-93.5zM805 784.4c4.3-12.4 11.7-25.7 24.1-31.2-6.1 33.3-16.8 66.1-22.6 99.7-10.5-22.9-8.6-45.7-1.5-68.5zm-98.9-91.9c5.3 31.9 10.4 63 15.8 95.8-19.5-20.8-29.1-52.5-15.8-95.8zm17.6 38.6c-3.1-14.5-5.2-28.9-9.3-43.3 16.3 3.5 29.4 31.7 30.7 47 1.2 14.7-2.9 28.3-6.4 42.1-.5 1.8-3 3.1-4.6 4.7-3.5-16.7-6.9-33.6-10.4-50.5zm3.5-177.3c16.4-9.9 50-26.7 63.7-4.9 3.7 8.7-4 11.8-9.2 13.6-19.8 6.3-42 3.5-60.5-.7 2-2.8 3.4-6.5 6-8zm-12.4-74.5c18.5-13.4 45.5-35.1 68-19.7 12 8.8 2.3 20.9-8.4 25.4-20.6 6.9-42.8 7.3-63.6 1.3-3.1-.7 1.7-5.3 4-7zm53.5-121.5c8.6-2.5 17.2-4.2 25 3.4 5.1 4.9 3.1 8.5-.2 12.6-12.6 15.6-31 18.3-48.9 20.9-8 1.1-16.5 5.6-24.4-.9 12.4-16.6 27.9-29.9 48.5-36zm-119.1-70.1c-4.2-15.2-3-30.4-.3-45.7 1.5-8.4 19.2-25.9 27.5-24.8 7.7 1 3.8 8.9 6.4 13.1 1.2 2 .2 5.2.2 7.9-2.3 21.1-11.6 40.1-21 58.7-2.8 2.1-4.7 9-6 7.3-3.6-4.5-5.3-10.8-6.8-16.5zm-59.2 107c-74.1-15.6-63.3-123.8-4.8-42.7 6.5 12.7 6.7 26.7 11.4 39.7 4.1 10.9-4.9 3.2-6.6 3zm-14.9 100c-26.7-1.4-51-19.1-61.3-44.8-1.9-4.8-4.8-14.6 6.9-15 12-.5 16.5 8.8 23.2 15.8 12.2 12.7 20.1 28.3 31 41.9.3.5.4 2 .2 2.1zm21.5 87.6c-24.6-2.7-48.3-1.2-72.1 1.2 14.3-14.6 31.2-21.7 72.1-1.2zM540 600.9c-4.5-.5-8.4-3.1-10.6-7 22.6-1.7 45.8-1.7 68.1 1.7-18.3 10.9-37.8 9.5-57.5 5.3zm-14.7 44.9c19.6 26.4 38.6 48.7 62.3 70.5-36.4-10.3-52.3-35.4-62.3-70.5zm67.1 57c-21.8-19.1-40.2-41.2-59.8-63.2 21.6-4.3 33 8.5 42.8 23.5 7 12.2 15.9 25.6 17 39.7zM403.5 520.3c10.9-16.9 25.7-29.7 43.3-38.9 25.6-9.1 28.6 30.5-2.9 33.8-12.8 1.7-25.4 4.9-38 7.5-1.9.5-3.4-.6-2.4-2.4zm-7.7-125c7.9-9.6 33.6-10.6 42.2-1.6 2.3 2.4.5 4.6-1.1 6.9-14.7 23.5-39.8 28.2-65.4 30.7 3-16 15.1-25 24.3-36zm-66.9-55.9c30.7-69.2 85.1-41.4 52.8-18.5-12.5 10.2-26.8 18.1-42.1 23.4-4.8.5-16 3.9-10.7-4.9zm-68.3-62.1c-.2 1.3-1.3 2.4-2 3.6-17.8-15.9-41.1-66.9-14.4-83.5 5.9-2.9 14-7.7 19.2 1.6 2.7 4.9 4 10.4 5.8 15.4-2.8 21.4-5.7 42.1-8.6 62.9zm-117.5 8.8c12.5-10.1 54 37.6 61.6 48.1-24.7 1.3-51.2-11.7-63-36.3-1.5-3.5-2.8-9.4 1.4-11.8z"/></g><g><path d="M52 1548v15l-37 37h946l-37-37v-15H52M52 52V37.7L14.3 0H0v1600h15l37-37V52m872 0V37.7L961.7 0H14.3L52 37.7V52h872m52-52h-14.3L924 37.7V1563l37 37h15V0z"/><path d="M961 1600h15V0h-14.3L924 37.7V1563l37 37H0V0H961.7M52 52V37.7L14.3 0m.7 1600l37-37V52h872m0 1496H52" fill="none" stroke="#333" stroke-width="2" stroke-linecap="square" stroke-miterlimit="3"/></g></svg>