<svg xmlns="http://www.w3.org/2000/svg" xmlns:xlink="http://www.w3.org/1999/xlink" viewBox="0 0 976 1600"><style>.st2{fill:#333}</style><path d="M960 22v1556c0 3.3-2.7 6-6 6H22c-3.3 0-6-2.7-6-6V22c0-3.3 2.7-6 6-6h932c3.3 0 6 2.7 6 6z" fill="#fff" id="Paper_Backing"/><g id="Wikipedia_Cropped"><defs><path id="SVGID_1_" d="M960 22v1556c0 3.3-2.7 6-6 6H22c-3.3 0-6-2.7-6-6V22c0-3.3 2.7-6 6-6h932c3.3 0 6 2.7 6 6z"/></defs><clipPath id="SVGID_2_"><use xlink:href="#SVGID_1_" overflow="visible"/></clipPath><g clip-path="url(#SVGID_2_)"><path class="st2" d="M760.3 1604c-9.3-2.4.2-9 .7-13.7-.3-12.4.1-26 1-37.9-11.5-25.3 14.4-39.1 30-53.5 10.5-11.2 25.1-17.7 34.8-28 1-1.7 68.3-69 68.4-69.1 27.6-30.4 53.7-63.9 80.7-95.3 9.4.6 1.5 63.7 3.8 68.3.6 38.3 0 86.6.3 125.2.1 23.8-.1 75.9 0 100 .8 11.1-215.7.4-219.7 4zm-515.4 0c-12-17.2-135.1 10.9-81.4-35.5 5.4-4.6 3.1-11.7 8.2-18 3.5-9.2 11.3-12.8 13.6-23.6 16.6-18 21.9-40.2 36.4-59.5 7.1-14.5 11.5-32.2 23.4-45.1 2.3-1.4 3.3-4.2 2.6-6.7-1.1-5.2 5-9.1 6.4-14.6 3.3-9 12.8-15.5 12.4-25.5 6.3-7.7 5.2-19.1 14.8-25.9 1.9-1.4 2.9-3.8 2.4-6.1-4.5-12.8 27.5-43 9.5-47.7-8.3 2.1-10.4 13.6-15.7 19.8-2.8 3.6-9.6 1-9.9 7.3.2 17.7-14.3 24.8-23.9 33.5-5.2 28.7-22.3 36.5-34.3 58.6-11.3 11.8-14.5 30.6-29.4 39.7-30 43.8-53.8 110.6-43 3.9 8.9-130.2 8.9-255.4 2.4-385-1.8-40-4.1-85.8.4-122.5-12.7-20.8 2.5-41.9-6.4-63.6-25.2-136.6-28 371.2-33.8 382.3 6.3 64.7 2 131.8-1 196.7.9 71 9.9 81.3-48.9 25.5-17.1-11.2-29.5-37.1-49.8-39.1-2.2 0-4-1.8-4-4-.7-71.9.5-197.6 0-271.2-3.5-125-.4-265.2 72.4-371.6 61-79.9 32.6-3.6 60.7-20.4 16.2-74.7 86.3 97.8 92.5 122 24.9 76.6 38.2 156.9 48.9 235.8 3.6 25.1 4.1 48.8 7.8 73.3 7.5 16 23.6-12.9 35.1-14.5 11.4-1.7 2.4 17 5 24 11.7 19.6 41.3-29.5 44.7-37.4 55.5-20.8 43.4 34.9 90.7 40.3 21.7-7.3-37.9-61.3 44.9-9.2 18.8-1.5 5.5-33.8 10.5-58.2 1.9-15.7 1.5-34.8 2.3-51.6 4.9-88.5 13.2-177.9 25.8-265.3 21.4-131.1 45.6-265.5 113.9-380.2 17.5-29.6 39.2-57.4 67.2-76.2 10.3 4.4 6.8 27.3 18.7 30.3 13.2-2 11-31.3 24.3-31.8 69.8 56.6 100.2 157.1 128 241.4 50.9 176.6 74.5 360.4 90.5 546.7-3.9 2.5 6.6 111.5-4 108.4-14-2.1-22.5 15.8-32.8 23-7 9.7-18.2 18.1-25.2 28.7-7.2 6-12.5 3.6-14.9 13.3-4.7 9.2-27.3 31.8-33 34.7-10.1 12.2-20.8 25.1-35.3 32.9-8.5 11.7-21.5 20.8-33.2 29.8-6.4 6.9-46.5 49.8-47 26.8 2.6-169 1.9-331.8-.6-499.2-.8-41.7-5.8-78.5-1.6-118.2-1-17.7-5.7-35.7 1.3-53 1.5-2.4 1.1-5.5-.9-7.5-5.6-5.8-1.3-14.3-2.2-20.2-6.7-13.2 4.1-26.9-.3-38.1-1.5-18.5-4-41.5.9-59.3 3.2-5.2-5.5-8.5-3.6-13.4 2.4-43.6-3.8-88.4-4.3-131.8 1.8-17.9-6.2-35 .8-50.5.9-5.3-3.1-12.7-8.5-13.5-9.9 3.3-10.7 19.2-8.6 28-1.5 16.1-5 31.2-7.1 47.1 4.3 11-.5 26.1-3.1 38.3 1.3 10.3 1.3 21.2-1.6 32.1 1 26.1-3.6 52.3-2.4 77.2 3 18.2-1.9 36.3-4.4 52.6 5.8 14.2 2.4 35.8 1.1 51.5 1 19.9 2.4 42 1.5 63.1-3.1 17.4-.7 36.6-.6 55.2-5.7 7.2-.9 11.6-1.3 20.3-1.6 36.7-2.2 69.5-3.1 106.9 2.2 17.2-1.7 40.3-3.2 55.4 4.3 16.2 3 35.7 1 51.8.4 18.6.3 40.8-2.3 59.2 7.2 10.2-3.8 26.3 1 37.9 1.2 4.2-4.9 7-1.8 11.3 4.4 10.1-4.2 24.4 1.4 34.5 2.4 4.8-3.1 11.2-5.3 15.3 10.4 34.7 2.4 78.8 4.9 116.4-2.5 23.9 12.3 65.3-21.6 26.4-8.5-8.5-17.5-18-27.8-25.9-6.8-2.3-6.5-12.6-13.7-14.2-37.2-34.4-72-73.9-107.1-108.6-10.9-14.1-25.7-23.1-32.8-39.9-2.7-3.7-13.1-9.4-17.5-6.2-5.8 6.7 2 17.3 8 21.3 9.1 9.4 12.5 24.8 22.5 32.8 23.1 30.3 42.8 61.6 69.9 87.8 7.7 5.1 7.9 15.8 13.8 21 8.9 4.2 18 14.8 24.1 23.2 12.5 11.4 27.1 24.6 35.7 38 9.8 2.8 19.8 17.1 25.4 26.3 2.3 7.7 14.5 8.3 14.7 17.6.6 25.5-5.4 47-.4 72.1 24.5 27.1-449.7 1.9-449.8 10.2zM0 1604c-7.3.1-2.8-17-4-20.9 3.5-.1-9.6-130.2 10.7-96.4C96 1620 164.6 1604 0 1604z"/><path d="M321.8 1232.7c-13.4-15.5 4.1-54.4 12.8-65.5 10-19.8 41.3-8.1 30.3 15.2-7.7 21.3-23 41.6-43.1 50.3zm129.3-4c-57.8-11.7-57.3-96.6-16.3-52.6 4.3 11.7 38.4 47.7 16.3 52.6zM122.9 792.3C99.4 776.6 91 700.7 127 696c26.9 2.7 13.9 90-4.1 96.3zm612.8-376.5c-19.3-10.9-29.7-86.5 6.9-88.6 34.4 10.8 17.3 73.6-6.9 88.6z" fill="#ffeb5c"/><path class="st2" d="M695.4 1604c-7.1-1.4-2-6.7-1.4-11-3.4-32.2 11.4-69.6-16.3-94-60.7-66.4-125.7-129.8-175.9-205.2-4-8.2-49-61.4-19.6-47.8 69.7 73.9 137.3 152.2 215.8 215.3 15.2-7.7.9-51.5 5.7-68.7l1.7-254.1c0-94.2 4.3-185.4 8.5-279.9 0-94.5 1.7-187.9 8.8-282.1 1-37.4 2.1-75.9 6.5-113.1-.3-1.3 2.5-7.2 6.4-6.5 11.7 4 4.3 38.1 7.3 49.8 2 71.6 5.7 142.9 4.2 214.6 6.2 179 5.2 356.1 8.1 533.9 9.3 73.4-8.1 153.2 2.9 224.3 80.4-52 151.3-136.8 215.4-204.4 11.6-3.5 5 22.1 6.6 26.8-.5 4.6-7 4.7-8.4 9.3-47.4 59.2-97.2 115.5-154.1 166-13.7 20.1-61.8 35.4-60.5 57-1.1 91.3 34.6 66.3-61.7 69.8zm-599.5 0c-4.5-.1-4.1-5.3-4-8.5-13.2-19.8-30.1-40.7-46.7-59-16.9-13.3-24.8-41.3-45.2-47.3-8.3 1.6-2.2-37.4-4-40.5 4.6-11.7 12.6 3 16.5 7.3 119 113.8 76.4 82.9 88.1-64.9-1.9-147.4 6.6-294.5 11.2-441.7 25.5-370.8 33.7 294.1 31.3 361.9-12.5 290.1-19.9 215.8 121.3 23 9.5-14.4 50.4-80.9 27.3-17-41.2 99.7-91.9 188.4-148.1 278.5 3.9 15.7-41.5 5.4-47.7 8.2z"/><path d="M982 1418.7c-.5 10.8-76.3-4.4-86-7.6-6.7-2.1-8.4 5-12 8-6.9 5.7-13.1 12.2-19.9 18.7 35.7 11.8 71 16.2 107.1 15.2 12.7 1.1-2.5 9.2-7.4 7.7-33.8-.8-68.8-.7-100.2-14.9-2.7-1.2-5-1.4-7.5 1.1-7.5 7.6-15.4 14.9-23 22.4-.9.8-4.4 2.4-.3 3.5 44.2 12.2 89.6 25.5 135.6 24.3 2.6-1.2 6.7-.8 8.5 2.3-23.3 17-115.1-9.1-143-19.1-10.8-3.9-15 1.7-20.9 6.3-8.8 6.8-17.1 14.3-26.2 22 42.3 21.6 90.4 27.7 136.9 28.7 17.4 3.8 36.2-3.7 53.2 2-11.1 13.5-55.1 6.7-73.3 7.7-22.8-1.1-45.4-5-67.3-11.6-16-6-35.2-5.1-48.3-17-2.2-1.6-5.8-4.9-6.5-4.4-14.3 8.6-22 20.7-15.6 36.9 18 19.8 69.1 15.5 95.2 22.7 34.8 5.9 68.8 1.5 102.6-6.2 3.5-.6 9.2-2.7 10.6 2-4.6 12.2-85 18.1-99.6 15.4-24.1-2.1-47.9-7.8-71.9-11.3-13.2-1.9-25.9-4.8-37.6-13.4v29.7c.1 3.9 1.1 9.2-4.7 9.1s-4.8-6.8-4.9-9.4c-1-18.2-.4-36.5-2.3-54.7-1.1-10.3 2.3-17.4 13.5-23 46.3-28.3 83-71 121.4-109 28.7-29.6 54.3-62.1 80.5-93.9 2.4-2.9 5.1-8.9 9.2-6 3.7 2.6.6 5.4-1.7 7.6-13.2 18-26.7 35.8-41.8 52.4-6.6 6.9 32.1 4.7 36.4 6.1 3.3.2 7.9-.8 8.1 3.9-.8 8.7-42.2 2.6-49.4.9-8.8-2-9.4 8.9-15 12.8-5.8 4-10 10.2-15 15.5 24.3 9.4 51 9.6 76.7 12.6 2.4 0 7.1.6 5.8 4zm-227.7 66.1c-5.6-1.6-3.5-7.5-3.6-11.2-.2-23.6-1.4-47.4.8-70.8 6.8-81.4-4.2-162.5-2.6-243.9 4.4-150.2-4.5-300.2-5.9-450.3-.4-36.7.7-73.5-.2-110.2-1.7-30.5-4.9-60.9-3.9-91.4-.4-14.2-1.2-28.4-1.9-42.6-.1-1.5.6-3.8-2.2-3.3-.7.1-1.6 1.8-1.6 2.7-2 22.4-4.3 44.8-5.6 67.3-.9 15.3 1 30.9-1 46-1.8 49.5-7.9 98.4-7.5 147.9.5 87.3-1.9 174.5-7.4 261.5-1.1 152-9 304.5-3 456.3.7 7.4.1 25.1-8.6 25.7-24-15.9-44.2-39.2-66.3-58.1-52-53.4-105-106.1-154.6-161.8-.8-.8-2.6-1.9-3.2-1.5-2.1 1.3.4 1.6.8 2.3 55.1 89.5 127.3 165.7 199.2 241.6 24.4 24.9 22.2 29.2 22.3 62.2 1.6 9-2.8 17.3-.5 26.3 1.4 5.4.2 11.7-.2 17.5-.1 1.4-2.2 2.6-3.2 3.8-6.2-7.8-4.6-20.1-5.2-29.7.4-7.3-1.8-8.7-8-6.2-63.6 23.2-134.1 19-197-3.9-3.7-1.4-7.6-2.5-11.4-3.6-9.1-4.5-4.7-10.6 2.9-6.3 74.6 23.3 137.5 26.7 212.6 3.3 5.3-1.5 2-7.6 1.9-11-.3-11 6.7-24.7-7-30.7-6.3-2.9-12.5 4.8-19 7.1-16.3 5.7-33.5 7-50 11.1-39.3 7.3-79.7 6.7-118.9-1.7-4.8-2.4-33.9-5.8-31.3-11.3 1.3-2.9 4.7-1.6 7.3-1.1 30.4 5.8 62.2 13 93.1 10.2 36.7-3 73.3-9 108.8-20.2 9.4-2.6-4.2-9.3-5.5-13.8-8.4-13.7-18.1-15.1-32.7-7.5-11.1 5.8-24.7 7.4-37.4 9.1-44.6 6.7-90 4.7-134.3-3.9-7.4-2.4-19.5-2.9-23.8-9.8 1.2-.7 2.5-2.3 3.6-2.1 18.5 3 36.9 6.2 55.4 9.3 21.4 1.3 43.1.8 64.6.4 25.6-1 50.4-6.3 75.3-12.9 16.8-4.4 4.1-7.5 1.4-10.8-4.7-5.6-9.7-10.9-15.2-15.8-5.1-4.6-9.9 1.1-13.8 2.7-13.9 5.7-28.5 7.1-42.9 8-46.2 3.8-93 1-136.9-14.7-1.9-.5-3.1-2.4-2.7-4.3 0-.1.1-.2.1-.3.1-.5 2.8-.6 4.2-.4 59.9 11.9 124.4 19.1 183.3.4-1.5-3.9-5.8-5.1-8.1-8-15.3-24.9-36.1-9.2-55.2-8-10.6.6-21.1 3.2-32 1.6-34.8-3.4-71.1-5.2-102.8-21.2-1.8-.7-5.3-1-4.1-3.5 1.1-2.2 4.3-3.5 7.4-2.2 23.4 9.1 47.4 15.1 72.8 16 31.4 3.4 63.1-.5 94-5-15.7-21.2-17-29.3-44-23.9-14.9 1.5-30 1-45.1-.1-24.9-2-48.8-8.4-72-17.2-2.6-.9-7.5-2.1-6.4-4.7 1.6-3.8 6.6-1.9 9.8-1 39.7 13.6 82 18.2 123.7 13.5 1.3-.1 6 1.6 3.1-2.6-6.2-9-13-17.6-19.9-26.1-3.1-3.8-6.1.9-9.3 1.1-18.1 2.7-115.8-7-118.4-24.9.7-1.1 4.3-1.2 6.2-.6 37.2 12.3 76.2 16.8 115.5 17.3-39.3-55.3-3.7-16.2-84.7-37.3-6.8-3.3-42.3-7-38.7-16.2 3.6-.2 7.5-1.1 10.8 0 26.6 9.1 55 15.9 83.2 14.3-2.9-5.7-13.9-28.2-20.8-26.6-12.8 4.1-24.3-1.8-36-4.5-11-2.6-21.3-7.9-32-11.4-3.3-1-4.2-3.1-5.5-5.5 2.5-.1 5.3-1.1 7.4-.3 20.6 7 42.1 14.7 63.9 15.1-3.8-10.5-10.5-20.1-16.6-29.4-5.5-7.4-15.4-6.9-23.2-10.2-13.6-5.7-31.6-23.2-37.8-39.2-9.7-19.8 12.2-42.7 29.1-25.2 14 13.7 25 29.9 30.6 48.6 5.2 17.4 21.5 24.4 31.1 37.5.5.6 1.8.7 2.7 1-.5-11.4-3.8-23.1-5.2-34.6-1.9-11-4.2-22-8.1-32.6-1.2-3.3 0-6.3 3.2-7.2s3.8 2.1 4.8 4.7c7.5 20.4 12.3 41.6 11.5 63.3 0 25.2 21.4 34 34 51.5 2.2-27-6.8-51-13.6-76-.6-2.5-1.2-6.5 2.3-7.2 16.3 12.3 20.9 70 20 90.9-.1 3.2 5 6.7 7.9 9.7 6.7 7 13.6 13.9 21.7 22.2 1-32.5-1.9-61.7-11.9-91.9-1.2-2.7 1.3-4.3 3.2-5.3 2.2-1 2.3 1.2 3.1 2.7 13.3 25.5 13.7 53 13.9 80.8.1 9.9-6 22 6 29.1 8.9 5.3 12.9 15 21.2 20.2 5.8-30.1.4-61.6-5-91.9-.4-1.3 2-3.3 3.1-5 17.5 16.3 13.3 78.6 8.9 101.4-.9 7.7 8.3 9.2 11.9 14.6 3.9 5.2 8.5 9.7 13.6 13.6.6-1.1 1.7-2.2 1.6-3.2-1.4-17.2 2.4-34.1 1.1-51.4.5-7.2-8.2-46.8-.2-47 4.9.3 4.9 6 5.2 8.9 2 19.5 6 39 4.2 58.7-1.2 13.5-3.6 26.8-4.3 40.3-.3 5.7 7 7.4 10.5 11.3 2.8 3.2 6.2 5.9 9.5 8.9 4.5-21.6 4.7-44.8 5.9-67.1.4-13.3-5.1-27-2.6-40.2.2-.5 2.3-1.1 2.4-.8 2 2.9 5 5.8 5.5 9.1 6 34.2 3 69.2-3.7 103.1-1 5 4.5 8.1 7.2 10 5.9 4.2 10 9.7 15.6 16.1-1.8-43.3-1-85.3-1.8-128.3 6.6-23.8-11-28.6-26.7-35.7-12.4-5.6-23.2-14-34.7-21.2-38.3-24.9-126-97.2-134.5-141 14.5 12.9 22.8 33.4 37 47.2 27.5 27 56.4 54.3 87.1 77.5 8 4.1 78.1 54.1 73.2 31.7-9-19.5 12.3-34.9-13.7-40.2-72.5-31.7-134-85-182.8-146.5-2.9-4-.4-12.5 4-5.2 21.4 26.3 44.3 50.4 70.8 71.7 35.2 31.6 76 55.4 118.8 75.2.7.3 2-.6 3.1-1-6.1-26.4 15.5-37.5-20-47.9-60.6-29.4-116.9-69.7-161.3-120.5-3-5.3-14.9-13.9-12.1-19.8 1.4-1.6 2.9.1 4 1.4 52.4 59.2 117.4 105.2 189.5 137.9.6-12.5 2.4-25.4 1.4-38-.7-7.8-10.7-6.8-16.5-9.2-44.4-20-81.9-51.6-120.3-80.8-8.2-6.4-62.8-55.5-56.9-62.7 4-3.7 4.6 2 6.4 3.9 42.7 46.9 95 83 147.9 117.6 11.9 7.4 24.7 13.2 38.2 17.1 3.1.9 1.8-1.7 1.8-2.7.1-13.8 1.2-27.8-.4-41.4-.8-7.1-10.7-7.9-16.3-10.7-66.5-30.5-125.1-78-173.5-132.5-3.2-2.9 1.7-7.5 3.9-3.8 37.4 36.8 77.2 70.8 121.3 99.5 16.7 11.5 35.5 19.3 53.3 28.8 12 6.4 13 6.3 12.7-7.6-2.8-32.6 11.7-31.4-15.6-40.6-59.8-39.4-122.9-78.1-164.9-137.5-.8-1.3-4.1-2.9-1.5-4.7 2.1-1.3 4.8-.7 6.3 1.2 18.4 24 39.6 45.2 64.4 62.8 35.9 28.3 72.2 55.1 112.4 76.8-4.8-32 15.1-49.5-21-64-20-8.9-37.4-21.2-54.7-34-31.9-23.4-63.9-47.6-87.2-80.1-2.4-4.9-13.6-13.1-9.5-18 1.6-2.2 2.3.1 3.2 1l7.5 8.4c43 52.2 99.5 91.1 158.4 123.2 2.1 1.3 5.5 2.5 5.3-3-.4-11-.7-22 .1-32.9.6-7.9-2-11.3-9.3-14.7-20.7-9.7-40.4-21.7-57.2-37.1-36.3-30.5-72-63.2-96.6-104.5-1.5-2.7-2.5-6.5.5-8 3.7-1.8 3.6 2.8 5.1 4.8 41.7 57.5 95.7 106.7 158.6 139.8 1.2-13.1-3.3-26.2.4-39.6.9-4.2-5-3.5-7.7-4.9-57.5-30.4-103.3-77.2-138.7-131.2-3.2-5.4-12.5-14.2-6.8-20 24.6 30.7 47 65.4 77.9 91 22.1 19.5 46.7 36 71.9 51.2 2.9 1.9 3.8 2 3.8-1.8-.1-17 .5-34-.3-51-.3-6.8-8.6-6.5-13.2-9.3-46.2-28.9-90.7-63.1-122.8-107.6-2.6-5.1-13.9-12-8.1-17.6 3.2-2.6 3.5 1.3 4.8 2.7 15 15.7 26.1 34.9 43.2 48.7 30.8 24.2 60.8 50.4 95.6 68.7 1.8-10.6-1-21.7 1-32.2 2.1-13.1-4.1-19.2-14.8-24.6-40.2-23.2-75.3-55.2-105.8-89.9-2.3-3.1-21.8-26.5-9.6-22.7 8.3 4.5 11.9 13.5 17.9 20.3 32.5 35.2 70 65.5 111.2 89.9 4.5-13.5 3-28.1 2.5-42.1-.8-8.8-10.6-7.5-15.9-11.1-12.4-8.3-24.5-16.9-35.6-27-12.1-11-72.7-60.4-66.8-74.7 2.3-2.5 3.5.6 4.1 1.5 6.2 13.8 107.5 107.9 114.6 94.7 1.2-19.1 7.9-26.8-13.3-35.4-30-25.5-60.6-52-84.2-83.7-2.5-5.4-15.6-18.5-7.7-22.4 3.3-3.6 8.5 12 10.9 14.1 7.4 12 16.6 22.7 27.2 31.9 21.3 18.2 39.2 40.4 63.7 54.8 1.9 1.1 4.1 2.3 5.3 5-.1-83.1 20.9-19.7-44.7-88.3-10.1-9.1-51.5-54.6-46.1-66.7 3-.9 4.7 1.9 5.9 3.9 20.9 32.9 48.2 62 78.9 85.9 1.3-1.9 2.8.7 4.2 3.1 6.7 12.2 5.5-12.8 6.9-15.7 6.5-17.6-6.8-24.7-17.3-32.7-18.3-16.3-35.2-34.9-48.2-55.5-4.2-6.8-8.1-13.7-12.9-20.2-.8-1.1-.3-3.1-.5-4.7 13.8.6 19.5 24.7 28.9 33.3 15.6 19 32 37.6 51.4 52.7 1.7-12.6 3.6-25.5 5.3-38.5.7-5.6-5.1-5.7-7.7-8.4-19.7-20.3-37.4-42.1-51-66.9-1.4-4.4-9.6-14.9-1.7-16.1 4.2-1.2 5.2 3 6.1 5.3 2.8 7.5 6.6 14.5 11.2 21.1 5.7 8.3 12.3 15.9 19 23.5 8 9.1 13.1 20.7 23.3 28 15.1-27.1-15.1-47.3-25-70.8-6.2-11.1-9.7-23.9-14-35.8.4-3.4-2.2-9.2 1.6-9.6 7.5-.8 6.9 7.7 7.8 11.6 7.5 25.1 21.3 45.2 36 66.9.1-12.8 2.4-23.1-3.6-35.6-11.3-23.5-16.1-49.2-3.9-74.7 10.3-20.3 40.3-11.1 42.9 9.7 6.4 30.1-6.7 54.9-21.3 79.6-2.3 3.9.2 10.6.3 16 .2 11-.8 22 2.3 32.8 20-26.5 35.8-55 50.4-84.5 1.1-4.9 5-7.3 8.7-10.1 5.5 12-36.4 79.2-47.2 89.9-11.6 13.6-14.5 27.3-10.7 44.4 2 9.3.4 19.3.4 32.1 26.7-34.9 45.3-67.8 67-104.5 2.1-3 1.4-10 6.8-7.7 2.2 1 .5 8.6-1.8 12.7-19.7 36.3-38.4 73.1-67.1 103.4-7.1 7.3-2.2 18.2-2.5 27.4-.3 10.5 1.1 21.1 1.8 32.5 19.2-25.7 38.9-48.8 56.6-75.1 10-15.7 18.2-32.6 27.2-49 2.8-3.6 3.8-9.8 8.1-11.6.6 1.6 2.2 3.7 1.7 4.8-2.9 6.6-5.7 13.2-8.7 19.8-7.6 17.1-15.8 33.8-27.8 48.6-15.8 19.6-28.3 42.6-46.6 59.8-21 15.1-4 40-10.3 60.1.3 2.9 3.4 1.1 4.7 0 37.5-40.3 68.1-86.5 95.2-134.2 2.1-2.5 2.8-9.2 6.6-8 3.3 1.3 1.8 5.7.7 8-16.6 34-36.7 66.1-59.9 96-11.3 15.9-23.5 31.5-38.4 44.8-6 5.4-8.9 13.5-7.6 23.2 1.6 12.4.4 25.2.4 38.5 30-35.3 61.2-66.9 85.2-106.1 11.8-18.2 20.4-38.1 30.6-57.1 1.4-2.6 3.1-6.8 5-5.7 9.6 11.7-37 82.9-47.1 95.3-17 22.2-35.5 43.2-55.4 62.8-14 13.8-22.9 29.8-16.8 50.9 1.9 4.5-4.4 16.7 2.7 18.6 23.2-16.4 40.1-40.3 59.8-60.6 29.6-29.2 48.4-66.3 68.8-102 3-3.8 4.2-11.8 10-11.6 3.6 1.4-6.1 18.3-7.1 21.7-19.4 37.6-43.6 72.5-71.8 104-17.8 19.7-36.9 38.2-56.2 56.3-12.2 11.6-3.9 37.4-5.1 52.8 59-46.4 103.8-108.5 146.5-169.6 3.6-3.5 10.2-21.5 15.3-17.4 5.1 2.4-11.5 25.6-13.6 29.8-42.3 58.8-86 118.2-143.4 163.3-10.5 6.5-5.2 47.6-4.6 60 46.3-37.7 86.6-82.3 119.5-132.1 14.6-23.1 30.8-45.2 46.4-67.6 1.6-2.3 4.7-3.8 6.8-2.3 3 2-.8 3.7-1.7 5-4.1 6.6-8.1 13.1-12.2 19.7-36.6 60.3-79 118.6-133.3 164.3-5.5 6-23.1 14.5-24.1 21.3.6 15.3-1.5 31 .9 46 45.1-37.1 85.5-81.1 120.6-128.2 15-21 27.6-44 44.4-63.4 1.8-4.9 5-8.3 10.7-9.1-32.9 63.5-79.3 119.5-130.3 169.3-57.8 59.5-43.8 8.7-44.7 88.7 41.3-32.5 78.3-64.6 111.8-104.2 20.1-23.5 38.8-48.1 54.8-74.7 3.1-4.1 11.1-16 16-16 .6 6-2.4 9.8-5.5 14.4-7.6 11.8-15.4 23.6-23.4 35.2-23.2 34.2-50.7 65.1-81 93-22.3 21.2-46.2 40.3-70.3 59.3-3.9 3.1-2.2 7.4-2.2 11.5.2 14 .1 27.9.1 42.3 81.1-46.8 135.3-123.3 183.5-201 1.8-1.8 2.4-8 5.5-6.3 1.8 1 2.5 2.6 1.1 5-37.5 65.7-77.4 131.5-139.4 177.1-56.3 47.6-51.9 6.9-49.8 81 .1 5.6 6.2-1.9 8.6-2.4 48-32.8 91.7-72.5 126.3-119.4 19.8-26.9 34.3-57.7 55.2-84 1.1-2.2 3-2.6 5.6-3 1.5 4.8-2.3 7.8-4.3 11.7-46.2 83-105.5 159.4-189.1 207.3-7.9 4.7-1.1 11-1.9 16.3-1.4 14.2-2.1 29.2-.7 43.4 80.8-48.6 133.4-130.3 192.2-201.8 3.3-4.7 9.3-2.2 3.5 2.8-35 56.9-78.5 109.2-126.3 155.8-20.2 18.3-41.1 35.9-64.8 49.6-5.9 3.4-6 10.2-4.9 15.3 3 10.2-4.5 28.3 1.7 35.9 41.3-27.8 81.8-62.9 117.1-99.8 33.6-30.6 51-74.3 82.3-106.3-34 85.3-109.3 149.1-181.5 203.4-8 5.8-18.8 9.2-19 21.4-.2 10.5 2.3 21.3.5 31.4-2.5 14.1 1.1 27.8-.3 41.9-1.8 36.4-2.6 74-.8 110.3 12.5-9.7 25.1-19.5 36.7-30.2 5.3-5-2.4-9.7-3.9-14.3-7-25.7-9.1-51.9-10.6-78.2-2-4-2.1-70 7.4-48.9.7 43.2-1.2 88.7 12.4 130 5 7.9 7.1-3 11.5-3.4 2.8-.3 4.9-4.6 7.9-6.1 8.2-4.1 6.2-10.6 3.9-16.5-15.3-43.4-13.6-89.8-5.7-134.4.3-2.4 1.9-6.1 5.3-5.4 4.3.9 1.3 3.9 1 6.2-7.2 45.5-5.6 92.3 8.3 136.6 13-7.1 22-19.2 32.2-29.7 1.4-1.4-2.3-8.2-3.5-12.4-5.5-19.5-6.9-39.3-8-59.4-.4-12-2.4-67 8.1-71 5.7-1-1 36.9.2 43.2 1.2 21.6 0 43.3 4.3 64.4 1.8 8.8 3.4 17.5 5.2 26.3.2.7.8 1.3 1.6 1.5 5.4.3 31.4-32 28.9-36.8-6.5-12.3-8.5-25.7-9-38.9-.9-23.7-1.9-47.5 2.7-71.1 1.3-6.8.1-14.1 3.6-20.5 1.4-2.5 1.3-8.3 5.7-5.9 3.5 1.9 1.7 7.4 1 11.1-3.2 14.9-4 29.9-3.7 45.1.6 24.7-2 49.8 6.5 73.5.6 2.4 2.2 5.2 5.5 1.2 6.6-8 12.9-16.6 20.9-23.1 9.3-7.5-.3-12.4-1.7-17.3-5.5-25-10-93.5 7.2-112.2 1.1 2.3 3.6 5.1 3.1 7-9.1 36.4-6.4 76 1.1 112.2 4.1-2.8 23.8-26.9 26.7-22.2 7.2 4-29.3 34.2-33 40.8-50.8 60.4-110.4 111.6-170.3 162.5-3.9 4.5-8.9 6-14.3 4.5zm-299.8-260.3c-1.5-17.9-15.4-31.3-23.2-46.5-9.1-15.7-26-13.1-22.1 8.1 6.8 17.7 25.2 37.2 45.3 38.4zM741 407.4c12.2-18.8 29.6-63.7 2.2-76.3-9 1.4-15.9 4.8-18.2 14.1-5.3 7.6 1.5 84.7 16 62.2zm-453.8 932.9c-.3.7.2 1.6.3 2.4 30.1-12.2 58.3-28 85.9-45.1 4.4-3.9 8.4 1.5 3.4 4.7-15.1 12.7-32.7 21.5-50.1 30.6-11.8 6.2-23.4 13.9-36.1 16.8-16.5 3.8-13.3 19.7-21.3 28.3-.3.3.8 2.5.9 2.5 22-6.1 43.3-14.1 62.7-26.5 13.7-8.7 28-16.6 42.1-24.7.4-.3 1.3.3 2 .4-.4 13.1-86.1 58.3-101 55.9-16.8 1.6-16.5 18.4-24.6 27.7-1.1 3 9 1.5 10.6 1.2 28.5-7.1 57-16 82.8-30.4 6.9-2 29.9-23.2 33.5-15.8 1.7 2.9-1.9 3.7-3.7 4.9-36.5 26.8-80 43.9-124.5 51.1-8.9 2.4-8 12.6-12.7 18.5-3.8 5.2-6.5 11.5-9.1 17.4 51-3.1 96.5-33.8 140.3-58.3 1.9-1.2 4-3 5.9-1.1.5.5-1.1 4.5-2.7 5.5-29.9 22-63.4 38.7-97.8 52.5-61.4 22.1-40.4-8.9-67.4 42.7 56.8-13.2 112.5-28.7 160.3-63 1.4.3 2.3-2.1 4.8-1.3.8 1.9-1.2 4.9-2.7 6.2-37.2 30.4-82.7 47.9-129.4 57.6-12.1 3-23.8 5.3-29.7 6.3-3.7-.3-8 3.8-9.7 5.8-4.3 5-7.8 10.7-11.7 16-2.8 3.8-1.6 4.2 2.5 4 24.4-1.2 48-6.3 71.2-14 35.3-10.1 69.2-22.8 100.3-42.5 2.2-1.2 4.3-3 6-.5s.3 4.5-2.7 6c-22.6 11.4-43.4 26.8-67.7 34.2-35 10.8-71.4 23.1-108.3 24.4-14.5-.4-12.6 12.6-18.6 19-1.5 1.6.9 3.3 3.4 3.2 45.7.2 92-6.3 135.6-20.4 16.5-5.3 31.6-14.9 47.5-22.1 3.6-1.7 9.4-6.3 11.3-2.9 2.1 3.8-4.2 7.1-8 9.1-53.5 28.7-114.1 45.9-175.1 43.3-12.3-1-27.9-.5-32 17.3-.4 1.9 1.7 3.1 7.1 3.8 27 3.9 54.6 4.9 81.1 1.1 31.9-4.5 64.9-5.2 95.6-18.4 9.6-3.6 20-10.8 30.9-8.7-7.4 12-30.2 14.8-42.8 20.5-26.5 8.9-53.9 9.7-81 14.5-21.9 2.2-44.7 1.9-66.6.7-9.2-1.3-19 .4-27.4-4.8-2.3-1.4-3 1.4-4 2.8-1.7 3-6.3 5.8-8 1.4-.6-1.8.1-4.2 1.3-6.1 13-21.5 25.5-43.3 39.2-64.3 34-54.2 61.9-111.7 89.4-169.4 9.4-19.8 17.5-40.2 26.1-60.4.5-1.3.1-3 .1-5.6-47 76.7-99.9 147.4-149.8 221.9-3.3 3.8-8.5 18.4-11.9 7.5-.1-32.7-2.2-65.3 2.2-97.7 6.6-117.4 4.3-235.1 1.6-352.6-5.6-79.4 2.7-160.7-13-238.7-1.2 39.2-4.1 76.5-8.1 115.2-3.5 86-5.4 172.6-9.6 258.8-3.7 89.9 1.7 180-4.6 269.7-.7 17.5-.5 35-.6 52.5 0 2.4.2 5-2.4 6-1.8.7-3.9 1-5.9-.8-27.6-25.7-55.4-51.2-83-76.9-3-3-5.5-6.5-7.5-10.3.3-3.8 5.5-1.7 7.2.2 28 26 55.7 52.8 85.2 77 1.3-19.6.3-39.7 0-59.4-.1-3.2-2.3-4.4-4.9-5-33.9-9.6-75.8-49.8-97-77.5 3.4-.6 5.2-.4 7.2 2 9.1 8.5 18 17.3 27.3 25.7 20.5 18 42.4 35.6 66.5 48.1 6-11.8 1.9-25.4 3.3-38 .2-4.5-3.2-2.9-4.8-3.5-37-19.1-64.9-52.3-92.3-82.6-3-4.6-4.7-9.6 2.9-6.1 6.5 6.3 12.6 13 19.1 19.4 24.2 22.6 45.3 49.9 74.8 65.9.4-12.3.2-24.6 1.8-37 1.1-9.2-9-10.3-14.6-13.9-30.2-19.4-56.8-43.6-79.9-71-1-1.1-.9-3.2-1.3-4.8 1.5.4 3.3.5 4.3 1.4 28.4 25.3 54.2 54.6 86.9 74.4 7.5 4.4 3.9-7.2 4.2-9.2 1.4-10.3 1.8-21.2-.3-31.3-.8-4.1-8.5-6.8-13.2-10C55.4 1292 27.8 1267 6 1237.8c-1.7-3.1-7-7.3-4.1-9.9 5.3-3.1 7.4 4.4 10.4 7.4 9.5 9.5 17.9 20.2 27.5 29.7 18.7 17.4 36.1 36.7 56.8 51.7 2.5 1.5 2.4-1.1 2.3-2.7-.6-12.7-1.5-25.4-1.8-38.1-.1-4.1-1.8-6.5-4.7-8.6-27-19.3-51.8-41.7-73.8-66.6-6.5-7.4-12.7-15.2-18.4-23.2-3.5-7.3 1-9.2 4.8-3.1 28.1 31.7 57.3 63.1 91.2 88.5.9-1.7 2.7-3.5 2.4-5-2.4-13.3-1.9-26.4.4-39.6.6-3.6.2-6.8-3.4-9-27.4-17.2-49.1-41-70.9-64.3-8-8.6-17.7-16.3-22.7-27.6-.8-1.5-3.4-3.4-1-4.8.9-.6 3.7.5 4.8 1.7 10.5 11.1 20.5 22.6 31.3 33.4 19.3 20.4 39 40.3 61.4 57.1 1.4-11.9 1-24 2.9-35.8 1.3-7.9-2-11.3-8.4-15.2-39.3-24.8-67.5-62.7-91-102-2.2-4.8 2.3-7 5-2.4 26.7 38.2 55.3 75.9 93.9 102.7 5.2-17 .8-31.1 2.2-50 .1-3.4-1.6-5.6-3-6.2-28.6-15.7-50.2-41.3-70.8-65.7-6.8-9.1-14.4-18.5-19.7-28.4.7-2.8 3.6-1.9 4.6-.1 26.5 34 55.7 64.1 88 92.7 2.9-16.1 3.7-32.5 2.3-48.8-.3-3.2-7-6-10.9-8.6-21.7-14.6-40.4-32.8-57.7-52-10.5-11.9-18.9-25.2-28.1-37.8-.7-1-1.1-3.3-.6-3.8 1.6-1.3 2.6 0 3.9 1.3 30.4 31.6 56.5 69.5 93.3 93.8 1.7-13.2 1.9-26.6 3.2-39.9.3-3.7-1.9-5.4-4.7-7.1-27.8-20.4-52.6-45.7-73.5-73.2-1.7-2.8-6.2-6.3-4-8.8 3.5-3.1 5.6 2.8 7.4 4.8 11.3 11.8 20.5 26 33.2 36 15.1 11.9 23.4 28.3 41.8 37.8 0-14.7 1.6-28.2 1.7-42.5-18-10.2-29.1-24-43.6-37.3-12.6-12-23-26.5-34.2-39.9-2-4.8 4.6-4.4 6.3-1.5 23 25.5 45.9 50.8 71.9 73.4 1-10.6 1.4-21.5 3.3-32.2 1.7-9.1-6.1-10.8-10.2-14.1-18.5-15.8-53-44.9-58.4-68.1.5.1 1.1.2 1.6.3-.3 4.1 4 2.2 5.6 4.3 7.5 9.3 15.3 18.5 23.4 27.3 9.1 9.8 17.1 20.7 28.3 28.4 3.5 2.4 4.7 9.1 9.2 7.6 5.4-10.8-.8-29.5 4.3-41.8 1.2-3.6-.2-4.6-4-5.6-8.2-2.2-13.2-9.5-19.1-15-10.8-10.8-38.7-37.3-38.4-52.3 9.8 4 14.4 14.6 21.5 21.9 9.8 12.2 21.1 24.9 32.7 35 2.4.7 4.5 6.7 7.1 1.9 1.9-3.5 1.7-8.1 2.2-12.3.4-11.7 6-25.7-2.5-35.2-17.5-26-26.3-74.1.1-95.9 35.9-16.5 30.3 47.6 25.4 68-2.4 13-11.6 24.2-12.1 37-.6 14.8 2.3 29.8 3.9 47.8 12.5-23.5 21.3-42.7 32.5-65.8.5-1.1 1.3-3.2 3.3-1.7 8 5.6-27.1 66.5-33.1 75.6-5.2 10.5 2 31.6 3.5 44.8 15.4-22.7 29.1-46.1 42.4-70 .6-.9.8-3.5 2.5-2.3 1.3.9 2.5 3.4 2 5-6.7 13.9-14.4 27.1-22.2 40.4-13.6 23.2-36.8 44.5-21.9 74.5 19.7-22.9 36-54.8 60-73.7-.8 3.4-.5 7.7-2.5 10.2-25.3 37.7-71.6 68.3-58.1 119 23.7-29.3 45.9-60.4 67.4-91.7 1.2-1.6 3.2-5 5.6-3 1.1 1.4-.5 4.4-1.9 6.7-20.6 34-42.6 66.7-70.5 95.3-3.4 3.3-2.7 12.5-1.5 18.4 1.9 9 1.2 18.1 1.9 28.7 29.8-37.6 59.1-73 83.5-113.9 1.7-2.9 2.5-6.4 6.5-7.1.4 5.7.8 10.3-2.8 14.5-6.7 10.8-13.8 21.4-21.2 31.8-20.4 26.4-37.4 56.7-63.3 78.2-7.3 5.1-1 11.1-1.8 16.6-1.5 10.2.6 20.8 1.3 31.9 34.4-38.2 67.7-77.4 94.4-121.2.5-.6 1.5-.7 2.1-.2 3.8 3.2.4 9.6-1.8 13.2-24.2 38.7-54.5 73.9-85 107.5-11.7 7.4-9.2 18.1-8.3 29 1.3 9.4-3 19.4.8 28.4 43.4-41.6 74.8-94.2 113.4-139.8 1.4 8.1-5.4 15.4-8.9 22.2-31.1 41.9-62 84.7-99.4 121.2-8.6 8.2-4.6 16.6-5.5 25-.7 10.4-.6 20.9.4 31.3 20.3-19.3 35.8-43.4 55.3-63.7 21-24.8 41.8-49.9 55.1-79.6 3.7-4.5 6.9-.3 4.9 3.6-1 2.6-2.1 5.2-3.2 7.7-16.4 39-48.4 68.4-74.3 101.2-12 14.4-23.8 28.9-37.7 41.5-1.7 13.6-.1 28.3-.6 42.2.2 1.2.6 2.3 1.1 3.3 16.3-14.2 30.7-31 45.6-46.7 32.1-36.5 53.7-80.9 82.9-119.6 1-1.3 3.9-2.9 4.4-2.4 5.3 5.2-11.8 23.6-14.6 29.6-18.7 28.4-34 58.8-56.2 84.8-18.7 23.7-42.1 43.5-63.1 64.4-.1 15.9 0 31.8 0 47.1 47.3-45.9 89-97.2 124.3-152.9 5.2-6.4 7.1-16.8 15.9-19 .9 16.8-30.5 54.3-41 69.5-25.6 32.9-50.2 66.6-82.2 93.8-14.1 12-19.2 26.7-18.1 45.9.6 10.4-.5 22.2-2.4 33.4-4 35-2.5 64.4-5.3 101.6 11.6-17.1 20.9-31.3 30.6-45.3 8.4-12.2-2.4-22.6-3.1-34-2.6-23.3-7.5-46.3-2.6-69.8 5 2 3.9 6.5 3.8 10.3-1 25.7 5.8 50.4 10.1 75.4 1.5 4 5.9-1.3 7.5-2.8 2.4-3.4 3.6-7.9 6.5-10.7 10.9-10.1 2.2-19.8-.7-29.1-4.6-14.7-3.8-29.8-6.2-44.7-.1-8.9-4-20.2 1.9-27.7 1-1.3 3.6-1.9 4.1.9.3 1.2-1.2 2.8-1.1 4.1 1.9 27.8 5.8 52.4 12.2 80.3 5.8-8 10.4-14.8 15.6-21.3 2-2.5.3-4.7-.3-6.1-4.9-11.5-5.2-23.8-6.6-35.8-1.3-15.7-5.1-31.7-1-47.3 1.4-2.8 6.9-1.8 5.9 2-3.2 18.8 3.1 36.9 4.3 55.4.4 6.8.7 14.1 4.6 20.2 32.1-25.7 3.8-69.7 9.3-103.3.2-2.4 3.4-6.6 4.9-6.5 4.6.3 1.1 4.1 1.2 6.2 1.6 21.9 3.3 43.8 10.7 64.5 33.1-24.6-6.6-71.5 13.8-101.8.7 1.5 2 2.9 2 4.4.3 21.5.4 43.5 8.3 63.8 6.4-10.7 13.5-20.3 17.9-31.1 1.9-4.9-1.8-12.1-3.1-18.2-2.7-11.5-4-23.3-3.9-35.2.6-5.7-.7-17.1 5.2-19.8 4.3 2.8 3.1 7.7 2.8 11.9-.9 12.8 1.3 25.3 3.4 37.8.5 3.1-1.1 7.6 3.1 9.8 1.5-2.9 2.2-6.5 4.5-8.5 23.7-22-4.7-64 33.1-101.8 18.4-21 42.3 3.3 32.3 25.7-7.6 22.2-23.4 38.8-42.4 52.6-10 7.3-7.8 21.5-13.6 31.5-1.1 1.8-1.4 4.1-2.2 6.4 23-11.4 39.7-30.2 58.9-46.1-19.5 41.9-64.6 48.2-66.6 70.6-1 9.2 5.6 1.7 6.2 1.5 25.2-9.9 49.1-22.2 70.9-38.7 6.8 13.7-61.6 46.6-75.9 47.1-9.1.9-13.3 23.9-17.5 31.5zm34.2-114c.1.6.2 1.4.4 2.3 14.7-6.2 34.6-30.8 38.9-46.4 1.9-7.3 4.7-16.1-4.1-20.6-23.9-8.1-36.8 44.4-35.2 64.7zM129.2 777.8c7.1-21.1 10.4-42.5 7.4-64.2.6-15.9-17.2-18.5-23.6-4-5.8 12.3-6.9 25.2-5.7 38.5 2.3 8.9 13.9 62.7 21.9 29.7zm-33.7 814.3c-15.4-18.9-30.2-40.5-47.4-58.4-14.7-14.8-25.1-32.9-40-47.4-1.4-1.4-.8-5.5-4.5-3.7-3.2 1.4-1.5 4.8-.1 6.4 12.9 17.1 26.1 34.1 39.4 51-10.6 4.4-22.2 3.8-33.4 3.1-3.6-.3-6.2 1.9-8 4.8 0 .2 2.8 3.1 4.2 3.1 11.6-.3 23.1-1.5 34.7-1.5 3.4 0 6.4-5.1 10.2-.6 6.7 7.9 13.6 15.6 20.3 23.3-21.7 7.5-44 9.8-66.8 8.9-1.4 0-2.9 1.5-4.4 2.3 10.3 11.3 36.8 3.8 50.7 3 11.2-1.3 22.9-13.6 34 .7 3.3 3.2 7.6 9 12.6 8.3 1.9-1.9-1.5-2.2-1.5-3.3z"/></g></g><g id="Layer_1_2_"><g><path d="M52 1548v15l-37 37h946l-37-37v-15H52M52 52V37.7L14.3 0H0v1600h15l37-37V52m872 0V37.7L961.7 0H14.3L52 37.7V52h872m52-52h-14.3L924 37.7V1563l37 37h15V0z" id="Layer0_0_FILL_1_"/></g><g><path id="Layer0_0_1_STROKES_1_" d="M961 1600h15V0h-14.3L924 37.7V1563l37 37H0V0H961.7M52 52V37.7L14.3 0m.7 1600l37-37V52h872m0 1496H52" fill="none" stroke="#333" stroke-width="2" stroke-linecap="square" stroke-miterlimit="3"/></g></g></svg>