<svg xmlns="http://www.w3.org/2000/svg" xmlns:xlink="http://www.w3.org/1999/xlink" viewBox="0 0 976 1600"><style>.st4{fill:#ff970d}</style><path d="M960 22v1556c0 3.3-2.7 6-6 6H22c-3.3 0-6-2.7-6-6V22c0-3.3 2.7-6 6-6h932c3.3 0 6 2.7 6 6z" fill="#fff" id="Paper_Backing"/><g id="Wikipedia_Cropped"><defs><path id="SVGID_1_" d="M960 22v1556c0 3.3-2.7 6-6 6H22c-3.3 0-6-2.7-6-6V22c0-3.3 2.7-6 6-6h932c3.3 0 6 2.7 6 6z"/></defs><clipPath id="SVGID_2_"><use xlink:href="#SVGID_1_" overflow="visible"/></clipPath><g clip-path="url(#SVGID_2_)"><path d="M862.8 1604c-15.5.3 38.5-45.2 34.2-72.1 1.9-10.6 9.3-1.4 13.2-8.1 19.2-10.9 47.9-7.5 65.7-23 9.7-2.9 1.4 96.6 4 99.2 1.8 10.7-113.7.7-117.1 4zM0 1604c-7.5 4.1-6-76.8 0-72.8 62.8-20.2 123.3-37.4 189.3-50.5 20 9-18.7 45.7-7.6 57.9 15.5 11.2 36.4 11.2 53.8 4.8 89.9 26.8 43.7-62.9 67.2-72 68.6-5.8 151.3-13.5 222.4-6.9h.1c43.1-1.4 7.9 18.7 34.9 28.2 23.5 12.1 1.8 27.1 44.6 27.8 31.2 1.6 22.2-36.8 39.5-39.6 36.9-.8-43.7 91.7-48.8 112.9 13.3 28.6-591.2.8-595.4 10.2zm629.9-835.4c-27.1-34.7-20.5-89.1-29.1-129.1-24.3 3.7-157.5 48.4-95.9-15.7 79.2-106.3 107.7-17.3 46.4-145.7-15.5-38.2 89.6 20.8 98.2 32.6 6.8 5.7 14.4 9.8 20.1 17.1 1.3 4.7 6.2 12.6 12 6.8 16.5-13.9 141.7-66.4 139.3-31-14.6 25.4-43.9 49.4-73.6 66.7-5 3-2.8 9.2 1.5 11.6 29.5 21.7 46.4 55.7 58.7 88.6 4.1 6.6 1.5 15.3-8.3 12.9-32.8-4.9-59.5-23-87.7-36.1-24.4 37.8-38.8 89.3-81.6 121.3zm202-320c-28.7-9.4-42.4-84.8-55.4-74.5-14.4 9.5-110.2 105.9-102.3 60.7-3-58.4 47.6-119.2 4.6-107.7-167.9-1.9-57.9-64.8 27.3-78 11.6 1.9 21.3-1.1 15-14.7-5.7-29.1 4.4-57.1 7.5-85.5 5.3-64.9 83.8 66.5 84.3 90.7 4.1 9.3 2.8 26 13.4 29.4 15.8-2.2 39.9 13.2 44.8 27.9 4 6.3-3.9 12.1 1.8 17.2 6.3 3.3 16.4 27.9 1.4 27.1h.1c-8.1-.9-16.3-.9-14.6 9.9 0 28.7-4.2 76.2-27.9 97.5zM368 410.3c-23-4.8-53.1-89.8-65.8-75.1-4.3 17.6-108.8 84.8-96.8 43 43.9-131.8 47-51.2-56.6-114.4-87.9-39 74.1-70 104.9-72.3 3.8-9.1-18.5-115.3 5-94.8 99.5 88.1 13.3 96.3 137.8 42.1 25.4 39.6-19.6 99.8-46.3 136.8 8.6 16.1 29.4 31.7 2.2 43.5-11.4 16.4 50.4 15.6 15.6 91.2z" fill="#333"/><path d="M836.1 610.5c-15.8-10.8-7.3-60.2 1-83.7 1.1-13.3 26.6-36.3 7.5-39.2-15 7-96.3 7.9-84.4-16.4 19.3-23.4 45.7-55.6 66.2-24.3 13.4 10.5 29.2-33.6 29.8-43.8-.3-11.1 8.2-25.4 18.2-12.5 15.6 12.8 24.1 27.9 21 46.6 4.7 18.3 8.5 37.5 5.5 56.5 3.6 15.9 9.2 33.5 12.1 50.9-3.6 26.8-51.2 57.2-76.9 65.9zM553.3 314.1c-15-29.6-32.5-67.1-59.1-90.2-2.9 0-5.4 2.1-5.9 5-4.2 23.4-13.7 44.1-24 65-24.1 13.1 0-39.5-16.6-41.9-24.8 12.6-64.1 26.3-90.6 18.5-1.5-5.9 6.7-6.6 8.4-12.5 3.2-8.1 15.7-10.6 14.4-21.1 11.1-22 25-43.5 25.1-71.7-.5-11.4 7.3-25.3-8.9-28.4-9.8 1.6-33.8 21.2-43.1 11.3-15-20.3-44.7-84.1-30.5-108.9 45.8 30.6 104.9 40 144.6 80.6 18.9-27.8 21-74.4 47.4-98.5 40.3 26.8 39.7 86 44.5 125.4 30.9-7.2 70.8-9.8 100 11.4 16 27.7-71 68.7-91.9 79.6-.3 20.3 1.8 63.5-13.8 76.4z" fill="#ffeb5c"/><path class="st4" d="M783.1 1604c-59.2-.5-128.5.2-188.3 0-4.4-.2-5.1-5.7-1.7-8.1 9.5-7.8 11.7-19.9 18.8-29.8 18.7-20.8 26-45.8 42.8-70.1 16.4-27.3 28.3-58 49.2-81.7 3.4-8.5 5.9-21.3 13.2-25.4 3.2-.2 5.6-2.8 5.6-6 .7-20.6 15.4-35.3 25.5-49.4 4.1-23.7 20.2-44.9 31.6-64.3-.3-19.5 15.5-37.1 19.6-54.4 7.5-5.4 7.3-19.3 12.8-27 .8-7.8 9.8-9.8 9.5-17-.3-19.8 13.2-36.2 19.6-54.1 8.6-12.9 10-33.2 21-43.3 10.2-7.1.8-23.2 10.9-35.9 8.5-16.4 13.8-37.3 23.1-52.4.9-19.6 11.6-41 23.6-54-.6-29.3 11.2-56.1 18-83.5-3.3-7.8 8.5-15 6.2-22.2-2.7-8.3 1-18.3 1.1-27.2 1.1-3.4 5-6.1 2.3-10-3.3-11.4-5.2-28.4.2-38.6 3-1.3 4.4-4.7 3.2-7.7-11.1-25.4-7.1-44.1-.2-60.7-12.1-27.2-16.3-50.3-16-83.5-25.3-42-27-102.3-33.2-152.4-2.9-19.3-3.6-37.2.1-57.4-2.8-11.3-9.7-5.1-10.1-21.8-3.3-16.4-7-30.5-6-47.8-10-14.4-18.6-33.1-17.9-52.9-10.1-15.7-23-35.1-24.1-55.8-9.9-14-20.1-31-20.9-50.3-8.8-11.1-17.4-21.1-16.8-40-24-28.7-27.4-74.6-39.9-111.9C744.7-13.2 811.8-.8 816.6-4c8.6 4.6 5.3 19.3 6.2 29-.2 3.2 2.2 5.9 5.3 6.3 8 5.3 7.3 19.3 9.2 28.2 22 25 46 60.6 51.7 96.3 5.1 9.9 19.7 21.3 22.6 2.4-3.5-11.1-2.7-23-1.2-35.6 1.3-19.4 2.7-39.4 9.6-57.3-6-16.1-1-35 3.3-53.2 1.2-5.9-7.6-13.5 1.5-16h38.8c16.3 8-18.2 19.3-6.4 29.7 7.5 15.8-14.6 40.4-3.9 53.9 9.9 19.7-3.9 48.2 3.3 67.5 13 71.1 34.8 146.8 8.4 217.4-14.1 40.5-17.2 77-1.4 116.4 20.8 56.7-19.6 124 16.5 176.8-1.8 140.8 2.8 314.7-1.6 456.8-4.7 12.9 2.9 17.9-10.9 32.3-13.4 22.5-19.9 51.7-35.4 71.6 1.6 22.3-12 39.2-15.5 59.9-1.4 5.2-10.2 2-9.8 9-1.3 25.6-10.4 54.8-25.7 74.7-6.1-.3-6.5 6.6-6.1 11.1-9.5 13.1-23-20-26.6-28.5-9.8-6.3-22.3-11.1-31.7-21.2-24.4-29.1-19.3 49-31.1 59.5 4.5 26 11.3 53.2 18 78.6-.9 10.1-14.6 5.3-20.3 3.5-9.9 9.2-28.3 7.5-39 13.5-3 5-9.7 5.3-15 5.4-2.6 0-4.9 1.7-5.7 4.1-1.7 5.2-10 6.3-13.4 10-9.3 16.7 56.8 27.7 67.6 36.6 60.8 3.6 52.5 7.3 32.6 55.9 7.6 18.5-17.4 12.7-27.4 13.4zm-521.3-56.9c-9.4.8-18.8-1.5-26.8-6.5-28.1 10.3-69.2 5.5-45.4-33.8 2.1-28.3 29.4 2.1 43.4-13.6 6.5-6 8.1 3 13.9 3.5 12-7.5 24.9 7.5 36.5-2.4 15.4-2.8 2 32.5 3.4 41.4-1.5 7.7-16.3 5.3-25 11.4zm349-30.2c-4.3.2-8.1-6.7-12.7-2.6-8.2 5.5-29.4-2-25.2-13.7 1.7-12.3-24.9-8.3-24.9-23.8 2.7-9.8 11.5-15.9 15.8-25.1 6.8-12 8.4-4 14.5 1.8 9.9 1.9 8.3 10.3 15.9 11.7 3-.9 5.4.9 7.2 3.2 6 3.6 10.8 8.6 16.7 11.1 4 .2 9.2-3.8 11.8.6.2 11-5.4 36.2-19.1 36.8z"/><path d="M840.6 1604c-6.4-1.7-21.9 2.7-27.4-1.8-1.5-22.3 14.9-41 17.7-59-38-12.7-85.8-13.4-121.6-37.8 18.1-27.1 59.7-34.5 89.8-39.5 11.1-10.8-5.1-29.3-4.2-48-11.1-144.9 27.5-100.7 92-16.9 21.4-21.6 35.3-58.6 66.1-73.3 18.7 16.5 5.4 52.3 3.4 75.1 2.6 13.8-22 44.9-.9 47.6 31.8 4.6 23.7-1.1 24.5 30.4-2.4 6.2 4.7 25.8-4 28-18.7-3.9-39.3 10.9-59.1 10.7-6.5 2.3-20.5-7.4-20.5 5 4.5 32.2-24.6 54.2-36 77.6-1.4 4-17 1-19.8 1.9zm21.1-669.4c-11.4-22.3-5-75.5 5.5-97.3 11.5-26.4-93.2 35.7-147.6 17.5-14.2-13.5 6.3-37.5 15.2-48.1 10.2-25.1 88.6-55.1 74.8-66-21.3-17.6-44-38.5-45.1-61.6 10.6-5.3 28 6.4 38.8 4.2 16.5-1.7-9.5-26.8 9-24.8 21.5-2 43.2 8.7 65.1 11.1 8.1-21.3 20.6-82.3 45.9-79.4 11.4 16.4-4.4 33.4 8.2 42.7 13.7 32 7.8 67.5 12.3 101.1 4.6 13.3-7.1 15.2-.7 29-.2 70.1-8.5 133.2-81.4 171.6zM508.5 591.5c-15-11.3-25.7-116.9-53.2-94-15.7 11-146.4 69-128.4 24.5 11.3-45.3 24.9-76.9 57-114.7 12.1-11.1 23.3-21.9 7.3-35.4-3.9-13.7-49.8-51.8-39.5-55.7 33.1-10.1 63.6-11.6 96.4-6.7 24.6-7.4 27.8-43 40.7-67.4-1.6-15.5 14.1-10.4 19.2-.5 35.2 34.7 40.2 72.9 54.9 110.5 37.7 25.2 62.2 70.1 85 108.4-6.7 17-75.1 6.5-94 3.5-7.6-1.5-7.7 7.5-8.1 12.7-5.7 37.5-12.9 85.7-37.3 114.8zm288.8-403.7c-10.8-4.2-18.9-22.2-25.7-31.6-10-7.4-21-27.7-34.6-25.8-8 5-5.8 28.2-16.1 26.6-30.9-6.8-70.8-21.3-93.4-47.8 19.3-27.7 92-27.3 103.3-48.7-7.9-17-4.5-42-14.2-59.5-.4-2.3 1-4.5 3.3-4.9.2 0 .5-.1.7-.1 76.6 1.4 29.3-16.6 64.3 86 .8 5.1-8.8 7.1-4.4 13.1 7.4 8.8 10.2 17.3 18 23.8 9.6 25.1 31.6 51.5-1.2 68.9z" fill="#d81e1e"/><path class="st4" d="M216.1 1496.1c-7.4.8-25.2-2.7-19.6-11.7 7.7-16 11.1-32.9 13.1-50.3 2.3-19.5 4.7-36.9 4.9-53.2.5-45.1-7.4-59.5-14.5-126-6.2-57.6-5.3-93.8 1.5-130.5 1-5.2 1.9-9.6 2.5-12.5-21.2-13.3-50.5-36.6-67-74-13.7-31.1-10.1-52.6-8.9-105.4 3-135.6-14.1-148.8 1.1-214.4 6.6-28.7 20.6-59.3 47.9-95.5-20-41.1-14-37.7 21.1-18.7 23.5-13.2-42.5-56.3-59.3-63.7-15-7.4-15-14.6-5.4-22.9 2.7-1.9 3.3-5.7 1.3-8.4 0-.1-.1-.1-.1-.2-20.4-26.6-32.2-57.4-33.2-90.5 8.1-18.5 30.2 59.9 42 65.3 3.8 5.3 10.2 1.6 11.5-3.5 13.5-31.8 4.6 46.3 50 85 6.6 8.5 34.6 34.5 33.6 9.3-16.2-24.5-37.6-46.1-50.8-73-4.6-8.2 5.2-10.3 8.9-15.9-3.5-17.1-18.5-30.8-22.2-49.1-22.5-95.6 37.5 67 57.6 24.5 14.1-4.8 4 28.3 5.2 36.6-1.1 25.7 11.8 59.7 29.4 75.4 33.4-8.2 52.4 25 79.4 35.2 27.2 8.3 54.9 14.7 83 19.1 5.2-3.2 13.1 39.8 5.3 37.8-3.6 1.2-4.7 5.1-3.6 8.5-12.6 25.8-63.2 13.2-88.6 23.5-20.5 5.2-47.5 12.6-73.8 22.9-66.5 36.3-18.3 170.4 60.1 153.8 95-8.5 192.4-37.5 287.2-16.5 45.2 10.1 88.5 26.7 134.7 31.8 25.6 7.3 57.2-10.4 73.8 9.4.1 2.3-.2 5.2-1.2 8.4-3.1 9.8-11.3 14.8-13.9 16.2 4.3 9.3 8.7 18.7 13 28-6.8 1.9-15.1 5-24 10-13.7 7.8-23.1 17.1-29 24-2.2 5-4.3 9.9-6.5 14.9 3.5 106.7-93.1 148.4-45 210 8.3 14.4 23.5 28.2 9 41.9-14.6 26.6-24.8 55.4-37.8 82.8-14 31.1-28.1 63.4-38 96.2-8 14.8-5.2 40.8-24.9 45.7-29.3-5-20-9.4-33.9-19.2-14.1-1.2-27.9-18.2-14.9-29.4 18.9-47.7 33.9-104.3 31-155.2.1-37.1-6.9-72.5-41.1-91-12.4-6.4-28.8-16.6-44.9-32.7-11-10.9-19.1-21.8-25-31-17 3-34.7 5.7-53 8-33.1 4.2-64.5 6.7-94 8-4.3.3-8.7.7-13 1-7.7 45.8-14.9 92.9-21.3 141.5-9.7 72.4-17 142.4-22.5 209.7-6 14.7-32.2 9.6-43.6 3.2-11.1 5-21.6 6.4-33.6 6.8z"/><path d="M976 335.8c2.8-17.3 4.6-34.7 6.9-52 2.4-18.1-3.2-35.6-5.9-53.3-2.2-14.2-2.7-29-6.5-42.8-12.8-56.3-16-115.8-5.6-172.6 6.8-30.5-18.2 7.9-24.1 14-6.8 8.5-13.8 16.9-21 25.5 3.4-14.8 2.9-29.8 8.2-43.9 2.8-6.6-5.5-12.1-7.2-1.6-6.7 19.8-9.5 40-10.9 61-1.7 30-6.5 57.6-9.5 88.3-13.3-35.8-29.7-66.5-49.7-98.2-11.6-19-19.3-39.5-26.6-60.2-2-6.9-9.8-4.3-7.1 2.5 6.7 37.1-8.2 69.9-16.8 107-12.4-36.7-21.8-68.3-31-104.8-.5-2.3-.5-4-3.5-3.9-8.8 1.8 4.2 32 4.5 38.9 2.5 14.6 7.2 28.8 10.9 43.2-16.5-21.7-25.6-48.9-36.2-74-1.1-2.8-2.8-7.4-6.3-6.4-7.9 3.1 8.5 29.8 9.3 37 4.9 15.4 14.2 28.7 21.2 43 4.9 9.9 10.1 19.9 18.4 27.9-26.9 3.6-53.4.8-80.3.6-13.6-.8-27-4.1-40.9-3.3-7.4-.7-10.6 6.2-2.3 7.3 18.1 1.9 36.2 4.5 54.4 5.8 23.9 1.2 44.2 1.5 68.8-.2-10.8 7.9-11.5 17.3-19 26.8-10.2-8-17.3-22.8-31.4-22.5-7.3-.2-5.3 10.7-10 14.6-4.3 3.6 2.3 15.2-8.3 12.9-31.7-7.6-62.3-21.7-87.1-43.3C661 88.7 697.1 81.8 730.7 71c2.8-.9 7.7-1 6-5.7-7.1-19.6-10.4-39.8-11.7-60.4-.4-4.5-6.7-6.1-6.6-.2-4.1 11.3.8 22.5 1 33.8.1 5.2.2 12.1 4.7 17.1.3.3 5.7 5.5-.1 7.3-33 10.1-68.1 17.3-96.4 38.4-4.6 3.4-9.3 7.6-.9 15 14.3 12.6 29.5 23.2 46.2 31.2 15.8 11.1 54.3 7.5 45.8 35.5-6.1 20-5 39.6-1.8 59.6.4 2.5-.9 2.2-2.7 1.6-23-6.9-44.7 10-65.8 12.3-22.9-6-48-9.2-68.9-20.3 32.6-15.4 69.4-32.9 86.8-67.3 1.7-3.3 5.5-10.4-1.3-13.8-10.9-5.5-21.5-11.3-33.4-15.3-39.2-15.5-74.4 11.6-70.3-1.6 4.5-41.7-7-87.8-36.9-118C500-1 468.6 95.9 466.5 113.9c-32.6-49.2-99.7-44.9-141-81.6-24.1-27.1-6.5 54.8-3 62.9 6 18.2 11.5 36.2 23.3 51.6 1.2 1.5 6.3 4.8 1.9 8.1-6.2 4.7-12.9 8.7-19.2 13.3-2.2 1.6-2.5 1.7-3.9-.8-14-23.4-48.7-75.3-75.8-80.2-10.5 4.1-3.4 24.3-4.4 33.3.9 22.3-.8 44.9 6.4 66.6.3 1 1.5 3.6-1.9 3.1-41.1-3.1-105.5 14.4-134.5 44.7-2.4 2.6-6.8 5.8-2.5 9.7 34.8 28.8 77 51.6 122.9 54.7-8.8 8-16.1 16.9-19.6 27.7-6.5 20.4-11.7 41.2-17.1 61.9-.7 2.8-1.5 7.9 3.2 7.9 39.1-2.8 76.8-22.6 99.8-54.3 1.4-3.2 6.4-5.4 8-.9 14.3 26.6 28.5 53.3 53.3 72.3 1.3 1 10 .8 4.7 7.8-22.6 30.7-36.6 66.7-46 103.4-3.6 12.6.3 18.3 13 17.9 40.6-3.5 80-15.4 115.8-34.9 5-2.8 13.9-22.1 21.9-1.3 12.5 27.4 21.6 56.1 29.6 85.1.9 2.4 4.4 5.8 6.3 5.8 17.9-7.2 39.9-89.6 40.1-113 10.6 25.5 20 48.6 36.7 67.8-27.3 10-50.7 29-69.6 50.5-9.5 13-35.8 39.2-32.5 55.3.9 5.1 6 2.5 9.2 2.8 36 1 77.1-2.1 109.4-20.2-2.7 12-3 24.4-.8 36.6 2.1 12.8 1 25.6 3.6 38.6 3.7 18.5 13.5 34.7 17.5 52.9.9 4 3 11.7 9.3 7.3 34.3-32.2 63.4-72.9 76.7-118.5.9-3.3 1-8.5 8-4 7.6 5 14.6 11.3 23.8 14.1 5.7 1.7 13.3 5 15.4 9.7 11.6 25.3 24.3 49.3 49.5 63.9 1.3 1 5.1 4.4 2.8 5.5-38.9 17.8-76.5 45.4-94.4 85.3-3.3 7.5-5.4 21.5 2.5 24.1 49.8 15 102.3-1 147.8-21.5-12.9 26.3-13.3 55.1-11.5 83.7.1 6.4.2 14.9 4 18.8 8.7 9 15.9-1 22.3-5.5 14.2-10 26.5-22.4 39.3-35.9-25.2 84.7-59.5 165.7-93.8 247-21.8 54-43.4 108-70 159.8-28.8 57.7-59.4 114.7-92.3 170.3-3.8 5.8-9.2-1.8-14.1-.7-.1 0-1.3-2.2-1-3 15.4-35.3 25.2-72.8 41.3-108 13.5-31 27.1-62.1 38.8-93.8 5-13.4 21.7-24.4 9.6-42.7-5.7-8.7-10.3-18.3-15.9-27.3-36.3-50.8 37.7-54.3 49-167.2 2.9-23.5 15.1-62.8 40.7-69.5 17.1-.6 25.3-17.6 10.3-28.7-8.4-5.8-4.8-8.4 1.1-13 22.2-13.9 11.4-38-12.9-38.3-21.5-.3-42.9-.2-64.4-3.4-30.8-5.5-60.8-13.8-90.7-22.8-31.9-7.2-62.5-16.5-95-17.7-8.6-.9-17.9 1.7-25.8-.7-9.4-2.7-18.5-1.3-27.3-1-38.5 1.9-76 14.3-114.1 19.1-26.8 1-83.7 13.6-103.9-3.3-27.7-23.6-41.5-53.1-37.3-89.8 1.2-10.2 3.5-20.5 13.8-26.3 42-23.8 91.4-28 137.4-40.5 14.3-2.8 30.1-3.1 38.5-17.3 58.6-87.6-61.7-44.2-107.7-87.5-36.8-34.8-63.1-14.5-73.6-37.8-26.7-47.4-1.2-86.3-26-100.4-3.6 3.8-2.4 11.9-8.1 13.1-1.8.5-5.1-3.5-7.3-5.9-16.4-19.6-30.5-41.2-40.3-64.9-1.5-4-5.2-6.7-9.5-6.8-9.4 1.2-3.8 19.5-3.5 26 3.2 18.4 8.2 36.5 14.8 54 4 8.4 19.3 18.1 1.8 28.7-.7.4-.6 2.5-.5 3.8 7.6 31.5 39.7 49.9 55.4 76.9-12.7 9.1-21.9-15.2-30.7-21.8-13.4-14.5-23-30.5-28.7-48.1-4.2-12.2-5.4-25.9-6.3-39.4-10.4-3.8-15.9 9.3-21.4 15.6-14-25-29.7-49.2-36.7-77.3-.6-2.6-2-4.8-5.6-4.4-11.7 2.4-9.8 18.8-9 27.9 2.1 31.3 15 62 30.4 87.9-8.6 11.5-8.3 18.7 4.7 26.9 22.2 14.1 43.2 30.1 62.7 47.7 1.9 1.7 2.7 4.7 4 7.1-.8.1-1.9.5-2.2.1-7.7-9.2-19.6-12.3-28.3-20-2.3-2.3-5.9-2.5-8.6-.7-9.3 5.9 5.5 32.3 9.2 40.3 2.3 4.2 4.6 8.8-.9 14.2-29.5 32.4-47.7 73.5-52.1 117.1-5.2 49.2 11.2 97.3 7.8 146.3-6.1 38-9.4 77.2-.8 115.2 8.8 38.3 30.1 72.1 62.2 95.7 5.9 4.4 18.9 6.4 13.7 18.6-9 25.6-8.3 53.9-9.6 80.9.3 42.8 9.6 84.2 18.4 125.8 3.5 20.3.4 40.9.1 61.3-.2 11.7.4 24-2.7 35-3.3 11.6-4.1 23.1-5.5 34.8-.5 4.1.8 10.7-6 11.9-39.2 5.1-77.1 16.6-115.4 26-26.6 6.7-53.1 14-77.3 27.2-4 2-2.1 9.8 4.3 6.8 23.3-8 46.2-17.2 70.4-22.3 17-3.6 33.6-9.2 50.4-13.4 20.1-5 40.4-9.4 60.7-13.8 1.6-.3 6-1.8 5.2 1.6-1.9 8.5-4.2 17.1-7.9 25-11.7 25.1-11.3 27.3 5.5 34.8 10.9 4.9 21.5 6.9 33.3 4.6 6.1-1.2 11.8-6.3 18.5-2.6 19.2 10.7 49.6.5 57.9-19.4 1.5-3.6-1.6-6.6-.9-9.3 2.8-11.3 1.4-22.7 2.5-34 .4-3.7-2.9-10.1 3.1-10.7 24.1-2.4 48.3-4.1 72.5-5.6 13.3-1.7 182.8-10.2 169.6 6.5-5.7 9.9 1.8 12.8 7 16.9 6.1 4.8 17.1 4 16.5 16.1 2.2 11.7 17.1 12.7 26.6 14.2 18.4 4.4 32.9-3.9 40.3-21.8 2.7-6.4 0-23.6 17-13.7-18.2 35.6-41.3 68.6-60.6 103.6-1.5 2.8-2.4 6.6-.7 8.6 2.6 3 4.8-2.2 6.6-3.5 9-7.4 10.4-19.2 17.1-27.9 2.5-3.2 4.5-7.6 7.9-9.1 2.3-1.1 2.9 3.9 4.2 6.3 6.3 11.4 12.3 23.3 19.5 34.2 2.7 3.3 8.8-1.1 5.8-5-7.7-13.5-15.6-26.8-22.8-40.5-2.3-4.4-.8-9.8 3.5-12.3 3.8-2.2 3.6 3.1 5.3 4.9 2.7 2.8 4.5 6.5 7.1 9.5 10.9 12.6 21.9 25 30 39.7 1.2 3.7 8.3 9.3 10.6 3.8-7.7-18.1-21.3-33.8-33.8-49.2-5.2-5.9-15.6-11.2-12.6-20.2 3.5-10.5 10.9-19.6 18.3-32.1-3 10.8 2.9 16.4 6 22.1 14.7 26.4 30.6 52 43.6 79.4 1.3 2 3.7 2.8 5.9 2 6-2.1-3.4-16.3-4.9-20.3-15.4-29.6-34.8-58.4-48.4-88.4 8.5-11.1 13.6-23.9 20-36.2 23.8 40 30.3 86.9 44.9 130.3 1.6 4.3 4 8.9 8.9 9.3 2.3 0 1.3-3.4 1-4.7-7.6-27.8-14.7-52-22.8-80.5 10 8 23.2 6.3 28.3 18.3 10.2 23.9 25.3 45.5 34.1 70.1.7 3.3 3.3 7.1 7.1 5.8 10-5.1-30.1-68.9-34.9-80 5.7 2.7 9.9 4.8 14.1 6.6 3.3 1.4 8.4.1 10 4 5.9 14.6 15.9 26.3 25 38.9 5.3 7.2 12.9 14.2 11.2 24.8.6 5.6 10.6 3.1 10.2-2.1 3.4-19.1 9.6-37.1 21-53 .7-1 .3-3 .1-4.4-.2-2.1-1.9-3.6-4-3.7-12.3-1.6-24.7-3.1-37-5.4-29.3-5.3-56.9-15-84.1-27 21.6-19.8 50.5-29.3 79-33.5 8.7-1 18.6-1.8 14.8-14.8-3.6-12.7-6.3-25.7-8.1-38.8-4.3-28.4-1.5-56.7 2.4-84.9.1-.8 1.5-1.4 2.4-2.2 15.2 53.6 36.6 106.3 66.2 154 3.1 5.6 7.7 11.4-4.9 10.9-34.1 5.5-68.8 6.6-103.5 6.6-4.8.3-5.8 5.1-.3 5.2 34.8 3.6 69.9 3.3 104.3-3.9 1.3-.2 4.5-1.1 3.3 2.3-11.1 29.5-22.4 58.9-33.2 88.5-1 2.5-3.8 7 .1 8.8s4.8-2.6 6.2-5c12.1-29.4 21.6-59.9 33.5-89.5.9-2.4 2.1-8.4 5.3-6.2 29.7 26.6-1.3 69.7-22.1 92.5-4.6 4.6.5 9.7 4.9 5 66.7-58.6 4.2-107.9 83.7-19.4 3.1 3.5 6.9 5.8 11.4 5.7 1 0 .5-3.5-1.1-5.4-13.6-15.6-27-31.4-40.7-46.9-11.4-11.8 10.3-11.3 17.7-12.4 5.4-.6 46.4-11.4 40.8-17.8-1-1.2-2-2.6-4.9-1.4-17.7 6.7-36.1 11.4-54.8 13.9-7.2 2-29-9-22.8-16.6 7.4-3.9 100-4.2 83.3-18.2-29.2 6.8-59.6 7-89.5 9.5 10.2-21.3 20.6-42.5 31.6-63.4 5.8-10.8 12.7-21.1 15.2-33.4 2.6-4.9-2.4-6.4-4.3-1.7-16.9 30.3-33.1 60.4-49.2 91.2-26.9-50.2-54.6-102.2-68.3-157.8 20.2 10.3 53.4 51.9 65.6 72.4 2.6 4.8 3.5 12.4 10.7 12 5.8-.3 6.7-7.7 8.9-11.8 13.1-24.4 30.8-46 52.1-63.6 1.6-1.3 4.8-4.2 5.6-1.3 2.3 8 5.6 17 3.9 24.6-2.6 27.2-5.6 54.3-14.5 80.5-1.4 3.7-11.5 12 .5 14.5 7.7 1.7 15.7 2.4 23.4 4.2 4.3 1.9 13.5.3 6.7-5.4-4.9-1.8-10.4-2.4-15-4.7-3.2-1.6-10.5-.3-9.2-4 9.8-32.8 21.7-72.9 12-106.5-2-5.9-1-15.9-11.3-11.2-31.8 17.8-48.2 45.2-66.2 78.7 1.6-9.7-6.2-13.2-3.5-19.5 9.8-22.9 20.5-45.4 29.7-68.5 12.1-30.9 20.8-63.1 31.5-94.5 11-26.6 19.3-55.6 33.5-80.5 7.3-10.3 3.3-19.3.2-29.4-14.3-45.1-.5-93.2-13-138.9-4.7-22.6-12.8-44.1-21.4-65.4-3-7.5-9.8-14.7-9.7-21.9.1-9.9 5.2-19.7 8-29 14.4 16.4 25.6 35.5 32.8 56.1.4 1.5 1.7 2.7 3.2 2.9 6.6-.5.4-12.3 0-16.2-6.1-19.8-17.4-36.5-33-50.9-4.3-3.9 1.7-7.5.8-11.4 0-.2 3.5-1.9 4.1-1.4 6.8 5.2 14.1 9.8 19.4 16.9 5.2 10.5 14.3 6.2 10.9.3-5.9-7.2-11.8-14.4-18.2-21.2-4.1-4.3-14-2.5-13-12.3.7-6.6 1.3-13.2 2-20.3 8 6.5 15 12.4 22.3 17.9 3.6 1.6 7-1.4 4.6-5.3-25.4-25.3-29.3-19.8-26.8-57.9 8 9.1 15.7 17.7 23.3 26.4 1.2 1.3 2.3 1.7 3.5 1.3 2.3-1 4.2-3.4 2.1-5.7-18.9-21-37.8-55.5-28.3-82.7 7.7 13.3 12.1 32.5 26.2 40.8 3.5.5 3.5-3.4 2.4-6.5-28.1-53.4-44.3-83.4-39.2-146.2 2.2-22.2 6.1-44.8 5.3-67.2-.8-13.9-4.9-27.7-7.3-41.5-11.1-61.3-13.9-62.5 11.3-120.7 4.7-13.3 9.8-26.7 12-40.4 4.9-26.1 1-52.9 6.4-79.2 1.9 15.7 8.8 30.6 8.8 46.1-1 12.3-3 24.7-3.9 36.9-4.2 41.5-25.3 81.5-24 123.7 1.4 13 8.5 25.3 11 38.4 21 64.8-15.3 124.7 13.6 177.6 1.2 2.2 2.9 4.4 5.3 2.7 4.1-2.6-.6-6.5-1.6-9.4-11.5-24.9-8.9-56.3-4.8-82.9 4.1-18 3.8-36.2 1.4-54.3-1.7-13.3-3.2-26.7-6.8-39.9-3.2-11.8-9.9-22.6-9.7-35.3.8-34.8 15.6-66.3 20.1-99.9zM212.6 533.4c-7-11.3-15.4-22-21.2-33.9-3-6.2 6-7 9.7-9.8 1.9-1.4 4.6.3 2.3-4.2-14.1-24.6-26.4-45.7-31-74.9 13.8 25 26 44.8 46.6 63.3 3.3 3 5.9 1.3 16.1-10.5-.6 12.1-.3 22.7-1.8 33.4-.9 23.9 7.5 50.8 23.3 69.2.4.4-.5 3-1 3.1-4.9.6-11.6 7.1-13.9 2.7-7.6-14.5-20.7-24.6-29.1-38.4zm-3.1 1007.2c-5.9 1.7-12.3.5-17.2-3.3-15.4-11 1.1-20.3 1.3-30.4.1-8.8 3.4-11.7 12.3-6.3 3.6 2.2 9.7.4 14.5.4-3.3 11-6.3 21.3-9.4 31.6-.8 2.7 1.8 7.1-1.5 8zm20.5-4.5c-1.1 3.7-4.9 5.9-8.7 4.8-.2 0-.3-.1-.5-.2-4.9-1.6.2-4.2.5-6 2.2-11.4 5-22.8 8.4-33.9.8-2.5 5.3-3.8 8.1-5.7l1 1.6c-3.1 13.9-5.6 26.7-8.8 39.4zm4.1-46c-11 1.7-22.3 3.8-33.3-1-2-.9-1.6-1.3-.8-2.7 9.7-15.4 10-33.3 12.8-50.4 2.9-18.1 4.4-36.5 5.7-54.8 4.6-51.8-14.5-101.4-18.1-152.9-1-12.7-1.9-25.7-2.4-38.2-.7-18.9 5.8-38 6.3-57 .2-11.9 2.6-12.1 15-8.1 12.4 2.5 9.1 9.6 9.8 19.8-2.3 55.4 12.2 117 22.1 172.9 8.8 31.6 5.3 63.3-.4 95 1.6 23.7-4.1 47.9-6.2 71.7-.6 5.3-7.3 5.2-10.5 5.7zm36.7 13.5c-5.3 11.8-4.3 24.5-6.1 36.8-.8 5.3-6.4 1-8.7 2.6-29.5 1.4-5.2-19.6-5.4-34-.7-21.8 13.6-3.5 19.2-7.7.4.7 1.3 1.7 1 2.3zm11.9 31.6c-.2 1.5-4.5 3-7.1 3.3-1 .2-1.1-2.6-.8-4.6 1.6-10.2 3.1-20.4 4.1-30.6.5-4.7 5-3.5 6.9-5.9 1.1 13.3-2.1 26.2-3.1 37.8zm185-82.1c-55.1.8-110.9-1.4-164.8 11.3-2.6.8-2.9-1.6-2.5-3.2 5.7-24.5 4.6-49.4 4.6-74.2s6-48.7 11.7-72.8c10.4-45.1 17-91 22.3-137 1.4-11.2 2.8-22.4 4-33.7.4-3.9 3.2-2.8 4.7-2.3 13.1 4.7 25.5-1 38.2-2 32.5-1.8 64.8-6.3 96.1-15.2 5.1-.7 10.7-5.4 15.6-3.9-1.8 10 6.8 15.6 11.6 22 10.5 14.1 24.4 24.8 38.3 35.5 14.6 11.1 32.3 18.6 42.4 35 7.8 12.6 8.7 27.1 9.8 41.3 3.3 38.6.5 77.4-10.6 114.6-4.5 26.3-11.5 52.2-27.4 74.1-4.6 6.3-5.7 16.4-13.7 16.7-28.7-3.3-54.4-6.5-80.3-6.2zm123.4-52.6c11.4-32.8 17-67.4 21.5-101.8 1.2-8.9 1.4-18-.6-27.1 0-37.7-6.3-73-42.9-93.6-23.2-15.1-49.6-33.1-63.8-57.8 0-2 1.6-3.8 6.5-5.3 13-4 25.5-9.2 38.3-13.8 1-.2 2.1.1 2.9.8 16.5 19.5 33 39.1 49.3 58.8 19.7 23.5 29.1 51.8 39 80.1 14.7 35.9-2.5 73.7-11.3 108.9-11.1 33.8-23.5 67.3-35.8 100.6-3.3 7-9.9-.9-13.2-3.2-13.2-9.2 1.5-16.3 3.5-24s4.2-15.1 6.6-22.6zm-35.3 82c-10-8.4 2.9-12.2 5-18 2-5.4 6.2-10 9.7-15.3.3 3.6 2.7 6.7 6.2 7.8 14.2 4.9 7.8 10.9 3.7 20.2-7 15.2-15.1 13.3-24.6 5.3zm41.2 27.2c-4.6 5.9-12.1.5-17.7-1.5-3.6-1.3-4-5-1.1-9.3 6.6-9.6 12.1-19.9 18.1-30 2.4 2.1 4.2 5.7 8.5 6.7 5.7 1.3 5.9 5.3 3.9 9.7-3.6 8.3-6.2 17.5-11.7 24.4zm28.2-21.1c-2.5 5.9-5 12-6 18.3-.9 5.4-5.6 3.7-7.2 5.8-3.3.5-3.7-.8-3-2.8 2.8-8.1 5.5-16.2 8.4-24.2 1.5-4 6.1-2.1 8.8-3.9 1.5 2.6.1 4.5-1 6.8zm9.4-23.5c-5 12.9-15.5 5.1-23.6 3-12-3.2-10.9-9.6-6.2-19.7 21.1-44.7 36.8-91.6 48.1-139.6 4.5-18.4 8.5-37.3 6.1-56.5-1.3-10.7-8.2-19.2-12.2-28.8-6.6-15.9-9.3-33-18.8-48.2-28.1-47.3-71.7-83.4-99.3-130.8-15.9-25.3.7-34.2-20-55.4-.7-.8-3-1.3-3.3-.9-1.1 1.5-2.9 4-2.4 5 7.6 14.4 5 30.8 9.2 45.9 4 14.6 11.5 26.8 21.3 37.8 11.7 13.1 2.7 15.7-7.7 18.1-26.1 6.2-51.1 16.6-78 20.4-32.5 4.5-65.2 6.7-97.9 9.6-2.9.2-6.1 3.9-5.8-4.5.7-21.8-1.9-43.5-3.3-65.2 1.8-7.4-6-5.2-6.2 1.1-.2 73.7-11.1 146.8-23.1 219.4-7.5 42.1-20.7 83.5-18.8 126.8 0 24.1-1.9 48.2-5.9 71.9.4 4.8 4.5 12.4.3 13.8-10.9 3.5-23.2 5.9-33.3-2.1 4.4-21.9 7.7-49.1 8-72.6.5-18.3 5.3-36.6 5.1-55.2-3.7-61.4-21-121.1-25.3-182.4-2.7-38.9.5-77.9 6.1-116.3.4-2.9.9-7.7-1.9-7.9-9.3 0-10.4 32.5-12.9 40.4-1.1 6.6-1.2 13.3-2.2 19.9-.6 4.3-4.4.9-4.8.7-20.3-12.6-43.6-21.7-58.4-41.2-16.4-21.6-31.2-44.7-35-72.2-8.4-35.1 1.4-70 2.9-105.2.4-107.3-37-158.7 40.3-259.8 5.1 7.2 32 49.4 41 41.4 2.2-1.8.6-3.5-.4-4.7-20.3-22.2-39.5-48.8-47-77.6 18 8.5 34.1 22.3 51.4 32.7 2.8 1.9 5.5 3.8 9 2.9 8.4-6.7-19.4-20-23.8-24.1-4.6-3.8 13.4-2.2 3-12.8-20.3-21.9-40.4-43.6-68.9-55.5-8.5-3.5-15-10.3-1.8-17.7 4.8-2.7 3.9-6.5.9-10.2-20.6-25.8-32.8-56.6-34-89.8 11.4 26.4 21.6 52.6 40.5 74.4 5.6 6.1 6.4-2.8 8.9-5s3.4-6 6.3-11.4c0 47.2 30.3 84.5 64.8 112.2 5.3 4 13-4 19.8-6.2 16.5-5.3 31.8-10.6 50-3 18.8 7.9 29.8 26.6 49.5 32 13.4 3.7 26.7 7.9 40.2 11 14.2 3.3 28.6 5.5 42.9 8.2.3.1.9 0 1 .1 1.9 9.8 3.8 19.6 5.1 29.5-17.4 4.5-40.6 1.6-58.3 8.8-1.4.5-5.2-.1-4 2.8 4.4 6.4 36-1.7 45.4-.9 3-.2 8.7-3.2 9.5 2.6.9 6.7-6.2 5.7-9.8 6.9-5.9 1.9-12 3.4-18.2 4.3-45.3 3.7-89.8 14.1-132 31-69.6 32.3-23 179.2 61.9 161.5 80.4-9.4 161.1-25 242.2-24.2 61 6.4 118.2 32.8 179.1 39.5 18.8 1.5 37.8 2.3 56.7.3 5.7-.6 11.9 1.7 13.7 6.5 2.2 9.7-19.8 15.2-16.8 25.6.5 3 2.6 6.2 6.8 9.8 11.4 9.6 6.4 14.7-5.8 17.8-14.4 2.9-23.7 14-34.5 23.1-2.7-11.6-7.1-19.9-14.6-29-9-4.8-7.6 8.1-4.3 12.4 15.5 30.8 4.6 66-1.8 97.9-8.5 33-25.1 61.5-44.5 88.9-8.8 12.5-7.7 40.1 2.7 54.5 5.8 8 9.3 18.6 16 25.7 12.3 13.2-.5 20.5-4.6 30-30.7 68.4-61.9 136.6-84.3 208.5zm146.9 72.7c12.7 1.2 25.2 3.7 37.4 7.4 7.8 2.8.3 8.8-.6 12.7-1.7 7.8-5.5 15.2-8.5 22.9-4.1-13-29.6-33.5-28.3-43zM954.9 29c-6 41.6-19.7 82-42.7 119.1 5.3-43.4-1.5-91 42.7-119.1zm-44.5 170.6c.6-22.3 1.3-42.4 17-60.1 12.6-16.7 14.4-37.5 21.9-56.4l2.4.1c5.7 82.2-15.9 43.9-19.6 114.3-1.2 13.6-7.1 25.9-10.1 39-3.2 48-7.9 94.5-24.3 140.6-20.2-62.1 4.7-116.7 12.7-177.5zm-.6 554.5c-31.1-23.5-54.4-52.3-88-70.5-10.6-4.8-8.9-13.2-12.9-21.1 21.8-.5 42.4 3.8 62.2 11.3 23.1 10.9 4-41.3 48.7-81.9 10.2 20.7-.9 40.1-4.5 60.2-2 11.1-2.1 22.6-4.4 33.7-3.8 18.5-.3 37.3-3.5 55.8-.7 3.4 1.2 7.2 2.4 12.5zm2.2-168.5c-54.1 54.4-26 92.1-53.7 74.2-16.8-2.7-33.3-7.9-50.8-6.2-1.8.2-4.9-5.9-6.3-9.5-8.7-22-21.1-41.5-39-57.2-3.9-3.4-7.9-6.8-11.8-10.1-2.8-2.4-.9-3.4 1.2-4.6 28.8-17.6 62.8-36.8 73.5-71 2.8-11.1 17.3-3.4 25.3-12.9-21.9 40.5-39.3 81.8-21.2 126 3.8 8.5 10.6-.7 14.6-2.1 27.1-8.9 47-29.7 66.5-49.6 7.5-5.3 5 20.8 1.7 23zm-10.2-25.5c-6 6.4-67 61.7-68.7 41.6-.6-22.8-3.3-49.1 7.7-73.5 5.6-15 12.7-30.1 23.1-42.9 1.3-1.7 1.5-3.1.7-4.3-2.2-5.5-33.2 7.7-41.5 6.9-19.6 2.3-39.2-2.3-57.8-8.1-6.5-1.1-3.4-4.2-1.8-6.2 11.4-15.5 24.7-29 42.8-36.6 6.8-2.8 8 5.3 12.4 7.6.7 3.7 10.3 7.9 8.6 9-12.7 7.5-32.7 3.8-41.9 17.2 1.9.7 4 2.3 5.6 1.9 16.4-3.8 32.4-8.8 49.2-10.5 17.8-1.8 35.6-4 53.6-3 6.7 0 1.9 22.4 4.3 28.2.8 4.7-5.5 10.7-8.8 16.1-12.8 20.9-25.7 41.8-38.2 62.9-1.1 1.8.2 5.1.3 7.7 2-1.3 4.7-2 5.8-3.8 14.5-21.5 26-47 41.6-66.7 5.2 13 6.1 28.3 9.9 42.1 1.8 6.5-3 10.9-6.9 14.4zM652.5 460c-12.8-30.2-32.7-55.9-53.2-81-8.3-10.1-16.8-20.5-29.2-26.5-2.2-1.1-1.4-2.8.7-4 13.2-7.7 25.5-18.2 39.7-22.5 9.3-2.8 21.2 3.2 32 5.3 17.3 3.7 34.6 4.7 52 0-14.8 34.1-25.3 70.1-27.2 107.2-.7 6.1.4 12.4 3.3 17.9 6 8.9 23.1-9.4 30.8-13.4-10.4 28.4-18.8 54.6-27 81.8-21.5-21.4-44.2-38.9-75.1-51.7 19.3.2 33.3.2 51.4-3.8 9.2-1.9 2.6-7.4 1.8-9.3zm191.9-212.7c-7.2 4.6-13.7 10.4-20.5 15.7-5.6-21.7-6.5-44.2-20-62.9-1.7-2.3-1.8-4.1.8-6.5 4.9-4.9 8.4-11.3 12.5-16.9 13.6 19.2 19.3 43.3 29.4 64.5.8 2.1.9 4.1-2.2 6.1zm7.8 5.9c2.9 8.6 5.5 15.2 9.1 24.6-6.6-5.5-13.6-7.6-19.5-11.3-7.8-4.9 2.7-5.4 3.5-8.6.6-2 4.5-3.2 6.9-4.7zm-26 20.6c7.7-4.8 17.6 2.3 24.2 7.3 10.2 6.9 16.1 7.5 18.1 20.7 1 2.3-2.6 3.4-5.8 2.5-21.7-6.6-43.9-2-66.4-3.5 9.7-9 18.6-20 29.9-27zm8.8 123.7c-6.9-29.7-18-61.5-38-84.4 17.6 0 36.9.6 56.1-.2 15.8-.6 23.9 6 24.9 21.6.7 4-6.1 2.3-8.4 2.4-12-2.4-13.8 3.2-13.8 14 0 18.3-1.1 36.5-6 54.7-3.5 13-10 24.1-15 36.1-1.6 3-3.1 4-5.7.6-21.9-19.8-33.3-47.3-42-74.9-1.5-4.4-4.2-4-6.7-1.9-31.2 25.1-57.5 52.1-91.1 74.7 25.1-44 52.7-80.1 85.1-117.4 9.6-11.3 14.2-9 22.7 4.8 9.1 14.8 16.6 30.6 22.1 47.1 3.6 7.9 3.8 26.1 12.5 29.4 3.5-.3 4-3.9 3.3-6.6zm54.7 31.1c-9.3-5.6-18.4-11.7-28.8-15.4-1.1-.4-1.7-2.4-1.9-2.7 2-11.3 1.9-30.7 14.6-15.1 4.7 3.7 7.7 9.7 12.4 13.4 6.1 4.8 4.2 11.6 6 17.5.5 1.4-.2 3.6-2.3 2.3zm5.1 21.6c-3.1 1.8-5.9-.9-8.5-.9-16.8 1-33 .8-49.6 4.1 7.7-11 14.2-21 18.4-32.4.6-1.6 9 1.5 13.7 4.4 6.4 4.1 12.7 8.7 19.7 11.3 7.4 2.8 3.2 9.6 6.3 13.5zm-29.2-69.8c-1.8-10.2-.4-22.1-1.2-32.7 0-1.1-1-2.5.9-2.5 5.2.1 14.5-.4 14.8 1 3.9 17.2 6.5 34.8 9.8 54.4-8.8-8.4-15.2-15.9-24.3-20.2zM685.1 524.1c10.2-28.7 17.2-59.2 29-87 6.7-12.3 20.3-18.8 29.6-29.4 9.6-10.8 22.2-18.9 33.4-28.2 2.8-3 4.7-2 5.6 1.5 3.5 17.4 13.2 32 21.5 46.9-18 7.9-74.7 51-33.1 62.5-17.8 9.4-39.1 12.5-57.4 22-9.8 4.2-18.8 9.9-28.5 14 0-.6-.1-1.4-.1-2.3zM893 165.7c26 26.2-12.8 106.8-10.8 142.8-3.1-9-6.3-17.9-9.1-27-4.3-14 .7-27.7 2.8-41.3 5-24.8 10.8-50.4 17.1-74.5zm-9.1-19c3.5 25-8 48.3-12.8 72.4-2.7 11.8-4.5 23.7-6.8 36.4-5.9-13.6-13.3-26-16.4-39.4-.1-38.3 26.8-73.1 16.9-113.1 6.8 17.4 15.2 29.5 19.1 43.7zm-42.6-74.3c.3-1.2.7-2.4 1.2-3.5.5.4 1.4.7 1.5 1.2 3.3 14 20.3 22.8 15 37.4.3 34.5-11.8 61-18.5 92.4-30.3-46.9.9-78.5.8-127.5zM812 100.8c7.1-22.2 10.7-42.2 15.6-65.6 15.9 41.7-4.5 76.9-8.2 114.7-10.4-12.4-11.9-35.8-7.4-49.1zm-31.1 41c3.8-7.1 8.8-13.6 13.9-21.4 6.1 14.5 12.6 28.6 17.6 43.1.9 2.5-5.1 7-7 11-9.8 20-13.3 2.2-18.4-3.1-8.7-13-17.1-14.1-6.1-29.6zM664.1 262.6c15.2-5.3 30.4-9.6 46.3-9.6 17.2 1.6 19.7-2.6 14.5-19.8-4.4-14.7 0-29.6 1.6-44.4 2.5-19.9 4.7-37.7 11.4-57 44.5 38.4 65.5 80.1 79.3 135.3.3.9.2 1.9-.3 2.6-9.9 9.1-18.9 19.8-30.3 26.6-7.3 4.4-6.1-6.9-7.2-10.3-9.3-32.1-18-64.6-22.3-97.8-.4-3.9-2.2-12-7.3-9.2-.4 3.8-1.1 7.8-.5 11.5 6.1 35.2 12.2 70.5 23.3 104.6-43.9-11.8-90.8-10.3-134.8-.1-2.4.4-3.5 2.6-2.8 5 .8 2.7 3.2 3.6 5.6 2.9 42.7-9.9 88.8-8.9 131.1 2.1 2.5.7 3.4 2.4 2.1 3.9-14 16-28.9 31.3-41.7 48.2-21.2 27.3-41.2 55.6-55.1 87.3 2.9-30.6 6.8-60.8 17.1-89.8.1-8 19-31.3 4.6-31.8-36.6 1.7-74-.3-107.6-16.5 19.7-22.4 45.6-33.8 73-43.7zm-33.5-.8c3.2-.6 2.7 1.9.4 3.2-18 8.9-33.3 21.5-47 36.1-12.7 12.4 21.2 15.5 13.8 21.8-10.6 5.4-21.1 10.9-31.9 16.1-5.1 2.4-6.8-.5-6.8-12.1-1.7-8.1 4.8-15.2 7-23.5 17.8-73.9-16.8-58.7 64.5-41.6zm-73.9 43.4c-.2 1.4-1.7 2.6-3.4 5-8.3-40.3-41.3-64.5-59.2-100.4 21.4 12.7 41.2 20.7 63.6 29.9 10 3.9 5.9 12.6 5.6 18.1-.9 15.8-4.1 31.6-6.6 47.4zM335.1 105.1c-7.3-19.9-13-40.3-12.5-61.8 31.9 26.6 76.7 30.8 111.2 54.7 14 8.4 21.9 22.1 34.7 30.9 2.9-4.7 7.1-9 8.4-14.1 7.4-30.4 19.5-59.4 35.8-86.1 1.8-3.3 1.1-5.1 5.2-.4 31.5 31.8 37.8 79.5 34.2 122.4-.3 4.6 4.8 4.8 6.8 3.8 14.3-7.1 30-9.8 45.3-10.6 10.4-.6 21 5.9 31.8 8.1 7.9 1.6 14.6 5.6 20.9 9.6 4.9 3.1-1 8.6-3.2 11.4-21.3 27.6-51.5 45.7-83.7 57.7-8.9 3.1-16.2-3.9-23.8-7.1-13.6-5.7-26.9-12.2-42.6-19.5 19.9-4.2 119.2-11.5 117.2-29.8-.8-1.1-3.8-1.7-5.3-1.1-25.2 10.3-52 12.6-78.6 15.9-10.5 1.3-21.1 4.1-31.5 3.6-4.1-.2-.5-8.1.5-11.4 6.7-29.9 12.1-60.5 11.2-91.1.1-4.9 2-12.7-5.1-12.3-4.9.3-3.1 8.5-3.5 13.1-1.7 36.6-10.4 70-15.8 106.7-45.9-30-91.3-59.1-129.9-98.1-2.9-2.7-8.1-6.1-10.5-3.6-3.4 3.7 2.8 5.6 4.9 8.1 9.7 11.6 20.1 22.5 32 31.8-7.1 1.6-29.1 15.6-32.9 9.9-9.7-12.3-16-26.3-21.2-40.7zm125.4 143.1c.5-1.1-1.5-4.6-2-4.5-3.8.4-8.1.5-11 2.6-24.7 15.6-52.7 24.5-82 21.3-1.5-.2-3.2 1-4.8 1.6 8.4-4.1 8.6-15.8 18.6-18.6 35.1-8.9 69.3-24.4 102.7-37 10.8 7.6-15.1 73.9-23.4 79.6-.7-.7-1.6-1.8-1.5-2.7 1.4-14.2-2.5-28.6 3.4-42.3zm-72.7 38c-5.4-3-11.1-5.3-18.2-8.6 29.7.5 54.8-6.8 78.7-21.3-.4 15-1 30.1 2.5 45 .3 1.7.7 3.2-2.8 3.5-22.6 2-41.4-8.3-60.2-18.6zm17.5 16.6c-41-1.1-24.7 18.4-42.1-18.1l42.1 18.1zm-56.6 14.6l-23.4-45.9c10.9-5.2 55.6 36.3 27.8 40.9-2.2.4-4.9 1.1-4.4 5zm60.4-155.2c.1-3 .3-6 .4-9 18.2 10.1 32.4 25.6 51.4 34.6 7.2 3.5 13.2 9.5 19.6 14.2-17.2 10.3-36.5 16-55 23.8-84.3 33.3-15.3 5-16.4-63.6zm-233.2 48.6c24.2-6.8 49.2-14.4 74.4-13.2 4.1.3 8.5 3.4 11.9-.7 3.2-3.9-2-6.1-2.7-9.2-2.2-10.3-5.6-21-4.8-31.2.9-11.1-3.1-21.6-1.4-32.3 1.2-7.5.5-15.1-1.9-22.2-.4-1.2 1.4-3.1 2.2-4.7 17.6 14.9 33.1 32 46.2 51 6.8 9.6 13 19.7 19.1 29.8 3.2 5.3 7.4 3.9 10.2 1.4 3.6-6.4 71.7-46.9 69.5-33.4 5.3 46.6-19.9 87.1-48.3 121.5-3.7 4.3-8.8-3.3-14.3-3.4-17.4-5.6-26.6-7.2-10.4-20.4 16.1-22.6 33.2-44.6 50.2-66.6 2.5-3.2-1.1-2.8-1.7-4-1-2.2-3.6-1.3-4.5.1-19.9 24-37.7 50.2-58 73.7-7.8-19.4-24.8-97.5-41.6-103.7-.1 2.5-1.3 5.5-.3 7.5 14.7 32.3 26.7 67.5 32.7 101.9-3.5 0-7.2.4-10.4-.7-15.5-5.6-31.8-7.4-47.7-11.1-39.5-7.1-75.4-9.4-116.3-5.4 16-12 31.5-18.9 47.9-24.7zm192.8 194.5c-.4 2.3-2.5-.4-3.1-1-24.2-22.8-39-52.9-55.6-81.1-2.7-4.7-5.1-.2-5.6.8-8.6 16.8-23.1 28.2-37.3 39.5-14.4 11.5-31.6 19-49.9 21.7-6.6 3.7-12 4.9-7.9-5.6 9.7-24.9 11.3-53.4 31.7-73.8 8.4-8.5 4.3-14.2-7.1-14.7-40.6-4.6-74-25.2-108.7-45.4 58.1-6.6 115.8 5 172.8 15.5 6.5 1.1 4.4 5.1 2.5 8.2-9.8 15.9-19.3 32-31.2 46.4-10.7 12.9-20.9 26.2-31.4 39.1-1 4.2-11.2 5.5-5.6 10.4 4.1 3.7 9.1-3.1 12.3-6.8 26-27.6 49.2-57.4 67.4-90.7 21.5 31.8 33.3 69.3 43.2 106.3 1.4 5.1 8.6 3.7 6.7-2.1-2.1-13.2-2.7-26.6-8.9-39 9.1 8.5 21.4 15.2 20.9 29.1-.5 14.4-3.1 28.9-5.2 43.2zm173.4 66.6c-2.3 20.9-4.3 41.9-11.9 61.8-8 17.6-9.4 38.5-21.7 53.8-10.1-33.9-19.6-67.9-38.5-98.1-4.8-8.2-11.9 1.8-16.8 4.7-18.9 11.4-39.2 20.6-60.2 27.3-16.6 5.2-33.7 7.6-50.2 13-4.1 1.3-10.1 1.3-13.4-.9-2.9-1.9.8-7.1 1.4-10.8 9.4-41.2 27.7-81 56-112.7 6.2-6.5 13.7-12.9 17-20.8 2.9-7.1-5.3-13.6-9.3-19.6-12.9-17.4-24.2-36.3-41.7-49.6 107.6-33.1 93.3 41.2 139.5-75 1.3-3.3-.9-9.5 2.9-9.3 3.4.2 6.9 5.1 9.7 8.5 23.9 26.5 41.1 57.9 48.1 92.9 4.5 15.3-10.3 15.6-17.3 21.5-8.4 6.9-18.8 11.3-28.2 17 1.1-26.4 6.2-52.3.1-78.9-1.9-9.7-.6-20-6.1-28.9-.9-1.4-1.4-3.7-3.4-2.3-1.4 1-2.9 3.5-2.6 4.9 7.1 34.4 7.5 70.1 3.5 104.8-.4 3.6-1.8.8-2.8.3-24.9-12.5-75-46.7-101.1-45.1 12.1 15.7 35.8 16.7 52.1 26.9 14.9 8 30.3 15.6 43.5 25.9 4.6 3.5-5.5 9.1-9 11.5-30.4 20.4-57.2 44.9-84.5 69-6.2 6.5-51.6 42.9-45.4 48.6 3.1 2.9 5-.3 7.2-2.3 45.5-39.8 88.2-83 139.4-115.7 2.5-1.8 2.2-.2 2.4 1.5 4.1 26.6 5.7 53.5 6.8 80.3.9 15-2.9 30.4 1.5 45.1 9 6.2 5.8-53.8 5.8-60 .5-23-.6-44.9-6.4-67.9 33.3 10.7 60.4 30.8 91.8 45 3.4.9 6.2 8.7 9.5 2.8 2.1-3.7-4.7-7.4-8-9.3-28.8-16-56.2-35.3-87.7-45.5 11.6-11.7 27.8-19.8 41.9-28.6 16-12.8 81.1 89.2 87.9 104.9-30.7 4.8-62 3.8-92.3-2.9-8.3-2.3-8.8 6.1-9.5 12.2zM382.8 368.1c14.9 13.8 14.4 19.6-3.9 39 1.2-13.8 5.4-25.8 3.9-39zm330 274.5c-11.8-6.5-9.9 5.5-11.3 9.5-14.8 42.5-39.7 80.7-71.6 112.5-4.2-15.7-13.4-29.4-15.6-45.4-1.6-11.5-4.3-22.9-5-34.5-1.2-17.5-1.7-35-1.3-52.5.1-4 1-8.1-2.7-8.9-5.1-1.1-3.5 5.3-5.8 7.7-7 7-16.4 9.6-25.5 11.7-26.2 4.6-54.1 13.9-80.7 9.6-5.2-1.5.8-8.5 2.7-10.8 25.7-35.1 56.6-67.3 97-85.2 5.5-2.6.4-7.6-1.4-9.8-18.3-23.1-28.8-50.2-39.4-77.1 43.9 5.5 82.4 31.3 114.2 60.9 3.7 4.8 1.6 31.7-3.9 33.3-2.2.7-7.1-5.2-9.7-8.8-8.3-11.4-20.8-18.3-30.2-28.2-7.2-7.6-15.4-13.4-23.8-19.4-2.3-1.6-4.1-6.1-7-3.5-3.9 3.5.7 6.4 2.9 8.4 20 18.6 40.3 36.9 61.2 55.9-30.6 8.8-124.8 37.4-134.3 67.2 3.9 5.7 8-1 10.2-2.8 37.8-29 83.7-40.1 127.6-57.5-8.8 47.4-16.6 93.3-24.4 140.5-.5 4-1.8 9.9 3.4 11.2 6.4 1.6 5.8-6.2 6-8.5 6.2-45 16.6-89.1 23.1-134 1.9-8.2 7.3.9 9 1.9 30.2 17.5 60 36 86 59.5 2.7 2.4 6 2.3 7.6.8 2.4-2.3-1-4.1-2.5-5.7-26.4-29.5-61.3-47-94.4-67.1 30.7-21.5 69.5-31.3 101.6-51.1 5.4-1.4 2.2-6.1-2.4-3.8-31.5 14.5-64.3 26-95.1 41.7-3.8 1.8-2.4-2.7-2.1-3.6 3.3-10.6 6.7-20.9 18.7-25.6 10.7-4.2 20.8-9.8 31.4-14.1 28.7-11.2 58.3-23 89.8-20.1 18.4-.9-44.9 57.1-51.9 58.4-62.3 36.7 1.2 1.5 41.5 118.7 7.4 21.7-85.3-26.3-91.9-31.4zm-5.8 852.7c-7.6-14.7-9.4-32.1-21.4-44.6-1.8-4.8 11.7-20.4 14.9-27.3 1.4 22.8 12.8 41.2 18.9 61.2 1.9 6-9.2 5.8-12.4 10.7zm30.3-16.8c-3.1-.1-6.7 4.3-9.7-1.6-9-17.7-13.8-36.5-19.1-55.4-3.4-12 6.4-17.6 7.6-26.8.3-2 2.5-2.7 3 .8 6.7 21.1 12.3 42.6 18.5 63.8.8 5.5 8.3 17.5-.3 19.2zm27.1-9.7c-4 1.7-8.7 2.1-12.4 2.9-8.1-28.8-20.4-55.9-25.1-85.6-1.7-17.6 10.9-28.8 17.5-42.9-1.3 31 13.8 58 24 86.1 3.5 10.6 6.9 21.4 8.2 32.3.7 6.6-7.8 5.3-12.2 7.2zm35.2-6.4c-12.2 5.2-12.6-4.1-14.7-12.8-4-17.2-11.2-33.3-17.9-49.6-10.6-23.7-19.9-51.8-12.2-77.8 7.7-14.5 14.3-28.6 22.3-43.1-7.3 63.2 6.9 123.5 22.5 183.3zm8-179.9c-1.7 9.3.4 20.8-1 29.7-17.8 6.7-10.3 24.2-15.7 36.2-3.5 7.8-.9 16.2-3.7 24.3-3.1-35.2-1.9-70.2-3.5-105.4-1-12.1 9-22.7 13.6-34.2 1.3-3.2 4.5-5.7 3.2-14.3 9.6 23.6 10.1 43.4 7.1 63.7zm11.7 37.7c-5.1-4.4-2.3-10.9-2.6-16.3-.8-17.4 2.1-34.9.6-52.4-4.6-39.6-19.6-28.7 2.3-70.2 11.2 10.6 10.1 25.3 12.8 38.6 1 5.1-2.2 10.9-2.6 16.5-4 34 3.4 67.3 10.2 100.3-6.7-5.4-13.9-10.7-20.7-16.5zm51.6 52.7c-26.2-25.5-25-64.8-32.7-98.3-1.7-23.7 4.4-48 1.2-71.9-2-11.3-8.9-19.7-12.8-29.8-3.8-9.8 2.5-16.8 5.4-24.6 10.2-23.6 20.7-48.2 31.3-71 3.8 37.4-8.4 76.6-9.2 114.6-.9 30.6 6.9 59.8 12.5 89.5 4.7 30.1 4.5 60.9 4.3 91.5zm17.3-32.1c-2.3 4.4-3.9 9.2-7.2 17 2-50.2-9.1-95.4-16.4-144.2-3.8-27.2 3.3-53.3 4.6-79.9.7-13.5 2.2-27 2.8-40.5.8-17.8-5.4-36.2 4.6-53.9 7.4-13.1 11.4-28.2 17.5-44 6.5 36.2.8 68.3-3 103.1-.9 34.1-4.6 68.2-.7 102.4 7.1 47 24 95.8-2.2 140zm27-75.1c-1.3 3.2-1.6 6.8-2.6 11.7-3.4-33.1-12.3-63.7-14-95.6-2.4-43 2.5-85.5 7-128.1 2.1-23.8-1-46.3-5.4-69.3.4-14.9 9.5-28.2 14.6-43.5-.5 35.2 5.5 66.9 11.6 100.9 4 37.2-5.3 74.3-3.6 111.6-5.4 55 18.4 59.4-7.6 112.3zM947 948.2c24.4 55.8-.8 118.8 25.3 173.8 4.6 9.4-4.5 15.7-8.3 22.8-10.9 20.3-19.5 41.5-28.1 63.5-6.5-44.5-2.4-88.6 1.6-132.8 2.3-17.3.7-34-2.7-50.7-8.5-42.8-15.1-85.1-7.4-128.8 9.4 17.3 13 35.3 19.6 52.2zm-11.1-132.1c-2.6 52.1-30.8 87.9-74.2 114.5-.4-33-5.9-68.8 13-98.3 1.3-2.4 1-5.4-.8-7.5-3-3.6-7.3-2.6-10.1-1.6-26 8.7-50.7 22.1-78.2 25.6-10.2 1.6-20.7 4.1-30.8 3.3-7-1.6-37.8 5.8-35.5-5.9 2.1-33.4 48.7-68.6 76.5-83.4 8.2-4.2 16-9.2 24-13.8 2.9-1.7 2.8-4.2.4-5.8-22.7-14.9-43.6-36.7-52.5-61.5 1.9-2.3 5 .4 7.7 1.1 10.2 2.9 20.5 4 31.2 4.7 16.6 1.1 26.3 15 38.2 24.3 19.3 15.6 39.3 31.1 57.5 47.8-31.8 14-148.6 48.7-158.8 76.7 1.9 3.1 5 1.5 7.5.2 36.9-21.3 76-37.3 116.1-51.5 13.2-5 26.5-10 39.8-14.8 1.7-.6 4.2-1.5 5.4-.7 2 1.3-.5 3-.7 4.5-1.4 32.8-10.3 65.3-21.4 96.2-1.8 7.2-11.2 17.7-8 24.5 3.2.5 6.3-1.2 7.7-4.1 16.5-36.5 31.9-75.9 30.8-116.5 23.1 15.3 20 18.9 15.2 42zm3.5-49.3l-1.4 8c-5.8-5.7-18.4-12.3-2.3-15.5 6.8-.5 1.3 5.3 3.7 7.5zm-1.5-63c-1.2 39.2 14.9 41.3-17.4 50.8-7-20-1.5-42.2-1-63 2.6-18.6 3.7-38.3 8.8-56.2.9.9 2.3 1.7 2.5 2.8 4.1 21.6 6.5 43.6 7.1 65.6zm28.8-481.6c-15.3 16.6-10.3 37.4-11.8 56.9-1.9 24-7 47.7-15.1 70.4-6.5 18.4-18.5 35-20.4 54.8-1.9 26.7 7.2 53.4 11.7 79.6 7.6 35.7 4 66.9-1 103.8-9.7-45.5-22-83.9-23-129-8.3-41.9-2.6-83.5 13.6-122.7 6-31.4 9.3-64.1 11.2-96.4.1-13.8 8.3-27 9.6-41.5 1.6-17.3 1.5-35.2 11.2-50.5 4.7 24.3 9.4 50.3 14 74.6zM665.6 901.7c4.1-15.5 46.4 8.2 53.7 9.1 6.9 3.6-2.5 12.2-6 12-13.6-3.1-27.1-7.1-40.5-11-5-1.5-7.7-7.1-7.2-10.1zm13.6 39c-10-3.2-20-6.5-30-9.6-9.6-3.2 1.9-6.6 4.3-8.3 6.2 1 40.2 6.4 35.7 13-2.5 3.3-5.1 6.5-10 4.9zm-94-50.4c1.8-4-.7-10.7 6.6-11.4 19-1.2 39.4 2.2 54.7 13.5-3.7 3-3.5 9.1-8.4 11-16.3-5.6-33-5.9-49.3-8.9-1.5-.2-4.8-1.3-3.6-4.2zm57.8 62.9c1.8 10.9-21.1 3-27 2.7-13.2.4-3.7-11.8 4.2-10.7 4.8 1.4 21.1 3.7 22.8 8zm-28.4-32.4c-13.1-.8-26.1-2.4-39.2-4-1-.1-2.6-2.6-2.3-3.6 2.2-7.6 11.2-6.3 17.4-6.2 0-.3.1-.6.2-.9 9.5 1.7 19.1 3.1 28.5 5.1 1.5.3 2.5 3 3.8 4.7-2.8 1.7-5.7 5-8.4 4.9zM584 944c-.3 3.2-3 3.3-5.6 3.1-5.9-1.7-32.3 1-31.3-6.3 1.7-8.5 7.9-5.3 16.7-5.9 3 1.8 21 0 20.2 9.1zm-67.8-67c12.8-5.5 28.9-7.9 46.8-5.1 4.5 1.8 7.7 6.4 5.9 11.8-2.3 9.3-28 4.4-37 7.5-7.2 1.9-27.1-7.7-15.7-14.2zm21.4 37.7c-9 1.7-18.4 1.7-27.7 2.4-4.5.3-10.1.5-10.5-4.7-.4-8.2 24.8-10.7 29.9-9.5 6.8 1 17.8-3.3 19.2 5 .8 6.9-7 6.1-10.9 6.8zm-16.5 23.2c-.5 7-10 7.5-17 7.7-6.9-.8-20.4 6.1-23-3.2-1.9-7.8 20.7-11 26.1-9.4 4.8 1.6 14.5-3.7 13.9 4.9zm-88.7-45.4c-3-7.1 21.5-12.4 26.8-14 6.2-.7 32-4.9 33.5 2.1-5.4 16.3-32.7 11.8-42.6 16.3-8.8.6-13.8-.7-17.7-4.4zm43.3 18.8c1.7 8.3-6.4 6.1-9.6 7.1-10.6 3.1-21.7 4.6-32.6 6.7-9.7 1.5-10.9-7.2-1.6-10.4 7.5-2.8 41.5-14.2 43.8-3.4zm-64.1-12c1.1 2-.3 5.8-4.2 6.8-14.6 3.7-29.3 7.5-43.9 11.3-5.6.9-8.1-1.2-8.6-6.9-1-10 7.3-10 12.8-11.3 11.6-1.5 38-15.2 43.9.1zM272.7 628.5c3.2-10.8 17.9-11.3 27.6-14.1 5.8 2.8 17.2-1.5 14.4 11.5-1.1 5.2-25.6 12.9-30.8 10.3-4.2-2.1-12.9-1.6-11.2-7.7zm-86.2 72.6c-2.3 6.8-5.1 13.5-7.2 20.5-1.2 3.8-1 9.6-6 8.9-5.2-.7-4.6-6.4-4.3-10.4-1.1-10 5.1-17.2 8.9-25.1 1.6-3.2 5.7-2.9 7.9-1.5 2.6 1.5 1.6 5 .7 7.6zm-33.1-5.9c-4.4-6.6 25.9-48.4 22.9-24.8-2.7 3.6-14.3 44.9-22.9 24.8zm19.2 57.6c-1.4 7.1 1.2 28.4-4.6 31.6-11.5-3.4-7.5-24.5-4.5-33.1 1.9-4.2 11.5-6.4 9.1 1.5zm-17.3-25.3c-2.3 5.8-1.2 25-9.7 27.2-13.2-5.7-1.5-25.8.6-35.7.6-1.8 2.2-5.1 5.4-3.8 4.9 2 3.2 6.6 3.7 12.3zm-6.6 49.2c-.1 7.9 7.3 34.3-3.7 34.9-6.4 1.9-6.7-17.6-8.4-21.2 1.5-8.9 1.8-28.2 12.1-13.7z"/></g></g><g id="Layer_1_2_"><g><path d="M52 1548v15l-37 37h946l-37-37v-15H52M52 52V37.7L14.3 0H0v1600h15l37-37V52m872 0V37.7L961.7 0H14.3L52 37.7V52h872m52-52h-14.3L924 37.7V1563l37 37h15V0z" id="Layer0_0_FILL_1_"/></g><g><path id="Layer0_0_1_STROKES_1_" d="M961 1600h15V0h-14.3L924 37.7V1563l37 37H0V0H961.7M52 52V37.7L14.3 0m.7 1600l37-37V52h872m0 1496H52" fill="none" stroke="#333" stroke-width="2" stroke-linecap="square" stroke-miterlimit="3"/></g></g></svg>