<svg xmlns="http://www.w3.org/2000/svg" xmlns:xlink="http://www.w3.org/1999/xlink" viewBox="0 0 976 1600"><path d="M960 22v1556c0 3.3-2.7 6-6 6H22c-3.3 0-6-2.7-6-6V22c0-3.3 2.7-6 6-6h932c3.3 0 6 2.7 6 6z" fill="#fff"/><defs><path id="a" d="M960 22v1556c0 3.3-2.7 6-6 6H22c-3.3 0-6-2.7-6-6V22c0-3.3 2.7-6 6-6h932c3.3 0 6 2.7 6 6z"/></defs><clipPath id="b"><use xlink:href="#a" overflow="visible"/></clipPath><g clip-path="url(#b)"><path d="M506.8 851.3c-5.7.3-64.8-17.6-49.3-32.5 36.4-17.6 98.2 28.6 49.3 32.5zm.5-54.5c-27.6-2.7-39.6-37.1-58.8-46.8-15.6 5.8-84.1 35.6-91.4 11.3 1.9-109.7 42.4-34.9-19.3-131.1-7.7-24.5 76.7-1.1 90.2 3 19.9-17.1 28.4-48.3 52-68 25.7-32.3 32.2 65.1 33.1 79.7-.6 8.8 9.1 8 17 10 14.5 3.8 62 18.8 62.1 34-19.5 20.5-49.7 25.1-71.7 37.2-3.8 16.4 6.2 65.4-13.2 70.7zm-339.1-69.7c-1.4-4.9-8.9-5.4-11-.8-8-26.4 6.3-52.7 10.3-74.6-21.4-11.9-64.8-22.2-67.5-50.9 13.9-20.7 58.4-25.1 79.7-25.9 4.4.1 6.2-4.1 6.3-7.8 5.1-24.8 10.5-49 21.4-71.4 12.1-16.6 34.6 30.6 43.5 38.3 7.4 11.2 13.4 22.5 28 14.2 18-2.8 35.3.5 52.3 5 24.5-2 6.5 23.4-.9 30.4-71.4 57.8-5.9 19.5-12.7 108.8-1.7 24-66-23.7-77.9-27.8-25.7 35.5-33.9 36.5-71.5 62.5zm641.4-42.7c-9.5-1.8-38.9 1.7-36.1-11.7 18-17.7 34-38.1 63.5-37.6 59.3 13.1 10.9 56.5-27.4 49.3zm-112.4-30c-32.3-12.4-61.2-67.9-27-77.4 22.5-.2 43.7 66.5 27 77.4zm60.3-91.1c-41.5-57.2 37.9-127.8 28.9-59.7-4.6 21.1-11.1 46.2-28.9 59.7zm-315.9-44.1c-20.2 3.1-77.7-41.5-45.2-56.3 17.6-3.5 74.1 51 45.2 56.3zm132.8-35.7c-6.4-.4-14.6 1-21.2-.8-12.9-19.4 38.5-43.3 57.6-42.1 56.6 9.1-11 47.7-36.4 42.9zm-423.6-4.8c-23.8 6-78.7-33.3-35.9-45.5 27.7 1.2 99.5 41.2 35.9 45.5zm93-25.4c-6.1 1-7.8-5-5.1-9.8 63.7-88.7 123.3 4.1 5.1 9.8zm202.3-26.5c-19.1 1.2-55.8-28.8-58.4-47.5-1.1-13.7 17-19.9 25.5-10.6 9.7 6.8 54.6 54.9 32.9 58.1zm-255-15.7c-23.9-13.4-47.9-76.6-12.4-86.8 25.6 1.3 26.6 76.9 12.4 86.8zm346.5-41.7c-12.1-11 23.1-50.3 40.4-53 72-12.8-8.9 58.9-40.4 53zm-58.1-62.6c-44.3-43.9-11.7-136.5 10.2-57.8 1.6 17.9 4.6 47.5-10.2 57.8z" fill="#5d4e8c"/><path d="M238.6 1271c-37.2 1.6-26.6-19.2-42.1-46-9.5-19.6-34.1-33.5-33.7-53.9-9.4-2.5-14-6.7-20.1-16-44.8-48.8 23.7-96.7 3.4-149.9-4.5-15.9-5-29.8-1.6-42.7 1.9-9.5-11.2-6.8-15.8-11.8-30.7-23.8-41.1-58.6-85.2-65.6-33.6-11.5-60.3-57-16.5-76.3 32.2-17.2 45.6-67.8 86.2-67.5 21.2-.4 40-1.5 56.9-11.9 47.5-45.3 142.6-57.6 171.6 14.3 6.7 19.1 16.5 43.4 5.6 62.4-13.4 11.4 51.4 16.3 69.6 44.3 7.8 14.8 5.8 15.2 23.6 14.6 7.4-.7 11.9 1.9 17.8 4.8 9.4-2.9 20.9-2.5 30.7-.6 26.6 1.9 46 13.9 65.9 26.1 9.4-2.3 7.1-15 18.5-19.3 2.5-1.3 3.8-4.2 3-6.9 2.7-25.9 15-51 32.7-73 31.1-39.4 118.1-59.9 133 3.4C760 836.6 834.8 821 850.5 850c20.3 18.2 3.2 49.4 14.3 71.3 18.6 38 50.5 76.2 27.7 120-21.7 45.3 25.3 123.8-26.7 153.1-25.1 12.5-50-13.6-74.4-14-24.6 3.4-52.6 17.8-72.1 15.5-31.8 3.8-49.3-23.7-80.4-25.2-37.7 7.5-71.8-6.6-92.7-38.6-10.1-10.3-25 16.9-34.8 15.1-45.2 9.6-94.7 9.9-121.2 54.4-12.5 16.4-28.5 26.9-47.2 29.6-44.6 1.4-67.1 29.7-104.4 39.8z" fill="#333"/><path d="M906.6 1006c1-46.3-47.8-75.8-39.7-123.9 1.5-16.4-3.7-29.5-17.7-40.8-39.2-35.8-90-8-104.4-50.3-10.9-36.1-29.8-22.7-24.5-38.6 4.5-11.7 4.9-24.9 8.7-36.9 2-6.1-1.5-14.5 5.8-18.3 6.3-3.2 13.4-4.7 20.1-7.2 7.1-2.6 13.6-7 22-4.5 13.7 4.1 28 6.2 42 4.8 18.6-1.5 45.7-6.3 51.8-26.9 2.9-12.1-3.2-22-13.7-28.6-18.8-11.7-47.8-4.7-66.6 13.5-13.5 13.1-22.7 32.4-44.4 35.4-3.6.5-8.8 6.1-10.4 1 2.4-28 12.3-57.2 17.5-85.3 5.5-49.9 34.8-39.3 40.1-101.8 4.9-26.8-16.6-37.7-36.3-19.5-18.7 15.3-19 59.1-10 76.9 2.4 4.8 7.9 9.7 5.5 15.4-13.6 39.3-18.6 77.1-28 118.6-6.2-17-21-28-16-47.5 2-7.7-3-17.2-4.4-25.9-2.1-13.1-6.1-25.4-16-34.8-14.9-17-37.5-11.3-38.7 12-1.2 18 7.9 32.9 18.8 46.3 12.5 15.4 35.5 20.5 41.7 42.2 2.5 8.7 13.4 13.7 11.1 24.4-2.8 12.8-5.4 25.8-9.2 38.3-1.1 3.7 2.5 13.2-7 10.7-66.3-13.9-124.4 46.8-131.1 109.5.5 15.7-17.2 12.1-16.9 26.7-25.6-19.3-54-27.8-85.2-26-6.9.4-14.1 2.3-20.8-2.8-6.3-4.2-14.2-4.8-21.1-1.8 1.2-12.4 3.5-24.7 7-36.6.3-.8 8.3-.2 10 2 11.3 14 26 22.6 42.6 28.3 11.1 3.9 22.5 8.5 33.8 1.7 12.9-7.9 11-26.5-4.7-36.4-35.3-26.5-86.9 15.1-80.9-14.3 4-16.7 8.4-33.2 12.7-49.9 8.9 16.9 57.5 67.3 69.4 37 6-15.9 5.5-32.3 6.1-48.9.2-4.9-8.4-12.9 2.2-15.6 20.3-5.1 38.6-14 56.3-24.9 26.6-16.6 3.8-28.4-11.5-37.9-13.4-7.9-28.4-12.9-43.9-14.6-17.8.7-9-15.7-11.6-27.3-1.9-12.7-4.4-25.4-7.2-38-3.5-15.9-16-29.4-12.7-47.2.2-1.1-1.1-2.4-1.1-3.6-4.9-21.6 2.7-19.8 19.2-28.5 16.8-10.5 34.2-19.2 54.7-17.7 22.6 4.2 95.7-18.8 59.7-47.3-8.4-6-17.4-5.5-27.8-4.4-29.1 3.2-48.8 25-62 47.3-15 4.4-27.3 14.2-41.5 20.1-6.9 2.8-4.9-.6-5-3.5-.8-22.3-1.1-44.5-2.3-66.8-.6-12.1.1-21.3 10.7-31.3 31-35.5 88.2-27.1 110.8-71.6 1.3-2.5 4.3-6.1 1.3-10.7-7.5-11.6-16.9-12.8-30-10.5-35.9 4.2-40.7 35.6-58.2 59.7-10.1 12.1-23.8 21.1-35.7 31.2-4-27.8-2.1-56.7-4.1-84.6 2.8-10.5 6.8-20.4 8.1-31.7 1.8-21 5.4-68.1-23.1-70.5-8 .1-15 6.4-17.4 14.4-12.5 37.1 16.5 64.5 26.2 96.7 2.1 8.3-1.6 17.9-.4 26.8 1.6 28.5.6 56.8 1.6 85.2-20.8-4.5-30-34.9-42.7-50.6-10.5-17.4-39.8-42.9-54.3-16-8.3 29.8 27.3 47.3 49.7 57.1 10.3 4.6 23.7-1.6 31.8 9.9 4.1 5.9 14.6 6.6 15.5 14.4 2.3 27.6 2.2 55.3 5.3 83-1.2-.4-2.3-.9-3.3-1.7-7.9-7.2-20.3-8.2-25.7-18.7-12.4-26.1-33.9-63.7-69.5-54.1-23.4 23.5 22.1 59.7 45.6 61.1 20.7-.7 36 11.9 52.3 22.7 11.2 6.5-7.1 15.7-11.3 21.3-16.6 15-28.1 33.7-39.5 52.6-2.4 4.1-.2 14.6-11.1 11-12.5-4.1-25-8.3-37.7-11.6-15.5-4.1-31.5-1.5-47.3-1.7-2.7 0-8.9 2.5-7.3 7.3 6 18.7 14.4 36.2 28.5 50.5 3.9 3.9 13.3 6.4 7.3 15.5-9.5 16.9-13.9 36.4-15 55.8 0 .8-1 1.7-1.5 2.5-.7-.8-1.9-1.4-2.1-2.3-3.9-13.9-11.8-26.3-22.6-35.8-1.5-1.3-3.2-2.6-2.6-5.3 6.1-27.7 1-53.6-14.1-77.3-17.8-23.7 18.8-13.6 39.5-60 7.4-17.7-24-19.1-34.9-23.3-8.5-2.8-17.5-3.2-26.2-1.2-13.4 3.3-23.5 5.5-31.9-10.2-8.8-16.6-22.5-30.1-36.1-43.4-4.4-4.3-9.3-14.4-4.8-17.4 8.2-5.5 16.4-12 28.5-12.1 21.2-.3 42.4-4.7 61.1-15.9 31.6-16.2 9.3-54.6-25.3-39.6-21.1 7.8-36.6 22.3-45.5 42.5-4.4 10.1-15.3 8.8-20.6 16-.4.2-.9.2-1.3 0-1.4-3.7-2.8-7.5-3.9-11.3-.6-2 .1-4.5-.8-6.3-10-19.6-4.3-41.2-2.7-61.8 1.3-23.1 2.2-60.9-26.8-64.9-38.4 4-18.3 77.1 4.2 92.5 4.4 4 12.4 6.9 12.9 12.6-1.2 9.6 2.9 17.6 3.9 26.4 2 13.6 9.8 24.7-10.1 14.8-118.6-97-128 30.5-25.2 19 9.7-2 17.2-12.7 28.5-7.4 6 2.8 17.4.3 14.8 12-1.8 8.2-7.4 15.2-10.4 23.4-5.1 14.3-8.9 28.9-13.6 43.2-1.8 5.6 3.9 16.4-8.3 16.9-15.7-4.8-83.9 14.5-81.8 34 13.8 25.2 37 38.7 64 46.5 2.6.8 7.5 1.6 6.3 4.4-3.8 8.1-6.8 16.6-9 25.3-3.1 13-5 26.1-3 39.6.5 3.1 4 9.4-2 10.5-28.2 4.7-60.4.5-80 26.1-16.8 20.2-32.6 41.6-55.7 56-16.3 9.5-19.2 28.9-9.2 44.1 23 40.6 66.4 28.7 92 67.2 8.5 10.6 15.9 23.7 29.6 28.5 12.7 4.5 16.4 10.9 11.2 23.6-1.4 3.6-1.6 7.5-.5 11.3 30.1 71.3-34 96.3-10.2 152.6 18 40.9 60.8 66.7 75 109.4 4.9 15.4 7.8 27 27.1 26.2 14.7-.6 29.7-.7 41.8-10.8 32.6-31.9 83.7-16.2 115.4-48.3 12.8-13.3 22.4-29.6 38.1-40.1 35.9-23.3 86.4-8.3 117.2-40.7 2.5-3.2 3.3-.3 4.1.9 18.3 30.4 53.8 44.6 88.5 38.4 21.8-1.5 37.8 14.3 56.8 21.2 34 15.6 63.1-1.8 95.6-11.2 14.8-3.8 27.2 5.3 39.4 11.5 26.8 13.7 55 3.5 65.5-22.9 17.7-38.3-4.3-78.1 3.7-116.9 4.9-16.7 11-33.2 12.4-50.9zM837 639.1c18.1.3 28.9 15 19.6 28.1-16.1 17.6-57.5 14.7-80.3 8.4 17.5-17.2 32.9-37 60.7-36.5zm-77.5-147.9c4.6-7.9 12.9-13.3 20.4-9.4 7.1 3.7 4.2 14.5 2.5 21.2-3.8 20.9-10.7 39.7-24.9 56.3-8.3-23.3-11-45.9 2-68.1zm-61.7 159.2c-18.4-7.1-34.9-28.9-37.8-49.1-1.1-7.8-.7-17 6.2-19.6 22.8-7.6 36.7 54.4 31.6 68.7zM464.4 820.2c18.6.4 50.4-2.6 55.4 21.7-.7 17.3-57-8.1-62.4-18.4 2.4-1.2 4.8-3.5 7-3.3zm90-344.5c9.2-19 61.2-47 74.3-21.1.9 4.8-3.6 7-6.9 9.7-18.3 13-43.9 18.2-68.2 14.3.1-1 .5-1.9.8-2.9zm-15.3-114c9.4-17.7 19-35.5 40-41.5 6.8-1.9 14.7-6.4 22.1.3 1.3 1.2 2 1.9 1.6 5-6.5 20.3-44.4 38.8-65.2 39.9.4-1.2.9-2.5 1.5-3.7zm-62-63.9c-11.4-21-22.7-46.9-12.7-70.5.9-2 4.8-4.3 6.8-3.9 20.9 4.9 18.7 65.8 8.6 79.3-1-1.6-1.8-3.3-2.7-4.9zm-32.7 125c-16.1.2-69.3-37.8-46.5-53.6 5.1-3 9.4.2 13 2.8 17.1 12.3 27.3 30.2 37.6 48 1.4 2.5.5 3-4.1 2.8zm.7 92.2c-19.9 3-51.6-21.1-54.8-40.7 1.1-4.3 2.2-8.4 8.3-7 25 5.5 36.9 24.9 48.1 45.1.7 1.1.3 2.3-1.6 2.6zM242 445.6c52.5-78.7 120.1-5.7-.6 3.6.2-1.2 0-2.6.6-3.6zm-49.1-41.1c-.2 2.6-2.4 3.6-3.2 1-.9-2.9-3.4-2-4.5-3.5-56.4-78.8 26.3-117.3 7.7 2.5zM162 472.9c-19.4 6.6-68.8-7.5-56.2-32 12.8-13.1 60.7 14.2 68.8 27.8-4.3 1.4-8.4 3.1-12.6 4.2zM576.1 879c13.8-7.9 62.4 20.5 77 28.1 65.7 37.8 121.5 92.4 157.8 159-68.1-78-144.7-143.6-246.7-173.3 1.9-4.6 4.9-10.6 11.9-13.8zm-126.9-9.8c1.4-.1 1.6.8-1.4 3.8-20.2 19.6-41.1 38.6-60.5 58.9-62.3 64.2-107.3 144.8-137.6 228.7l-.8-.1c21-94.3 71.5-181.7 136.7-252.5 10.5-10.7 20.6-21.7 30.8-32.8 9.4-10.4 21.6-5.4 32.8-6zm-73-181.9c2-4.2 2-8.7-2.2-12.5-14.5-12.9-24.3-29.2-32.6-46.4-.9-2-.8-6 2.4-4.8 9.3 3.4 18.7.6 28 1 17.5.7 33.8 6 49.8 11.4 13.3 4.5 16.4-4.5 20.3-11.8 12.8-23.7 29.2-45.2 48.7-63.7 13.5 25.5 17.4 55.5 18.6 84.4-.1 13 12.2 11.9 20 13.9 22.9 3.8 40.3 16.3 60.5 27.1-44 39.9-77.7 20.1-73.9 51.7.9 14.6.4 29.7-2.8 44.3-.1 11.6-3.8 13.4-14.1 8.2-35.5-15.7-34.5-58.3-65.5-38.8-14.4 7.4-30.2 12-46.8 14.5-8.3 1.2-15.4-3-23.2-.9-2.9.8-2.3-2-2.4-3.7-1-25.5 4.2-50.9 15.2-73.9zM355.1 800c2.9-6.4 3.7-13.6 2.3-20.5-3.1-18.2 18.9 10.7 77.3-19.3 4.1-2 4.5-1 4.3 2.9-2.8 11.8-5.7 23.8-8.4 35.9-3.8 15.4-6.3 31.2-7.6 47-.6 4.3-3.1.6-3.5.2-13-15.4-30.5-24-48.3-32.1-9.1-6.3-23.7 2.8-16.1-14.1zM171.6 657.4c4.2-8.6 3.5-10.8-12.3-14.2-17.6-4.9-32.4-15.6-46.6-26-13.5-14.6-11.9-18.8 7.1-26.2 20.4-7.9 41.2-12.9 63.2-12 8.1.3 6.1-6.8 7-11.1 4.9-24.1 10.3-48.1 21-70.5 4-11.8 42.8 49.3 48.3 54.7 5.9 7.8 13.8.8 20.1 0 16.1-1.7 32.4-1.5 47.2 4.7 4.9.6 14.2-.4 13.4 3.1-6.1 19.2-24.6 33.4-40.4 44.8-20 12.6-.6 20.8 2.9 30.1 8.4 19.3 15.9 40.3 10.4 61.4-22.5-7.2-44-19-64.3-31-9.9-10.5-13.5-8.2-20.1 4.9-5.9 11.6-13.2 22.9-26.5 29.4-12.6 6.1-23.6 15.6-35.2 23.7-18.2 12.7-.8-60.4 4.8-65.8zm92.1 26.9l-36.4 4c4.3-5 8.2-10.4 9.6-17.2.5-7.8 14 10.9 26.8 13.2zM9.2 827.7c11.6-13.7 30.2-18.4 41.3-33 17.6-19.7 33-49.3 62.8-49.5 55.2 2.2 62.9-20.9 105.8-41.9 68.8-26.4 134.1 17.7 128 93.3-1.8 11-8.4 8.6-16.1 7.6-21.3-2.7-23.5-21.8-31.7-35.5-12.5-20.6-29.7-36.5-48.8-50.5-5.2-3.9-12-5.7-18.1-8.4-.8-.3-2.2-1.6-2.9-.7-.9 1.3-.4 5.1.6 5.6 9.6 2.5 54.2 39.3 52.4 47.9-7.8-.3-32.9-21.3-38.9-18.4 3.5 14 34.4 24 47.4 29.7 6.4 2.3 9.2 14.6 13.6 22.3-4.4 1.9-8.7.1-13-.4-18.6-2.2-37.4-1.7-56-.8-11.2.5-11.9-10.5-18.4-15.3-8.9-6.5-47.2-36.3-56-27.1-2.5 3.2 25.9 15.3 29.8 18.8-12.1-.8-24-.7-35-5.6-6.3-3.7-9.4 2.6-2.4 5.5 20.3 12.6 51.3.3 64.5 22.2 1.7 2.6-2.1 3.1-3.5 3.2-14.1 1.6-28.3 2.7-42.4 4.3-20.7 1.9-26.3 7.3-45.6-5-11.4-4.5-23-8.5-35.4-9.1-7-.9-8.5 3.8-.5 6 11.3 3.5 22.7 6.7 34 10.1 1.2.4 2 1.8 3 2.8-22.1 5.3-45.1 5.6-66.7 14.2-10.5 3.2-45.7 16.1-54 12.2.9-1.5 1.2-3.3 2.2-4.5zm315.4-17.3c-14.5.8-25.8 7.6-38 11.9-5.7 2-11.5-2.3-17.4-3.2-31.6-6.4-59.7-6-92.6-8 22.9-7.3 112.8-14.1 148-.7zM142.9 949.9c-14.4 6.4-41.1-34.5-51.6-44.1-12.8-14.2-29.4-20.7-47-24.6-10.9-2.4-34-23-35.7-34-.6-3.5 2.8-3.6 4.1-3.9 47.9-9.5 94.9-21.1 144-21.9-14.9 10.3-23.9 26.3-44.3 23.8-13.2-1.6-26.3 1.3-38.8 5.9-3.5 1.3-10.2 2.2-8.4 7 1.5 4 7.7 1.3 11.2-.1 11.2-4.7 22.6-5.4 34.1-4.7-7.9 6.3-15.8 12.4-23.4 18.8-.9.8-3.5 2-1.4 3.8 1.4 1.2 3.2 2 5.4.5 26.2-17.5 54.9-32 76.4-55.5 2.6-1.9 7.5-2.2 11-1.5 15.1 3.5 30.5.2 45.6 2.4-9.2 13.9-19.8 26.8-31.5 38.7-5.9 5.5-13.1 2.8-19.4 4-4.9 1-43.1 9.7-33.6 16.5 12.8-3.7 25.4-8.5 38.5-8.5-4.3 5.5-37.2 28.5-33 34.1 2.7 2.7 7.2-2.3 9.7-4.4 18.5-15.7 39.9-28.1 55.2-47.3 5.5-6.9 13.2-12.3 15.9-21.6 6.4-20 33.9-5.7 50-4.8-26 14-40.6 39.1-63 55.6-32.9 15.8-59.5 26.2-70 65.8zm84 313.8c.1 1.4 0 3.9-2 2.9-4.3-2-10.3-2-11.8-8-3.1-12.4-6.7-24.5-13.2-35.7-16.5-24.7-36.6-46.6-54.2-70.4-27.5-29.7-10.5-60.5 2.4-92 16.6-36.1-13.1-72.1 4-107.6 22.2-59.8 56.8-36.5 101.3-93.3 41.8-46.5 117.6-55.3 160.8-6.4 4.3 4.2 4.7 9.2-.3 14-10.2 9.9-19.9 20.2-30.2 30-7.1 6.8-10.7-2.8-14-5.2-15.4-9.4-69.4-45.9-84.4-37.7.1 1.1.6 2 1.5 2.7 16.9 8.1 34.1 15.8 50.9 24.2 7.5 3.7 14.3 8.7 21.4 13.2.5.3.5 1.4.8 2.1-51.5-4.2-115.4.2-159.5 28.4 1.4.6 3.1 2.1 4.2 1.8 17.1-5 33.9-12 51.3-14.9 17-2.8 33.8-8.8 51.5-7.5 7 .5 14.1-1 25.9-1.9-26.6 12.3-46.5 22-69.1 32.2-3.3 1.5-9.5 2.3-7.8 6.3 1.8 4.2 7.9 1 11.1-.2 26.3-10 51.1-23 75.9-36.4 9.2-5 20.8 1.4 32 .9-90.7 111.7-19.5 37.8-141.4 94.8-21.8 12.3-42.1 27.1-60.5 44.1-2.1 2.2-7.4 5-5.3 7 3.1 3 7.8-1.1 10.6-3.4 26.9-21.3 54.8-41.1 89.1-50.9l-41.4 39.9c-1.4 1.4-4 2.6-2.1 5 6.7 6.1 47.7-38.8 53-46.3 10.6-12.8 26.9-11.4 41.9-16.3-14.1 19.4-26.4 40.1-36.8 61.7-5.3 11-10.2 22-14.4 33.5-4 10.9-16.9 12.7-25.8 18.1-8.8 4.4-71.4 48.3-63 56.5 2.6 2.8 4.4-1.5 6-2.7 12.9-9.2 22.5-24.1 37.4-30.3-3.7 13.9-16.8 24.7-19.8 39.1 3.3-1.5 8.2-2.1 9.8-4.6 6.6-10.8 15.4-21.8 17.3-33.6 2.5-14.8 14.6-15.1 22.6-21.5 2.2-1.8 5.2-2.5 7.9-3.7-20.5 54.7-35 113.2-33.6 172.1zm283.5-120.4c-51.9 11.3-92.8 8.2-125.1 58-11.2 13.8-24.6 23.1-42.9 25.9-29.2 4.5-57.7 11.4-81.1 31.9-5.4 4.8-14.5 5.4-21.9 7.8-1.7.5-2.6-.6-2.2-2.3 8.1-65.9 25.2-132.3 59.9-189.5 1.3 1.7 3.2 3.2 3.8 5.1 4.2 13.3 10 26.5 11.3 40.2.8 9-5.3 18.6-8 28-3.8 13-7.6 26-10.7 39.1-.6 2.5 2 5.7 3.1 8.6 3.3-1.5 4.4-3.9 4.6-7.5.9-17.9 10.8-32.8 12.7-50.6 6.8 9.5 4.8 20.6 6.9 30.6 1.8 8.9 1.7 18.3 2.2 27.5.1 2.3.7 3 3.1 3.1s3-.8 3.1-3.1c-.2-42.8-6.7-87.1-24.2-126.2-5.7-12.4 4.5-18.4 8.8-26.4 13.9-25.6 30.1-49.8 48.5-72.3 7.2-7.7 10.6 1.8 12.1 4.5 10.8 19.2 21.7 38.4 30 58.7 4.3 10.4-2.9 21.8-5.7 32.5-2.9 14-13.2 45.4-5 57.1 1.2-1.2 3.1-2.3 3.4-3.6 3.5-22.4 6.9-44.7 13-66.7 5.8 8 7.3 17.8 8.9 27.4 3.2 18.2 7.7 36.3 6.2 55.1-.1 1.4 2.2 3 3.4 4.6 10.2-15.4 2.6-36.2.3-53-7.1-41.9-25.4-80.8-47.8-116.5-14.9-10.8-4.1-16.9 3.1-24.1 7-7.8 14.7-15 21.7-22.8 4.3-4.8 9.5-2.4 12.5-.5 17.7 10.7 35.2 21.7 51.7 34.1 3.9 3 3.2 12 5 18.1 4.7 22.6 15.2 43 23.7 64.2 3 13.1 10.3 4.9 6-3.9-6.5-22.8-19.5-44.9-23-67.9 21 15 36.5 36.8 54.5 55.1 1.7 1.8 3 5.2 5.6 3.3 3-2.1-.3-5.3-1.3-6.7-24.7-36.1-56.9-64.7-93.3-88.7 31.4-2.1 61.7 3.3 91.9 11.3 4.2 1.7 8.1-3.9 2.6-4.2-30.9-14.4-67-17.2-100.7-14.1-9 1.3-15.7-6-24-7.8-.2 0-.5-2.3 0-2.7 25.3-23.8 35.7-50.3 75.4-40.1 45.3 5.6 83.7 40 106 78.6 19.6 45.6-42.2 58.7-45.2 98.5-1.3 13.9-.2 28-.3 42.1-.1 17.8-25.3 45.4-42.6 50.2zm348.2 49.7c-17.3 2.3-31.8-5.5-46.9-12.1-45.1-18.3-82.2 38.7-145.2-6.7-25.6-18.9-59.8 6.1-85.7-15-8.7-8.6-41.3-25.1-28.5-39.5 22-24.9 3.9-57.3 16.7-84.1 5.4-9 12.3-17.1 20.7-23 16.9-12 25.2-40.1 18.5-60.6-6.6-19.1-21.3-31.2-34.9-49.1 65.4 28.8 49.6 3.8 46.4 64.3-.9 34.4.1 68.5 6.1 102.5 4.4 16.2 6.5 61.7 19.5 70.2-.3-20.4-9.5-41-11.4-61.7-3.1-20.8-4.3-42-6.5-64.6 11.9 22.5 19.4 44.9 27.6 67.1 1.3 3.5 4 7.7 7.2 7.4 2.1-.2-.1-4.9-.9-7.7-7.3-24.9-16.7-48.7-30-71.2-11.8-22.4-.4-56.3-.9-81.9 11 8.8 69.5 34.8 63.6 49.3-15.2 48.7-6.4 107.1 6.8 155.6 1.6 5.2 4.1 17.7 11.1 17.3-.4-4.8.3-10.1-1.3-14.4-7.3-18.9-9.5-38.7-12.6-58.5-.9-6.1-3.2-12-.2-18.7 15.7 19.9 25 42.7 36.2 65 .7 1.2 2.3 4.9 4 2.5 5.2-12.9-22.2-60.2-33.3-69.1-18-16.8-7.1-36.3-8.8-54.5-.7-7.4 2.2-15.2 2.9-22.8.2-3.4 1.9-6.1 5.6-2.9 20.7 16.1 39.1 34.8 59.2 51.5 15.4 12.8 11.8 28.5 15.2 43.4 3.2 14.1 6.6 28.1 9.6 42.2 2.8 13 4.5 26.2 12.1 37.8 3.7 10 9 6.4 5.8-3.5-7.9-15-8.7-31.8-13.3-47.7-4.8-15.6-8.9-32.2-8.5-48.6 25.2 25.8 44.1 60.6 60.4 93.4 7.1 14.1 12.1 29 17.4 43.8 1.6 4.4-.7 4.2-3.7 4.6zm30.1-153.2c-20.4 47.5 17.9 104.7-16.9 148.3-.9-1.8-2.4-3.5-2.7-5.4-3.3-24.9-16.1-46.4-25-69.2-19.2-51.3-53.5-94.3-87.6-136.4 12.1-2.7 22.3 5.2 33.8 5.8 5.2.3 5.3 5.4 7.3 8.2 10.3 11.9 40.4 52.6 55.8 49-14-19.9-34.7-34-50.2-52.9 17.4 5.1 33 10.7 47 20.2 5.3 2.7 10.4 8.2 16.6 7.6-10.8-23.6-75.5-43.8-100.5-45-28.3.3-38.2-24.9-58.3-35.3-9.5-5.2-18.4-12.2-26.8-19.2 8.5-8.4 41.5-15 54.1-17 8.2-.8 17 7.7 26 10.7 19.4 5.3 40.7 17.5 61 12.5-1.4-1.6-2.6-4.3-4.1-4.5-25.5-3.8-48.7-13.9-73-21.8 25.4-3 50.5-5.7 76.1-4.3 4.5-.6 10.3.8 13.6-2.8-37.5-14-122.2.7-157.8 19.5-6.9 5-10.8-1.5-15.2-3.7-8.6-4.3-16.4-10-25.7-13.6-5.5-2.2.2-7.9 1.8-10.1 6.3-8.6 12.9-17.4 21.1-23.9 3.9-3 11.8-.4 17.8-1.4 19.4-3.6 39.9-6.5 57.6-15.5-5.5-5.5-13.3-1.8-18.8.1-16.1 4.3-32.5 7.3-49 9 11.1-15.2 26.8-24.4 41-35 2.7-2 8.4-2.9 5.8-7-17.3-5.3-61 44.6-74 57.8-2.1-23 7.2-45.4 13.5-67.2-8.1-18.3-19.1 43-20.3 48.1-2.5 12.1 1.7 24.6-4 36.6-3.2 6.7-6.3.7-7.1.3-12.1-6-25-9-38.1-11.7-12.8-3 20.4-66.1 28.7-72 30.5-37.1 111.8-58.8 126.4 2.4 20.4 43.4 73.8 14.3 109.4 52 19 18.4 1.6 48 13.3 70 10.3 26.9 36.2 53.7 35.6 83-1.2 11.6-4 23-8.2 33.8zM401.2 693.7c-2.4-6.8 9.1-8.3 13.3-6.4 3.7 1.5 8.5 2.6 9.7-.1 2.3-10.2-1.8-22.4-.8-33 .1-1.4 3.8-9.8 7.6-1.2 2.6 6 2 10.6 2 17.7-2.4 5.2 3.2 11.1 1.3 17.6 8.6 5.2 12.8 3.4 14.3-6.3 3.8-8 12.1-45.6 21.1-44.8 8.4 5-18.1 49-13.7 57.6 2.8-1.2 5.8 4.3 8.4-.1 6.5-11 14.9-20.5 24.3-29.1 1.4-1.3 2.5-4.3 5-1.5 1.9 2.2 2.2 4.5.1 7-7.6 9.1-15.3 18.3-22.7 27.6-2.7 3.4 2.1 3.2 3 3.9 3.5 4 24 12.1 20.2 17.5-5.2 6.4-33.6-17.3-46.4-17.2-12-2.3-24-4.2-36.1-5.7-3.9-.5-8-.1-10.6-3.5zm-211.8-95.4c-3.3-5.2 4.3-8.7 6.8-3.3 5.1 8.8 13.4 15.3 17.1 25 1.6 2.3 7.9-.3 8.2-2.2-1.6-13.9-3.6-27.8-5.4-41.7.2-5.1-3.9-12.7 2.6-15 .4-.2 2 1.4 2.3 2.3 3.4 16.1 6.9 32.2 9.9 48.4.5 2.8 1.5 3.2 3.7 3.1 2-.2 4.5.8 4.3-2.9-.7-11.6 1.1-22.9 3.9-34.2.9-3.7 2.2-8.6 5.8-8.5 4.9.2 1.1 5.5 2.8 8.3-1.2 11.1-5.6 21.9-4.5 33.5-.2 6.7 6.5.5 11.2 1.7 4.3 0 10.6-.1 10.4 5-.2 4.7-6.4 2.9-10.4 3.4-22.9 1-43.3 10.2-63 21.4-7.3 2.7-4.6-8.3.1-9 21.5-6.4-2.7-22.9-5.8-35.3z"/></g><g><path d="M52 1548v15l-37 37h946l-37-37v-15H52M52 52V37.7L14.3 0H0v1600h15l37-37V52m872 0V37.7L961.7 0H14.3L52 37.7V52h872m52-52h-14.3L924 37.7V1563l37 37h15V0z"/><path d="M961 1600h15V0h-14.3L924 37.7V1563l37 37H0V0H961.7M52 52V37.7L14.3 0m.7 1600l37-37V52h872m0 1496H52" fill="none" stroke="#333" stroke-width="2" stroke-linecap="square" stroke-miterlimit="3"/></g></svg>