<svg xmlns="http://www.w3.org/2000/svg" xmlns:xlink="http://www.w3.org/1999/xlink" viewBox="0 0 976 1600"><style>.st2{fill:#333}</style><path d="M960 22v1556c0 3.3-2.7 6-6 6H22c-3.3 0-6-2.7-6-6V22c0-3.3 2.7-6 6-6h932c3.3 0 6 2.7 6 6z" fill="#fff" id="Paper_Backing"/><g id="Wikipedia_Cropped"><defs><path id="SVGID_1_" d="M960 22v1556c0 3.3-2.7 6-6 6H22c-3.3 0-6-2.7-6-6V22c0-3.3 2.7-6 6-6h932c3.3 0 6 2.7 6 6z"/></defs><clipPath id="SVGID_2_"><use xlink:href="#SVGID_1_" overflow="visible"/></clipPath><g clip-path="url(#SVGID_2_)"><path class="st2" d="M429.4 1536.9c-31.7 2.4-48.9-25.1-65.6-43.1-10.9 6.8-22.1 5.2-33.3-.6-60.6-22-11.9-92.8-5.6-130.8-19.8-3.5-47.6 7.3-66.7-7.3-17.5-11.1-22.5-26.4-14.8-45.4-6.1-30.8-48.4 48.4-66.4 48.1-63.2-47.9-26.4-157.1 55.6-160.9 38.1-7.9 39 6.4 74.2-16.6 7.1-3.4 12.1 2.4 16.2 7 28 17.7 59.9-2.4 68.8-33 1.5-4.2 8.2-2.6 7.7 1.9-4.5 31.2 14.7 54.5 41.2 62.7 31.2-7.2 35.7-37.1 49.2-58.3 16.6 34.6 43.5 91 89.4 51.4 5.8-6.6 8.8-4.6 13.3-1.9 21.3 15.5 64.8 50.6 38.3 81.6-2.3 2.4-2.4 6.2-.1 8.7 19.7 31.2-4.1 70.7-38.6 70.5-12.5 4.1-31.5-24.6-34.9-5.1 10 30.6 9.6 93.7-24.9 99.1-7.4 2-21.3-10.2-30.2-7.2-4.5 36.9-29.4 83.1-72.8 79.2zm-316.6-371.8c-43.5-3.5-22.3-28.6-74.6-10.4-13.3.9-32.8-.1-42.3-11 3.2-3.9-6.2-200.1 3.5-200.2 24.2-39.6 51.3-18.1 81.4-40.9 26.4-18.7 66-5.9 90.8 13.9 16.9 7.5 1.2 23.2 6 36.7 4.6 15.8 24.1 15.9 38.7 23.9-7.5 17.8-48.9 20.9-46.3 42.3-27.3 53.8 34.7 41.9 28.5 65.1-13.2 34.3-45.1 78.7-85.7 80.6zm720.4-71.8c-41.2 1.5-67.5-36.5-85.2-67.1 39.7-17.2 17.9-64.2-16.8-75.3-7.8-9.6 7.8-6.3 13.4-7.5 16.8-21.8 31.4-29.5 22.3-48-5.3-24-48.7-19.9-45.1-31.2 17.9-17.3 4-29.3 11.3-41.8 23.5-22.3 43-56.1 78.8-58.8 16.7-2.2 27.1 14.7 41.8 17.1 26.3-8.1 60 18.8 59.6 46.7 6 15.5 28.7-7.8 40.2-8.4 7.7-.6 22.5-15.3 26.3-5.3-.6 30.5.4 154.1 0 181.9-8 9.3-27.8 13-37.6 14.9-14.4 3.1 2.2 35-13.6 44.8-10.3 12.2-28.8 13.2-44.4 10.3-16.8 13.6-30.5 28.3-51 27.7zM218 886.1c-21.6-1.8-35.7-18.3-36.6-41.4-.5-3.2-3.4-5-6.5-5-22.7-2.1-25.9-35.1-11.6-46 11.9-14.7-47-19.3-56.3-36.5-23.5-23.1-.4-52.5 22.5-62.4-26.6-35.9-26.6-108.1 30.1-116.4 32.1-9.9 61.7 45.3 69.8 27.2 2-19.9 28-26.9 44.1-26.4 77.7 24.5-5.4 142.5 102.6-22.8 4.8-16.5-18.4 2.1-21.7-30.3-13.9-10.6-27.2-24.3-32.6-40.6-26-10.6-47.7-38.4-78.5-43.8-14.2-7.5-36.2-2-49.9-5.8 4.5-39.5 40.5-103.1 87.7-71.2 12.5 7.5 18.4 23.2 28.1 33.5 23.3-4.5 55.1-15 76.7 4.6 17.3 9 20.6 31.7 34.3 40.9 21.3-32.2 17.5-99.1 15-135.6 13.3-26.3 47.2 15.7 66.4 18.6 21.1 14.9 56 12.5 72 31.7-20.9 29.2-57 51.9-80.2 81.2-30.5 35.1-57.7 75.3-81.3 115.3-16.3 32.7-41.7 61.8-54.1 95.4 15.8 10 28.3 24.7 20.6 45.4 3.5 15.8 43.7 2.6 23.4 50.3-2.5 5.4-8.2.8-11.7-1.1-27.7-16.9-45.7 23.9-33.8 46-1.8 21-27-11.7-39-1.6-19.9 5.4-18.5 32.9-22.3 49.5-15.3 4-41.1-9-55.9 6.6-14.2 7.9-3 38.3-21.3 40.7zm385.7-329.5c-41.1-.6-84.3-20.7-113.7-44.7-10.4-16.8 45.3-56.1 70.1-60.9 25.9-7.4 48.5-2.5 72.8 5.8 20.7-4.4 44.1-7.5 64.2.8 25.2 10.2 54.9 24.2 61.4 48.2-13.7 26.2-50 43.5-73.1 43.3-28.2-6.6-53.8 5.8-81.7 7.5z"/><path d="M551.9 1222.4c-43.4 5-55.8-80.9-68-56.3-4.1 21.2-19.3 46.5-43.5 49-61.8-11.4-43.1-106.8-14.7-135.3.1-6.2 4.5-16.5-4.7-17.4-17.5 1.4-14.4-28.2-27.8-15.2-30.2 66.2-58.7 31.7-67.5 57.7-56.1 95.3-158.5 68.8-80.7-33.4 2.9-10.3 27.5-16.6 16.4-27-25.8-15.4-5.1-59.5 18.3-67.4 27 16.3 52.9-15 50.6 20.2 17 24.9 54.3-.8 72.2-16.7 13.4 2.9 15.9-10.7 22.6-19.9 4.4-11.3 20.6-28.5 25.8-9.4 3.1 24-3.5 58.8 7.3 78.3 4.2 1.8 5.1 7.6 6.7 11.7 2.2 12.8 13.6 20.9 21.1 30.6 6.2 1.4 12.5-5 18.6-3.8 4-.3 8.6 2.6 11.8-1.2 2.1-22.9.2-47.8-10.6-69v.3c-1-4.4 5.3-8.6.5-12.7-12-11.4-20.5-24.9-27.3-36.7-4.5-6.9.4-12 6.5-16.6 8.6-13 21.1-3.6 30.3 1.5 22.8 8 54.3 20.9 61.5 46.7 6.4 10 7 .5 23 9.8 20.5 10.6 72.8 22.8 70.5-9.4 6.5-20-11.9-18.4.4-36.9-11.2-10.5-34.7-9.5-51.6-17.7-15.1 1-9.4-13.7-17.6-19.9-19.8-35-47.3-11-62.8-28.9-22.6 1.7-49.7 35.5-66.2 10.4 3.4-15.9 28-31.1 23.7-47-2.2-10.8 3.2-21-2.8-34.8-12.3-17.5-34.3-8.6-47.8 4.6-5-2.7-12.4-.6-10.8 6.3 3.8 10.5 3.9 21.9.3 32.5-5.7 11 9.7 25.4 10.9 37.2 3 9.9-13.1 12.8-15 19.9-2.3 19.7-21.6 16.4-36 18.6-27.5 4.5-54.3 2.4-78-14.5-9.4 6.7-21.1 6.5-32.6 8.1-7.7.9-6.2 12-12 16.1-10.5 8.8-2.8 31.8-21.4 32.5-78.2 26.8-103.7-47.2-19.7-66.8 11.6-4.8-27.3-58.6 34-61.9 52.8 3.2 52 36.3 112.6 39.7 20.2-8.6-28.3-29.7-.1-62.5-22.8-15.7-37.9-55-7.3-71.2 30.4-6.9 46.7 30.7 58.3 54.8 1.1 2.8 4 4.3 6.9 3.7 12.5-26.6-.3-61.2 40.8-76.8 41.5-10.2 21.5 35.8 35.8 41 14.5-9.3 54.5-25.1 53.8 6.4 3.6 24.3-31.4 43.8-18.5 53.8 26.6 6.5 4 37.3 22.7 31.7 31.7-28.8 185.2-88.7 153.1 4.1-5.9 14.1 19.8 10.2 26.8 17 24.8 12.2 19 48.3-9.1 55.6-6.2 3.6-18 1.6-19.3 10 15.7 15.4 48.5 21.8 45.7 53-1.9 35.8-40.4 15.3-58.9 21.4 1.1 15.6 21.3 26.9 16.8 46.8-10.9 77.9-101.6 21.3-125.6-21.1-20-13.5 4.4 40.9-45.9 47.1-14.8 9.9 17.8 30.8 20.8 46.1 15 26.2 20.1 82.4-23.3 83.2zm76.3-865.2c-33.2-3.2-75.7-1.2-101.5-24.1 2.2-8.7-7.3-8.9-12.8-6-4.4-1-7.4-8.6-12.8-3.6-23.3-13-37.7-68.7-43.8-97.2-17.6-132.1 73.5-99.8 45.3 70.5-5.4 61.9 49.4-24.4 58.9-43.9 11.8-25.9 27.2-67.5 60.2-69.5 53 17.4-2.5 80.7-31.5 97-16.8 15.6-47.6 25.1-56.7 44.9 10.7 9.9 46.3-4.1 54.1-2.2 45.5-.6 72.8-29.8 113.8-35.4 38.1-5.4 72.9 29.9 25.2 52.5-30.6 15-66.4 16-98.4 17zm-178.7-55.4c-101.1-11-229.1-188.3-83.1-110.4 25.7 14.1 30.9 41.1 46.3 62.2 3.2 12.7 51.1 43 36.8 48.2z" fill="#ffeb5c"/><path class="st2" d="M116.5 1604c-11.7-2.7 7.1-16.1 8.3-22.7 73.9-106.2-4.7-118.1 24.4-187.3 13.9-20.4 36.9-33.5 49.1-52.9 8.1-7.3 49.6-65 42.6-26.3-6.4 12.9 9.4 32.4-9.2 41.3-24.1 26.5-57.3 49.6-41.6 93.7 15.6 35.9 2.9 96.3 38 55.8 6.7-9.3 14.4-4.9 18.4-12.4 1.1-4.3 4.8-6.4 9.5-8.5 12.4-4.5 33.4-35.6 44.6-26.2 2 20.9 21.2 30.9 7.8 35.1l-20.5 14.6c-3.3 1.4-8.4-.2-9.6 4.8-2.3 12.6-14 14.8-19.4 22.1-64.1 95.2 13.2 64-142.4 68.9z"/><path d="M345.8 1192.9c-52-.2-34.3-80.5-7.6-98.3 39.9 5.8 49.2-54.9 62.9-50 4.8 15.3 29.3 17.9 19.6 32.3-22.1 42.9-16.3 106.1-74.9 116zm292.4-5.4c-42.2-11.3-68.3-54.3-78.4-91.9 11.9-7.7 26.6-9.2 29.5-27.1.8-3.5 2.7-5.4 5.5-5.3 42.6 10.7 114 99.8 43.4 124.3zm-432-114.7c-46.9 2.4-52-51.1-18.2-73.1 16.8-23 85.5-30.2 79.1-49.3 6.6-30 45.8-46.3 70-27.5 16.3 7.8 35.5 1.4 50.7 8.5 65.6-21.6 20.9 4 57.7-37.7 7.8-7-4.6-18.2-3.9-27.7-7-25 .1-63 32.2-67.1 42.6 6.6 11.3 64-1.5 83.3-5.2 8.7 10.8 14.4 16.3 18 25.1-12.8 58.5-19.3 87.1-13 33.6 7.4 23.7 34.5 37.1 44.2 41.8-8.9 89.8 63.7 29 69.5-22.9-2.7-57.7-13.4-68.5-32.3-2.5-12.4-22.8-12.9-22.9-26.7-19.9-8-42.2-11.8-59.7-18-18.4 19.5-21.9 14.6-6.2 37.3 83.4 122.2-29.2 157-31.5 12-.5-12.7 2.8-33.6-15.3-33-20.4 24.3-87.1 105.5-108.4 45.4-4.5-11.1-33.7 4.1-51.1-9.6-21.4 12.6-40.7 44.1-25.5 63.4 13.2 19.5-30.8 32.6-46.5 33.4zm176.3-194.1c-113.7 3.8-101.6-154.5-9.8-58.1-21.4 30.7 24.5 51.2 9.8 58.1zm186.1-19.9c-3.5.1-6.9-4.3-4.3-7.6 9.8-17.9-28.3-25.8-7.2-41.6 19-35.1 85.8-56.1 100.3-8.1-8.6 24.5-67.2 40.5-88.8 57.3zm160-453.2c-21.5 6.2-165.9-30.9-143.5-52 44.3 11.5 91 3.4 133.8-8.1 47.5-2.2 71.5 64.3 9.7 60.1zm-200.2-76.5c-19.3-5.9 92.8-58.4 99.7-81.7 99.6-66.9 127.9 76.6-99.7 81.7zm-22.7-6.5c-12.9-1.2 4.6-76.4 5.8-92.2-3-30.9 57.1-111.1 69.4-46.3-6.6 51.6-33.9 105.9-75.2 138.5zm-19-3.4C309.9 206.1 416.5 78 458.4 235.6c-4 23.1 42.2 79.2 28.3 83.6zm-106.5-25.5c-48-1.1-153.2-14.9-157.5-71 23.8-29.3 89.2-11 109.3 15.1 8.5 16.7 115.1 60.8 48.2 55.9z" fill="#d81e1e"/><path d="M976 995.8c-1.2-.5-2.7.3-4.2 1-9.4 4.8-19.4 8.8-29.9 9.8-10.7 1.1-11.6 5.2-9.7 15.1 6.9 27.5-16.4 46.8-43 40.6-17.7-4.6-11.5 16.2-46.9 25.9-49.2 7-62.2-26.7-88.7-57.8-2.1-2.5-2.7-3.5.3-4.8 27.2-7.8 22.6-40.8 8-58.7-7.2-9.8-18.5-13.9-28.9-19.5 14 3.7 29.8-10.2 42.8 5.5 6.2 7.4 18.5 9.7 22.3 18.7 4.5 10.8 10.1 21.2 14.1 32.2 6.2 16.9 18.2 29.9 27.2 44.9 1.6 3.5 10.4 4.1 8.7-1.2-15.8-21.3-28.8-44.5-38.7-69.2 29.4 17.5 52.1 36.7 81 53.6 1.7 1.1 3.7 2 4.7.1.6-1.1-.1-3.8-1.1-4.7-17.8-14.2-35.2-25.8-54.3-39.6 11.8-2.3 22-.1 31.7 1.6 11.5 2 23.9.4 34.6 7.2 6.3 3.9 13.6-3.8 3.5-6.5-17.3-8.4-36.4-7.7-54.7-10.8-8.5-1.5-19 3.2-25.8-.3-15-7.8-28.3-19-42.3-28.8-8.3-3.7-7.1-6.6 2.5-7.1 18.7-2 37.3-4 56-5.9 13.5-1.4 27.4-5.6 40.2-3.4 19.5 1.9 78.3 34.1 93 23.3-22-11.4-49.7-12.7-71.8-25.4 3.4-4.1 9.1-1.7 13.7-3.4 14.3-5.2 28.8-9.8 42.9-15.4 4.3-1.5 12.3-.9 11.4-8.1-.3-3.7-5.3-2.2-7.7-1.4-22.9 7.4-45.2 17.2-69.3 18.5 17.4-26.1 48.8-43.5 67.4-67.5-12.3.5-56.2 40.3-65.1 51.9-4.5 6-8.2 14.9-16 16.4-18 3.6-36.4 5.4-54.3 7.8 6.9-12.9 21.2-17.8 30.4-28.8 3.5-7.5 34-17.8 27.5-25.1-3-3.8-4.7.5-6.6 1.8-16.8 11.7-33.5 23.3-48.4 37.4-13.7 20.2-27.9 17-50.5 20.1 64.2-97.2 23.4-38.4 109.7-88.2 6.2-1.7 1.6-8.4-3.9-5.6-17.3 8.5-34 18.2-55.3 22.4 6.3-9.5 41.9-40.4 34.8-46.7-2-2.5-3.8 1.8-5.2 3.4-20.6 22.4-42.7 43.7-59.5 69.3-1 1.6-3 2.4-4.6 3.6-.3-1.9-1.5-4.6-.7-5.5 3.7-3.9 1.2-8.5 1.4-12.4 1.4-24.5 1.8-49 2.3-73.5 2.4-6.8-5.1-6.1-5.9-.3-4.8 24.3-2.6 49.5-5.8 74-1.2 12.1 7.1 24.7-2.4 36.2-9 13.7-17.7 30.6-33.4 23.4 41.5-25.1 10.9-68-28.4-69.3 21.9-28.4 4.5-28.5 10.7-41.2 25.5-23.3 51.2-69.5 92-54.2 10.5 4.5 15.7 16.8 32.2 12.8 20.3-5 53 20.5 49.1 47.9-.7 5 1.2 12.6 8.3 8.3 17.9-10.8 37.8-16.8 56.7-25.1 4.2-1.3 4-7.8-1.2-6.1-12.1 1.3-22.5 9.3-33.9 10.2-5.5.5-15.9 24.8-21.3-3.3-4.5-23.1-24.9-36.9-49.3-41.2-10.6-1.8-20.3 1.4-31.4-8.1-19.5-16.8-64.3-2.1-78.2 20-8 12.8-19.5 23.4-29.3 35.1-1.6 1.9-2.1.6-2.9-.4-10.3-13-51.4-16.7-66.1-8.5 5.3-11.3 3.3-21.4-4-29.7-21.3-24.1-62.8-20-85 2.1 8.6-45.5-33.7-41.3-61-21.7 20.1-66.2-74.8-64.6-76.3 31.1-5.8-7.1-9.6-15.8-13.8-23.8-5.2-11.2-19.2-17.9-10-36 9.5-18.1-4.6-33.3-24.1-35.4-4.1-.5-3.5-3.7-2.5-6 6.6-16.7-2.4-36.6-19.3-42.7-1.8-.6-4.1-.7-1.9-4.3 12.5-19.8 24.2-40.1 36.9-59.8 18.1-34.4 31.3-48.7 69.8-59.6 8.7-3.1 16.8-10.2 27.7-3.3 20.5 13 41.7 25 65.8 30.8 23.3 5.6 46.4 9.9 70 1.8 6.6-2.3 12.8-6.6 20.7-5 20.8 4.2 41.5 3.8 61.6-3.5 19.1-6.9 33.4-20.7 46.8-35.2 13.5-17.4-18.2-33.7-28.9-43.2-20.7-16.4-45.6-23.5-72.2-22.5-10.9.4-23.2 6.5-32.2 3-22.3-8.6-43.7-11-67-5.4-24 5.7-43.8 17.5-60.6 35.1-11.3 11.9-18.8 27.6-33.4 36-9.9 5.7-21.1 9.1-32.9 13.9 34-58.5 79.8-106.5 128.8-152.1 8.2-7.8 14.7-16.2 28.4-5.1 11.8 9.6 28 13.3 42.2 19.7 36.9 13.7 76 21.6 115.2 15.4 43.2-14.9 16.2-59.3-18.5-63.2 10.3-7.5 21.9-14.5 23.9-26.8 2.7-16.6-14.5-32.4-32.4-32.5-9-.1-18 0-27 0 3.9-7 7.8-13.2 11-19.6 6.4-12.8-2.6-34.1-16-38.5-16.4-5.5-31.7-.7-46.8 5.6 1.8-10.9 6.8-20.8 4-32.8-12.4-34.3-44.6-20-62.2 2.1 6.6-20.2-2.8-50.7-24.3-48.6-27.4 4.2-39 32.7-49.3 54.5-2.1-24.2-7.1-66.4-39.7-66.7-7.9.6-11.5 5.9-15.4 12.5-7 11.8-3.7 25.4-8.4 37.9-4.5-5.8-9.7-10.6-12.8-16.6-8.5-16.3-35.9-22.7-46.5-10-8.6 9.8-6.1 22.1-6.3 34-21.3-15.5-47.2-36.5-75.6-31.4-13 3.1-15 26.4-3.8 38.2 1.8 1.9 3.4 6.7.2 7.3-5.3-1.4-10.6-2.7-15.9-4.3-17.4-5.2-34.6-8.7-52.4-1.5-50.2 21.3 9.8 61.6 37.3 70.7 45.1 20.7 94 20.4 142.5 17.6 4.8 0 13.3 3.3 13.6 5.9 9 48.6 1.5 91-8 140.6-12.9-40.5-54.9-67.8-95.7-53.7-4.8 2-10.3 8.7-17.2-1.5-29.9-56-88.6-42.1-110.9 15.9-2.6 11.1-3.2 23-10.7 32.9-4.4 4.1-5.2 15.3 4 13.4 56.8-25.6 130.4 41.4 159 86.3 8 12.7 26.6 24.2 8.3 44.4-15.2 16.8-26.4 37.1-39.8 56.4-.9-36.2-28.5-79.1-69.5-57.9-9.6 5-20.6 9.3-21.5 23-.1 1.4-1.7 6.5-4.6 2.9-39.4-52.3-111.6-37.4-116.6 30.2-2 21.1 4.1 40.4 18.4 56.7 1.4 1.5 2.6 3.7.1 4-31.6 5.3-40.9 52.2-15.1 70.1 16.6 11.1 35.3 16.8 55.7 23.7-5-.4-4.9 2.8-6.5 4.4-13 13.7-9 41.4 8.4 47.7 19.1 5.1 9.6 49.7 53 48.5 2.2-.2 4.4-.6 6.5-1.2 1.2-.3 3.9 4.6 5.6 7.2 1.2 1.8-.7 1.5-1.7 1.8-15.7 5.3-32.3 8.5-44.8 20.9-.7.7-3.1.9-3.7.3-11.5-11.1-25.3-18.2-40-24-44.7-18.4-61 12.8-99.2 17.3-18.2.7-32.8 9.6-40.3 27.1-1.6 3.4-3.2 7.8-.6 11.3 2-2 4.7-3.7 5.8-6.1 16-37.4 50.8-13.8 76.4-38 26.4-17.3 60.3-4.9 83.7 12.4 5.3 4.1 12.4 7 8.1 16.4-11.3 24.1 14.1 42.1 37.3 43.4-20.6 9.9-64.8 54.7-80.3 22.8-3.2-8.3-1.9-18.9-5.1-28-6.3-16-9.1-36.2-23.2-47.5-3.6 9 4.3 15.6 6.4 23.6 2.6 15.5 11.4 30.3 12.5 45.8-27-14.3-52.5-32.2-78.9-47.8-2.6-1.6-5.7-4.5-7.9-1.7-1.8 2.4 2 5 4 6.3 33 22 64.5 41.4 97 65.1-18.3 2-33.8 9.4-51.8 12.1-8.6 1.6-13.6-7.2-20-11.7-15.6-10.8-32.6-19.3-50.5-25.2-3-1-8.8-5.5-10.7-.2-1.4 3.9 4.6 5.2 8.1 6.8 20 8.8 40.1 17.2 56.9 31.8-18.3 3.6-36.9 4.4-55.1 7.6-3.3.7-10.5-1-10.1 4.4.3 5.1 6.3 3.2 9.9 2.8 16.7-1.8 33.6-3.2 50.1-6.2 10.2-1.9 21-.1 30.6-5.5.8-.5 2.8.7 4 1.4 1.8 1.2.2 2.1-.4 3.2-2.9 5.1-5.1 10.8-8.8 15.2-8 9.4-8.5 25.1-25.5 27.2-18.1 2.3-35.8 7.4-52 16.5-28.7 20.3 49.3-12.4 54.5-9.6-7.5 14.1-20 25.7-29.6 38.6-1.4 1.7-1 2.4.4 3.9s1.8 1.1 2.9-.1c18.7-18 34-38.2 48.6-59.6 8.3 19.6 21.3 36.9 25.1 58.6.6 2.9-2.1 9.8 4.3 8.9 13.4-7.7-14-56.3-19.9-67.2-1.6-2.9-5.3-5.7-3.6-9.2 8-16 15.4-32.4 37.4-33.3 4.5-.2 6.4.4 7.3 4.2 5.7 22 6.4 44.9 10.4 67.3.8 4.8-.7 11.2 5.1 14.5 3.7-12.4.8-25 .5-37.4-.2-9.7-1.1-20.1-4.8-28.7-2.8-6.4-1-12.6-3.4-18.4-1.1-2.7-1.3-2.6 12.4-8.8 2.4-1.2 4.7-2.7 7.4-3.1-12.8 17.2-7 45.5 13.5 54.4 5.1 1.8 17.1.2 14.7 11.8-16.2 45.2-73.3 108-119.2 60.2-2.1-2.1-4.6-4-7.4-2.7-9.5 4.5-18.9 9.3-29.8 9.5s-21.9 1.5-31.9-5.2c-7-6.4-12.3 3.5-4.2 7.3 38.8 21.4 63.2-12.4 76 7.8 25.3 24.1 67.6 4.6 88.3-17.9 15.4-16.7 32-34.5 34.5-58.5.5-3.4 1.8-6.5 5.9-6.8 13.1-1.1 24.2-6.8 36.2-11.6-69.7 83.4-12.5 150.2 67.6 67.4-4.6 8.7-4 18.2-4.9 27.3-.5 5.6 6.6 12.6-3.2 16.2-11 4.1-19.6 14-33.1 12.5-37.8-1.4-77.9 7-105.4 35.3-33.9 36.7-34.6 102.8 5.2 134.2 12.7 5.8-27.3 19.9-31 50.9-7.3 32.3 16.9 59.2 13.8 91-1.6 31.9-19.6 57.6-34.5 84.3-2.4 4.4-7.8 9.9-3.6 13.4 4.5 3.8 7.2-3.1 9.3-6.8 11.8-19.4 24.5-38.4 31.8-60.2 1.9-5.5 3.1-9.7 10.9-8.5 6.8 1.1 13.7 1.4 20.2 4 3.7 1.9 8.9-2.9 5.1-5.7-9.2-3.8-18.6-7-28.9-6.2-2 .2-2.8.3-2.9-3-.5-18 13.1-6.8 21.4-13.6-7.3-8.5-26.2.4-20.1-19.1-7.3-26.9-24.7-55.8-8.2-83 8.3-13.5 22.4-20.9 31.3-33.3 9.4-15.5 17.5-3 27.9 4 2.4 1.9 1.2 3.9-.2 5.5-24 21.6-36.6 46.8-25.3 78.6-5.9-3.7-12.1-3.4-18.7-2.6-1.6.2-3.9-2.2-5.4.5-2.6 4.7 0 7.5 4.6 6 28.2-3.8 25.4 19.3 30.1 39.2 2.8 5.7.8 47.3 12.4 33.7 6.6-7 14.9-12.5 21.6-19.4 10.2-10.5 16-9 18.7 5.4.2 11.8 11.4 19-.3 27.4-.5-7.1-1.7-13.1-6.3-17.7-2.8-2.7-6 .4-5.6 3 7.5 14.4 6 28.3-2.9 41.4-1 1.5.6 9.9-7 4.6-12.8-8.1-34.8-22.1-50-14.6 1 1 1.9 2.8 3 3 10.2 1.4 20 4.9 28.8 10.3 7.9 5 23.3 5.5 15.7 21.9-6.2 12.7 6.4 16.6 8.5 2.1 11.9-39.9 39.6-71.8 73.1-95.5 3.3-2.7 6.2-8.3 13.1-5.3 13.7 5.9 27.4 13.8 43 5.1.8-.2 1.7.1 2.3.6 10.5 17.3 21.7 32.4 43.6 38.2 46.4 16.7 91.8-20.8 95.2-66.5.3-3.3-.3-7 2.7-8.5s5.9 1.8 8.9 2.6c57.3 20.1 59.6-68.3 46.3-103.4 39 36.4 91.7-7 80.2-52.8-14.1-23.6 3.3-15.5 3.5-37.4-2.9-25.7-20.4-41.4-38-57.6-6-5.5-19.7-4.5-16.2-19.2 2.6-10.7 1.5-22-1.1-33.2 56.5 63.9 111.3 8.3 67.5-56 29.2 8.7 67.1 7.1 73.9-28.3 1.9-20.8-.8-40-18.6-54.7 28.2-1.8 37.8 13.9 51.4 34.3 12.6 15.2 23.2 30 43.9 36.8 25.8 8.5 46.5 3 67-12.2 5.2-3.8 6.3-13.5 15.8-11.3 15.8 3.7 29.6-1.2 41.8-10.8 8.1-6.4 12.1-30.2 7.5-40.5-1.1-2.5-2.8-4.3 2.1-5.1 11.6-1.9 23.4-4 32.7-12.2 2-1 4.2-4.5.8-6.4zM747 514.7c-20.2 20.2-44.8 34.3-73 29.2-25.5-4.6-46.8 8.9-70.3 8.7-38.8.4-68.1-18-103.2-35.1 21.8-3.5 39.6-7.3 58.3 2.2 15.9 8.1 33.5 13 50.5 19.1 2 .7 5.3 1.8 6.3-2.4 1-4-2.3-4.8-4.4-5.3-19.2-4.4-33.6-14.2-52.6-19.6 38.5-2.8 73.2-4 111.3-2.1 28.3 1 56.5-3.2 84.7-3.9 0 5.2-4.8 6.4-7.6 9.2zm-186-59.9c22.8-5.5 43.9-4.9 65.3 4.6 7.2 3.2 18-.7 27-2.5 38.3-5.8 74.6 15.7 100.4 42.2H649.1c16.3-7.4 29.4-16 44.5-20.1 2.7-.7 1.8-3.8 1.2-4.5-6.5-9.8-46.9 20.2-59.7 22.4-9.2 3.4-20.3 1.6-30.6 1.8-15.7.2-31.3 0-46.5 0 11.5-8 24.1-16.9 36.7-25.8 3-2.1 8.5-3.4 6.3-8.2-.8-1.8-1.8-2.5-2.9-2.5-19.1 10.6-37.1 23.2-53.6 37.6-5.7 5.3-13 2.6-19.5 3.8-11.8 2.3-23.9 2.9-35.1 4.2 18.6-23.5 39.2-45.3 71.1-53zm188 429.1c24.1 13.3 13.5 42.3-8.6 48.2-37.2 14-78.7 5-114.8-8.9-4.6-2.1-12.2.5-14.2-5.4-3.2-9.5 7-10 11.7-14 1.8-1.5 4.3-2 6.3-3.2 35.7-18.9 80.7-35.2 119.6-16.7zm-256.5 192.7c23.1-22.8 69.5 46.1 79.2 64.6 49.7 116.3-99.4 106.4-79.2-64.6zM326 971.8c-5.8 8.7-17.9 7.8-28.2 6.6-16.8-2-27.2-12.9-26.7-27.9.4-10.7 18.1-26.6 28.2-30 13.8-4.6 24-.9 35.8 5.8 12.2 7 27 4.4 41.9 4.7-20.5 10.9-38.4 21.9-51 40.8zm-12.1 49.8c-11.6 11.3-24.5 20.3-41.2 21.2-12.5.7-19.7-7.9-19.7-27.1 1.4-8.1 12.3-22.9 19.9-30.7 9.6-12.2 15.1 10.1 48.7-1.7 1.3-.3 2.7-.9 3.3 1.5 3.8 14.6-.5 26.5-11 36.8zm68.6-146.9c-15.6-5.2-31.5-3.7-45.7-9.8-57.9-28.8-34.6-114.3 31.1-45.3 2.7 2.2-2.3 4.8-3 7.7-5.3 19.5 3.9 33.5 17.6 47.4zm22.8 19.4c4.3 2.4 9 4 13.3 6.4 3.2 1.8 9.8 1.5 8.8 6.1-1.5 6.7-4.3 12.3-14.1 12.8-30.9 1.6-70.8 13.4-92.9-15.7-6.6-10-1.2-22.7 10.8-24.7 25.1-6.3 51.6 3.6 74.1 15.1zm-82.5-28.4c2.1 1.5 4.4 2.7 7.5 4.5-14 4.1-29.4 18.5-20.9 36 4.2 8.6-7.5 5-10.7 6.1-24.1 7.9-48.2-4.3-60.6-23.3-7.2-11-5.5-22.9-.4-33.3 19.5-28.3 64.3-6.5 85.1 10zm42.7 81.5c17.1-10.5 36-17.9 55.7-21.7 2.6-.5 4.1-.1 4.3 2.1.4 5.4 7.6 10.5 4.4 14.8-20.5 25.3-42.5 53.9-76.4 60.3-11.3 2.1-20.5-5.9-20.5-20.9 1.9-16.8 17.8-25.5 32.5-34.6zm134.3-24.7c-2.5-.8-5.6-3.3-4.8-7.2 1.4-6.2-5.8-14 7.3-17.5 32.8-9.2 89.5-22.1 100.1 22.7 0 36-80.5 8.8-102.6 2zm14.8 15c25.3 7.6 79.1 34.2 51.4 65.5-4.8 4.4-11-.3-15.5 2.5-31.4-7.6-53.4-31.5-68.2-58.8-4.1-7.2 3.6-8.5 6-11.9 9.5-12.6 18.2.4 26.3 2.7zM489 893.4c-2.8 1.1-7.8-2.7-11.3-5-2.2-1.4.4-3.1 1.3-4.4 10.4-15 18.2-31.8 32-44.5 15.5-14.1 43.9-14.2 49.2 6.4-12.9 28.8-45.2 35.8-71.2 47.5zm-3.1 18.5c3.7 30.7-53.8 44.2-51 3.1 1.4-24 47-31.6 51-3.1zm-7.5 161.6c1.9 18.8-3.8 49.7-26.2 50.8-8.8 0-13.1-8.5-17.4-16-7.8-13.6-5.5-27.7-3.6-41.8.5-4 4.8-1.6 7.3-3.2 11.4-6.8 13-19 18.7-29.8 5.2 12.2 7.9 25.7 19.7 33.2 3.6 2.7.2 5.3 1.5 6.8zm-41.1-125.4c.6-1 3.6-1.3 5.3-.8 7.2 1 3 11.7 4.1 16.8-1 30.2 17.2 85-23.8 94.2-26.2-1-16.1-47.6-10.7-64.2 5.4-17.5 16.8-30.7 25.1-46zm-84.8 65.6c4.3-5.4 14.9-5.5 22.4-8.7 11.3-4.8 19.9-13.6 29.9-21.2 1.6 9.4-4.9 16.7-6.4 25.3-1.9 11-2.1 22.6-7.2 33.2-9.8 20.6-23.6 44.3-48.2 47.7-15.2-.9-22.1-12.1-17.7-26.8 5.5-18.6 15.4-34.8 27.2-49.5zm-18.1 87.4c1.9-4.1 5.9-1.6 9-1.9 28.6-3.3 43.2-28.6 54.6-51.9.9.9 2.3 1.7 2.6 2.8 2.2 7.6 7.1 12.5 14.4 15.4 8 3.2 2.3 8.4 1 11.9-6.6 17.1-12.5 34.2-17.7 51.8-25.8 98.9-121.7 65.4-63.9-28.1zm69.6 50.1c1-21.4 8.4-41.5 15.8-61.9 4 18.9 6.8 38.4 28.5 43.4 12 2.8 23-1.6 29.8-14 4.1 23.3 6.2 45.7-5.3 66.8-13.4 23.1-34.4 36.3-55.4 12.5-15-12.3-14.9-31-13.4-46.8zm73.1-97.6c-14.6-25-19.4-52-20.2-81.1-1.1-5.2 2.1-12.6-1.6-19.6-1.1-2 1.5-1.6 2.5-2.1 13.1-6 18.1 2 23.1 12.3 6.8 14 15.6 27 22.1 41.1 7.8 17 12.3 35.2 5.3 53.5-4.4 11.6-22.8 9.1-31.2-4.1zm76.7 35.7c-14.4-2.2-20-14.8-28.8-23.8-10.6-11-1.6-23.9-4.7-35.8-2.5-11.6-6.6-22.4-11-33.2 14.7 9.1 30.9 15.3 47.4 21 37.1 14.1 42 64.4-2.9 71.8zm1.3-141.9c13.8-1.1 25.7 1.7 37-2.4 15.3-4.3 10.8-13.3 33.8-8.2 14.7 3.3 27.8 8.3 35.8 22.1 7.6 13.2 4.3 32.3-6.3 35.9-25.2 7.7-48.7-7.7-70.6-18.1-13-10.7-6.4-19.2-29.7-29.3zm136-130.4c17.3-.7 37.5 12.9 35.4 27.7-1.6 11.1-5 22.7-21.7 22.5-35.1.1-67.1 17.3-95.7 36.5-1.4.9-2.9 1.9-3.7.5-13.7-23.5-35-24.8-59-24 44.4-29.5 89.6-61.7 144.7-63.2zm-92.7-37.3c19.8-7.8 49 .7 55 21-2.5 12.4-13.2 15.2-22 19.5-21.8 10-42.4 23.1-63.1 34.5-2.3-1.2.5-1.5.7-2.3 5.7-26.7-20.7-24.4-13.3-34.9 12.5-14.6 24-30.2 42.7-37.8zm-91.3 2.8c9.8-15.2 23.9-22.9 42.1-23.5 30.1 1.1 3.6 49.1-8.6 58.2-15.6 10-20.5 2-41.4 20.7 7.9-27.8-13.1-31.4 7.9-55.4zM478.5 730c4.7-1.8 10.2-2.5 14.6.3 21.9 15.7 5.1 48.7-3.5 67.7-9.9-12-32.3-5.3-43.6 8.7-4-27.2.4-64.4 32.5-76.7zm-35.6 117.5c1.3-17.8 5-34.2 23.5-42.8 11-5.1 24.2 2.5 24.5 14.6.7 23.3-10.5 42-22.2 61-4.6 7.5-11.6 2.5-16.1 6.5-6.2-12-9.2-25.8-9.7-39.3zm-.3 40.5c1.3 3.1-8.8 10.8-9.3 9.9-23.3-11.2-46.1-23.2-57.5-48.5-6.6-14.5.3-29.5 14.6-29.3 29 4.4 42.7 43.8 52.2 67.9zm-7.8-56.2c.3 1.5-1.4 3.4-1.7 5.2s-.1 3.6-.1 9.3c-8.4-16.9-26.1-37.6-43.5-35.4-13.9 0-29.5-13.9-30.2-27.9-.7-13.3-2.8-27.7 13.5-34.8 32.4-8 57.3 58.5 62 83.6zM749 360.1c25.4 16.1 13.3 43-14.7 41.5-13.7.1-27.3-.1-41-2.5-38.7-6.5-77.7-17.6-109.5-41.6 35.7 9.5 72.9 5.4 108.8-.6 21.8-7.7 35.9-12.3 56.4 3.2zm-26.2-66.6c31.3 3.6 28.7 33.5 2.1 43.2-61.2 24.6-133.1 21.2-194.5-2.2 42.4-6.1 83.7-7.4 123.3-24.2 28-15.5 35.4-22.5 69.1-16.8zm-29.3-52.8c8.1 7.8 6.5 22-2.2 33-39.7 43.4-107.7 45.1-162.9 51.4 25-12.1 44-28.1 65-41.2 14.4-9.1 27.2-20.6 37.8-34 13.1-16.4 49.4-21.6 62.3-9.2zm-96.2-41.4c32.4-30.2 51.9 4.2 36.8 31.8-12.2 18.2-27.9 33.8-46.1 46-25.2 15.8-45.1 36.5-74.1 46 21.9-20.5 38.2-43.2 51.2-68.3 9.9-19 15.2-40.5 32.2-55.5zm-86.2 58.9c.3-15.1 5.6-28.8 7.7-43.2 2-23.3 51.5-82.7 58.1-30.7-5.7 49.6-34.5 101.4-71.2 134.4-3-19.6 5.7-39.9 5.4-60.5zm-51.2-84.9c4.9-39.8 34.4-21.4 38.9 7.2 8.9 30 3.9 60 .7 90.4-1.1 17.3-1.1 32-1.1 49.8-26.8-45.9-44.9-94.2-38.5-147.4zm-51.5-6.4c14.1 2.9 20 14.9 28.6 24.1 20.6 21.9 13.9 52.8 26 77.5 7.6 15.7 16 31 23.7 46.7-42.3-25.7-85.4-72.8-95.6-121.1 0-21 6.6-29.3 17.3-27.2zM317.3 283c-23.1-1.6-137.9-50.6-72.2-70.1 21.7-2.6 41.6 3.6 62.1 9.3 11.1 3.1 14.9 12.4 22.2 18.6 21.6 19.8 45.1 32.4 70.4 48.4-28.5 1.1-55.6.4-82.5-6.2zm87.6-1.4c-33.7-16.3-64.7-37.2-86.1-68.6-39.5-57 15.4-37.8 45.6-18.1 24.7 13.7 29.9 40.8 45 61.1 11.5 15.6 24.9 29.7 40 41.8-17.4-4.3-31.4-9.1-44.5-16.2zm-40.4 259.7c-7.5-9.7-6.9-20-6.2-32 2.1-30.4 4.1-63.3-9.1-91.9-1.1-1.7-1-4.9-3.7-4.1s-3.6 3.4-2.7 6.5c3.6 12.9 7 25.8 7.2 39.3.2 12.3 1.7 24.5-.7 36.8-.5 6.6 2 14-1.3 20.8-16.4-14-23.2-34.2-31.2-53.4-14.2-32.2-36.6-65.3-68.6-82.1-4.9-2.4-8.1 5.1-3.2 7 14.5 8.3 26.7 20 35.7 34.1-19.4-3.2-36.5-18.3-56.9-14.6 19.7 18.5 65.1 16.1 76.6 41.7 4.1 8.8 8.3 17.6 12.4 26.4.4.8-.2 1.9-.3 2.9-30.7-28-70.6-51.9-114-44.5-4.4 1.2.5-3.8.9-5.3 10.4-63.4 65.4-100.1 103.3-31.6 11.2 19.2 37.6-21.5 80.6 8.6 16.3 12.4 25.8 28.2 30.9 46.7 2.3 8.2-3.8 16.8-7.1 24.9-10.5 23.5-15 45.9-30.6 67.6-.2-7.5 22.4-144.2 2.5-110.9.6 16.6-1.6 32.9-3.9 49.3-2.7 18.9-4.2 37.9-6.4 56.8-.1 1.3-1.4 2.5-2.2 3.7-.7-.8-1.3-1.8-2-2.7zm-48.8 114.4c73.7-105.5 139.9-214.1 123.4-348.1-.4-3.3.3-2.8 4-3.3 18.5-2.2 27.9 13.4 41.9 19.5 25.5 12.3 52 22.4 79.2 30.1 9 4.8 5.1 7.2-.9 12.3-14 11.7-26.9 24.8-40 37.5-46.7 42.6-82.7 95.7-114.9 149.6-17.5 30.9-36.6 60.2-54 91.1-4.9 7.7-16 2.1-22.4 8.4-3.1 3-7.3 5-11 7.2-1.4.8-1.8 4.2-4.4 2-2-1.5-2.4-4.3-.9-6.3zm-91.4 220.9c-.7 8.7-11.1 5-15.8 3.3-31.8-11.6-14-43.9-33.4-44.2-19.7-1.4-22.4-35.6-4.4-41.8 13.9-5.5 5.6-10.1-3.6-13.1-22.9-7.2-67.9-17-65.6-47.7 4-15.5 10.1-29.8 29.6-31.1 8.4-.6 8.9-6 4.2-11-59-65.4 20.5-157.3 82.9-77.3 7.4 11.6 12.6 7.8 14.5-4.1 1.3-14.3 10.9-21.8 22.7-24.1 47.5-13.5 52 35.1 51.5 66.5 1.1 7.2-3.6 34.4 6 35.1 2.4.1 1.8-1.7 2.1-3.1 4.6-25.7 41.3-39 57.3-16.3 9.9 12.3-1.2 28 1.3 40.5 2.5 3.5 9.9-1.4 14-1.3 4.5.3 7.9 4.3 11.1 7.3 9.5 8.3 2.9 20.8-.5 30.7-34.5-24.5-59.5 16.7-45.4 47.9.2 3.1-2.4 1.7-4.1 1-10.2-5.3-19.2-13-32.7-7.9-19.5 6.5-20.2 24-22.1 40.3-6.6-15.2-12.8-12-3.3-29.2 15.9-31.5 31.8-62.9 44.9-95.7 2.6-5.5-3.4-8.7-4.8-2.6l-29.1 59.1c-3.4-9.8 5.5-47.8-.5-49.1-15.6 26.2 1.6 63-20.1 89.3-.7.9-.3 2.6-.7 6.2-9.1-15.9-18.7-29.5-24.7-44.6-2.7-6.8 2.2-16.5 3.1-25 4.3-30.7 4.6-61.5 4.2-92.3.1-8.6 1.5-17.5-5.7-25.2-1 22.6-2 44.5-3 66.5l-2.2.5c-3-9.9-6.1-19.7-9.1-29.7-1.8-5-1.1-16.5-8.8-15.3-3.1 1.4-1.2 4.5-.5 6.9 4.4 15.8 6 33.2 13.8 47.1 10.6 18.8-1.6 35.8.1 53.8-24.7-39.2-42.1-86.5-79.2-115.7-1.7 6.1 15.2 23.2 18.7 30.5 6.8 10.3 13.4 20.7 19.6 31.3 2.1 3.6 7.9 5.6 5.7 11.5-13-10-26.1-19.9-38.9-30.1-1.8-1.4-3.3-2.3-5.2-1.3-2.9 1.6-.3 3 .5 4.3 7.8 13.6 21.1 21.4 33.5 28.9 17.7 11.5 31.3 28 38.3 46.7-2.5-.2-5.4.3-7.6-.7-28.6-12.8-59.9-16-89.4-25.7-2-.7-4-1.6-4.7 1.3-1.8 8.3 54.3 19.5 63 21.1 1 .2 1.9 1.5 2.8 2.3-4.8 4.4-39.5 9.5-35.2 16.1 3.8 6 38.4-9.8 45.8-11.9 6.6-2.4 13.4 4.4 20.4 5.8 21.6 4.4 21.8 26.4 32.8 39.5 1.4 1.7 7 5.9 3.3 7.2-5.8 2-12.3 3.9-19.4-.1-14.4-7-29.8-21-46.7-17.9 5.3 8.5 27.1 14.2 37.6 20.4h-38.5c-6.9.7-14.9-2.3-20.8 2.3 11.6 10.3 74.5 5.7 92.9 5 6.1-.5 7.2 8.7 10.9 13.2 1.4 1.9 2.6 3.9 3.8 5.9-35.7-9.4-66.4-2.2-67.2 39.8zm-39.1 77.3c-12.2-29.6 28.6-43.2 50.3-50.4 5.3-1.8 7.4 4.6 11.2 6.8 8.6 5 16.8 9.9 27 10.8 7.4 1.4-13.9 18.4-13 35-.8 8.2-9.7 6.3-14.9 8.4-19.4 6.9-48.4 7.7-60.6-10.6zm17 114.8c-42.8-3.7-41-43-11.5-66 21.3-18.4 48.4-27.8 74.2-36.2-3.3 5.4 9.3 6.7 3.6 11.7-13 11.4-23.2 24.7-24.9 41.8-.7 7-.4 16.3 6.3 22.5 3.3 3 3.8 5.5-.5 8.7-14.2 10.2-29.3 19-47.2 17.5zm65.1 87c-24.2 13.3-47.3 3.3-46.4-19.7.5-25.8 14.8-43.5 27.4-62.3 22.6-33 57.4-15.6 79.5-56.7 2.8-4.4 2.4-12.5 11.5-8.1 1.4.7 4-.1 4.2 2.2-13.4 20.8-45 61.9-17.9 84.3-11.7 25-33.5 46.7-58.3 60.3zM178.9 1353c-4.1 3-9-5.1-11.2-8.8-11.6-19.4-22.5-39.5-18.6-63.5 8.6-64 64-84.3 121.9-83.5-11.4 15.3-23.5 29.5-24.1 49.4-.1 3.4-1.1 1.8-2.8.8-13.4-7.4-26.7-14.9-40.3-21.9-2.5-1.3-7.3-2.8-9 1.4-1.9 4.8 3.6 4.3 5.9 5.9 12.7 8.9 28.5 12.5 40.5 22.8-7.8 2.7-79.3 27.4-72.8 33.8 3.9 4.6 8.5-.1 12.1-1.2 9.8-2.3 18.5-8.8 28.2-10.9-2.5 13-10.9 25.1-15.8 37.6-1 2.2-2.9 4.9.3 5.4 6.7 3.3 23-39.6 24.8-46.3 1.1-4.2 10.6-6.3 16.4-9.2 18-8.9 14.3 8.6 18.1 16 .6 1.2-6.2 6.8-10 9.6-24.3 17.9-39.5 45.1-63.6 62.6zm20.4-5.1c9.1-15.6 25.3-28.2 36.5-42.8 8.5 4.2-6.6 10.8 1.8 34.4 2.1 7.3-6.8 12.2-12.2 15.8-2.5 2.4-2.7 9.4-7.1 7.1-7-3.5-12.9-9.3-19-14.5zm22.3 157.3c-4.7 3.7-9.3 7.5-15.2 12.3 3.2-28.6-9.7-53.5-14.4-80.7-10.3-35.7 27.6-56.9 46-81.9 9.4-10.8 13.3 2.6 18.2 5.1 22.2 11.5 46.4 9.3 68.2 1.1-12.6 19.5-18.8 41.5-27.2 62.4-1.4 3.5-1.8 7.4-1.4 11.2 2.5 19.5-14.3 24.1-25.3 33-16 12.7-32.5 25-48.9 37.5zm86.1-16.2l-22.3 15.9c-1.4-4.9-2.4-17.6-9.4-15.7-5 2.4-1.5 7.5-.7 10.6 2.1 8.5-4.3 23.7-12.6 26.6-2.9 1-1.4-1.8-1.6-2.8-.3-1.4.4-3.3-.3-4.4-3.4-5.9-5.1-12.4-8.9-18.4-6.8-10.7 6.6-11.3 10.9-15.5 10.1-9.7 22.2-17.5 33.4-26 6 10.7-1.6 13 12.5 28 2 2.1-.4 1.3-1 1.7zm282.6-275.8c21.1 15.8 61.3 47.6 37.7 75.7-4.3 4.8-3.5 9.3-.4 13.7 10.5 14.4 6.6 29.2-.1 43-14 26.8-44.9 27.1-64.4 5.9-4.2-2.8-7.9-8.3-12.7-9.6-.6 1.2-1.7 2.7-1.4 3.9 2.6 12.9 5.5 25.8 8.1 38.7 6.7 27-.9 94-41.8 71.3-14.9-7-20.3-3.5-20.3 13.1 0 24.2-23.1 56.5-46.2 61.8-31.6 9.3-66.8-8.3-77.9-39.9-1.6-4.6-7.4-5.6-9.2-3-7.9 11.1-17.1 6.7-26.1 3.2-10.9-4.3-23.2-7.5-26.9-20.8-12.9-40.4 12.8-81.3 29.7-117 1.6-2.7-.4-3.6-1.3-5.1-1.3-2.1-2.5-.3-3.6.5-31.2 25-112.2 7.9-83.5-43.4 8.5-16.7 21.6-15.1 8.9-34.3-12.6-36.8 16.5-73.9 49.6-86.8 6.6-2.8 8.7 4 12.1 6.5 29.6 20.2 65.8-2.5 75-34.7-3 27.8 8.2 50.4 31.1 61.1 13.9 3.8 12 15.5 12.9 24.7-11 14.6-88.8 5.1-109.5 6.6-14.6.4-29.1 1.6-43.7.1-.6-.1-1.5 1.9-2.2 2.9 12.7 8.8 29.8 3.3 44.1 5 20.5 1 41.1-.4 62.7 1.5-34.1 12.1-64.4 25.1-92.2 47.9-.8.6 0 3.5 0 5.3 1.9-.1 4.3.5 5.7-.4 13.9-9.6 27.6-19.6 43.3-26 22.4-8.7 45.1-17 67.7-24.9-.3 1.8.1 4.1-.9 5.4-13.8 18.9-25.9 39.1-43.3 55.1-2.3 2.1-13.5 15.1-3.5 12.1 18.9-14.2 33.4-34 47-53.3 8-11.3 8.8-25.4 25.4-26.6 4.5 26 9.6 37.5-7.8 60.3-25.9 44-49 89.7-82.2 128.9-1.3 1.7-5 5-1.8 7.3 4.5 6.6 32-36.4 37.4-41.3 5.6-5 6.2-13.4 13-17.2-3.3 18.8-6 37.9-13.4 55.7-3 7.5 6.7 5.7 7.6.3 17.2-34.3 10.5-75.9 35.1-107.1 4.9-7.1 8.9-14.9 13-22.6.8-1.5.8-4.3 2.8-3.6 1.6 44.3-5.2 91.3-8.8 136.3-1 10-3.9 19.8-5.7 29.7-.5 4.9 4.6 5.6 6 1.1 11-31.5 11.4-60.8 14.7-95 7.6 21.8 14.6 41.2 21 61 1 3.2 3 4.4 4.8 3.9 9.3-3.5-15.8-66.7-21.2-74.8-3.9-6.8-1.5-13.3-1.4-20 .3-15.8.1-31.7.1-49.1 26.4 31.7 46.4 64.2 67 99.1.8 1.4 2 4.4 4.9 2.1 4.4-3.6.2-7.3-1-9.6-6.3-11.9-13.5-23.4-20.4-35-13-22-25.3-44.8-44.7-62-9-10.6-4.4-24.3-7.8-36.7-2.6-8.8 2.8-9.1 8.8-6.6 16.7 7.1 33.4 14.3 49.6 22.3 2.3 1.1 2.8 7 3.2 10.7 2 19.8 8.1 38.3 16.2 56.3 3 8.1 11.7 5.3 6.3-3-5.2-14.6-12-28.7-12.4-44.7-.6-4.5-2.7-9-3.3-13.6 13.5.5 68.6 40.7 72.8 30.7 1.8-3-3-4.4-5.3-5.9-26.3-18.2-56.6-28-84.3-43.3 31.1-3.1 61.4 1.4 92.3 4.2 2.7.4 5.6-.3 5.6-3.3 4.5-8.9-74.4-8.3-84.3-10.6-38.1 3.4-30.3 2.1-64.7-10.7-3.4-.8-6.4-27-3.7-27.2 24.5-6.3 35.2-32.2 41.8-54.8 4.3 16.5 12.5 30 21 43.6 14.6 23.4 54.8 27.7 71.6 6.3 3.1-4.3 5.2-3 7.7-1.3zm59.8-34c-3.6 2.2-8 3-11.9 4.3-40-10.6-59.1-49.7-74.7-83.9-3.1-6.8 23-1.4 29.7-30.1.5-1.9.7-3.3 3.8-1.6 37.8 18.2 93.1 72.1 53.1 111.3zm66.1-136.5c12.7 23 4.7 62.7-28.7 58.2-50.5.4-79.4-53.4-106.8-88.4-6.5-9.5 3.5-15.2 3.8-23.1 0-1.3 9.4 2.5 14.1 4.5 13 5.8 25.9 10.8 40.6 11.9 8.9.6 15.9-4.3 23.6-3.7 12.9 1.9 47.9 27.6 53.4 40.6zm12.1-26.3c-16.1-2.3-29.7-10.3-43.6-17.6-6.3-3.3-14.2-5.2-10.3-16.8 9.7-29.2-25.6-26.8 15.8-31 81.4-3.3 99 78.4 38.1 65.4z"/></g></g><g id="Layer_1_2_"><g><path d="M52 1548v15l-37 37h946l-37-37v-15H52M52 52V37.7L14.3 0H0v1600h15l37-37V52m872 0V37.7L961.7 0H14.3L52 37.7V52h872m52-52h-14.3L924 37.7V1563l37 37h15V0z" id="Layer0_0_FILL_1_"/></g><g><path id="Layer0_0_1_STROKES_1_" d="M961 1600h15V0h-14.3L924 37.7V1563l37 37H0V0H961.7M52 52V37.7L14.3 0m.7 1600l37-37V52h872m0 1496H52" fill="none" stroke="#333" stroke-width="2" stroke-linecap="square" stroke-miterlimit="3"/></g></g></svg>