<svg xmlns="http://www.w3.org/2000/svg" xmlns:xlink="http://www.w3.org/1999/xlink" viewBox="0 0 976 1600"><style>.st2{fill:#333}</style><path d="M960 22v1556c0 3.3-2.7 6-6 6H22c-3.3 0-6-2.7-6-6V22c0-3.3 2.7-6 6-6h932c3.3 0 6 2.7 6 6z" fill="#fff" id="Paper_Backing"/><g id="Wikipedia_Cropped"><defs><path id="SVGID_1_" d="M960 22v1556c0 3.3-2.7 6-6 6H22c-3.3 0-6-2.7-6-6V22c0-3.3 2.7-6 6-6h932c3.3 0 6 2.7 6 6z"/></defs><clipPath id="SVGID_2_"><use xlink:href="#SVGID_1_" overflow="visible"/></clipPath><g clip-path="url(#SVGID_2_)"><path class="st2" d="M270.3 1282.4c-26.6 1.7-30.3-23.2-44.1-36.3-25.4 16.8-63.9.1-67.4-29.9-8.5-17.4 20-59.7 4.9-62.2-25.2 2.5-56.2-32.7-27.8-53.1 3.8-2.2 5.2-7.6 1.5-10.6-33.7-30.8 9.8-65.9 33-86 11.3-14.9 7.8 38.8 34.2 39.2 6.4 9.3 10.6 2.1 18 4.9l.4.3c12.4 6.6 18.1-17.2 29.2-19.4 8.3.2 2.9-11.8 9.9-12.3 13.7 3.5 27.6 35.5 41.6 22.3 19.5-8.3 25.7-32.4 25.6-55.8 5.5-13.7 19.6 17.5 28.6 19.3 16.3 11.8 49.6 45.1 22.3 61.8-4.3 3.1-1.8 8.4 1 11.5 33.8 55.4-47.2 58.2-34.4 71.2 33 26.4 28.5 94.4-22.1 89.8-16.3 19.6-14.1 43.5-54.4 45.3zm273-447.1c-24.4-3-55.1-1.6-73.3-17.2 9.1-9.2 17.8-14 11.1-35.3-1.4-22.8-40.4-27-36.6-40.3 12.5-6.8 7.5-11.4 3.5-22.4-5-22.8-30-19.2-46.4-27.6 4.8-13.3 16.2-20.8 2.5-37-13.9-30.3 7.5-84 47-86.5 27.1 7.9 18-5.6 34.6-17 6.6-26.9 21.5-59.1 23.9-84.8 7.5-51-34.8-109.1-4.9-98.1 18.9-.1 29.6 14.9 44.9 21.8 24.1 2.5 50.8 8 70.9 19.9-48.8 31.9-72.1 78.6-90.3 134.4-5.2 12.7 19 12.5 20.5 24.3 2.1 4.7 9.4 4.4 11-.5 8.7-32.2 38.7-76.1 81.6-62.4 24.7 3.9 43 19.1 44 44.2 29.7-2.8 76.8 23 60.9 60.3-.5 12.5-28.7 21.9-18.8 33.3 37.7 31.7-3.1 86.6-43.9 87-65.8-.7-8 16.5-28.7 56.2-11.2 27.3-38.9 10.5-57.8 6.7-5.5 28-24.1 43-55.7 41zM150.6 653.9c-13.6-11.9-43.8 2.6-42.9-14.1-1-22-40-13.9-33.3-55.1 15.4-63.5 43.4-12.2-17.2-71.1-25.6-27-21.8-78.9 15.1-90.6-7.5-25.8-.4-57.4 26.9-69.8 28-17.8 46.4-3.6 63.9 17.6 32.7-27.2 84.1 0 91.4 37.8 18.2 50.5-13.8 52.7 45.7 36.3 31-1.2 60.7 25.7 45.8 55.5-1.1 7.7-14 18.4-3.4 23.4 49.5 21 5 78.2-23.4 95.5-14.2-23-35-33.9-55-2.8-12.1 19.6-17.5-34.8-57.3 11.4-9.7 9-23.8-20.7-44.5-1.2-9.9 3.9-.4 26.8-11.8 27.2z"/><path d="M817.8 1604c-5.5.1-3.7-7.8-4-11.1 3-38.2-39.8-58.3-64.2-74-14.8 3-43.2.9-50.7-11.6-.2-6.2-6.8-5.8-11.4-6.3-24.4-12.8-32.3-45.6-52.5-62.5-8.3-2.3-19.1-5.1-24.9-11.3-1.9-9.5-10.8-5.8-17.7-5.7-48.8-3.2-44.9-60.9-104.5-59.7-9.1-2.2-27.9 10.1-32.1-1.6-.7-3.2-3.9-5.3-7.1-4.6-.4.1-.8.2-1.2.4-30 14.2-52.1-16-80.1-19.8-9.8-4.9 4.5-10.5 9-12.8 23.4-10.2 45.3-28.2 70.1-32.6 53.2 16.7 116.8 29.7 161.2 69.1 44.9 15.8 89.9 35.3 116.5 78.4 37.7 31.7 83.9 36.7 117.5 80.5 19.1 19.8 32.2 48 43 81.1 3.1 8.8-64.6 2.1-66.9 4.1zm-522.9-570.1c-36.4-2.6-24.9-49.1-57.6-52.7-14.1-1-22.8-42-33.7-25.2-3.6 13.8-11.7 23.2-23.8 27.9-7.4 20.2-14.5 37.1-41.1 36.9-79.8-13.8-9.9-78.8-68.8-53.7-49.9-2.3-54.3-65.2-20.7-89.8-24.7-18.8-29.6-55 3.4-72.2 4.2-2.4 3.4-9.1-1.1-10.7-32-12.8-15.3-58.6 17.3-58.8 3.3-.1 5.9-2.8 5.9-6.1 0-.5-.1-1-.2-1.5-9.6-23.8 21.5-25.2 33-36.3-.6-8.5-13.3-13-9.6-22.8 4.9-28.4 37.3-18 56.4-15.5 4.4-15.1 2.6-32.7 23.9-32.5 17.3.3 38 22.4 33.2 38.8-1.1 2.9.2 6.2 3 7.5 5.7 3.3 11.2 9.2 10.4 18 7.1 27.5-23 51.7-31.8 21.2-15.6-11-42-24.4-61-10.8-12.2 12.1-5.1 33.7 14.6 38.6 5.4 1.9-.1 8.2 3.8 11.3 9.1 6.4 25.9-11.2 31.9 3.8 10.8 11.6 5 20.5-2.9 28.4-4.9 4.4 2.1 8.4.7 12.8-10.2 15.5-4.2 36.6-2.8 53.6 14 29.1 60.5 11.3 55.5-23-1.9-7.5 2.8-9.5 6.7-14.2-2.4-20.4-33.9-39.4-5-55.2 17.2-5.9-4.3-21.2 15.8-27.9 7.3-4.9 23.7-3.7 24.3-14.2 7.8-13.5 27.5-17.7 41.5-22.7 9.3-4.1 26.8-.8 25.8-15.1 11.2-9 19-26.9 34.6-25.2 23.8-3.5 48.2 31.5 17.8 45.2-4.1 3.9-13.1 2.6-12.2 10.1 3.9 33.7-52.6 22.4-50.8 39.4 6 9.9-24.5 17.2-11.4 26.7 18.3 8.4 33.8 21.8 44.6 38.7 3.7 5.8 11 .7 16 5.3 26.4 13.7 19.7 15.8-5.2 18.8-3.9.6-10-6-14.1-1.9-5.5 20.6 9.4 48 14.2 68.3 6.2 14.4 14.5 39.1-10.6 25.4-34.5-21.3-41.2-62.5-68.6-89.7-7.3-10.9-20.3 7.2-37.3-9.6-23.9-6.6 12 52.4-3.2 68.4-2.6 6.7 6.9 7.7 6.9 14.1 5.5 16.3 11 42.8 26.6 50.9 16.8 12.3 38-.7 38.5 16.3 5.1 23-2.8 60.1-32.8 60.9zM108.1 845.8c-44.6 16.7-62.8 97-3.2 99.8 46.1-9.6 42.5-27.2 57.9-66.3 2.1-22-47 14.1-48.8-28-.2-3.1-2.8-5.5-5.9-5.5zm-37.8-56.6c-.5 23 38.4 34.5 53.6 18.5-5.7-13.4-17.7-28.5-.5-42 4.8-6.7 19.6-8.3 18.1-18-7.5-9.6-24 1.9-35.1-.8-14.9 10-42.6 21.5-36.1 42.3zm388.6 28.7c-22.9 1.9-18-37.9-62.9-60.1-10.4-10.2 44.5-11.8 50.4-8.8 30.9 8.4 56 65.6 12.5 68.9zm-184.8-151c-28.4-7.3-13.4-60.3 7.8-65.7 59.7-10.6 22.6 55.3-7.8 65.7zm423.6-245.4c-26.3-1.4-72.3-5.1-97.1-20.6.7-10-14.1-3.1-15.2-10.9 26.2-13.4 57.9-11.7 79.5-31.8 17.8-18.2 66.4-22 60 13.4 61.1 19.8 17.5 55.8-27.2 49.9zm-154.1-33.7c-33.1-19.3-72.6-68.8-58.2-109.6 4.2-10.8 10.3-8.8 16.9-3.3 21.2 13.1 52.8 105.3 41.3 112.9zm17.7-5.5c-10.6-6.9 12.4-41.6 16.9-53.1 57-94.8 110.5-24.1-16.9 53.1zM474 368.8c-44 0-81.6-11.6-113-44-18.4-17-14.3-43.7 9.8-44.5 37.2-2 50 32.1 73 56.6 1.5 9.2 64.9 31.8 30.2 31.9z" fill="#ffeb5c"/><path class="st2" d="M0 1604c-11 1-.5-155.2-4-159 2.5-9.2 10.4-.6 15.4-.1 138.3-4.6 137.9-80.2 205.5-81.9 14.9-.1 77.4 7.8 80.8-5 62.3-47.1 94.6 3.5 156.1 9.6 80.7-21.9 82.3 47.8 145 61.8 31.3 1 51.8 30.9 66.3 56.7 37.5 52.2 128.4 25.4 150.9 99.7 54.5 46.2-820 4.9-816 18.2zm0-178.5c-8.2 2.4-4.6-121-1.3-120.8 4.8-.8 16.3-15.8 14.5-20.8-1.8-4.7 2.2-11 2.9-15.4 8.4-42.9 31.3-74.5 43.3-116 10.6-47.9 36.2-84 50.1-130.7 2.6-9 13.2-2.8 19.1-.7 23.6 3.8 10 18.3-1.2 24.9-8.7 15.8 1.3 38 10.4 50.3-12.1 12.5-14.9 21.2-16.3 38.4-.6 4.9-7.1 5.8-6.3 11.1.9 5.9-4.4 10.8-6.8 14.9-9.2 14.6-6.8 35.7-14.9 50.2-6.3 7.8 7.1 17.2.6 26.7-3.8 12.8 4.2 23.4.8 40.5 2.6 15.9 21-3.8 27.9-5.6 2-1.9 5.3-3.4 8.5-2.6 4.9-.9 7.1-5.6 13.1-5.9 37.8-14.9 17.8-18 55.2-9 50.5-8.2-37.9 44.2-46.1 51.4-3.7 3.4-11.2-2.7-13.8 3.7-16.3 23.1-46.6 35.1-66.8 53.6-10.9 31.8-56.2 36.2-72.9 61.8z"/><path d="M663.5 1263.3c-53.2-9.7-121.7-47.1-162.3-86.9-13.3-18.6-69.9-46.7-49.4-71.2 57.8-42.9 17.6-38.5-8.6-84.7-66.5-97.3-14.7-27.5-72.8-17.6-19.3-3.1-36.9-25.4-43.6-41.8-44.2 9.2-62.9-35.1-67.5-77.4-1.6-15.8 1.1-32.5-6-46.8-2.4-4.4-9.9-16.1-1.3-18.2 9.8 6.3 17.2 16.1 25.6 14.7 7.5 1.2 15.3-9.5 20.3 1.9 20.8 23.7 28.5 47.1 38.2 69.4 4.4 1.5 9-.5 11.9 4.7 6.4 14.2 37.1 27.4 37.7 8.9 2.7-25.2 23.1 23.2 28.6 28.9 16.8 26 38.4 53.9 61.8 75.7 5.7 6.9 32 34.5 27.2 10.2-18.9-19.6-39-40.8-57.9-63.8-30.4-40.8-55.6-87.6-78-131.4 8-9.8 31.2 2.3 37-10.4-7-14.1-30.3-15.8-42.3-31-10.7-14.8-45.5-27.5-29.6-47.6 14.2-21.8 49.8-18.4 53.6-47.5 44.8-29 100.6 46.2 18.5 49.5-22.6 12 49.6 37.4 31.7 61.6-23.6 23.4 9.4 16.8 24.1 19 100.1 14.5 192.4 39.8 274.3 101.8 60.9 46.2 113.5 101.6 148.2 172.9 10.4 23.1 18.5 46.6 27.6 70 2 14.2-18.9 9.3-28 8.7-14.3 1.1 3.1 14-5.1 17.5-60.4 14.8-120.3 5.6-181.1-6.4-19.6 7.9-12.2 58.1-32.8 67.3zm84.7-96.6c-22.2 14.2 29.4 17.8 36 18.6 19.2.1 58.3 18.4 71.1 2.1-2.4-12.7-87.9-13.1-107.1-20.7zm-540.8-124c-23.4-2.4-32.4-34.8-26.3-54.9 6.3-10.4 23.6-18.1 22.1-31.8.5-3.3 1.4-6.8 4.8-7.5 3.6-.1 5.6 3.3 6.8 6.6 2.9 18.8 25.5 28.2 39.2 32.8 6 28.4-17.1 54.7-46.6 54.8zm-101.5-98c-61.2-2.3-36.2-83.2 1.4-99.4 1.8-.1 5.8.3 7.1 9.8 4.4 27.5 32.9 18.1 50.4 13.7-4.6 29.9-23.8 74.8-58.9 75.9zm97.1-87.6c-43.5-5.9-23-65.2-11.3-90.3 1.4-2.7.6-6.1-1.9-7.8-15.8-27.8-4.3-13.4-35.4-22.9-31.6-3-37.4-46.9-1.7-45 28.3-1.4 38.2 34.9 65.3 27.2 11.5-2.3 5.5-22.6 13.3-30.1-51.7-83.6 27.1-100 27.8-48.7 1.1 16.3-8.1 24 12.7 29.1 7.3 5 10.5-5.8 15.3-9.4 14.4-17.3 61.6-60.1 77.7-22.4-4.7 37.2-70.3 57.5-95.5 62.3-7 12.7-16.6 20.6-28.4 27.4 1.1 14.1-2.7 28.1-18.7 33.2-9.7 11.5 12.9 33.8 11.3 53.2-.9 18.7-6.8 45-30.5 44.2zM102.3 814c-18.3.2-32.1-12.8-31-31.2 1.3-28.7 45.3-33.4 68.2-37.4 3.6.1 5.1 5.2 2.1 7.2-67.4 43.7 16.9 55.6-39.3 61.4zm650.6-346c-9.3 2.8-106.1-34.8-89.6-47.8 29.6 5.7 65.2-7.3 91.9 7.5 20.7 10.2 24 40.5-2.3 40.3zm153.6-33c-34.9-.1-56.5-39.4-45.3-71.3 4.4-7.6 16.1-16.4 1.3-20.5-60-34.1 4.2-109.1-55.5-87.3-5.6 3.2-8.2-1.8-13.1-2.8-10.4 3-2.9 19.9-21.2 21.6-32.2 14.6-60.2 2.3-86.6-17.4-26.9 13-64.5 4.9-73.9-24.7-11-29.5 8.2-48.8 33.3-57.3 8.6-75.3-79-33.2-120.4-23.9-6.3 1.3-17.6 1.5-13.6 11.8-10.5 33.6-57.8 37.6-80.4 12.3-2.4-2.3-6.2-2.3-8.5.1-.5.5-.9 1.2-1.2 1.8-22.5 26.3-79.3-5.9-67.2-40 3-23.6-27.6 15.1-41.7 11.9-21.4 4.7-46.2-12.1-48.5-32.5-5.3-15.9-24.7 2.9-36.9.5-72.2.4-42.1-92.2 1.6-112.2C224.1-20.8 969 4.6 976-4c11.4-.8.1 391 4 395.1-22.6 13.3-42.8 43.6-73.5 43.9zm-335.7-46c-3-.1-7.1-.1-7.6-3.8-3-13.5-15.5 5.9-18.1-7.9-8.4-44.8-19.2-87.9 10.3-123.9 9.6-8.3 27.5-5.9 29 8.8 19.8 26.1-46.1 130.1-16.8 117 20-16 40.5-30.9 57.3-49.7 98.5-61.5 86.6 46.5-54.1 59.5zm-190.9-2.3c-22-1.1-44.3-2-65.1-13.2-32.4-15.2-43.2-53.8 2.4-51.9 50-.7 74.4 41.7 124.9 44.1 15.9 13.4-52.6 21-62.2 21zM507.5 371c-27.2-3.8-55.1-23.9-70.6-41.4-15-12.5-43-71.2-.8-55.6 22.3 10.8 43.9 35.3 56.8 61.2.1 11 35.4 34.7 14.6 35.8z" fill="#d81e1e"/><path d="M969.3 391.7c-8.9 11.3-21.6 18.1-31.9 27.6-57.3 45.5-101-50.3-59-65 3.7-1.1 6-5.4 4.6-10.1-1.4-4.5-5.3-3-8.4-3.3s-7.4.7-9.7-.9c-46.4-30.7-34-105.4 25.8-102.8 31.5 4.9 64.9 41.8 44.5 73.5-5.6 8.1-12.4 14-22.5 12.1-20.7-3-35.5-29.7-21.5-46.6 1.8-2.5 7.4-4.3 4.5-7.8-5.4-3.4-13.5 6.2-16.7 10.5-10 16.6 2.3 37.1 14.3 46.6 54.7 35.5 93-60.2 16.8-94.7-4.6-2-12.7-3.1-13.2-5.9-3.7-38 33.5-66.8 68-74.4 2.9-.6 9.8 1.2 9.8-5.1 0-3.4-4.4-3.1-7-3-30.3 1-58.9 19.8-73.7 46.1-15-32.9-48.3-25.1-34.6-39.2 30-26.1 30.6-97-22.3-87-25.7 10.7-31-29.8-85.9 5.7-2.9 1.9-2.8 8.2-7.7 6.5-20-9.5-31.2 4.9-36.7-5.8-4.3-7.8-11.4-13.5-20.6-13.7-26.3-.6-50.9 5.1-72.3 21.4-1.5 1.2-2.1 2.3-3-.8-3.7-11.4-13-15.7-23.7-18.9-12.9-3.9-24.8 2.3-37.2 2.2-13.7-.1-26.9.7-36.9 12.3-2.1 2.5-.2 7.8-6.3 7.8-13 0-29.1 13-32.7 25.7-11.1-7.8-24-1.6-35.9-4.4 9.7-8.1 7.2-24.7-3.4-31.8-6.4-4.3-15-3-19.9-7.9-17.9-19.4-30-17.5-53-10.9-14 .7-31.9.9-38.9 15.6-2.7 5.2 2.6 6.6 5 9.6 2 2.5 5.3 2.4 7.1 5.9 3.6 7 7.9 13.6 9 21.5 11.9 47.6-64.5 60.1-75.8 16.2-1.1-5.3-.9-13.3-9.4-12.4-7.6.9-15 2.8-22.1 5.7-39.6 9.7-61.6-25.1-44.6-60.7C202.5 32.2 216 16.5 235 5.8c2.8-2 2.7-6.2-1.5-4.9-9.7.6-17.2 6.3-23.5 12.3-49.9 38.1-48.4 126 30.6 110.5 4.8-1 13.1-9.3 18 4.5 12 33.3 59 40.6 85.6 15.6-.2 38.9 50.8 63.6 82 40.6 1.8-1.4 2.8-1.8 5-.2 22.9 22.1 65 19.6 82.7-7.7 4.5-7.5 3.3-20.5 17.8-19.5 28.8-2 53.6-22.4 84.1-16.1 10.7 1.9 19.9 6.6 22.1 16.6 1.2 5.5-1.7 13.2-10.8 17.1-55.6 31.5-13.1 107 45.6 95.5 5.2-1 11.3-7.3 16.6-2 9.1 9.1 21.3 11.7 32.2 16.8 18.8 7.8 52 1.5 66.8-13 2.8-2.9 5-10.3 9.8-8.3 8 3.4 14.8-2.4 22.3-.8 1.3.3 2.8-.8 4.3-1.2 0 1.9.6 4.2-.2 5.8-11.5 29.2 9.2 63.3 32.3 81.1 3.2 2.3 2.4 4.1.4 6.5-17.5 23.5-5.2 55.6 14.1 74.5 8.9 8.4 31.4 17.2 43.4 13.6 25.7-8.7 51.6-25.6 60.6-51.8-2.1-.1-5.1-.7-6 .4zm-86.4-195.2c-.1 9.4-15.3 30.8-24.2 34-1 .4-3.8 2.1-2.2-1.6 7.2-27.4-3.6-44.5-23.8-61.7 18.5-8.6 50.2 12.2 50.2 29.3zM829.8 75c-1-2.2 7.3-3.3 11.1-3.6 17.5-1.4 28.1 9.8 28.1 33.4-.7 19.8-23.2 59.1-49.2 58-4.3-.5-4.8-2.6-1.8-6.5 9.3-11.6 12.9-25.9 16.9-39.8 4.2-14.5 1.2-28-5.1-41.5zm-69.4-2.8c22.1-10.8 49.3-15 61.4 12.1 10.3 26.6-1.8 55.4-19.5 75.4-6 6.4-19.1 4.2-27 11.4-1.8 1.7-2 6.6-8 3.1-9.2-5.3-2.3-8.3-.5-13.2 26.2-64.2-33.6-79.9-6.4-88.8zm-188.8-9c13.8-3.5 31.6 10.9 31.4 25.2-.2 10.6-19.4 24.5-27.1 19-1.5-1.1 0-7.9 1.5-11.6 5.7-13.1-1.5-21.4-10.1-30.3 1.4-.8 2.8-1.9 4.3-2.3zm-45.1 7.9c16.7-6.8 45.3 2.2 42.3 18.2-1.6 12.7-7.1 24.2-20.6 27.2-10.4 2.3-4.6-8.5-6.5-12.7-4.6-10.1-8-19.6-20.9-20.9-7.7-1.9 1.8-10.5 5.7-11.8zm-105.9 2c21.8 7.8 13.2 29.2-11.7 22.6 5.9-6.5 8.2-14.9 11.7-22.6zm-12.7.3c.7 11.9-8.6 19.5-18 25.5-5.5 3.9-11.2 9.9-18.7 9.6 14.9-17.6 23.5-39.9-1-54.5 16-4.5 36.9 5.4 37.7 19.4zm-56.1 17.7c-5.2-9-10.9-17-19.4-23.1 10.3-11.8 34-9.4 40.1 4.2 5.9 12.8-3.5 21.8-12.1 28.2-14.1 10.4-6.9-6.6-8.6-9.3zM498 176.8c-50 38.4-71.5-32.1-79.7-2.4-3.5 11.1-14.8 7.5-22.6 7-39.1-.3-55.6-49.8-14.3-64.4 14.1-7 30-7 44.6-11.9 10.4-3.7 5.2 5.1 2.9 10.1-9.5 18.9 12.5 38.1 31.5 32.5 8.4-2.5 15.7-4.6 21-11.9 3.3-3 1.2-5.8-2.5-6.3-9.4 7.3-26.5 15.6-36.9 4-7.6-7.8-5-23.4 7.8-22.5 22.5-.1 38.4 11 50.3 28.4 1.3 1.9 1.2 3.4.1 5.4-1.6 2.9-2.6 6.3.7 8.7 12.9 9.5 4.4 17.3-2.9 23.3zm5.5-50.8c-5.2-7.9-11.8-13.9-20.8-17.1-.5-.2-1.1-1.6-1-1.7 7.3-7.9 14.1-17.2 25.7-17.8 12.1-1.4 22.9 8.8 23.8 20.8-.4 14.8-9.3 20.6-20.6 23.2-1.7.4-5.2-4.5-7.1-7.4zm108.2.9c-32.4-.7-60.9 17-92.5 21.8-5.3 1.2-2.2-5.6-8.7-7 10.3-.1 17.3-.1 21.5-7.3 3.7-6.3 10.7-7.3 16.8-8.1 11.6-1.4 20.1-12.3 32.8-10.1 12.2 2.2 20.9-3.8 27.4-12.9 3-4.2 2.8-10.7 6-14.5 8.1-9.7 19.8-14.2 31.6-17.4 72.7-19.5 40.7 26 63.4 16 41-19.7 60 37.6 47 67.7-1.6 5-3.6 9.6-9.7 7.7-14.6-6.1-28.7 6.1-26.1-4.6 8.9-44.1-61.3-57.4-63.9-35.3-13.8-9.1-28-7.8-40.5 3.1-1.1 1-3.4 1-5.1.9zm68.8 24.5c-2.5-12.5-8.2-21.4-19.3-27.7 29.4-14.5 74.7 31.2 33.8 50.4-3.4 1.5-11.4-3.7-15.2-7.8-3.4-3.6 2-9.2.7-14.9zm-48.3-18.5c-1.5-1-2.9-2.1-4.3-3.2 16.5-10 42.1 6 41.1 27 .6 13.4-11.7 9.7-20.5 11 6.4-15.8-2.7-27-16.3-34.8zm157.9 112c-6.5.8-11.3.9-7.4 10.1 5.5 13-8.1 14.7-14.3 17-25.4 11.3-57.2 2.8-76.4-17-2.6-2.9-5.8-2.8-8.5-1.4-56.4 30.5-102.6-53.4-42.2-70.7 16.5-3.3 38.6-10.3 50 7.1 1.7 2.5 8.3 2.7 9.4-.2 5-13.6 17.3-14.7 28-16.2 13.5-1.9 26.6-.2 34.9 14.4 1.9 3.3 11.5 2.3 17.5 3.1 28.8 3 45.3 49 9 53.8zm22.1 6.2c-2.9-.2-5.8 1.1-10.3 2 43.6-21.4 12.9-68.6-24.3-71.1 7.5-13.8 39.5-13.3 49.8-3.7 11.2 10.6 21 21.2 19.7 38-1.1 11.6-19.3 35.8-34.9 34.8zm86.7 869.7c-37-90.6-108.5-163.6-189-217.3-46.4-28.2-98.4-48-150.6-62 1.1-.8 2.1-2 3.3-2.3 54.9-10.6 25.4-52.5 50.8-36.2 45.7 25.8 68.3-37.1 39.5-65.8 35.1 1.1 75.7-4.3 91.6-39.8 7.7-16.4 9.7-34.3-3.4-48.5-16.9-16.8 16.1-23.5 15.8-48.1.8-24.4-19.3-45.8-43.9-52.6-8-1.8-23.7 7-24.5-8.5 1.7-17.5-14.3-29.5-28.5-34.2-55.6-22.7-88.2 13.3-103.8 63.3-7-18.2-25.7-13.4-17.2-32.8 14.2-40.7 60.9-149.2 116.3-108 26.8 18.5 55.4 36.1 87.8 42.5 48.2 11.7 38.9-44.7.3-50.3 11.1-6.6 17.4-16.7 13.6-29.3-2-8.7-7.3-14.5-17.1-16.4-5-1-18.7 1-8.8-12.1 0-11.8-21.5-23.7-32.1-20.3-2.9.9-6.4.3-9.6.4.2-1.1 0-2.5.6-3.2 6.1-6.6 6.9-14.1 2.9-21.9-10.8-18.7-35.6-8.4-51.5-2.7 11.6-16.5 1.2-41.1-20.8-34-11.6 4-19.5 12.9-29.1 20.2 1.7-19.5 4.4-35.1-7.8-51.8-8.6-13-31.3-5.9-40.6 11.5-8.4 15.7-8 33-10.3 52.9-3.7-16.1-12.3-30.6-24.5-41.7-5.1-4.7-9.6-11.7-17.9-7.7-15.9 7.1-12.3 22.1-14.4 35.7-.8-.3-2-.4-2.4-1-10.4-15.9-26.4-24.3-42.8-32.4-8.8-4.4-19.2 1-22 10.2-.9 2.9-.7 10-3.4 8.7-35-24.1-82.4-4.6-49.5 39.8-109.2-41.3-96.1 71 25.7 64.3 16.3 0 31.9-4.3 47.8-7.6 9-1.9 15.9-9.2 25.4-9.2 7.2 0 14.5-.3 21.6.5 2.3.3 4-4.6 7.3.4 7.6 11.7 10.3 24.7 13.9 37.7 15 41.4 3.5 85.6-13.6 124.6-6.5 14.4-8.6 30.4-33.3 28.3-40.8-3.2-57.9 48.5-55.2 83.6-7.9-9-27.1-1.2-26-7.6 2.4-24.8-24-27-42-19 19.3-20.3 44.5-34.8 42.7-67.5-1.1-14.5-7-29-20.5-34.8-1.8-.8-5-.9-2.5-4.6 37.4-55.6-38.7-96.2-79.3-61.3-4.1-13.1-1-27.2-6.2-40.2-5.7-14.2-9.1-29.2-22.1-39.7-17.1-13.6-37.6-21.9-59.3-16.9-8 1-16.6 14.8-24.7-.4-8.3-15.4-22.7-17.4-37.9-15.1-31.9 4.8-59.4 36.8-50.9 69.9.9 3 10 9.8.8 11.9C6.2 443 43.2 524.7 85.9 545.2c1.5.8 4.8 2 1.2 4.6-15.6 11.2-19.5 26-18.8 45.1-1.1 36 47.4 33.5 31.4 58.8-10.5 17-9.8 22.2 5 36.4-16.9 5.8-39.2 11.6-37.3 34.3.2 2.4 5.6 7.4-.5 8.3-23.2 3.4-40.6 16.4-36.1 42.4 1.9 11.2 6.9 19 18.3 22 1.1.3 2.7 1 3 1.9.7 2-1.4 1.6-2.5 2.1-25.1 11.2-35.9 49.6-13.6 68.5 7.5 6.3 6.5 9.8-.4 15.7-39 38.2 9.6 115.2 58.3 75.8-5.7 16.1-5 30.6 4.7 44.9 6.1 7.5 12.8 7 7.5 15.2-14.8 44.2-43.7 83.5-52.5 129.7-5.1 30.4-26.1 53.3-32.5 82.8-7.6 22.5-11.4 46.2-21 68-1.2 2.2-1.6 5.1 0 6.7 2.9 3.2 4.3 2.1 5.5-1.3 6.8-18.4 22.6-20.9 37.4-9.4 7.2 7 15.3 1.7 7.5-6.3-18.8-17.6-37.8-1.1-33-13.3 5.8-19.5 11.4-39 17.8-58.3 3.4-10 4.7-23.4 21.9-18 17.6 5.5 40 17.1 33.3 34.3-6.9-1.9-21.9-16.2-25.8-5-1.4 5.9 25.6 7.3 25.8 20.2 1.8 17.3 1.5 35-5.3 51.8-2.7 5.9 4.8 11.8 6.5 3.2 5.6-15.1 18.2-22.6 31.5-29.2 2.4-1.2 5.1-5.1 7.7-2.8 13.6 12.1 10.5 38.1-7.7 47.4 5.6-5.5 3-10.4 2.3-14.4-1-5.3.1-15.1-8.1-14.1-4.8.6-.8 8.4-.7 13.1.5 10.9 3.2 21.5-9.4 27.7-10.5 5.2-18.8 14.4-28.8 20.7-.5-1.3-1.3-2.6-1.4-3.9.1-5.6-7.7-27-14.9-23.7-5.6 8.5 20.2 30-1.5 49.2-8.7 12-70.8 35.7-59 48.3 8.3.9 11.1-9.6 18.8-11.6 12.3-5.3 24-11.9 34.8-19.7 14.5-10.1 24.2-25.2 37.9-35.9 30.1-22.4 60.9-44.4 91.7-65.8 14.3-9.1 27.4-19.3 38.7-31.9 1.9-2 4.4-2.2 5.1.9 15.7 43.3 81.3 34.3 92.2-9.6 6.2-23.2 29.6 5.3 46.2-30.2 14.8-28.9 6.2-58.4-15.1-77.7.5-1 2-2.2 2.9-2.1 28.6 1 52.2-38 35.7-61.8-11.7-14.2 7.9-16 6.1-32.2.1-16.5-12-26.7-21.5-38.4.4-.8 1.1-1.3 1.9-1.6 16.1-1 22.9-11.4 26.1-25.6.5-1.3 2.4-3.6 3.7-1.3 17.2 30.2 38.3 58.2 60.8 84.7 3.2 3.6 9 10.6 8.4 11.2-6.9 7.4-13.7 16.3-22.5 20.3-16.3 7.4-24.5 27.4-13.4 38.6 17.2 17.4 32.4 36.8 51.5 52.4 42.9 40.5 122.3 84.9 181.9 87.8 3.8-.1 7.9.6 9.3-3.2 6.4-17.8 11.8-35.9 18.6-53.5 1.8-4.7-2.7-15.6 8.3-13.2 60.6 11.6 124.1 16 184.1-.6 10.8-3.2 27.2-4.9 24.5-20.6-3.6-21.5-11.5-42.5-19.5-63.2zM753.2 431.1c14.4 8.4 20 24.1 9.8 30.2-28.4 10.1-75.3-22.8-99.6-37.2 17.1 1.7 34.4 1.9 51.5.6 13.6-1.1 26.3-.6 38.3 6.4zM741 382.2c17 8 9.5 29.9-7.5 31.7-43.1 9.7-87.9-2-128.9-12.9 36.7 1.1 79.8.6 112.7-20.9 6.5-4.3 16-1.2 23.7 2.1zm-30.7-32c6.7 1.8 12.7 6.2 10.4 14.3-2.8 9.6-12.3 12.7-20.3 16.2-35.5 15.3-73.3 14.6-111 9.3 77-8.8 82.7-50.3 120.9-39.8zM657.7 317c11.8-4.5 36.8-1.4 25.8 16.3-25.3 36.5-75.3 46.2-116.4 51.4 21.2-17.1 42.7-32.5 60.7-52.5 7.1-7.8 18.4-13.1 29.9-15.2zM626 288.9c44.3 6.2-51.4 80.9-64.7 89.4 13.5-31.6 27.2-81.4 64.7-89.4zm-84.5 18c.5-19 4.3-57.7 32.2-53.5 4.6.5 5.9 6.2 6.9 9.9 9.9 31.8-14.8 82.1-27.5 110.7-2.6 5.4-3.3 6.4-4 2.6-6.5-22.6-9.1-46.2-7.6-69.7zm-52.3-27.5c2-6.6 6-5.5 10.3-1.5 30.9 28.2 32.8 67.9 44.1 105.9-33.2-25-66.5-60.6-54.4-104.4zm-76.4 99.3c-119.1 25.8-174.2-80.3-60.7-46.5 27.8 13.6 52.4 34.8 89.9 37.5-12.6 4-20.7 7.6-29.2 9zm9.1-20.9c-22.6-6.4-80.8-37.9-65.5-66.2 6.5-9.8 18-7.5 28-5.1 14 3.4 27.1 10.6 33.3 23 15.1 26.1 32.6 43.9 63.1 55.2-22.8.6-40.7-1.6-58.9-6.9zm18.1-30.9c-10.6-12.8-20.3-26.3-22.7-43.1-1.3-9.1 6.4-11.7 16.9-6.3 20.5 10.5 35.6 27.5 47.5 46.2 9 14.8 15.1 31.6 29.2 43.1-23.9.1-55.4-22.2-70.9-39.9zm52.4 211c27-56.5 28.4-104.8 2.9-161.9-.2-.9 0-1.8.4-2.6 21-4.2 34.7 12 50.8 20.5 3 1.4 6.5 3.3 9.5 2.9 22.7-3.6 39.4 11.2 60.4 14.7-52.5 26.2-71.2 81.4-90.2 132.5-1.2 3.9-8.8-.8-12.9-1.7-7.7-2.1-14.5-.3-22-.2.3-1.4.6-2.8 1.1-4.2zm-87.5 88c4.8-27.4 24.4-60.8 57.3-51.2 6.7 2.1 13.3.6 16-8.4 9.8-22.3 35.4-14.2 53.4-8 10.4 3.5 15.7 9.7 17.9 20.1 4.3 13.6 11.3 9.9 13.5-1.4 7-19.6 15.2-38.5 28.2-54.9 22.3-25.4 102.6-13.3 88.5 31.1-5.3 16.1 20.6-11.2 46.3 11.6 33.7 18.6 23.7 54.3-5.9 70.1-5.7 2.8-3.3 10.4 2.5 10.8 22.9 6.5 20.9 45.3 6.3 59.5-11.6 12.2-26 20-43.8 21.9-12.6 1.4-25.1 1.5-37.6 1.7-6.1.5-4.8 8.7-1.3 12.1 14.1 13 13.3 28.7 7 44.9-9.7 21.9-36.3 12.7-51 1.2-7.9-7.1-12.8.4-10.2 8.8.9 54-86 33.2-117.8 22.1 16.1-6.8 14.3-24.1 11-36.5-5.2-20.2-22.4-26.8-37.8-36.2 11-8.5 26.9-10.4 38.2-18.7 12.3-7.9 22.9-4 31.8 2.8 5 3.8 5 13.6 8 20.3 7.4 16.8 14.3 34 26.1 48.4 3.7 6.1 10.7 2.9 6.1-4.3-2.7-3.3-36.8-66.2-25-60.4 29.3 9.8 59.1 25.6 90 26.6-1.3-7.2-40-17.1-49.1-20.4 15.4-7.4 28.9-16.6 45-21 4.9-2.1 14.9-4.7 15.6-10.7-22.7 0-44.3 13.4-63.7 23.8-11.7 6.8-17.4-2.9-25.9-3.8-7.9-.9-15.3-6.3-23.8-7.4-3.3-.4-6.3-2.9-9.4-4.5 14.5-15.2 36.3-19.8 54.2-30 6.7-3.3 12.5 1.6 19.1 1.2 39.6-3.3 79.7-1.5 118.9-8.5 2.1-.3 6-1 5.2-4.4-1.3-5.1-6.3-4.2-9.5-3.3-13.3 3.5-26.9 2.5-40.4 3.6-22.6 1.9-45.3 2.8-67.9 4-2.1.1-6.3-1.4-6.2-1.9.2-3.2 3.6-3 5.7-4.3 32.9-21.5 67.5-40 100.2-61.7 3.1-1.8 5.9-4.1 8.3-6.8 2.6-8.9-4.6-7.1-8.9-2.7-21.2 13.4-41.5 28.5-64.4 39 .8-2.5 1-5.4 2.5-7.3 12-14.3 24.5-28.2 36.4-42.6 2.6-3.1 10.4-5.8 5.3-11-4.6-4.7-8.1 3-10.3 5.3-16 16.9-34.9 32.5-43.9 54-7.8 18.5-26.5 18.6-37.8 30.2 11.7-39.8 30.4-77.3 55.1-110.7 2.2-3.1 5-8.1 1.7-10.6-2.9-2.2-5.1 2.8-7.1 5.4-29 34.8-48.3 75.5-60.7 118.8-2.8 8-12.2 9.3-19 12.7-18.2 9-36.7 17.4-54.6 28.9 0-19.9-.3-38.9.2-57.9.1-4.3 6.2-3.1 9.2-5.2 9.5-8.1 47.8-32.8 47.4-43.6-3.2-3.6-4.7-.5-7 1.3-15.3 11.9-30.6 23.5-46 35.2-2.3 1.3-2.3-1.8-2.3-3.2 2.8-18.4 5.8-36.8 8.3-55.2.4-2.5 2-7.5-1.8-7.6-5.6-.2-5.1 6.4-5.8 9.6-5.7 29.6-11.3 56.4-12.8 87.1-13.7-20-25.1-37.2-37.1-57.3-2.9-3.9-6 2.1-4.7 5.3 5.1 15.1 16 27 22.8 41 5 10.4 15.5 17 18.8 28.3 2.5 8.8 1 18.2-2 26-1.7 4.6-10.5 6.6-16.2 9.5-21 10.8 3-30.7-58.9-35.9 25.6-26.8-10.7-34.7-.4-64.7zm-40.1 167.6c-9-8-17-17.3-26.6-24.2s-6.2-11.6-1.4-19.7c12.5-21 24.5-2.1 34.5 1.1 20.5 6.5 37.8 20.5 52.3 36.5 5.5 6 15.1 12.8 9.2 23.4-3.4 6-9.5 10.2-18.7 10.7-18-4.7-34.6-14.6-49.3-27.8zm29.3 31c-6.9.8-12.5-.5-17.7 2.2-1.2.6-5-.9-5-1.1.5-4.1 1.4-8.2 2.2-12.3 7.5 3 12.5 6.8 20.5 11.2zM251 996.8c.9 37-56 62.5-66.2 17.5-1.4-8.6-2.5-17.4.1-25.2 1.7-5 9.3-7.8 13.2-12.4 5-5.8 8.9-12.5 9-20.6 0-1.2.9-2.4 1.3-3.6 6.5 16 19.3 34.8 38.5 36.4 7.6.6 2.3 5.8 4.1 7.9zm107.2-272c-43.7 16.2-15.5-22-79.3-15.6 24.1-16.5 47.9-22.9 75.7-24.3 12.8.2 22.2 6.4 23.9 17.7 1.6 12.6-10.5 17.8-20.3 22.2zm31.8-22.6c10.8-9.4 45.2 1 51.7 16.4 11.2 32.5-58.3 34-75.8 19.5-2.1-1.3-4.9-1.2-8.7-2.1 15.7-7.7 29.3-15.4 32.8-33.8zm-194.8 66.7c.9-2.8 17.9-2.8 19.5.2 7.9 14.1 12.1 29.4 14.6 44.5-1.5 20.4-6.6 43.5-31.9 39-8.9-1.5-11.8-9.4-14.5-17.8-8.2-24.5 5.2-44.5 12.3-65.9zm21.5-46.8c34.8.2 20.5 38.5-12.6 36.8-6.1-.5-16-1.1-16.9-13.1-.9-12.5 14.6-24.8 29.5-23.7zm-18.3 140.8c26.1 1.8 41.4-20 38.7-48.2 11.7 17 14.9 35.8 18 54.8 3.3 19.9-15.9 49.5-33.6 49.3-19.2-2.2-23.7-32.2-27.7-48.8-1-3.7-2.4-7.3 4.6-7.1zm27.6-97.6c-.7-1.8 6.9-7.1 11.1-10.2 11-8.1 18.1 2 25.3 7 21.7 12.3 53.6 51.9 16.5 65.7-28.9-6.8-43.7-37-52.9-62.5zm26.1-37.6c16.8-6.1 33.3-14.7 52.1-8.6 11.6 3.7 21.8 9.8 23.3 22.9.7 12.1-15.1 14.1-24.5 13-20-.7-38.3-8-56.9-14.3-2.8-6.3-.5-11.4 6-13zm26.2 35c32.4 1 59.9 15 80.1 41.6 3.7 4.9 8.7 13.4 1.8 20.5-13.6 12.6-41.8-.2-51.8-12.3-4.2-4.5-3.7-13.1-6-19.6-4.9-13.1-14.3-22.9-24.1-30.2zM265.6 656c-7.8-18.1 1.9-46.1 17.8-51.2 10.7-4.2 18.7-1.5 25.4 6.9 6.1 7.8-.6 14.4-3.4 20.6-5.4 12.1-18 18.1-26.3 28-4 4.9-10.7 2.3-13.5-4.3zm0 13.9c17.3 7-1.6 31.2-11.8 42.4-6.1 6.2-11.8 11.5-21.4 4.9-14.9-8.5 15.5-56.4 33.2-47.3zm-22.4-4.2c-4.2 2.4-9 13.5-11 11.7-9.1-11.7-17.3-28.5-14.9-43.8 1.3-10.3 5.5-19.1 23.9-18.6 6.5 0 13.2 8.5 13.7 24.5.4 10.8 1.3 21.6-11.7 26.2zM221 684.9c-1.3 11.2 5.4 28.9-14.3 31-9 .9-9-7.6-9.9-11.9-2.2-10-6.2-21 3.6-30.1 9.4-8.8 20.9-.2 20.6 11zm-13.6-25.6c-2.2 4.9-12.6 5-16.6 9.5-4.1 11.8-8.1 6.5-14.1 1-9.6-8.7-18.5-16.8-15.7-31.5 10.1-32.6 54.6 2.7 46.4 21zm-13.2 59.8c1.8 1.8-.4 1.8-1 2.3-2 1.6-5 2.6-5.9 4.6-7.8 17.5-20.9 8.3-32 6.1-51.2-13.5-11.3-68.1 38.9-13zm-19.8 28.1c2.8-.5 3.4 3.1 4.9 4.7 12.4 12.9-.9 20.4-6.7 27.6-9 11.3-21.8 19-36 21.6-7.1 1.3-14.1-2.5-16.8-9.2-8.8-27.5 34-40.8 54.6-44.7zm-54.2 58.9c-41.6 19.8-64.3-34.8-23.4-46.5 13.9-3.8 28-9.2 42.4-10.2-33 24.4-38.9 42-19 56.7zm5.6 17.1c9.1-22.7 31.2-8.9 50.8-34.1-6.1 13.4-9.4 28.6-4.9 41.2 15.3 47.8-82.1 60.7-45.9-7.1zm50.9 40.3c1.7-2.8.1-10.5 6.5-8.1 4.3 1.7.3 7.5 1.2 9.4 1.9 38.2 39.8 88.7-4 114.4-21.5 11-38.6-5.8-36.3-28.7.4-21.2 12.4-37.9 17.6-57.1 2.8-10.6 9.1-20.4 15-29.9zm62.4 114.2c-18.1-9.9-23.1-27.2-26-45.7-.4-2.7-1.5-5.8 4.1-3.3 14.4 5.9 34.5-11.1 40.5-25.5 4.9 16.3 8.9 32.9 19.5 46.7 1.9 2.5 1.5 4.8 1.9 8.6-.6 18-24.6 27.9-40 19.2zm25.1 9.8c11.6-3.6 17.8-11.4 21.8-22.9 3.2-9.3 8.2 1.2 12.7 1.2 6.1.1 11.7 3.7 18.5 1.8 8.5-2.4 5.7 6.3 7.5 10 .9 14 .6 36.7-14.7 47.2-23.8 17.2-42.1-12.4-49.1-33.1-1.7-4.1 2.5-4 3.3-4.2zm28.4-36c-19.2-18.6-26.8-42.5-29.3-68.1-1.6-16.2 1.1-32.9-6.4-48.2-2-4-4.6-7.5-4.9-12.5 10.6 11.6 21.9 19.2 38 11.7 3.7-1.7 3.9 2.7 5.2 4.3 17.1 20.8 30.8 43.5 35.9 70.6 8 30.2-4.4 65.4-38.5 42.2zm33.2-83.7c-7.8-13.3-15.6-26.5-26.6-37.6-3.6-3.6.8-6.7 2.7-9 3.6-4.2 5.5 1.7 6.9 2.8 13.2 10.7 27.5 17.5 44.9 14.9 4.3-.7 3.3 3.1 2.9 2.8 4.1 25.2 12.3 47 19.4 69.2 1.2 3.8 5.5 8.1 2.1 11.3-26.3-2.9-39.8-34.3-52.3-54.4zm96.8-95.3c-6.8-6.1-14.5-10.8-24.2-18 17.7 2.4 31.1-7.7 46.6-1.8 21.6 8.1 36.6 29.8 31.5 51.4-2.7 11.2-28 14.9-31.6 1.6-3.4-13.8-11.8-23.8-22.3-33.2zm-57-119.1c2.3-4.4 7.3-1.5 10.9-2.5 12.8.3 24 4.6 28 17.3 3.6 11.3-6.3 16.6-14.2 21.9-5.6 3.8-7.5-1-10.8-4.1-9.3-9.9-21.1-11.5-34.1-11.5 5.5-8.3 15.6-11.8 20.2-21.1zm-21-27.4c31.8 1.8 7.1 36.2-8.6 42.2-17.4 9.8-35.8 17.8-53.8 26.4-.7.3-2-.7-3.1-1 8.1-7.8-.5-19.8 6.8-27.5 16.6-17.6 32.6-36.8 58.7-40.1zm-252.1-7c-23.3-13.9-18.4-61 9.6-66.3 3-.7 8.5.3 8.6-3.6.2-6.4-7.5-6.3-10.9-7.5-16.8-6-28-18.8-39.7-30.8-21.2-22-23.9-74.8 12.9-81.7 5.3-1.3 8.1-2.4 4.4-9.6-20.4-35.8 29.6-87 65.5-64.5 9.9 5.5 10.8 21 18.8 22.1 3.8.4 5.4-1.7 7.9-4.5 19.7-19 51.8-5.7 68.1 11.1 6.6 6.6 9.4 17.3 13.1 26.4 8.6 15.8 2.5 45.4 12.7 56 2.4 1.7 4.7-1.1 6.1-3 25.3-32.5 93-5.4 72.7 36-1.3 8.7-18 24-3.4 27.9 14.3 2.5 24 17.5 22 31.5-3.6 26-24.9 38.8-40.3 56.1-.8.9-2.1 1.5-2.6-.9-2.8-12.4-12.6-19-23.3-20.1-16.9-1.9-27.6 11-36.2 24.3-9.1-16.8-36.8-16.9-45.7.7-.3.7-2.6 1.2-2.6 1.1-2.4-5.3-5.3-10.5-6.9-16.1-.9-3.3 3.4-4.4 5.4-6.5 10.3-11 20.5-22 30.2-33.5 2.9-3.4 6.2-3.2 9.1-2.9 22.7 2.7 45.1.1 67.4-3.2 4.7-1.9 17.9 0 17.3-6.7-.6-2.4-3-2.5-5.7-2.2-26.5 4.1-53.3 5.5-80 4.2 10.2-15.2 20.4-29.9 30-45 2.5-5.1 11.2-18.4 9.6-23.2-1.9.5-4.8.5-5.6 1.7-7.6 11.4-14.4 23.2-22.2 34.4-10.7 15.5-22.2 29.4-33.1 45-3.5-22.1-1.4-43.1 2.9-63.9 1.5-7.3 4.4-14.2 6.4-21.4 2.2-7.4-5.5-6.6-7.9-1.3-11.6 27.3-16.4 56.4-11.2 85.1 2.8 15.9-9.1 19.1-14.4 27.6-3 4.8-4.9-3.1-5.6-4.8-7.9-18.1-15.8-36.2-22.2-54.8-1.6-4.7 1.7-11.4 3.7-16.9 10.3-28.3 18.2-57.1 22.1-87.1-.3-5.7 9-27.1-.2-27.1-3.1-.3-1.9 1.7-2.3 3.2-6.9 38.1-17.8 75.4-29.3 112.3-.9-.8-2.1-1.3-2.5-2.3-5.4-14.8-11.8-29.5-15.8-44.7-2.8-10.4 7.2-18.9 8.2-29 1.3-13.2 5.6-26.3 1.9-39.8-.9-6.2-7.4-4.9-6.6 1.2.2 17-2.1 33.5-9 50.6-7.3-23.1-14.1-44.9-21.2-66.5-.5-1.4-1.1-5.1-3.9-4-2.4.9-2.8 3-2.3 6.4 9.3 46.4 25.9 88.3 40.6 133.7-23.3-18.2-44.3-34.7-66.2-53.5-1.8-1.5-4.2-2.3-5.7-.6-3.2 9.8 48.5 49.5 58.7 54.3 28 17.6 31.5 48.3 44.3 74.8-30 2.2-30-15.5-38.9-35-3.6-6.8-22-28-29.4-23.6-1.9 1.3 0 2.3.7 3.2 7.3 9.2 17.7 15.8 22.1 27.4 1.6 6.8 8.4 12.9 7.6 19.9-13.9-1.5-26.5-7.7-39.6-11.7-2-.7-4.5-.1-4.5 2.3-.1 5.6 5.3 6.3 8.7 7.5 19.2 6.3 38.5 12 57.9 17.7 24.1 2.6 17.1.8 30.2 22.4-16.5-14.7-30.4-12.6-42.9-3.5-14.4 9.5-.8 33.1-13.4 24.5-8.4-3.1-17-6.2-26.1-3.6-4.8 1.4-9.9.7-9.2-3.8 2.8-16.1-10.9-17-18.9-21.9zm9.4 50.8c2.7-13.3 13.4-17.8 26.6-17.1 18 1.1 30.4 12.4 42.6 23.8 4.8 6.4 17 12 13.8 21.2-16.6-9.4-33.6-18.9-52.8-6.3-3.1 2.1-11.1-3.4-16.9-5.2-8.2-2.5-14.9-8.3-13.3-16.4zm-12.8 35.7c8.5-3.5 17.5-6.9 27.2-6.5 19.3-3.7-10.8 25.6 29.2 39.1-22.2 2.3-63.3 16.1-68.1-15.7-1.5-8.4 5-14.1 11.7-16.9zm-47.4 49.7c3.3-7.9 13.3-11.5 22.5-14.6 16.3-4.5 15 13.3 33 8.5-18.3 8.7-35.9 19.9-30.8 41.1 0 .1-5 2.8-7.4 2.3-21.5-4.2-24-21.7-17.3-37.3zm-8.9 84.3c-2.4-14.4 17.3-29.4 29.7-35.3 11.5-5.4 12.3 4.1 16.6 7.4 12.4 10 25.6 8.4 39.6 4.2-4.1 24-26.8 33-41.2 49.2-17.2 17.5-47.2.3-44.7-25.5zM68 963.1c-52.3-4.5-46.6-83.9.9-83.7-11.1 27.7-9 61.1 26.3 68.6-7.6 7.5-14.5 16-27.2 15.1zm4.8-47.5c-4.1-27.8 12.3-44.8 28.8-62.4 8.4-9 8.3-.3 9.2 4.4 5.4 23.5 32.7 26.3 51.4 14.3-12.6 23.3-13.2 49.7-37.8 62.9-17.6 11.4-47.9 5.1-51.6-19.2zm26 58.9c.3-7.5 7.2-14.8 7.1-24.4 0-1.6 9.3-4.1 14.5-4.8 6.2-1.3 10.8-5.1 16.2-7.9-3.2 23.6-2.8 41.3 21.3 53 3.6 2 14.5-.6 14.3 1.8-11.7 42.5-75.8 25.5-73.4-17.7zm-13.5 231.1c-9.8-9.2-22.7-14.5-36.1-14.9 15-28.1 18.7-59.3 30.2-88.6 6.7-4.8 26.9 13.9 33.6 7.6-1.8-10.7-17.4-13.2-25.9-16.4-3.7-1.3-2.6-2.5-1.4-4.2 13.7-20.1 19.2-43.6 27.7-65.9 2.5-6.5 7 1.6 10.6.2.3-.1.9 1.1 1.5 1.2 25 3.5 6.3 13.4.3 16.8-8.7 10.9-6.3 41.2 5.7 51.3 2.3 1.9 3.7 3.6.8 5.6-17.7 12.1-9.5 22.6-15.4 37.8-8.4-5-16.3-10.9-24.5-16.3-3.9-2.5-7.7.1-8.9 3.2-.5 2 2.6 3.1 4.7 4.3 7.1 4 13.8 8.7 20 13.9 7.8 6.9-.4 12.3-3.1 17.7-7 13.8-9.2 28.7-11.7 43.5-1.4 6.6-3.6 7.3-8.1 3.2zm13.6 75.3c6.3-54.7-4.4-76.9 20.7-132.5 6.2-21.3 13.7 14.1 45.6 10.7-15 25.4-21.5 57.8-2.4 82.6 1.5 2.1 5.7 3.8 3.8 6.5-21.4 12-47.1 14.9-67.7 32.7zm103.5-14.3c-16.9 12.4-34 24.5-51.2 36.5-3 2.1-2-1.3-2-2.3 0-25.7-18.7-31.5-4.1-32.6 9.9-6.3 22.4-7.5 31.6-16.2 6.9 6.1 15.3 5.9 23.2 7 3.9-.5 10.1-4.3 11.2-1.2 1.3 3.9-5.4 6.3-8.7 8.8zm184.2-221.5c2.7 20.9-25.9 13.1-6.1 36.8 17.7 26.4-17.3 61.7-45 49.2-4.1-.7-6.3 3.4-2.9 6.6 12.6 12.5 23.3 26.7 31.7 42.3 3.7 6.8-2.1 33.4-8.1 41.3-9.1 11.8-21.5 12.4-34.5 11.8-10.2-.5-5.1 11.7-8.9 17.5-5.2 13.4-18.9 24.1-33 27-20 4.5-36-6.1-42.5-23.8-2.9-12.3-9-14.7-20.1-8.2-20.6 12.1-51.8-5.9-54.3-29.6-2.1-20.6 2.6-38.9 12.6-56.4 5.8-9.1-1.5-13.1-9.5-10.1-9.3 4-30.3-7.1-35.5-19-11.5-24.6 28.7-28.7 8.3-43.9-15.1-11.5-8.6-40.7 3.6-51.8 5.1-5.5 11.2-10.3 17.2-15.2 4.8-3.9 11.9-4.8 14.6-13.9 3.1 20.4 8.7 36.4 29.3 41.9-6.8 4-49 15.7-44.7 22.4 2.7 4.6 9.6.5 13.6-1.7 14.8-7.9 31.3-10.7 46.6-16.9.4-.2 1.2.6 1.8.9-1.5 2.6-2.5 6-4.7 7.8-17.9 14.5-30.3 33.9-45.3 51-1.9 3.4-12.4 9.8-9.3 13.4 2.1 1.3 5.3 1.8 7.3-.5 8.4-9.2 16.8-18.6 25-28 2.6-3 3.2-8 8.2-8.7 2.4 14.5-2.8 28.3-5 42.5-.3 1.6-2.3 5 2 5.4 6.1.5 7.1-4.8 7.8-8.5 2.8-15.9 6.9-31.4 5.4-48.3-.6-6.3 10.3-13.8 16.3-20.4 7.9-8.1 15.1-17.3 23.8-24.4 2.6 23.2 3.2 46.8 4.4 70.2.3 9.3-9.1 13.9-13.1 21.3-16.5 26.7-30.3 54.4-40.5 84.2-.9 2.8-4.8 7.6 1.1 8.7 4.4.8 5.4-5 6.6-8.1 11.5-32.8 29.3-61.3 47.3-90.9 1 12 1.2 23.6 3.1 34.9 2.1 12.6-3.1 21.8-10.5 31.1-8.3 10.4-11.3 23.4-15 35.9-.4 1.4 1.8 3.5 2.8 5.3 1.6-1.7 3.9-3.2 4.6-5.2 4.6-13.5 9.2-26.8 19.1-37.6 5.3 17.5 6.5 35.4 8.9 53.1.7 3.9 1.3 10.9 5.2 12.6 4.9-2.7 3.1-7.7 2.7-11.5-6.6-32.9-7.8-67-9.5-100.4 17.1 21.4 33.3 41.4 51.6 61.3 2.5 3.5 7.8-3 4.9-5.8-17.7-22.7-34.9-45.8-53-68.2-8-9.8-6.6-20.9-7.6-31.8-1.3-23.8-5.3-47.3-3.1-71.3 13.6 11.6 27.1 23.2 40.8 34.6 2.9 2.4.5 4.5.4 6.9-.8 19.6-1.4 39.4 10 56.9 2.3 6.3 9.3 3 6.3-3.5-7-15.7-11.3-33.8-7.1-50.9 8.2 1.4 36.1 38.2 40 30.7 1.7-1.8.8-3.8-1-5.6-15.1-15.9-31.9-30.6-46-47.3 14.5-6.1 30.8-3.3 46-3.9 2.1 0 5 .4 4.9-2.7-4.6-8.7-27.6-4.2-36.9-5.7 11-13.4 14.9-28.6 14.1-47.4 15.4 24.1 45.4 32.7 52.8 61.6zm2.3-52.9c-4 4.8-9.6 7-19.8 6.8-10.5-1.7-18.3-12.8-28.2-21.3-12.9-11-5.4-19.8-.5-30.5 6.1-12 2-25.2 1.4-37.8 9.7 10.1 17.6 22.2 32.5 21.1 13.8-.6 12.5 9.6 15.5 16.2 6.8 14.9 11.5 30.6-.9 45.5zM684.8 1202c-5.9 18.5-11.3 37.1-18.3 55.2-1.9 5-8.5-.2-12.5-.9-56.8-11.8-107.5-44.1-150-82.8-18.2-19.1-43.1-33.6-54.3-58.3-1.5-3.6 4.3-6.2 7.2-8.8 8.2-8.3 18-14.9 25.4-23.9 51.1 61.2 130.3 99.8 202.5 119.5zm187.6-2c-97.2 17.2-206.3-4.7-291.7-53.7-86.3-50.9-153.4-139.1-191.7-230.7l1.4-.7c69.7 128.5 195.1 219.6 333.8 261.2 31.2 11.1 64.6 12.6 96.8 20.3 17.8 2.7 38-2.4 55.1 2.3-1.2.6-2.4 1-3.7 1.3zm34-19.5c-14.3 4.5-29.1-1.1-43.6-2-19.8-2.3-39.7-4.3-59.5-6.9-56.6-6.2-110.9-24.1-163.5-45.1-76.2-36.2-138.3-94.9-191.3-159.7-25.1-34.5-47.3-71.8-66.9-109.8-2.9-5.6-2.5-12.9-10.3-18.1 80.8-12.3 146.2 4.4 222.5 26.4 98.5 31.7 185.8 95.9 246.3 179.7 32.4 38.8 52.2 88.2 66.3 135.5zm-15 347.7c-15.9-17.2-35-24.1-58.1-13.7-18.8 3.3-36.7-17.4-55.8-8.6-22 8.1-43.3 16.1-66.4 5-2.9-1.4-8.6-1-8.1-4.5.4-3 4.6.3 7.1.6 12.3-4.7 24.4-11.8 38.5-10 24.1 2.5 39.1-24.5 62.8-23.2 14.5.4 70.9 16 77.5 3.2-.1-2.6-2.8-5.3-5.6-3.8-5.3 2.7-10.3.5-15.3-.2-24.4-1.4-54.6-15.1-77.2-4.7-16.4 8.3-30.4 22.1-50.9 18.9-3.1-.5-6.3-.1-9.3 1.1-13.5 6.2-27.2 11.1-42.4 8.8-5.3-.8-6.7-6.2-10.7-8.5 28-7.1 42-33.2 60.7-53 15.7-18.4 22.6-7.4 35.2 6.9 1.8 1.5 6.1.7 5.7-2.3-3-12.8-24-17.1-2.9-26.7 15-7.1 28.1-12 44.3-2.8 34.4 21.8 52.4-1.7 34.4.5-36.6-1.3-37-31.9-84.4-5-22.2 16.3-17.5-5.8-43.2-4.8-41.5-2.2-73.3 56.8-114.1 23.2 22.1-8.3 45.6-14.4 64.3-29.6 32.4-24.9 72.8-55.6 112.1-24.3 2.4 1.8 3.7-.7 5-1.8 1.7-1.5.2-2.7-1-4.1-41.6-38.4-91.5-2.9-125.5 24.5-20.6 13.7-43.9 23.6-68.3 27.8-24.9 3.9-38.8-12.4-52.8-29.9 58.1 14.8 68.9-53 128.3-21.3 4.2 2.1 7.8-1.6 4.3-5.1-62.6-46.9-86.8 45.6-146.9 11.4-20.2-11.9-39.2-17.6-61.6-12-3.9 1-10.1 2.9-11-.3-1.3-4.2 5.5-3.4 8.4-5.5 1.4-.9 2.8-1.7 4.4-2.4 36.2-20.8 57.5-.6 91.5-17.1 8.2-3.9 15.3-9 18.8-14.5 6.4-9.8 32-17.2 44.2-16 21.9 2.1 39.5 13.7 58.6 22 4.8 2.5 16.3 4.2 17.9-4.3-23.8-1.5-40.6-22.4-64.9-25.4-47.9-8.6-52 11.7-86.3 32-7.8 3.4-16.4 4.3-24.7 2.7-30.1-5.4-56.4 9.3-81.7 21.1-32.1 13.1-48.5-16.7-78-20 51.4-25.7 75.5-48.8 136.5-40.7 4.5 1 6.9-5.4 2.3-6.7-72.8-13.8-94.7 20.8-153.7 43.3-38.6 9.1-74.1 37.2-115 30.2-21.4-3.3-41.9-5.3-61 7.1-42.2 36.1-54.4 52.7-112.6 65.3-18.2 4.7-37.1 6.8-55.6 10.4-2.2.4-5.8.4-5.8 3.9 0 12.4 78.9-8.1 89.3-11.3 59.9-13.2 79.7-72.3 124-66.8 11.3 1.4 22.7 1.4 34 2.2 11 .8 22.8-3.8 32.6-1.3 40.6 6.4 78.7 25.9 111.8 50.3 36.1 28.4 74.8 8.1 115.4 25.7 27.3 10.6 50.5 29.7 68.9 52.2 9.9 13.8 21.7 25.9 36.4 35.2 14.3 9.1 32.2 6 46.4 15.6 13.9 9.4 25.4 20.3 31.1 36.6 2.5 4.5 5.5 13.9 11.4 11.7-4.7-32.1-27.7-59.6-61.1-64.6-28.2-3.6-44.2-25.5-60.5-45.9-28.7-31.7-69.1-56-112.4-59.5-16.1-1.2-32.6 1.9-48.2-4.1-19.8-7.5-35-22.6-53-33.1-21.3-13.6-44.7-21.2-69.1-26.8 84.6-54.8 96.4 25.4 178.5 8 55.3-10.6 68.1 59.8 119.5 64.1 37.9 4.9 45.2 27.1 63.8 55.3 49.4 63.4 115.6 12.9 151.3 101.4.5 1.4 2.8 2.3 4.5 2.9 4.6-1.2.9-10.1.3-13.1-11.8-27.2-30.3-47.6-58.9-57.8 45.4-19.4 44 9.1 79.7 1.3 7.9-2.4 15.5-6.8 24.4-3 14.9 6.2 24.4 19.6 37.7 27.8 4.3 3.1 11.8.4 6.6-5-5.8-5.1-11.3-10-16.4-15.1zm-226.6-56.6c-6.6-9.2-10.2-20.4-20.7-27.6 38.4-3.3 65.6-51.7 103.5-25.3-19.5 6.1-28.4 22.9-39.8 37.6-9.1 12.1-22.2 20.5-37 23.9-1.3.3-4-5.7-6-8.6zm99.2-377.3c-11.9-30.3-8.6-80.2-39.3-98.4-22.3-9.6.5-15.7 4.4-42.5.3-2.2-2-6.8-4.1-8.4-16.4 9.3-14.4 40.7-39.3 22.7-3.3-2.1-2-2.9-.6-5.5 5.8-9 18.1-18.9 10-31.4-2.2-1.1-3.2 1-4.4 2.2-16.8 17.6-29.8 38.9-50 53.4-1.9 1.4-3.7 6.2-5.6 3.7-2.7-3.5-5.8-10.9-4.1-12.9 9-10.9 19.2-20.8 29.2-30.9 5.3-5.4-1.7-7.5-2.9-11-2.5-8.4-28 23.7-37.2 24.4.9-5.9-13-7.9-4-16 7.8-6.2 31.5-32.4 24.4-41.9-4.4-6.8-30.1 24.2-35.6 28-2.8 4-13.3-13.1-15.7-15.6-12.4-18-31.8-26.3-52.4-21.2-7.6 1.9-16.3 7-15.7 14.5.6 7 8.8 2 13.8 1.5 19.5.4 29.2 15.7 40.2 28.3 3.1 3.5 13.8 7.9.6 14.5-13.4 6.8-25.6 16.1-38.8 23.6-5.2 2.9-13.6 0-15.7 8.2-6.5 34.2 51.4-3.3 61.2-10.9 4.8-3 7.1-11.2 13.3-9.3 3.4 1 6.2 7.5 6.9 11.8.4 2.1-4.3 5.6-7.2 7.6-10.8 7.4-21.9 14.3-32.7 21.8-4 2.8-.9 6.3.7 9 6.5 8.6 31.7-11.8 39.6-15.1 3.2-1.8 5.9-8 9.9-4.8 3.4 2.8 10.6 7.8 4.8 12.9-13.7 12-27.8 24-43.4 33.4-8.5 5.1-4.3 9.8-2.7 13.7 8.8 12.7 44.7-25 55.3-30 1.2 5.6 5.2 14.5 3.2 16.2-12.6 10.6-26.1 20.1-40.3 28.5-8.9 5.2-5.5 12.1-3.6 17.1 2 6.2 8.6 3.5 12.9.6 12-7.8 23.8-16.2 35.2-24 2.2 18 4.5 36.7 6.7 55.4.2 1.9.7 3.9 2.1 4.6 9.4 1.7 9.7-44.2 8.1-51.5-1-7.1-3-17 .6-21.2 11.3-13.2 25-24.4 37.8-36.3 3.2-2.9 8.1-8.5 9.8-7.7 11.5 5.5 23.5 11.6 29.4 23.5 5.8 11.6 11.2 23.4 12.8 36.9 7.7 31.2 14.8 65.3 41.8 85.9 2.3 2 4.9 1.4 7.5.9-13.8-17.3-21.3-37.7-26.9-58.3zm-101-84.9c-5.6 5.2-11.6 10.1-17.8 14.6-1.7-5.2-6.5-10.8-2.2-15.7 6.5-7.6 13.9-14.3 22.1-19.9 4.8-3.2 9.4 2.6 13.4 4.8-5.2 5.6-10.2 11.1-15.5 16.2zm107.8-777.2c3.9 4.9-2.8 8.7-4.9 10.5-10.4 8.7-21.5 16.7-36.3 16.5-17 2-28.4-7.1-37.7-19.8-7.4-10.2 3.3-32.3 16.8-36.4 11.8-3.8 24.5-3.8 36.2.1 9.2 1.5 6.6 12.4-2.8 8.3-13.2-5.9-25.5-2-36.3 6-7.6 5.7-1.4 20 8.4 25.9 18.9 11.5 32.1-1.8 46.5-9.4 3.8-2 7.5-4.9 10.1-1.7zM720.6 1046c2.9 11.2-43.8 14.3-52.6 26.5-10.9 5.8-12.1-26.8 11-29.8 8.9-1.5 41.2-5.3 41.6 3.3zM554 1572.6c1.5 4.8 6.5 23.5.6 24.7-3.5-.1-4.9-5.4-5.5-8.4-5.3-27.8-22.3-46.2-46-60.4-44.9-27.7-102.3 17.3-139.6-31.1-18.3-17.9-46.8-18-70.9-20.4-20.6-2.2-35.8 7.7-46.8 23.3-41.4 60.5-116 12.7-171.7 44.1-14.7 5.8-64.2 29.8-72.8 11.8 2.2-6.3 7.9-1.9 9.3-2.6 56.2-10.2 91.1-42.4 152.4-32.3 82.1 13.7 66.7-64.3 136.8-54.3 34.6.9 67.7 14.7 91.5 40 2.6 2.4 7.2 3.2 11 3.6 19.1 2.4 37.8-1.7 56.8-3.4 41-2.8 80.6 27.7 94.9 65.4z"/></g></g><g id="Layer_1_2_"><g><path d="M52 1548v15l-37 37h946l-37-37v-15H52M52 52V37.7L14.3 0H0v1600h15l37-37V52m872 0V37.7L961.7 0H14.3L52 37.7V52h872m52-52h-14.3L924 37.7V1563l37 37h15V0z" id="Layer0_0_FILL_1_"/></g><g><path id="Layer0_0_1_STROKES_1_" d="M961 1600h15V0h-14.3L924 37.7V1563l37 37H0V0H961.7M52 52V37.7L14.3 0m.7 1600l37-37V52h872m0 1496H52" fill="none" stroke="#333" stroke-width="2" stroke-linecap="square" stroke-miterlimit="3"/></g></g></svg>