<svg version="1.1" id="Layer_1" xmlns="http://www.w3.org/2000/svg" xmlns:xlink="http://www.w3.org/1999/xlink" x="0" y="0" viewBox="0 0 976 1600" xml:space="preserve"><style>.st2{fill:#333}</style><path d="M960 22v1556c0 3.3-2.7 6-6 6H22c-3.3 0-6-2.7-6-6V22c0-3.3 2.7-6 6-6h932c3.3 0 6 2.7 6 6z" fill="#fff" id="Paper_Backing"/><g id="Wikipedia_Cropped"><defs><path id="SVGID_1_" d="M960 22v1556c0 3.3-2.7 6-6 6H22c-3.3 0-6-2.7-6-6V22c0-3.3 2.7-6 6-6h932c3.3 0 6 2.7 6 6z"/></defs><clipPath id="SVGID_2_"><use xlink:href="#SVGID_1_" overflow="visible"/></clipPath><g clip-path="url(#SVGID_2_)"><path class="st2" d="M613.7 1502.6c-21.4-14.4 3.1-66.4 19.3-73.4 5.7 3 8.8-.3 13.7-2.4 20.8 29.9-9.9 67.4-33 75.8zm200.6-61.1c-29.8-5.3-49.1-28.7-58.9-53.1-7.8-15.8-11-23.9 6.9-32.7 30.4.1 82.4 66.4 52 85.8zm-582-198.8c-28.2-30.4 23.3-82.8 57.1-81.7 33.7 27.9-25 77.6-57.1 81.7zm608.2-91.9c-77.9-4.4 8.2-58 43.8-39.5 24.4 12.9-28.5 43.7-43.8 39.5zM255.9 997.5c-18.9.6-39.5-5.7-53.1-15.5-41.1-25.1 5.1-40.2 32.4-39.1 35.7 5 85.9 53.3 20.7 54.6zm564.3-46c-68.1-2.7-37.3-38.8 12.5-39.8 9.2.2 51.1 5.4 38.5 19.9-14.3 13.4-31 19.9-51 19.9zm20.4-144.2c-27.3.2-71.8-39.3-43.4-61.6 22.8-6.4 59.5 45.4 43.4 61.6zm-540.5-39.8c-65.1 3.2-27.3-39.7 10.5-40.9 63 3.5 39.5 41.6-10.5 40.9zm-207.8-47c-71.6-8.7 21.6-59.4 53.3-42.7 22.7 28.7-34.5 44.2-53.3 42.7zm825.9-11.2c-29.5-3.5-56.8-26.6-58.3-55 21.3-36 110 49.7 58.3 55zm-450.9-86.5c-24.3-3.3-45.4-28.5-47.8-54.3 1.5-5 9.4-1.5 10.3-7.5.5-2.2 2.8-3.3 5-3.2 20-2.7 65.5 64.2 32.5 65zM577.4 526c-25.8-.2-74.6-35.2-59.4-60.4 19.4-19.1 106 56.1 59.4 60.4zM159.1 300.7c-24.2-5.5-70.6-39.6-57.7-67.1 31.8-3.6 81.1 36 57.7 67.1zm719.4-1.6c-25.3-28.1 19.8-71.1 49-72.9 26.7 14.6-28.9 74.3-49 72.9zm-444-33.3c-28.2-19.8 2.7-68.3 33.3-75.8 11.6-3.9 14.3 7.7 11.5 17.1 3.5 33.4-15.2 51.2-44.8 58.7zm199.4-19.6c-26.1-1.1-50.1-14.2-62-36.9-8.2-17.1 21.8-18.6 32.6-20.7 22.8 3.6 47.1 15.7 47.4 37.3-3.4 3.5.3 6.9 1 10.4-2 7-11.9 9.6-19 9.9zm152.8-16.5c-27.1-18.5-6.7-77.7 23.1-85.3 31.9 17.7 7.5 73.7-23.1 85.3zM0 1604c-7.6-2.8-7.5-201.2 0-204 4.3-.9 7.9 3.2 12 .7 5.1-3.1 11.1 1 14-4.8 29-19 67.6-31.9 97.1-48.8 16.7-.4 20.8-22.1 32-32.6 44.3-57.6 86.8-44.4 142-35.4 8.4-.3 3.9-10.9 11.9-13.4 23.6-6.4 49.5-39 73-26.9 52.4 34.3-17.7 31-1.5 57 13 21 26.1 31.3 46 36.5 4.6 11.6-3 27.6 3.3 39.5 13.5 19.6-18.1 22.8-26.1 32.7-20.9 31-54 44.5-86.2 59.9-30.4 28.8-65.6 47.7-96.5 74.6-17.3 11.8-33 30.1-50.3 40.2-7.6-.3-5.3 8.3-11.6 11.6-3 2-2.6 5.6-1.7 8.6 2 12.7-153.4.5-157.4 4.6zm456.8-400.5c-10.3-1.5-24.1-7.8-8-18.1 8.9-3.3 12.2-33.9 23.8-26.1 8.5 4.2 13.7 11.3 4.8 18.3-9.7 7.2-9.1 23.1-20.6 25.9zm34.8-224.1c-9.3-8.3-8.9-25.5-20.8-35.6-12.9-13.1 17.8-39.7-3.8-48.6-39.6-30.1 16.9-62-24.1-107.4-23.2-16.3-47.1-39.2-67-61.2-7.2-13.3-57.5-43.3-29.5-53 7.4-1.5 11.2-8.2 5.2-13.7-11.4-13.6 14.7-32.2 26.8-22.8 21.7 12.4 34.2 27.4 56.2 37.7 22.5 15.2 43.9 35 71.5 35.8 6.4 1.9 11.1-1.1 11.9-7.7 12.8-14.2 27.4-28.8 43.5-39.4 4.4-.8 3.1-7.2 7.4-7.7 9.3-2.1 11.7-16 23.2-15.5 11 .7 23.9 10 17 21.6-1.8 4.8-1.5 10.1.7 14.7 7.4 19.1-16.9 34.7-28.2 46.3-12 17-24.5 37.3-37.3 54.4-7.5 11.5 11.6 25.8 10.3 40.6 1.2 5.1-5.5 9-.8 13.5 9 9.6 9.1 21.5 12.5 32.7-.9 25.5 9.2 54.8-7.2 79.5-6.6 6.8 4.3 15.5-5.5 23.2-6.7 6.7-11.6-1.1-19.8-.4-16.6-.3-34.3 7.5-42.2 13z"/><path d="M494.3 1418.3c-11.8-7.9-7.2-44.6-37.1-28.9-21.9 22.8-34.6-30.4-28.2-48 3.8-9.6-8-9.8-14.1-12.3-20.8-10.3-35.4-28.5-36.7-46 7.2-7.9 26.5-8.6 26.2-21.7-2.4-14.8-20.3-18.3-27.9-27.2 12.4-29.7 54.3-41.8 82.4-29.1 14-9.8 17.6-49.2 44-31 19.5-3 21.9.1 32.4 15 39.7 13.7-29.3 92.4 11.1 80.1 69.8-18.1 18.4 38.3 47.1 39.2 41.7 13.2 61.9-38.3 70.5 4.6 19.6 58.3-42 12.4-26.9 61.3 4.4 11.5-1.7 13.6-9.7 14-20.7 5-37.3 2.6-58.8-8.3-13.9-9.3-25.3 34.8-71.6 38-1 .2-1.8.3-2.7.3zm28.6-101.3c22.4-2.7 26.4-21.2 14.5-37.7-.2-10.2-7.5-8-14.7-8.3-14.5-5.6-28 7.8-29.5 21.9-2.6 7.9 10.8 11.1 11.5 17.9 3 6 12.9 4.1 18.2 6.2zm249-183.2c-19.2-17.7-56.9 4.9-52.4-13.7 8.2-20-11.1-34.1-13.9-50.4 3.1-5.5 7.4-9.6 2.3-15.4.1-11.8-14.9-19.5-25-14.5-10.4 4.1-9.8 16.6-11.8 26.1 2.7 7.4 16.2 3.5 19.9 11.6-10 16.9-34.1 8.3-34.5-10.4-16.7-6.3-43.3 22.5-45.8 36.9-5.7 15.4-26.1-5-37.1.7-8.8-.8-5.3-7.6-8-11.3-2.6-6.9-9-9.3-7.2-19.2 7.5-14.6 27.8-12.4 30.9-33.8.9-4.4 5-7 11-7 7.8 2.2 15.2-1.8 11.1-10.4-3.7-19.6-2-51.7 17.4-62.4 6 .2 16.6 10.3 22.3 9.3 6.9 5.3 18.6-27.5 30.5-26 22.3 2.1 33.7 24.1 49.4 38.9 15.6-6.5 34.3-4.1 49.5 2.1 33 9.8-22.8 38 12.6 46.1 39.6 2.5 4.3 51.8-20.2 53.5-14.6 9.5 12.3 39.8-1 49.3zm.8-414.4c-24.5 3-45.2-31-52.2-21.9-11.2 13.2-28 18.2-43.5 21.5-15.4-1-11.3-29.5-30.7-27.1-25.9 12.8-34.2 1.8-35.3-25.2-1.1-6.5 6.1-18.6-3.3-21.2-14.8-4.1-33.5-22.8-33.1-40.6 8.4-3.7 18.8-9.6 19.5-18.7 4.3-11-28.8-25-6-34.2 14.3-16.4 38.7-8.5 57.3-12.1 3.5-2 6-6.3 8.1-13.8 3.2-14.5 29.2-51.1 42.8-30.6 23.7 39.9 33.3-32.9 57.4-1.5 22.2 15.1 2.9 49 36.3 39.6 57.9 6.8 12.9 19.4 23.4 42.6 4.4 3.3 14.1 3 20.3 2 20.1 5.9 5.5 35.5-6.7 42-2.1 1.1-4.3 2.5-4.7 5 7.7 16 11.7 32.3 7.2 46.5-2 10.7-7.4 12.7-12 12.7-55.9-22.5-7.4 33.1-44.8 35zm-56.3-144.2c-14.4 2.9-24.5 16-23.6 30.7-1.5 4.5 3.1 6.3 4.7 9.8 2.6 9.3 12.9 9.7 20.9 12.8 12.2-3.5 25.5-8.2 27-22.1 1-18.3-11.8-29.2-29-31.2zm-584.7 3.1c-15.9 4.3-9.9-27.5-18.9-32.1-5.1-4.8-15.4 3.4-24.2 4.2-19.3-8.6-7.2-39.3 0-57.1 3.3-6.8-4.9-8.7-9.3-10.6-14.9-9-24.9-22.3-29.8-39.4-2.9-4.1 4.9-10.5 12.3-13.1 24.3-11.4-11.8-25-9.2-37.7 9.9-35 51.8-12.5 61.5-26.2 2.6-17.9 13.3-33.7 29.1-39.2 10.7 3 12 20.5 23 23.2 4.2-.4 6.5-3.2 9-7.8 19.1-36.1 35.3 8.9 40.8 26.6 4.2 7.8 15.4 1.1 22.4 3.7 11.1 2.4 44.2 10.2 34 28.2-16.5 31.4 24.5 17.2 22.9 37.1-9.3 55-28 37.5-65.3 27.9-12.4-1.1-4.3 12.3-7.2 19.7-5.6 14-22.2 18.8-32.7 8.4-23.1 12-13.5 44.1-10.4 62.7-15.9 5.7-29.8 19.6-48 21.5zm37.1-160.7c-32.5 1.3-25.8 44.7-.8 51.6 36.4-3.3 28.7-41.2.8-51.6zm446.1 18.1c-34.7-5.1 12.8-44.5 6.3-59.9-13.7-11.2-41.3-48.2-18.4-59.9 9 2.5 26.2.6 26-10.8.3-7-10.7-21.5-8.1-27 18.6-15.6 44.8.6 62.2 8 10.8-12.4 16.1-28.4 35.8-37.3 16.4-9 16.6 22 33.1 19.7 9.6.9 19.8-21.5 26.5-2.6 8 10 2.3 36.3 16.2 38.2 19.4-2.8 44.4 2.3 57.6 16.9-.5 8.5-13 21.9-7.8 28.4 1.9 10 21.1 7.3 27.5 15.4-.5 18.9-19.3 37.1-37.6 36-59.1 2.5-16.3-29.5-54.6-41.1-33.2 25-12.3 31.5-48.7 1.7-6.9-7.7-24.5 10.8-28.8 16.3-5.6 9.2-11.4 16.6-10.8 28.7-2.1 20.8-36.1-7.7-61.2 22.5-4.9 4.3-10.2 6.7-15.2 6.8z" fill="#ff8db6"/><path d="M719.1 1476c-25.6-1.6-29.7-37-2.7-36.7 23.2-2 29.4 35.9 2.7 36.7zm91.1-137.6c-34.2-5.9-6.3-51.4 18.6-30.6 11.5 14.7.6 35.1-18.6 30.6zm-112.4-17.2c-16.6-.2-32.2-14.9-39.4-28-10.3-8.7-29.9 28-67.3 13.1-18.2-6.2 4.6-22.9-6.2-33.4-7.4-9.7-21.9-9.7-32.5-4.7-29.2-13.6 5.1-49.4-.8-65.7-13-7.5-16-22.1-24.8-31.6-18.1 3.3-39-1.1-54.4-12.8-9.9-7.4-20.7 36.9-51.1 43.2-43.4 10.2 3-54.6-55.9-20.2-20.3-4.7-11.5-41-14.7-56.1-1.1-1.3-2.7-2-4.3-2.1-14.8 2.7-64.6-26.7-41.9-43.8 23.3-9.2 21.1-19.4.3-29.9-26.3-19.2 28.7-44.6 46.8-35.8 11.8-1.7-2.7-31 11.2-46.6 22.9-61.2 50 23.8 70.4-28.3 1.9-4.7 4.9-5.7 7.1-5.7 22.4 6 39.2 21 45.8 40.4 6.3 9.9 46.7-17.1 70.7 1 18 9.9-19.3 37 6.1 41 43.7-5.5 28.6 41.2-3.7 53.4-3.9 1.6-4.6 6.9-1.8 9.8 18.6 40.2 6.1 19.9 49.8 32.2 8.2-16.7 22.4-38.5 41.9-41.6 10 3.3 15 22.4 26.8 20.1 6.9 1.6 25-13.6 10.8-18-19.7-2.8-14.4-34.4 7.3-29.8 28.1 16.2 3.6 26.7 8.9 36.2 7.1 9.5 16.5 18.9 16.2 36.5-6.3 21.7 11.1 12.4 23.5 12 12-.6 45.3 11.6 34.4 27.9-41.6 41.3 66 24.2-20 76.6 7 19.5 14.7 40.7-.1 57-4.5 13-15.6 4.2-24 2.9-21.2-1.6-21.4 34.6-35.1 30.8zm-177.1-6.4c-27.1.8-36.9-43.1-5.6-43.8 28.3-1.3 39.2 43 5.6 43.8zm-338.8-193.7c-26.9-5.9-18-35.5 3-35.2 26.5.4 20 34.9-3 35.2zM714 903c-21.6-.3-18.3-38.8 3.6-37.5 27.3-1.4 22.1 41-3.6 37.5zm-494.6-84.3c-27.1 1.9-25.7-41.7-.1-39.7 26.8-.6 27.4 40.5.1 39.7zm44.2-108.3c-12.8-4.8-17.2-34-33.6-13.8-3.4 3.2-8.4 12.5-12.4 9-16-10.2-12.3-29.5-18.9-44-13.2-1.4-35.9-2.4-42.6-15.8-3.6-10.3 13.5-18.8 6.5-30-3.9-7.9-11.8-10-19.6-8.7-18.2-2.2-7.3-22.7 2.5-29.8 10.8-10.1 26.2-12 35.6-21.1-7.5-17.8-6.8-40.7 2.5-53.1 2.5-5.1 8.9-3.9 12.9-1.7 35.3 9 20.4-30.9 39-30.5 23-1.8 33.5 15.3 47.6 27 23.1-20.8 50.6-8.6 40.4-34.9-48.4-9.9-14.9-22.3-31.3-36.8-34.1-4.8-14.3-20.1-17.4-38.7-31-20 24.1-39.3 41.6-42.3 7.5-.9 4.4-9 6.4-14.1 33.8-74.4 38 9 69-24.2 13.3-37.3 52.6 28.8 50.8 43.8 10.6 10.7 36.4-.7 49.4 12.5 17.5 10.6-24.5 32.6 9.8 37 33.4 6-7.6 39.5-24.4 44.4-6.5 16.7-4 39-17.1 54.7-4.8 9.2-12.6 2.9-18.8.1-38.5 1.5-.7 40-54.6 22.3-6 33.8-8.2 41.7-31.7 65.3 5.9 10.8 34.1 39.9 12.4 47.9-7.9-1.9-16.4 4.9-18.6 10.9-4.1 5.6 3.8 16.7 3.7 21.6-15.8 17.4-38 6-55.8 2.5-9 14.3-14.3 35.2-33.3 40.5zM717.1 625c-28.9.7-26.4-48.4 1.5-45.9 32.4-.8 32.1 51.1-1.5 45.9zm116.8-71.8c-5.3 0-14 .1-12.8-7.2-1.8-11-19.3-12-28.6-13.3-6.9-1.7-16.8 6.8-22.5 1.1 2-13.7-5.4-21.3-3.8-30.8 4.3-6-.3-15.6-8.2-14.5-3.8-.6-4.1-6.4-8.7-5.9-5.3-1.3-12.1-9.9-15.4.2-14.5 32.6-26.3 24.3-46.5 4.4-12.8 5-24.2 14.9-28.8 28.4-1.4 4.6-5.2 4.8-5.9 4.8-57.3-35.9-2.5-31.8-10.4-58.2-2.1-7.3-15.6-7.9-18-15.1 2.5-19.9 24.7-31.6 42.5-31.6 34.9 7.8 19.8-6.5 31.6-28.7 32.8-42.5 22.6-21 55.6-3.4 13 2.1 15.5-18.5 24.9-20.8 21.6 1.9 14.6 33.9 27.7 40.6 18-2.9 49.2-.2 54.6 18.2-39.7 50.3 28.3 19.6 5.6 54.4-5.7 12.1-28.3 15.9-26 29.3 5.5 12 9.9 44.2-6.9 48.1zm-661.6-86.4c-23.5 1.9-35.2-46.5-5.1-45.8 24.6-1.4 35 46 5.1 45.8zm338.2-148.9c-24.3 1.4-29.7-36.9-3.4-39.1 25.2.7 29.4 38.5 3.4 39.1zm-190.6-63.1c-27.5 1.5-24.1-39.3 1-39.6 25.8 1 24.8 41.4-1 39.6z" fill="#d81e1e"/><path d="M933.2 684.9c-2.6-16-29.9-40.7-46.2-42.1-9.7-.8-19.2-2.5-28.9-3.2-9.4-.6-18.3-8.6-27.4-13.5-.3-.2 0-2.5.5-2.8 11.2-5.4 15.2-15.6 17.1-26.6 7.2-30.8-16.3-17-31.6-25.4-2.4-3.6-.1-9.2 3.5-12.5 6.6-6.7 19.2 4 24.6-3.5 6.1-13.5 8.5-27.6 4.6-42.4-1.1-4.4-7.5-10.8-1.4-13.5 12.5-5.6 20.6-15.1 28.1-25.6 5.9-8.3 1-18.5-9.1-21.1-39.5-11.6 31.5-25.9-15.9-51.2 11.5-3.2 20.8-16.4 25.8-26.8 19.8-43.3-62.5 8.6-6-68.8 3.5-5.6 9.3-1.6 13.5-3.4 24.2-10.5 43.6-25.9 50.5-52.8 6.4-25 1.9-28.3-14.8-24.8-28.1 5.2-57.4 33.7-54 63.4 3 11.6-4.3 16.9-9.6 22.9-2.2 2.5-8.8-2.3-13-4.8-16.4-9.8-34.1-8.9-52.2-6.9 0-11.4-2.1-22.7-6.2-33.4-2.4-6.2-6.8-11.2-5.5-19.3 3.7-21.6 57.3-24.6 49.3-81.2-1.6-9.2-4.2-18.7-12.3-24.4-7.4-5.2-12.6 1.9-18.6 5.2-18.3 10.1-31.3 40.4-30 60.9.8 11.7 8.7 22 3.7 35.3-6.7 17.7-25.1 26.8-34 6.6-12.2-23.9-21.1.1-37.1 1.4-5.8-1.6-10.7-6.5-16.1-9.9-9.5-6-23.9-4.9-27.1-19.9-11.4-33.1-56.9-49.1-87.8-25.4-3.9 3-5.5 6-3.7 10.8 12.6 31.3 56.4 57.4 88.3 38.9 2.3-1.4 3.1-6.1 7.2-4.4 6.3 2.7 13.1 4.7 18.7 8.4 6 4 20.4 5.4 8.6 18.3-1.2 1.3-.9 4.2-2.2 4.9-2.8 1.7-.4 11.6-7.6 5.9-16-12.6-33.6-17.4-53-11.4-5.5 1.7-18.2.7-12.9 13.9 2 5 5.5 9.5 6.5 14.6 9 15.7-2.8 12.5-14.6 15.4-6.5 2.2-16.1-.3-16.5 11.7-.8 23.3 11.2 39.6 27.2 54.3 1 .9 3.9 1.2 1.8 4-11.4 15.4-27.1 33.9-16.7 54.1 3.9 6.9 10.1 2.6 15.1 3.8 1.7.4 1.6 1.1 1.1 2.4-3.4 8.9 4.8 11.6 9.3 15.2 4.2 3.2 12.2 5.2 11.7 10 .5 11.6-22.5 15.4-18.6 27.3 5.8 11.1 13.3 21.6 25.2 26.9 9.3 4.2.6 9.8 1.7 14.7.4 3-5.2 1.4-6.6 1.2-21.2-5.3-40-1-57.4 12-12.1 9-12.8 13.5-1.7 22.8 9.9 8.2 9.3 20.8-1.2 26.8-13.6 7.7-14 14.1-3.8 27 3.2 4 12.1 8.2 7.7 14-5 6.6-13.8 10.2-20.4 15.8-15.4 13-30.2 26.5-45.7 39.4-7.1 5.9-14.1 13.9-24.9 10.4-15.1-4.8-27.5-14.8-40.5-23.4-23.5-15.4-46.1-32-69.2-47.8-2.2-1.5-2.4-2.7-2.5-5-.8-18.2-9.7-35.7-22.8-40.5 19.4-13.2 26-20.3 32-47.2.3-1.4 1.8-5.2 3.4-2.9 6.7 9.7 21.3 12.6 21.4 28.1 2.1 29.1 30.5 68.2 63.6 60.9 3.7-.8 6.5-2.1 4.5-7.8-1.7-4.8-2.6-9.8-2.6-14.8-.1-21.3-22.5-49.1-42.2-53-15.1-3-28.7-6.5-38-20.2 10.5-1.1 22.4 6 24.5-10.8 1.8-13.7 11.6-18.5 25.2-13.3 2.9 1.1 6.5 5 8.8 2.6 32.5-30.2 11.3-67.9 33.3-50.5 3.9 3 10.5 2.7 12 8 4 14.3 11.9 26.3 21.8 36.7 13.9 14.7 30.2 26.4 51.5 26.5 9.8 1.2 21.8-5.6 17.4-17.7-10.1-31.2-45.3-60.1-78.8-55.6-10.7 2.1-16.4-5.9-24.5-9.1-2.8-1.1-1.3-2.5.9-3.5 10-4.5 17-12.2 23.7-20.6 10.3-12.9 7.6-25.5-6.7-29-17.4-4.3-17.1-4.1-8.2-20.3 2.4-4.4 6.6-10.7-1.3-15-31-20-54.3-.1-53-21.3 0-3.1-3.4-6.4 1.8-7.8 8.8-2.8 17-8 25.9-10.1 6.8-1.6 13.5-10.2 21-3.1 17.9 19.6 48.3-3.4 38.4-26.5-11.7-28.5-52.9-19.4-47.8 11.1.6 3.9.7 5.6-3.3 6.9-10.7 3.7-21.2 8.3-32 11.3-2.9.8-7.1 5.8-10.3.5-8-13.2-18.7-23.6-32.8-30.7 7.1-6 12.9-14 20.6-16.6 40-9.4 65.9-31.9 56.5-75.3 2.2-27.6-30.6-6.4-41.7 2.1-20.5 14-26 34.4-24.3 56.2 1.5 19-18.5 23.1-26 36.4-4.2 7.5-5.3 17.6-16.3 15.7-21.9-4.7-22.8-32.1-31.9-48.7-.9-2.3-4.7-3.7-2.7-7.1 6.5-10.9 10.8-21.5.5-33.2-8.5-9.6-17.8-13.4-29.8-8.2-28 11.2-17.3 55 15.3 49.4 13.5-2.3 11.4 14.8 17.2 22.4 10.6 13.8-22.3 18-23.6 46.9-.1 3.6 1.6 10.6-4.8 10.6-16.6.2-29.7 9.5-43.6 16.3-11.4 5.9-22.1 17.9-36.3 11.7-5.7-2.3-15.7 5-16.7-7.9-3.6-29.1-42.1-48.5-51.2-88.4-6.2-38.3-77.1-57.1-74.2-34.3 6.4 37.5 41 66 76.8 70.4 5.5 5.9 21.1 11.4 6.5 23.9-19.6 28.8-16-15.5-37.4-10-14.6 5.3-21.8 18-27 32.3-1.3 4.2 2.3 13.7-6.6 11.9-10.8-2.1-21-1.3-31.6.1-15.8 2-25 11.9-28.7 25.4-2.6 9.8 7.6 16.9 14.2 22 8.1 6.3 4 7.1-1 11.1-6.5 5.1-18.2 9.3-14.7 19.4 6 17.6 16 33.3 34.4 41.3 2.2 1 5.8 4.4 5.6 4.6-9.9 18.3-18.5 44.7-3.8 62.3 6.3 7.2 13.8 1.8 20.9-1.3 13.4-5.9 11.8 12.9 13.7 21.1 1.6 7.7 9.5 14.3 17.4 10.8-7.6 18.5-11.6 26.2 12.1 27.9 3.2.3 6.2 1.6 8.7 3.6 15.8 12.6-15.4 25.6-5.9 32.9 13.6 10.5 28.1 18.5 46.6 17.7 6.9-.3 0 9.9 4.7 13.4.1 0-.8 1.9-1.2 1.9-40.8 5.8-46.8-10.2-82.9-10.3-29-3.1-85.3 45.1-31.7 53.1 56.1 13.5 56.3-30 97.7-35.7 7.1 0 16.6-.7 22.2 5.5 18.2 19.2 14.8 43.7 14 67.7-.6 4 .4 9.4-4.3 11.7-13.2 6.7-21.9 21.8-17.2 32.7 5.8 13.5 12.5 22.3 32.3 17.4 10.7-2.6 15.5-10.8 17.3-20.4 2.1-11.1-2.2-20-12.4-25.9-2.6-1.6-7.6-.8-7.5-6.2.1-19.6-.4-39.3.3-58.9.3-8 9.7-10.1 14-15.6 9.2 4 17.3 24.4 26.7 20.7 11.8-6.4 19.5-17 27.7-27.5 1.7-2.1.2-8.5 1.1-12.2.7-3.1 3.1-4.4 10.5.3 9.6 6 22.2 2.4 30.7 13.4 13.3 18.7 32.7 33.4 45.5 52-14.1.3-27.1-3.8-39.3-12.6-14.5-10.8-32.5-11.1-49.9-5.2-28.8 13-50.8 42-3.3 45.9 56.5 10 50.1-29.4 94.4-17.8 3.8.7 7.8-3.1 11.5 1.4 24.2 28.3 76.9 54.7 53 98.2-3.5 7.8-5 16.4-.1 25.2 9.2 16.6 16.1 34.1 15.1 53.8-.1 2.3.9 4.2-3.2 2.1-20.9-11.1-23.5-10-35.1 10.8-9 22.8-27.1-14.1-41-8.8-17.8 9.2-25.2 25.6-31.6 43.9-.8 7.5 8.9 26.5-11.8 17.1-19.5-8.5-40.9-11.2-56.7-30.8-19.3-24-46.8-38.1-79.7-22.7-8.9 4.2-20.8 7-23.8 16.3 1.6 17.7 28.6 32.2 44.8 38.6 19.3 7 37.8 7.6 57 .7 5.1-1.8 8.1-8.8 13.7-7.3 12.7 4.5 27.2 6.9 38.4 14.4-13.6 3.6-26.8 6.9-35.8 19.1-11.3 14.7-9.4 21.7 7.6 30.5 3.5 1.8 12.6 5.1 9 9.7-14 16.8-25.6 19.8-46.6 17.9-15 1.5-30 4.3-45 5.5-8.1.7-16.4 5-24.3-4-9.1-10.4-19.9-5-29.8 1.3-17.1 10.1-10.6 38.1 9.3 39.1 34.8 2.3 17.5-27.6 41.7-28.2 116.3-15.1 35-3.9 118.9 31.3-18.7 6.6-26.8 27.7-49.9 28.1-20.4-.5-36.1 11.9-50.6 26.1-16.3 16-20 34.7-16.9 55.8.4 2.5-.5 7.4 5.3 7.1 10-.2 19.8-2.5 28.9-6.5 29.4-13.2 46.8-34.6 51.5-66.5.8-5.3.7-10.2 7.2-14 11.5-6.6 21.5-15.8 33.6-25-5 7.3-.8 13.6-1.7 20.1-1 6.8 2.3 13.2 4.6 19.7 11 37.2 29.8-3.8 40.6 4.7 3.6 5.2 7.7 16 4.5 22.2-16.6 30.3-50.5 40.2-79.2 55.4-12.6 7-24.2 16.3-39.8 13.7-45.1-10.2-95.8-1.2-123.8 38.1-9.2 11-15.9 24.7-28.8 31.9-36.9 20.2-75.1 38.1-113 56.4-4.4 2.2-9.4 6-7.7 10.6 2.2 5.1 6.5-.1 9.8-1.4 5.7-2.8 8.8-.6 7.5 5.1-4.1 15.6 1.1 31.7 4.2 47 8.8 49.9 37.6 90.8 80.3 118 25.3 1.9-21.8-29.5-25.9-34.9-36.2-34.1-49.3-84.1-51-132.3.5-4.5-.9-10 3.7-12 11.1-4.6 23-12.2 34.4-14.8 8.3 11.6 17 23 24.1 35.4 10.7 18.9 20.7 38.2 30 57.8 9 19 16 39 33.9 52.2 3.4 2.5 6.8 5.6 10 1.8s-1.2-7-3.6-9.1c-22.9-19.9-30.2-49.1-43.3-74.4-44.9-90.3-72.4-51.2 7-93.3 2.4-1.2 2.2.5 2.1 1.7 1.9 30.5 54.7 20.2 73.2 12.1 2.9-1.1 9.4-7.6 10.4-.4 7.4 37.3 21.9 73.2 46.3 102.6 1.4 1.5 1.9 4.4 4.8 2.5s1.7-4 .4-6.3c-7.7-14.2-16.3-28-22.7-42.8-7.5-17.5-13.2-35.8-19.1-53.9-1.1-3.3-6-8.3-.1-11 21-9.6 37.3-24.9 51.6-42.4 1.9-2.3 7.6-5.8 3.9-9-4.3-3.7-7.7.3-9.5 5-14.4 14.7-30.2 28.2-48.9 37.8-20.4 10.2-41 18.5-64.2 16-9.4.5-21.8-6.7-15.2-17.6 20.6-28.3 39.8-62.2 78.1-68 12.7-4.3 34.3 5.7 20.8 19.3-13.5 12.5-26.1 26.4-45.3 30.7-2.7.6-6.1 3.9-7.9.9-4.9-8.4 17-20.3 22.1-26.7 1.8-1.5 4.7-2.8 2.8-5.2-5.6-6.5-25.6 14.4-30.6 18.8-13.4 14 1.2 29.8 16.7 21.3 16.9-5.5 30.4-16.5 43.4-28.3 11.9-10.8 14.1-19 5.4-32.7 10.8-.7 21 2.9 31.4 3.7 59.8.7 34.2 76.8 93.2 134.7 2.6 2.3 5.5.2 4.5-3.3-1-7.1-6.5-11.6-10.1-16.7-26-34.8-24.2-81.8-52.5-114.8-1.9-2-5.6-6.2.9-9.4 19.1-9.6 37.9-19.8 56.9-29.6 8.4-4.8 14.1 5.9 20.9 9.3 11 6.4 11.4 15.2 1 21.9-9.7 6.3-23.8 9.1-12.4 27.1 9.8 15.5 20.9 27.6 37.4 35.5 3.2 1.5 10.6-2 9.6 5-1.4 9.5-.2 18.8-.4 28.2-.1 7.1 12.2 14.7-.6 21.6-8.9 4.8-17.3 15.1-24.8-1.4-12.6-23.2-27.6-45.1-40.8-68-4.7-12.4-11.7-6.1-7.3 3.9 9.6 26.3 29.1 46.7 41.9 71 2.1 4 12.6 6.6 5 14-8 7.9-17.4 14.6-24.4 23.3-7.9 9.9-14.7 4.5-19.1-1-21.7-27.2-40.2-56.4-50.4-90.1-.8-2.7-2.2-5-4.7-4.6-12.4 8.4 10 45.7 15.8 55.3 39.6 72.9 64.9 36.9 1 70.5-18.4 12.3-31.2 31.9-52.2 40.8-4.2 1.8-7.1 9.3-11.8 5.9-19.2-14-34.9-31.7-50.2-49.8-14.9-17.7-24.8-38.8-37.6-57.9-1.9-7-9.1.1-5.9 4.6 20.2 39.3 44.1 76.9 79 104.9 2 1.6 8 2.8 5.6 6-4 5.2-9.9 9-15.1 13.2-15 12.1-29.9 24.3-45.2 36-5.5 4.2-8.6 18-19.7 4.3-7.7-9.4-20-14.9-28.3-24-20.4-22.1-32.5-49.4-44.9-76.5-1.7-3.7-4.6-8.3-8.6-7.3-3.5.9-.3 4.8.5 7.5 37.4 114.3 101.5 105 71.6 121.1-1.1.6-1 3-1.9 4.3s-2.8 2.9-.8 4.1c5.5 4.5 24.8-13.3 29.5-17.3 37.2-37.3 85.6-60 123.6-96 7.8-8.4 17.1-15.3 27.4-20.4 13.7-7 29.8-8.7 41.5-19.8 16.6-15.5 33.1-31 50.4-45.8 3.2-2.7 9-10.7 12.1-5.7 7.8 12.2 14.9 9 23.4 2.3 11.5-10.2 24.8.6 26.4 13.8 1.6 22.2 24.4 9.6 37.8 5.5 15.6-6.2 27.8-16.1 36.3-30.6 1.2-2.1 1.9-4 4.7-2.2 22.1 12.5 51.8 20.8 75.4 7.7 9.2-5.4 8.2 5.9 13.2 7.2 2.8.7 2.2 4.8 1.3 5.5-6.1 4.6-6.4 12.9-14.2 17.4-26.7 15.2-38.3 39.8-37.4 70.2 2.7 33.7 36 6.1 45.8-8.4 27.8-33.3-7.2-59.3 15.1-77.2 9.8 10.4 20.3 21.6 30.7 32.8 1.4 1.5 4.5 2.7 2.6 6-5.5 9.2-6 18.7.5 27.2 6.9 9.1 17.8 11.6 28.3 12 9.6.3 20.2-15.6 19.1-26.2-1.1-11.6-14-21.5-24.9-22.1-6.2-.3-12.5 5.4-19.4-2.1-16.6-18.2-34.8-34.9-52-52.5-6.1-6.2-8-15.3-5-23.4 4.4-11.8 27.8 1.1 31.1-11 1.3-4.7.3-9.9.1-14.9-.2-4.6-9.6-16.2 6.4-7.6 8.8 4.7 19 4 28.6 5.7 14.7 2.7 22.5 16.6 33.8 24.9 8.4 3.3-5.6 9.2 3.8 28 11.3 25.8 24 50.4 53.6 61.2 14.6 5.3 28.3-.9 27.9-16.1-2.9-29.2-20.5-57.1-46.8-70.3-9.9-6-21.3-3.9-30.3-9.5-7.8-4.9-14.2-12.1-21.5-18-4.1-3.3-11.4-5-12.6-8.8-3-9.9 3.9-17.4 11.6-22.1 15.5-10 19.6 15.1 29.3 2.3 5.3-12.5 11-15.2 19.6-3.1 4 5.7 14.2 7.8 13 15.7-6.1 25 22 43.2 41.8 28.6 22.7-12.1 3.4-52.3-19.6-43.2-10.8 4-17.7 3.8-24.9-4.8-4.6-6.9-22.1-10.6-16.8-20.7 4.3-9.3-2.7-34.9-11.6-41.1 20.2-3.4 34.7-19.6 40.6-37.9 2-11-10.3-6.7-14.6-11.4s-15.6-5.2-9.9-15.8c24-42.7 79 19 115.2-35.7 8-11.3 7.8-16.8-4.6-22.3-21.7-9.4-46.8-3.8-67 6.9-11.2 5.4-12.2 20.6-24.6 24.4-7.5 4.4-12.4 2-12.2-7 .8-10.3-1-20.4-3.5-30.5-13.7-23.9 13.7-4.3 34.5-43.1 10-16.8 6.3-26.4-10.8-32.9-5-1.9-15.1 0-13.8-10.1.6-4.6 4.1-8.9 6.2-13.3 2.1-4.6 9-8.9 2.3-14.4-15-13.1-35.3-15.7-54.5-14 7.8-8.9 18.6-15.8 28.2-22.8 2.9-1.9 6.9-5.9 11.5-3.5 30.3 14.2 68.8 12.3 92.3-13.9 16-15-12.1-20.7-23-24-22.8-7.8-43.5-2.6-63.5 8-16.7 8.8-24.3 27.7-41 37.1-5.4 2.9-9.8 7.3-12.8 12.6-7.8 15.2-15.3-17.2-25.4-18.5-3.8-1.7-2.8-4-2.2-6.3 1.7-6.7 2.8-13.8 5.8-20 2.8-5.5.2-15.8 9.2-15.9 18.6-.3 25.5-23 19.4-35.3-20.4-27.3-53.4-6.5-42.3 24.7 2.2 5 9.4 6.7 8.6 11.7-1.4 8.2-5.4 15.9-7.6 23.9-1.7 6-2.1 10.5-11 7-31.5-14.2-11.3 32.7-49.3 20.3-4-1.7-5.7-9.9-12.3-5.4-18.5 12.8-25.7 46.5-17.9 68.8 1 3 .9 4-2.3 3.8-4.3-.3-7.7 1.3-9.6-6.1-2.3-9-13.1-8.4-21.3-10.1-6.7-1.3-21.8 3.6-13.4-13 3.7-7.4 6.9-14.7 4.8-22.8-.7-2.9-6.8-6.9-6.6-7.2 6.1-7.4 3.7-16.9 6.9-24.8 18.8-43.9 2.4-91.4-9-134.9-2.3-9.9-13-18.8-7.4-29.3 16.5-29.5 40.9-60 63.6-82.6 9 27.4 36.7-22.2 47.3 15.9 1.2 4.7 2 12.5 7.7 12.7 44.6 2.2 51.1-34.5 60.2-20.4 9.5 11.6 23 17.4 37.8 19.8 7.4 1.2 17.8 15.3 16.6 22.7-5.2 33.9 22.4 61.3 53.9 66.1 24.8 7.3 9.4-23.8 6.2-35.8-8.7-24.3-27.2-35.1-51.8-38.4-5.8-.8-6.2-8.8-8.3-13.7-.8-1.9 4-4.5 7.5-4.2 2.4.2 1.5-1.2 1.7-2.4 4-9.6-8.5-31.4 3.3-33.9 12.3-3.5 28.6 12.9 35.2-4.8 5.7-14.2 6.8-30.4-.3-44.2 44.3 16.1 6 32.2 54.8 67.1 7.5 5.4 17.8 7 26.9 10.1 19 6.9 30.2-11.8 20.3-27.4zM886 255.1c10.8-12.5 26.5-25.2 43.7-24.1.8 29.8-22.7 55.1-51.2 64.2 12.6-13.7 23.9-25.9 35.3-38.1 6.5-22-35.3 26.4-38.8 31.9.2-14.1 3.6-24.9 11-33.9zm-238.9-17.3c-23.3 13.9-60.9-8.2-71.7-30.4-5-9 6.6-8.2 10.5-10.7 23.2-10.6 54 3.2 62.8 26.6-11.2-.4-49.1-22.5-55.3-11.5-.7 3.9 4.6 4.1 6.9 4.8 3.7.9 56.4 18.4 46.8 21.2zM423.4 569.4c13.2 8.6 23.8 19.9 33.4 32.1 1.3 1.7 3.4 4.3 5.5 2.4 2.6-10.5-22.7-32.5-28.6-42 22 2 38 31.7 41.2 52.4.2 1.3-.3 4-.6 4-26.5 2.8-47.2-25.2-50.9-48.9zm93.9-93.8c1.1 0 2.4-.5 3.2 0 16.9 10 32.9 21.4 48 34 30.2 8.8-38.1-41.1-46.6-43 31.2 3 52.5 21 64.6 47.5.8 1.8.8 5.9.4 6-3.5 1-7.4 2.2-11 1.8-27.3-3.6-48.5-22.4-58.6-46.3zm-9.5-192.9c18.8 1.7 24 30.1 2.8 31.2-19.9 1.1-24.1-29.7-2.8-31.2zm-71.4-64.4c7.9-11 19-21 32.4-24.5 11.8-3.1 6.1 9.3 6.5 13 4.1 28.3-13 48.2-40.8 55 5.3-8.8 36.4-47.3 28.4-52.3-2.5-1.1-4.9 1.3-6.5 3.7-9.4 13.6-18.8 27.1-28.9 41.7 1.1-13.7 1.9-26.8 8.9-36.6zm-114.8 32.4c-22.6 2.9-22.6-28.4-2.3-31.4 7.3-1.4 17.6 8.1 17.5 15.9-1.4 7.7-5.5 15-15.2 15.5zm-200.6 7c14.7 10.8 26.7 24.3 38.1 38.9-28.1-8.8-52.5-30-57.7-59.1 30.5-.3 53.8 17.8 61.4 48.5-5.8-6.2-39.3-41.4-44.7-35.6-3.2 3.7.3 5.4 2.9 7.3zm-18.9 458.2c-9 1-20.6 1.7-29.8-4.8-2.4-1.7-4.6-3.6-2.7-5.7 10.7-11.4 21.5-22 38.6-24.8 12.2-2 23.7-1.1 36.7 1.2-13.7 5.3-27.8 4.8-40 11.2-4.6 3.4-18.2 5.5-16.7 12.6 1.7 3.8 3.6-.1 5.1-.5 18.1-5.8 36.5-10.2 55.2-13.4-10.7 16.8-28.7 22.1-46.4 24.2zm175 45.4c-14.5-1.4-9.4-8.6-1.8-15.7 19.1-19.3 43.3-17.5 67.1-7.4-6.4-.1-73.6 9.1-50.1 14.9 18-1.9 36-3.8 54.6-5.8-21.2 17.6-45 18.4-69.8 14zm6.9 216.5c-11-1.5-66.9-19.7-71-10.3-.7 3.9 3.5 5 5.3 5.3 21.9 3.3 42.9 7.3 63.7 15.4-32 13.2-72.1 2.7-92.7-25-1.9-2.3 1.2-3.5 3.3-4.7 13.2-7.1 26.4-13.3 42.1-11.4 17 2 29 12.9 41.9 22.3 3.3 2.1 7.8 3.8 7.4 8.4zm-85.4 125.3c-.7 9.1-9 11.8-16.8 14-18.9-3.1-14.8-28.3 3.3-27.2 7.7.1 14.2 5 13.5 13.2zm84.5 103.5c-12.7 16.7-30.7 27.3-50.8 32-.7.2-3-2.2-3.1-3.6-5.6-34.7 26.4-67.9 60.1-70.1-6 2.6-68.5 66-40.8 55.3C263.7 1203 277 1185 297 1173c-1.8 12.7-6.1 23.6-13.9 33.6zM616.6 1498c-1 .7-3.7.9-3.9.5-1.3-3-3.3-6.2-3.1-9.2.9-18.3 4.8-35.6 17.6-49.8 2.1-2.4 4.1-7.4 6.8-5.9 3.6 2.1-.4 6.5-1.6 9-1.8 4-16.2 36.9-9.4 36.7 2.1.3 3.4 0 4.4-2.5 6.2-15.5 12.8-30.9 19.1-45.9 9.4 30.6-6.9 50.3-29.9 67.1zm99.5-54.7c18.4-2.2 24.2 28.1 2.9 28.7-18.5-1.3-26.3-27.9-2.9-28.7zm37.3-77.8c14.5 15.3 27.3 30.3 41.5 44.5 2.3 2.1 2.8 8.6 7.3 5.1s-.3-7.4-2.4-10.6c-9.8-17.2-25.7-29.6-37.1-44.7 22.5 3.7 40.5 23 49.5 43.6 3.8 9.6 9.8 19.7 6.4 30.4-2.5 7.8-9.9 1.4-13.5.5-26.6-5.7-50.4-43.2-51.7-68.8zm60.8-58.3c10.7-.9 15.4 4.7 14.7 15.3 1.4 14.1-11 11.1-17.5 11.9-17.6-.3-18.9-27 2.8-27.2zm45.1-182.5c-2.1-2-4.4-.6-6.7-.5-13.5.8-26.8 3.9-39.3 9 18.1-20.4 45.1-24.6 70.1-17.9 8 1.7 1.2 7.9.5 8.9-16 24.5-45 26.1-70.8 18 13.5-5.8 27.6-8.4 41.7-11.2 2.2-.4 4.2-2.4 6.1-3.8-.4-.9-.9-1.7-1.6-2.5zm-41.9-207.5c18.6-4 36.4-.3 53 8.8-21 23.5-49.9 24.8-79.8 17.5 17.9-6.7 33.4-10.3 52-10.5 6.3-.8 4.9-9.1-1.3-8.2-20.6-1.8-39.6 5.1-58.8 9.6 9.8-8.8 21.9-14.8 34.9-17.2zm-114-31.8c-.8-20.3 28.2-20.8 28.3-4.5-.3 9.4-2.5 18.3-16 18.1-9 1-12.4-6.2-12.3-13.6zm88.5-129.5c4.8 12.4 16 18 22.5 27.6 5.5 6.4 12.9-.6 6.1-6-8.3-8.8-17.2-17-23.1-27.7 24.5-2.1 39.3 27.1 43.7 50.4 1.4 3.8.1 3.4-2.7 2.9-26.6-4.6-45.1-20.7-46.5-47.2zM786.1 171c10-14.4 27.7-37.5 32.6-8.1 7.4 25.4-10.1 49.6-31.9 62.9 7-18.6 11.8-36.5 21.1-52.5 2.1-3.6.8-6-1.3-7.6-6.9-5.1-24.5 44.6-26.3 51.1-4.5-8.8-.9-37.3 5.8-45.8zM608.8 429.7c-9.8-6.9 14.6-39.1 18.9-47.8 7.1-7.6-35.3-26-28.2-59.3 1.1-4.8 6.8-1.6 10.3-1.4 27.7-1.2 26.3-18.3 16.1-35.8-4-6.3-.5-7.5 3.8-8.2 20-3.1 37.5 1.1 51.7 16.8 9.7 5.8 6.3-25.8 39.3-41.8 10.3-6.7 11.7 17.6 25.8 19.4 17 6.3 23.1-19.8 28.1-4.5 4 11.1 8.1 22.2 8.6 34.4.2 6.4 6.9 8.1 11.2 6.7 10.6-3.6 20.5.5 30.4 1.8 7.1.9 13.7 5.9 20.5 9.2 2.5 1.2 4.5 2.4 1.9 6-14.5 20.2-7.8 34.8 15.1 38.3 9.6 1.4 6.2 6 3.4 10.8-12.4 21.3-20.7 25-46.9 20.8-9.4 1.1-13.3-.4-16.2-11.1-6.6-19.5 10.5-15.3 20.3-23.8-1.3-6.3-11.1-5.1-15.3-2.7-8.2 4.6-14.8 7.7-22.9-1.4-9.8-10.8-23.5 23.8-31.1 20.3-1.2-1.2-2.4-2.9-.8-5.6 7.9-13 15.2-26.4 23.1-39.5 2.1-3.4 2.3-6.6-.6-8.5-3.2-2.1-4.3 1.7-5.6 3.7-8.7 13.5-17.7 26.8-27.3 39.7-1.6-1.8-2.7-3.7-4.4-4.6-10.4-5.8-3.2-14.2-2.7-21.1s3.8-13.3 5.7-20c.7-2.5-.2-5.1-2.9-5.4-3.5-.5-7.7-.9-8.9 3.8-3.2 12.4-3.5 25.5-9.4 38.7-6.6-13.1-11.7-25.8-20-37.5-1.7-2.5-1.8-8.4-6.2-6.3-4.7 2.2-1.3 7.6 0 10.5 5.5 12.4 11.8 24.3 17.9 36.4 2.1 4.2-2.8 4-3.9 6.2-.5 1.1-1.9 3.1-4.7 1-11.8-9-23.9-17.5-36-25.9-6.1-5.5-11.9 2.2-4.3 6.3 10.6 7.7 21.2 15.3 31.8 23 8.2 4.9 2.6 12.4-5.6 9.1-12.2-2.3-24.5-2.1-36.7-1.5-1.5.1-3.5.4-2.8 2.4.8 6.7 28.6 5.3 35.5 7.4 2.9.4 9-1.7 4.6 5.7-3.6 4.7 1.7 20.1-8.5 16.5-38.8-13.8-53.7 29.2-72.1 18.8zm39.6 84.5c-8-5.4-14.4-12.9-18.5-21.6-.5-.9 2.6-4.2 4.6-5.6 17.8-11 17.2-30.9-3.4-38.1-4-2.1-3.6-4.2-1.8-7.2 13.4-25.2 40.1-23.9 64.8-19 5.2 1.4 3-4.3 2.7-6.3-3.3-20.6 7.3-34.4 22.1-46.2 4.5-3.6 4.8-3.2 5.2-5.7 15.1 13.8 30.7 37.5 49.4 10.3 1.8-3.1 2.5-9.3 6.4-8.1 4.3 1.4 8.7 5.8 10.6 10 3.3 7.1 5.4 14.6 6.2 22.4.1 18.4 29.1-2.8 54.3 15.1 15.1 9.9-1.9 14.5-4.3 20.7-14.4 34.1 35.4 15.3 17 38.5-7.1 9-16.6 15.1-25.5 22-8.4 6.4 1.7 12.2 2.1 18.5.7 11.1 2.2 22.1-1.7 32.6-1.7 4.6-7 2-10.8 2.5-7.1.2 5.2-11.8-20.7-17.6-10.4-3.8-21.7-3.2-32.4.9-.3.1-1.4-.7-1.4-.8 2.8-9.2-1-17.5-4.1-25.6 7 4.5 13.9 8.9 20.9 13.2.8.5 1.1 4 3.4.8 1.3-1.9 2.5-3 .3-4.8-7.3-6.4-14.7-12.8-22.6-19.7 13.7 2 26.3 5 39.8 5.8 2.6-.4 2.4-5 .5-5.8-18.5-4.7-33.1-9-53-10.5 8.7-5 59-17.5 53.4-24.3-4.8-6-51.8 16-63.3 18.4 11.1-10.5 34.7-33.4 35.5-47.4.1-.7-1.3-2.4-1.5-2.3-1.7.5-4.2 1-4.9 2.3-7.4 14.5-20.2 24.6-31 39.4.2-12.3 8.2-46.3-.4-51.7-9.6 15.1-5.1 32.6-7.5 50.7-8.2-9.7-15.7-18.6-23.4-27.4-1.4-1.6-3.2-5-5.7-2.6-5.8 4.6 14.6 23.7 17.7 30-10.8-1.5-21.1-2.7-31.3-4.5-3.2-.6-4 1.4-4.7 2.9-1.3 9.8 32.3 9.7 39.3 12.1-4.3 7-6.9 17.5-15.3 20.3-14.7 3.8-16.2-15.4-26.9-18.9-14.4 6.6-28.2 16.5-33.7 32.7-1.4 4.2-5.1.5-6.4-.4zM271.7 369.7c14.4-8.9 28.4-19.2 46.2-20.6 9.3-.7 7.8-7.8 8.1-13.3 3.2-13.9 11.7-25.9 23.8-33.4 8.3-3.6 12.3 27.4 38.5 13.3 13.2-7.8 6.4-26.3 23.5-10.3 30.7 18.3 21.1 58.7 35.3 54.5 14.7-2.2 29.2-1.6 42.7 6.8 8 5-.6 8-1.5 9.9-8.5 18.2-4.2 25 12.8 27.6 20.1 3.1 5.1 12.4 2.7 16.4-7.1 11.6-19.8 16.7-31.8 22-3.1 1.4-3.5 2.8-3 4.9 4.4 18.8-4 34.5-12.4 49.9-3.8 7-9.4-.9-13.6-1.8-11.9-2.3-25.6 5.9-26.3 18.1-.5 10-8.3 12.4-21.3 4.5-8.2-5-14.5-7-24.6-4.1-14.1 4.1-15-7.2-12.9-22.5 4.4-13.8-11.6-12.8-20.7-14-8.7-1.2-9.1-4.5-8.2-10.6 1.9-17.9-14.3-3.4-28.1-17.1-2.8-2-.6-11.9.2-18.1 1.1-19.8-39.3-.1-21.8-34.9 8.4-14.3-20.2-16.9-7.6-27.2zm12.1 125.1c-14-19.5-.6-9.6 12-33.1 5.1-9.1 10.1 3.8 16.3 2.7 1.4-.4 2.9-.6 4.4-.5 2.3.2 4.6 1.6 4.5 6.5 2.1 8.8-6.6 7.8-11.5 8.2-11.5 1-18.5 8.7-25.7 16.2zm-155.7 79.3c-6.3-.5-2.9-9.5-4.5-14.5-9.8-43.7-40.9 7.2-40-24.5-1.6-14.8 2.6-28.6 9.5-41.9 9.7-17.5-25.7-3.9-39.7-51.1-1.4-4.8 7-6.1 10.8-8.8 26.5-16.7-3.8-24.3-7.8-39.8 2.5-9.1 10-14.8 20.1-17.7 28.6-8.7 41.1 14.1 42.2-13.3 3.7-13.3 10.3-23.6 22.3-30.4 1.5-.8 2.4-1.9 4 .2 5.4 5.9 12.5 21 19.4 23.2 4.6 0 11.8-5.1 14.5-11.4 2.3-5.5 5.8-11.2 11.6-10.5 15.1 4.7 16.4 27.1 22.8 39.7 3.6 8.5 17.5.8 24.7 3.5 11.6 1.4 22.1 6.5 31.7 14.4 3.6 2.9-.4 7-1.4 9.2-7.5 15.4-.5 29.1 17 30.5 5.7.4 6.5.6 6.2 7.1-.8 15.5-6.3 27.9-19.4 35.7-6.1 3.6-10.5-4.3-16.5-5.6-17.4-3.7-34.5-8.8-51.8-13.1-3-.8-7.9-1.4-7.5-3.9.6-3.8-2.7-9.9 7-10.6 11.9-.9 23.5-6.3 35.2-10 1.1-.4 1.6-2.6 2.4-3.9-7.1-7.3-46.1 12.1-47.7 6.8.1-4.1-9.4-3.6-4-10.1 6.6-7.9 12.1-16.8 18.4-25 1.9-2.5.7-3.5-.9-4.5-1.8-1.1-4.1-1.9-5.7.3-6.6 8.8-12.9 17.8-19.5 26.6-.9-4.9-8.7-2.4-8.7-9.1 0-13.5-1.2-27-1.8-40.5-.1-2.7-1.1-4-3.8-4-2.7-.2-2.1 2.1-2.4 3.9-4.1 13.4 1.2 26.8-.3 40.2-.2 1.7 1.4 3.9-1.8 3.8-3.9-.1-7.3 4.8-11.8.3-3.3-2.3-31.1-31.6-31.7-25.2-.7 2-.8 5.3.3 6.6 7.7 8.2 15.9 16 23.8 24 1.6 1.6 4.7 2.6 2.8 6.2s-3.5 4.4-8 3.4c-12.7-2.9-25.6-4.7-38.5-6.4-10.6-1.5-8.2 10 3.5 8.9 12.6 1.5 24.5 7.3 37.5 6.4 1.8-.1 2.9 1.2 2.1 2.4-2.1 3.2 4.2 6.5-.4 9.6-4.2 4.1-39.2 22.7-32.8 27.2 4.8 5.5 27.7-16.2 34.6-19.1 1.3-.8 3.9-1.8 4.4-1.2 5.1 5 2.1 9.9-.5 15-6.5 12.4-12.9 24.9-19 37.5-.6 1.2.5 3.3.9 5 14.9-4 19.2-35.9 30.1-46.2 1.9 12.5.5 25.8.7 38.6-1 6.7 5 8.9 7.6 2.8 1.7-11.8.6-24.1 1.4-36.1.1-2.5 2.4-2.2 4.1-2.8 1.2-.4 2.1-1.4 3 .8 2.4 5.7 6.3 11.1 7.2 17-11.6 19.1-19.9 38.6-8.4 61.6 2.1 4.2-.8 5.3-2.7 5.5-16.4 1.3-27.9 20.6-44.8 17.3zm65-112.1c4-1.2 9.3 1.8 13.9 3.1 20.6 4.6 14.2 30.4-5.8 31.8-6.5-4-7.1-13.8-12.3-20.2-5.8-7.2-3-12.6 4.2-14.7zm-19.9.8c-18.8 2.8-31.3-38.4-5.7-37.8 18.5-1 29.6 36.6 5.7 37.8zm62.1 332c6.1 23.2-32.9 28.1-32 4-1-19 28.5-21.7 32-4zm60.1-131.5c-6.2-1.8-4.4 9.2-6.7 12.8-3.7 12.2-11.8 22.7-22.7 29.4-8.9 6-15-37.6-38.9-11.6-2.7 2.8-6.9 8.7-7.4 8.3-5.6-3.5-8.4-9.5-10.5-15.5-3.1-9.2-4.5-19-4.2-28.7-3.9-13.8-5.9 8.5-36-6.6-16.9-6.3-6.5-14.2-2.1-22.9 5.1-10.2-4.1-23.9-15.7-25.5-4.7-.7-12.7 2.3-13.4-3.1-.2-21 28.3-30.6 45-37.4 11.1-3.6.9-12.1-.8-16.7-5.7-15-1.6-28.1 5.2-40.7 2-3.8 7.4.4 11 1.3 13.8 3.5 31.6-9.1 30.8-23-.5-8.1 2.9-8.6 9.3-8.2 17.7 1.3 30.4 9.5 38.1 25.6 2.7 5.6 5.7 7 10.7 1.5 15.5-17.1 35.9-20.4 57.7-12.9 8.3 2.8 1.1 8.4 1.6 12.1 2.1 18.5 6.8 24.4 24.8 22 10.9-1.5 9.4 7.2 9.1 10.9-2.2 21.3-11.8 38.5-31.5 48.7-2.2 1.1-1.6 2.7-1.7 4.2-.3 5.1 4.8 6 7.5 7.6 7.6 3.9 29 41 7.4 35.8-18.1 5.3-22.3 21.2-13.1 35.8-20.1 13.2-34.9 4.1-53.5-3.2zm359.8 679.1c-20.4-1.4-30.2 14.1-21.9 33.4 4.5 10.5-5.9 7.8-9.1 8.7-44.6 13.3-59.5-30.8-76.6 2.7-13.3 16.5-31.8 22.4-51.3 26.7-1.3.3-3.2 1.3-3.2-1.4 0-8.5-4.7-15.3-8.3-22.5-4.3-8.5-24-10.9-30.6-3.2-8.3 9.7-11.6 4.2-15.2-3.6-5.9-13-10.6-26.1-6.2-40.6 4.5-15-9.1-14-16.4-17.2-17.7-7.7-27.3-22.1-34.6-38.6-1.6-3.6 4.3-4.4 6.6-5.3 13.7-4.7 27.1-17.1 15-30.8-5.1-8.9-14.8-12.2-23.2-17.4 10-18.9 30.5-25.8 49.8-29.7 14.8-5.4 33.8 17.9 39.3-4.9 20.2-43.4 19.3-17 41.9-21.3 14.1-4.5 14.3 10.3 21.6 14.8 21.4 13.3 6.5 28.9 4 44.1-1.7 10.4-5.6 19.6-10 28.8-.5 1 .3 3.2-2.1 1.9-1.3-.7-3.4.8-3.8-2-2.5-18.8-1.9-37.7-4.2-56.5-4.4-6.6-9.2 2.9-7.6 6.8 2.4 14.2 1.2 28.4 2 42.6.2 2.9 4.1 6 .2 8.6-1.3.9-5.3.6-5.6-.2-3.7-8.8-12.4-12.5-18.8-18.4-5.3-3.4-22.4-23.1-27.6-15.9-1.6 2.5 1.1 3.6 2.9 5.1 11.5 9.8 22.8 19.9 34.1 29.9 5.3 3.4 1.8 11.1-4.4 9.6-16-3.2-32.1-6.4-48.1-9.8-3.4-.6-9.5 1.2-8.8 5 1.5 2.3 3.9 2.6 6.6 3.1 16.2 3.1 32.2 6.7 49 10.3-2 18.8-22.1 17.6-31.2 28.4-2.2 2.6-6.6 4.3-4.4 8 2.2 6.6 28.5-15.5 33.3-17.8 2.5-1.8 3.3-1.7 5.8.2 13.1 9.8 5.4 19.4.6 29.6-5.8 12.2-10.7 24.8-15.9 37.3-1.2 5 7.3 5.2 8.8-1.3 7.2-16.5 14.1-33.1 21.2-49.6 3.3-4.9 12.9 4.4 19.3-1 7.4-4.9 10 43.7 21.3 37.3 4.3-2.9-.4-7.9-1.3-11.5-2.2-8.5-6.2-16.4-9.2-24.7-1.1-3-.4-5.8 2.8-7.6 4.8-2.6 7.5 2 10.5 3.7 7.5 3.6 38.5 22.7 44.2 15.8 1.3-2.8-1.7-3.8-3.3-4.7-15-7.6-29.9-15.3-45.1-22.3-3-1.4-1.8-3.5-1.2-3.9 3-2-3-8.2 3.9-8.1 4.8.1 9.6-.4 14.4-.2 25.3-3.2 7.6 9.8 16.7 16.7 20.5 5.1 43.4 7.6 61.7-6.6 9.6-8 11.2-7.1 16.1 10.8 1.8 6.5 2 13.4 3 20.2 1.3 6.4.3 9-7.4 8.5zm-203.6-154.1c7.9-7.6 12-17.4 16.9-27 3.4 2.4 6.9 4.7 10.2 7.3.2.2-.5 1.9-1.1 2.7-6.6 8.1-14 15.6-16.9 26.1-.3 1-2.5 1.4-3.9 2.2-9.4-2.8-16.9-3.8-5.2-11.3zm95.5 84.7c10.7-2.6 21.3-8 31.8.9 3.2 2.7 5.4 5.9 3.7 9.6-1.5 3.2-5.3 1-8.1 1.3-8.6.4-17.3-.2-26 .1-5.5.1-6.5-4.2-7.8-8-.6-1.7 2.1-2.8 6.4-3.9zm-8.8 24c-4.5 23.2-39.1 13.9-39.2-6.5.8-26.7 42.2-13.9 39.2 6.5zm236-152.2c8.2 6.5-26.2 20.8-5.6 38.7 19.1 11.7 26.7 10.1 8.9 26.9-5.8 8.2-15.6 11.7-25.3 14.8-11.8 4.7 12.3 13.6 8.7 42.8-.5 9.4-7.1 15.7-11.3 22.9-1.2 2-9.9-4.3-16.5-4.5-8.3-.3-22.6 8-24.2 16.7-2.7 15-8.4 16.9-23 11.2-18.5-4.2-28.6-41.8-36.5-28.8-13 19-36.2 22.9-57 17.1-10.3-3.9-2.2-10.8-1.1-15.4 4.7-19.8-17.6-29.3-31.5-26.2-3.4.8-7.5 5.5-10.1 1.6-4.6-6.6-5.7-14.7-4.2-22.9 2.1-11.6 8.5-21.4 13.2-32 1.5-3.3-.9-5.8-3.7-7.7-15-10.6-22.8-25.2-24.4-43.5-.4-4.4-3.9-9 .3-12.6 8.5-7.5 20.8 2.1 31.2-1.1 9.2-1.4 10.8-17.3 10.6-24.6-1.7-14.5 6.9-9 14-8.2 7.5.9 13.9 2.7 19.4 8.6 1.8 1.8 6.4.7 6.8-3.7 2.1-21.3 15.9-33.1 33.7-41.5 5-2.3 5.5 2.9 7.3 5.6 10.5 15 26.6 21 41.2 2.3 3.8-4.9 4.9 0 6.4 1.7 12.3 11.9 15.5 28.6 11.3 45.7-2.4 21.1 30.9-17.8 61.4 16.1zm-87.2-67c-10 6-18.9 7.5-25.2-3.9 5.6-3 5.6-3 25.2 3.9zm5.4-32.7c5.9.5 17.4 18.2 7.2 20.9-8.8.8-19.7 5.1-21.5-9.1-1-8.1 4.9-11.7 14.3-11.8zm-90.4-7.7c5.8.6 12.7 2.1 16.6-2 3.7-3.9-2.6-8.6-3.3-13.1-3.3-17.6-2.5-35.2 7.7-50.9 2.8-2.7 2.1-10.6 10.6-5 38.6 28.3 29.6-33.4 58.7-14.8 13.9 7.9 26.3 18 31.7 34.4 4 11.1 13.9-14.2 55.3 2.6 28.7 8.7-29.1 31.7 12.6 46.1 4.9 1.7 13-.1 14.4 4.7 3.2 19.8-17.7 38.6-36.2 41.6-5.5 1.2-6.6 5.2-5.7 9.9 2.2 12.5 4.7 25 7.4 38.9-15.3-9-29.7-11-44.9-5.1-2.8 1.1-4.8 0-3.7-3.4 7.2-20.7-7.1-35.5-14-50.2 3.2-8 8.3-5 13.8-3 5.4 1 21.8 9.4 24 1.8 2.6-5.5-27.6-10.4-32.5-13.2-1.5-.5-2.2-3-3.3-4.7 10.5-8.5 25.9-7.6 35.6-16.7-2-1.3-4.5-4-6-3.5-10.1 2.8-20.1 6.1-29.8 10.1-5.3 2.3-5.4-3.2-8.5-4-2.2-.6-.9-1.9 0-3.5 1.8-5.9 15.9-25.9 8.2-29.2-2.8-1.3-3.8.6-4.7 2.7-3.7 8.1-7.5 16.2-11 24.4-1.2 3.8-5.9 3-7.7.5-5-10.2-9.6-20.5-14.6-30.8-1.2-2.5-3.8-4.8-6.4-2.9-3.3 2.4-2.3 7.2-.8 9.4 5.7 8.3 7.3 18.9 14.7 26.2.3.6.2 1.4-.1 2-3.5 1-5.3 5.6-10 4.5-7.9-1.8-15.5-5.3-23.8-4.2-2.5.3-6.5-2.4-7.3 2.2-2.4 8 25.5 11.5 31.2 10.9-.5 9.1-2 11.4-12.6 10.7-18.8-1.3-48.3 24.5-50.8 42.7-.3 2.5-1.1 3.6-4.8 2.1-8.7-3.4-17.8-5.9-27.7-4.8-5.8.6-1.6-7.1-5.2-9.5-5.8-10.3-13.8-17.1 4-24.8 24.3-11.2 14-31.4 28.9-29.1zm-39.8-18.4c6.7.9 14-.1 19.9 2.5 7.8 3.5 3.6 12.2 2 17-4.2 13.1-14.8 21-27.3 26.6-14 6.3-2.7 13.7.5 20.8 7.2 13.7 7.4 27.9 4 42.8-2.5 11.1-9.9 5.2-14.6 4.3-19.7-5.5-32 9.8-26.5 28.7 2.7 11.9-8.6 5.4-11.8 5.3-14.9-.5-28.3-6.3-39.3-16.8-1.1-1.1-4.4-2.1-4.5-1.9-2.1 3.7-4.8 7.4-5.5 11.4-.6 14.4-48.2 56.7-55.1 31.1-1.1-8.6.2-20.3-9-23.9-16.6-5.5-32.5 27.6-38.2-3.3-3.7-13.7-1.5-27.2-.2-41 .2-4-3.3-3.8-6.1-3.7-21.5.9-36-10.5-47.5-27.1-5.4-7.8 2.7-8.2 6-10.6 4.4-3.3 11.1-4.5 13.8-8.6 9.4-14.2-5.2-18.2-12.3-25-2.6-2.5-9.8-2.7-9-6.1 3.9-20.5 28.2-27.8 46.9-24.6 11.3 2.6 16.9-1.1 12.4-13.3-5.9-16.9 4.2-34 13.1-48.1 19.4-32.6 37.6 40.1 62.9-15.6 2-5.1 4.9-2.8 7.2-2 19.3 7.3 33.4 19.4 39.4 40.3 1.9 6.6 9.4 4.1 13.6 1.3 10.1-8.7 70.1-14.5 59.1 9.9-6.8 10.7-12.3 27.5 6.1 29.6zM600 698.1c-5.6 5.3-9.6 11.6-14.5 17.3-9.5 10.9-9.7-4-12-6.4-5.3-4-17.4-19.2-23.5-12.5-2.6 2.8 1 3.4 1.9 4.4 7.5 8.2 16.9 14.8 21.2 25.5 2.3 5.7-4.2 8.2-6.5 12.1-6.6 11.5-16.8 20.6-21.7 33.3-.3.9-1.5 1.5-2.4 2.3-6.1-4.3-16.3-30.2-24-26.2-2.2 1.8-1.8 3.9-.4 6.2 11.9 21.5 31 41.5 32.7 67-20.1-13.7-50.4-26.6-68.4-2.2-.9 1.3-1.5 2-.2 3.2 2.1 1.8 5.1 2 7.4.4 21.3-14.8 39.4-2.1 55.3 7.1 14.5 8.4 13.8 23.1 17.8 35.9.9 2.8-.5 6.3-.9 9.4-24.5-2.4-31.8-29-57.9-25.5-.6.7-.9 1.5-.9 2.4 2.1 3.6 5.3 4.7 9.5 5.6 11.1 2.4 16.6 13.4 26.2 18.5 18.7 13.4 24.9 2.2 25.9 12.1.7 15.5.3 31-4.4 46.2-2.6 8.5-4.1 7.8-11 2.9-17.5-12.4-37.3-13.1-57.5-6.9-2.5.8-3.1 2.5-2.8 4.9.3 3.1 2.7 1.9 4.2 2 17.6.5 35.8-2.9 51.8 8.1 7 4.8 14.4 9.7 6 19.1-2.4 2.7-5.5.9-8-.3-9.2-4.7-44.5 2.8-51.3 11.5-3.1-13.2-9.1-23.9-17.7-34.2-8.4-10 7-35.5 20.3-36.1 15.1-.7 30.2-2.2 44.8 3.8 1.5.6 3.7-.5 5.6-.8-4.4-14.2-21.2-12.9-33.1-13.7-12.7-1.3-24.1.2-34.4 8.3-.7-15.1 4.9-29.9-.1-44.6-1.8-3-2.2-12-7.2-8.1-1.6 3.5-.3 7.2.1 11 1 9 .8 18.2.6 27.3-4.1 6.2-6.7-.4-9.5-3.8-18.5-29.3 21.7-55-8.3-86.4-17.8-15.9 10.5-55.2 24.1-66.4 1.7-1.8 5.9-3.1 3.5-6.4-2.7-3.8-6.5-1.7-9.2.3-19.1 13-25.9 33.3-34.8 53-34.9-28.6-65.5-62.3-95.4-95.9-1.7-7.7 30.3-5.3 13.6-25.5-4-4.8-1.1-9.6 2.2-12.6 5.3-4.9 12.2-8.6 19.4-4.2 11.1 6.8 21.6 14.5 32 21.5-11.8 8.1-21.8 20.6-35.8 25.2-3 .7-6.2 4.6-4.5 7.4 3.6 6.2 8.7.4 12.5-.6 22.5-6.6 28-37 52.9-15.4 20.8 14 40.2 32 65.8 35.1 18.3.8 33.5 4.4 45.8 18.9 3.3 3.7 10.9 2.4 6.5-3-5.1-14.1-17.6-19-30.1-24.2 10.7-13.5 25.1-24.7 38-36.2 8.9-7.2 15.1 3.2 21.2 7 3.5 2.2 7 6.1 11 8.5 5.5-6.4-4-13.4-7.7-17.5-3-3.3-8.3-4.6-14.1-7.6 7.8-1 9.7-7.2 13.8-11 5.9-5.5 9.6-5.7 16.9-2.1 7.7 3.8 8.1 6.4 5.3 13.9-6.3 15.7 11.5 24.3-5.6 37.7zm224.8-81.2c-3.7 2.3-14.8 5-9.5 11 14.2 11.2 12.9 27.6 10.2 43.1-2.4 15.4-13.3 7.5-21.1 5.1-14.5-2.7-21.5 1.2-21.5 18.8 4.6 11.6 2.3 23.4-15.9 19.8-43.8-7.2-35.8-47.6-48.8-21-8.6 12-22 15.3-35.3 20-14.2 5-12.6-6.4-15.5-12.2-5.1-10.4-17.8-16.5-28.6-12.2-4.6 1.8-11.7 6.7-13.2 5.3-7.7-7-11.7-17.2-10.7-27.6.4-4.9.5-9.7 1.8-14.7 3.6-13.2-10.1-8.7-15.2-13-10.3-8.5-19.3-17.4-23.6-30.5-.8-2.3.6-1.5 1.5-1.8 17.3-6.2 27.5-26.2 8.7-39.8-10.2-7.4-.5-9.3 2.5-12 12-11.1 27.1-12.1 42.1-9.9 14.5 2.2 20.8-4 24.7-18 4.3-15 14.4-26.9 28.8-34.1 4.9-2.4 6 3.8 7.6 6 13 18.8 27.3 15.1 36.5-1.1 8.1-14.4 14.5-7.2 20.8-1.1 9.4 8.8 14.5 21.2 14.1 34-.1 5.7-1.2 11.9 10.1 8.8 13.2-3.6 27.8-2.8 40.4 5.3 3.9 1.2-5 11.5-5.5 14.4-7.3 14.9-3.4 21.7 13 23.8 5.3.7 14.2-3.8 15.2 2.4 1.8 12.1-2 23.9-13.6 31.2zm89.5 88c-25-4.9-42.8-22.5-51.1-46.1-.5-.9.4-2.4.6-3.7 1.7.5 3.7.6 5 1.6 11.1 9 22 18.3 33.2 27.3 1.1.9 3.3.3 5 .3-5.5-15.8-22.8-22.7-35-35.3 20 2 34.8 10.7 46.7 24.5 6.5 7.5 9.2 17.1 12.3 26.3 1 3.5-10.2 6.7-16.7 5.1zm-125-89.7c-10.3-2.6-21-4-31.1-7.4-2.8-.9-9.1 2.7-9-4.1 0-2.1-2.3-5.4 1.8-6.6 10.8-3.3 21.7-6.3 32.2-10.3 2.7-1 8.1-.8 7.6-6-.1-1.4-3.2-3.9-4.3-3.6-11.7 3.1-24.7 4.6-34.6 10.8-9.5 6-6.2-3.6-9.1-5-4.5-2 .2-4.2 1.2-5.9 4.3-7.3 8.7-14.7 13.5-21.6 2-2.8.7-4.5-1-5.8-4.4-5.3-17.3 20.8-21.1 24.2-4.4 6.3-7.5-4-11.9-1-1 .7-2.3-.2-2.5-2-2.2-12.1-1.6-22.4-2.1-30-1.2-12.9-12.5-16.7-9.9-.8.4 9.5.3 19.2 2.2 28.5 1.6 7.7-5.5 4.7-7.6 7.8-1.6 2.4-4.9 1-7.2-1.3-7.4-7.4-14.9-14.6-22.4-21.9-3-4.4-11.6-1.5-8.7 3.5 9.3 9.9 20.5 19.3 29.2 29.4-1.1 2.2-3 6-4.3 5.9-11.9-1-23.8-2.6-35.6-4.1-4.6-.6-10.6-3.4-12.8 1.8-2.1 4.8 3.9 4.5 7.2 5.8 13 6.2 27.5 3.2 40.6 7.2-.3 6.8-23.7 15.4-30.2 20.9-2.1 1.3-7.8 1.5-5.6 5.5 5.4 9.1 27.8-10.7 35.4-13.4 3.9-2.8 7 5.5 6.6 7.2-4.5 3.8-26.1 33.4-21.5 37.2 1.9 1.4 3.5 1.7 5-.5 7.9-10.8 14.9-22.3 23.9-32.3 3.6 3.6 11.6.6 12.4 8.5.9 9.2 2.1 18.3 3.1 27.5.3 2.9.4 6.3 4.3 5.8 8.1-1.3 1.2-26.5 1.9-33.4-.1-1.7-3.8-3.8-.1-5.1 4.4-1.6 11.4-5 13.2-3.3 7.2 4.7 25.3 35.8 32.7 30.9.9-9.7-18.5-26.5-24.9-35-2.4-2.6-2.6-4.1-.9-6.5s3.9-1.1 6-.7c11.8 2.5 23.6 5 35.5 7.3 6.3 1.2 8.6-5.7 2.9-8.1zm-70 5.7c-27 2.7-23.1-40.5-.8-37.8 25.8-.6 28.5 40.4.8 37.8zm12.6 558.2c-10.5.9-21 2.2-31.5 3-7.1.6-15.6 4.3-19.2-6-2.4-6.9 4.7-7.4 7.7-10.6 4.1-4.2 9.3-7.7 12.3-12.5 2-3.1 9.6-4.3 5.3-9.7-6.6-6.4-24.7 19.8-31.1 24-3.4 3.3-6.6-2.2-10.1-.7-2-13.1 1.5-27 1.8-40.3.7-4.9-5.8-6.1-6.3-.8-2.5 11.9-.8 31.6-8 41-3.9 2.3-5.8-2.5-7.6-5.1-7-9.9-13.7-20.1-20.6-30.1-3.1-4.7-10-2.4-7.1 3.4 7.3 10.8 14.9 21.3 22.6 31.9 6.3 5.7-2.5 13.2-8.6 8.3-13.2-7.5-26.6-14.7-40.1-21.7-1.5-.8-4.2 1-6.3 1.5.4.8.6 1.8 1.3 2.2 15.1 9.7 32.3 17.4 46.3 28.1 2.8 3.1-31.1 3.8-35 5.3-4.5.6-12.5-.2-12.2 4.9.5 7.6 8 3 11.8 2.3 9.9-1.9 19.9 1.1 29.9-2.5 7.5-2.7 6 6.4 8.8 10 2.1 2.7.1 3.9-1.2 5.2-5.6 7.4-33.8 29.2-31.7 35.9 10.1-1.3 25.9-21.6 35-28.7 2.3-2.2 4.6-5.1 7.5-3.8 2.2 1 6.7.7 6.3 5.4-.5 6.4-.9 12.9-1.4 19.3h.5c0 4-.3 8 .1 12 .2 2.6-1.9 7.4 2.2 7.4 8.8-.8 4.2-29.4 5.8-37 .2-7 9.5-1.4 10.5-7.4 7.7 3.6 28.9 52.8 34.6 47.3 5.5-5.8-21.8-40.3-25.7-49.2-.5-.8-2.5-1.3-.5-2.5 1.2-.7 2.7-2.1 3.6-1.8 13.2 4.3 26.4 8.9 39.6 13.2 6.4 3.7 12.7-3.7 3.9-6.3-11.9-3.7-23.4-10.2-35.6-12.7-2.1-.3-4.7 2.6-4.3-1.9.3-3.3-2.2-8.2 4.7-8.7 4.1-.5 58.2-2.5 42-11.6zm-55.5 13.7c-.9 19.7-36.7 18.5-34.9-2-.6-20.7 37.3-21.8 34.9 2zm-146.8-172.5c-17.9 5.3-33.8 14.7-49.8 23.8-1.6.9-3.7 2-4.7-.2-1.4-3.1-6.8-3.5-5.4-7.8 3.5-10.7 7.6-21.2 11-31.9.7-2.1 1.4-5.1-1.5-6.7-1.6-1.1-3.9-.7-5 .9-.2.2-.3.5-.4.7-3.9 9.6-7.4 19.4-11 29.2-.7 1.8 1.2 5.3-1.7 5.5-6 .2-16.1 1.3-17.4-1.3-6.2-13.2-10.2-27.4-14.7-41.3-.8-2.3.5-6.5-3.3-5.8-3.3.5-5.5 3.6-5 6.9 0 .2.1.5.2.7 3.7 12.3 7.8 24.5 11.5 36.7.9 3 2.6 7 1.4 9.1-2.5 4.3-5.4.3-8.3-1.1-6.4-2-33-20-36-12.8-1.7 2.6.9 3.4 2.4 4.3 10.4 5.9 20.8 11.9 31.4 17.4 2.3 1.2 3.9 1.8 3.5 4.7-1.6 8.5-22.6 4.4-29.6 6v-.7c-12.9.8-25.8 1.7-38.7 2.3-3 .2-3.5 2.6-4.9 4.4.3.7.8 1.3 1.5 1.7 20.1 4 40.2.1 60.1-.9 8.6-.4 10.1 1.4 10.7 7.2.2 1.6-4.2 4-6.8 5.6-9.4 6.8-34.5 17.1-34.1 30 8.4 1.3 32.1-20 41.9-25.1 1.3-.9 2.2-4.5 4.9-1.4 2.1 2.5 4.9 5 2.3 8.4-9.5 12.8-13.7 28.3-21 42.2-2.2 3.2 1.9 10.6 5.5 5.6 7.5-14.8 15.4-29.4 22.1-44.6 3.6-8.2 9.5 1.4 13-2.8 4.2 8.4.9 44 11 43.7 3.5.2 3.3-3.3 3.1-5.1-1.3-11.8-2.7-23.7-4.8-35.4-1.1-6.3 4.3-6.1 7.1-8.5s3.4 1 4.7 2.2c9.6 8.8 19.1 17.7 28.8 26.4 1.6 1.5 4.2 2.5 6.3.4 2.4-2.4-.8-4.7-1.5-5.4-8.3-8.5-17.1-16.5-25.7-24.7-4-3.4-8.2-8.1-2.1-11.6 13.6.6 27.2-2.2 40.7 1.1 4 .2 10.4-6.3 2.4-7.7-8.2-5.3-44.9 3.2-42.7-5.6 1-13.9 14.8-12.3 22.4-17.8 8.5-6.2 19-9.7 28.6-14.4 3.1-1.6 2.1-4.2 1.1-6.6-1.2-2.5-2.2-.3-3.5.1zm-79.7 59.8c-23.7.2-22.6-38.9 1.1-38.8 27.5-.3 26.8 43.5-1.1 38.8zM310.8 402.9c14.4.3 27.6 7.6 42.2 6.4 2.2-.2 4.6 1.8 6.9 2.7-2 2.1 1.5 6.1-3.8 7.7-12.5 3.8-24.6 8.7-36.8 13.5-2.3.9-6 2-4.6 5.6.7 1.7 4.3 4.1 4.9 3.7 12-8 27.6-6.6 39.2-15 5.4-3.9 4.8 1.9 6.7 3.3 2.3 1.7 2.3 3.9 0 6.5-6.2 7.1-12.6 14.2-17.6 22.1-1.6 2.6-7.2 5.5-3.5 10.2 2.4 3 5.1.9 6.7-1.1 6.2-7.4 11.7-15.4 18.3-22.4 2-2.1 2.7-7.3 7.6-6 1.4.5 2.6 1.2 3.7 2.2-4.9 10.1 1.1 21.3-3.3 31.6-1.2 2.8-2.6 8.5 2 10.6 11.3 4.3 4.9-42.7 12.9-43.4 2.9-.4 7.5-1.2 8.4.2 7.3 10.5 15.3 20.5 20.6 32.3 1.4 3.2 4.7 7.3 8.7 5 6.9-3-18.6-37.5-22.3-42.4-2.1-2.6 1.7-3.9 1.7-6.2 6.9-4.2 34.2 15.8 39.7 7.5 2.6-4-1.9-3.7-3.8-5.2-6.9-5.3-15.3-6.6-23.2-9.6-2.5-.9-7.2-.1-6.9-4.9.1-1.6-1.6-4.2 1.8-4.8 11.5-1.8 22-7.8 33.8-8.3 1.9-.1 6.8-.3 6.1-4.8-.6-8.5-31.3.8-37 2.6-2.1.8-6 2.9-8-.6s-6.1-6.9-2.5-11.8c4.7-6.3 9.3-12.7 14.2-18.9 1.7-2.2 3.3-4 1.6-6.8-2.3-3.8-4.2-.2-5.6.6-9.1 4.8-12.5 14.6-18.4 22.1-4.7 6-7.9-1.6-12.3-.6-3.5.8-.6-2.5-.5-3.8.6-12.6 1.1-28.6-8.8-37.6-6.3 8.5 4.7 30.3.2 43 0 .2-1.9.5-2 .3-7-11.6-18.6-18-28.5-26.4-5.4-7.6-11.9 1-5.9 6 7.5 7.3 15.5 14 23.1 21 1.2 1.1 5.2.8 3.1 3.8-2.5 3.6-2.6 9.3-9.9 8.8-15-1.3-29.8-3.8-44.5-7.4-2.6 2-6.5-2-7.8 2.8-.9 3.3.6 5.8 3.4 5.9zm59.1 12.3c.5-7.7 5-18 15.4-16.4 13 0 19.4 6.3 19.3 16.3 1.3 24.3-35.3 21.9-34.7.1zm79.9 291.7l3.1 1.7c-1 1.8-1.7 3.9-3.2 5.2-11.1 9.6-18.3 21.6-22.7 35.4-.8 2.5-2.8 2.1-4.5 1.9-14.2-2.5 17.8-47.5 27.3-44.2zM295.5 562.8c10.7-8.1 21.3-16.5 31.8-24.8 2-1.6 2.1-3 .4-5.4-2.1-2.8-3.2-1-4.7 0l-37.6 25.8c-.4-1.7-.5-3-3.1-3.8-16.4-3-4.5-10.8-3.4-28.1 1.5-6.9-5.1-9.5-7.7-2.2-1.8 5.8-3 11.9-4.2 17.9-.5 2.4-3 4.2-1.6 7.4.8 1.7-10.9 3.5-12.4 1.8-7.3-8.7-14.8-17.3-22.4-25.8-.6-.7-3-2.9-3.3-.9s-3.8 3.3-1.4 6.4c6 7.5 10.8 16.2 17.4 23s-2.2 8.8-2.7 13.1c-.4 3.2-4.2 2-5.3 1.3-5.1-3-11.5-.7-16.7-4.8-2.4-1.9-7.3-.7-11-.6-3.1 5.5 2.7 8.1 7.4 8.7 7.1 2.2 14 5.5 21.7 5.1 1.9-.1 2.3 1.2 2 2.6-.4 1.8 1.4 4.1-1.3 5.2-10.3 4.1-20.8 7.8-30.9 12.3-3.2 1.5-9 2-7.8 8-.2 7.7 26.8-9.5 32.5-9.3 3.5-.9 8-6.8 11.6-1.5 3.8 5.5-3 7.5-5.4 10.9-1.7 3.9-18.3 21.4-13.7 23.2 1.8.9 5.7.8 6.8-.4 6.4-7.3 12.4-14.9 18.1-22.7.9-1.3 1.4-3 2.9-2.1s3.3 3 3 4.3c-2.3 11.3-5.1 22.5-7.5 33.8-2.1 5.6 2 13.3 7.5 6.8 3.1-11.7 5.7-23.6 8.4-35.4.5-2.2-1.1-5.1 3-5.7s5.7 1.6 6.8 4.7c2.7 4.6 8.3 34.1 14.5 29.5 1.5-.6 3.1-4.1 2.6-5.7-2.8-8.7-5.5-17.6-9.6-25.7-2-3.9.2-4.7 1.6-6.9 2-3.1 3.7-.5 5 .3 6 3.9 11.5 8.5 17.8 11.9 5.1 2.8 11.4 12.1 15.4 6.7 4.3-5.8-6.4-8.7-10.2-13.2-6.4-7.5-24.1-8.5-14.9-25.4 1.5-2.8 2.7-2.4 4.4-1.5 5 2.8 28.8 7 29.5-.5-.1-1.5-2.6-4.1-4-4.1-6.7.3-42.2-2.4-29.3-14.2zM267 598.2c-25.1-.8-27.1-34.9-3.1-38.4 27.7-3.3 30.8 36.7 3.1 38.4zm-6.7 778.4c-5.2-3.8 6.7-7 8.1 2.3 8.5 26.7 21 51.9 37.2 74.7 4 5.7-1.2 6.7-2.6 9.8-12.4-6.4-47.4-73.6-42.7-86.8zm-79.5 112.6c-10.5-12.8-21.9-25.1-30.1-39.7-4.1-9.4-38.1-61.9-26.7-66.2 2.6-1 4.1 1.3 4.9 3.6 8.3 22.9 20.4 43.8 34.4 63.6 12.7 17.9 26.7 34.8 43.4 49.2 2.1 1.8 2.8 5.3 4 8.1 0 .1-2 1.1-3.4 1.8-10.2-4.5-19.4-11.5-26.5-20.4zM80.4 1592.8c1.3 1.2 1.7 3.4 2.5 5.1-12.2 5.8-21.8-8.7-28.7-15.3-7-7.5-42.2-46.4-33.2-54.9 3.1-2.3 3.9 1.7 5 3 17.5 21.5 31.7 45.7 54.4 62.1z"/></g></g><g id="Layer_1_2_"><g><path d="M52 1548v15l-37 37h946l-37-37v-15H52M52 52V37.7L14.3 0H0v1600h15l37-37V52m872 0V37.7L961.7 0H14.3L52 37.7V52h872m52-52h-14.3L924 37.7V1563l37 37h15V0z" id="Layer0_0_FILL_1_"/></g><g><path id="Layer0_0_1_STROKES_1_" d="M961 1600h15V0h-14.3L924 37.7V1563l37 37H0V0H961.7M52 52V37.7L14.3 0m.7 1600l37-37V52h872m0 1496H52" fill="none" stroke="#333" stroke-width="2" stroke-linecap="square" stroke-miterlimit="3"/></g></g></svg>