<svg xmlns="http://www.w3.org/2000/svg" xmlns:xlink="http://www.w3.org/1999/xlink" viewBox="0 0 976 1600"><path d="M960 25v1556c0 3.3-2.7 6-6 6H22c-3.3 0-6-2.7-6-6V25c0-3.3 2.7-6 6-6h932c3.3 0 6 2.7 6 6z" fill="#fff"/><defs><path id="a" d="M960 22v1556c0 3.3-2.7 6-6 6H22c-3.3 0-6-2.7-6-6V22c0-3.3 2.7-6 6-6h932c3.3 0 6 2.7 6 6z"/></defs><clipPath id="b"><use xlink:href="#a" overflow="visible"/></clipPath><g clip-path="url(#b)"><path d="M868.3 1066.3c-44.5-7.4-90.5-28.7-126.2-57.6-45.3-48.5-28-32.2-84.7-18.5-30.8 6.5-30.3-.5-45.4-24.8-1.6-4.5 4.6-11.8-3.5-13.7-28.6-4.8-57.5-16.9-75.8-37.5-4.3-7.3-12.4 1.7-18.5-1.8-75.8-19-151.4-97.2-149.6-178.9-1.4-7.5 6.3-26.3 8.9-38.7-1.2-3.9-7.6-3.7-6-8.5 23.4-49 32.5-129.4-9.5-165.2 21.9-4.7 47.9 19.5 64.1 33.6 44.8 29.3 40.7 98.6 72.7 112.6 49.3 25.9 90.3 66.2 132.2 102.8 45.3 44.2 79.7 94.5 112.8 147.3 11.3 28.8 16.2 9.8 36.1 21.3 22.7 8.4 47.7 12.3 71.6 15 25.9-6 63.4-3.5 31.4 27.2 7.9 15 24 17.1 4.1 34.8 1.5 7.7 9.8 18.8-1.9 23.8-11.8 8.7 17.2 27.6-12.8 26.8z" fill="#50b271"/><path d="M359.7 1539.8c-14 .4-20.2-5-31.3-12-6.8.6-17.4 3.8-22.1-3-13.5-18.3 11.7-47.4 31.5-52.4 27.8-10.6 61.9 2.6 76.5 27.4 3.1 10.8-13.9 9.1-20.2 8.3-7.8 5.2-20.7 5.5-24.3 14.1-1.2 5.7-4.1 15.2-10.1 17.6zm426.5-325.4c-4.8-.6-4.8-8.7-11.1-6.9-5.6-.8-2-9.7-8.4-10.2-4.7-.4-6-5.2-10.4-5.2-9.6 4.9-16.6-6.9-25 1.4-21.4 12.7-15.9-18.5-5.2-26.9 21.8-23.9 60.1-28.3 89.8-16.2 14.6 5.6 41.8 42.1 16.5 47.3-13.2-5.5-20.5 5.5-32.5 1.9-8.1-.1-6.2 13.2-13.7 14.8zm-284.5-203.8c-72.4-18.9-140.2-90.6-176.8-151.1-37.6-75.8-38.3-153.2-68.3-232.7-21.1-77.1-94.9-81.2-44.4-95.3 21-8.6 43-10.6 65-7.2 60.3-27 123.9-5.3 119.2 74.7 2.6 56.5-33.3 88-37.1 140.2 1.6 77.2 73.8 153.4 145 174.2 16.9 5 36.4 2.4 48 18.8 13 10.9 29.2 17.9 50.9 22.1 3.3.5 4.5 5.3 1.6 7.2-9.6 10.3-34.2 13.8-40.5 28.6-27.3 13.1-50.1 18.5-62.6 20.5zM333.6 540.9c-27.9 1.4-38.9 45.8-1.4 42.4 28.9-2.4 27.8-41.7 1.4-42.4zm480.6 114.7c-8-1.2-5.6-15-13.9-15.1-5.3-.4-12.4-.9-16.8-4.1-3.8-4.9-11-1.1-16.2-1.4-15.7-5.3 0-30.6 8.7-35.6 22.3-22.6 61.9-18.3 87.3-3 12.9 8.7 33.6 48 12.1 56.2-7.4-1.3-11.8-9.3-19.8-6.3-5.6.5-10.9-6.3-15.5-1.1-6.9 7.4-19.2 2.5-25.9 10.4z" fill="#ffeb5c"/><path d="M750 1604c-114.9 2.8-23.1-2.2-118.7-47-33.7-17.9-69.8-35.1-104.1-48.6-8.2-6.3 14.6-19.2 14-32-.2-8.8 6.2-13.9 15-9.5 30.8 4 15.4 44.2 42.4 52.2 43.5 15 38-25.3 68.8-30.7 62.8-16.3-26-84.6-43.5-110.3-26.8-5.5-49.9-29.1-78.4-38.9-67.4-31.4-131.6-55.3-201.3-79.3-29.8-13.8-68.7-18.7-89.3-47-1.7-2.8-5.4-3.8-8.2-2.1-.2.1-.3.2-.5.3-38.2.6-20-60.8-3.6-76.1 25.7-36.9 64.3-57.7 109.5-73.2 19.3 12.6 22.8-.8 38.9-10.9 33.1-23.6 49.8 10 64.6.7 5.4-11.2 9.4-23.4 26.4-23.7 20.7-7.2 123.8-8.8 98.4-44.3-1.8-5.5 5.7-7.5 9.6-9.7 20.2-23.7 43.8 13.2 22.2 25.1-18.8 10.7-32.2 30.6-51.3 40.8-8.6 7-30.9 6.4-30.7 19.2-20.3 31.2-68.3 46.3-87.9 77.9 64.9 24.2 130.1 43.3 191 78.4 22.3 12.1 37.6 20.1 61.3 32.8 4.9 3.1-2 11.7 5.9 13.2 16.2 3.2 30.1 10.8 45 14.6 9.9-8.4 25.1-45.8 47.1-31.9 15 15.2-7.8 47.6.7 52.9 41.6 26.3 111.1 61 139 115.4 14.8 7.9 24 12.9 38.2 20.4 22.5-5.8 4.5 153.8 9.7 165.1 5.4 17-226.4.8-230.2 6.2zm-494.6-220.7c-72.3-37.6.4-52-52.1-78.6-21.3-7.2-24.8 16.8-35.6-11.1-9.9-10.5-10-36.5-25.8-30.4-47-60-97.8-122.5-124.9-196.7 14-49.3 41.5 19.3 52.1 35.6 27.7 39.3 51.9 81.7 91.3 113.6 16.5-5.1-15.1-70.1-13.6-88.8-14.9-92.3-51.3-182.4-50.9-276.3 40.9-5 31.4 72.4 41.2 101 18.6 89.2 44.8 179.1 69.5 267 40.4 151.4 119.8 102 48.8 164.7zM737 902.6c-19.3-17.7-30.3-50.3-50.3-71.3-2.3-2.4-1.9-8 2.8-8.7 67.3-40 145.1-80.2 194.2-135.2 12.1-17.8 23.6 6.2 25.7 17.8 7.8 1.6 15.5 10.5 12.9 19.9 13.3 49.7-45.8 73.1-76.8 99.3-36.8 24.6-70.4 56.4-108.5 78.2zm-57.8-337.3c-5.9-3-15-8.9-13.8-17.3 5.9-25.4-17.7-48.5-41.7-40.8-20.9-5.9-36.8-31.5-47-48.2-1-7.7 7.2-11.5 7.8-18.1-.3-5-3.9-14.2 2.7-16.8 21.4 16.1 40.2 39.5 60.7 58.3 64 66.2 90.2 32.9 31.3 82.9zM545.9 418.6c-46.5-32.2-53.2-142.3 1.9-37.4-11.3 13.6 20 30.8-1.9 37.4z" fill="#333"/><path d="M309.5 1588.6c-31.7.4-24.8-21.4-56-16-81.4-1-103.2-123-10.2-123.8 5.6-.4 6.5-6.3 4.6-10.7-8.3-43.1 36-95.3 77-94.6 51.3 2.8 62.5 32.7 82.8 64.5 61.6-35.4 175.5 14.8 119.9 90.1-20.9 18.6-49.3 30.6-78.4 36.4-1.1 25.1-25.1 34.3-47 33.3-14.6.7-27.5-5.4-39.5-12.2-3 0-5.5 2.2-5.9 5.1-5.7 21.6-30.5 26.2-47.3 27.9zm11.7-61c15.5-5 32.3 29.8 41.4 14.6.1-41.5 67.4-23.2 31.1-54.4-63.7-44.9-109.4 49.5-72.5 39.8zm295.4-6.7c-31.5-4.3-48-23.8-34.5-57.3 44.1-57.9 109.6 41.1 34.5 57.3zm-496.8-19.6c-56.4 7.9-69.9-81.5-5.4-83 51.5 4.3 53.7 72.4 5.4 83zm487.8-76.3c-27.4 1.7-44.9-48.3-17.5-57.3 16.5 2.4 21 17.6 26.2 29.5 36.7 1.9 13.3 28.2-8.7 27.8zM193 1363c-37.5 1.7-35.2-60.9 1.9-57.5 21.1.3 26.3 17.1 27.8 33.2-2.3 13.9-14.2 23-29.7 24.3zm713-47.8c-48.1.5-39.8-78.9 7.5-70 5.1 1.3 7 7 13 4.6 10.7 3 17 20.4 18.5 30.4-.7 19.7-19.2 36.1-39 35zm-72.6-57.5c-18.5 1.5-35.6-11.3-48-23.3-19 19.7-50.1 27.5-73 12.2-5.1.8-7.5 6.9-13.3 2.7-30.2-26.8-100.6-34.1-107.5-86.2-6.9-51.4 56.8-77.7 96.1-52.4 17.5-32.3 44.3-69.1 88.9-65.8 38.8-.6 77.7 25.9 82.8 66.7.2 3.4 2.7 6.5 6.2 6.4 65.8-13.9 111.3 87.4 31 105.5-40.6-1.8-6.3 31.4-63.2 34.2zm-89.2-65.1c18.5-2.1 31.1 10.7 42.9 21.2 26.8-28.5 67.7-1.1 37.8-47.7-58.6-49.8-140.5 38.5-80.7 26.5zm-195.6-21.2c-11.8-5.1-62.4-16.4-61.7-28.7.4-20.4 19.6-35.3 38.5-39.6 20.3 3 39.3 13.4 43.2 35 2.6 17.9-2.6 33.2-20 33.3zm358-264.5c-44.6-1-44.7-69.4-3.4-70.8 32.2 1.3 52.9 38.7 26.1 62.3-1.4 1.7-6 2.2-8.6 1.3-5.7.6-7.2 8.8-14.1 7.2zM708.5 740.5c-23.9 2.4-32.1-43.4-3.3-44.1 31.4-4.4 35 45.4 3.3 44.1zm69.5-39.6c-14.8.5-39.9-16.8-40-29.3-1.9-9.4 7.2-19.1-1.4-24.3-57.6-5.9-83.8-95.8-14.4-108.2 9.7-4.1 21.6-.6 31.4-.6 12.9-35.4 36.4-61.8 78.7-60.1 37.9-3.3 58.8 29.8 75.6 56.7 92.3 14.3 83.8 144.4-18 130.6-1.5 43.3-49.7 36.7-72.5 12.5-11.7 8.4-19.6 24.6-39.4 22.7zm-4.4-65.8c24.7-4.9 38.5 32.6 48.2 21.7 6.2-9.5 18.3-11.9 28.8-11.7 8.2-3.1 23.4 11.7 25.8-1.8 1.2-19.2-7.3-37.8-25.5-44.8-21.5-9.6-55.5-11.5-71.7 7.7-6.6 8.6-20.3 26.3-5.6 28.9zm-450.3-53.9c-32.2-8.5 1.1-52.5 24-31.2 12.6 18.9-8.6 34.3-24 31.2zm308.6-9c-44.3.1-42.1-67.9 1.9-65.2 42.9 4.7 39.1 61.9-1.9 65.2zm-87.2-2.2c-28.3 1.5-27.7-44.3-.5-42.8 29.5-.3 25.9 43.7.5 42.8zM67.3 554.8c-26.2 3.1-45-11-64.5-10.1-2.3 2.4-7 .6-6.8-2.9 3.8-4-7.4-546.7 4-545.9h202.8c8.6 1-.6 15.6 8.8 16.9C272 21 335.5 60.2 362 111.5c51.2 80.9-56.6 155.7-131.3 126.7-20.6 5.7 41.8 47.2-27.3 87.2-25.1 15.9 102.3 17.1 60.4 94.2-22.5 38.2-68.1 31.3-102.8 29 36.7 60.3-29.5 109.6-93.7 106.2zm612.4-57.2c-50.4-9.3-45.3-71.6 2.3-78.1 52.5 5.7 52.4 79.7-2.3 78.1zm-117.4-37.4c-31.8-.8-29.7-35.8-8-48.4-30.5-34.5 23.8-66.9 35.3-24.6 1.4 9.5 10.3 3.6 16.3 3.1 48 1.5 16.7 63.9-17.4 33.2-14.4 5.5 5.9 36.4-26.2 36.7zm360.8-29.4c-20.1 1.2-40.9-24.3-59.3-22-33 5.6-71.5 20.6-100-6.4-26.1-32.5-5.5-70.1 22.6-89.2-24.3-37.2-2.1-66.5-26.2-58.8-90.1 15.8-198.5-59.2-173-157.6 11-62.2 84.6-77.8 140.2-88.6 4-.4 5.8-4.7 5-8.2 2.9-7.6 244.7-7.5 247.6 0-3.8 4 7.5 396.9-4 396.1-25.6-6.2-12.8 35-52.9 34.7z" fill="#d81e1e"/><path d="M976 588.2c-8-25.4-30-52.1-58.4-55.7-3-.3-8.8 1.5-10.6-4.7-17.5-69.2-119.3-72.9-148.5-11.3-2.4 6.6.1 21.7-15.7 16.4-7.3-2.5-15.7 3.5-21.1-.6-12.5-9.2-27.1-16-37.3-28.8 28.8.4 47.4-28.5 41.4-55.7-1-5.4-11.5-10.2-2.8-16.9 4.5-3.6 9.3-6.8 14.4-9.6 2.6-1.4 1.2-3.5 2.3-4.9-5.6-4.6-11.4 1.1-16.5 2.6-5.3 1.1-7.5 10.7-14.4 5.6-31.9-23.4-74.3 4-67.9 42.7L609 437.8c44.1-7.4 27.3-63.3-8.7-50.6-5.5 2.1-6 0-7-4.1-3.9-15.3-18.3-22.5-33.8-18.7-4.5 1.1-8.1 7.8-10.1 5.4-8.9-10.4-16.7-21.8-24.4-33.1-3.8-5.6-8.3-9.7-15.2-7.5-5.4 1.7-8.9 5.5-9 12.3-.8 38.7 39.7 60.4 34.7 99.9-2.8 14.5 15.9 27 30.7 23.1 1.4-.4 1.7-.6 2.9.9 8.5 10.9 16.7 21.9 27.2 31.2 5.6 4.9 18.1 10.6 4.9 22.2-8.6 7.5-2.2 29.4-23.8 25.3-1-.2-2.2.7-3.3.9-8.9 1.3-4.1-23.3-30.6-23.2-24.4.8-17.4 23.6-27.7 22.5-8.3-.7-16.7-5.9-24.7-2 .8 1.5 1.2 4 2.4 4.3 7.1 2.3 14.2 4.9 21.5 5.7 4 .4 5.9.4 6 4.8.1 11.2 19.6 20.5 30.2 17.4 14.7-4.3 17.3-27.4 37-22.3 1.5.4 3.5-.7 5.2-.9s2.8.1 3.8 2.5c10.5 27.1 42.1 30.5 60.4 14.3 2.4-2.1 5.2-7.8 6.8-5.9 4 4.6 12 6.5 10.7 15.4-5.3 36.6 19.9 61.6 49.7 69.9 4.6 1.3 12.9.2 8.5 10.7-3 7.2-1.6 16.4 2.4 22.6 13.2 20.2 41 32.1 64 19.2 2.4-1.3 5.9-7 10.5-2.4 29.7 30.2-27.9 56.2-47.2 74-5.9 5-8.9 1.9-12.9-2.9-6-7.3-10.4-16-18.2-22.1-13.9-8.4 12.2-12.2.8-39.9-12.2-25.7-49.8-17.1-51.9 11.9-.6 13.5 11.4 25.9 24.8 28.3 5.6 1 11.3-5.6 16.2.8 36.1 50 37.5 23-26.3 68.1-2.6 1.9-7.3 11.5-12 4.7-40-53.1-91.1-95.5-143.7-135.5-12.6-9.6-25.7-18.4-40.4-24.9-4.8-2.1-12.3 1.5-14.2-5.1-15.9-76.3-74.6-151.5-158.3-151.8-12.6-.4-24.3 2.4-36 6.6-6.3 2.3-10.9 9-18.6 7.2-18.7-7.3-85.3 6.1-87.6 25.7-.4 2 .3 5.7 1.5 6.2 36.7 16.6 54.1 56.2 66.3 92.1 46.6 162 29.1 231.8 178.5 345.8-18.8 1.5-39.1 8.7-45.7 28.4-.9 2.8-1.9 6.3-4 7.6-8.4 5.2-15.1 12-21.1 19.6-5.3 6.7-6.7 13.6-19 16.3-22.6 4.8-43.1 18-62.1 32.1-32.8 23.6-66.4 59.7-62.4 103.2 9.9 23.7 37.6 35.4 60.3 45.3 100.2 43.6 206.7 72.7 303 125.2 10.3 4.8-19.6 15.7-2.8 48.1 13.3 25.4 51.5 23 63.6-2.4 1.2-2.3 1.1-2.6 2.8-.8 14.1 17 48 45.6 34.2 69.5-5.1 6.8-13.8 3.9-20.9 3.6-1.7-34.3-40.9-54.7-67.9-32-8.7 6.8-14.9 19.5-28.9 10.5-4.1-2.7-11.5.3-12.8-6-2-9.8-4.1-19.3-9.6-28-27.3-40.9-87.7-42.9-128-21.8-1.2.6-2.5 2-2.6-.6-4.6-41.3-54-73.9-95.1-65.5-7.5 1.9-15.3 10.3-23.6 4-35.5-27.3-58.4-68.1-72-110.2-19.5-61.4-33.4-124.7-50.1-186.8-9.4-32.2-18.5-64.1-23.9-97.2-3.2-18.4-9.3-36.5-10.8-55-1.6-21.1-5.9-39.2-26.4-49.2C83 829.5 91.5 865 91.1 877c.4 34.1 14.3 66.8 18.7 100.5 8.7 52.3 17.6 104.4 33.2 155.1 5.2 28.4 12.1 54.8 19.9 83-29.1-33.6-57-66.3-79.5-104.7-13.3-20.2-26.9-40.2-39.4-60.9-3.5-5.8-8.5-7.9-12.4-6.3-6.8 2.8-15 6.1-16.4 14.9-3.1 33 32.8 78.9 48.9 107.9 30.3 48 66 92.2 101.5 136.4 6.9 8.6-3.1 12.2-4.5 18.3-.4 1.6-1.1 2.1-2.8 1.6-17.1-4.8-34-9.9-50.2-17.4-1.6-.8-4.3.6-6.4 1.2-.2.1-.3 2.1 0 2.3 11.4 6.3 23 12.3 35.5 16.3 10.4 3.3 22.7 3 24.2 19.6 2.2 21.7 35.6 33 51.6 17.9 2.4-2.4 4.8-3.3 8.1-.4 9.5 8.4 19.4 16.4 29.1 24.6 1.8 1.5 2.4 2 1 5.1-16.8 34.5-.9 52.2-12.5 51.4-41.8 5-73.8 33.6-61.6 78.7-6.9-7.6-12.5-14-18.3-20.2-5-5.3-7.7-9.5-3.5-17.9 30.9-53.8-48-106.3-84.2-47.9-27.7 41 26.6 95.9 69.8 64 2.2-1.6 3.6-.9 5 .7 28.1 32.8 55.7 66.3 83.4 99.3 20 5.6-9.2-27.3-12.3-32.2 14.8 3.7 28.7 12.9 44.9 6.8 3.8-.8 8.6-1.2 9.6.3 18.4 30.1 78.3 21.4 89.8-11.4.4-.9 1.1-3.7 3.9-1.3 22.5 19.2 86.7 14.1 87.7-22.8.2-2.6 1.5-2.4 3.3-2.5 15.3-.7 29-6.6 42.6-12.9 7.7-3.6 13.7-12.7 22.8-10.9 20.7 4 38.9 15.2 58.4 23 19.6 7.8 37.3 19.2 55.1 30.5 15.1 9.6 31.4 17.2 43.6 30.9 2 2.6 5.7 3.8 8.9 1.8 6.6-3-7.1-15.3-9.5-18-45.4-33-98.1-54.7-149.6-76.7 23-19.9 11.5-39.3 23.8-34.7 13 4 24.2 7 20.8 24.4 5.9 14.1 12.5 24 24 28.5 15.2 5.8 41.3 3.1 50.2-15 4.9-8 9.3-16.2 22-15.3 13.1.9 25.3-12.2 23.4-25.3-4.4-36.5-37.3-57.3-59.3-83-24.9-33.1-46.1-69.1-72.8-100.9-7.8-8.1-15.7-24.8-26.3-27.7-.3 1.5-1.5 3.6-.9 4.5 4.2 6.5 8.7 12.8 13.1 19.2 23.8 30.7 48.7 59.7 67.9 93.5-38.1-25.8-81.3-43.3-123.5-62-12.3-5.8-26.2-7.8-36.4-18.5a128.77 128.77 0 01-25.1-38.4c-6-13.8-10.1-28.4-22.5-38.3-1.1-.9-1.9-4.3-4.6-1.8-5.4 4.9 9.7 15.7 10.5 21.9 7.2 18.3 14 36.8 29.4 56.1-13.6-7.4-26-6.9-32.8-17.5-10.5-23.6-31.6-40-43.4-63.1-13.2-25.6-28.5-50.2-24.9-80.9.4-6.7-7.7-6.4-8.3.1-8.2 56.6 37.8 105.3 70.5 146.9-119.1-46.8-224.1-53-78.3-175.3 3.6-3.1 11.7-5.7 9.1-9.9-3.8-6.2-8.6 1.7-13.1 3-1.2.5-2.3 1.1-3.2 2-33 28.3-78.4 59.9-73.8 109 .1.6-.2 1.8-.5 1.9-1.4.3-3.6.9-4 .3-24-18-8.2-52 6.2-70.9 23-32.2 57.1-54.8 94.8-66.1 5-1.6 9.5-8.1 15.1-4.1 6.5 4.6 12 8.1 19.2 1.5 18-19.1 47.2-30.9 68.3-12.3 2.2 1.8 4.9 2.9 7.8 3 14.4-2.1 8.8-29.3 32.7-27.4 27-5.4 54.8-9.3 81.6-16.7 10.9-3.5 20.2-8.4 24.9-19.5 2.7-6.5-4.2-9.4-6.2-13.8 2.4-1.5 4.7-3.4 7.3-4.3 7.6-2.7 15.2-17.8 23.1 1 1.6 3.9 2.7 6.8 2.5 9.3-.2 2.8-2.1 5-6.7 7.5-7.5 4.1-13.8 10.2-20.5 15.7-10.2 8.4-19.1 19.5-30.7 25.1-33.8 17.1-71.6 23.4-107.8 34.7-19 4.9-38.1 9.2-57.1 14.3-3.4.9-6 4.2-9 6.4 3.9 4.3 12.2 1.3 17.4 1 41.6-9.6 83.3-18.2 123.7-32.3-24.5 21.4-50.5 39.4-75.4 60-4.9 3.8-10.9 10.6-15.2 9.8-6.4-.7-34.5-7.3-36.1-.3 0 2.4 4.1 7 6.2 6.9 102.6 17 196.4 65.3 286.8 115-38.1-4.6-75.6-10.3-112-22.4-1.9-.6-4.8 1.4-7.2 2.2 10.7 25.4 190.5 29.4 164.1 58.2-16.2 20.7-8.5 39.5 1.3 61-24.5-26.5-51.5-50.1-85.7-63-2.5-1-5.6-1.6-7.3.8-2.3 3.2 1.2 4.4 3 5.6 5.6 3.8 11.1 8.2 17.3 10.8 17.9 7.4 31.2 20.9 44.8 33.6 14.8 13.8 28.5 28.8 43.2 42.8 2.1 2 6.9 1.3 10.4 1.8.1-1.4.7-3.1.2-4.2-8.7-17.7-19.6-34.4-27.1-52.7-2-6.2-2.5-12.4.5-18.1 11.6-21.6 14.9-49.3 41.1-62 19.3-9 15.6 28.2 9.5 38.5-6 8.1-6.3 17.3-5.3 26.6.3 2.8 4.3 7.6 5.3 7.3 6-2.4 1.2-13.4 2.6-18 49.8 26.3 93.2 61.2 135.2 101.4-14.4-7.3-26.9-11.9-41.4-18.1-2.7-1.1-6-2.3-7.9.7-2.4 3.7 1.4 5.3 3.7 6.5 30.6 14.1 59.9 30.7 89.7 46.3 4.5 1.7 8.5-1.2 5.7-6.3-37.2-43.1-85.7-75.3-130.6-109.9-10.6-7.5-22.2-13.6-33.3-20.3-.6-.5-.9-1.2-.9-1.9 16-8.3 36-10.5 53.8-14.3 3.9-.6 3.8.9 3.9 3.5 1 23.7 37.3 42.4 57.6 29.8 37.1-17.7 26.8-74.4-12.5-78.8-16.7-2.1-30.3 5.3-39.6 18.2-4.6 6.2-3 18.5-12.5 20.4-19.8-.4-40.1 6.5-58.2 15-1.9 1-7.5 2-6.5-3.5 1.7-9.8 5.3-19.3 4-29.7.4-7.8 12 1.8 16.3 1.9 19.1 5.7 51.1-.1 60.4-21.7 1.4-3.4-1.3-9.9 5-10.1 48 3.2 83.3-48.3 51.5-88.3-17.4-19.8-42.4-33.9-68.8-27.6-.8-15.5-7.3-29.4-17.1-42.5 7.1 1.3 13.8 4.4 19.4 3 8-2 20.8-3.7 18.4-15.4-1.8-8.9-9.3-14.7 2.1-23.8 6.3-5-2.6-13.1-9-18 17.4.7 24.3-20.9 8.1-29-6.1-2.8-5-5.8.7-9.5 6.3-4.1 10.9-9.1 7.3-18.7-9-23.8-42.7-12.4-62.5-16.7-28.4-3.1-55.2-11.5-81.8-20.8-5.2-1.8-6.8-8.3-8.4-13.6-.9-3.1 2.7-3.2 4.3-4.4 18.5-14.1 36.6-28.8 55.8-41.8 20.5-19.6 19.7-13.4 46-11 10.1.4 20.2 10.2 17.9 18.4-2.5 24.6 19.5 43.1 44.2 41.5 45.7-9.3 51.6-65.4.5-79.3-13.8-5.1-27 3.5-36.5 15.3-1.2 1.4-3.8 3.5-4.7 3.1-11.5-5.5-23.3-9.4-36.5-10.2 14.8-9 26.6-21 41.5-29.1 25.1-15.7 64.9-50.7 57.2-83.4-7.5-28.8-14.8-37.2-37.6-56.2 49.7 3.1 97.2-29.8 81-83.6zm-432.8-22.3c-20.3 0-22.1-33.3-.5-34.7 28.4-1 20 38.6.5 34.7zm165.7 170.6c-18.9 2.5-28-34.9-3.5-36.1 25.3-3.8 30.3 36.1 3.5 36.1zM77.3 1444.4c7.3-11.3 15.8-21.2 37.3-22.1 12.7 2.3-6.4 13.3-2.5 19.2.2.2-.9 1.1-.9 1.7 1.5 22.8-12.6 9.3-20.6 8.4-3.6-.4-17.4-1.2-13.3-7.2zm45.7 52.4c-24.4 3.8-44.8-8.7-48.7-34.8-.4-2.1-.1-4 2.5-3.5 22.4 4.6 45.8 12.4 60.1 31.3-4.6 2.4-9.1 5-13.9 7zm21.7-16.1c-1.4 2.8-3.1-.3-4.3-1.5-4.1-4.2-7.8-9-13.5-11.2-17.1-6.5-4.3-18.5-5-27.9-.2-2.7 2.2-5.6 3-8.5 2.5-9.7 8.6-4.6 11.6-1.8 15.4 12.3 18.9 34.3 8.2 50.9zm48.2-121.7c-17.3 3-34.3-29.7-17.1-24.8 11.7 3.8 18.1 13.7 24.6 23.2.9 1.3.5 1.5-7.5 1.6zm24.1-32c-3.9 8.5-34.3-1.9-43.1-2-1.8-.3-3.8-.4-2.5-2.7 9.5-18.5 42-16.9 45.6 4.7zm-5.5 24.8c-5 4.6-10.5-9.2-14.3-12.2 7.5-.9 14.2-3.2 21.6-1.9-1.2 5.4-2.7 10.6-7.3 14.1zm38.6 23.3c-8.4-6.3-17.8-11.8-24.8-19.5-4.3-4.7 1.1-12.3 2.5-18 5.3-26.3-27.5-48.8-49.5-33.6-11.4-10.9-52.7-119.9-66-110.5-5.4 3.8 2.2 7.8 4.1 11.3 9.6 17.5 19.1 35.1 25.4 54.4-18-28.3-40.6-52.9-58.8-80.9-25.5-32.7-44.3-70.1-61.3-107.8-2.1-5.8-.7-12.6 5.9-16 8.3-4.2 11.3 3.9 13.9 7.9 8.7 13.5 15.6 28.2 24.1 41.8 32.6 52.6 73.3 98.9 115.8 143.7 2.3 2.3 6 3.6 8 6.8.9-.1 1.7-.4 2.4-.9 3-2.6.7-5.6-.9-6.9-15.9-12.8-19.5-30.5-22.7-49.5-9.5-28.2-14.9-58.7-21.2-88-8-50.5-25.2-99.1-32.7-149.5-5.1-36.5-19.7-71-14.6-108.5 6.2 5.7 15.9 8.5 18.8 16.4 7.7 27.4 8.8 56.7 14.6 84.6 6.3 42.2 20.2 82.6 31 123.5 6.9 33.9 16.4 67 25.8 100.3 10.9 34.7 18.2 70.6 35.3 103 13.7 27.5 33 50.2 56.1 69.9 3.8 3-7.3 8.2-9.3 10.8-.3.2-2-.9-2.7-1.7-7.3-8.8-14.5-17.7-21.8-26.6-1.1-1.3-2.1-2.5-3.2-3.8-2.2-1.5-6.2 1.6-5.8 4.1 0 1.2.5 2.4 1.3 3.2 7.2 8.2 12.4 18.1 21.1 25 8.8 6.9-.4 11.7-2.9 16.6-2.8 5.8-5.4.3-7.9-1.6zm88.1 201.4c-17.9 13.5-73.3 10.8-58.1-22.1 8.3-15.8 23.5-21.1 39.5-22.7 28.9 2 47.7 32.3 18.6 44.8zm91.8-17.6c-19.3 6.3-38.3 7.4-57-1.9-14.2-7.4-3.5-30.7 6.8-37.5 13.6-8.6 28.5-9.4 43.1-1.5 6.6 3.6 14.2 5.7 18.1 13.4 5.4 10.5.4 23.8-11 27.5zm95-63.7c-11.4 10.9-65.5 43.4-77.5 29.9-7-6.7-9.8-13-5.7-22.7 5.2-17 9-34.6 17.8-50.5 1.1-2.5-.4-3.8-2-4.9-6.5-3.6-24.6 51.8-24.5 59-.4 2.3-1.5 5.6-3 4.6-3.8-2.4-11.6-1.9-11.3-6.3 2.1-24.1 8.7-47.6 19.4-69.3 1.7-3.4 1.8-7.4-1.5-9.1-2.9-1.5-3.4 2.6-4.5 4.6-11.3 20.3-20.3 42.2-20.3 65.2 0 14.3-7.8 5.6-13.7 9.3-3.5-23.7 1.6-48.9 8.4-72 3.7-8.3-4.9-10.8-7.4-2.4-8.2 22.5-11.8 46.4-10.5 70.3.5 10.6-9.6 7.1-13.7 11.6-1.3 1.4-1.2-5.5-2-8.5-3.6-13.5-2-27.3-1.8-41 .3-16.1 2.4-32.2 3.8-48.3.2-2.4 2-6.7-1.1-6.4-2.5.2-6.4 4.6-6.7 7.4-2.2 18.9-4 37.9-4.5 56.9-.3 9.9-.3 19.8.2 29.7 2.1 14.6 6.3 19-3.2 33.5-11-32.2-15-61.4-14.8-94.4-.5-10-1.4-19.9-1.9-29.9-.1-2.6-1.6-2.4-3.3-2.5-3.9 0-4.8 3.6-4.7 5.7 2 39.8.2 81.1 15.4 118.9.5 1.2.4 2.8-1.3 1.9-20.4-6.3-20.6-29.7-26.3-47.1-5.2-19.2-8.6-38.9-10-58.8-.1-1.1-2.2-2-3.3-3-8.5 18 1.9 48.6 6.2 67.7 2.7 9.6 3.9 19.6 8.9 28.4.2.4-.6 1.5-.9 2.2-4.5-2.5-10.9 2.7-14.1-2.3-14.9-21.2-21.4-46.2-30.6-70.1-.8-2.2-1.7-1.1-3-.6-3.4 1.3-3.9 3.7-2.8 6.7 7.2 20.4 11.5 42.3 24 60.3 8.2 11.7-5 9.3-6.9 14-13-17.2-24.6-35.3-41.6-48.9-1.8-1.6-4.7-4.7-7.8-1.8-3.4 3.2.8 5 2.2 6.5 4.9 6.1 45.4 47.9 37.2 52.2-9.7 7-8.2 28.6-18.8 28.2-77.9 3.6-112.8-104.7-24.1-115.8 10.2-.6 19.2.8 14.3-16.1-8.1-39 35.1-90.5 72.8-89.5 31.5 3.2 57.4 15.6 70.2 47.1 2.9 7.1 4.3 23.1 15.4 17.3 36.3-17.7 86.9-16 115.9 15.2 14 15 17.1 51.7-1 67.9zm81.7 10.3c1.1 15.1-8.6 7.4-15.3 1.7-7.4-6.9-13.2-14.9-9.4-27.4 29 5.1 35.7-5.1 24.7 25.7zm-20.5-34.7c-4.2-.7-1.1-4.4-.5-5.4 8.2-14.5 32-19.6 46.2-10.4 2.9 1.9 4.1 3.4.8 5.5-7.2 4.6-10.3 16.7-18.4 13.5-12.1-1.3-20.2-1.9-28.1-3.2zm31.8 45.9c-4.9 1.3-3.1-3.6-2.8-5.4 3.7-17.3 11.2-35.7 26-46.2 15.5 20.4-1.2 48-23.2 51.6zm-3.8-113.6c6 .6 16-2.2 17.8 3 .9 3.8-5.4 9.2-10.8 11.6-12.3 6.4-26.2 3.1-34.5-8 7.9-4.4 19.3-8.2 27.5-6.6zm-23.8-31.4c9.9.9 15.6 12.6 20.2 20.7-8.3 1.7-17.1 1.4-24.6 6.4-1 .7-4 .5-4.5-.3-4.9-6.4 1.3-26.4 8.9-26.8zm329.1-107c7.1-21 10.6-6.5 16.2 0 4.2 4.9 3.7 10.9 5.4 16.3 1.3 5.8-2.9 10-5.3 14.1-2.7 4.8-4.3-1.4-6.3-2.3-15.9-7.2-15.6-11.5-10-28.1zm-41.4 5.4c4.5-14.2 20-23.7 34.7-21 4 .7 2.5 4.1 1.7 5.3-5.5 8-5.6 17.5-7.9 25.4-8.1-1.6-16.2-3.7-24.5-4.6-4.1-.5-5.3-.8-4-5.1zm10.3 14.6c13.9 3 27.1 7.9 38.3 17.3 6.6 5.1-15.2 9.7-18.6 9-15.7.9-26-8.1-30.4-21.3-3.2-9.2 7.4-5.7 10.7-5zm36.9-437.4c11.9 7.6 10.8 17.2 12.6 29-2 5.4-9.4 26.8-17 17-14.5-14.4-4.2-28.3.4-42.2.6-1.5 3.6-4 4-3.8zm-43.9 6c5.2-8.7 14.2-14.6 21-13.2 25.5 1.8 4.7 11.6 7.8 16.8.5.8-1.3 2.7-1.7 4.2-4.6 22.6-11.9.9-17.3.2-2.6-.5-12.8-2.9-9.8-8zm1.4 13.8c11.4 8.4 23.1 16.6 28.5 30.6 2.4 6.3-2.6 4.5-4.6 5.2-29.9-.2-40.5-46.5-23.9-35.8zM711.1 439.8c14.6 16.7 2.8 49.1-18 52.7-3.8.7-5-.3-3.8-3.4 5.3-32.6-4.5-23.9 21.8-49.3zm-30-16.3c6.2 1.4 13 2.3 18.2 5.6 13.8 8.9-5.8 9.2-4.4 15.2-3.6.6-5 3.8-6.8 6.1-4-6.5-4.2-14.8-10.5-20-1.2-1-1.6-3.1-2.3-4.7 1.9-.8 4.1-2.6 5.8-2.2zm-15.8 6.5c2.8-.2 7.2 6.9 9.1 11.3 8.8 17.7 7.5 34.8 5.2 52.3-15.3-1.2-26.6-14.3-31.8-28.2-3.3-9.7 7-34.5 17.5-35.4zm-59.1-35.8c24.8-3.3 27.8 32.9 3 33.3-22 1.6-24.6-31.3-3-33.3zm-38.6-22.6c26 .1 23.4 37.9-4.9 35.3-19.9-3.8-17.9-36.6 4.9-35.3zm-54.7-11.7c-2-4.6-3.6-23.3 4.9-18.5 9.2 12.6 17.9 25.7 26.4 38-5.9 12.8-.8 21.4 6 29.7 1.8 2.2-1.1 2.7-2.1 4-1.8 2.4-3.4 1.4-4.5-.3-11.2-17-24.6-32.8-30.7-52.9zm52.4 96.1c-28.8 4.1-32.3-36.6-5.4-37.6 23.7-2.3 26.7 35.4 5.4 37.6zm38.3 85.4c-4.5-14.8 13-31 27.7-30.4 6.6 0 12.5-.6 6.2 9.1-5.3 5.2-.8 30.2-13.2 23.3-1.8-1-4.6-.1-6.8-.5-4.8-.8-11.8 2.7-13.9-1.5zm39.2 24c-16 8-29.5-1.5-38.6-14.7 14.6 1.7 28.2 1.9 39.1 11.7 2 1.9 1.3 1.9-.5 3zm13.7-11c-1.1 1.8-3.2 2.8-4.9 4.2-2.7-4.9-10.2-6.2-10.5-12.7-.4-10.7 3.8-20.5 6.6-30.5 13.9 10.5 17.3 25.1 8.8 39zm22.5 6.9c-3.2-4.3-10.8-6.2-9.7-12.6 5.8-24.5-15.7-52.2-41.6-46-17 4.3-29.6-25.5-41.1-34.5-8.8-7.7-7-13.1-.2-20.7 5.1-5.6-1-13.3 1.5-19.5 37.6 38.8 75.2 78.3 121.6 107.8-11.5 6.9-22.9 12.7-28.8 24.9-.4.4-1.1.6-1.7.6zm97.5 135.6c-13.2-.5-34.5-16.2-34.4-25.2.2-23.7 8.9-32.7 31.7-32.6 45.3 1.2 51 57.5 2.7 57.8zM439.6 993.8c6.6-.8 14.4 6.6 21.4 10.9 2.4 1.4.2 2.1-1.5 2.2-21.6.6-43.2 3.1-64.4 7.6 10.9-15.7 28.2-18.7 44.5-20.7zm151.5-50.2c-21-4.5-37.5-16.1-53.2-29.2-4.1-3.4-3.6-12.2-5.2-18.6 43.1 22.8 89.4 45 139.3 45.1 10.3.3 20.3-4.7 31.1-.2 6 2.5 13.2 2.1 21.9 3.3-50.4 12.9-84.8 14-133.9-.4zm-55.2-74c-.3-1 4.9 1.1 7.6 3 10.6 7.4 22.9 10.9 35.1 14.4 10.5 3.1 22.9 3.2 31.5 9 21.1 14.4 39.3 25.3 64 35.4-50.4-4.5-96.3-21-139.3-46.2-6.4-4.1 2.6-9.9 1.1-15.6zm4-16.8c5.3-2.8 2.5-9.6 6.1-13.5 11.5 14.2 24.2 27.6 40.2 40.1-15.9-4.6-31.3-11.1-45.7-19.3-3.4-2.1-7-3.9-.6-7.3zm6.6 314.3c-18-6.8-36-13.5-53.9-20.4-2.9-1.1-1.1-4.2-2.1-8 1.8-4 3.5-9.6 6.9-14 21.1 4.3 42.1 22.6 51.2 42.6-.7 0-1.4-.1-2.1-.2zm-42.1-51.1c6.5-3.8 14.7-6.2 21-8.9 23.8 6.5 26.9 1 13.4 24.7-.7 1.2-1.4 4.4-3.8 2.2-8.8-8.7-20.3-12.2-30.6-18zm41.8 29.5c-5.1-5.9 5.1-19.5 8.9-24.9 12.7 11.2 14 33 2.8 45.7-3-7.2-6-14.6-11.7-20.8zm19.3 29c-2.6-1.4 1.6-6.2 3.2-9.1 29.1-66.4-71.2-94.3-86.3-25.3-2.5 7.5-9.9.1-14.7-.6s-9.1-4.3-14.4-4.8c-1.1-.1-2.1-1.5-3.1-2.2 58.1-44.7 116.6-88.6 172.4-136.1 6.7-6.1 6.4 11.2 15 7.2 3.6-2-.3-5.8-1.5-7.9-6.5-11-13.9-22-20.7-32.5 19.9-5.3 21.8 14.1 31.2 23.5 4 4 7.1 8.9 10.8 13.2 1 1.2 2.5 4.3 4.5 1.5 4.2-7.8-14.2-25.5-16.6-34.5 1.5-.6 3.1-1.9 4.5-1.7 10.8.5 15.9 9.5 21.9 17.5 2.6 1.9 8.9 11.9 11.7 9 6.8-4.8-9.6-20.4-12.1-26.3 10.9-2.1 22.5-5.5 27.6 6.4 19.3 27.5 43.9 51.7 74.4 66.8-38.5 2.1-76.9 26.5-82.3 66.8-.1 2.5-1.4 3.6-3.4 1.5-16.5-14-36.6-14.1-55.8-11.4-37.9 7.1-58.3 60.5-36 91.6-11-4.5-21.1-7.7-30.3-12.6zm203.5 68.1c-21.5 14.9-57 10-62.3-16.1 0-28.7 38.3-36 60-25.2 17.8 8.1 18.9 31.5 2.3 41.3zm101.6-10.2c-9.6 32-74.7 26.3-80-6.6 5.5-38.5 81.6-29.8 80 6.6zm-17.7-130.7c6.8 20.6-2.8 23.7 21.5 19.2 30.7-2.6 66.8 29.2 61.8 61.7-5.1 20.9-20.3 30.6-40.9 37.1-21 6.6-22.5-15.4-35.6-19 3.4-6.2 37.7-41.7 27.7-46.1-6.1-1.1-7.2 6.5-10.3 10.4-8.2 10.4-16.1 21-24.5 31.2-1 1.2-4-2.9-10 1.3 7.6-9.5 31.9-55.1 22.3-58.9-2.9-.8-3.8 3-4.5 5.2-5 16.1-13.8 30.5-21.3 45.4-2.3 6.5-9.4 4.3-14.1 3.2-2.5-.4 1.6-2.9 2.2-4.7 5.9-17.5 12-34.9 17.7-52.5.6-1.8-1.6-6.4-2.4-6.4-6.4.2-5.6 6.8-7.1 10.4-3.2 7.7-6.2 15.4-9.1 23.2-3.9 10.3-7.7 20.7-11.8 30.9-.9 2.2-6.7 3.8-9.8 3.3-3.3-.6-.4-3.7.1-5.8 2.8-12.3 6.8-24.3 9.6-36.7 1.9-8.1 2.9-16.4 2.9-24.7.4-5.3 5.2-17.1-.9-19.6-4.1-.5-4.6 6.2-4.9 9.1-5.3 31.5-10.2 62.7-25.2 91.6.8-35.6 2.9-69.3-1.3-104.2-.5-3.9-4.1-10.8-4.9-10.6-5.5 1.3-3.5 6.2-3 10.1 3.2 25.7 2 51.5 1.8 77.3 0 5.2-1.6 10.5-3.3 20.6.4-8.5-3.2-9.8-5.2-9.9-10.9-.3-6.7-7.7-7.5-13.6-1.4-9.9-.9-20-1.4-30-.4-7.4-1.3-14.8-3.9-22-3.4-5.3 1-19.9-6.4-20.9-2.5.1-2.2 2.5-2.1 4.3 1 24.2 5 48.2 4.3 72.5 1.5 7.6-8.2 6.9-10.1 1.3-5.5-17.7-7.2-36.5-16-53.2-3.8-4.8-5.9-19.3-13.5-17.1-1.3.4-2.3 1.9-1.3 4 4.7 10.8 10 21.4 13.2 32.7 3.3 11.7 4 24 7.8 35.6.2.7-6.3 4.3-10 5.5-3.4 1.1-1.7-2.5-2.4-4-7.9-18.9-14.9-38.3-29.2-53.8-1.7-1.8-3.8-5.9-6.5-3.2-4.1 4.1.8 8.1 2.7 11 8.3 12.2 14.7 25.6 19 39.7 2.4 5.1 10.4 12.6 3.3 18.2-2.3 1.6-3.7-.8-4.9-2-9.3-9.5-39.4-42-52.3-38.7-.2 1.9-1 3.9 1.3 5.8 13.4 10.3 26.8 20.7 38.4 33.1 21 16.8-11.2 14.5 11.3 48-26.9-14.3-53-31.2-81-43.9-17-8.3-25.3-22.8-27.8-40.3-6.4-45.1 50.2-72.9 86.9-49.2 10.5 5 13.4-.4 15-6.6 17.2-72.9 134.9-78.7 155.6-5.3zm-100-161.2c13.1-8.3 20.9 4.5 31.5 5.7 23.1 3.7 45.8 12.5 69.6 10.8 7.4-1 14.8-2.6 22.2-2.8 5.6-.1 11.1 2.4 10.6 9.3-.4 6-4.3 9-10.7 9.5-14.5 1.1-28.7 2.8-43.3.4-19-3.1-37.5-7.6-55.4-14.7-4.4-1.1-20.1-7.1-21.9-1.6-.2.8 2.1 3 3.6 3.7 20 9.3 39.5 19.1 62.5 20.9 14.2 1.1 28.4 4.3 42.6 2.9 7.3-.7 22.6 7.6 23.9 15 2.6 21.6-63 2.9-74.7-.3-17.6-5-33.4-13.6-49.6-21.6-6.3-4.7-10.8.9-3.6 4.8 31.8 25.1 73.6 33.4 113 37.2 6.7.6 11.6 5.1 9.7 12.4-1.2 4.8-6.9 4.5-12.6 5.3-35.7-7.3-72.1-19.8-103.5-39.2-15.6.7 36.1 28.5 39.9 29 18 7 36.6 12.6 55.5 16.5 5.8 1.2 12.6 4.1 15.8 11.7 2.7 6.3-1.4 6.5-4.5 6.7-26.2 1.7-48.7-14-72.6-22.2-40.1-15.3-69.5-46.3-98.3-77.1-2.6-2.7 1.7-2.5 2.6-2.7 17.5-2.6 33.1-10.3 47.7-19.6zM740 933c-57.3 4.7-105.3-34.4-149.8-65.2-37.5-29.2-65.2-69.1-79.5-114.3-1.1-2.7 1-8.6-3.8-7-13.5 7.7 17.3 60.6 21.8 71.4-29.1-15.3-57.2-32.3-81.8-54.4-12.8-9.9-20.7-23.9-30.7-36.3-1.5-1.9-3.6-5.7-7.4-3.1-4 2.7-1.2 5.9.4 8.2 27.4 39.3 66 70.3 108.6 91.7 5.2 2.7 9.8 6.3 13.8 10.6 2.5 2.5 5.5 8.8 4.6 9.6-3.9 3.8-9.8 4.6-14.5 2-20.1-11-40.5-21.7-59.8-34.1-18.3-11.8-35.3-25.7-47.3-44.6-1.4-2.2-2.5-5.7-6.3-5.5 11.7 50.7 70.9 67.4 109.5 93.6 4.9 3.1 12.3 8.5 7.9 16.8-6 11.4-13.3 2-19-.4-31.9-12.8-56.1-36.6-82.1-58.1-1.8-1.4-3.4-4.7-6.1-2-8.5 4.9 48.3 52.1 55.8 54.3 12.8 6.9 25.7 13.7 38.5 20.6 5 2.6 16 16.5 10.6 21-18.7 4.8-57.4-19.6-73.4-30.5-45.3-33.4-82.1-85.1-81.4-143.3.6-40.6 27.9-58.7 64.9-47.3 9.4 3.5 14.7-2.9 4.7-7.3-45.6-21.5-85.5 9.2-82.9 59.9 1 49.5 28.4 92.5 62.4 126.9 32.3 30.2 71.2 52.7 115.7 56.7 5.9.8 11 8 16.3 12.4 15.3 12.8 33.2 19.2 52.7 23-10.4 7.4-21.2 14.3-33.3 18.6-8.3 2.5-10.1 12.3-.3 12.8 4.2 1.6 12.4 1.5 11.4 5.9-1.4 6.1-8.1 10.2-15.2 11.6-21.3 4.3-42.6 8.6-63.9 13.3-9.8 2-19.2 5.2-29.2 7-8.4 1.5-13.7 8-15 16.8-.4 3.1-2.5 5.7-5.5 6.7s-3.8-1.9-5-4.3c-17.6-23.6-58.9-3.2-74.9 15.2-6.2 5.6-13.1-2.6-7.9-8.3 30.1-48.9 95.1-27.5 139.1-45.6-1.2-.8-2.4-2.5-3.8-2.7-25-4.1-46.2-16.4-65.2-32.3-39.7-33.6-81.1-68.4-105.6-115.1-36.4-72.5-39.2-156.8-68-232.1-10.8-29.3-27.3-58.4-52.9-77-3.1-2.6-11.1-4.5-9.7-6 19.7-11.3 47-19.1 69.7-14.9 3.3.8 6.8 1 10.2.6 11.6-1.3 21.1-8.7 32.6-9.9 17.2-1.9 34.7-.4 51.3 4.4 56.7 16.7 97.8 71.3 110.2 126.9 4.9 21.2 22 18.8 33.2 27 42.4 28.5 81.5 61.8 119.2 96.3 37.6 35.2 66.4 78.2 95.8 120.1 8.1 11.8 15 24.3 22.4 36.5 1.8 2.3.6 2.9-2.1 3.2zm159.1-243.3c7.5 6.9 4.9 23-3.2 28.6-20 16.8-40.8 32.6-63.1 46.3-37.8 22.9-71.8 51-107.3 77-7.6 7.8.8 13.4 7.4 6.3C782.4 808.2 834.8 773.3 886 736c9.3-7.4 19.6-13.2 26.6-23.2.4-.5 1.3-3.2 2.2-1 1.8 4.2 6.2 8.2 3.2 13.2-5.9 10-14.7 17.3-24 23.9-23.7 16.6-47.3 33.3-71.3 49.5-6.4 5.3-34.1 18.3-31.4 26.9 1.8 3.2 3.2 1 4.9-.2 41.5-30.3 89.8-52.3 124.8-90.6 1.6 50.2-88.7 86.7-122.1 119.4-19.2 15.5-39.8 29.3-59.8 43.8-3.3 2.4-4.2-1.3-5-2.6-13.6-22.9-27.5-45.6-44.2-66.4-2-2.5 1.3-2.3 2-2.7 23.2-13.8 47.1-26.6 69.7-41.3 38.5-23.3 75.2-49.4 111.7-75.9 1.5-1.1 4.7-2.1 2.9-4.7-1.7-2.3-3.8-.9-5.8.4-18.1 12.1-36.5 23.9-54.7 35.8 7.9-5.6 9.9-14.2 11.6-23.1 2-10.8-4.3-17.8-11.2-24.2-6.1-5.3 2.3-13.1 6-5.9 14.8 17.9 40.3 19.4 58.8 9.4 7.9-5 8-18.2 18.2-6.8zm-15-13.4c-5.2 25.1-45.4 20.5-58 2.8-8.7-10-2-25.5 10.1-27.9 5.1-.8 9.9-3.8 15-1.9 11.5-2.1 18.8 6.3 27 11 3.9 2.1 6.5 10.8 5.9 16zm85-64.1c-2 33-42.4 55.9-73 48.3 5.6-8.5 45.1-32.4 37.9-42.8-2.6-2.2-3.8 1.7-5.5 3.1-13.7 11.6-27.4 23.1-41 34.8-1.4 1.2-1.9 1.6-2.8-.1-.9-.9-2-1.4-.7-2.6 14.6-16.1 22.7-36.4 34.6-54.3 1.6-2.5 2-7.1-1.6-8.9-3-1.5-2.9 2.3-4.1 4.1-11.4 17.8-22.9 35.6-34.9 53-3.5 5-6.3-2.5-10.1-2.3-3-1.4 9.6-16.3 10.3-20.2 3.5-6.8 24.3-57.6 13.7-58.9-1.4-.1-3.9 4.1-4.8 6.8-6.9 20.9-12.4 42.5-25.3 60.7-2.3 3.2-.4 10.7-8.1 9-10.6-2.2-3-9.3-2-12.2 6.2-18.3 11.7-36.8 15.1-55.8.5-5.7 3.2-28.3-3.7-29.5-2.2-.2-1.9 2.4-2.2 4.2-2.8 21-5.7 41.9-13.3 61.7-6.4 11.4-3.5 37-21.3 35.8-2.9-.1-.1-5.3.7-8.3 5.3-21.2 20.4-89.9 1.7-104.2-.8 1.7-2.5 3.5-2.3 5.1 1.8 16.4 1.8 32.9-.1 49.2-2.5 21.5-7.6 41.6-12 63.5-11.6-14.9-2.1-30.5-3.8-45.3-1.6-10.1-2.2-53.9-11-57.3-5.2-2.1-.8 29.2-.2 32.4 3.7 16.4.5 33.2 1.5 49.7.1 1.8-1.9 3.7-3 5.6-3.1-4.3-12.9 1.6-12.3-6.9 2.2-16.5.2-32.7-3.1-48.8-1.2-4.8-3.3-21.3-10.7-17.7-5.8 3.9-.7 9.3.5 13.3 5.2 17.4 4.3 35.3 5.1 53.1 0 .2-6.1.7-9.4 1.1-2.8.3-2.7-1.5-2.8-3.4-.9-15.7-5.3-30.9-10.5-45.7-1-2.8-2.7-9.4-7.3-6.6-5.4 3.3-.4 8.9.5 13.3 3.1 14.4 7 28.7 9.8 43.1.2 1.2-4.5 4-7.3 4.9-2.1.7-2.6-1.9-3.3-3.9-.7-6.3-22.1-43.1-28.6-36.6-2.2 2.5-1.8 5.1.5 7.5 10.5 11.5 20.1 25.6 22.1 41.2-24.5-7.9-52.8-19.2-56-48.4-2.6-32 7.3-45.4 38.2-53.3 7.8-2 16-3.4 24.6-.4 12.1 4.2 12.3-6.6 14.9-13.8 17.3-57.5 105-62.6 130.9-9.4 7.6 9.8.9 21.4 12.6 19.7 36.8.2 63.3 38.6 62.9 73.4zm7 981.1c.6.8 1 1.6 1.5 2.5-.5 1.2-.9 3.1-1.3 3.1-1.6.1-3.2-.3-4.7-1-26.7-16.3-49.2-37.5-71.9-59-37.3-35.4-60.7-81.3-99.2-115.2-2.3-2.4-7.6-5.7-4.1-9.3 4.5-4.6 7.8 2.1 10.6 4.1 44.4 32.9 65.2 87.7 107.7 121.9-25.5-53.6-40.7-112.6-74.3-162.5-4.8-6 1.3-11.9 5.6-4.3 55.1 66.7 55.2 167.9 130.1 219.7zm-323.5-1349c35.2 16.6 75 24.8 113.8 17.7-1.1 16.4-1.2 32.8 9.8 47 .9 1.2 3.2 2.7-.6 4.5-24.6 12.7-38 40.7-30.9 67.9 5.3 45 62.6 54 98.2 41.4 38.8-16.9 57 28.7 92.6 16 27-9.1 40.5-34.5 33.3-61.4-4.5-32.1-44-63.9-71.2-33.8-9.5 9.6-15.8 21.3-12.2 35.3 1.1 4.2 2.2 12.2 8.2 11.6 3.3-.4 1.5-7.7.9-11.9-2.4-18.8 16.9-34.4 29-33.8 57.1 12.2 36.7 111.3-24.3 73.9-34.3-29.9-66.5 2.5-104.3-5.7-30.6-4.6-40.8-25.4-38-54 .3-18.3 15.6-26.8 26.9-37.7 22.5 9.3 44.3 15.5 68.5 4.8 21.7-16.1 12.9 5.8 33.3 0 9.5-3.4 16.2-11.5 29.3-9.8 58.3 1.1 40.1-103.5-13.3-63.1-11.1 10.8-24.3 14.6-39.3 11-22.9-5.4-43 10.3-39.4 31 .1 5.1 11.8 12.3 11.6 4.1-5.2-4.3-3.8-9.2-1.5-14.3 3.6-8.1 10.7-10.6 18.6-11 15.4-2 23.8 18.8 13.3 29.7-17.1 17.7-48.2 21.4-69.1 8.7-14.7-11.3-19.1-28.5-19.6-45.8.4-5 2.8-9.5 10.7-11.7 6.4-1.8 12.1-6.1 18.4-8.5 13.4-5.2 18.1-23 36-22.4 15.9-.4 26.5-18.7 44-16.2 28.5-11.2 42.2-57.4 14.7-76.3-6.2-3.7-3.4-5.3-1.3-9 34.1-44.3-2.7-109.3-58-105.2-26 1-49.5 11.5-71.6 25-22.8 14-40.3 34.9-64 47.7-9.6 5.9-30.9 4.5-27.5-10.3 4.3-13.6 9.3-26.9 22.7-34.7 5-1.9 2.1-9.9-3.1-7-20 5.6-40.1 42.4-26.3 59.6 17.1 19.8 44.1 4.3 59.4-9.3 28.6-22 55.6-45.9 92.6-54 67.4-16.7 100.3 54.5 49.8 96.9-24.6 20.1-71.7 43.2-93.8 9-15.5-25.4 8.9-48.9 34.2-55 7.7-2.1 15.5.3 18.8 7.4 3.3 7.2-3.4 13.2-7 19.1-4.5 5.8-1 9.5 5.2 6.1 9.7-6.3 18-22.2 11.3-32.8-5.2-8.3-13.1-13.9-23-13-32.6.5-70.3 36.3-53.5 69.6 4.3 7.5 9.3 12.5-5.6 14.1-37.5 8.9-6.4 60.9 31.8 45.5 5.1-.1 3.4-8-1.4-6.6-8 2-16.4 1.3-24-1.9-8.3-3.4-14.4-9.8-12.2-19.5 1.6-7.1 8.6-7.3 15.1-8.5 10.1-1.9 18.7 2.8 28 4.1 19.1 2.6 33.8 27.6 24.8 44.4-27.8 45.8-91.6 45.7-136.8 29.7-78.6-18.9-126.9-113.2-76-181.5 28.1-33.5 94.2-46.3 136.6-50.5 3.4 0 8.7-.9 8.9-5.7-8.2-12.3-51 .8-64.3 2.7-32.6 5.8-66.7 21.3-89.8 46-50.7 61.3-17.4 159.3 52.6 190.4zm259.1 13c10.7-4.2 24.1-2.3 26.6 8 2.3 7.6 6.3 16-.6 23.9-6.5 7.4-10.8 17.7-23.5 16-2-.3-3.5.1-2-3.3 13.3-28.6-16.4-35.4-.5-44.6zm-37 53.3c6.7-8.2 7.9-19.1 4.8-29.1-.7-2-5.3-6.1-.3-8.3 41.2-15.2 26.6 50.8-5.9 40.8.5-1.2.7-2.5 1.4-3.4zm-6.6-158.3c6.5-3.8 11.8-9.6 17.8-14.3 4-3.1 6.8.8 9.2 2.9 6.7 6 7.6 14.8 9.8 21.9 0 13.6-19.3 37.6-30.6 37.2-3.7-.1.7-5.1 1.1-7.8 9.8-36.2-19.7-29.7-7.3-39.9zm-44.6 17.1c10.9 0 19.8-8.6 30-7.9 26.6 4.1 7.6 56.6-14.9 50.9-2.1-1.6-1.6-6.8-1.9-8.7 1.6-13.8-4-22.9-12.4-30.7-1.1-1-3.4-3.6-.8-3.6zm-44.1 1342.5c.6 19-3.1 38-10.7 55.4-4.9 11.5-12.1 22-18.7 32.7-.8 3.5-7.6 4.2-8 0 18.1-28.7 31.2-62.5 28.7-97.3-1.3-21.3-2-43.3-16.2-61.4-5.1-6.1 2.2-8 6-3.7 18.8 21.7 17.6 47.2 18.9 74.3zm-34.3-26.1c-1.3 36.5-26.2 60.7-54.5 65.2-2 .3-4.8.7-5.4-2.1s1.8-3.2 3.8-4.1c40.6-14.2 58.5-61.5 33.3-97.9-33.8-56.3-84-100.2-126.2-149.9-1.4-1.6-5.3-3.5-1.7-6.7 3.8-8.3 44.9 43 51.5 47.8 38.7 43.3 94 86 99.2 147.7zm-302.8-292.7c-1 .2-2.1.5-3.1.9 18.5 14 36 29.3 48.3 49.3 4.7 8.2 29.5 37.2 22.2 45-2.2 2.2-3-.4-3.6-1.4-24.5-38.8-51.5-77.2-92.2-100.3-8.6-5.2-19.4-6.2-27.5-13.3-24.4-19.5-13.9-56 11.4-68.6 10 3.3-19.4 20.5-14.7 41.7 1.9 15.4 12.2 22.6 25.6 26.6 41.4 12.8 87.7 18.2 122.8 45.6 3.9 3.3 10.1 9.3 7.6 12-4.8 4.9-9.1-2.9-12.6-5.6-14-10.7-29.9-17.5-46.6-21.3-12.9-3.2-23.5-13.3-37.6-10.6zM333.6 536.9c-31.9 2.3-45.4 49.3-5.2 50.1 36.8 2.4 39.1-49 5.2-50.1zm13.3 24.3c-.8 12.1-8.5 16.2-20.5 15.7-10.1 1.7-12-4.7-11.3-13.5-1-17.5 33.5-20.5 31.8-2.2zM264 544.1c2.8 2.8 1.1 5.7-3.2 5.1-6.6-1.2-24.1 2.8-25.3-5.7.5-3.3 3.4-5 7-5.3 8.7-2.9 16.7 0 21.5 5.9zM97.8 559.3c44.6-5.5 99-49 77.9-98.2-3.6-6.2 6.9-3.5 10.2-3.9 34.3 4.4 72.6-11.1 89.3-41.8 17.1-44.7-23.9-79.9-65.4-85.1 10.4-4.6 16-12.5 22.4-19.5 14-16.3 13.6-38.7 7.3-57.6 31.3 2.4 59.7 4.6 87.8-12 41.4-21.8 71.6-70.8 51.9-116.5C356 68 300.9 29.6 243.2 13.9 227 8.5 210 5 192.9 6.9c-5.2-1.4-5.2 5.1-.7 6.1 39.5 7 80.1 16.2 112.5 41.1 66.7 48.9 101.9 125.8 13.5 175-40.6 18.9-101.8 15.6-124.4-27.9-4.6-8.6-6.1-19.6 1.3-28.6 15.9-24.2 64.8-13.5 59.8 17.7-.9 3.7-.1 4.8 3.6 4.8 7.3 0 13.1-11.3 11.1-18.8-2.7-9.6-10.4-14.6-16.5-21.1-19.8-18.5-60.7-11.8-72.9 12.3-.6 1.4-1.7 1.6-3.4.1-15.8-10.3-34.7-13.8-53.1-16.9-30.7-4.1-62.1-3.3-87.2 16.3-23.1 17.8-22.5 39-2.9 56.9 30.8 28.7 77.1 22.3 110.7 46 31 27-12.2 54.3-39.9 53.3-17.9-.1-34.7-7.2-52.5-6.3 5.8 17 50.4 17.4 66.7 21-13 9.4-29.3 14.2-30.3 36-.9 20.6 22.7 42.4 39.7 43.2 16.6.5 11.6 4.4 14.1 15.6-104.6-30.1-96.6 75.8-30 72.4 49.5-1.4 18.6-64.1-16.7-45.5-4.8 2.2-6.6 9 .6 9 7.3-3.4 14.6-2.8 21.3.6 11.7 5 16.4 21.7.1 24-41.6 12.3-62.1-52.8-17.5-52.4 12.5.9 25-.7 37.2 4 41.3 15.6 39.1 54 9 81.2-37.6 30.4-92.7 31.5-136 13.3-3.8-2.8-12.4-.5-10 6.1 13.7 6.4 29.2 13 43.9 14.8 17.6 1.6 35.8 2.3 53.8-.9zM145 173c6.8-.2 27.8 4.2 29.9 10.6-.5 7.1.9 14.3 4 20.7 5.9 11.9-4 12.4-10.9 14.5-10.3 3.2-41.3-6.9-48.1-15.3-9.8-13.2 8.9-33.3 25.1-30.5zm24 123.8c4.3-45.9-47.8-53.9-81.3-62.3-19.8-3.5-68.4-22.2-49.8-49 20.2-26.3 53.5-25.4 83.3-24.3 2.1 0 5.7 1 6 2.3.7 2.8-2.5.9-3.8 1.8-25.7 14.6-29.1 46.9 1.6 57.3 15.7 6.6 37.4 14.6 52.6 2.8 8.6-6 14-.9 18.6 4.3 6.7 7.7 16.5 10.8 23.6 17.8 14.4 14.1 16.9 29 9.1 46.7-14.7 33.4-60.2 42.5-90.5 33.8 14-2.8 29-18.6 30.6-31.2zm-69.7 73.5c1.7-11.8 12.9-15.5 21.5-21.1 13.7-9 29-6.1 45.3-5.9-19.4 14.8-21.4 31.9-12.2 52.3-10.3 32.5-60.9 1.6-54.6-25.3zm54.2 58.5c-8.1-8.6 2.8-30.9 15.5-21.7 16.9 11.7 60 1.8 53.4-24.3-3.6-7.9-8.7-16.7-20.3-15.9-6.9-.4-14.3-.3-18 7 1.7.3 3.4 1.2 5 .9 10.1-2.1 20.2-.5 23.1 9.6 2.5 8.9-6.6 13.2-14.4 16.4-16.8 6.8-41.1-10.3-38.5-28 2.5-16.8 16.3-24.2 30.2-29.4 29.6-9.6 70.7 14 77.9 44 2.5 10.4-.3 20.4-6.9 30.1-16.3 24.4-38 30.2-68.7 30-14.4 1.5-27.1-4.8-38.3-18.7z"/></g><g><path d="M52 1548v15l-37 37h946l-37-37v-15H52M52 52V37.7L14.3 0H0v1600h15l37-37V52m872 0V37.7L961.7 0H14.3L52 37.7V52h872m52-52h-14.3L924 37.7V1563l37 37h15V0z"/><path d="M961 1600h15V0h-14.3L924 37.7V1563l37 37H0V0H961.7M52 52V37.7L14.3 0m.7 1600l37-37V52h872m0 1496H52" fill="none" stroke="#333" stroke-width="2" stroke-linecap="square" stroke-miterlimit="3"/></g></svg>