<svg xmlns="http://www.w3.org/2000/svg" xmlns:xlink="http://www.w3.org/1999/xlink" viewBox="0 0 976 1600"><path d="M960 22v1556c0 3.3-2.7 6-6 6H22c-3.3 0-6-2.7-6-6V22c0-3.3 2.7-6 6-6h932c3.3 0 6 2.7 6 6z" fill="#fff"/><defs><path id="a" d="M960 22v1556c0 3.3-2.7 6-6 6H22c-3.3 0-6-2.7-6-6V22c0-3.3 2.7-6 6-6h932c3.3 0 6 2.7 6 6z"/></defs><clipPath id="b"><use xlink:href="#a" overflow="visible"/></clipPath><g clip-path="url(#b)"><path d="M93.3 1531.1c-30 6 32.4-58.7 22.2-98.7-5-12.4-24.1 1.6-34.6-1.6-9.4-2.2-38.8 1.9-36.6-10.8 44.2-58.3 76.5-122.3 145.7-157.4 15.6 11.6 32.4 23.6 50 20.8 20.5-.8 49.7-3.8 67.4 5.3 4.8 9.3 11.7 5.7 20.4 3.3 7.6 5.7 13-2 17.4-7.7 2.4-2 6.4-2.1 6.8-6.1 7.2-15.6 18.6-27.4 23.5-47 .6-1.9 2.5-3 4.5-2.7 9.6 35.1-6.9 83 43.6 100.7 14.7 6.3 37.1 2.3 45.3 17.8-3.2 66.8-52.3 129-101.6 171.1-18.5 16.8-12.2-79-37.5-64.6-67.3 45.9-156.7 62.1-236.5 77.6zm841-110.5c-46.4-63.3-132.4-71.2-202.3-75-14.3 11.9-1.4 39.9-19.5 44.7-44.5-21-87.8-67.3-91.6-116.6 4.3-12.8.9-23.8.4-35.6 5.3-14.4 39.2 21.2 69.2-5.4 77.3-10.5 47.3-31.4 81.4-92.4 11.6-4.1 4.3-19.5 9.1-27.9 10-13.8-56.3-38.8 20.7-29.7 19.3 2.4 9.6-10.5 22.8-14.1 5-1.4 8.6-5.3 7-10.7 9-15.1 6.7-34.2 9.6-50.5 47.2-5.7 105.1 34.3 138.8 59.2-.3 2.2 2.2 53.9-2.5 52.7-15.8 4.7-28.6 24.1-46.7 31.8-4.6 5.1.2 9.5 4.7 13.7 61.8 70.4 30.1 181-1.1 255.8zm-83.8-511.3c-28.7.1-55.8-13.7-63.6-41.6.8-6.8-6.8-5.1-9.6-8.6-14.2-11.2-34.4-13.6-48.3.8-7.2 7-12.6 5-15.1-6.9-2.2-9.4-9.5-17-21.7-22.5-15.8-8.7-19.6-25.5-31.2-37.5-14.5-14.8-38.3 5.2-53.9 12-8.3-7.6-15-1.3-15.8-12.6-5.3-38.5-26.5-35-54.4-37.9 14.4-51.4 72-89 124.3-99.6 12.7 0 39.5-17.3 38.9 4.8 3.2 24.9 8.1 45.1 35.9 35 50 6.1 93.8 25.9 146 20.1 12.2 6.2 52.5-24.7 41.1 4.1-4.5 19.7-9.1 40.1-19.6 58.5-5.6 18.4-35.8 39.5-38.2 62 11.2 13.4 17 31.7 19.7 45.8 14.2 28.2-18.1 22.4-34.5 24.1zm-624.3-79.2c-64-13.6-103.2-62.7-129.5-119.5-31.9-46.8 7.4-33.8 40-34.8 4.6.2 7.6-5.4 5-9.2-19.9-31.3-21.4-65.1-24.8-99-3.2-42.6-8-83.8-31.7-121.7-2.9-2.4-8-10-.6-10.8 45.1 3 87.3 13.6 130.2 31.5 29.3 5.1 74.8 54.6 88.4 47.7 42.9-47.7 24.5-100.9 77.6-13.5 42.8 78.5 42 215.8-15.2 284.9-27.2-5.7-50.6 9.9-78.2 3.4-30.2-3.4-36.4 34.9-61.2 41zm220.2-67.6c-13.2-85.7 24.2-187 74.4-258.1-8.5-21.8-16.9-44.2-18.3-67.7-4-9.4 2.5-28.2-8.9-32-47.3-24.8-104.1-44.5-156.8-19.7-14.5 7-13.3-12.3-28.7 6.3-25.7-4 57-62.5 66.8-64.6 24-13.5 46.8-.6 68.7 10 21.8 7.1 37.9 19.5 47.2 39.8 28.5.2 25.9 33.9 49.5 30.3 45.6 5.5 46.9-56.3 67.9-37 18.8 12.4 6.2 21.3 32.9 19.8 94.9 0 126.7 57.1 182.7 116.9-1.1 5.7 5.8 7.1 9.8 8.2 13.2 19.6-63.9-.1-75.6-11.8-40.4-43.8-95.7-53.4-152.6-55.1-10.7 4.5-11.8 22.3-19.3 30.9-3.6 14-25.2 22.9-27.7 35.9-40.3 71.9-68.5 153-67.4 237.4-1.1 18.9-29.4-1.3-44.6 10.5zm267.4-483c-19-8.7 22.4-30.7-7.3-47.1-3-2.3-10.1-3.4-6.1-8.6 29.4-35.7 76.8-64.7 122.8-39.7 23.4 12.5 50.4 20.5 76.9 27.4 6 .9 4.3 9 10.2 9.7 1.8.2 3.2 1.7 3.4 3.5-45.2 33.9-114.9-10.1-159 27.5-13.9 8.5-25.7 21.2-40.9 27.3zm-199-1.5c-27.3-7.8-48.8-55.9-74.5-72.9-22.4-30.5-80.2-28-102-62.7 4-2.5 1.4-9.6 6.9-9.9 14.4 1.4 29 3.3 42.8 4.2 27.8 1.1 61-3.3 79.4 21.7 17 21.7 70 56.4 53.1 87.4-7 8.1 5.6 26.9-5.7 32.2z" fill="#333"/><path d="M505.1 1356.3c-75.5-34.6-127.5-17.3-120.6-122.5-12.1-29.7-23.1 61.4-69.5 53.3-38.2-15.6-90.4 11.6-118.6-24.8-11.8-23.5-23.7-46.2-40.2-65.9-37.2-54.8 64.5-75.3 16.4-81.6-31.9-6.9-35-47.9-49.1-70.7-10.4-16.1-24.8-29.4-22.3-51.7 20.6-44.5 10.7-96.9 78.9-87.1 17.9-6-9.5-39.8 29.7-51.8 30.6-12.8 38.7-59.6 74.8-62.5 38.9 7.3 87.5-22.3 113.5 22.9 2.7 5.7 11.6 3.3 11.4-2.8-1-31.9 40.9-59.2 72.5-49 23.3 10.4 46.6-3 69.1-4.9 53.6 4.2 30.7 47.5 45.9 57.8 13-6.2 25.9-23.4 43.6-22.9 26.4-2.5 33.7 33.9 56.2 42.9 13.3 3.6 12.8 26.6 23.3 31.8 56.6-47 66.9 29.7 112.3 52.9 44.6 33.6 0 72.9 3.6 115.3-1.3 33.7-47.8 45.1-77.3 38.3-5.7-.2-8.1 7.7-3.5 10.9 47.8 34.5 5.1 51.1-.1 88.5-4.8 37-12.8 48.7-52.1 52.3-27.7 12.3-49.6 23.9-79.1 3-13.1 4.6 5.7 41.2-14.6 65.5-9.9 17.2-25 14.1-38.5 20.6-21.8 13.3-38.2 42.2-65.7 42.2zm30.1-948.8c-18.5-8.5-30.8-37.1-52.1-47.2-28.1-23.6-7.8-75.4 26.3-81 12 2.4 8.8-41.1 15.8-44.9 9.5-31.7 51.8-75.8 89.5-48.9 31 14.9 13.2 68.8 43.3 49 19.3-7.1 48.6-8.6 57.5 12.1-3.6 26.6-30.9 47.4-20 76.8 7.7 71.2-54.6 79.7-96.1 38.3-17.1 21.4-26.5 44.1-64.2 45.8z" fill="#d81e1e"/><path d="M976.3 1061.5c-33.4-34.5-80.2-55.5-127.2-62.4-4.1-.7-2.4-2-1.6-4 16.4-30 17-59.3-12.3-82.2 19.7 2.4 62.9 8 56.3-22.4-5-18.9-8-42.8-25.3-54.7 13.8-9.3 21.3-23.7 30.7-36.6 17.2-23.1 26.4-51.1 31.8-79.2 1.2-5.6 2.9-12.3-.9-17.7-2.2-3.2-7.5-2.5-9.7-1-11.3 7.9-24.8 8-37.3 9-18.4 1.5-37.1-1-55.6-1.3-32.7-2.7-61.6-22.8-95.4-17.4-4.9.8-12.3 5.3-14.8.7-4.8-8.9-5.7-19.9-10.3-29-3.1-6.2 3.6-18-10.7-18.5-23.9-.9-46 7.2-67.9 14.6-37.2 13-77.7 47-91.1 84.7-2.6 16.5-21.8 14.7-34.6 14.9-3-.2-3.5-1.3-3.5-3.9 1.7-46.2 8.9-92 21.5-136.4 7.6-23.8 17.7-46.5 27.8-69.1 13.9-31.2 38.8-55.5 55.2-85.2 1.8-3.2-1.5-10.2 5.5-9.9 56.6 2.9 96.2 4 138 47.1 33.8 26.2 72.9 29.5 113.6 25.4 4.7-.5 3.2-4.1 1.7-5.7-13.7-11-31.3-18.3-43.5-30.9-36.4-40.4-67.1-90-125.1-99.9-3.2-.9-11.1.4-9.4-5.5 1.9-6.5 7.8-11.8 11.3-17.9 21.7-30.4-7.2-58.6 23-82.2 110.5-87.6 78.3-13 214.4-56.3 4.4-1.1 10.5-1.6 12.1-7.3.7-2.6-1.7-4.7-4.2-5.4-31.5-10.4-64.7-17.5-95.2-30.4-52.1-28.1-94.9-18.8-134.9 22.9-6.5 5.5-10.1 15.3-21.3 15-5.5-.1-10.9-1.1-16.7.8-8.4 2.7-17.1 4.3-24.5 9.7-3 2.2-2-.7-2.1-2.2.9-38.2-39.6-74.8-77-55.1-16.7 8.8-28.6 22.1-38.1 38-1.3 2.5-4.1 3.9-5.5.7-2.2-8.2-8.2-14-13.2-20.1-21.3-23.2-40-52.9-71.7-62.6-15.3-4-30.8-1-46.1-2.1-27.8-2-55.4-5.2-83.1-7.7-22.7.6 44.2 42.1 49.2 43.7 64.3 23.1 90 51.4 132.6 102.4 17.3 17-26.7 12.8-27 61.1 1.8 3.4 6.2 12.8-4.7 10-43.3-26.6-71.2-34.6-114.7-2-15.3 9.5-68.3 57.3-66.6 72.8 5.9 10.3 23.8-5.9 30.7-8.2 15.1-5.5 29.9-11.7 45-17.1 38.4-12.1 81.3-6.1 116.5 13.3 8.3 4.9 20.9 7 23.7 15.3 3.4 9.7 4 21 4.6 31.2 12.5 92.8 35.6 19.5-19.3 117.2-29.3 55.3-41.1 119-42 181-.4 11.3.7 22-11.8 27.7-13.6 8.2-20.4 23.3-19.6 39 0 .8-.9 1.6-1.3 2.5-11.9-24-30.3-22-23-33 50.8-101.8 55-244.5-31-328.8-5.6-5.4-13.2-8.4-17.4 1.6-7.3 17-17.1 32.5-26.4 48.4-6.6 11.3-8.7 10.4-17.4 1.9-17.6-17.2-39.8-28.1-61.8-38.9-10.1-10.4-177.5-58.2-150.3-20 49 66.8 15.2 157.3 59.6 225.2-13.8-4-28.5-3.8-42.2.6-21.2 6.1-19.2 9.6-9.8 27.5 23.1 65.5 67.3 123.9 139.9 138.6-22.5 17-56.6 26-39.8 65.6-25.9-7.5-65.4 3.4-71.9 32.3-7.2 49.6-36.2 61.2.4 106.7 26.3 34.5 10.4 68.3 66.1 81.2-34.3 16.3-50 53.6-24.5 84 12.2 14.7 22.3 31.1 29.9 48.7.6 1.5 2.1 3.6-1.1 5.5-48.5 28.6-88.7 70.4-117.6 118.7C57 1394 49.2 1410 33.2 1420c-3.4 2.1-3.1 4.7.9 7.1 20.9 8.5 52.2 13.6 74.1 5.6 10.5-3.8-3 31-3.1 36.1-4.4 17.6-14 32.8-23.3 48-2.8 4.6-6.2 9.1-4.4 14.8.8 2.7 3.4 3.4 6.4 3.3 32 1.5 63.3-8 94.1-16 42.4-12 127.8-31.9 156.8-63 9.3 21.4 18.1 42.8 18.6 66.8.1 5.7 5.4 4.6 8.8 2.8 57.7-36.7 104.5-108 111.7-176.3 23.4 19.6 47.5 15.7 69.1-3.3 11.4-9.1 19.7-23.3 34-27.2 16.3-4.6 31.2-9.1 39.3-25.6.4-.8 2.7-.7 3 1.7 10.5 46.9 53.9 82.7 94.2 105 4.3 2.1 11.2 3.2 11.5-3.6.7-15 5-29.1 8.4-43.4.5-1.9 1.3-5 4.2-3.5 17.8 9.2 37.2 8.4 56.3 9.6 27 1.6 53 7.4 77.3 19.9 25.1 12.8 49.5 26.1 62.3 53.3.6 1.3 3 2.8 4.2 2.5 3.2-.6 5.1-3.1 5.5-6.3 7-46.8 31.9-89.6 32-137.4-.3-47.8-1.2-100.2-40.2-133.5-1.7-1.7-2-1.5.2-2.9 13.7-9.1 27.5-18.1 38.1-31 8.1-6.5.8-13.3-5.8-5.9-15.6 24.6-60.8 27.6-34.7 50.1 34.9 33.3 33.1 83.4 32.1 127.7-2 42-20.6 80.8-30.5 121.1-21.5-34.6-61.6-51.9-99.4-62.6-27.4-7.9-55.5-5.7-83.1-10.5-7.5-.8-16.5-9-22.2-1.4-6.9 9-10.8 19.9-11.2 31.2 3.1 48.1-86-55.4-86.5-70.7-3.7-8.8-9.3-17.3-7.1-28 2.2-10.5 4.1-21.3.3-32-.5-1.5.3-3.5.5-5.2 31.3 14.4 44.5 13 74.6-5.1-5.8 6.5-43.2 47.1-30.1 49.9 4.8 2.2 5.5-4.1 6.5-6.1 7.9-14 17.4-28.1 30-37.8 0 1.2.5 2.5 0 3.4-3 5.7-3.9 12.1-6.1 17.8-9.1 23.9-10.7 48.3-8.9 73.4-1 8.3 7.5 5.9 7.4-.8 0-8.1-1-16.4.4-24.3 3.3-15.3 3.2-32.9 11.1-46.5 12.6 10.8 18.5 29.1 22.5 45.3.4 2 2.8 3.6 4.3 5.4 1.1-1.8 3.4-3.8 3.1-5.2-3.7-15.5-7.1-31.1-18.1-43.8-3.6-4.2-12.7-6.3-7.5-15.5 3.7-6.5 5.2-18.4 9.6-19.5 48.4-11.6 24.1-56.5 50.2-84.7-2.5 16.4 1.8 83.4 15.6 90.3 3-1.3 3.6-4.6 2.4-7.3-13.4-35.7-12.7-73.6-8.8-111 15.9 18.1 30.2 37.5 42.7 58.1 4.6 7.7 14.1 14.4 6.4 25.4-4.1 15.1 1.1 32.1-.2 47.7-.3 20.2 3.5 39.7 9.8 58.7.9 2.7 1.4 7.1 5.7 5.6s2.6-5.6 1.8-9c-4.5-18.2-9.5-36.1-9.4-55.2 3-18.7-8.3-34.2 2.4-51.6-.6 3 .1 6.1 1.8 8.6 13.7 24.8 29.3 54.9 40.7 83.2 3.9 6.8 18.3 61.1 24.9 55.7-6.1-36.3-19.6-68.9-36.5-102.7 22.5 16.2 38.8 36.3 59.3 54.4 1.3 1.2 3 4.8 5.3 2.8 6.4-8.8-19.9-24.8-24.2-32.4-17.8-22.1-49.3-29.7-59.3-61-6-19.5-21.9-35.7-31.8-54.1 26.6 5.3 52.4 19.4 74 36.2 2.2 1.7 5.7 7.7 10.7 3.3-7-22-49.8-36-70.5-44.5-7.8-3-17.6-.4-23.5-7.7-13.6-16.8-26.2-34.6-43.6-47.8-1.3-1-2.8-3.4-1.3-3.4 11 0 23.8-5 32.8 1.9 25.6 19.5 54 32.7 85.9 29.5 4.9-.5 12.8-2.9 12.5-6-.6-6.3-6.7-3.8-11-2.1-28.4 3.9-55.8-8-79.3-23.1 17.5 1.8 34-4.3 51-1.6 17.6 2.8 35.9.2 53.5 4.7 1.7.4 4.7 1.2 5.1-1.4-6.2-13.6-81.8-12.4-99.2-12.5 21.2-10 39.7-20.3 61.9-17.9 1.8.2 3.8-.3 3.5-2.3-7.5-12-40-1.5-50.4 3.9 6.2-12.8 8.3-25.5 8.7-39.6.2-2.5-4.3-12.3 6.1-9.9 44.4 8 85.9 27.5 120.4 56.6 2.5 2.2 4.7 1.5 6.8-.2 3.9-2.8-.3-3.2-1-4zm-370.2-382c26-16 57.4-20.2 86.7-27.7 3.6 0 2.9 7.9 3.5 11.5 2.6 14.5 5.3 29.3 17.4 38.6 3.5 2.7 12.3-2.9 19.2-3.2 14.7-.6 28.5 3.4 42.3 7.1 35.6 12 73.9 14.4 111.4 12.9 11.6-.1 23.1-3.7 34.5-9.4-6.8 46.4-29.8 86.6-60.5 121.4-5.5 6.7 2.9 11.3 5.7 16.2 8.7 13.8 12.3 29.1 16.6 44.5 6.1 16.3-8.6 11.6-14.2 12.4-29.6 5.7-66.3-3.6-77.7-34.9-1.2-3.1 3.9-1.8 6-1.7 5.6-.3 43.8 8.7 43.4.8.2-8-46.3-8-59.7-11 18.4-6.2 31.8-12.6 46.9-12 10 .6 12.6-7.4 1.4-6.6-18.3-2.1-34.9 3.5-50.4 12.2-7.9 4.4-11.7-3.6-17.8-4.6-12.5-2.1-22.8 1.2-31.7 8.3-6.2 5-8.5 10.2-11.4-2.4-2.8-12.2-12.5-20.1-24-25.3-14.2-7.5-17.5-24.6-28.9-34.8 46.2-8.4 61.9 30.3 109.8 29 5.2-1.1 13.3 6.4 15.4-.9.9-3.4-8.7-6.4-13.9-6.8-21.2-1.8-40.7-7.9-58.2-20.1-.7-.5-1.8-.4-7.1-1.4 29.3-.7 49.1-7.2 76.7-9.5 6.8-.7 13.6 3.6 20.2 5.5 17 5.1 35.1 5.7 52.4 1.9 4.9-.7 10-1.2 12.3-6.2 1.5-3.7-8.7-2.4-10.6-2.1-20.3 5.5-40 2.4-60-3.3 12.6-3 43.9-13 50.3-22.6-2.8-3.9-7.5-1.1-10.3.1-30 13.9-60.9 18-93.6 23.3 15.6-13.2 30.8-25 48.2-34 3.9-2 13.6-1.5 9.7-8.9-4.8-11-65.8 36.3-71.8 43.8-3.3 3.1-11.4 1.3-17.3 1.3-14 .1-28 0-40.8 0 14.9-21.8 34.3-40 57-53.5 1.5-2 1.9-2.7.4-4.9-1.7-2.4-2.4-1.1-4.1-.3-25 12.2-46 31.1-60.8 54.6-10.1 15.2-24.6-2.9-61.7 23.8-.4-8.5 5.4-14.6 8.4-21.2 4.2-9.1 4.6-22 16.3-25.5 22.5-6.8 38.4-22.4 53.7-38.8 2-2.1 5.3-5 2.6-7.7-2.5-2.4-4.8.9-7.2 2.7-16 12.1-28.1 29.9-48.4 34 11.2-21.2 24.9-41.1 40.8-59 2.2-2.5 6-5.6 2.8-9.2-.7-.8-7 1.5-8.7 3.8-23.4 27.2-42.6 57.2-59.2 89.3-13.3-31.5 2.4-52.3 25.2-75.8 1.9-2.5 7.4-4.7 4.6-7.6-3-3.2-7.1.6-10.1 3.3-22.4 18.8-48.1 53.5-27.8 81.9 8.3 10.9-1.2 16.1-4 25.1-6.2-35.2-18-47.6-55.9-43.9 14.4-31.1 37.3-55 66-72.5zm93.2 377.6c10.2 35.4 5.4 47.2-24.5 68.9-10 10.4-11.6 25.5-21.6 36-42.2 31.3-79.2 14.7-111.1-31.9 29.5 8.9 75.1-16.4 93.2-39.1 20.3-29.7 30.1-71.7 10.3-103.8 11.8-8.7 29.2-17.3 37.5-32.6 1.3-2-.1-6.3 6-4 28.5 11.2 28.4 40.6 15.7 59.5-10 14.9-9.5 30.4-5.5 47zm-463.8-100c-7.8-58.7 51.7-73 88.1-33.6 3.9 3.7-4.5 8.5-7.8 11.8-16.2 16.6-2.9 45.6-18.4 70.8-8.5 16.4 7.2 40.7 25.8 43.1 2.8.3 7.9 3.3 7.8 3.7-2.8 7.9-5.9 14.4-17.1 12.1-15.9-3.3-31.9 1-47.6 3.6-41.6-4.9-46.7-31.2-30-64.8 5.4-15.8 4.6-31.7-.8-46.7zm282.9 89.5c.3 2.2-1.8 4.8-2.8 7.2-12-21.6-17.8-45.3-20.6-69.7-.2-1.5-2-2.8-3-4.3-10 12.2-1.4 29.2.2 42.8 1.7 14.4 11.1 26.3 14.5 39.8-18.7-2.5-27-7.3-35.3-24.4-5.6-11.4-13.7-21.9-15.3-35.3-.2-1.4-4.3-2.3-6.5-3.4-2.8 18 9.8 42.6 21.8 56.1.4.4-.3 2.7-.7 2.7-7.7.7-15.3 7.7-22.2-3.9-6.6-11.1-16.6-20.1-25.3-29.9-.7-.8-3.1-1.2-3.3-.9-1.1 2.1-3.3 5.1-2.6 6.5 7.4 13.7 17.8 25.3 28.9 36.8-40.4 25.1-43.2-23.1-78.3-34.2 14.4-30.9 45.2-39.2 73.3-51.5 46.1-29.5 108.6-28.8 155.6-3.6-15.1 12.2-11.8 40.6-35.2 43.5-2.7.9-5.4 1.2-4.8-4.3 1.2-11.2 1-22.6 1.1-33.8 0-2-1-4.2-3.6-3.6-5.4 1.3-7.3 6-7.1 10.5.4 11.3-1.7 22.5-.2 33.9.2 1.8-9 6-14.3 7.1-3.2.6-2.9-4-3-7.2-1.3-8.3.2-45.6-5.4-48-1.9 1-4.9 2.4-4.9 3.8-.3 19.3-3.3 38.8 4.1 57.5 2.2 5.4-5.7 5-5.1 9.8zm10.4-1.4c19-21.3 54.3-8.4 62.3-41.7 4.1-12.4 10-24.7 24.4-26s21.6 10.5 26.3 21.9c11.7 28.1 4.7 54.8-9.3 80-14.8 25.3-51.3 41.2-80.2 43.6-17 3.9-14.4-9.5-15.6-21.5-1-9.5-3.8-19-12.6-25.4-4.5-3.3.2-25.6 4.7-30.9zm112.6-67.1c-4 .9-9.3-6-14.5-7.6-7.1-2.2-10.2-3.3-6.4-12.2 6.6-15.4-11.1-38.9-26.8-44-24.7-6.4-53.2 1.9-71.8-19.9 5.9-19.8 2.5-42 29.8-46 30.4 11.6 63.2-21.1 90.7.8 14.6 17.7-.7 37 20.9 57.7 13.7 14.7 21.1 26.3 11.3 42.5-7.8 12.9-17.6 25.1-33.2 28.7zm-86.1-58.2c33.7-2.9 64.9 9.3 53.1 47.4-5.9 9.5-12.7-.1-17-1.9-38.6-19.4-81.4-19.6-122.2-8.2 5.1-10.9 8.3-22.8 11.7-34.4 3.2-12.7 26.1-24.6 37.8-18.8s21.6 16.6 36.6 15.9zM450.1 964c-25.9 19.6-67.5 22.2-83.3 55.1-6.5 13.3-17.1 19-30.6 22.7-16.7-3.3-36.7-10.7-29-32.6 18.3-42.3-7.7-66.2 43.1-89.8 35.7-12.1 31.9-4.4 63.1-31.8 50-18.9 75.9 44.3 36.7 76.4zm-173 113.2c78.9-9 21.8-3.8 63.3 44.3 11.3 15.2 24.9 27.4 41.9 35.7 19.9 9.7 2.4 21.4-.5 29.3-12.1 32.3-38.7 33.3-63.1 17.3-5.6-3.7-9.2-11-13-17-11.9-19-31.1-28.2-50-37.7-35.3-24.6-22.2-67.4 21.4-71.9zm88.4 59c-18-13.6-29-33.2-34.4-55.3-2.5-10 11.5-27.9 25.5-33.8 12.9-5.4 23.4-.2 33.7 13.2 9.3 12 19.1 26.5 36.8 24.3 10.6-1.3 21-7.3 30.9-12.3 59.9-28 101 56.8 35.9 79-40.4 13.7-90.6 16.3-128.4-15.1zm35.9 29.4c40.6 10.8 96.9 5.9 126.6-26.8 4.8-5.9 7-3.9 10.2 1.4 11 18.5 25.4 33.6 45.2 42.9 3 1.4 3.5 2.6 3.5 8.8 2.8 33.4-29.6 59.4-61.3 50.5-47-14.4-78.9 25.6-109.4-1.7-16.5-14.1-18.5-36.7-20.1-57-.7-6.8 3.8-12.1 5.3-18.1zM674 903.8c-32.7-36.3 9-85.5-85.1-66.5 15.7-32.8 62-62.6 84.1-17.5 4.4 9 13.4 14.5 21.8 18.8 11.4 5.8 20 26.8 13.3 37.8-5.1 8.4-7.1 18.4-15.1 25.3-6.3 5.4-9.2 12-19 2.1zm86.3-404.2c-13-8.6-22.9-20.5-35.4-29.3-34.2-22.5-77.1-22.5-116.3-26 .5-1.1.7-2.5 1.5-3.3 4.5-4.9 1.7-12.3 6.6-17.5 2-2.1 3.4-2.7 5.4-2.5 20.6 2.6 41.5 3.9 61.8 8.3 79.1 14.7 65.9 72.2 148.8 89.1-25.6-.4-50.1-4.1-72.4-18.8zm-45-90.1c48.9 17.5 64.3 67.2 104.6 96.5-99.1-44.1-38.1-77.9-196.7-93.5-5.1-.9 0-7.7.6-11.4 2-12.6 14.4-7.5 19.6-7 24.8-.7 48.8 7.1 71.9 15.4zm120.2-174.6c-63-11.7-70.6 6.4-119.1 39.6-6.3 4-4-5.7-1.2-8.5 13.3-16.7-4.8-19.6 21-32.6 67.5-54.4 86.6-.2 173.6-8.4-27.1 6.9-50.3 12-74.3 9.9zm-121.2-20c72.1-72.5 106.2-15.8 186.9 1.5-20.9 2.1-39.8-2.9-59-6.3-18.6-3.3-35.8-14-55.6-11.1-23.2 4.8-46 16.9-63.1 32.9-11 10.3-12.8-6.7-20.2-5.4 3.7-3.9 7.1-8 11-11.6zm-55 23.5c14.5-5.2 30.1-7.2 44.6.6 24.5 12.8-17.7 38.1-14 65.6.1 7.6 1.1 15.2 2 22.8 6.5 39.1-29.2 72.4-65.5 49.2-44-25.6-34.4-71.3-7.9-104 10.5-14.9 23.2-28 40.8-34.2zM528.8 236c9.4-22.1 21.4-41.2 43.9-52 31.5-11.8 59.4 15.6 62.5 45.7 2.1 16.1-13 21.2-19.8 31.3-15.1 22.4-30.1 44.5-28.5 73.4.4 6.8 0 6.9-6.5 4.6-43-15.4-74-58.3-51.6-103zm-141.1-95.3c14.8.9 29.6.5 44.3 1.5 31.4 4.5 67.1 57 86.5 81.3 5.5 7.5 1.7 14-1.7 20.5-1.4 2.7-2-.6-2.4-1.1-71-88-63-78.7-169.3-106.3 15.7 1.5 29.1 3.2 42.6 4.1zm55.4 61.5c-28.2-30.7-70.3-30.4-101.4-57.8 45.2 15 94.3 12.4 125.1 53.2 15.6 18.6 31.6 36.9 46.6 55.9 4.3 5.5 1 13.6 1.4 20.4-3.1-.5-7.8.1-9.1-1.7-18.3-25.6-40.2-48.1-62.6-70zM305.4 388.4c26.4-29.6 72.1-78 114.4-58.4 16.4 8.3 33.6 14.8 49.7 23.5 5.5 2.9 8.9 9.9 13.4 17.2-63.9-40.1-122.8-32.9-177.5 17.7zm176.3 7.7c-44.7-30.2-103.1-34.4-152.3-12.7.5-5.8 5.8-5.8 9.5-7.6 35-22.1 60.1-31.9 100.2-13.7 17.3 6.8 34.9 12.9 52.5 19 4.4 1.5 3.2 4.1 3.7 7.6 2.2 15.8-4 13.7-13.6 7.4zm4-38.7c-25.1-22.1-7.2-63 19.4-73.4 14-3.9 11.1 10.5 15.4 16.5 11.9 16.4 24.8 31.1 42.9 40.6 8.7 4.5 19 6.9 25.2 14.9 6.6 8.6-1.1 15.3-5.7 21.4-9.6 13.2-22.6 24.3-46.4 26-7.8 1.6-12.7-10.2-19.3-19.1-8.3-11.5-21.2-17.7-31.5-26.9zm53 53.6c15.4.6 24.7-2.8 37.3-11.7 3 13.2-.6 31-15.5 35.1-10.8 6.3-36.9-20.6-21.8-23.4zm-33.6 15.4c-2.5-14.6-1.2-28.5-2.3-44.2 9.4 8.1 13.7 18.5 22.8 25.4 4.5 4 2.1 13.6 4.8 19.1 21.9 41.1 67.5 5 52.2-32-1.5-3.8 8.1-11 10.7-17.4 5.3-12.7 8.4-6.8 16.4-1.4 14.2 9.5 4.6 19.6 2.5 28-21.8 92.3-93 170.6-107.1 22.5zm-53 255.5c5-28.9 10-57.6 22.2-84.5 10-27.8 28.5-51.3 40-78.2 7.4-21.3 18 9.5 40.5-3.1-44.4 70.8-67.2 152.6-67.7 235.8.9 12.2-15.6-5.4-40.7 6.5 3.1-25.4 1.3-51 5.7-76.5zm-38.7 125.2c3.3-28.6 39.8-49.7 67.1-41.1 37.8 17.3 78.6-28.6 103.1 15.4 7.7 15.2 3.3 31.8-3.3 47.7-5.8 13.6-13.7 14.1-26.1 10.3-16.1-5.2-27.5 19.6-29.8 8.8-6-15-19.4-20.1-33.9-21-15.2-1-28.2-7.3-41.6-13.1-5.9-2.5-12.1-4.1-14-3.7-8.9 1-13.5-.6-17.5 2.4-1 .7-2.7.5-4 .7 0-2.1-.2-4.2 0-6.4zM400 835.8c30.7-34.1 58.6 3.3 94.1 3.2 17.1 1.1 29.3 21.1 22.2 37.1-1.4 3.2-1.7 6.8-2.2 10.3-1.6 11.7-12.5 7-18.6 10.6-6.8 4-14.1 7.5-17.8 16.6-3.6-8.2-5.3-16.3-9.9-23.6-15-21.5-55.4-24.2-71.7-2.7-12.6 16.1-31.1 16.7-48.2 21.8-9.8 4.8-19.9 15.9-18.2-1.6-3.2-27.2 2.2-56.7 36.2-55.2 14.2-.1 25.2-7.1 34.1-16.5zm-190.3-15.3c-62.5-17.7-93.5-78-120.1-132.2-5.5-13 9-8.3 11.6-8.5 16.3-2.1 33.1 2 49.3-1-.7-3.2-.4-7.2-2.1-9.6-18.2-25.3-22.8-54.4-25.8-84.6-4.8-50-6.5-104.2-37.9-145.5 74.9 6.1 150.7 30.3 207.7 80.3 8.1 7.3 11.4.8 15.4-4.3 14.2-18.2 27-37.2 34.3-59.8 78.1 77.9 78.2 203.6 39.4 300.9-16.4 42.6-12.3 16-45.1 26.5-8.7 2.8-10.7-5.4-14.8-9.3-4.8-4.5-8.4-10.6-11.9-16.4-5.8-9.8 5.3-15.6 6.1-23.7 1.7-19.1 21.3-22.8 30-35.8 18.3-27.7 33.5-58.7 35.3-92.2-3.9-8.4-10.1 3.6-9.7 7.7-6.5 31.9-17.4 68.2-42.7 90-2.9 2-3.7 1.4-3.1-.5 15.4-55.4 24.5-113.8 21.7-171.4 0-2.3-1.6-2.4-3.1-2-3.4.8-5.5 3.7-4.8 6.5 3.5 25.5.6 47.8-4.7 74.2-9.3-22.5-11.2-42.3-13.5-64.8-1.3-2.6-6.5-2.6-6 1.5-.3 20.4-.9 41.3 9.8 59.3 17 22.6-10.9 109.4-22.3 134.8-.2.5-2.1 3-3.3.4-11.4-24.2-24-47.9-33.4-72.9-3.1-8.4 1.8-20 3.5-30.1 3.7-27.7.6-56.3-6.1-83.3-1-3.7-3.1-7.3-6.1-6.7-4.2.8-.5 4-.2 6.3 5 33.7 9.3 67 1 100.7-10-30.3-31.2-55.3-42.6-84 1.1-23-2.6-45.1-12.3-66-1.4-3-6.1-7.7-6.3-7.6-7.7 5.8.2 10.8 1.7 15.6 5 16.3 9 32.5 8.6 49.9-17.2-18.9-39.4-56.9-62.1-65.3.5 12.5 15.4 22 22.6 31.3 21 24.3 42.5 50.3 55.3 79.5-28.9-7-58.9-32.1-76-56.1-1.2-1.5-2.9-4.5-5.4-2.6-1.9 1.4-2.6 3.2-.7 6.4 20.3 32.2 52.9 53.2 88 65.7 7.9 3.2 9.6 13.8 13.2 21.7 8 20 20.8 38.6 26.6 59.1-34.3-10.5-62.5-33-85.2-60-2-2.1-3.9-5.5-7.1-3.4-9.6 6.8 52.1 58.8 62.1 60.8 45.9 21.4 30.5 1.5 53.1 48.8 1.4 2.5 4.8 4.7 2.7 7.5-.8 1-5-1-7.6-.8-18.2 1.9-34.6-6.4-52.1-8.8-16.1-2.2-24.9-13.5-32-28.5-5.8-12.4-15.2-24.4-29.8-29.6-1.6-.5-2.7-2.2-3.9.3-1 2 .1 3.1 1.5 4.5 13 12.8 25.5 24.3 32.5 42-18.4-4.5-34.2-14.8-50.9-23.3-2.5-1.4-3.6-.4-4.3 1.3-5.7 16 78.7 41.7 93.1 43.3 2.6.5 4.9 2.3 7.3 3.5-26.4 13.3-57.7 12.8-84.6.1-2-1-4.7-2.6-6.1-.5s.4 4.1 2.9 5.8c22 14.6 46.1 14.1 70.6 9.8 10.7-1.8 19.9-6.1 29-12.8 4.9-3.6 15.6.8 23.7 1.5 3.9.3 7.8 1 11.6.8 15.4-1 12.9 17.4 23.5 22.4-19.8.2-40.5-7-57.6 6.7-11.4 8.4-17.3 21.7-28.2 30.1-7.6 5.4-15.9-1.2-23.2-3.6zm-19 59.6c-.4-13.6 11-18.4 21.8-23.4 31.4-12.8 39.6-64.5 77.6-61.1 21.6 4.1 41.4-3.2 61.9-4.9 15.3-1.3 43.9 16.6 44.3 31.8.2 7-9.8 12.6-17.6 16.4-12.3 6.1-27 1-39 9.6-22.2 13.9-19.5 37.6-18.8 60.9-23.5-26.1-73.8-26.7-89.5 6.8-4.2 9.5-8.6-.4-12 2.4-12.3-20.8-34.5-3.6-28.7-38.5zm-17.5 230.7c-15.5-3.1-32.6-25.4-34.5-41.2-1.2-9.9-6.4-19-12-27.7-9.7-15.2-24.1-28.5-21.7-49 1-8.6 7.6-14.9 9.8-22.9 8.7-24 2.6-51.7 32.9-58.5 19.1-8.7 82.9 3.2 77.5 31.2-2 10.8 1.5 21.8 3.6 32.6 3.3 17.5-5.6 32.7-10.8 48.2-6.6 21.2 10.3 47.8 31.8 52.5-14.5 5.9-21.5 16.7-25.3 30.5-1.4 5-8 3.2-11.7 3.9-13 2.8-26.5 2.9-39.6.4zm-14.1 83c-24.8-37 22.9-71.3 58.3-73.3 8.7-1 8.2 6.4 10.6 11.6 8.2 17.7 24.3 27.2 40.3 36 15 8.3 26.1 20 34.5 34.4 14.4 21.6 52.9 30.3 72.8 10.8-20 52.6-30.9 82.9-93 63.3-19.1-.2-38.3 3.6-57.2-.2-10.2-2-20.9-6.6-25.5-15.9-11.7-23.5-23.7-46.5-40.8-66.7zm304.6 165.9c-6 54.5-58.3 125.3-102 157-4.1-21.7-6.8-43.5-18.4-63.3-9.9-17-16.2-1.1-21.7 2.5-36.5 22.2-77.8 34.6-118.5 46-37.1 9.7-74.1 22.4-112.6 25.1-3-.2-4.6 0-2.1-3.6 19.2-28.5 35.4-63.4 30-98.5-1.2-6-9.9-1.9-14.2-.8-19.3 5.2-37.9 1.9-57.1-1.3 33.6-39.4 53.1-87.7 94.3-120.4 14.5-12.3 29.6-23.6 45.2-34.3 2.9-2 4.5-2 6.8.7 29.1 34.9 76 6.4 112.3 23.6-17.6 6.3-36.2 12.9-54.6 20-6.8 2.6-16.8-1-24.6-3.7-7.3-2.6-14.6-2-21.8-2.5-6.8-2.4-59.5 8.9-55.3 17.8 2.1 3.8 8.2 2.1 9.8.8 14-11.3 53.6-14.7 69.9-6.8 1.4.8 2.1 2.2 0 3.1-38.9 16.5-77.5 33.9-109.5 62.1-1.7 1.4-4.1 3.6-2.2 5.2 8.3 6.8 55.3-38 65.4-34.2-7.9 12.8-20.4 23.1-32.1 32.6-5.6 3.2-2 9.3 3.5 5.1 17.6-9.9 30.1-24.4 40-41.8 5.7-10.1 18-10.4 27.4-14.5 35.6-15.2 67.8-29.3 106.1-39.4-14.6 16.4-27.4 30.8-40.3 45.1-6.7 7.4-16.3 3.3-24.4 5.5-11.3 3.5-64.1 15.6-62 29.1 2.1 3.8 4 .1 5.5-.6 20.7-9.1 43.2-21.1 65.8-21.1-14 17.8-32.8 32.4-48.5 49.1-14.1 15.3-19.7 19.3-39.9 23.9-9.6 3.4-53 16-48.1 29 2.9 3.3 4.3-.5 6.3-1.9 16.2-10.3 33.2-19.3 52.8-20.4-16.2 14.5-32.5 28.8-48.9 43.1-1.6 1.3-.6 2.4.4 3.3 10.9 5.6 45.8-31.7 54.2-40.5 20.3-20.4 42.2-37.6 61-60.1 1.5 29.4-10.2 53-22.2 76.6-.6 1.3-2.5 4.3.7 5.5 2.3.8 3.7-.1 5.3-2.5 13.4-20.8 25.9-44.6 23.8-70.1-2.6-17.5 10.1-25 20.8-34.4 7.4-6.5 13.6-14.4 20.4-21.7 6.3-8 .5 26-.4 28.6-3.8 15.6-6.1 31.6-8.8 47.4-.5 2.8-1.3 7 2.3 7.8 3.8.9 4.7-4.1 5.2-6.2 7.5-29.5 14.1-59.6 12.6-90.2 6.9-11.7 18.4-22.1 27-33.3 5.7 20.9 16.3 20.7 5.1 41.8-8.5 23.4-12.7 47-6.5 71.7.9 3.5-.1 9.3 4.9 8.3 6.3-1.3 3.8-8.1 3.1-12-3.3-23.5-3.2-49.6 9.1-70.2 12.7 41.8 22.5 86.1 19.1 130 0 1.6-.5 3.8 2.1 3.6 1.4-.2 3.6-1.3 3.8-2.3 6.8-31.2.4-60.1-4-91.7 9.9 12 17.2 23.7 20.1 37.8.6 2.8 1 5.8 2.4 8.3 2.4 3.9 8.9 3.2 7.7-2.5-2.6-17.1-6.7-34.5-21.4-44.7-16.6-11.6-14.7-30.7-22.5-45.7-5-9.7-7.5-20.6-12.9-30-4.2-7.3-3.1-12.3 1.6-18.1 8.4-10.3 13.7-22.3 19.3-38.6 0 16.1.8 28.5-.2 40.7-1.7 21.8 22 54.9 43.5 59.9 11.9 2.8 23.6 5.9 35.5 8.9 11 2.3 5.9 12.6 5.6 17.3zm142.1-68c-8.8 15.8-24.8 12.6-36.9 19.1-20.7 11.6-31.8 34.7-56 40.5-16.2 4.5-26.4-5.6-38.5-12.7-12.7-7.5-27.8-8.7-42-12.2-46.8-10.6-47-65.4-42.5-104.8 13.4 34.8 47.4 48.8 80.7 33.2 15.7-5.9 31.9-6.2 49-2.3 33.8 9.3 72-10.4 76.4-51.7 3.7 12.6 13.9 20.9 17.5 33.5 6.1 20.7 2.9 38.5-7.7 57.4zm165.9-182.2c11.8 25.5-20.3 29.3-20.6 62.8-4.5 33-9.7 45.6-48.4 48.9-31.5 8.6-35.8 27.6-72.1 5.3-14.7-9-22.4-22.4-28.8-37.3-.8-2-.5-2.1 11.6-2.1 28.8 2.4 49-12.2 60.1-38.7 9.8-25.9 46.5-32.7 39.7-65.2-3.5-19.4 8.5-10.7 15.7-8 17.9 6.7 33.8 16.3 42.8 34.3zm60.2-74.1c-6.5 43.6-62.8 36.5-94.6 31.2-8.8-.8-17.8-4.3-25.6-8.6-5.4-2.9-3.4-10.7-4.6-16.3-3-13.5 4.6-23.5 10.4-34.2 12.7-23.2 1.1-56.7-26.8-64.5-2.6-.8-1.5-2.7-1.4-4.1.5-7.1-.8-14.2-3.8-20.7 15.2-5.5 24-16.9 29.6-30.9 9-27.1 44.7-45.5 63.5-17 7.3 9.4 11.4 21.1 21.2 28.7 84 60.5 35.2 55.8 32.1 136.4z"/></g><g><path d="M52 1548v15l-37 37h946l-37-37v-15H52M52 52V37.7L14.3 0H0v1600h15l37-37V52m872 0V37.7L961.7 0H14.3L52 37.7V52h872m52-52h-14.3L924 37.7V1563l37 37h15V0z"/><path d="M961 1600h15V0h-14.3L924 37.7V1563l37 37H0V0H961.7M52 52V37.7L14.3 0m.7 1600l37-37V52h872m0 1496H52" fill="none" stroke="#333" stroke-width="2" stroke-linecap="square" stroke-miterlimit="3"/></g></svg>