<svg xmlns="http://www.w3.org/2000/svg" xmlns:xlink="http://www.w3.org/1999/xlink" viewBox="0 0 976 1600"><style>.st2{fill:#333}</style><path d="M960 22v1556c0 3.3-2.7 6-6 6H22c-3.3 0-6-2.7-6-6V22c0-3.3 2.7-6 6-6h932c3.3 0 6 2.7 6 6z" fill="#fff" id="Paper_Backing"/><g id="Wikipedia_Cropped"><defs><path id="SVGID_1_" d="M960 22v1556c0 3.3-2.7 6-6 6H22c-3.3 0-6-2.7-6-6V22c0-3.3 2.7-6 6-6h932c3.3 0 6 2.7 6 6z"/></defs><clipPath id="SVGID_2_"><use xlink:href="#SVGID_1_" overflow="visible"/></clipPath><g clip-path="url(#SVGID_2_)"><path class="st2" d="M663.7 1604c-17.4 2.3 46.9-78.1 53.8-81.5 30.7-51.3 69-102.3 93.1-159.6 22.2-63.2-15.8-.9-16.3-.3-13.6 21.3-29.5 42.2-43.6 63-6.6 10.1-15.9 24.9-26.7 32.9-7.6 6.2-7.3 19.1-16.7 25.7-16.4 16-25.2 36.6-42.5 51.2-56.6 90.8-38.1-7.3-42.6-53 .1-59.7-2.9-120.6-.6-178.3-5.1-32.9 6.9-29.8 33.2-31.9 3.1.7 5.8 3.8 9.2 1.6 13.8-8.2 27.4-4.2 42.1-6.6 4.7-1.2 7.3 3.8 11.5 4 6.3-3.6 16.4-5.1 19.8-11.4 4.4-11.7-8.4-16.9-12.8-26.7-1-12.5-14.3-21.5-17.3-34.5-2.2-8-16.2-10.3-13-22.6.5-2.8-1.1-5.6-3.8-6.6-7-3.3-12.8-21.1-18.5-28.5-10.2-8-11.5-23-17.6-32.1-9-5-10.8-21.9-16.3-29.7-5.4-4.9-12.4-14.9-14.5-23.6-10.2-42-.6-86.2-4.2-128.1-2.6-15.3 2.7-31.5.4-45.5-1.4-5.2 1.1-9.2-.2-13.8-3.7-6.3 2.6-16.4 1.3-23.5-1.9-28.5-1.9-63.3.5-91.3-8.2-15.2 2.3-32.8-.3-46.5-4.4-13.7-2-29.9-1.1-44-3.2-16.8.3-34.7-.1-50.7-3.9-17.6-3.4-36-1.4-52.9-1.8-12.8-6.5-28.5-2.1-40.8 3.9-4.6-.6-8.8-3.4-12.2 3.3-12.1-3-24.8 1.2-38.1 1.3-7.2-9.9-18.1-14.8-8.3-1.2 12.7-.6 27.1-1 41.6-11.1 148.2-1.7 301.2-7.3 450.7.2 46-27.6-16.3-27.1-30.9-1.7-10.7-13.2-20.3-13.2-31.8-4.2-8.5-1.7-17.2-4.6-24.5-5.2-4.9-6.5-11.5-7.7-17.3-4.9-16.7-8.5-32.6-12.8-48.9-3.7-16.5-11-32.2-8-48.4-9.1-17.4-13.5-36.9-12.9-56.5-9.5-18.8-12.9-41.4-12-60.8-12.5-18.6-8.4-43.4-13.8-64.7-4.3-20.2 9.6-40 14.6-58.7 14.7-38.2 33.5-74.5 56.9-107 11-12.6 20.5-30 34.6-36.4 6.2 5.2 6 16 12.1 22.4 27 8.5-.9-63.7 48.9 17.3 47.8 90.7 71.6 196 89.9 297.1 22.6 121.8 36.4 245.7 45.1 370.7 4.9 42.8 5 86.6 8.9 128.3 4.5 26.6-3.8 59.6 8.2 83 12.2-1.2 22.9-20.8 36-17.4 5.1 7.7-12.7 33.6 6.5 29.8 14.6-2.9 23-20.2 34.3-23.5 42.6 17.8 82.9 74 104.4 120.4 6.2 308 31.6 186.8-315.7 209.7zm-494.4 0c-4.2-2.3-8.3-5.4-12.7-7.8-3.2-7-3.6-21.6-2-29.8-2.6-14.7.3-30.7-3-45.6.4-67.7-4.8-137.5-2-205.4-1.8-14.8-4.5-31.6-.4-46.4-5.3-17-7.2-53.1.7-65.5 2.1-11.6-15.3-23.1-5.5-38.2-1-16.1-4.6-34-2.3-50.8-5-24.8-1.8-51.5-2.9-76-4.1-9.9-2.8-22.7-.5-32.8-1.7-9.8-5.3-22.3 1.6-33.4 3.1-7.3-9.6-9.7-3.8-17.4-.2-15.5-2-30.3-2.2-46.5.5-11.3-.6-22.6-3.2-33.6-2.6-12.5 3.3-18.1-1.8-30.8-18.8-42.6-18.7 99.8-18.3 108.5-3.3 47.1-1.2 93.7-2.5 140.9-2.5 7.9 2.6 11.5-1.2 19.7-2.7 2.3-5 5.6-2.8 9.1 9.3 18.1-2.6 43.8 3.7 63.1-3.6 32-.4 64.4 1.7 96.9 2.3 15.2-.2 30.7-1.7 44.4 6.7 9.3 1.9 21.4 3 32.9.5 3.7 1.1 8.6-1.7 11.5-5.2 9 6.4 17 1.6 29.2 1.6 24.5-2 51.2 1.6 75.2.7 39.3-1.4 75.7 2.4 114.6 22.8 28.5-109.7 7.9-115.1 13.8-10.7-27-.7-93.3-4-124.3.2-80.8.2-172.6 0-252.7.5-151.4-11.9-325 74.5-455.2 40.2-47.7 17.3-28.6 48.9-1.4 14-1.3 8-29.7 20.4-27.6 21.6 16.8 41.6 57.4 50.7 85.9 55.2 145.3 69.8 302.5 93.1 456.4 146.2-9.7 71.4 50.3 105.2-152.3 28.1 22.2 82.6 164.5 122.1 154.9 17.6.9 75.1-21 72.4 7-2.6 68.1-1.5 130-1.1 199.1.6 32.1.5 64.7.5 96.6-2.3 11.7-27.9-9.8-31.4-13.6-70.1-44.5-130.5-104.1-189-161.9-7.1-3.3-8.9-12.7-14.9-16.6-7.5-1.9-7.1-6.6-11.8-11.9-8.3-6.7-14 5.9-6.6 11.2 48.1 60.4 95.1 131.5 156.3 180.6 5.3 4 9.6 8.3 13.9 12.2 4.5 1.3 6.3 5.2 5.4 9.8.9 11.3-331.4.2-335.3 4zm65.3-348c-23.4 27 24.3 76.1 52.6 75.1 2.4-24.6-18.7-83.3-52.6-75.1z"/><path d="M281.4 1329.8c-24-2-74.2-53.3-42.1-73.4 24.7-4.3 58.4 62 42.1 73.4zm552.9-30.4c-11.7-19 13.5-71.6 42.5-65.7 20.8 20.5-18.6 59.6-42.5 65.7zM118.8 771.5c-47.8-33.3-4.2-131.8 18-81.4.2 27.6 4.2 64.5-18 81.4zM602.5 393c-11.3-1.8-35.8-71-1.4-84.4 28.2 3.2 13.1 70.9 1.4 84.4z" fill="#ffeb5c"/><path class="st2" d="M583.7 1604c-5-4.5-94.5 9.9-87.2-8.6 3.3-8.3-7.3-12.2-11.9-17.2-34.4-28.4-68.6-69.4-92.4-100.8-14.8-19.9-30.8-39.7-46.1-58.7-4.1-8.1-23.9-21.1-16.9-30.3 79.7 61.9 151.6 158.3 248.8 205 13.5-6.7 2-31.7 5.1-44.9-.1-61.6.1-122.9-.3-184.2 5.8-28.3-18.3-86.2 23.9-87.2 9.5-2.4 20.5 2.1 14.3 13.2-.6 50.3.8 101.2 1.8 152 5.9 17.3-12.7 145 10.4 133.2 60.7-69.3 115.2-142.9 167.1-220.4 56.2-56.2-72.3 155.4-87.9 168.9-62.3 77.1-23.7 84.1-128.7 80zm-467.3 0c-7.9-249.3-15.9-511.1 0-763.4 5.3-46.4 17.7 1.5 16.1 20.3 9.1 192.1 13.2 384.3 18.6 576.6.5 48.5 4.8 100.9 2.8 149-1.9 7 7.4 8.9 7.2 14.6.5 7-41.9 1-44.7 2.9zM616 1034.2c-48.2-54.7-17.3-138.8-25-206.1 2.1-110.7-3.1-224 5.7-334.2 14.6-272.5 28.4 244 24.3 287.3-.1 45.2-.1 92.4-.1 137.6-4 36.7 8.1 83.3-4.9 115.4z"/><path d="M507.6 1283.7c-32.9-5-42.7-52.6-65.6-74.3-40.5-64.7-78.5-131.9-103.8-203.7-70-174.1-106.6-363-122.7-551-2.3-36.3-5.2-72.4-10-108.4-.5-16.6-10.5-41.3 16.9-31.3 74 1 148 4 222.2 7.3 8.2-.2 19.5 2 14.6 12.8-.4 45.5 4.6 91.4 6.3 137 5.4 101.4 27.6 201.1 48 300.2 35.6 170.5 119.4 323.6 212 468.8l-.1-.1c28.9 31.9-33.6 20.8-49.7 25.1-56.2 4.5-112 10.7-168.1 17.6z" fill="#d81e1e"/><path d="M785.2 344.5c1.2 23.2-31.5 18.3-28.3 0 2-15.4 30-15.1 28.3 0zm-23.5-143.8c9.3-.3 11.6-9.9 12.7-16.8 1.1-6.5-5.8-11.6-11.8-10.4-6.3 1.2-14.7 3.4-13.7 14-1.1 9.1 5.4 13.4 12.8 13.2zM734 55c11.5-.1 12.8-24.3 1.2-24-15.3-2.3-18 27.4-1.2 24zm87-30.4c12.2 1.1 10.9-22.2.7-21.9-16.9.2-13.5 22.3-.7 21.9zm28.1 162.3c0 17.4 23.1 23.6 24.4 2.4-2.5-3.8 0-12.4-8.6-12-6.2.3-16.7-2.6-15.8 9.6zm-4.5-65.1c13.2 1.9 18.8-26.1 1.5-22.8-5.9-.7-11.3.3-10.9 7.6.3 6.5 2 14.9 9.4 15.2zM795 93.1c12.1.6 9.8-23 .9-22.7-15.9-1.7-18.7 24.1-.9 22.7zm-74.4 44.2c14.8-1.1 17.7-32.7 2.1-32.1-10.4 1.2-15.6 8.8-14.4 19 .9 6 1.3 14.6 12.3 13.1zM789 252c.5 7 6.5 10.2 11.9 9.8 16.2-2 15.5-23.6-1.5-24.9-6.5 2.7-10.9 7.4-10.4 15.1zm16.8 223.3c-4.9.4-12.2 1.2-11 10.1 1 5.5 1.6 12 9.2 12 12.8.6 15.2-22.4 1.8-22.1zm22.5-61.8c.5 6 .2 13.4 14 13.9 6.3.5 8.2-7.4 9.1-15.1 2.8-18.1-25.6-16.4-23.1 1.2zM524.8 219.2c19.1 1.9 22-28.5 3.9-28-8.3.1-13.7 5.9-13.5 14.1.3 6-.8 15.4 9.6 13.9zM506.9 65c12 .3 17.5-22 3.2-22-13.9-1.7-19.5 21.9-3.2 22zm34.7 63.8c8.1 0 13.9-3.7 11.2-13.5 5.8-18.5-24.3-15.4-23.5-.4 0 6.8 3.8 13.9 12.3 13.9zM441.1 97.6c-.4 5.5 2.5 8.7 8.7 7.3 10.7 2.5 10.3-6.3 10.8-12.1.4-5.6-5.4-6-9.9-6.1-7.5-.3-9.3 5.2-9.6 10.9zm31.5 75.9c11 1.1 12.3-23-1.1-20.6-14.9-2-18.8 21.2 1.1 20.6zM650 133.2c8.2-1.3 5.6-10.8 6.6-16.9s-4.8-9.6-10.5-9.1-13.6 2-12.8 9.6 3 16.3 16.7 16.4zm10.2-72.6c2.7-.7 8.9-2.9 8.5-10.3 1.9-17.5-21.4-13.4-21.3 1.3-.1 4.1 2.1 10.3 12.8 9zm-67.3-4.7c7.2-1.8 5.4-7.8 5.8-9.1 1.8-11.1-3.7-12.7-9.3-12.8-16.5-1.1-14.3 28.7 3.5 21.9zM696 246.8c6.3.3 11.6-2.7 11.1-10.6.8-11-8.3-11.6-15.1-12.9-14.7-1.6-10.3 24.9 4 23.5zM597.2 165c-17.1-3.5-12.6 29.6 3.3 26.7 15.1-.6 14.5-30.1-3.3-26.7zM883 637.6c13.1.2 13.2-23.4-.2-22.4-6.7.1-10 5.2-9.8 12.8-1.5 7.4 4.7 9.5 10 9.6zm39.9-483c11.1.4 12-28.1-1-25.7-18.4-.3-16.7 28.2 1 25.7zm-25.4 288.8c.9 16.9 24.6 12.5 23.7-3.5.2-8.5-5.3-12.9-12.3-12.7-9.4.4-11.3 9-11.4 16.2zm-45.2 587.4c9.2-.4 12.1-9.2 12.1-16 0-7.1-4.6-13.1-14.1-12-10 1.1-6.5 10-9.6 14 .6 8.5 3.8 14.4 11.6 14zM835 847.7c-5.6 1.6-12 2.7-12.1 11.2-.2 7.8 2.8 13.4 11.1 13.2 15.2.3 17.6-23.4 1-24.4zm112.4-631.6c.5-18.8-24.4-16.1-24.3-1.1-.6 17.3 24.1 19.3 24.3 1.1zm-13.9 304.5c-.8-15.9-24.7-10.5-22.6 4.5-.1 7.3 1.3 13.2 10.1 12 13.4.9 12.3-9.1 12.5-16.5zm5.2-429.7c16-.4 11.9-24.1-1.1-22-13.9-.1-11.9 22.6 1.1 22zm-77.1 416.3c-1.5 19.7 25.3 18 23.9-1 .4-6.5-2.1-12.2-10.4-11.1-9.5-1.4-13.1 4.5-13.5 12.1zm51.8 378.7c-9.4 1.2-8.1 10.1-7.8 16.7.3 6.2 4.9 8.9 11.1 8.5 19-1 14.4-29.1-3.3-25.2zm1.1-219c-8.7.1-12.3 4.1-11.3 14.3.5 4.7 1 11.8 8.5 11.7 15.3 1.8 19.5-28.4 2.8-26zm-66.8 19.3c.2 4.6 1.4 13.2 8.3 12.3 5.5-.7 17 3 14.9-10.4 1.9-11.6-7.2-12.1-14.6-12.8-6.9-.8-8.8 6.8-8.6 10.9zm86.7 104c1.1-17.2-25.8-12.6-21.5 3.6 1.1 7.1 6.2 7.2 14.2 7.8 6 .9 6.6-5.8 7.3-11.4zm-53-422.1c-.1 16.2 26.2 15.3 24.2-1.7.1-17.3-25.5-11.7-24.2 1.7zm9.2 358.7c-7.8.3-8.9 5.9-9.7 12.1-1.3 10.6 6.6 11.2 13 10.6 8.3-.8 7.2-9.3 7.5-14.6.4-5.7-4.6-8.5-10.8-8.1zm-2.7-673.1c6.2-.5 10.7-4.5 9.2-11.7.1-6.6-1-13.8-8.1-13.7-15.7-.8-18.6 27.2-1.1 25.4zm11.1 789c.4-16.9-23.4-14.1-22.7 2.4.1 14.7 23.5 11.7 22.7-2.4zM889.1 251c-8.4-1.6-9.8 5.6-9.7 10.5.1 4.8-1.3 12.4 7.3 13.6 16.7 3.3 20.2-26 2.4-24.1zM861 783c-12.6.4-11.1 24.7 7.6 22.1 8.1-.2 6-6 6.4-10.3 2.5-12.7-6.1-12.1-14-11.8zM444.8 51.6c12.9 1.7 13.7-20.6.7-20.6-7.9-.5-7.4 6.2-8.6 11-2.2 7.5 3.5 9.2 7.9 9.6zm424.8 1105.7c16.7 1 18.1-23.5 3-24.5-13.7-2.2-15.5 26.4-3 24.5zm-4.8-838.1c1.2-7.1-2.8-11.2-10.6-10.2-11.6-2-13.2 6.5-13.8 14.4.9 13.5 24.4 8.3 24.4-4.2zM861 915.1c11.3-1.5 9-11.9 9.5-18.7.5-7-6.7-5.6-11.5-5.7-9.3-.3-10.3 6-10.1 14-1.5 8.8 4.3 11.5 12.1 10.4zM376 99.6c-2.3 13.9 19.1 19.1 21.2 4.4-1.6-5.7-1.3-14-9.1-14.6-5.2-.3-11.6 2.4-12.1 10.2zM45.9 543.9c-.4 13.9 18 15.4 18.3.5-.3-11.9-19-12.9-18.3-.5zm360.8-359c16-1 15.6-24.5-.7-23.2-6.4.4-5.2 7.3-7.3 12.3 2.6 3.9-.3 11.4 8 10.9zM53.5 314.7c-13.4-1.1-14.4 23.7-.3 20.2 9.5 2.2 9.1-5.4 9.6-10.9.7-6.1-4.7-9.3-9.3-9.3zM46 456.9c14.4 4.1 14.8-21.4.6-18.3-5.4.4-9.6 1.6-9.8 8.5s.7 11.8 9.2 9.8zm-.8-215.7c14.1.2 19.9-21.4 3.7-22-11.2-1.2-15.4 22.4-3.7 22zm69 293.5c5.6.3 5.5-6.6 5.6-10.5.2-6.6-2.5-12-11.4-11.2-9.7-2.1-8.6 7.4-8.5 11.4.4 7.5 8.3 9.9 14.3 10.3zM58.5 61c8.9 1.1 9.9-4.6 10.6-11 .9-7.4-5-10.5-9.5-10.5C48.7 38.6 44.7 64 58.5 61zm49.3 1532.2C67.4 1580 35.6 1549.7.1 1527.5c-2.5 12.5 44.9 39.7 55.5 47.2 2.9 3.7 68.7 37.8 52.2 18.5zm-5.5-1454.6c6.2-.4 13.4-3 13.3-11.3 0-4.9-.4-12.4-7.1-11.8s-14.8 2.7-13.5 13.4c-1.6 5.9 2.2 10.1 7.3 9.7zM83 186.8c15.3 1.5 20.7-22.7 2.2-19.9-7 .3-8.6 4.6-8.2 11.2-1 4.4.9 8.6 6 8.7zm1.7 210.7c11.6 0 12.5-20.4-2.7-19.4-14.1-.5-9.7 20.9 2.7 19.4zm44.3-76.6c1.6-16.2-20-15.3-18 .9-.9 6.1 1.7 9.3 8.4 9.3 7 0 9.7-4.1 9.6-10.2zm514.2 845.6c-2.3-1.8-3.5.3-4.7 1.2-29.4 24.6-71.7 47.9-108.2 21.9-40.4-33.4-26.4-92.9-59.8-131.8-6.6-8.8-9.1-18.7-5.6-30.4 3.1-10.4 12.8-20.7 3.8-32.7 48.5-27.1 35.7-106.7-23.6-73.6 4.6-16.4 11.8-32 21.3-46.1 1.3-1.8.9-5.4 0-7.7-.4-1-4-.8-6.1-.9-19.5-.6-41.1 30.7-63.7 28.7-21.6-3.3-.2 29.6 33.8 4.1 1.5-.9 3.5-1.2 5.3-1.8 0 1.9.8 4.4-.1 5.7-10.5 15.7-13 34.5-20 51.5-2.2 5.3-2.9 12.8 2.8 16.1 5.4 3.2 10.8-2.1 12.4-6.5 6-16.3 25.9-40.9 45.1-34.3 6.3 2.9 7.3 8.6 7.3 14.8 0 23-17.5 38.8-39.9 36.6-5.3-.5-11.4 2.1-9.8 8.8 1.2 13.9 30.2 10.4 24.6 19.4-27 44.6 17.9 66.1 24.7 107.8 9.3 57.7 35.4 113.9 104.3 93.9 23.5-6.4 43.7-17.6 56.3-39.5.6-1.6 2.2-3.3-.2-5.2zM936.9 1408c0 10.3-32.6 26.9-41.1 33.8-40.3 29.4-92.5 41.5-141.5 44.5-20.9.7-18 21.1-29.3 29-1.8 1.3 1.8 1.8 3 1.7 71.2-1.3 143.2-22.8 199.5-67.3 2.1-1.8 4.8-4.6 7.7-1.3 2.6 2.9-.7 4.2-2.4 5.7-11.9 11-26.5 17.6-40 26-14.6 9-28.7 18.3-44.9 23.9-34.4 11.4-73.8 22.6-109.8 20.3-27-4.8-30 18-43.4 31.8-7.4 7.8-1.7 6.8 4.2 7.2 11.5.7 23 3.5 34.4 3.1 43.7-1.8 87.1-9.8 127.7-26.3 26-8.9 47.2-25.9 69.5-41.2 1.6-1.1 2.8-3 4.3-.6 1.6 11.6-27.8 23.1-35.6 30.5-60.7 39.6-142.1 53.7-212.7 38.9-.9-.4-3.7 2.7-5 4.6-6 9.2-11.9 18.6-17.8 27.8-2 3-6.6 11.7-10 8.7-1.2-2.6.2-7.3 2-10.1 17.7-25.8 35.3-51.6 53.6-76.8 38.5-52.4 71.9-108.5 100.7-166.8.8-1.6.7-3.6 1.7-8.9-55.5 81.8-111.4 159.4-176.5 233.4-1.3 1.6-2.6 4.1-4.3 4.4-9.7 2.1-12.4-1.9-12.3-11.9.6-43.2.5-86.4.2-129.7-.1-19.5-2-38.9-1.6-58.3.3-25.8 3.1-51-1.8-76.7-4.3-18.1 13.5-27.6-6.3-26.8-22 3.7-22.8 3-22.5 29.3.4 79.5.6 159 .5 238.6 0 13.5.7 27 .9 40.4 1.3 5.7-2.7 14.4-9.8 11.1-34.4-23.9-72-43.4-102.9-72.3-22.8-17.7-42.7-38.7-63.8-58.2-22.4-18.5-40.7-41-61.7-60.6-5.4-5.1-11.9-9.5-15.2-16.6-.3-.7-2.6-1.3-3-.9-1.3 1.1-.6 2.3.5 3.6 21.2 26.5 42.9 52.7 63.2 79.9 30.5 40.4 64.1 78.1 103.4 110.2 3.8 2.8 7.3 9 1.7 10.2-6.6-2.5-11.5-10.4-17.7-14.2-8.2-6.3-16.6-.9-24.6.6-15.2 2.8-30.6 4-46 3.6-19.5 4.5-39.6-1.8-59.2-3.3-22.9-2.9-48.7-5.6-68.3-17.8 11-4.8 22.8 3.6 33.9 4.6 50.6 7.3 100 13 150.8.7-10.5-10.2-20.8-20.4-31.4-30.2-.9-.8-4.2 1.3-6.4 1.4-45 4.2-90.7 4.2-134.6-7.3-7.3-2-14.3-4.9-21.6-6.3-3.6-.7-7-2.2-6.3-4.8 1-3.4 5.7-2 8.2-1.3 50.4 14.4 102 13.9 154.1 12.1-8.7-10.3-16.9-19.3-24.2-28.9-2.9-3.8-5.5-1.8-8.3-1.3-39 5.8-78 .7-115.6-10.1-9.7-2.8-28.1-3.1-33.2-12.5-1.3-5.7 35.3 6.4 40.1 6.6 36 9.5 71.6 10 109.2 7.4-6.9-8.8-13.7-17-19.7-25.7-3.9-5.6-8.7-4.2-13.8-3.7-32.5 3.3-65-2.3-96.3-10.4-5.2-1.2-31.9-8.6-30.7-14.3.1-2.7 2.6-1.7 3.9-1.3 13.9 3.6 27.7 7.7 41.7 10.9 22.5 5.1 45.3 8.2 68.6 7.1 5.7-.3 11.8-1.8 17.1 2-5.7-12.6-15.8-21.5-24.1-31.6-2.8-3.4-11.7-2-16.8-1.5-11.8 1.2-23-1.6-34-3.6-14.8-3.4-61-11.2-67.6-23.8.5-2.9 3.9-2.1 5.5-1.5 34.6 13 70.4 18.1 107.1 22.5-9.9-13.2-19.3-25.5-28.3-37.9-1.8-2.4-3.8-2.5-6.3-2.6-29.3-.7-55.9-11.7-82.6-23-3.8-2.2-11.4-1.7-8-8.4 2-4 7.6.7 10.7 2 5.9 2.8 80.7 29.8 76.3 18.8-8.6-9.3-10.3-26-21.9-31.8-15.3-7-27.9-17.1-40.6-27.5-11.5-9.4-18.9-38.4-12.7-51.4 15.5-19.5 43.1 5.8 50.7 21.7 12.8 25 12 59.1 37.6 75.5 6.5-24.4 5.7-50.9 5.5-76.2.4-6.6-4.6-14 1-19.3 12.4 17.6 6.1 40.9 6.7 60.9 0 13.6-4.8 27.1-6.9 40.8 0 11.4 18.1 19.3 21.9 30.2.5 1.4 3.1 2.1 4.8 3.2 6.2-20.4 6.4-43 8.1-64.3.5-18.2-2-36.5-3.1-54.7.5-5.7-2.3-12.8 1.5-17.4 7.7 8.4 5.7 21.8 7.4 32.3 5.5 36.7 2.1 74.1-6.3 110.2-1.2 5.1 6.1 7.8 9.4 11.6 4.5 5.2 9.9 9.6 15.9 15.2 3.3-17.4 5.9-34.4 9.9-51.1 5.7-32 3.1-64.1-.7-96.3 1.5-6.4 7.8 1.8 8.3 6.1 19.9 137.3-43.9 129.7 15.7 173.3 3.9-19.3 11.9-41.2 11.8-61.9 1.1-17.6 1.9-35.4-.8-53.2-.6-6.1-2.6-34.2 1.6-37 14.1 38.3 11.4 113.1-6.6 150.3-3.3 6.6.1 7.5 2.6 10.3 4.2 4.8 8.7 9.2 13.5 13.3 2.1 1.7 4.7 7.6 8.1 2.8 11.1-33.2 16.1-68.2 14.6-103.2 0-5.1-2.5-13.3 2.4-14.3 5.4-1.1 4.8 7.9 5 11.5 3.7 38.2-5.6 76.1-16.9 112.4-1.4 4.8 6.6 8.1 10.2 12.1 3.1 3.5 7.3 5.9 10.9 9 7 8.7 10.6 6.2 12.1-4.3 7.5-39 6.2-78.5 6.1-118 0-2.8-.1-7.1 2.6-7.2 9.4 7 5.7 48.4 5 60.4-1.9 25.8-1.4 52.1-11.1 76.8-2.2 5.7 3.9 7.2 6.6 9.7 7.7 6.4 15.5 13.7 24.4 18.4 8.3-48.9 7.9-98.4 5.1-147.4 8.1 9.7 9.2 22.4 9.5 34.3 2.8 38.6-2 76.4-9.5 114.2 1.8 6.9 13 10.7 18.1 15.8 5.6 4.1 11 9.3 11.3-3.7.6-21.9 5.5-43.6 3.4-65.8-1.7-18.9-2-37.9-3.6-56.8-.5-5.4-2.2-10.5.9-16.6 11.2 25.2 7 51.4 10.4 76.6 2.6 19.2-3.7 37.3-3.2 56 .2 5.8-2.2 11.7-3.7 17.5-1.8 7 4.9 6.8 8 9.3 4.7 3.7 10.2 6.3 15.6 9.6.9-53.6-2-108 .1-161.6-.1-9.3.8-19.1-1.9-27.8-1.2-3.8-9.9-5.4-15.3-7.6-38.3-18-78.4-36.6-109.1-66.1 12.6 2.3 126.6 75.7 124.4 57.2-1.7-7.8 7.1-17.6-5.1-23.3-35.2-16.9-71.7-32.8-101.4-58.5-21-16.7-45-35.2-59.1-57.4.2-.5 4.5 0 5.8 1.2 17.4 16 33.8 33.3 54.1 45.5 34.4 23.6 67.8 46.4 107.9 60.6-4.8-78.6 20.3-70.8-47.7-63.4-24.8.5-32.8 12.9-50.2-11-38.3-49.9-70.6-104.3-101-159.3-40-76.8-70.1-157.7-94.2-240.8-12-48.9-28.6-96.5-39-145.8-13.6-48.6-18.1-98.8-25.3-148.6-9.4-82.5-16.3-165.2-20.8-248.3.6-7.3-3-32 3.8-30.5 23.6 1.2 47.1 2.4 70.7 3.6 59.6 5 119.5 7.3 179.2 8.1 14.8 0 10.8 9.8 11 17.3-.7 36.9 4.5 73.6 5.9 110.5 3.6 34.7 2.5 72.5 12 106 6 12.2 16.9 21.4 24.6 32.5 20.2 29.7 47.4 54.9 80.2 69.9 4.2-11.1-1-21.5 1.8-32.7.6-3.9 1.1-7.8-5.2-10.1-14.4-5.1-24.9-16.3-36.8-25.6-22.7-18.1-38.8-41.7-53.6-66.1-2.6-5.8-9.4-10.3-6.5-17.2 26.2 27.3 41.5 63.2 73.5 85.5 5.7 4 34.2 31.4 28.3 9.4-1.7-25.9 11-28-15.8-42.6-31.7-23.8-55.5-56.3-77.1-89.1-.9-1.4-4.2-3.2-.9-5.1 2.4-1.4 4.3.6 5.9 2.5 27.6 32.3 50.3 73.7 88.4 94.1.8-12.1 3.4-24.9 1.3-36.5-1.1-5.3-9.6-9.3-15.3-13.2-19.3-12.5-63.4-67.8-62.8-90 27.5 31.9 43.7 72.4 81.3 95.2 0-10.9-1.6-21.5.4-31.3 2.5-11.8-2.2-18.6-10.7-24.6-28.7-22.6-52.3-65.7-57.4-102.3 12.4 17.1 16 34.9 26.7 51.6 10 20.3 25.7 37.4 42.8 52 2-15.4.1-31.2 4.7-46.4 2.9-9.8-5.5-16.1-9.5-22.9-12.6-21.3-13.5-45.5-8.5-69.4 2.1-10.6 11.6-15.5 22.9-13 29.2 4.2 8 75.3 1.8 93.8-2.2 6.3 2.4 15 3.8 22.6 2.1 11.5 4.1 23.2 3.1 36.8 10.1-13.3 18.4-25.9 23.9-40.1 3.8-7 5.6-22.1 11.7-26 9.3 12.5-14 53.4-24 63.1-13.4 13.8-10 28-7.4 43.1.5 2.9-4.7 5.8-.8 7.2s5.1-3.9 7-6.3c14.6-19.1 31.2-36.9 41.8-58.7.8-1.6 3.5-2.3 5.3-3.4 2.9 26.5-41.3 59.6-52.2 82.5-4 10.1 1 25.3 1.8 37 20-22.2 39.7-44.6 56-69.7 2.6-2.7 5.6-12.1 9.7-10.6 4.9 3.5-5 14.8-6.7 19-16.7 25.3-37.2 48.4-57.9 70.6-4.8 5-1.8 12.1-1.8 18.1.3 8.8.7 18 2.6 26.7 30.4-26.8 53-61.1 75.3-94.9.8-1.2 2.3-4.2 4.4-2.3 4.5 6.5-6.3 18-9 24.5-18.8 29.9-42.3 56.8-68.4 80.7-7 6.4-2.2 15.7-3 23.7-.6 6 .3 12.2.5 18.2 4.8-3.9 10.8-7 14.3-11.9 12.5-17.1 29.4-29.8 42.2-47 9.8-13.1 18.9-26.9 29.3-39.7 1.2-1.4 2.3-4.3 4.5-2.7 2.6 18.6-44.5 67.6-58.7 81.9-9.7 9.3-18.8 19.1-29.9 27-5.9 4.2-2.1 13.6-1.6 20.4.2 2.8-2 6-.3 7.7 2.5 2.5-2.8 8.7 3.5 7.8 14.6-12.9 31-26.8 43.7-42.1 18.2-20.9 34.4-43.7 50.5-66.3 13.7-7.5-4.5 17.4-6.2 20.5-21.8 33.7-48.3 66-79.9 90.6-9.4 5.4-13.2 13-11.7 22.9 1.2 7.7-3.4 15.8 2.8 22.5 33.1-29.7 71.6-56.2 98.2-92.7 4-3.8 7.6-17.7 13.4-16.6 3.2 1.6.5 5.4-.7 8.3-23.3 45.2-69.2 74.8-107.7 106.4-4 2.9-7.2 6.1-5.8 12.7 2 8.2-2.1 17.4.7 25.6 17.2-9 28.8-27.2 45.1-38 13.2-9.9 24.1-21.9 35.9-33.1 16.8-14.8 28-35.5 45.4-49.6-.5 25.3-95.1 107.2-119.5 123.6-12.6 8.9-6 20.5-6.4 30.4-4.8 28.2 10.1 5.1 11.8 3.7 18.3-14.9 36.8-29.6 53.3-46.4 17.2-17.3 33.2-35.8 47.8-55.4 5.7-7.3 9.3-15.8 18-20.2-.6 11.3-10.5 20.7-16.3 30.1-14.6 21.5-32.5 40-51.6 57.5-18.9 18.2-38.8 35.3-60.2 50.6-7.3 5.2-5 13.3-3.8 19.1.9 4.4-1.2 8.1-.1 12.5 1.6 6.5 3.5 3.3 5.9 1.8 26.5-17.2 51.2-36.8 72.7-59.8 16.8-18.2 32-38 45.2-59 1.4-2.1 4.1-6.6 7.9-4.2 4.1 2.5-.2 5.2-1.5 7.2-30.7 51.8-74 96.5-127.5 124.8-2.5 1.2-3.5 2.8-3.5 5.7.5 9.9-.5 19.9.5 29.8 38.5-26.5 73-59.6 105.7-93.1 7.8-8.2 14-18.1 20.3-27.7 2.8-3.3 5.8-11.9 10.9-9.7 4.8 4.5-7.4 15.3-9.4 20.3-7.3 11-14.8 21.9-24.2 31.3-30.9 30.2-62.7 59.5-98.8 83.5-7.8 5.5-4.2 16.7-4.1 25.4 0 2.7 2.6 5.3.3 8.9 49.7-38.4 97.3-79.6 135-130.2 5.1-6.7 8.8-.6 5 5.1-2.8 3.7-5.7 7.3-8.5 10.9-35.2 45.8-78 85.1-126.7 116.1-12.5 7.1.2 27.3-6.9 42.8 41.7-30.5 78.5-59.3 109.7-99.5 9.8-11.5 18.5-24 27.3-36.3 1.7-2.3 4.2-5.8 5.7-4.8 4.3 4.3-2.9 10.4-5 14.3-27.1 41.1-60.4 78.6-100.6 107.5-10.8 7.7-21.1 15.9-33.2 21.9-7.1 4-.3 27.3 0 35.3 31.7-22.9 62.7-46.5 89.8-75.1 16.9-17.8 32.5-36.6 47.8-55.6 2.5-3.9 6.3-6.1 10.3-8.5 3.6 9.1-5.5 13.4-9.1 19.5-37.8 49.2-82.9 91.7-135.7 124.3-4.5 4 3 8.5 4.7 12.7 8.3 20.6 18.7 4.1 25.4-.7 34.2-23.4 59.8-56.2 86-87.8 7.3-8.6 14.6-17.1 22-25.5 2.3-2.4 3.7-5.8 7.5-5.9 1.2 5.6-4 8.4-6.9 12.5-13.6 18-25.3 37-40.9 53.3-21.6 29.3-52.5 49-80.6 71.4-4.2 3.7 2.8 7.6 4 11.9 2.9 11.3 8.9 13.5 18.6 5.1 29.2-25.2 58.6-51 83.8-80.3 8.3-11.2 17.3-21.8 27.1-31.8-12.3 40.4-80.1 96.6-114.4 122.3-9.4 5.2 5.3 21.1 8.9 26.5 15.9-7.2 28.4-25.6 41.3-37.3 15-13.6 26.2-30.4 40.1-44.9 6-4.5 15.1-22.9 21.3-22.6-4.1 24.6-72.3 94-95.3 109-5.7 3.7-.7 6 1 9.3 10.1 19.6 9.2 18.9 24.5 3.2 25.5-25.8 46.9-55 70.7-82.2 1.3-1 2.8-1.4 4.3.2.9 1-.2 4.9-1.5 6.7-21.8 29.9-45.6 58.2-71.5 84.7-10.5 6-16.3 18.8-3.9 25.8 6.3 3.7 8.9-5.2 12.5-8.5 10.5-9.6 20-20.5 29.5-31.1 12.2-13.6 23.9-27.6 36-41.3 2.1-2.4 7.3-5.8 7.7-5.4 4 3.9-1 6.6-2.7 8.9-2.3 2.9-4.5 5.9-6.8 8.8-20.9 27.2-43.9 52.6-68.9 76-1.9 1.8-.9 2.8-.1 4.2 2.7 4.9 6.2 9.5 8.1 14.7 2 5.4 3.2 3.3 6 .8 23.1-21.1 40.6-46.9 60.8-70.4 1.7-2 3.5-5.5 6.5-2.8s-1.3 3.8-2.2 5.3c-17.1 27.4-37.3 52.7-60.3 75.4-9.3 10.4 6 13.3 6.4 20.8 5.5-.4 6.7-5.4 9.8-8.6 13.7-13.9 25.6-29.3 37-45.1 4-5.5 8.1-10.8 12.1-16.3 1.5-3.3 4.3-.1 4.3 2-13.3 28.8-35.5 51.7-56.7 75-3.7 3.7-.5 14.2-9 16.2-11.8 2.7-18.5 11.6-26.9 18.8-10.1 8.8-20.5 17.5-31.3 25.3-15.5 11.2-31.1 22.6-48.3 31.1-2 1-3.5 1.8-3.5 4.2v27.2c69.5-33.8 118.7-94.3 170-150.1 3.3-5.5 9.3-5 3.9 3.2-32.4 46.5-74 85.3-117.4 121.5-16.3 13.4-35.2 23.1-54.3 32.1-2.6 1.2-2.2 3-2.2 4.8 1 60.8.3 121.6 4 182.2.1 1.5.1 2.9 2.1 1.1 10.8-9.3 20.6-19.6 28.3-31.4 4.6-7.2-2.2-14.7-3.5-22-6.6-32.6-7.7-66-4.7-99 1.4-12.5 5.1-24.7 7.9-37 .1-.4 1.4-.9 2-.8 2.3.5 1.9 2.4 1.8 4-1.7 19.6-3.4 39.2-5.3 58.8-2 20 1 39.7 4.9 59.2 1.2 8.8-.8 18.1 4.3 26.2 7.8-5.7 13.9-14.6 19-22.6 1.5-2.8-2-8.3-3-12.7-9.5-38-6.6-77.9 1.6-115.8.6-1.8-3.1-2.9-.6-4.7 1.8-1.2 2.8-9.3 5.7-1.3-.3 40.8-10 84.1 2.8 124 16.2-17.6 29.9-25.5 19-51.1-5.2-18.9-2.1-38.3-2.4-57.6 1-12.3 2.5-24.5 4.1-36.7 2.9-6.7 7.6-1.5 6.5 3.3-1.5 18.6-1.6 37.2-3.1 55.7-1.3 15.6 5 29.6 4.7 44.6 0 .7 1.4 2.2 1.8 2.1 1.3-.4 2.8-1.1 3.4-2.1 5.5-9.1 12.2-17.1 19.3-25 3.3-3.6-2.5-6.9-2.8-10.9-1.1-15.2-5.3-30.7-3.2-45.4 2.3-16 .4-32.8 7.1-48.2 1.1-4.7 7.1-3.3 6.3 1.3-6.3 30.5-6.6 61.9-1 92.5 8.2-11.7 17.2-23.1 24.2-35.6 2.4-4.4-3.1-11-3.7-17.3-2-19.9-2.8-39.6 2.3-59.1 1-4.1-2.7-12.2 4.4-11.2 2.1.1 3.7 1.8 3.6 3.9v.1c-5.4 25.6-4.6 49.5-.7 78.1 5.2-16.3 21.4-22.6 17.7-42.5-2.5-13.3-2.5-27-.9-40.6 1.3-5.5 3.8-39 10.8-36.4 3 .8 1.8 3.2 1.5 5.3-2.5 23.5-7.9 48.6-2.1 71.8 7.6-8.3 13-18.8 18.9-28.5-1.4-20.8 3.1-42.1 16.6-59.2 8.5-11.8 25.3-24.6 38.7-14.1 11.5 12.9-1 35.2-9.6 45.8-7.4 8.2-16.2 17.7-26.9 21.5-9.8 2.9-9.7 12.3-13.6 19-1.5 2.6-2.5 6.2-1.9 9 1 4.6-9.6 9.4-.4 12.7 28.1-5.1 54.6-23.4 79.6-37.3 3.3-1.9 6.7-3.8 10-5.7 1.2-.7 2.2-2.9 3.4-.8 3.1 5.5-4.9 8.4-8.3 11.4-27.1 19.5-57.3 34.9-90.1 42.6-9.4 2.2-10 14.5-14.4 22.4-2 4.2-4.1 8.3-6.2 12.4 26.4-3.8 52.4-14.7 76.5-26.3 14.1-7.8 27.5-16.9 41.1-25.5 3-1.9 6.5-4 8.6-.9 1.7 2.4-2.4 4.4-4.4 5.9-36.2 29.2-79.7 46.7-125.3 55.8-3.5.7-5.7 8.4-8.3 13-4.5 7.9-8.9 15.8-13 23.1 56.1-2.1 103.2-36.9 149.3-65.5.7-.3 5.4 2.4 3.7 4.3-37.2 31.6-79.2 54-126.2 66.3-5.4 2.1-12 3.3-17.7 2.4-11.2-1.6-16.6 3.8-21.3 12.7-4.9 9.3-11 18-17.1 27.9 58.1-3.9 116.5-19.9 162.1-57 5.5-2.9 18.3-17.6 23.9-12.3zm-102.6-112.5c21.9-7.8 40.2-26.7 44.8-50.1 2.1-9.1-8.4-9.6-14.1-7.1-22 10.9-27.7 35-30.7 57.2zm-551.6 25.8c-6.7-21.2-15.4-59.6-43.6-60.8-10.5 6.2-5.4 20-1.4 28.3-.2 8.3 45.4 51 45 32.5zM602.5 389c2.9-10.5 6.5-20.5 8.1-30.9.4-10.8 6.5-40.5-5.9-44.9-5.2-2-10.9.6-12.9 5.8-.1.4-.3.8-.4 1.2-5.1 24.1-4.9 47.6 11.1 68.8zm10.4 636.2c.9 1.8 2 3.4 3.2 5 0-204.4 7.2-410.3-10.9-614.1-10.6 119.7-9.1 240.5-9.9 360.8-.8 64.6 1.6 129.2-2.4 193.8-1.6 20.9 12.5 36.5 20 54.5zm-25.6-133.9c-10.1-6.7-21.5-11.5-32.2-17.3-2.6-1.4-5-1.2-3.8 1.8 7.4 26.9 7.6 37.5 36.6 49.1 0-6.6 4.1-31.5-.6-33.6zm-.4 64.3c3.3-17.3.3-29.6-19-33.3 4.3 15.5 8.8 30 18.1 43 3.3-3 0-6.5.9-9.7zm-6.4-104.4c-15.9-6.6-29.7-16.9-44.8-27.3 14.4 44.9 3.2 31.5 44.4 56.8 8.2 4.5 9.2 3.8 8.7 2.5-3.9-10.3 9.1-24.7-8.3-32zm-.3-50c-21.6-9.5-40.9-23.8-60-41.3 2.6 10.2 3.7 19.1 7.1 27 4.4 10.5.7 23.9 13.7 31.8 15.2 9.2 29.3 20.1 44.8 28.8 3.5 2 3 .5 3.1-1.8.2-7.1 1.3-14.4.3-21.4-1.1-8 4.2-17.3-9-23.1zm9.6-45.4c-32.3-11.4-56.7-32.3-82.4-52.5 12.8 63.9 25.4 55.4 73.6 93.3 2.3-3.5 8.4 10.4 8.7-1.7.4-13.7.1-27.4.1-39.1zm.6-6.5c-4.3-8.8 2.3-40.5-4.2-42.5-34-15.8-63.5-39-90.3-64.3 4.2 20.6 3.7 44.9 22.2 59.2 23.9 16 44.2 38.8 72.3 47.6zM481.7 558c1.6 10.2 2.9 19 4.4 27.8 2.3 13.9 1.2 29.9 8 41.2 8.4 13.9 22.4 25.1 35.6 35.3 18.6 12.9 37.4 27.5 58.2 36.5 1.3-6.4 2.7-14 1.4-20.2-2.1-7.1 5-17.3-4.7-21.1-45.5-19.7-76.4-58-102.9-99.5zm169.4 706c19.8-1.7 39.7-2.4 59.5-4.5 5.8-.6 12.8 2.3 17.5-2.6 4.2-4.4-2.3-6.9-3.4-10.5-.4-1.5-2.5-2.4-3.4-3.9-53.6-90.2-111-178.6-150.7-276-28-62-43.6-127.7-61-193.2-16.6-76.9-31.4-154.3-42.3-232.2-6.5-68.8-11-138.2-11.8-207.3.1-1.1 3-6.3-2.4-6.7-9.1-.7-18.1-1.7-27.2-1.9-37.7.4-75.3-4-113.1-4-34.2-1.6-68.9.1-102.8-4.1-1.4 0-3-.4-2.8 2.2 11.8 117.1 21.2 234.5 38.2 351 37.3 161.2 77.2 324.8 159.9 469.4 23 44.3 53.4 84.5 80.5 126.1 8.8 15.6 19.7 15 32.4 12.9 44.1-6.9 88.6-9.4 132.9-14.7zm-9.9 13c-12.5-.8-19 3.5-16.2 17.1.5 2.4 0 3.4 2.8 1.3 8.8-6.7 18-13 27-19.4-4.5 1.9-9.1 1.3-13.6 1zm-15.1 59.4c28.6-15.4 58.1-39.1 83.4-61.5 1.5-1.3 1.8-3.4-.8-3.7-28.4 1-39.8-.9-61.8 20-9.3 8-28.6 9.7-22.3 26.7.5 8.2-.5 14 1.5 18.5zM931 577.2c-12.6.1-9.1 24.9 4.4 24.5 9 .4 10.8-6.8 10.7-13.6 0-6.6-3.2-11.7-15.1-10.9zM355.6 863.1c-28.4-21.6 11-53.8 33.3-62.4 6.5-2.8 5.1-8.9 3.6-12.6-8.4-21.7-15.6-44-29-63.5-1.8-2.6-2.7-6.9.3-9.6 3.9-5.4 14.8 12.6 15.8 15.7 4.4 14.3 13.2 4.7 18.5 2.8 5.3-1.7 31.3-9.1 31.6-1.6-.5 3.8-3.5 6-6.7 7-8.9 2.7-17.8 5.1-26.8 7.6-13.6 1.1 12.1 32.1 9.4 45 0 3.2 6.5 1.5 9.6.3 18.3-5.5 39.9 3.5 38.6 23-3.1 16.6-14 30.5-24.1 44.7-5.2 6.5-17.7 30.7-27.5 24.3-5.4-19.4 70.1-82.9 18.6-78.2-20 .3-13.9 17-17.4 26.9-7 19.7-26.6 37.4-47.8 30.6zm37.4-44c2.3-12.5-27.8 16.3-30.3 19s-4.2 6-1.6 9.6c.9 1.2 2.3 3 3.4 2.9 14.4-1.5 28.1-16.6 28.5-31.5zm549.9-527.6c-12-1.1-14.5 23.4-1.5 23.4 14.6 1.4 15.2-23.3 1.5-23.4zM321.4 531.2c-14.5 23.9-49.5 20.4-40-12.7 6.1-16.7 10.9-33.7 25-46.1 1.9-1.6 1.3-7.2.3-10.5-2.3-7.6-2.3-15.4-1.5-22.9 1-10.1-5-8-10-6.4-9.7 4.5-35.4-6.8-29.8-19.1 2.9-2.6 7-1.3 9 .2 7.5 5.4 15.7 4.1 23.4 3 11.7-1.8 5.3-13.4 8.9-19.9 2.1-3.9 1.1-9.4 1.3-14.2.3-5.8-.1-11-8.4-9.7-1.3.2-4.2-1.9-4.3-3-1.5-6.9.7-14 9.1-9 17.5 3.7 24.8 19.2 17.5 36.1-1.2 2.7-.6 6.1-.9 8.3 20.1-4.5 37.9-18.6 58.7-12.8 4.9 1.6 10.2 2.5 9.1 8.4-1.3 6.7-9.1 5.6-13.1 5.6-15.9.7-30.5 6.5-44.8 12.2-13.6 2.8-11.5 13-10 21.9 1.1 6.7-2.1 19.8 2.4 19 12.4-2.1 26.1-6.8 27.8-23.7.8-4 5.1-17.5 11.1-13.2 3.3 2.3 3.3 5 2.5 8.3-6.1 20.1-6.7 24.2 13.5 23.5 56.6 16.5 12.7 74.8-9.3 102.9-4.2 5.8-8.2 13.6-7.9 20.2.3 7.4 10.3 6.5 16 9.3 13.5 9.1-19.3 16.4-27.6 3.3-18.8-26.3 26.7-58.3 34.3-82.7 15.6-25.7.5-40.7-27.3-39.8-6.7.3-6.4 9.8-9.1 15.2-3.9 7.9-6.9 16.3-10.7 24.3-4.2 8.7 5.9 12.6 6.1 19.8.1 3.2 5.5 6.7.5 9.5-11.9 4.8-10.6-20.4-21.8-5.3zm6.2-38.6c1.9-6.2 8.7-15.3 6.6-19.3-12.6.8-7.9 10.7-6.6 19.3zm-10.7 8.9c-1.6-6.3-3.1-18.4-8.8-7.9-6.6 11-12 22.7-12.8 35.9.6 13.9 25.5-17.1 21.6-28zM209.5 1372c-13.8 8.4-28.1 15.4-44 19.3-3.6.9-11.2.2-10.2 6.4 1.1 6.8 6.8 1.8 10.1 1.2 19.1-4.2 39.5-11.5 51.9-27.2l-3.7-1.1c-1.5.3-2.8.8-4.1 1.4zm-49.1 67.7c-5.9 1.8-4 8.3 2.2 6.7 15.3-6.7 56-14.3 61.8-29.5-1.1-2.9-2.7-1.8-4.6-.9-18.6 10.7-39.4 16.2-59.4 23.7zm76.7 128.9c10.1-4.2 19-11.4 30-18.3-17.3 32-66.6 38.1-97.8 49.8-3.9 1.5-8.5 2.2-12.1 0-5-2.8-7.9-8.3-7.3-13.9 1.3-16.2 1.3-32.5-.1-48.7-1.3-43.2-2-86.6-3.6-129.9-2.4-78.7-1.9-157.5-7.1-236.1-.6-15.4 1.3-31.2-.8-46.3-2.5-17.3.9-34.6-2.9-51.9-2.2-10-.2-20.9-.5-31.4-2.4-67.5-.9-134.9-8-202.1-.1-1-1-2-1.5-2.9-2.2-3.5 2.9-8.9-2.8-11.6-11.1 86.7-8.5 174.1-10.4 261.3-3.2 125.6 4.4 251.2 3.1 376.8 2.3 43.3 2.8 86.8 3 130.2 0 2.7-1.5 5.4-2.3 8.1-7.1-5.6-5.3-19-5-27.2 2.1-15.4-11.7-14.8-19.6-19-34.2-17.9-65-41.9-90.7-70.7-1.6-2-4.9-2.7-3.7-6.2 2.6 1.2 5.8 1.9 8 3.7 32 26.7 63.4 57.4 102.8 72.7 2.1-8.3.3-17 1.3-25.3 2.1-15.8-12.3-15.4-20.2-20.7-27.8-20.3-76.1-45.3-86.7-78.7 31.2 31.1 66.3 57.7 104 80.6 3.3 2.2 2.7-.9 2.7-2.4.1-10.8.7-21.7-.2-32.5-.7-8.4-9.8-9-15.2-12.5C60.7 1440.6 22 1422-1.8 1389c-5.5-6.5 1.5-11.4 5.8-3.8 28.4 32.6 67.7 54.7 103.3 77.5 0-12.6 1.2-25.6-.7-38.1-34-22.7-74.1-44.8-103.1-75.9-3.7-2.9-12.7-13.6-3.5-13 25.5 23.4 51.8 46.9 82.4 64 8.9 5.1 16.8 12 25.6 18.3-3-24.6 7-38.6-20.5-51.5-23.7-11.5-85.8-59.5-90.9-84.7 1.2.3 2.7.2 3.4 1 9.7 10.2 18.9 21 29.1 30.7 23.2 21.3 49.5 40.4 77.7 54.7.5-29.2 7-38.2-19.9-56.6-34.7-25.5-72.2-50-93.6-88.9 12.2 5.9 19.9 18.4 28.4 26 27.6 23.2 54.3 48.6 84.7 67.8-1.4-13.2 5.3-42.9-8.8-49.4-32-16.6-89.1-57.9-96.5-94.9 28.2 39.2 63.3 66.9 103.3 92.3 1.3-8.9-2-19-.3-27.4 2.8-18.8-11.8-19.8-22-26.4-27.2-18.6-76.6-55.7-83.9-88 14.5 12.7 25.5 28.7 39 42.4 12.5 12.9 27.6 22.2 41.2 33.4 2.8 1.7 25.7 19.8 24.6 12.2.8-8.8-1.7-17.8 1.4-26.6.5-1.6-4.5-4.5-7.1-6.7-19.6-17-37-36.6-56.7-53.4-15-12.8-23.9-30.2-36.7-44.7-1.4-2.1-2.5-4.8-.5-6.8 2.8-2.7 3.3 1.3 4.4 2.5 29.2 35 61 67.9 95.1 98.2 0-9.2-1.8-18.2.3-26.2 5.4-20.5-6.5-30-21-39.8-9.2-6.2-16.9-14.7-24.8-22.6-6.1-7.5-44.5-39.2-39.4-46.7 2.5-2.3 4.6-.5 6.4 1.3 6.8 5 82.6 94.3 80.2 66.8-3.8-12.5 8.8-36.9-9.3-42.2-13.6-4.4-23-16.4-33.9-25.4-14.9-12.3-29.1-25.7-43.2-39-3.4-4-1.7-13.2 4.5-6 27.9 24.1 51.5 49.7 83 69.8-4.4-14 5.8-29.1-6.6-40.9-13.6-15.7-70-57-67.8-75.1 3.2 1.6 7.4 2.4 9.3 4.9 18.3 24 41.1 44.9 63.9 63.9 2.2-12.5 1.5-24.9.7-37.4-.4-8.6-7.2-11-11.8-14.2-22.3-19-44.6-38.2-63-61-1.7-2.2-4.8-4.9-2.2-7.4 3-3.2 4.3.9 6 2.5 24 23.7 46.3 45.7 72.7 67.6 0-17.9.5-34.7-.5-51.3-25.2-15.8-51-37.6-72.5-59.3-4.8-3.5-5.4-8.8-4.6-13.8 24 19.9 47 40.9 70.7 61.1 2 1.8 5 3.8 7.6 2 4.6-10.4-1.3-23.4 2.9-34.3.2-.6-.8-2.3-1.6-2.6C92 860.7 80.8 847 69.4 834c-6.8-8-32.4-35.5-28.5-45 1.8-1.6 2.9.1 3.7 1.1 19.8 25.4 37.3 53.8 65.7 70.8 4.7-11.5 1.7-23.8 4.6-35.5 1.5-6-5.7-8-8.6-10.9-12.1-12.5-22.4-26.4-32.4-40.3-5.3-9.4-17.6-18-13.7-29.8 8.7 5.1 12.6 15.3 19 22.7 9.4 12.9 18.7 25.8 28.2 38.6 1.7 2.3 5.3 5.2 7.4 4.8 4-.8.5-4 .6-6.3 4.2-34.3-1.8-25.6-15.3-51.6-25.9-67.5 33.6-106.9 40.8-63.8 3.2 19.1 2.8 38.6-3.1 57.4-2.4 9.6-5.5 18.9-12.2 26.8-3.6 4.3-.7 8 .1 11 2.1 7.9.1 16 2.2 23.7 16.8-11.1 25.2-30.9 33.2-48.5 3.5-6.2 3.2-15.8 11.3-17.9 1.7 23.3-18.2 53-35.4 68.3-10 8.8-4.7 18.2-5 27.6 1.9 2.6 1.2 11.1 2.3 11.7 10.3-.3 39.1-44.8 45.9-55.1 2.3-3.6 3.4-11.3 9-8.2 3.4 1.9-.5 9.2-2.7 12.7-14 22.4-29.2 43.7-49.7 61.1-5.9 5.6-.2 21.2 1 29.6 22.2-16.8 39.4-37.3 49.6-63 .7-1.8 2.8-5.4 6-3.1 6.1 5-1.6 10.6-2.6 15.7-10.7 20.1-28.1 43.9-47.6 55.8-10.1 5.3-2.8 14.4-4.8 21.5-1 3.8.6 8.4 1.1 13 18.5-16.6 36.2-33.8 49.4-55 3.9-5 6.3-12.7 12.9-14.6 3.4 18.7-44.2 66.7-60.8 76.8-3.1 2.1-1.8 5.7-1.1 8.8.4 2.1.4 4.3 1.3 6.2 1.7 4-4.7 8.8-.6 10.5 2.4 1 7.6-3.8 11-6.6 17.5-14.5 33.8-30.3 47.2-48.8 1.8-2.4 2.9-5.3 6.5-5.2-1 23.2-38 51.9-55.9 65.5-7.7 3.3-16.9 43.8-.1 28.9 27-17.9 52-39.9 68.4-68.1 1.2-1.6 3.6-2.3 5.6-3.3-3.5 31.7-51.8 69.6-79.9 82.3-3.1 1.1-3.4 29.6-.5 30.2 32.7-13.3 58.8-40.8 83.5-65.7.4-4.2 5.9-8.4 9.4-6.5 3.3 1.7-1 4-2 5.6-12.6 20-29.4 37-49.3 49.8-10 6.4-18.9 15.2-29.8 20.5-4 1.9-10.6 2.8-11.1 6.3-1.3 9.6-1.3 19.3 0 28.9.4 3.2 5-.3 6.9-1.5 22.1-13.6 44.8-26.5 63.6-44.8 6.1-5.9 12-11.9 18.3-17.5 2.1-1.8 4.8-7.5 8.1-3.5 2.9 3.6-1.6 8-4.3 10.8-14.4 15-29.3 29.6-47 40.6-13.4 8.3-27.2 16.1-41.2 23.4-3.6 1.9-4.9 4.2-4.8 7.3.3 7 1.3 13.9 1.9 20.9.3 2.9 1.9 2.2 3.4 1.3 24.2-13.8 46.2-30.7 68.3-47.5 11.6-8.8 18.8-21.4 29.9-30.4 1.4-1.1 2.4-2.1 3.6-.7 1.4 5.1-4.1 10.5-6.3 14.7-9.8 14.3-23.9 24.4-37.8 34.6-17.6 11.6-34.4 26.4-53.5 35.1-8.2 1.8-7.8 7.3-7.5 13.1.5 7.9.4 15.9 2.2 23.6 1.4 6.2 5.9.1 7.1-.6 34.1-18.7 66.6-41 90.5-72.2 1.8-2.4 3.9-5.5 6.9-3.4 3.4 2.3-.4 4.6-1.6 6.6-23.2 37.7-64.8 57-100.5 80.5-6.5 4.3-3.6 14.6-1.6 21 2.9 9.5 8.4 8.5 21 1.2 32-17.6 64-36.3 87.4-65.1 2.6-1.7 6.8-10.4 9.4-8.6 2.1 1.2 1.5 4.7 0 7.2-22.1 34.6-59.1 57.7-96.2 73.8-19.8 8-22.6 13.8-20.5 44 43.5-19.1 89.3-37.9 117.9-77.7 1.4-2.1 3.4-5.7 6.4-3.8 3.6 2.3-.1 5-1.3 7.2-25.9 41.3-74.3 61.8-118.3 78.6-9.9 2.8-2.6 31.9 5.7 27.5 4.5-1.4 9.5-7.1 12.9-7.8 32.9-11.3 64.7-31 91.1-54.1 4.1-1.8 12.5-11.6 15.2-8.3 2.4 4.3-5 8.2-8.4 11.8-13.9 14.4-30.3 25.3-47.4 35.1-7.8 4.4-15.7 8.6-23.6 12.8-14.7 8.7-33.8 10.4-48.6 18.4.6 13.3-5.3 38.3 15.7 27.1 11.7-3.3 22.9-8.6 34.3-13.2 2.7-.5 6.3-6.9 7.9-4.6.9 15.2-41.6 25.5-53.9 28.7-2.1.5-2.4.3-2.3 3 .7 10.2-.9 20.5 0 30.6 11.3-6.5 24.3-9.7 36-15.5 8.3-4.3 17.1-8.9 26.2-11.4-8.5 17.3-33.8 22.6-50.6 29.2-6.6 2.2-11.9 3-11.5 12.7 1 26.1.2 52.2 2.2 78.3.7 10.4.6 20.8-.4 31.2-.9 10.8 5.7 6.9 9.9 5.2 16.9-6.1 33-16.6 50.1-21-4.6 17.4-40.4 21.5-55.1 29.1-9.9 4.2-2.3 13.3-3.9 20-.9 4.5 0 9.7.3 14.4 29.7-7.9 55.9-26.9 83.9-37.4-.9 13.6-67.1 41.7-81.4 43.9-3 6.1-.1 15.3-1.4 22.1-1.2 11.6 5 8.1 10.8 5.8 16.8-6.8 33.8-12.9 50.2-20.6 8.4-2.1 29.8-22.5 34.4-19.1-14.3 22.4-45.2 30.9-68.9 41.5-8.1 3.5-17 5.2-24.8 9-2.3 2-.3 12.6.4 16.6-2.4 13.2 4.5 11.2 12.6 8.1 21.8-8 44-15.3 65.5-24.1zM124.4 761.7c4.8-19.1 12-35.8 8.8-57-2-2.7.6-8.6-.3-14-1.6-9-5.9-13-15.2-8.1-14.1 7.5-15.2 21.7-16.3 34.7-2.1 18.8 5.5 35.9 17.4 50.1 1.9-1.8 5.1-3.4 5.6-5.7zm208-53c-7.9-2.5-10-10.9-11.2-17.8-22.8-76.3 135.2-99.3 99-9.2-6.3 11.3-11.7 23.7-24.5 30.1-7.9 4.5-13.3-2.1-7.2-8.6 6.5-9.5 13.5-18.7 19.4-28.6 8.7-14.6-2.5-33.6-20.3-33.6-15-3.2-10.8 11.3-14.4 18.2-8 12.9-22 55.1-40.8 49.5zm10.6-19.1c9.1-14.4 19.3-29.7 23.6-46.1-22.1 4.3-39.6 26.7-28.6 49.3 1.6-1 3.9-1.7 5-3.2zM57.5 129.2c11.1 1.2 9.7-21.2-2.4-18.2-12.1.8-11.1 20.1 2.4 18.2zm218.6 63c-.6 18.5 21.4 19.1 23.1 1.3-.3-10.7-8.1-12.3-15-13-7.9-.7-7.8 6.4-8.1 11.7zm-30.8-63.4c-9.7-.4-7.3 6.8-8.4 10.7 0 9.8 2.3 14 7.2 13.4 7-.9 14.4-3 14.6-11.4.3-8-4.7-12.3-13.4-12.7zM107.3 260c-.8-10.3-19.6-3.8-18.1 5.8-1.2 17.8 19.2 10.1 18.1-5.8zM272.2 36.8c7.6-.3 6.7-7.1 6.8-12.3s-3.1-7.8-8.3-7.5c-11.1.4-9.8 21.7 1.5 19.8zM242 89c18.7 2.8 20-24.1 2.4-23.6C232 64 229.5 87.1 242 89zm68.4 33.6c13.6-1 9.5-24.2-4.3-22.4-8.1.5-7.7 6.9-8.3 8.4-2.7 15.2 7.3 13.7 12.6 14zm68-77.5c7.4 1.9 8.3-4.9 8.2-9.3 0-5.2-1.9-12.5-8.5-12.4-11.9.3-16.8 23.7.3 21.7zm-58.3 21.2c7.9-.1 8.7-23.2-3.8-20.1-6.4.8-10.2 4.8-10.5 11.4-.6 10.9 9.4 7.3 14.3 8.7zm29.1 182.3c-2.3 15.4 21.1 17.4 19.9 1 2.6-14.5-20.1-13.8-19.9-1zm-7.6-61.2c10.5.2 15-4.3 15.7-10.9.4-3.7 2.5-10.3-5.3-11.6-16.3-4.8-23.1 19.9-10.4 22.5zm-63.8 95c13.3-1.5 8-26.4-3.4-24.4-12.1.3-9.8 7.9-9.9 12.3-.3 8.2 7.2 12.3 13.3 12.1zM122 35.1c10.5 1.9 7.8-15.9 1-16.2-6.5.1-10.4.5-10 5.9.3 5.5 2.2 10.1 9 10.3zm17 182c12.3 1.1 14.5-19.1.8-18.3-9.9-1.5-12.1 19-.8 18.3zm-36.5 248.6c-.5-5.6-.6-11.8-8.9-10.8-9.3-.7-11.9 5.9-12 12.5-.4 12.8 22.6 12.5 20.9-1.7zM142.3 83c9 1.4 10.5-4.6 11.1-11.3.8-8.8-7.2-8.3-11.3-8.3-8.1 0-8.3 8.2-8.9 13.9-.6 5.8 4.5 6.3 9.1 5.7zM86.4 584.9c-13-2.7-16.3 23.1-2.8 22.1 12.4 1.2 17.4-23.3 2.8-22.1zM178 258.7c12.1 2 12.7-21.2-.4-19.9-5.8.2-9.4 1.6-8.6 8.4-1.2 7 3.4 10.9 9 11.5zm13.9-213.6c7.8-1 4.3-7.5 6.4-11 1.4-13.1-16-15.6-17.4-2.5-1.1 8.2-.2 14.9 11 13.5zm-44.7 414c-.1 5 1.9 11.8 8 11.6 5.8-.2 14.1-1 12-10.4 2.7-16.1-20-15.6-20-1.2zm32.3-320.7c13.5.5 13.9-25.2.1-23.1-13.3 2-14.4 24.5-.1 23.1zm9.9 50.5c.1 3.9 0 11.3 6.5 10.4 8.7-.1 12.3-4.1 13.1-10.6 1.6-15.6-20.3-13.5-19.6.2z"/></g></g><g id="Layer_1_2_"><g><path d="M52 1548v15l-37 37h946l-37-37v-15H52M52 52V37.7L14.3 0H0v1600h15l37-37V52m872 0V37.7L961.7 0H14.3L52 37.7V52h872m52-52h-14.3L924 37.7V1563l37 37h15V0z" id="Layer0_0_FILL_1_"/></g><g><path id="Layer0_0_1_STROKES_1_" d="M961 1600h15V0h-14.3L924 37.7V1563l37 37H0V0H961.7M52 52V37.7L14.3 0m.7 1600l37-37V52h872m0 1496H52" fill="none" stroke="#333" stroke-width="2" stroke-linecap="square" stroke-miterlimit="3"/></g></g></svg>