<svg xmlns="http://www.w3.org/2000/svg" xmlns:xlink="http://www.w3.org/1999/xlink" viewBox="0 0 976 1600"><path d="M960 22v1556c0 3.3-2.7 6-6 6H22c-3.3 0-6-2.7-6-6V22c0-3.3 2.7-6 6-6h932c3.3 0 6 2.7 6 6z" fill="#fff"/><defs><path id="a" d="M960 22v1556c0 3.3-2.7 6-6 6H22c-3.3 0-6-2.7-6-6V22c0-3.3 2.7-6 6-6h932c3.3 0 6 2.7 6 6z"/></defs><clipPath id="b"><use xlink:href="#a" overflow="visible"/></clipPath><g clip-path="url(#b)"><path d="M431 1283.9c-56.6-7.8-114.1-13.1-170.7-18.7-19.3-5.2-77.4 9.7-47.4-25.7 133.3-197.3 208.4-387.6 242-623.2 13.5-65.9 16.1-141.2 21.3-211.5 7.8-24.6-9.7-87.1 16-84.7 70.9.8 145.1-3.2 216.9-6.5 28.9-3.5 26.9 2.2 23.9 28.4-4.7 46.8-9.4 93.9-14 140.7-16.3 199.7-63.4 398.5-143.8 581.7-27.3 58.9-57.2 117.2-96.6 168.8-16.7 15.8-21.9 50.5-47.6 50.7z" fill="#5d4e8c"/><path d="M546.4 1581.7c-66.8-1.8-67.7-18.3-89.9-71.1-39.8-.3-84.5-56-50.7-94.5 4.7-14.8-24.2-11.3-30.3-24.7-16.4-17.5-13-40.5 10.5-50.1 7.8-17.5-9.8-34.2 21.7-54.6 12-5.8 26.4 7.5 38.1-1 8.9 4.8 15.5 14.9 30.8 13.9 26.1.4 41.2-32.2 63.9-18.4.8 15.7-8.8 35.6 1.3 49.6 12.8 19.3 34.7 16.7 51.4 8.3 15.3.2 18-33.7 26.5-38.4 13.9 10.9 33.5 49.6 51.5 50.3 42.4 1.2 42.3-41 49.2-69.5 12.9 10.1 22.7 26.7 42.5 25 10.4-10.1 26.6-23.1 23.1-42.6-3.7-7.3-8.8-19.3 2.9-19.9 18.7 7.8 44.3 7.8 56.3-10.5-.4-11.3 1.2-21.7 2.2-32.1-.7-4.9-7.9-4.5-9.1-8.8-2.7-13.8-27.8-30-17.2-37.3 39 6.8 61.2-9.2 45.6-49 34.3-13.1 97 6.4 96.5 52.3.4 6.7 5.4 9.2 11.8 11.9 11.9-5.1 2 116.6 5.1 119 .3-.4-.4 83 0 86.7 0 2.2-1.8 4-4 4-14.9-.2-29.9 8.3-44.9 6.4-23.4.5-41.2-8.6-56.6-22.7-15.1 0-30.8 13.8-46.4 2.9-14.8-.8-59.2-56.9-59.2-33.5 2.1 17.9-4.2 28-15.9 39.6-2.4 1.9-3 5.3-1.4 7.9 17.2 25.1-16.6 60.1-41.4 58.5-4.8-1-10.8 1.3-9.6 7.1 5.5 21.8 4.9 43.3-13.3 62.9-15.6 17.3-37.5 10.4-57.5 9.9-3 0-5.5 2.2-5.9 5.1-7 34.4-48.3 56.4-77.6 57.4zm-412-347c-27.7-.2-55.2-16.3-53.2-47.3-47.2-2.4-73.8-53.4-51.8-96.6 8.6-14.6 22.3-18.8 33.2-20.8 13.1-7.6-13.9-29.4 8.1-54.4 28.3-37.8 73.1-18.7 104.5.1 3.3 0 6-2.7 6-6v-.3c.9-33.8 39.9-47.7 64-27.1 39.2 28.2 12.3 23.6 49.7 7.8 59.3 14.7 33.5 39.6 12.3 77.3-8.3 7.3-5.2 25.5-19 29.2-10.6 28.1-28.8 57.2-44.5 85.2-7.5 17.3-20.4 28.1-39 30.5-24.5 10.8-46.2 22-70.3 22.4zm701.1-164.5c-6.7.5-9-6.9-6.3-12.7-2.9-27.8-36-36.1-58.7-26.9-11.5-.5-16.1-17.5-34-17.7-9.7-9.6-20 .4-12.7-19.8 4.4-10.5-12.2-14.3-15.6-24.3-14.6-4.8-41.2 9.6-47.9 23.1-5.6 3.4 3 8.5 4.7 11.9-.6 2.3-7.4-9.2-7.9-9-1.8 1.3-4.3.9-5.7-.9-.3-.4-.5-.9-.7-1.4 4.6-37.2-37.3-30.6-22.4-52 10.7-32 20.5-64.7 29-97.6 9.4-36.6 19.6-106.5 73.1-84.2 38.2-50.8 112.4-41.8 108.1 31.4 10.4 13.9 42.8 5.5 42.3 45.5 4.9 23.2-45.8 59.3-25.7 64.7 18.1.3 31.2 10 38.1 27.9 8.7 18.7-8.4 33.4-18.6 47.2 44.3 37.8 3.4 82.9-39.1 94.8zM377 909.3c-58.3-44.9-121.6 9.5-182.2-22.7-12.5-6.3-6.2-24.3-18.4-26.9-39.3 7-58-46.2-21.2-62.1 16.2-14.8-34.6-17-40.5-27-21.5-15.4-29.5-68.4 2.6-75.7 3.1-1.2 4.6-4.7 3.4-7.9-.2-.5-.5-1.1-.9-1.5-25.6-29-27.8-93.5 10.8-116.3 23.9-14 33.7 19.7 49.8 28.2 37.4-72.8 79.7 27.5 94.3 65.4 12.5 13.1 23.9-33.4 61.8-13.5 20.4 10.5 3.5 33.8 28.9 40.4 41.8 26.9 17.2 96 38.1 137.3 3.3 14.1-9.5 28.2-11.5 40.5 2 8-8.9 41-15 41.8zm470.4-266.5c-43.6-3.3-93-41.3-134.5-7.5-2.6 2-6.9-.4-6.3-3.7 6.4-44.2 8-84.7 13-129.1 2-29.7 31.9-51.1 50.8-68.9 27.7-27.2 62.5-13.9 62.5 25.1 35.8-8.9 101.2-19.7 108.2 33.8 3.8 10.6 27.8-1.9 38.8 17.7-4 6.9 8.8 79.4-8.4 76.2-16 17.8-48.3 20.4-73.3 18.6-2.9 0-5.3 2-5.9 4.9-8.3 25.3-23.9 30.9-44.9 32.9zm-377-260.9c-76.5-111.3-164.3-75.8-32.9-112.5 14.9 1.3 112-37 104.2-18.1-18.8 19.5-13.7 62.5-34.7 70.8-55.7-13.3-15.8 37.1-36.6 59.8z" fill="#333"/><path d="M677.4 1348.3c-18.2 5.7-59.4-46.8-32.8-50.6 26.2-3.9 32.2-35.6 27.3-57.7-11.7-5.9-25.6-10.1-31.8-25.5-12.6-12.2-17.5 21.3-31.8 21.8-5.4 2.7-2.8 9.7-4.8 14.6-4.2 24.1 20.8 39.8 12.7 54.9-5.2 20.3-26.1 39.3-47.8 39.2-20.3 1.5-36.5-27.6-28.7-48 3.5-9.2-3.6-18 11.2-20.9 19.5-4.9 31.8-15.3 36.6-30.8.9-12.2-32.3-17.2-23.8-57.1 28.2-53.1-38.1-9.6-19.8-53.8 3.4-12.1 17.9-15.3 23.6-25.1-9-11.5 4.5-20.7 7.3-32.4 3-20.9 26.5-10.3 35.5-.5.9 19.3-22.2 20.8 0 40 5.9 6-10.8 21.6-8.4 33.4-11.2 32 1.5 72.3 34.2 46.8 1.7-18.5 9-36.7 12.1-53.7-9.5-13.4-7.2-32 11.4-32.8 20.1 1.6 71.4 47.6 42.1 69.3-7.3 10.1 13 24.1-5 46.6 17.3 33.1 40.9 113.2-19.3 122.3zm-201.7-50.4c-42.1-1.5-20.1-28.1-4.4-47.4 16.1-14.3 22.1-51.6 48.5-46.6 2.1.6 3.4 2.8 2.8 4.9-.2.7-.6 1.4-1.1 1.9-47.4 48.7 38.3 74.7-45.8 87.2zm336-51.1c-19.6 2.7-78.9-38.1-61-54.6 29-18.1 6.4-34.3 11.3-54.4 3.2-1.2 5.5-4.4 4.3-7.9-4.1-11.5-41.6 7.1-34.5-10.9 5.7-3.6 11.8-7 13-12.2 3.7-9.5-7.6-19.8-11.6-28.9-6.5-11.4-28-1.1-39.3-5.8-11.1-12-20.8 8-32.2 9.8-4.5-1.4-20.1-7.7-17.2-15.6 3.6-19.8 20.9-51.5 44.2-47.2 37.2 12.8 13.9-2.1 49-4 33.9 5.3 25.2 28.2 17.4 47.4 19.1 9.9 23.9 1.9 44.7 21.3 25.4-6.8 59 14.2 67.7 35.8 12 30.6-25.3 39.3-48 32.6-19.6 1.7 28.2 45 21.2 62.4 1.4 18.8-10.2 32.3-29 32.2zm-169.7-211c-9.8-8.1-8-27.3-19.7-34.9-2.7-2.2-13-6.8-10.5-10.4 19.5-84.7 56.5 17.5 30.2 45.3zM199.3 377.3c-21.7 3.4-40.1-15.3-26.1-35 4.7-13.4 34.9-16 25.7-29.8-34.9-37.8 64.2-57.6 85.1-42 13.3 10 30.4 12.5 45.6 16.2 4.6-1.5 13.8-2.5 12 5-7.3 39.6-106.4 84.4-142.3 85.6zm237.3-110c-95 .8-154-99.1-32.4-57.7 17.1 12.5 20.5 34.2 38.7 46.9 19.7 12.9 10.9-28.3 12-37.8-2.1-29.6-7.1-73.8 29.9-86 43.2 14.9-5.6 104.5-23.7 127.7-22 .4-6.4 6.9-24.5 6.9zm50-8c-3.8.1-5.5-5.2-2.3-7.3 33.3-22.8 72.1-51.4 83.5-92.3 64.9-77.2 118.8 45.4-81.2 99.6zM642 239.5c-83.2-1.4-22.1-13.3 11.8-37.3 14.8-8.9 26.9-27.2 46-22.6 20.9-4 69.9 24.9 35.3 43.9-28.9 16.3-60.1 15.1-93.1 16z" fill="#ffeb5c"/><path d="M755.8 1303.1c-46.6-8.7-57.8-75.4-51.8-112.4 5-25.9 16.6-31.3-5.8-56.3-6.3-4.3 1.6-13.9-7.2-15.9-19.1-3.5-32.7-15.7-48 .1-9.7 6.4 5.3 19.9 2.6 28.8 0 19.5-9.9 36.5-15.6 53.1 12 10.8 20.4 40.4 37.8 40.3 2.6-.2 6.2 1.6 6.7 4.8 3.4 68.4-82 67.8-68.9-4.3 6.5-11.3 23.3-15.2 24.1-32.4 1.3-4.6-3.8-8.9-8.1-7-40 4.5-18-58.4-8.3-77.2.8-19.9-23-12.9-1.7-46.4-7.5-14.4-30.4-30.2-17.1-48.2 6.8-20.2 15.2-50.8 33.5-18.1 8.7 14 11.6 35.5 11 55.1-.8 10.1 17.1 7.4 19 15.7 8.8 7.5 32-13.7 52.8-7.8 18.8.7 31 11.7 32 30.1 0 9.7-14.9 9.1-15.9 17.9 1.4 7.7 11.9 6 17.2 10.3 24.3 10.1 26.3 51.7 1.8 62.1-15.2 9.3 28.3 31.8 32.5 48.1 15.8 24.3 3.9 57.8-22.6 59.6zm-220-24.8c-43.6-.4-25-51.3-14.8-73.9-24.4-10.4-4.9-10.9 2.8-33.5 15.7-30.6 8.7-18.3 32.5-10.6 14.7-1.3 13.6 8.2 4.6 16.1-1.6 10.2 3.8 23.3 3 35.1-1.1 13.4 13.9 21.9 24.4 31.7-2.6 21.4-30.4 34.8-52.5 35.1zm267.3-198.5c-11.5-1-17.3-11.9-28-13.3-11.4-1.3-23.6-3.5-12.3-17.3 1.4-15.8 11.2-23 26.5-20.7 37.2-4.1 55 50.2 13.8 51.3zm-149.6-41.6c-14.7-19.8 15.7-70 45.1-67.2 23.5-3 20.2 46.4 6.1 50.4-21.6-10.2-37.8-.4-51.2 16.8zM247.8 421.1c-26.4-1.4-19.3-31.9-9.1-48.1 30.7-21.7 66.8-36.7 96.2-63.1 27 2.6-63.4 116.8-87.1 111.2zm108.3-133.9c-27.5 3.1-121.4-20.1-65.8-53.9 44.6-18.9 78.6 27.2 119.6 29.9 50.8 9.2-38.6 25.5-53.8 24zm324.7-4.3C634.8 281 592 266 548.5 251c-9.5-6.4 6.8-7.4 5.8-13.9 2.1-6.6 11.8-8.9 16.7-13.3 21.9-16.1 50-27.3 55.5-56.9 1.1-9.9 8.5-12.8 15.9-15 32.3-16.3 58.2 13.3 29.2 38.7-16.7 11.4-31.5 21.3-48.4 29-64.7 34.5 82.2 6.9 94.5 26.7 31.5 22.8-16.7 38.8-36.9 36.6zm-230.2-21.5c-67.6-39.6-50.1-157.4-8.1-95.2 10 27 19.9 73.7 8.1 95.2zm19.7-2.6c-12.8.2 31.7-56.2 27.6-76.2 29.4-120.8 154.9-28.7-27.6 76.2z" fill="#d81e1e"/><path d="M982.6 1293.6c-25.4-15.6-49.3-30.8-74.3-47.6 19.6-5.8 36.1-16.8 55-24.4 3-1.3 6.7-2.8 6.7-5.4-.5-5.1-6.5-3.9-10.5-2-17.3 7.6-34.5 15.3-52 22.4-3 1.2-6.6 4.7-10.5 1.5-14.7-12.1-29.5-24.3-44.1-36.6-.6-.5-3-.4-.5-2.5 26.2-23.9 53.1 5.4 81.8 4.2 4.9.2 4.8-4.6.8-6-3.3-1-6.8-1.2-10.1-2.2-12-3.9-24-8.1-36-12.1 9.3-8 40.6-11.9 42-19.8-4.9-9.7-69.9 20.4-80.5 25.2-2.2 1.1-5.7 8.2-8.6 2.5-5.7-11.1-12.1-21.7-20.5-31.5 32.5 6.9 68.1-8.8 50.2-46.9-.6-1-3.6-5 .9-5.2 19.6-.7 39-.8 57.4 8.2s28.1 22.9 29.3 43.4c.5 9.7 8.5 13.1 16.2 16.1 1.2.2 2.3-1.2 3.2-1.9 1.7-1.8-.7-2-1.4-2.8-2.8-3.3-9.5-3.8-9.5-8.5 3.1-50.3-55.4-69.8-96.7-62.5-2.9.3-5.2 5.3-8.2 2.1-15.2-18.8-41-20.3-33.5-24.2 22.3-7 46.4-16.5 60.7-36.3 13.1-19.9 15.5-46.9-7.6-64.2-1.6-1.2-1.8-2.5 0-4 37.7-26 11.1-80.5-29-76.5-.5-.1-.6-3.5.8-5.3 26.7-27.4 44.3-56.3 15.1-92.2-10.3-8-33.6-3.3-27.5-27.6-5.5-55.3-73.5-64.7-104-23.6-8.3 21.1-13.3-13.2-50 10.3-1.8 1-3.1 1.3-2.6-1.2 2.6-12.8 5.3-25.7 8.1-38.5 4-18.9 10.3-37.3 12.3-56.8.6-6.2-1.8-14.8 4.2-18.9 35.5-28.8 74.2-10.1 111.7 1.6 29.7 10.5 71.2.4 76.8-35 7.5 4.4 14.8-.7 22.3-.3 20.8.8 40.7-5.4 55.4-20.4 1.5-2.2 2.5-5.3 0-8-3.6-4-5.4 1-6.8 2.5-27.3 30.1-80.5 10-80.2 22.5-.9 11.6-7.4 19.2-16.6 25.5-49.1 29.6-101.4-44.4-161.8.9 11.2-88.8-3.1-58.1 80.1-31.2 4.3 1.2 9.6-3.6 3.2-5.9-20.6-9.7-40.3-18-61.8-26.7 8.8-3.3 26.2-18.5 33-13.5 27.3 22.9 58.1 41.4 91.3 54.7 7.1 5.2 10.1-3.5 3.8-6-10-2-17.4-9-26.4-12.3s-15-10.5-23.8-14c14.7-.8 27.2.8 41.3 3.1 2.2.3 5.9 1.2 6.4.3 1.4-2.5-1.4-4.8-3.1-5.3-17.5-7.2-36.3-5.8-54.4-7.2-8.5-.8-16.2-9.6-24.5-14.3-3.8-2.2-1.3-3.3.2-3.9 23.1-5.7 60.3-15.2 82.5-5.7 11.5 6.3 22 14.3 32.8 21.8 9.8 6 25 19.7 36.7 12.5-1.3-1.2-2.5-3-4.1-3.5-19.5-6.6-34.8-19.9-54.7-32.9 20.9.5 89 12.5 98-4.8-.5-3-3-4.2-6.6-2.8-42.6 8.2-83.3-6.7-126.8-3.5 24.6-10.7 45.1-16.3 64.3-33.7 2.9-2.5 8.8-3.6 6.3-8.2-2.8-4.9-7-.2-9.6 1.7-13.7 10.3-28.9 18.2-45.2 23.6 5.2-13.4 11.8-26.3 19.8-38.3 1.6-2.5 2.9-4.9.9-6.8-6.8-4.7-19.7 24.3-23.5 29.5-4 7.4-3.3 17.8-12.2 22-18.4 8.7-37.9 14.7-58 17.8-3.1.5-5.8 4.2-9 1.4 12.8-23.2 21.4-49.7 26.8-75.9 1.6-6.4-6.6-9-7.4-1.9-2.7 17.5-8.8 33.9-16.3 50-6.7-9.7-9.1-20-11.7-30.3-.7-2.2-3-3.4-5.1-2.7-2.2.7-3.4 3-2.7 5.1 0 .1.1.3.1.4 5.2 9.1 4.7 20.1 10.7 28.9 5.6 8.3-1.4 28.8-10.8 33.5-11.3 5.7-22.6 11.7-33.9 17.7 1.1-18.3 4-36.8 6-55.1 1-8.1-.3-18.3 4.1-24 17.8-21.5 52.8-72.4 85.2-61.1 10.2 4 18.2 20.1 13.6 30.4-1.3 2.9-.5 6.7-.6 10 2.8-1.5 4.6 2.1 8.3.7 33-16.5 94.1-21.7 103.3 25.4 1.2 20 22.1 1.7 33.6 15.4 4.5 7.6 11.5.9 5.5-4.8-7-5.9-15.3-9.6-24.7-9-1.5.1-4.1 1.3-4.2-1.9-6.3-52.2-77.6-56.3-113.7-32.3 9.3-32.7-17-55.8-48-41.1-24.3 12.6-40.5 34.1-58.4 55.5 6.8-53.9 8.8-107.8 10-162 .2-4.4-1.1-6.5-5.9-6.1-9.8.7-19.5 1.3-29.3 1.6-22.6-1-44.2 2-66.5 3.9-35.1 3-71.1 2.1-106.3 6-6.6.6-7.2-.9-5.2-6.3 6.4-17.2 12.5-34.5 19.3-51.5 1-2.6 2.2-9.3 5.8-7.1 23.6 12.8 48.9 21.9 75.2 27.2 28.6 5.5 60.2 12.5 88.6 2.2 18.2-7.7 22-14.5 16-29.6-3.3-8.5-12.9-9.3-19.7-13.5 13.8-5.1 31.1-8 39.7-21 12.6-27.8-31.7-44.2-53.1-40.5-3.7.4-12.1 4.6-7.1-6.4 8.3-24.5-27.9-32.7-46.6-22-7.5 3.8-10.8 4.1-13.4-4.9-11-20.5-41.8-9.2-55.2 3.7-7.5-38.2-49.6-27.4-64.7-2.8-1.2-.8-1.4 5.1-4.3 0-6.9-19.5-28.2-20.4-40-3.8-6.5 9.4-11.2 19.5-14.8 34.3-1.3-10.4-6.4-14.8-8.5-20.4-4.2-11.1-19.7-15.5-28.8-7.7-19.3 16.7-14.7 37.3-10.2 58.4-19.2-12.8-77.9-21.7-69.5 17 1.1 3.8.9 5-4.1 5-15.5.1-31.6-3-46.1 6-10.5 6.5-18 14.2-13.5 27.9.7 2.1.5 2.2-3.5 2.2-28.3-2.7-109.9 13.9-68.9 52.9 2.2 2 1.8 2.6-.5 4.1-19.1 10.5-47.6 31.2-25.6 54 14.6 13.4 41.6 8.5 59.7 3.4 1.1 11.5-7.7 19.9-3.9 32.4 2.6 10.7 16.2 20 26.2 14.9 14.4-7.4 28-15.8 39.6-27.6 25-25.5 43.1-55.2 55.1-88.8 2.1-5.8 3.8-15.7 12.9-12.5 44.3 19.1 78.4 55.3 106.2 93.9 5.9 7.8 1.4 16.6.6 25-1.2 13-.3 26-1.5 39.1-7 121-30.7 241.9-61.6 358-15.6-43.4 8.4-109.7-45-131.4-3.1-1.2-3.8-3.3-4-6.6-1.6-38.1-48.3-49.7-73.2-12.4-2.9 4-3.5 1-4.1-.5-2.7-6.7-4.8-13.6-7.7-20.2-10.3-35.6-61.1-115-87-49.2-.6 1.9-2.8 1.4-3.8.2-4.5-6.2-9.1-12.3-13.4-18.6-8.6-12.7-31.9-15.7-43.7-6.1-35.8 29.2-32 87.6-5.8 121.3-3.5 1.9-7.3 4.1-11.2 6-29.3 16.6-15.7 66 7.8 81.1 13.6 7 27.3 13.4 43.3 16.6-44.3 15-30.1 75.2 15.5 71.2 9-1.7 5.9 18.7 14.4 24 51.7 43.9 117-13.6 171.6 16.5 5.8 3.2 18.1 3 14.9 15.3-10.1 30-25.2 58.1-37.6 87.2-.2.4-2.5.4-2.6.2-13-17.5-37.2-26.7-56.8-13.8-2 1.2-2.8 7.3-5.7 3.7-8.8-10.9-20.9-16.9-32.1-24.5-26-16.5-64.3 10.7-61.5 39.9-20.8-12.5-39.4-27.8-66.8-23.2-20.1 3.3-36.2 10.6-45.3 28.8-6.5 12.9-13.3 26.8-7 41.7 3 6.9-.1 8.4-4.8 8.8-27.5 2.5-38.9 38.2-36.7 57.7 2.5 28.6 19.7 61.9 50.8 65.2 8.5 1 12 2 10.9 11 5.8 28.5 35.8 39.6 61.9 37.6 29.3-1 52.7-19.1 79.5-27.5-1.8 16.8-41.6 47.8-12.9 57.4 66.8 4.7 128 15.4 195.8 17.7-20 13.1-22.7 29.8-18.7 48.8.3 1.4.5 3-2.1 3.5-38.1 16.6-17.8 63.6 17 70.2 5.2 1.1 7.1 3.7 2.6 9-27.8 33.4 1.8 83.5 38.7 95 32.1 5.4 13.9 10.5 24.8 33.7 29.7 64.1 143.4 48 162.5-16 2-10.2 5.2-7.7 12.1-6.3 28.1 9.6 57.1-6.4 66.6-34.2 7.2-15.3 2.8-30.3 1.3-46.2 35.8 1.6 66.6-34.9 51.5-68.6 11.7-10.7 16.7-24.2 18.2-39.4 0-5.5 13 8.8 14.8 10 18.1 17.2 46.1 39.2 71.7 24.9 15.9-11.7 20 26.4 83.9 19.6 9.4-.8 21.7.3 25.8-12.7.5-2.5.8-6.1-3-4.6-6.1 5.5-13.5 7-21.4 8-57.8 8.7-60.9-25.3-80.3-21.4-12 4.3-23.3 11.1-37.4 3.2-21.9-12.2-41.9-25.9-54.8-47.8-2-3.5-8-9.2-4.3-12 11.1-8.2 22.8-25.2 18.7-41.4-17.3-34.5 23.8 9.4 48.6-18.1 2.7-2.6 2.7.1 2.7 2.1 0 27.5 5 54.6 8 81.8-.6 5.4 5.2 2.3 5.9-.1-1-19.5-3.3-38.9-3.3-58.4 13.8 14.4 19.9 34.1 29.3 51.4 1.1 2.2 2.5 2.9 4.2 1.8 1.2-1 1.7-2.6 1.5-4.1-4.5-14.8-10.5-29-18.9-42-4.8-7.4-12.7-13.1-16.3-20.9-5.4-11.7-.5-25-2.2-37.6-.3-2.5.5-5.1.7-7.7 5.3 4.2 11.5 8 16 13 8.4 10.6 24.1 13.9 27.7 29.2 9.3 31.5 21.9 83.3 44.6 106.3.9-1.7 2.9-3.8 2.5-4.9-5.9-13.7-12.1-27.3-18.5-40.7-.7-1.5-1.4-2.6-.5-3.7.3-.3 2.4.4 3.3 1.1 8.9 7.2 19.4 12.4 26.5 21.9 3.4 3.1 11.1 13.9 16 9.2 2-1.5.5-3-.6-4-11.4-15.6-26.1-27.3-42.7-37-3-1.8-7.7-.4-9.1-5.1-3.8-14.1-9.6-27.7-11.7-42.2 24 15.2 48.1 30.6 72.6 45 4.2 2.5 13.8.9 6.7-4.1zm-150.4-202.5c24.2 9.3 54.4 49.8 13.5 58.4-27.9 3.9-49.7-11.9-74.3-18.8 14.8-5.7 26.3-17.4 30.7-31.9 3.4-3.8-4.5-15.9 9.9-12.1 6.4 1.6 13.7 1.2 20.2 4.4zM699 1128.7c8 1.5 16 5.3 22.9 3.8 8.4-1.8 13.8 1 20.7 4.3 21 10.2 21.1 36.9 8.1 51.4-7.4 8.2-35.3 4-42-5.3 14.6-22.3 4.8-36.2-9.7-54.2zm-31.5-39.7c20.8-15.6 70.5-16.6 71.6 15.1-10.1 21.7-58.5 9.8-75.4 1.7 4.3-4.9-2.2-12.4 3.8-16.8zm30-20.1c-1.1-.1-2.1-.4-3.1-.9 1.2-2.3 1.9-5.1 3.6-6.9 9.1-9.4 16.3-18.8 18-33 .8-6.5 11.7-9.1 22.3-9 27.7 3.9 26.1 31.9 3.2 44-13.9 9.5-29.2 4.9-44 5.8zm11.3-56.6c-1.6 9.6-8.8 2.9-12 2.2-19.4-4.4-34.3 3-43.3 19.7-.5-24.3 15.4-60.3 46.5-59.1 17.7 1.4 9.1 25.7 8.8 37.2zm-40.6 17c7.8-9.3 31.7-9 36.2 1 3 6.6-3.4 11.5-6.6 16.6-8.7 13.6-22.1 22.5-35.4 30.7-2.3 1.4-9.8-5.5-14.7-8.8 3.2-14.7 10.3-28.3 20.5-39.5zm-11.2 66.1c.6 21.8-46.3 33.4-49.9 3.9-.6-26.1 52.4-31.7 49.9-3.9zm-15.2 50.8c-2.3 17.8-4.2 32-12.4 44-3.6 5.2-9.8 10.7-16.7 8.3-22-12.9-3.2-54.2 4.4-72.1 1.3-2.8 3.9-1.4 5.7-1.2 6.5.7 14.3-.2 16 8.8.9 5.2 3.9 10.2 3 12.2zm6.7 7.1c9.3 18 19.9 28.5 36.3 32.7 28.2.2 14.7 43.3-5.6 47-14.9 4.2-30.5-7.2-36.7-22.8-7.7-19.6 5.7-35.1 6-56.9zm-47.8 46.7c6.6 10.2 16.4 8.1 25.8 5.5 0 21.3-26.6 37.6-46.3 25.3-8.8-5.2-17-31.4-12.8-41.1 15.2-46.4 13.2-21 31.9-46.3-4.6 21.6-9.8 39.3 1.4 56.6zm44.1-179.5c-.2 3.7-1.8 7.4-2.8 11.3-4.9-18.9-10.2-30.4-26.3-40.4 2.2-9.2 5.3-18.3 9.1-27 5.3-6.4 15.9 2.9 17.9 8.2 5 15.6 2.9 31.9 2.1 47.9zm-20.2-6.7c6.4 12.9 11.8 26.3 9.9 43-1.1 2.8 3.2 10.8-1.4 11.5-8.6 1.2-19.8 10.9-26.4-4.3-2.1-4.8-6.5-8.4-9.6-12.8-7.4-10.7 2.8-18.7 4.6-27.9.7-3.6 1.9-7 3.6-10.2 2.1-3.9 1.9-11.4 6.3-11.3 6.3.2 10.3 6.5 13 12zm-27.8 58.6c3.5 2.6 12.3 2.7 9.5 8.6-3.6 7.8-7.4 17.4-19 18-6.7.4-13.1 3.2-20.2 1.4 4-7.8 9.4-14.9 11.4-22.8 3.7-13.4 10.6-10.9 18.3-5.2zm-6 36.3c12-3.9 11.3 7.7 17.3 10.9-2.6 13.6-29 34.9-42.2 36.1-6.8-1.9-14.7 1.4-20.2-6.3-4.1-5.7-.1-9.7 1.7-13.3 8.7-18.2 26.4-21.9 43.4-27.4zm-33 55.5c2-.2 4.2.7 6.2 1.1-12.2 17-27 33.2-51.5 31.4 11.3-13.3 16-29.5 25.4-42.5 4.9 6 11 10.6 19.9 10zm-39 43.6c-17.1 16.3-21.5 49.4-11.6 60.9 12.3 14.3.1 15-7.8 18.8-12.1 5.9-24.4 9-37.8 3.6-13.9-5.6-5.6-12.5-1.3-18.7 13.3-18.8 27.8-36.9 40-56.3 5.1-8 9.7-10.7 18.5-8.3zm-3 19.5c5.7-22.1 27.9-26.3 42.5-39.7.5 19.1.3 44.4 21 52.7 9.4 4 3.3 6.9 1.6 10.9-8.3 19.5-51.8 31.2-63.7 16.3-9.8-12.2-4.7-26.6-1.4-40.2zm29.4 57.6c0-5 5.7-4.5 8.4-5.3 17.8-5.3 31.7-14.4 37.6-33.1 1-3.3 5-4.1 8-3.2 4.3 1.2-.3 3.1-.1 4.7 2.1 15.1.6 31.5 12.7 43.5 6.7 6.6.3 11.6-1 16.9-7.5 30.4-58.7 49.3-68.1 10-2.7-12 2.4-22.4 2.5-33.5zm66.1-12.9c-4.2-9.3-3.2-20.1-1.7-30 .5-3.2 6.5-5.7 10.2-8.3 8.2-5.7 11.7-14.1 14.3-25.4 3.9 18.5 20.4 35 36.6 37.9 4.7 33.6-39.4 72.6-59.4 25.8zm36.6 29.6c22.2-6.3 31.1-29.8 29.4-50.7-.2-2.4-2.6-5.9 2-7.9 9-4 18.6-12.7 23.3 4.7 4.2 15.6 10.8 30.6 10.4 45.5 3 32-30.3 70.8-58 40.7-6.1-8.7-12.7-17.3-15.4-27.5-1.6-6.3 5.9-4.2 8.3-4.8zm50.2-125c-28.4 6.8-44.1-28.9-52.1-50.2-2.3-5.8 8.4-12.3 13.1-12.5 17.9.8 67.1 45.5 39 62.7zm35.8-54.2c17.2-7.9 19.4-23.3 8.6-37.2-4.2-5.9-10.7-9.6 2.5-13.7 12.9-3.9 37.1-.4 45.5 10.1 8 10-2.8 32.7-17.8 37.1-12.6 4-25.8 5.2-38.8 3.7zm49.6-89.7c18.5-2.2 36.1 6.4 39.8 23.6 1.3 15.7-7.9 16.2-15.9 18.9-11.8 4-16-9.2-25.5-10.4-3.9-.5-7.7-3.9-11.3-3.5-16.4 1.7-3.9-7.7-2.2-14.4-.7-11.1 4.4-14.2 15.1-14.2zm-52.2-267.9c3.5 2.6 7-6 9.5-9.5 19-27 52.7-31.8 77.8-15.3 14.6 11.5 17 39.6 15.8 57.5-.4 5.4 4.7 3.9 7.4 3.3 17.8-3.5 37.4 16.3 35.4 34.5-2.1 26.3-22 41.5-35.5 61.6-5.2 4-.2 9.3 5.2 8.1 37.4-7.8 62 40.4 28.2 62-4.2 2.6-8.6 5.9-8.5 10.6.1 3.8 4.8 4.8 8.9 6.1 11.8 3.8 16.9 26.9 13 39.4-7.7 24.7-30.8 30-48.9 42.4-12.8 3.4-5.2-7.7-5.9-10.5-5.5-22.6-31.5-38.4-53.3-30.8-8.2 2.8-14.7 4.9-20.3-5.2-4.1-8.2-15.2-6.7-22.8-10.2 17.5-11 19.9-14.3 39.8-7.3 14.7 1.5 72.6 18.7 79.4 5.2-.2-3.3-4-1.7-6.3-1.8-26.7-.1-52.3-7-77.9-13.3 1-1.5 1.7-3.7 3.1-4.3 28-10.4 51.3-29 77.1-43.3 2.1-1.2 5.2-3.5 3.6-6-4.2-8.6-49.1 28.7-58.5 28.5 6.3-12.9 14.5-24.9 22.1-37.1 1.7-2.6.5-3.6-.7-3.9-1.8-.5-5-.6-5.7.5-7.7 11.2-16 22.2-22.1 34.3-7.7 15.5-21.8 21.7-35.8 28.6-10.1 4.9-19.6 11-30 15.4 8-27.1 25.8-75.7 46.2-94.4 11.1-11 26.4-13.4 40.1-19.1 6.5-4.2 38.8-20.7 34.7-28.8-4.3-3-53.7 37.3-40.5 17 5.1-8.2 38-39.6 30.7-47-1-.5-4.1 1.8-5.5 3.5-19.4 24.6-39.2 48.8-60.3 72.1l-4.5-3.3c16.1-47.7 31-98.5 22.7-149.1-.3-2.3-2.1-2.2-3.8-2.3-3.2-.1-2.5 2.3-2.2 3.8 3.7 27.9.7 56.3-8.6 82.8-1.5-19.4-8.1-37.9-7.4-57.3.1-1.9.4-4.8-2-4.9-11 2.4-.2 60.7 4.4 69.3 5.4 13.7-3.8 22.7-5.5 33.9-1.6 8.2-5 16.5-8.6 24.2-1.2-.8-2.8-1.4-3.4-2.5-6.4-11.1-12.5-22.5-19.1-33.5-4.2-7 1.1-12.7 2.6-18.5 4.1-16.1 6.6-32.6 2.8-48.8 1.3-3.6 1.7-7.1-1.5-9.9-3.3-1.4-6.3 8.9-5.2 11.8 4.7 18.1-3.2 33.8-5.1 51.5-8.5-13.1-11.3-27.4-17-40.4-1.8-4-2.1-12.5-6-10.6-6.1 2.9-1.3 10.7-.1 15.8 9.9 32.9 24.3 65.7 46 92.5 4 4.7.4 8.1-.7 11.2-4.3 9.7-7.8 20.5-14.6 28.7-9.9-16.7-11.4-38.1-22.3-54.2-7.7 6.5 13.6 53.8 19.1 63.1 3 5-2.7 13.1-6.9 18.1-1.9 2.3-5.1-2.7-6.9-5.1-8.3-10.8-16-22-24.6-32.5-3.6-4.4-1.2-9-.7-12.3 3.2-20.3.7-40.4-.8-60.6.1-8.3-10-6.3-8 1.5 3.7 17.5 1.4 35.3 1.8 53 0 1.1-1.5 2.3-2.3 3.5-8.8-7.8-13-20.5-20-30.1-1.6-3.9-4.8-6.2-6.8-1.2 5.8 24.4 27.1 43 39 65.1 5.6 9.8-5.9 5.2-7.5 5.9-14.2 4.8-23.6 13.9-32.4 25.4-.8-50.1-38.8-27.2-20.8-52.5 11.8-41.5 24.9-82.7 35.2-124.6 3.5-12.4 6.4-25.4 12.2-36.7 8.3-15.8 31.3-26.4 50-13zm-16-515.3c16.9 10.2 6.8 21.3-7.3 25.2-54.7 12.9-105.3-11.2-158.3-27.5 16.6-.8 29-9.9 43.6-8 27.3 3.5 54.8 5.6 82.3 2.9 14.1-1.4 27.4-1.7 39.7 7.4zm-19.4-66.2c17.1 1.5 35.3 1.8 45.4 19.3 11.6 19.2-36.5 27.9-48.5 30.3-13.5 2.7-27.2 2.3-43.2 2-13 2.8-28.3-3.6-43.7 0-.6.1-1.4-.9-2.1-1.4 16.9-9.5 36.3-15.6 52.3-27.9 13.6-7.3 22.8-24.2 39.8-22.3zm-65.5-16c1.2-10.1 10.7-10.4 17.3-12.9 28-10.5 45.1 8.8 21.6 32.9-33.7 23.6-70.1 42.9-111.1 49.7 27.3-20.9 65-33.2 72.2-69.7zm-34-25.9c23.1-9.3 34.5 14.5 23.1 32.9-28 43.7-85.3 66-133 80.9 35.5-24.6 72.2-51.1 85-94.4 3.3-10.3 14.7-16 24.9-19.4zm-89 19.9c32.9-70.8 127.9-12.2-37.1 93.5 24.6-30.7 28.2-59.5 37.1-93.5zM457.5 180c2-15.6 6.6-31.2 21-41.1 3.3-2.3 7.4-3.6 10.4-.8 5.1 4.8 11.5 9.3 9.9 18-7.2 37.3-15.3 70.6-40.8 101.7 5-28.2-2.4-51-.5-77.8zm-43.7-20.9c2.4-3.2 7.7-7.9 9.8-7.1 30.7 18.6 26.7 73.2 27 105.4-25.3-21.8-56.6-65.8-36.8-98.3zm-73.7 54.6c2-10.4 13.9-11 23.8-11.2 14.1-.3 26.3 6.2 39 10.8 8.1 2.9 9.4 12 13.2 18.1 7.5 12 17.5 21.4 27.5 31.3-24.7 3.4-105.8-18.2-103.5-49zm-144.8 84.5c.7-25.1 53.6-26.9 73.7-29.5 7.7-2.1 12.5 6.8 19.8 9.8 8 3.3 16 7 24.5 8.3 7.4 1.1 14.5 6.5 22.5 2.4.4-.2 1.4.6 2 .9-31.7 21-76.3 29.6-114.6 24.5-10.8-1.8-26-.8-27.9-16.4zm115.2 64.2c-11.2 16.1-23.5 31.7-40.3 42-9 5.5-17.6 17.8-30.5 10.3-13.4-8.7-3.2-28.6 2.3-39.5 5.3-8 15.3-9.1 23-13.5 26.1-13.9 48.5-30.4 72.3-48.6-7 17.4-16 34-26.8 49.3zm-72.2 2.1c-18.2 7.4-37.4 11.7-57.3 6.4-8.7-2.3-11.1-17.3-4.6-26.2 8.2-11.1 20.5-16.9 31.9-22.6 5.6-2.8 15 2.7 22.7 2.8 15.1 0 30.8 1.2 45.2-2.3 19.7-4.8 40.4-8.5 57.6-20.7.7-.5 1.7-.5 5.2-1.4-31.8 27.4-64.2 49.1-100.7 64zm107.6-81.7c-16.6-1.8-73.9-8.1-68.5-32.5 9-21.4 41.5-16.4 60-14.5 8.8 1.4 16.3 10.4 24.7 15.3 18.8 12.4 39.2 14.5 61 19-26 7.7-51 15-77.2 12.7zm89.4 52.2c-18.1-17.2-39.4-33.7-61.9-43.3.7-.9 1.5-2.4 2.3-2.4 22.1-.9 42-10.5 62.9-16.1 29.9-8 61-10.9 89.6-23.9 2.7-1.2 6.5-.2 10.1-.2-11.2 18.5-19.2 38.4-23.1 58.9-3.3 17.6-14.6 5.9-21.6 8.5-5.7 2.1-12.8.1-19.1.6-4.6.4-2 4.9-2.1 6.8-1.1 17.5 2.1 35.2-1.9 54-10.2-15.6-22-30-35.2-42.9zM330.9 886.6c-45.2-7-91.4 22.2-133.9-3.3-10.9-5.5-7.6-29.3-18.3-27.9-43.4 8.1-57.3-49.2-11.8-56.4 8.5-.6 17-2.5 25.4-4.3 1.2-.3 2.3-3.2 2.6-5.1.6-2.8-1.7-2.5-3.6-2.6-26.1-2-51.7-5.2-74.6-19.7-11.7-7.4-19.6-35.5-17-48.4 3.2-15.6 15.2-17.7 25.4-23.4 14.9-6.2-33.9-27.1-16.6-89.4 3.9-20 27.1-48.1 46.4-29.7 9.1 9.9 17.1 20.7 25.6 31 1.5 1.8 2.8 4.6 5.9 3.4 3.6-1.3 2.4-4.6 2.7-7.3-.4-19.3 12.9-38.8 32-23 32.5 22.3 35.6 62.5 55.7 92.9 10.8 11.4 13.6-38.7 58.1-20.3 6.6 2.8 9.6 10 9.4 14.9-.4 31.3 37.5 17 40.5 60.5 2.5 22.9 3.2 46.1 6.6 68.9 5.6 27 14.3 30.9.8 59.5-.6 1.8-2.6-.4-3.7-1.4-11-10.2-22.5-20-32.7-30.8-5.9-6.3-.9-14.8 0-21.9 2.1-17 1.4-33.7-.1-50.5-1.2-8.2-1.1-43.5-12-42.9-3.4 1.1-.9 3.7-.7 5.5 5.2 33 6.4 66.5 3.7 99.8-8.1-6.5-16-12.7-23.8-19-3.3-2.7-6.6-4.8-4.1-10.7 3.2-7.5 2.3-16 1.7-24.2-2.3-10.5.4-87.7-11.2-83.6-4.3 1.5-.7 4.5-.6 7 .6 19.6.8 35.6 2.6 56.1-8.2-13.1-15.3-24.3-22.4-35.5-1.9-3.7-6-4.5-9.3-2.1 14.4 32.9 36.7 42.5 30.7 82.4-20.9-13.7-38.8-32.3-57.9-48.5-6.7-6.1-3.8-15.8-5.2-23.8-6.9-34.6-11.7-73.4-30-103.3-2.3-.5-6.6-1.8-4.7 3.7 9.4 23.6 16.6 47.8 20.5 73.1 1.7 11.9 7.6 23.8 5.2 36.1-29.6-29.7-55.6-63.7-83.8-94.9-4.5-6.1-7.8.6-4.9 5.2 27.1 32.4 51.8 68.4 82.8 97-20.5 9.7-35.3-3.6-51.3-13.1-10.4-6.2-21.1-11.6-31.9-17.2-1.2-.6-3.1.4-4.7.7 11.4 17.4 35.3 20 50.8 35.2-18.9-3.2-37.4 3.5-55.5-3.1-3.6-1.3-9.4-3.5-10.4 1.1-1.3 5.7 4.9 5 9 6.1 22.5 6.1 45.4 4.6 68.1 2.9 9.5-.7 19.5 1.1 28.9-2.8 5.4-2.2 8.9 2 12.3 5.5 16.2 16.6 35.3 29.8 52.9 44.6 1.9 1.6 3.6 3.6.1 5.1-7 3-14 6-21.2 8.3-9 2.9-16.8-3.1-25.3-4.3-12.2-1.7-24.3-4.3-36.5-6-2.9-.4-8.9-3.9-8.3 2.3.6 6.5 8.6 4.5 13.1 5.9 12.8 3.9 26.8 2.8 39.9 9.8-23.5 4.5-45.2 11.9-68.9 13-2.1 0-4.3 2-6.4 3.1 2.7 1.5 5.5 4.5 8 4.2 23.7-2.7 47-6.6 70.1-13.3 11-3.6 21.8-8 32.2-13.2 10.2-5.2 17.6-4.6 25.4 3.3 5.2 5.2 11.1 9.8 16.7 14.6-17 10.3-34.8 19.4-54 25.4-15.9 5-32.2 9-48.4 13.1-2.5.6-4.1 1.3-4.3 3.8.9 8.7 51.1-8.2 58.7-10.1 18.9-5.5 36-14.6 52.8-24.7 2.6-1.6 3.9.2 5.1 1.3 12.6 11.6 25.9 22.5 37.1 35.3 6.7 9.1-7.2 24.9-7.9 35.6-.3 2.8-1 4.5-4.9 1.7-12.6-9.1-27.1-13.8-42.7-17.2zM203 1208.7c-31.9 14.4-70.7 34.6-103 11.2-7.8-5.5-17.4-15.1-13.2-29 1.8-5.9-2.2-9.8-8.4-9.8-60.6 4.2-75-104.9-10.3-108 21.9-3.3-19.5-20.2 6-55.4 12.4-19.8 46.4-24.4 65.6-16.3 14.7 6.2 26.3 19.2 43.3 20 1.9.1 6 1.6 4.2-3-6.4-16.9 3.3-30.8 15.7-37.6 14.2-7.8 27.5-4.6 40 4.7 10.4 7.8 21.6 14.8 28.4 26.6 2.2 2.5 7.1-.3 7.7-3.1 5.5-24.4 27.8-13.2 42.1-2.9 14.8 8.7 4.1 17.9.3 26.8-5.2 11-9.6 18.8-15.2 30.6-4.7-15-4.1-28-10.7-40.5-5.6.3-5.4 7.8-4.2 11.5 2.3 12.2 6.8 24.1 7.5 36.3.6 10.1-5.4 20.7-15.2 23.1-6 1.5-12.5-7.3-17-13.4-16.7-24.5-35.7-47.4-51.7-72.2-.8-1.2-1.4-4.5-3.9-2.7-12.6 7 28.6 47.4 31.8 58.4-21.7 1.8-42.7-7.6-62.6-15-.9-.4-2.4.7-3.7 1.1 15.7 14.1 37.1 20 58.3 21.1 10.7.2 17.8 7.1 25.7 14.7 14.7 14 4.6 15.8-6.5 18.9-21.1 9.1-26 5-46-2.7-24.4-6.3-45.1-20.4-66.8-32.1-14.1-7.5-26.5-18.2-39.5-27.7-2.7-2-5.5-2.4-7.6-.4-3.1 3 1.3 3.8 2.5 4.9 14.1 12.4 29 23.9 44.6 34.4-11.3-2.9-22.6-5.8-33.9-8.9-1.2-.3-2.6-1.8-3.2.1-.3 1.1.4 3.7 1.2 3.9 15.9 5 30.4 14.4 48.3 12.8 11.3-1 18.9 9.6 29 13 5.6 1.9 11 4.3 16.4 6.8 2.9 1.3 6.8.8 8.6 4.4-40.4 12.2-84.6 6-126.4 7.5-9.4 0-18.8.2-28.3.1-2.4 0-2.9 1.7-2.9 3.2 0 2.7 2.3 2.6 4.4 2.8 25.4 3 50.5 1.3 76 2.3-17.2 10-33.3 18.7-51 23.6-1 .3-2.6 2.2-2.4 2.8 2.2 9.3 33.7-6.8 38.7-10.3 27-19.2 59.5-19 91-20-17.3 17.6-36.3 33.6-56.6 47.6-6.9 5.4-15.4 11-20 18.6 6.3 4.7 51.2-32 57.9-38.1-.3 15.9-6.5 30.8-11.1 46.2-.7 2.3-1 4.2 1.6 4.4 6.6.6 7.3-5.4 8.4-9.3 14-76.1 26.6-68.6 94.4-89.5-11.8 24.1-25.9 47.2-38.9 70.7-5.1 8.9-10 18.7-17.4 25.3-5.3 4.8-14.8 4.1-22 7.5zm152.1 62.4c-44.6-5.2-89.4-10.3-134.3-12.2-14.6 1.3-16.6-1-6.5-14C277 1144.5 339.5 1042.7 382.1 932c21.9-59 36.9-120.7 50.4-182.1 33.2-137.6 48.4-279 50.4-420.4-.1-5.1 3.7-5.3 9.3-5.3h58.9c58.7-2 117.3-4.4 175.9-7.2 3.7-.2 3.9 1.2 3.6 4.3-2 20.5-2.5 41.3-6 61.6-7.1 80.6-16.7 160.8-24.7 241.3-10.4 63.2-25 125.7-42.3 187.4-35.8 140.2-86.4 278.7-167.5 399.3-68.4 90.2-21.6 68.8-135 60.2zm409.1 77.9c-9.3 26-25.4 19.6-16.1 33.7 16.4 27.8-22.3 61.4-50.3 50.4-2.7-.9-4 .7-3.3 4.1 2.1 10.5 5.1 21.1 5.2 31.6.3 19.3-15 50.7-42.5 48.2-10.4-1-20.9-1.3-31.4-2.1-3.4-.3-5.5 1.4-5.6 4.3-2.5 34.3-46.6 59.5-77.9 58.4-98-2.7-59.6-68.3-85.8-71-29.8-1.6-56.8-28.4-58.7-57.7-2.1-13.3 8.1-25.1 14.7-36.6.9-2.7 4.3-4.8 2.4-8.1-1.7-3-4.9-1.3-7.3-1.3-32.6-.7-56.6-45.9-18.6-58.7 11.5-4.7 2.2-12.1 1.8-17.9-1.1-16.4 6.8-28.4 19-36.4 4.5-2.9 13.7 1 20.7 2.3 11.7 4 14.2-7.5 18.3.1 19.6 21.3 55.5 7.1 73.1-10.8 1.9-2.2 10 1 15.2 1.8-1.2 12-7.5 24.2-2.8 36 2.2 5-1 7.4-11.8 9.5-12.3 2.3-22.6-4.8-34-7-14.5-2.9-29.4-3.7-44.2-2.3-4.6 1.6-21.6-1.2-21.7 4.4-1.6 5.9 36.1 1.9 41.8 3 13-.1 24.8 4.8 38.5 8.7-33.9 11.4-64.7 22-96.9 35.8-4.9 1.6.3 5.9 3.1 5.3 34.3-11.4 67.1-23.8 101.9-34.1-15.9 21.8-35.6 38.2-55.5 54.5-1.1.9-4 1.5-2 3.3 9.5 9.9 59-43 64.6-53.3 4.9-6.9 12.8-16.7 22-12.4 14.9 25.2 42.3 4.4 34.6 22.9-3.2 7.6-6.8 15.3-8.3 23.4-2.4 12.9-13.6 13.3-22 17.8-14.5 7.9-29.4 15-43.6 23.4-13.5 8-25.8 17.8-37.5 28.4-4.1 2.8-26.4 30.4-10.2 23 8.6-7.8 14.3-18.2 24.4-24.7 11.5-7.5 22.6-15.8 35.8-25.1-12.5 18.5-20.7 36.7-33.8 51.6-1.7 2.9 1.8 8.4 5.3 4.6 8.6-9.5 14.4-21.1 22.5-30.7 9.4-11.2 8-29.8 25.4-35.5 8.8-2.9 16.8-8.3 27-13.6-11.8 40.6-21.7 79.1-30.7 120-.5 2.7-2.6 7.7 2 8.5 7 1.3 6.6-6.2 7.5-9.6 7.2-23.4 9.4-49.6 18.2-71.9 6.8 19 7 41.7 8.1 62.3 0 4.9-1.8 10.6 4.6 13.3 5.7-15 3.8-54.1-2.8-69-9.5-21.2-1.7-40.1 4.4-59.6.8-2.6 3-1.3 4.4-.1 9.1 7.7 18.2 15.5 27.3 23.3 2.7 2.3 2.2 5.3 1.9 8.2-1.9 7.9-.3 72.4 10.4 68.5 3.3-.8 2.1-3.4 1.8-4.8-3.8-20.3-5.3-41.6-3.5-61.9 18.3 16.7 32.2 37.9 45.8 58.8 24.6 5.3-38.6-66.9-44.7-70.5-11.2-10.6-21.4-22.9-36.2-29.3-3.6-1.5-4.1-4.5-3.1-7.7 3.2-10.3 6.4-20.7 9.9-30.9 1.6-4.6 6.6-4.4 10.2-5.2 1.2-.3 3.9 4 5.1 6.5 5.1 10.7 10.2 21.4 14.8 32.4 2.1 3.7 3.5 23.7 9.5 20.5.6-2.9 2.7-5 1.9-8.7-10.4-56.4-35-41.7-11-74.7 1.5-4.5 2.5-9.1 3.9-14.2 5.6 7.7 9.5 16.6 16.3 21.7 10.1 7.6 8.8 17.2 9 27.1-.4 7.2 7.1 65 16.7 59.3 4.7-3.7-.1-9-1.2-13-6-21.2-5.1-36.7-10.4-59 21.8 24.2 37.5 40.5 62.6 57.7.4.3 1.8-.4 2.6-.9 5.6-5.9-18.4-20-22.1-24.7-6.5-6.1-13.1-12.1-20-18.5 19.1 1.7 28.7-9.1 38.4-22.3 10.2-14 9.1-29.3 9.8-46.7 8.3 14.6 19.2 21.8 34.1 24.1 7.1 1.2 12.8 31.7 9 39.8zm7-56.5c-33 25.8-54.4-30-63.2-53.8-2.8-9-3.3-18.8-.3-27.8 2.1-6.2-.5-11.6-.5-17.6 11.7 5 24.1 8.1 33.7 15.1 24.3 17.7 57.6 56.4 30.3 84.1zm31.7-50.8c-23-5.5-37.3-21.4-51-38.7-11-10.1 33.6-11 12.3-58.8-.4-.9-.7-2.7-.4-2.8 1.6-.8 3.8-2.1 4.9-1.6 15.2 8.2 32.5 12 44.5 26.2 26.1 24.7 39.1 84.9-10.3 75.7zM970.1 397c9-.6 6.5 22.4-6.3 20.9-9.2.2-10-7.3-9.5-13.3.7-10.1 9.4-7.4 15.8-7.6zM940.6 64.7c2.4-11.2 31.4-11.6 28.3 11.2-.4 4.9-7.4 7.7-14.3 7.7-12.1.1-14.5-9.9-14-18.9zm2.4 207.8c-1-11.9 18.1-18 20.3-6.3 2.3 14.5-20.1 19.5-20.3 6.3zm20 424.8c.7 9.2-4.5 13.4-12.4 12-8.6-1.6-7.5-10.4-8.3-16.7-.9-7.6 6-8.4 11.1-7.9 6.8.7 10.5 5.4 9.6 12.6zm-7.6-540c-9-.5-15-.9-14.6-9.2.3-6.6 1-14.3 9.2-14.9 13.9-3.2 18.6 25.1 5.4 24.1zm13.8 1428.4c-.6 5.8-2.5 11.5-9 11-5.1-.4-11.6-1.9-11.2-9.7-1-14.2 20.5-16.4 20.2-1.3zm-25-94.2c-2.1-11.3 5.8-14.1 13.5-14.2 8 0 8.3 8.1 9.6 14-.3 11.2-9.4 7.1-14.7 8.4-5.7 1.5-7.5-3-8.4-8.2zm-18.6-51.6c0-4.8 1.9-11.5 10.8-11 4.6 1.3 12.2 0 12.5 8.7 1.4 15.7-22.9 17.5-23.3 2.3zm18.3 96.6c-.1 17.8-22.3 17.1-22.3-.6 2.1-15.8 22.8-12.8 22.3.6zM925.6 334.9c17.4-1.6 20.6 21.9 5.5 24.4-5.1.3-12.5.7-12.8-8.3-.1-7.2-.5-14.3 7.3-16.1zm-12.9 504.5c0-16.9 21.3-16 20.4.5.6 8.2-4.4 11-11.2 11-7.5.1-8.4-5.9-9.2-11.5zm18.6-629.2c2.4 18.1-22.5 13.3-21.2-1.5-.1-13.8 22.5-12.9 21.2 1.5zM906.9 16.1c.4-7.1 2.2-12.5 11.3-11 7.4-1.7 12.5 3.6 12.1 9.1s.4 15-10.3 14.9c-8.7-.1-13.7-3.5-13.1-13zm3.7 655c-13.8 1.1-11.9-22.6 0-22.1 6-.2 9.6 3.6 9.4 9.6-.4 6.3-.6 13.4-9.4 12.5zm-4.5 75.9c17.8-2 12.1 27.1-3.4 26.2-10.9.8-9.2-9.2-8.9-13.2.3-5.6 2.4-14.1 12.3-13zm-9.7-640.4c0-5.6 2.7-11.1 7.3-10.4 4.3.7 12.8 1 12 9.3-.5 5 1.2 13.1-8.5 11.3-7.2.1-10.8-2.9-10.8-10.2zm18.7 192.7c.2 7.4-2.5 12.7-9.5 12.5-14.4-1.1-11.8-22.3 2.9-20.9 7-.3 6.3 4.7 6.6 8.4zm-11.7 1198.4c.5 7.7-5.8 10.7-11.3 10.8-10.4-.1-11.6-25 2-21.5 8.9-1.3 8.9 5.2 9.3 10.7zM882 154.9c16.9-1.3 21.8 29 3.9 26-10.1 1.4-14-4.7-13.7-13.2.2-5.6.3-13.3 9.8-12.8zm-2.9 100c-8-.2-10.9-5.1-10.3-13 .5-6.5 3.5-9 12.8-9.1 10.2 0 10.6 24.3-2.5 22.1zm5.9 1314.6c-.2 7.2-4.5 9.7-12.4 9.7-5.1.8-6.5-3.7-6.3-8.2-.8-11.6 21.4-15.1 18.7-1.5zM860.3 374.4c-.7-9.7 6.3-11.3 13-11.5 5.7-.3 6.9 5.1 8.2 9.7 2.9 10.4-5 11-11.5 12.2-3.9.8-9.8-6.2-9.7-10.4zm-8.9-315.3c-2.2-15 26-13.4 25.3.9.7 8.9-5.4 14.4-17.8 13.5-4-2-6.6-8.4-7.5-14.4zM869.2 699c.3 16-25.3 13.3-23.9-1.9.4-13.5 26-15 23.9 1.9zm-2.2 743.5c-.8 5.9.1 13.6-8.5 14.4-7.9.8-16.9 1.3-15.6-11.6.3-7.2 3.9-14 10.6-14.6 6.3-.7 14.8 1.6 13.5 11.8zm-5.9-1149.2c.2 15.2-22.3 14.7-22.2 1.1.3-7.6 1.3-13 9.5-12.5 7.4.4 12.9 2.5 12.7 11.4zm-22-86.5c7.1 1.4 11.1 4.5 10.1 11.4-.4 6.2-.8 13.1-7.7 12.4-7.2-.8-16.2-3.2-16.2-12.8.1-7.5 4.4-12.9 13.8-11zm6 1326c.5 14-21.2 13.2-20 1-1.5-12.8 20.9-13.2 20-1zM819 11c-.6-17.6 22.1-13.9 22 1.4-.1 6.6-2.7 10.8-9.7 8.6-8 .8-13-1.6-12.3-10zm-16 94.2c-2.2-9.5 4.8-8.8 10.5-8.2 4.5.5 11.1.3 10.3 7.8-.7 6.7-1.8 13.8-11.6 12.3-6.5-1.1-10.9-4-9.2-11.9zm15 1380.1c.7 14.5-26.2 13.9-20.8-1 1.3-4.9.5-11.7 2.8-12.5 15.8-2 18 5.4 18 13.5zm-13.5 99c1.2 16.4-22.3 18-19.3 3.2-3.7-13.7 19.6-17.9 19.3-3.2zm-13-1344.9c9 0 12.8 6.9 12.4 15.9-.3 8.2-7.9 6.8-12.3 7.3-13.6.9-14.8-24-.1-23.2zM764.6 54.1c-1.3-18.9 20.7-20.5 22.8-3.5 4.7 15.5-24.5 16.2-22.8 3.5zm6.9 1480.8c-.5 5.6-.3 12.6-8 12.8-6.5.2-12.7-3.4-12.3-10.9-.9-13.7 21.2-18.7 20.3-1.9zM725.7 115.1c8.4.3 12.9 5.3 11.2 14 .5 5 .8 10.1-5.5 10.7-9.6.9-15.7-3.8-16.3-13.5-.4-6.6 3.8-11.4 10.6-11.2zm-19.5-97.3c-.5-8.8 5.5-11.9 13.3-11.6 6.3.2 12.9 1 12.5 9.8 2 19-23 19.8-25.8 1.8zm5.6 1560.8c2.1 14.9-20.3 17.3-21.1 1.2-2.5-15.6 21.9-18.1 21.1-1.2zM665 77c.8-7.7 5.8-10.2 16.2-10.3 7.5-.7 10.2 6.8 9.4 14.9-.4 18.7-28.7 13-25.6-4.6zm-25.4-39.2c-1.3-12 25-9.8 22.3 6.1-.4 7.1-5.3 10-11.8 9.1-12.9 1.1-9.5-9.6-10.5-15.2zM532.7 16.9c-.2-5.9 2.4-8.6 10.3-7.7 4.1 1.3 13.1-.2 13.6 8.9 1.8 20.5-26.1 19.8-23.9-1.2zm-52.5 54.8c-.9-10 6.1-15.5 14.2-16.3s9.1 7.8 10.9 14.3c-2.7 12.7-21.9 15.5-25.1 2zm-51.3 1489.1c-3.2 3.4-.2 12.8-8.1 12.7-6.9-.1-17.5.9-15.8-12 1-7.4 2-15.3 12-15.7 9.3-.2 11.8 6.1 11.9 15zM398.8 66.7c-1.9-16.1 21.7-19 20-3.5-.5 5.8-1.2 12.4-10.3 12.1-7.3-.3-10.5-3.1-9.7-8.6zm-20.6-52c-.2-9.3 6.5-12.3 14.5-11.6 8.1.7 7.3 8.4 7.4 13.4 0 6.3-4.5 10-12.6 9.2-7.3 1-9.2-5.1-9.3-11zm-3.3 1508c.1 11.3-9.4 12.3-17.2 13-5.5.5-7-4.7-6.7-9.2-2.5-18.5 23.7-18.2 23.9-3.8zM343 107.9c7.5 0 10.1 4.8 10.2 14.4.1 4.1-2.2 8.4-10 7.8-13.4-.1-14-23.3-.2-22.2zm8 1479.3c2.8 17.8-21.7 13.7-22.2-.7-1.8-14.3 9.3-12.4 16.5-11.8 7.4.6 4.1 9.1 5.7 12.5zM318.7 46.4c.5-6.6 1.7-11.6 9.1-11.4 17.2-.9 20.1 26.8 1.3 24-8.4-.3-9.2-7-10.4-12.6zm-17.8 118.2c0-5.6-.1-11.4 4.9-11.1 5.6.3 14.9-2.3 14.5 9.3-.3 7.7-3.3 12.2-11.3 12.2-8.6.1-7.3-6.6-8.1-10.4zm13.7 1295.8c-.1 5.5-1 12.5-10.4 10.8-6.9-1.2-11-4-10.3-11.4.6-6.5 1.8-12.7 11-10.7 9.9-2.2 9.8 5.8 9.7 11.3zm-1.5 78.3c1.9 15-18.3 11.7-17.7 1.7.3-4.9 2-11.4 9.9-11.5s6.9 5.9 7.8 9.8zM262.9 16.4c.3-14.8 23.2-14.7 21.8-.3.4 15.3-20.8 14.8-21.8.3zm-17.8 97c-.2-4.4-.5-10.3 6.7-10.4 8.5-.2 15 2.9 15 12.3.5 14.6-22.5 11.9-21.7-1.9zm0 58c-1.2-10.6 17-19.8 19.5-6.8-.6 7 4.2 18.7-10.8 16.4-8.4 1.6-8.9-4.2-8.7-9.6zm14.6 1295c.7 6.5-4.6 6.7-9.9 6.9-7.1.2-9.8-4.2-9.6-9.7.1-5.8 3.3-10.1 10.4-8.4 10.3-2.3 8.6 6.3 9.1 11.2zM255 1562c1.2 7.2-4.6 8.8-10.2 8.9-6.6.1-7-6.2-7.7-10.7-2-11.5 19.4-10.6 17.9 1.8zM226.8 202.4c7.9-.5 11.7 2.7 10.2 10 .5 6.2-.9 10-7 10.8-9.4 1.3-9.7-6.6-10.7-12-.6-3.7 1.8-8.4 7.5-8.8zM205 72.7c.4-4.2-1-10.3 6.2-9.5 5.8.6 12.9 1.7 13.5 9.1 3 14.7-22.9 16.5-19.7.4zM193 154c-.7-9 5.2-10.8 13-11.2 7-.8 7.7 5.7 7.8 10 .8 15.6-21.3 18.7-20.8 1.2zm20.6 1350.1c2.1 15.9-23 14.2-20.1-1.1.3-5.6 3-11.9 11-10 9.6-1.5 8.8 6.4 9.1 11.1zm-10.8 80.5c3.1 15.1-21.7 21-20.3 3.8.7-5.7 1.5-12.1 10.1-11.5 5.4-.3 9.8 1.5 10.2 7.7zm-21.3-158.4c.4-5.3 2-11.7 10.8-11.5 8.6.2 8.2 5.6 8.8 11.2.8 7.7-4.3 7.5-10.1 7.1-5.7 1.9-9.8-2.2-9.5-6.8zm-14-1405.1c.3-5.3-.3-12.7 6.6-14.3 9 .5 13.5 4.7 13.8 11.9 1.6 14.1-22.8 17.9-20.4 2.4zM187 503.3c2.4 18.5-24.4 16.7-23.7.4-.2-5.1-1.5-11.9 8-13 10.9-1.4 16.7 1 15.7 12.6zm-12.8-294c-8.4.4-7-5.1-7.4-11.2-1-5.1 2.1-7.9 7.9-8 7.3-.2 8.6 5.3 9.1 10.7.6 6.5-3.5 8.1-9.6 8.5zm-.5 27.4c13.4-.5 9.3 20.5-2.7 19.4-5.7 0-8.9-2.2-8.2-6.6.3-8.9 3.3-12.6 10.9-12.8zm-16.5-114.9c-1.9-14.7 19.8-14.3 19.3-.6.2 4.1-.4 12.1-8.1 10-8 .7-10.8-4.1-11.2-9.4zm.6 1346.5c-2.8 14.8-20.4 13.3-19.7-2.1-.8-8.3 5.3-11.1 11.9-11.1 8.2.1 6.4 7.8 7.8 13.2zm-29.3-543.6c.8-9.6 2.7-15.5 10.7-15.6 8.7-.2 9.1 6.5 10 12.9.9 6.9-4.1 9.2-8.5 8.5-4.6-.7-14 2.2-12.2-5.8zm5.6 460.3c-5.6-.8-13 .2-13.1-8.6-.1-7.4 2.9-14.6 11.2-15.2 13.1-2.6 17.9 27.8 1.9 23.8zM119.3 55.2c-2-16.6 25-16.4 23.9 1.5-.6 9.9-10.6 8.8-16.7 9.9-6.7 1.1-7-7.1-7.2-11.4zM133.5 209c-12.5 3.2-15.4-17.5-3.4-16.8 9.9-1.7 13.9 20.7 3.4 16.8zm5.6 256.5c-.3 6.9-2.4 11.6-10.9 11.8-6.6.1-8.9-4.2-8.8-8.8-1.8-11.9 22.2-17.8 19.7-3zM136 1510.8c-1.2 6.7.2 16.2-10.3 16.4-8.3.2-6.6-7.6-7.1-9-2.1-13.2 3.5-14 10.9-13.4 4.1.4 7.3 1.6 6.5 6zm-8.2 73.9c.3 8-3.4 13.7-10.4 14-12.9.5-16.6-25.4 3.7-21.8 6 .1 6.9 3.6 6.7 7.8zM99.4 122.1c-2.7-16.5 23.9-13.6 22.3-2.3-.6 6.3-.8 14.6-11.7 13.2-8.9 2.2-10.2-5.6-10.6-10.9zm-8.7 748.3c-.3-13.1 19.3-15.4 19.3-.4 1.8 13.8-20.4 15.9-19.3.4zm18.1-368.5c-.5 4.8-1.5 10.3-4.8 11-9.4.5-11.8-3.4-11.7-8.4-1.9-11 16.8-13.9 16.5-2.6zm-11.1 942.8c-12.4.5-14.9-25.2-1.5-23.3 5.5 1.1 12.9 3.1 10.9 11.7 1.2 7.8-3.8 11.6-9.4 11.6zM90.9 256c.4-4.5-1.1-10.2 6-9.8 6.1.3 12.8.8 14.6 9.4-2.3 3.5-.5 10.7-6.8 10.3-5.7-.4-14.8 1.3-13.8-9.9zm-4 61.8c.7-6.8 5.1-10.2 11.2-10.6 9.5-1.2 9.2 23.4-3.1 17.8-6.3 1.2-8.7-1.3-8.1-7.2zm5.7 610c-1.2 17.5-23.8 8.9-23.4-5.4 0-15.1 25.7-7.6 23.4 5.4zm-5.6 431c-11.7-.7-12.1-24.2 1.1-23.7 16.1-1 13 25-1.1 23.7zM71.2 37.6c-4.5-13.9 17-14.1 16.8-1.5 2.7 14.3-21 16.7-16.8 1.5zM87 1539c1.8 14.4-24.3 13.1-23.9-2.6.5-15.4 25.5-12.4 23.9 2.6zM67.1 662c-.2-13.7 18.1-14.6 18.4-1.2.5 9.5-6.9 9.1-11.4 9.9-4.9.8-7.3-4.4-7-8.7zm16-472.3c2 17-19.7 13.9-19.5.4-.3-3.5 1.4-9.3 6-9.4 6.8-.3 14.9-.2 13.5 9zm-28-91.8c-.3-17.3 23.4-17.5 22.6.1 0 16.4-24 16.2-22.6-.1zm11.3 509.3c-16.2.5-13.7-24.4 1.2-22 9.5.7 11.1 23.9-1.2 22zM53 797c-1.5-12.6 20.4-17.8 19.8-3.7-.5 6.2-2.4 12.9-11.1 11.8-6.1.4-9.2-2.2-8.7-8.1zm9.8-252.3c-5.4-1.2-14.2-.2-13.9-10.3.2-5.1 1-9.3 5.8-10.4 15.3-.6 17.7 20.5 8.1 20.7zm-8 829.3c17.6.7 16.5 25.3-4.2 23.8-6.4-1.1-5.8-6.8-6.2-11.2-.6-7.1 2.7-12.6 10.4-12.6zm9.5-87.8c2 13.3-5 14.9-11.4 14.6-15.8-1.8-11-26.6 4-24.5 8.4.2 6.9 8 7.4 9.9zM40.8 285.7c1.8-13.4 21.2-13.3 19.5 1.9.2 12.2-20 10.3-19.5-1.9zm16.3 1180.7c.6 15.5-22.2 15.5-20.2-.3-.9-13.2 21.1-11.8 20.2.3zM45.3 461.9c-7.5-.3-12.6-3.1-11.6-9 .5-11.9 8.2-12.7 13.8-13.6 12.8 0 11.8 24-2.2 22.6zM34.7 979.3c1.5-4.9 2.2-10.3 9.2-10.6 8.8-.4 7.5 6.9 7.9 11.5.7 7.2-6.2 8.3-10.9 8.5-5.3.3-5.4-5.2-6.2-9.4zm-1-304.7c5.9.8 7.6 4.3 7.5 7 .1 10.9-6.2 10.7-11.9 11.5-12.1 1.9-8.4-22.4 4.4-18.5zm-3.3-525.7c6.4.4 8.1 5.2 8.6 10.5 1.8 11.1-7.5 10.5-13.1 11.2-13.6-1.2-9.6-23.7 4.5-21.7zm7.3 1435.4c-.4 11.4-24.5 6.7-22.1-5.9.5-6.8 5.7-11.3 12.7-11 8.1.4 8.3 7.3 9.4 16.9zm-.4-1236.1c-.1 9.1-4.4 12.9-11 12.7-8.4-.3-7.4-7.1-7.3-12.9-1.4-13.2 19.9-10.8 18.3.2zm-22.4-298C13.2 34.6 33.8 35.7 34 48.1c1.4 11.3-22.1 17-19.1 2.1zm7 848.6c-8.8 0-7.9-8.3-7.5-13.3.6-8 7.6-10.3 14.6-10.5 12.6-.3 11.1 24.6-7.1 23.8zm-7.5 618.5c-6 1.2-6.1-5-6.2-9.5-.1-7.7 5.7-11.1 12.3-11.5 13.3.7 8 22.3-6.1 21zM9.1 1039c-2.9-14.3 20.1-13.8 18.6-.8 1.1 11.5-22.1 13.1-18.6.8zm-2.3 300c.2-7.2 3.7-10 10.4-10s11.8 1.5 9.7 9.8c4 16-21.2 15.8-20.1.2zM6.3 233C5 218.1 26.6 220 27 230.8c.7 20.5-22.7 14.5-20.7 2.2z"/></g><g><path d="M52 1548v15l-37 37h946l-37-37v-15H52M52 52V37.7L14.3 0H0v1600h15l37-37V52m872 0V37.7L961.7 0H14.3L52 37.7V52h872m52-52h-14.3L924 37.7V1563l37 37h15V0z"/><path d="M961 1600h15V0h-14.3L924 37.7V1563l37 37H0V0H961.7M52 52V37.7L14.3 0m.7 1600l37-37V52h872m0 1496H52" fill="none" stroke="#333" stroke-width="2" stroke-linecap="square" stroke-miterlimit="3"/></g></svg>