<svg xmlns="http://www.w3.org/2000/svg" xmlns:xlink="http://www.w3.org/1999/xlink" viewBox="0 0 976 1600"><path d="M960 22v1556c0 3.3-2.7 6-6 6H22c-3.3 0-6-2.7-6-6V22c0-3.3 2.7-6 6-6h932c3.3 0 6 2.7 6 6z" fill="#fff"/><defs><path id="a" d="M960 22v1556c0 3.3-2.7 6-6 6H22c-3.3 0-6-2.7-6-6V22c0-3.3 2.7-6 6-6h932c3.3 0 6 2.7 6 6z"/></defs><clipPath id="b"><use xlink:href="#a" overflow="visible"/></clipPath><g clip-path="url(#b)"><path d="M451 1653c-15.4-11.8-18.4-34.9-26.8-51.7-12.6-21.8 1.2-55-13.2-65.9-60.6 29.6-125.9 39.8-194.2 39.4-21.4-6.5 39.6-65.6 49.7-76.4 81.1-81 115.9-33.9 39.7-125.6-12.5-11-90-159.9-61.6-161 81.6 24 156.9 86.7 211.6 145.6 47.6-16.1 115.5-61.3 143.3-110.7 1.9-4.4 9.2-4.3 10.3.5 12.5 43.3 4 82.6-9.7 121.8 1.9 16.4-52.5 75-32.8 76.4 48-8.3 98.2 3.2 144.5 16.5 17.6 33.5-118 68.3-145 74.2-17.2 10.6 34.2 38.6 41 49.8 14.7 11.6 46.5 36.8 13.5 45.8-33.6-17.5-58.5-54.4-88.3-76.2-17.3 15.3-25.4 48.9-44.8 66.5-12.1 10.1-19.6 32.7-37.2 31zM102.8 886.8c-9-4.1-1-21.1-3.1-29.5-4-35.7 14.7-72.7 18-103.4-11.5-5.4-26.8 3-39.4 3-24.2 5-50-1.4-72.7 3.8-17.5 12-6.7-40.4-9.5-45.1 24.3-32.4 60.5-65.8 93.7-85.3 2.7-1.6 3.8-5 2.3-7.9C78.9 603 16.6 407.2 48.3 415.6c69.8 28.3 109.3 83 150.2 138.3 15.9 21.4 32.3-27.8 49-36.3 17.9-15.2 98.9-92.6 113.3-69.7 5.1 71.2-26.2 139.5-54.5 199.4 39.3 10.6 78.6 21.1 115.1 48.6 13 12.8 58.3 37.3 54.5 53.6-35.7 15-78.2 19.4-116.2 23-29.8 9-120.7-22.9-130-8.1-.6 14.3-.2 23.4-16.1 13.5-11.2 8.2-80.4 97.6-110.8 108.9z" fill="#333"/><path d="M0 1604c-11.1-33.2-.4-234-4-276.2 5.1-6.1-7.5-119.2 4-124.8 28.1 30.3 39.9 94.7 40.8 144.3-1 5.2 3.2 10.9 8.7 8.2 59.6-21.2 121.7-32.4 184.2-40.4 25.5.4-26.8 54.4-35.5 65-9.2 17.8-101.8 66.5-84.7 75.6 25.5 12.2 158.7 116.4 77.2 115.3-166.5-17.1-130.3-109.3-180.6 27.2 2.6 6.4-6.3 6.1-10.1 5.8zm576.8-382c-36-10.6-167.6-128.3-53.9-87.5 14.6-5.8 46.5-9.3 43.3 14.8 1.4 17.4 21.2 62 10.6 72.7zm-200.4-14.3c-9.8-10.2 10.1-42.1 5.8-59 5.5-12.7-8.3-52.7 5.3-53.2 8 1 15.9 8.1 18.8 13.5 3.1 6.4 9.9.4 14 .4 6.7 1 13.3 2.5 19.7 4.6 43.5 11.3-46.9 85-63.6 93.7zm188.1-155c-21.2 1.2-31.7-20.3-49.3-30.2-13.1-5.3-10.5-14.7-18-18.1-10.6.8-54.3-17.5-27-22.2 13.3-13.7 34-21.6 49.6-34.6 57-33.7 131.5 1.3 186.1 23.8 23 10 36.6 17.5 5.6 30.4-45 25.6-96.8 40.6-147 50.9z" fill="#ffeb5c"/><path d="M356.2 1234.7c-61.8-43.4-84.9-111.5-107.8-180.1-41.5 33.9-72.9 83.3-101.7 128.3-19.5 4.8-33.7-27.9-13.6-37.7 99.1-134.7 136.6-67.9-5-138.3-9.4-9.4-42.6-15-39.6-29 32.2-22.7 72.8-33.1 110.6-42.5 88-7.8 8.1-43.5 31-169.7 19-25.4 120 90.3 132.9 107.1 3.3 4.8 7.8 3.6 12.3.4 21.1-13.3 44.8-19.3 67.8-26.7 60.1-18.6 109.3-15.3 172.2-9 6.2.7 6.3 8 1.7 11.9-35.5 63.5-100.6 94.3-154.4 138.8 52.6 36.6 116.7 78.8 155.4 127.4-69.3 34.8-156.8 10.5-227.2-18.3-3.1-1.2-6.6.2-7.8 3.3-.3.8-.5 1.7-.4 2.6 3.3 42.3-1.1 100.2-26.4 131.5zM829 968.8c-19.8-32.7 10-134.7 21.3-173 51.6-131.4.1-12.4-229.1-46.9-9.3-4.1-39.1.7-35-13.7 38-31.8 72-63.5 117.8-86.6 40.2-21.1 81-37.7 125-49.6 13.1-5.6-4.3-17-8.3-23.5-17.6-15.4-98.7-166.5-62.2-167.7 75.5 21.6-5.8-5.9 117.7 43.3 33.5 14.3 62.2 35.3 93.1 53 3.7-1 10.2-3.5 10.7 2.5-.2 91-.1 196.7 0 287.7-41.8 61.3-93.7 127.7-151 174.5zM303.4 429.9c-16-41.7-3.5-94.9-1-142.1-4.5-16.8 31.6-102-9.5-78.3-57.4 16.3-111.2 45.3-167.6 56.1 14.3-72.7 73.8-126.8 135.6-166 12.4-14.6-50.6-36.1-62.8-51.1-18.5-11.5-35.8-32-55.4-43.6-5.2.1-5.4-9 0-8.8 81.5.1 213.1-.1 294.6.1 5.7 5.6 227.8-11.8 217.6 7.2-180.6 123.3-163 12.9-48.8 190.4C629 230 639.2 272.1 649.5 313c-4.4 14.9-33-18.5-42.2-20.6-47.3-34.3-101.8-58-154-80.9C421.6 294 379 373.1 303.4 429.9z" fill="#d81e1e"/><path d="M976 802c-26.4 52.4-67.1 96.4-107.6 138-14 12.4-26.5 30.3-44.8 36.5-1.9-1.6-4.5-2.2-4.8-6-4.9-81.1 17.6-161.5 49.4-235.1-91.2 28.4-191.8 32-284.9 9.4-8-2.1-4.4-8.8-.3-12.2 23.2-19.3 44.7-40.5 69.4-58.2 26.8-19.2 55.6-34.2 85.5-47.8 24.6-11.1 49.2-23.5 75.4-28.1 22.8-4 14-9.7 5.4-19.3-40.7-49-66.8-108.6-75.1-171.8-.3-1.3 1.7-3 2.7-4.6 1.1-1.8 2.4-1.9 4.6-1.3 34.6 9.5 69.2 19.6 102.2 33.6 42.7 17.5 84.7 37.8 119.7 68.5 3.6 3.5.5 4.4-3.1 6.6-64.2-44.5-136.3-78.6-211.8-98.4-11.3-2.1-3.3 9.4-3 12.3 11.1 64.8 46 122.9 88.1 172.4-4.3 2.2-8.4 5.4-12.9 6.5-43 11.6-84.7 28.5-124 49.2-43.7 21.9-80.5 54.9-117.1 86.3 89.8 19.7 188.1 16.3 275.9-12.2 8.5-4.4 17.5 1.3 11.8 10-30.4 71.4-52.3 150.5-48.6 228.3 2.9 1.4 2.2-2.5 3.6-3.3 28.1-22.8 52.5-50.1 75.9-77.7 21.6-25.5 44.8-50.1 59.7-80.4 5.1-14.9 13.5-9.7 8.7-1.2zM840.6 495.5c41.9 38.4 86.5 73.2 132.5 106.4 2 1.4 4.2 3.2 6.1.7 1.4-2 .1-4.6-2-6.2-19.2-13.3-35.7-30.5-55.4-43-41.8-29.3-76.2-67.2-118.9-95.3-1.7-1.2-3.8-2.5-6.2-.2-4.9 8.3 10 21 14.8 26.4 42.1 41.3 81.5 85.4 125.8 124.4 1.1.9 4.1 2.9 1.2 4-19.1 7-38.2 13.8-57.5 20.1-65.9 20.8-134.4 40.5-195.8 71.5 10.8 7.7 24.8-.7 36.4-1.7 54.4-9.4 108.7-19.9 161.7-35.5 27-7.1 53.8-14.7 80.8-21.6 4.5-.9 2.4 1 1.3 2.9-30.6 55-62.4 109.7-84.6 168.8-10.5 26.3-21.2 52.6-31.8 78.8-.5 1.3-1.6 4.3 1.4 4.9 1.9.4 3.7.7 5-2.3 3.8-9 8.2-17.7 13.1-26.1 24.9-37.6 46-77.6 72-114.4 9.4-17.2 21.5-32.1 33.4-47.4 2.4-3 5-6.8 2.5-11-1.4-.2-4.5 1-5.4 2.1-30.9 40.9-59.3 84.5-85.3 128 8.7-31.7 25.2-63.2 41-92.7 16.7-30.3 31.7-61.6 49.1-91.5 1.7-3.1 4.7-6.7 1.2-9.6-1.4-1.8-2.9-.9-4.7-.2-76.3 22.4-154.3 38.6-232 55.6.8-2 2.5-3.6 4.6-4.3 19.6-6.7 39.2-13.2 58.8-20 47.6-15.5 95.2-31.4 142.6-47.8 18.1-4.8-7-16-11.5-21.9-35.3-37.1-72-72.8-109.1-108.2l2.3-2.5c4.3 2.9 8.8 5.5 12.6 8.8zM731.8 994.7c-50.6 32.6-106.9 49.1-165.2 63.4 17.4 17.6 37.6 32.5 52.2 52.4 5.7 8.1 2.1 11-8.3 14.7-69.6 20.3-37-18.4-27 91.8 12.7 39.4-76.9-34.5-82.4-42.5-13.1-13.5-23.9-29-31.9-46.1-3-6.4-9.5-.8-13-4.6-7.4 30.1-33.5 50.9-54.7 71.8-22.2 19.3-27.7 10.3-40.3 40.9-6.6 9.7-11.3 0-13.4-2-51.6-47.4-92.1-107.5-97.2-178.6-29.8 29-56 61.4-80 95.2-8.8 6.4-21.3 48.5-32.6 37.9-7.6-6.2-15.7-11.5-19.9-21.4-3.6-8.5 4.3-10.6 7-14.8 25.5-38.4 58.9-71.1 92.5-102.5 5.2-3.8-6.3-4-8.5-5-45.3-10.1-84.6-36-124.6-58.6-12.9-6-1.8-11 5.7-15.4 15.8-8.1 30.7-18 47.8-23.1 33.2-10.1 66.5-19.8 101.2-23.1 2-.2 2-1.4.9-3.1-10.4-24.3-13.3-51.1-16.8-77.1 0-20.9-.1-41.4-7.2-61.4-1-3.8-3.3-1.9-4.4-.2-10.1 14.5-19.5 29.5-30.2 43.5-3.5 9-89.2 87-88.4 59.8C88 712.4 180.5 761.5 17.9 765c-6.5.8-15.2-1-15.3-7-.1-5.2 8.9-2.8 13.9-3 33.3 1.1 66.2-1.9 99-7.8 9.3-2.2 12.8 1.7 8.1 10.5-16.7 39.6-21 82.3-20.8 125 41.1-25.5 73.6-62.5 100.9-101.6 13.6-16.7-1.7-27-3.4-40.2-.7-5-5.8-8.3-5.7-14.2.1-2.5-2.7-5-4.2-7.5C168 750.5 152 785.8 139.1 822c-1.3 3.4-2.1 8-6.5 6.7-3.8-1.2-1.8-5.8-1.3-8.7 2.3-14 4.4-28.1 7.8-41.9 8-24.5 14.5-50.2 27.4-72.7 1.1-7.8-59.4 2.1-67.5 2.8-25.4 3.4-49.1 12-72.2 22.7-9.4 4-3.3-8.9.3-10.7 35.9-25.6 78.2-45.6 122.5-49.3 7.1-.7 14.4-.2 21.5-.2 2.2 0 1.9-1.4 1.4-2.7-18.1-57.7-49.5-109.6-74.8-164 13.5-2.7 28.6 31.5 36.3 41.1 25.1 34.3 39.9 74.6 62.2 110.6 19.4-58.8 58.1-106 101.3-148.9 4.2-4.4 8.8-8.4 13.1-12.6 1.2-1.2 2.2-3.3 4.3-1.8 1.8 1.4 2.6 3.5 1.1 5.7-20.7 29.4-41.7 58.5-59.2 90-14 24-24.8 49.5-33.8 75.7-.5 1.5-.2 3.2-4.2 4.5 59.4 2.5 115 21.1 168.8 44.7 11.9 5.3 25 8.5 35.1 17.4 5.2 3-.8 8.7-5.2 6.1-63.1-23.5-132.5-41.1-200.3-30.7 5.9 14.9 12.1 30 17.8 45.3 2.4 6.4 8.6 4.6 12.5 5.4 36.6 6.8 74.6 14.4 111.8 12.1 38.5-3.7 78.7-7.9 114.5-22.5-33.2-35-74.9-63.8-119.9-81.7-12.7-5-26.6-7.4-40.2-9.2-16.5-2.4-17.5-3.9-8.3-19.4 25.4-45.5 45.8-94.5 50.5-146.8.9-13.9-1.6-27.8 1-41.7.5-2.5-.7-3.3-3.1-2-53.2 28.9-104.9 66.5-138.4 117.7-2.9 5.1-14.9.7-20.1-6.6-9.6-13.4-19.8-26.3-29.7-39.5-32.3-42.3-72.2-79.6-122.2-99.1 3.4 59.6 19.1 118.8 40.1 174.5 3.7 11.3 8.9 22.1 14.3 32.7 2.9 5.6-2 6.8-4.1 7.9-36.8 20.4-65.1 51.4-93.2 82-.7 1.2-1.5 3.7-3.5 1.3-1.6-1.9-2.8-3.5-.8-6 23.9-33.4 55.3-60.5 90.3-82.1 7-4.1-2.4-10.1-4.2-14.8-10.7-28.6-22.6-56.7-29.7-86.7-8.9-37.3-16.3-75.1-17.8-113.5-.7-9.6 6.1-7 9.4-5.5 70.7 26.7 118 86.4 160.9 146 1.4 2 2.9 6.2 6.7 0 34.7-51.8 86.9-91.6 142.9-118.3 4.9-2 10.3 2.6 10 6.9 3.6 61-7.2 105-32.1 160.6-40.5 82.4-24.6 16.2 74.3 78.1 25.4 14.7 47.2 33.7 68.5 53.6 3.7 3.7 5.5 8.9 4.9 14.1-.4 3-7.1 4.8-11 7-24.1 11.9-50.2 15.1-76.4 17.9-44.2 9.3-87.8.6-131.7-4.4 38 23.3 68.9 53.1 95.8 87.9 9.3 11.8 10.5 20 23 7.4 35-17.3 72.9-27.5 111.2-34 40.9-7 81.8-1.2 122.8 2.5 37.3 6.8-50.6 90.3-64.7 98 51-1 101.6 8.6 147.7 30.1 13 6.1 25.6 13 37.7 20.6 9.3 5.8.7 11-2.9 13.1zm-517-276.1c-1.7-6.6-14.2-14.1-.6-20.7 4.7-2.3 10.6-2.7 16-2.8 40.2-2.5 80.6 1.5 119.5 11.9l.3-1.3c-43.3-15.5-88-29.6-134.6-28.7-5.3.3-5.3-4.1-4.1-7.4 16.4-43.2 35.8-85.4 61.8-123.8-30.1 32.1-51.9 70.8-69.3 111.1-2.2 5-5.3 8.8-10.4 10-4.3 1.1-2.2-3.5-3.2-5.3-12.3-22.7-24.3-45.6-38-71.3 1 4.8 1 6.6 1.7 8 11.7 21.6 16.7 45.8 26.6 68 1.3 3 5 9.6-2.8 10.7-37.9 3.8-75.4 7.7-109.2 27.6 6.1-.7 11.9-.4 17.2-2 26.5-8 54.2-7.1 81.4-7.9 7.5-.9 7.4 5.8 6.9 7.4-6.5 23-17.6 40.1-21.6 65 14.3-18.7 17.8-38.6 34-55.2 10-13.3 12.5.8 15.9 10.5 6.9 17.9 12.5 36.3 18.6 54.4.3.8 1.5 1.3 2.3 2 3.4-6.1 1.4-14.4 2.5-21.4.9-14.2-7.6-25.8-10.9-38.8zm70.8 296.3c8.2-6 16.3-12.1 24.5-17.9 9.5-7.5 15.1-8.4 12.8 5.3-.2 33.6 4.3 66.3 9.2 99.3 2.3 12 4 24.1 4.9 36.3.1 3.1 4 4.5 3.8.5-7.5-234.3-35.3-132 130-71.3-38.5-25.2-80.2-47.6-113.6-79.4-3.1-3.8-14.5-9.8-7.2-14.7 39.3-25.1 81.7-45.5 123.1-66.8-41.7 11.5-80 33.2-118.2 53.3-6.9 4.2-14.3 11.2-20.6-2.2-19.5-35.3-38.7-71-56.8-107-1.3.8-1.6 1.5-1 3.2 11.7 36.5 25.3 72.4 39.1 108.2 1.1 3 0 6.5-3.3 5.2-8.9-3.8-18.4-2.7-27.4-3.2-33.2-2-66.9-1.6-99 8 1.4 1.2 3.3 1.7 5.2 1.4 37.4-4.4 75-.4 112.4 2.5 3.4.5 9.5-.5 10.6 5.2.3 1.7-1.5 4.7-3.2 5.8-41.7 25.4-78.2 58.5-113 92.5-19.9 19.8-40.6 39-55.8 62.6-5.6 8.8-25.7 15.9-9.3 31.9 3.4 3.3 8.1 8.6 11.6 6.2 36.7-62 83.4-120.9 141.2-164.9zm153.4 103c-2.9-.8-5.7-2.2-8.6-2.3-6.4-.3-15.2-7.9-16 7.6-1.4 11.8-5.4 25.3-11.4 35.8-14.5-14.5 23-48.6-17.5-59.7 2.9 35.6 1.8 69.6-9.2 104.4 25.5-18.4 48.6-37.2 64.7-64.1 3.1-5.2 18-16.6-2-21.7zm123.3 32.3c-1.3-4.8 1.7-14.3-8.1-15-8-.4-16.1-.3-24.1.2 2.6 7.8 23.1 29 17 35-2.4 1.8-4.2-1.8-5.7-3.5-6.6-7.8-13.2-15.7-19.4-23.8-2.5-3.2-3.8-7.2-8.6-8-10.7-1.8-21.3-3.9-32-5.8-.7-.1-2 .2-2.1.6-.3.9-.2 2 .3 2.8 6.5 8.6 13.4 16.9 19.6 25.6 10.7 14.9 25.6 25.2 40.1 35.8 11.9 8.7 23 18.8 37.5 23.9-3.7-22.6-8.9-45.5-14.5-67.8zM510 1024.9c-50.3-40.3-82.6-24.9-26.1-59.7 51.4-29.2 97.8-68.3 129.9-118.4.8-1.3 4.9-5 1-5.5-16.4-2.1-33-3.7-49.5-4.1-64.8-3.5-130.6 8.1-187.9 39.3-5.8 3.6-11.2 6.4-17.5-1.3-32.6-41.7-70.3-79-115.1-107.7-8.2-5.5-10-6-10.8-1.3-9.5 52.9 1.8 105.4 13.2 157 .4 2.3.9 5.7-1.7 6.3-15.1 3.4-30.5 5.9-45.5 9.7-36.9 8.4-72.5 19.8-105.6 38.5-1.3.8-2.4 1.9-3.3 3.1.5.8 1.1 1.4 1.8 1.9 31.1 14.7 116.8 75.5 146.9 47.2 18.8-16.7 37.7-34 61.3-46.1-35.7-5.3-71.9-6.1-107.8-2.6-13.4 1-26.6 3.9-39.9 5.6-3.4.4-7.6.5-10.3-1.1-2.8-10.5 24.9-16.5 32.5-19.5 41.9-15.1 85.7-10.8 129.2-9.2-14.4-33.3-26.4-67.9-36.8-102.9-4.5-15.3-10.5-30.5-11.1-46.8 0-4.9 3.5-7.5 5.1-1.7 27.5 46.2 49 95.9 75.5 142.8 1.7 3.2 3.6 11.2 8.9 7.8 40.5-25.2 85.2-42.3 128.9-60.9 14.3-5.7 28.8-12 44.8-11.6 5.1-1.6 7.6.3 2.7 4.9-54.6 31.6-110.8 58.6-166.1 89.3 53.1 44.7 113.8 79.4 176.4 109.4 4.2 1.7 11 3.3 9.5 9.8-1.3 5.9-5.7.2-7.7-.3-37.7-6.9-71.5-24.6-106.4-39.5-31.2-14.5-56.9-35.2-85.7-54.6 2.5 59.8 9.9 118.9 4.1 178.6-.3 2.2-.5 2.7-2.9 2-9.9-2.9-6.4-12.7-8.6-18.8-7.7-20.9-10.3-43.2-13.2-65.3-5.2-30.1-9.3-60-7.4-90.6 0-2.1 1-4.3-3-2-15.6 9.1-29.7 20.4-43.4 32-4.3 3.6-12.3 6.2-11.2 13.8 7.4 70.5 45.8 132.6 98.9 178.2 21.2-40.3 26.4-86.3 22.1-131.1-.2-2.9-5.2-13.9 7.1-8.9s24.9 10 37.4 14.6c60.2 23.2 126.2 30.6 188.6 11.5 1.7-.5 3.5-2.4 2.2-3.6-33.9-29.9-66-62.1-103.5-88.2zm-44.8-37.7c17.5 15.4 41 15 62.8 13 31.3-3.1 62.7-5.2 94-7.9 0-.3.1-.6.1-1-51.8-6.8-104.9-9.8-156.9-4.1zm261.5.7c-40.2-27.3-162.2-71.7-204.3-37.2-12.8 11-28.6 18.4-42.6 27.1 61.3-3.4 122.3 2.3 183.1 13.5-51.1 11.9-103.2 14.3-156.4 20.2 36 20.8 38.2 48.6 81.6 32.4 47.7-14.3 97.4-26.7 138.6-56zm-8.2 472.8c-48.4-21-103.3-29.9-155.4-19.5 21.6-25.6 37.5-54.5 46.4-87.1 10.5-35.7 16.3-73.2 5.2-109.3-1.5-11.1-12.6-20.3-16.8-4.1-25.6 50.3-77.7 73-122.3 102.7-8.8 5.8-14.3 16.6-26.5 1.7-53.1-60.4-120.8-109.2-196.3-137.4-6-2.2-12.6-2.5-18.3-5.8-4.1-2.4-4.5-.2-1.4 15 16.3 79.9 56.3 153.5 112 213 2.5 2.8.8 3.9-.9 4.9-15.1 8.8-29 19.3-43.1 29.6-125.9 89.4-40.2 108.1-131.1 27.8-16.4-13.8-31.7-28.7-51.6-37.6-1.7-1.1-4.6-3.7-1.8-5.5 33.9-22.8 68.1-45.4 95.8-76.1 14.4-16.4 26.1-34.2 36.6-53 3.4-6.2 1.6-9.5-6.4-9.2-12.9.4-25.5 2.8-38.3 3.8-52.2 7.1-105.1 16-154 36.1-2.5 1.1-5.7 1.2-5.2-3.6 3.4-22.3-1.2-45.5-4.4-67.8-5.5-21.6-12.5-43-23.9-62.4-3-5.1-3.8-15.4-12.1-13.3-5.5 2-.4 9.6 1 12.8 23.5 43.6 32.4 93.3 31.5 142.4.1 4.6.9 7.9 6.8 4.4 5.4-3.3 11.2-6 17.2-8.1 57.9-16.2 117.3-31.8 177.3-35.5-29.1 54.6-79.7 91.9-130.7 124.6-5 3.7-8.1 10.4.2 13 40.7 23.1 76.2 54.3 104.2 91.8 6 8.8-6.4 11.8-5.2 18.9-55.8-1.6-110.6-21.2-159.1-48.8-5.5-3.3-11.1-3-12.6 3.7-5.6 25.3-19 47.2-29.5 70.3-1.2 2.7-1.3 5.2.8 7 1.8 1.5 3.7 1.5 4.6 0 3.8-6.5 8.6-12.6 11.5-19.5 5.9-14.2 16.1-26.7 17.2-43.1.2-3.4 1.2-15.6 12-8.2 107.2 64 249.5 66.8 360.4 10.1 1.4 19-1.6 38.8 5.4 56.8 6.3 18.2 13.4 36.3 23.4 53h10c-21.2-32.4-32.5-70.5-30-109.4 0-2.8 1.4-6.8-2.1-8-14-3.9-33.8 14.8-49.5 16.9-49 16.6-100.8 22.6-152.6 22.3-3.4 0-2.6-1.7-1.5-3.3 34.1-55.3 85.4-97.4 140.6-130.7 1.4-.8 4.7-2.5 1.7-6.1-36.1-43-72.3-87-92.4-140.1-10.4-22.8-14.8-47-25.1-69.9-2.1-12.8 28.8 2 34.3 5 67.9 34.7 131 78.7 180.8 136.8 1.8 2.2 4.1 3.8 7.2 1.8 49.9-35.1 111.2-58.8 140.6-115.8.5-1 2.4-1.9 2.9-.1 12 39.5 3.9 81.4-9.7 119.2-8.7 25.2-22.6 48.2-39.6 68.9-3.7 4.5-6 10.2 1.6 12.1 6 1.5 12.9.6 19.2-.4 16.4-2.6 32.8-2.2 49-.4 28.5 3.6 56.6 9.6 84.1 17.9.3.1 3.5 1.3 1.4 3.2-8.2 7.4-15.6 16.3-25 21.6-39.1 19-80.8 33.6-123.5 42.1-2.5.5-6.2 1.3-7.7 0-13.8-12-27.3-24.3-42.7-38.2 22.9 1.9 43.3-1.3 63.8-2.6 23.3-1.6 46.8-3 69.7-8.6 4.7-1.1 3.2-6.3 6.5-7.9-1-1-2-2.5-3.2-2.8-23.7-5-47.9-5.4-71.8-9-28.1-4-57.2-1.5-85.7-3.1 33.8-40.8 72.1-81.7 88.2-133.9.7-2.1-.2-4.4-2-5.7-2.4-1.8-2.2 1.5-3.2 2.3-8.2 6-10.5 16.3-17 23.6-27.7 33.4-60.7 61.4-92.8 90.4-2 1.8-3.1.2-4.1-.7-48.5-47.6-98.3-93.8-144.3-143.9-4-4-9.9-3.6-4.9 2.7 36.5 55.5 78.6 106.9 121.5 157.6 2.3 2.8.7 3.2-1.8 4.2-30.3 11.7-60.6 23.1-90.7 35.4-20.7 8.4-38.9 21.4-57.5 33.6-1.8 1.2-5.7 1.5-4.3 4.8s5.5 3 8 2c13.4-5.9 26.8-11.3 41-15.1 37.7-12.2 76.1-21 114.2-31.7 1.8-.6 12.1-11.3 11.6 1-.9 17.7-3.3 35.4-3.4 53.3 1.2 10-3.7 64.7 6.5 64.6 3.8-.3 3.9-3.7 3.5-6.5-3.6-21-1.1-42.4-2-63.6-.5-18.5.7-36.9 3.6-55.2.2-2.1-.5-4.1-2-5.7-1-.9-3.7-.4-5.5.1-14.4 4.2-28.8 8.8-43.3 12.8-28.6 7.6-55.7 13.7-84.3 22.6 11.3-10.6 25.3-12.6 37.6-18.2 25.5-11.5 51.6-21.7 77.5-32.4 3.4-1.4 5.5-2.4 2-6.5-21.9-25.9-43.9-51.8-64.7-78.6 29.5 19.2 51 48.6 77.6 71.7 1.2 1.1 1.9 4.5 5.3 2.3 32.4-22.3 60.7-49.7 87-78.8-6 17-18.3 30.1-29.2 44.1-12 14.4-22.9 29.8-36.7 42.7-3.3 3.1-8.5 6.1-6.9 11.7 1.8 6 8 4.3 11.6 3.4 13.9-3.8 27.8-1.3 41.6-.9 34.1 1.3 68.3 4.3 102.3 7.8-13.7 5.7-28.2 3.2-42.3 4.8-26.4 3.1-53.2 3.3-79.8 4.4-14-.3-17.8 3.6-5.1 11.5 35.8 35.6 75.2 67.3 112.2 101.6 3.1 2.8 6.2 5.5 9.3 8.3 3.5 3.2 8.7 5.4 4.1 12.2-9.3 14.1-16.4 4.1-23.3-1.9-43.3-39-84.9-79.3-123.1-123.4-2.4-2.6-4.9-3.1-5.8 1.8-1 5.9-2.9 11.6-3.8 17.5-4.1 28.4-8 56.9-11.9 85.4-.4 2.2-.9 5.4 1.2 6.9 11 7.8 16.1-88.8 18.9-99.4 12.6 12.4 25.3 24.6 37.6 37.1 2.4 2.4 5.9 7.1 5 8.8-16.1 36.1-39.6 67.3-67 95.6h12c13.4-15.6 28.5-31 39-49 6.5-10.1 12.4-20.6 17.9-31.2 5.1-9.8 7.7-9 13.4-2 19.7 23.7 44.8 42.4 67.2 63.4 5.1 4.6 10.3 8.6 18.5 3 16.4-10.8 13-23.9.2-33.2-20.6-19.3-41.1-39.2-61.2-58.4 53.2-13.5 112.6-28.1 152.6-68.4 3.6-3.6 8.9-8.1.3-12.6zM130.8 272.2c55.8-22.2 114.9-35.6 169.5-60.8 12.4-3.9 8.8 1.5 6.4 10.2-10.3 39.1-12.1 79.8-15.6 119.8-3 26.9-.8 53.4 3.3 80 1.3 14.6 4.3 17.3 14.2 10.2 69.1-50.4 118.1-127.4 144-208.2 1.9-5.5 3.4-5.8 7.1-4.2 62.2 30.2 127.2 57 181 101.9 6.3 5.5 16.4 8.5 12.1-4-3.6-31.8-15-62-25.2-92.2-24.6-51.9-57-101-100.8-138.8-.7-.7-11.7-3.5.6-7.9 44.5-16.5 85.5-41.7 125.7-67 5.8-2.2 9.7-16-.5-11.2-40.6 29.3-86.2 49.8-131 71.4-3.7 1.9-13.1 1.7-9.9 9 7.1 16 21.8 26 34.4 37.2 12.3 10.8 20.9 24.3 30.5 37 35.7 47.6 56.4 101.3 69 159.4-39.4-27.7-75.4-53.1-118.1-73.3-21.5-10.9-44.9-17.8-65.4-31-8.6-5.6-14-3.6-17.4 6.7-23.9 82.4-76 154.3-141.4 209.5-8.4-74.1 3.1-148.3 15.5-221.5 2.5-11.9-25.2 1.3-30.5 2.4-53.8 17.3-106.2 39-160.1 56 20.1-69.2 75.1-124.2 136-160.5 4-2.2 12.2-8.8 4.3-13.4C228.1 65.4 189 39.4 154.6 7.7c-3.2-2.9-6.7-6.9-11.8-6.9-25.7-.9 110.1 92.4 118.9 93.5-47.3 21.7-93.5 71.9-120.8 115.3-5.4 9.7-42.3 74.9-10.1 62.6zM228.3 6.6c49.4 27.4 99.1 54.8 152 74.9.2.1 4.6 1.5 1.1 3.4-27.9 15.4-56.8 29.1-84.3 45-26.6 17-51.1 37.4-75.4 57.5-2.4 2-6.6 6-3.8 10.6 1.3 2.1 4.6 1.7 6.8.3 51.7-30 106-55.3 159.3-82.5 1.5-.7 5.3-3.4 4.7 1.2-7.9 50.6-21.4 101-34.4 150.4-9.4 24.3-15.6 49.5-25.1 73.7-.6 1.4.2 4.2 1.4 5.3 2 2 2.4-1 3.5-1.9 16.6-20.9 23.5-48.5 35.5-72.1 22.9-51.9 41.5-105.7 55.6-160.7.5-2.3 1.3-3.7 4-1.6 47.4 32.3 87.8 73 133.6 107.2 2.9 2.3 5.8 7.8 10.3 5.5 8.3-3.7-14.2-25.2-17.1-29.7-38.6-40.8-71.2-87-116.5-121.3 34.2-9.5 67.9-21 99.3-37.8 13.1-6.2 24.7-15.5 37-23.5 4.4-1.9 8.6-6.8 1.7-7.8-15 5-27 18.2-41.8 24-19.2 8.8-37.7 19.2-58.1 25.6-13.9 4.3-27.4 9.9-41.2 14.6-2.4.8-6.3-1.7-7.2 2.4-.8 3.7 1.8 5.7 4.8 8.2 15.2 12.7 30.6 25.2 44.6 39 21.8 23.3 41.2 48.8 62.9 72.3-37.1-24.2-66.9-59.4-105.2-82.3-14.2-9.2-15.4-8.1-19.4 8.1-12.8 54.4-35.4 105.6-54.4 158 12.1-53.3 27.1-105.9 35.2-160 9.8-21-40.1 10.3-46.1 12.3-35.9 18.7-67.7 34.5-105.1 52.1 45.7-42.2 102.4-62.2 153.7-93.4-1.5-1.4-2.8-3.4-4.6-4.2-11.8-4.9-23.9-9-35.5-14.3-28.1-12.9-56-26.3-83.9-39.7-14.7-7.1-29.3-14.5-44-21.6-1.7-.8-4-.3-5.9-.5.6.9 1 2.7 2 3.3zm210.1 37.8c41.4-2.9 83.3-14.4 117.2-38.8 1.2-.9 4.2-1.3 2.6-3.5-6.4-3.2-17.8 6.4-24.6 8.3C524.9 14.9 437 49.1 439 35c2-8.9 2.6-18 2-27.1-.3-3.9 1.4-8.5-2.7-11-2.3 3.4-3.8 6.4-3.9 10.9-.1 8.2-2.7 16.3-3.4 24.6-.2 5.3-3 11.8 7.4 12zM252.3 3.2c44.9 22.8 92.4 39 139.3 56.9 3.5 1.3 11.9 6.1 13.8-3.4 1.8-9.1 2.8-18.4 3-27.7-.4-6.7 4.8-32.4-5.3-32.2-2.3-.1-2.1 1.5-2.1 3-.6 12-1.3 24-2 38.2 0 .4 1.1 4.2-.2 5.5-2.6 2.6 2.2 11.9-7.8 8-18.9-7.4-38.1-14.1-57.2-20.8-27.8-8.2-51.7-25-80-31.6-3-.5-7.7 4.3-1.5 4.1zM10.9 1539.6c6.8-23.2 13.7-46.3 20-69.6 2.9-10.5 3.2-12.3 5.9-10.1 25.6 18.5 98.1 78.1 126.9 74.9-.5-2.5-1.9-4.7-4.1-6.2-18-14-36-28.2-53.4-42.9-18.9-16.7-38.6-32.9-56.4-50.9 20-10.9 41.9-18.9 61.3-31.3 26.8-15.2 53.4-30.9 80-46.4 3.9-1.8 5.8-9.4.4-9.8-27.2 9.7-53.1 22.9-80.2 32.6-31.1 8.9-60.5 22.7-90.4 33.8-1.4-32.6-8.4-64.6-12.3-97-.6-3.6-4.5-1.9-7.4-1.9-2.7-.2-2.9 1.6-2.3 3.5 3.6 30.4 15.2 59.2 14.4 90.4.1 5-.2 16.3 12.5 10.8 9.6-4.1 19.4-7.9 29.1-12 24.8-10.1 50.6-18 76-26.7-23.1 17.7-50.5 27.6-75.3 42.5-30 7.6-8.2 23.4 6.3 35.6 19.5 16.6 39.4 32.8 59.2 49.2l-.8 1.1c-30.6-17.5-59.7-36.2-85.6-60.1-9.2-7.6-9.4 14.4-11.8 19.3-7 25.6-11 52.1-23 76.2-3.3 19.1 9.2 3.7 11-5z"/></g><g><path d="M52 1548v15l-37 37h946l-37-37v-15H52M52 52V37.7L14.3 0H0v1600h15l37-37V52m872 0V37.7L961.7 0H14.3L52 37.7V52h872m52-52h-14.3L924 37.7V1563l37 37h15V0z"/><path d="M961 1600h15V0h-14.3L924 37.7V1563l37 37H0V0H961.7M52 52V37.7L14.3 0m.7 1600l37-37V52h872m0 1496H52" fill="none" stroke="#333" stroke-width="2" stroke-linecap="square" stroke-miterlimit="3"/></g></svg>