<svg xmlns="http://www.w3.org/2000/svg" xmlns:xlink="http://www.w3.org/1999/xlink" viewBox="0 0 976 1600"><path d="M960 22v1556c0 3.3-2.7 6-6 6H22c-3.3 0-6-2.7-6-6V22c0-3.3 2.7-6 6-6h932c3.3 0 6 2.7 6 6z" fill="#fff"/><defs><path id="a" d="M960 22v1556c0 3.3-2.7 6-6 6H22c-3.3 0-6-2.7-6-6V22c0-3.3 2.7-6 6-6h932c3.3 0 6 2.7 6 6z"/></defs><clipPath id="b"><use xlink:href="#a" overflow="visible"/></clipPath><g clip-path="url(#b)"><path d="M637.7 884.7c-43-37.8-94-89.5-103.2-150.8-14.1-.5-32.4-1.2-29.4-19.6-1.7-14.4-6.9-27.3-8.7-41.5.3-9-10.1-24.3-1-30 16.1-11.7 49.8-47.7 71.7-27.1 29.5 22.6 19.2 51.9 44.3 47 16 .7 70.5 10.8 47.5 35.4-17 21.1-49.1 96.6-30.2 117.8 13-8.5 8-31.7 17.8-48.9 13-23.8 29.1-89.2 62.9-77.7 18.3-4.7 8.1-51.5 38.9-51.2 52.6 4.1 88 12 130.7 33.4 14.8 6.3 12.1-12.2-.4-14.1-27.4-14.9-51.5-24.2-75.9-29.3-14.9-5-55.1-.6-41.9-26.7 67.1-108.2 172.2 26.5 196.1 104 2.3 5.1-5.3 5.3-5.8 9.6-1.8 8.7 21.1 18.3 9.3 25-63.6 7.4-127.8 40.4-192.3 25.6-14.8-1.8-1.3 25.8-21.5 40-30.7 31.1-73.1 53.7-108.9 79.1zM491.3 618.6c-12.3-8.4-6.6-31.1-10.9-44.6 1.8-15.4-18.9-54.3 9.6-51.6 32.5 6 63.3 28.9 63.7 61.5-1.6 3.8-5.8 5.3-10.3 6.8-23.7 7.4-36 18.4-52.1 27.9zM660.5 599c-13-11.3-18.9-39.5-15.9-58.3-3.4-17.4 32.1-51.4 39.9-19.3.2 27.4-7.1 58.4-24 77.6zm72.1-42.2C719 537 718.5 504.5 715 479.4c-6-29.1 31.7-53.9 45.5-16.4 11.1 32.4-1.7 74-27.9 93.8zm-140-39.6c-19.3-12.1 27.6-56.6 38-58.6 60.1-9.4-14.6 58.2-38 58.6z" fill="#5d4e8c"/><path d="M703.5 1604c-2.2-.6-4.5-.6-6.7 0-4-4-171.2 8-169.5-4.5 12.2-15.6 4.3-40.2 7.9-60.9 3.4-36 10-71.6 19.8-106.4 16.9-49.4 30-110.3 59-150.6 12.1-5.7 30.1-4 43.3-3.7 10.6-4.5 32.6-9.9 42.9-2.9-15.2 56.4-36 117.6-41.1 176.8-.1 27.5-16.8 68-1.8 80.2 20.4-40.8 27.2-91.2 55.9-133.8 50.8-96 116.7-178.6 211.8-234.2 100.6-64.4-.8 30-22.3 59.3-41.4 50.9-75.6 108.6-101.3 168.7-27 64.3-53.6 134.2-46.4 203.1 7.4 17.3-46.1 5.7-51.5 8.9zm-253.4 0c-48-.2-106.2 0-154.6 0-8.2-2.7-.1-18.3-2-25.5 1.6-32.6-5.1-64.1-6.3-96.6-2.9-43.6-10.1-87.2-18.8-130.2-79.2-85.5-157.6-160.5-258.4-192-10.6-12.2 15.7-5.7 21-5.3 70.2 1.8 137.7 32.6 194.3 60.3-9.5-55.9-53.8-106-86.3-152.2-17.3-25.9-48.6-49.3-66.4-74.3 14.8-5.5 32.7 13 42.4 18.4 256.6 157.6 277.4 602.2 280.1 407.1.2-110.4-10.8-195.8-34.4-315.1-7.7-52.2 42.8 65.1 50.4 70.1 9.1 21.6 28.1 37.9 32.5 61.3.4 4.3 4.7 4.6 7.9 5.7 6.9 5.8 11.6 14.7 17.5 21.7 29.9 35.4 35.6 43 35.7 90.9.8 44 3.5 87.8-.6 131.6 2.1 38.1-16 83.7-2.2 118 6.3 12.6-48.7 3.4-51.8 6.1zm-228.9 0c-5.7-3.1-54.5 7.6-48.5-7.7-2.8-82-23.4-154.6-62.7-225-3.1-12.4-67.8-85.8-24.2-58.8 82.7 48.3 147.5 132.8 169.6 224.3 5 20.3 7.5 43.9 9.1 65.4.6 3.9-41.6.9-43.3 1.8zm498.6-381.1c-11.8-10.4-17.7-29.6-25.6-42.4-12.4-11.7-17.8-25.8-5.8-38.8 71.8-106.9 161.1-197.8 269.5-261.9C843.5 1026 747.3 1153 719.8 1222.9zM268.6 822.8C201.4 715.2 128.8 601.5 35.3 507.3c3.4-5.7 15.4 6.5 18.8 7.4C100 545.4 229 629.5 238.9 679.6c1.4 12 7.9 24.3 6.2 35.5-2.5 12.8 12.8 25.5 11.3 40.4-.9 20.5 22.7 52 12.2 67.3z" fill="#333"/><path d="M686.8 1001.3c-33.4-10.4-14.4-63.3-3.8-82-5.9-16.3-5.8-32.6-8.1-49.1-1.8-12.1 8.5-15 16.1-20.4 32.8-28.7 34 50.7 31.6 76.8-1.6 9.4-7.7 15.2.1 22.9-4.5 19.2-12.5 46.9-35.9 51.8zM200 975c-43.9-10.8-35.7-78-13.6-102.3-5.9-25.5-11.1-50.8.1-75.3 44.4-31.7 41.8 63.5 26.2 83.3 8.8 25.5 25.9 84.2-12.7 94.3zm429.1-140.3c-17.7-39.3 8.2-98.3 30.1-137.7 5.8-14.1 33.3-3.4 17.8 8.6-26.6 38.2-39.3 86.6-47.9 129.1zm276.6-151.8c-47.9-24.1-101-40-153-45.6-15.7-44.7 168.3 24.5 153 45.6zm-245.8-6.5c-8.2-4.1-13.2-9.2-22.5-10.3-5.7-3.3-21.1-1.7-22.2-6.9-1-13.4 20.1-40.8 35.4-38 9.6-.2 4.8-15.6 12.8-17.5 15.8 15.9 13 55.4-3.5 72.7zm57.2-9.2c-14.8-20.8-10.2-91.5 14.6-103.2 12.2 28.3 9 83-14.6 103.2zm-122.2-16.6c-11.1-11.6-17.6-31-32.4-38-5.5.4-4.1-8.6-10.2-7.9-20.5 9.8-40.8 22-56 36-30.3-20.5 33.3-44.5 45.6-49.4 5.2-1.3 13.6 4 14.5-4.8-.6-12.4 21.8-80.7 35.8-69.3 3.7 22.5 1.7 42.5-6.1 61.1-1.1 2.7-.1 5.8 2.3 7.4 8.6 17.3 18.4 49 6.5 64.9z" fill="#ffeb5c"/><path d="M500.6 1290.9C321.3 1112.4 237.4 717 216.8 468.4c-3.4-39.5-7.7-79.1-11.4-118.6 1.5-10-8.7-29.7 4.2-32.8 52.3 6.6 178.7 1.8 248 12.6 7.3 110.2 6.9 218.1 32 328.1C522.9 879.4 608 1071.6 733 1256c6 10-4.7 11.6-11.3 10.6-73.1 3.2-148.6 16.2-221.1 24.3z" fill="#d81e1e"/><path d="M987.8 952.4c-1.7 18.9-30.9 15.8-26-7.3.6-16.8 28.4-10.3 26 7.3zm-3.6 182.8c2.6 6.4-5 9.6-8.2 13.9-11.2 11.3-22.6 22.5-33.5 34.1-19.1 22.6-38.4 45.5-56.7 68.8-19.3 31.7-41.4 62-58 95.1-22.3 47.4-45.2 95.5-57.3 146.9-4.5 22.8-7.3 45.9-12 68.6-2.1 10.1 1.4 20.4-3.1 30.1-1.1 2.5-2.5 2.2-4.4 2.3-2.2 0-2-1.7-2.2-3.3-2-16.9.9-33.4 3.9-49.9 6.1-50.6 21.2-99 42.4-145.4 38-95.1 102-178.9 171.9-252.5-113.4 58.8-191.7 143.1-250.2 256.2-32.3 56.7-54.4 119.5-56.6 185.2-.6 5.1-.5 13.6-7.1 13.2-4.8-.3-3.3-9-3.7-13.2-5.3-44.8-.7-89.6 5.7-134.1 7.6-58.4 20-115.9 41.4-170.9 2.9-5.9-5.4-4.5-6.3-4.5-36.1 2.5-33.9 3.4-43 34.4-19 47.4-27.1 98.6-36.7 148.7-4.4 42.3-7.6 85.8-8.2 127.8-12.2 39.3-6.2-71.6-5-76.1 6.6-77.6 23.9-153.9 51.3-226.8 1.5-7.8-29.5.1-33.5 1.6-6.7 2.1-6.9 11.5-9.7 17.4-28.2 66-52.9 134.9-62.6 206.4-4.5 28.1-5.2 56.4-5.8 84.8-.2 4.2-3.8 4.8-5.9 5.4-1.6 0-2.3-2.9-2.4-5.2-1.7-25.4 2.6-50.5 3.3-75.8 9.3-78.5 37.6-154.6 68.7-226.7 4.7-9.2-3-6.6-6.8-6.6-17.8-.3-24.2 11.7-29.1 26.2-14.8 37.1-27.5 75-37.8 113.5-11.5 40.4-20.3 81.4-24 123.3-1.5 14.3-1.3 28.7-2.3 43.1-.2 2.8.7 6.4-2.6 8.5-11.6-16.8-2.5-50.3-1.8-70.5 6.4-60.1 6.5-120.5 4.2-180.8-.6-15.9-2.9-31.7-3.5-47.6-.2-5.7-4.9-6.5-7.3-9.6-13.8-17.1-26.1-35.9-40.6-52.2 3.6 82.1 5.4 165.4 5.2 247.9.3 24.7-1.1 49.3-1.9 74-1.8 16.5 2.5 32.3-6.8 47.3-2-68.3 3.1-131.9.2-199.4-2.8-60.4 2-121.7-6.8-181.7-2.5-12.5-11.5-22.3-18.2-32.7-20.4-36.7-40-67.4-58.2-106.6 19.4 87.3 28.7 174.2 36.3 262.8.6 74.3-.8 148.5 3.5 222.7.4 15.2 2 33.8-8.7 46.1-4.5-27.5-.3-56.8-3.3-84.9-5.2-58.4-18.1-116.4-36.8-171.9-31.3-101.4-80.5-199.9-153.1-278.1-26.7-28.4-57.4-51.5-88.1-74.8-9.9-7.5-20.6-15-36.4-19.8 81.6 74.1 144.2 168.8 174.7 274.7 13.8 48.5 24.7 97.9 32.5 147.7 8 46.5 8.3 93.7 14.1 140.4 1.9 15-1.1 29.7-.5 44.6-1.1 4.4-5.9 4-6-1.4 1.2-32.9-3.8-65.6-6.1-98.4-1.1-29.2-6.5-57.7-10.9-86.4-1.1-13.8-5-27.1-6.6-40.7-.9-7.6-5.3-13.6-9.3-19.1-43.4-57.8-97.9-108.6-160.4-145.3-25.6-16.3-52-31.4-81.2-40.3-4.9-1.8-9.8-4.8-9.1-9.5 1-6.1 8.7-4.9 12.6-5 71.6-.5 142.9 22.4 202.8 61.3-44-96.8-104.1-197-201.4-247.3 29.2-12.5 149.2 67.2 181.8 109-3.9-25.3-13.5-46.6-13.9-71.7-7-44.5-36.2-47.6-21.7-104.4 2.6-11.8 13.4-21.6 10.7-33.9-4.1-23.2-11.4-60 9-77.1 51.2-18.2 47 64 31 92.6-3.4 7.9 4.5 14.7 5.8 22.5 16.9 72-17.1 54.7-4.2 93 9.2 47.2 13.1 98.4 35.4 141.5 24.2 35 46.3 71.4 63.6 110.3 34.3 69.8 55.9 141.1 72 217.8 3-127.4-8-254.4-37.3-378.4-5.5-32.5-18.4-62.5-30.9-92.7-13-36.9-26.6-74-36.5-111.8-28.7-85.1-84.9-157.4-134.3-231.3-25.5-35.8-51.2-71.4-82.6-102.4C52 530.1 32 515 11.5 500.4c-2.1-1.5-2.7-5-3.9-7.6 50.4 3 188.9 117 222.8 159-7.8-53.7-11.9-106.2-17.4-159.9-4.9-56.6-13.9-113.7-10.9-170.6.6-3.9-3.7-10.4.6-11.3 8.7-1.7 17.6-1.9 26.4-.6 35.6 3.2 150.8 9.4 201.5 11.4 11 .5 22.1-.1 33.1.3 4.5.1 2 4.8 2 6.4-.1 59.8 5.9 119.7 10.8 179.2-.1 6.9-2.8 12.2 10 11.1 30.1-2.3 56.5 22.4 69.6 47.9 4.3-18.5 16-33.6 24.4-50.3 6.3-12.5 10.8-25.9 19.4-37.2 9.4-15.4 44.6-41.1 58.2-19 4.2 8.7-2.1 15.3-6 21.2-12.9 19.4-30.7 32.9-53.7 38.8-5 .2 1.9 20.5 0 25.6-.8 10.1-1.4 21.3-6.1 29.7-5.7 10.1 2.8 13.9 5 20.3 6.3 19.4 7.9 38.9 3.9 58.9-.2 1-2.7 3.6 1 3.1 3-.4 7.3 2.5 8.8-1.7 5.7-15.8 14.7-29 29.6-36.8 6.4-2.9 23.2-13 14.4-20.8-16-23.9-22.9-59-5.3-83.3 10.3-17 40.3-15.8 39.7 8.6 1.1 27.5-11.8 51-20 76-1.5 4.7 2.9 11.5 4.8 17.3 6.8 20.3 4.1 39.5-6.4 57.8-1.3 2.3-1.3 4 .3 4.9 3.2 1.7 2.9 6.5 8.2 6.7 9.7.3 19.3-4.8 29.1-.5 11.1 4.9 6.2-4.3 5.3-7.2-3.8-13.8-2.5-28.1-4.4-42-2-25.4.8-52.8 18-72.9 6.1-6.3-1.8-12.4-2.8-18.3-4.7-33.1-29-86.5 9.6-105.9 8.5-3.9 17.5.9 24.6 7.5 29.6 31.1 10.3 84-15.8 111.3-8.2 8.4.6 17.9 1.7 26.8 2 16.6 2.5 32.9-1.8 49 10.8-4.5 15.2-12 15.7-24.3 7-58.9 90.8-65.5 126.8-29.1 22.2 18.4 41.6 40.2 53.8 67.4 14.7 29.7 31.4 58.9 37.3 92 .2 1.6.7 3.7-1.8 3.8-18.1.6-35.4 5.2-52.8 10-47.4 11.7-96.8 29.7-145.9 18.4-18-10.2 5 13.5-25.3 41.1-9.9 10.4-20.8 19.8-32.7 27.9-4.3 3 1.6 7.6 3.1 10.7 17.6 39.3 18.3 114-11.2 146.5-24.5 24.3-23.8 57.6-35.6 86.3-3.8 9.2-5 19-9.2 28.3-3.8 8.3 4.3 15.3 7.8 22.8 11.6 24.8 15.2 2 19.4-3.7 20.3-27.7 40-55.8 62.3-82.1 55.8-65.1 122.4-120.6 194.1-167.6 6.3-4.1 13.4-7 20.3-10.1 4.6-2.1 7.9 1 10.3 3.8 1 .8 1.2 2.3.4 3.3l-.4.4c-22.8 21.5-42.5 46.1-62.6 70.1-75.7 80-136.9 172.3-185 271.3-6.2 11.6 4.3 19 8.8 27.9 10.1 20 7.1 26.3-16 25.4-13.8-.6-15.2 7.1-18 15.8-27.8 75.1-38.2 155-46.5 234.3 13.3-62 43.7-117.6 76.8-170.9 28.7-54.2 69.4-100.2 115.7-140.1 22.1-19 110.1-86.2 134.8-77.7zm-393-623c1.6 2.8 3.5-.8 5.3-1.3 22.4-6.3 39.3-19.4 50.7-40.1 5.3-9.5 1.5-10.1-10.4-9.3-20.4 4-40.7 30.4-45.6 50.7zm-348.3 758c-8.3-16.8-7.1-37-25.4-50.7-61.7-44.4-131.4-56-206.2-63.5 105.4 37.5 183.8 103.7 250 187.1-2.3-11.2-3.6-22.2-6.9-32.5-3.2-10-2.8-21.9-10.9-29.4-27.2-24.8-56.4-48-88.1-66.7-9.1-5.3-19.1-9.3-26.9-17 45.8 12.4 79.5 43.7 114.4 73-.3.7.2 0 0-.3zm-49.7-386.3c.9 3.8 3.3 7.3 5 10.9 17.5-18.2 23.8-50.4 21-75.6-2.4-15.8-18.2-34.2-29.2-19.8-12.3 27-3.2 57.3 3.2 84.5zm9.1 86.7c26.7-10.9 17.3-57.8 10-79.5-5.6 6.1-9.7 17.6-19.3 13.1-5.2-2.5-6.6-13.3-9.7-20.4-17.2 19-15.1 88.4 19 86.8zm32.1 141.3c-9.9-45.5-18.6-81.8-23.1-126.6-1.8-15.3-10.9 5.3-13.6-3.3-5.7 1.1 1.5 28.2 1.7 33.8 3.7 19.5 9 38.8 11.5 58.4 1.9 16 16.9 21.2 23.5 37.7zm456 57.4c2.2 2.1 3.5 5 5.3 7.5 16.7-23.3 27.8-50.2 48.2-71 1.3-1.3 1.1-5.5 4.2-3.7.8.4.1 5.1-1.2 7.1-10.2 16.1-20.9 32-31.1 48.1-5.2 8.1-13.1 16.3-13.8 24.9-1.1 14 13.1 22.6 18.1 36.7 58.3-128.7 144.4-235.4 239.7-335.5-80 46.6-148.7 110.2-208.5 180.4-21 25.3-40.2 51.8-58.6 78.9-6 8.6-12.5 16.7-2.3 26.6zm-2.4-161.7c-2.4-4.2-10.5-1.2-14.3-7.3-6.9 21.1-15.5 41.6-24.1 62-7.3 16.1-7.2 32.9 6.6 45.1 7.7-29.6 16.8-58.8 28.4-87.1 1.6-4.2 4.9-10 3.4-12.7zM518.8 738.9c-.8.3-2.2-1-3.8-1.8 21.9 116.3 60.9 228.2 117.5 332.3 1.9 3.2 6.3 6.6 6.5.2 6.3-17.6 12.7-35.2 19.3-52.7 3.2-8.3 10.6-17 9.6-24.6-1.5-11.1-5.9-21.5-3.3-33.5 2.9-13.3 4.6-26.8 13.4-38 .9-1.1 1.1-3.9.4-5-8.3-14.2-6.4-30.8-7.8-46.4-10.4 5.9-19.7 13.5-29.6 20.1-2.6 1.8-5 4.2-8.8 1.3-26.7-27.2-50.7-57-75-86.5-11.2-13.7-17-30-22.7-46.6-2.5-7.4 6.4-26.9-15.7-18.8zm199.8 210.7c-22.9 11.8-24.6-6-37.5-19-.9.2-1.6.9-2 1.8-2.3 13-8.3 25.3-6.5 39-.2 12.1 7.3 34.6 22.8 22.3 13.9-11 19.6-28.4 23.2-44.1zm-8.1-94.7c-1.4-3.3-1.5-12.2-9.9-6.5-7.2 6.5-23 9.2-21.7 21.2 3.6 25.9 2.2 58.8 27.8 74.2 22.7-11.1 12.2-69.6 3.8-88.9zm54.9-238.4c69.8 12.2 138 38.6 188.1 90.8-21.7-48.5-44.3-101.2-92.3-129.2-32.9-20.7-81.2-13.5-96.5 25.1-2 4.4-4.7 11.4.7 13.3zm-11 17.1c23 5.3 47.8 5.6 71.1 12.8 28.3 7.5 53.4 21.1 80.2 32.5-36.1-23.8-75.7-42.8-118.7-50.2-10.8-2.7-24.7-7.5-32.6 4.9zm-26.7 29C703.4 709 743 769.3 795.4 766c56.3-1.2 109.5-21.3 164.7-29.8-33.1-42-85.4-65.1-135.3-81.8-25.4-6.8-50.9-10-76.3-12.1-13.5.4-17.3 12.1-20.8 20.3zm3.3-114.5c.4 1.6 1 3.2 1.6 4.7 20.9-18.9 35.5-60.8 24.3-88.3-7.4-17.8-22.2-22.7-31.9-10.1-15.5 28.4 2 63.9 6 93.7zm-15.1 113c.2 1.4 1.4 3 2.8 1.3 17.5-28.9 18.5-62.1 11.8-94.6-21.9 25.9-17 62.2-14.6 93.3zM693.1 693c-20.7 20.8-31.5 48.8-42.8 75.5-13.6 33.5-15 69-15 104.6 0 2.5 1.5 5.1 2.3 7.7 34.5-27.1 75.2-46.1 106.2-77.5 42.3-48.7-31.5-34.1-33.6-109.2.9 2.5 0-.6-.2-.6-5.7 1.1-11.7-5.8-16.9-.5zm-30.4 6c-23.3 39.3-39.7 85.5-33.6 131.8-1.5-45.2 22.4-87.6 43.5-126.2 1.6-2.9 8.1-5.5 3.7-8.6-3.3-2.5-10.1-3.3-13.6 3zm-3.5-105.2c1.1 2.8 2.9.3 3.3-.8 8.2-23.1 20.5-45.1 18-71.2-.6-9-8.2-11.3-15.5-8.1-16.1 7.6-14.9 23.3-18.1 35.8 1.3 16.3 6.6 30.3 12.3 44.3zm.7 78.7c10.7-21 12.9-42.7 3.7-64.8-16 48.5-16.5 58.1-3.7 64.8zm-34-13c6.1-.2 12.3 3.1 18.8 4.9-3.9-12.9-1-25.4 1.7-38.2 1.4-2.8-1.1-1.6-2.3-.9-10.2 5.7-16.3 15.3-22.6 24.5-2.5 3.5-7.1 10.1 4.4 9.7zm-70.2 23.8c-13.6 11.3-14.6 26.8-14.9 43.3-1.8 62.1 47.8 99.3 84.2 143.9-13.8-59.4-5.4-125.6 31-175 10.9-12.1 2.7-14.3-5.6-18.4-12.3-6.2-25.1-10-39.1-10.3-20.5-.6-39.5 3.2-55.6 16.4v.1zm30.7-94c-30 39.7-9.4 13.9 8.5 57.5 2.4-21.4-.7-39.9-8.5-57.5zm-24.3 19.3c22.8-26 32.2-54.2 26.2-90.7-17.5 29.2-33.2 55.5-26.2 90.7zm-9.5 4c-20.6 6.7-39 17.1-53.6 33.5-1 1.1-4.4-1-3.3 3.6 4.6 19.2 6.9 39 12.8 57.8 2.3 7.2-4.2 22.8 14.8 21.4 6.3 2.2 7.6-1.2 8-8.5-2.1-33.6 26.2-56.6 56.7-61.3 3-.7 2.8-.6 1.9-3.7-1.1-9.9-27.7-46.1-37.3-42.8zm-52.3 19.8c9.1-9.6 19.9-16.3 31.9-21.7 5.9-2.7 14.1-3.2 14.8-13.1-1.4-11.4-49.1 21.3-53.8 26.5-3.8 3.1-.7 8.8 1.7 11.8s4.2-2.1 5.4-3.5zM479 532.7c4.9 27 4.6 55.9 12.2 81.9 15.2-12.1 32.4-21.4 50.8-27.7 6.2-2.2 10.8-3.2 7.2-12.6-11-28.3-31.9-42.7-60-48-4.1 2.3-11.4-3.1-10.2 6.4zm-210.4 286c-3.2-15.7-9.6-33.3-13.6-49.3-3.2-12.3-3.1-26.3-9-37-22-39.9-58.3-71.4-83.8-108.2 14.4 6 23.4 20.3 33.8 31.1 16.4 18.2 30.9 38.1 46 57-2.4-10.6-4.8-21.3-7.1-32-1.3-6-.3-14.1-3.9-17.7-58.3-59.6-120.1-110-192.6-153.1C138.7 600 203.1 710.7 268.6 818.7zm287.8 472.6c-16 .5-31.9 3-47.9 4.8-2.9.3-4.4 1-3.8 5.1 7 53.2 3.9 104.9 4.4 158.7 12.3-55.6 30.5-105.2 49.3-158.2.5-1.5 9.3-10.7-2-10.4zm169.5-28.6c1.3 0 7.1 1 3.6-4.5-39.9-61.7-77.1-125.2-112.4-189.6-53.7-96-87.1-201.3-110.9-308.3-20.2-96.9-41.4-194-45.2-293.3-1.4-42.7-6.7-85.4-5.6-128.1.6-4.7.5-8.6-6.9-8.1-9.6.7-19.3-.3-29-.8-69.7-5.8-140.1-3.3-209.5-9-1.8 0-3.1-.1-2.8 2.6.9 8.6 1.2 17.2 2.1 25.8 9.7 98.8 18.8 197.9 32.1 296.2 24.9 136.1 63.9 270.2 114.5 398.7 33.9 80.8 79.4 156.3 131.3 226.7 5.3 7.8 8.7 14.9 21.2 12.3 16.6-3.5 33.8-3.6 50.7-5.5 55.5-6.6 111-13.8 166.8-15.1zM960.1 130.6c11-1.4 10.7-10.4 9.5-19.3-1-7.8-5.8-9.1-12.5-8.7-11.4 1.5-11.8 10.7-11.9 19-.1 10 9.5 9.7 14.9 9zm-3.1 943.2c17.5.4 12.7-30.2-4.8-26.6-13.3 1.2-15.4 27.3 4.8 26.6zm-2.2 197.5c-13.4-2.2-21.8 26.1-3.4 27.5 19.9 2.2 16.2-27.3 3.4-27.5zM959 505c-.4-7.4-2.8-13.1-11.6-12.1-7-.1-13.9.2-14.3 9.1-2.5 17.5 26.8 23.2 25.9 3zm-21.5 330.4c18.4 1.5 24.5-27.9 4.8-28.2-9.8-.1-16 5-15.5 15-.6 8.5 2 13.4 10.7 13.2zm-3.1 539.9c-20.9-.8-18.4 28.7-.5 27.3 6.5-.6 16.4.1 15.2-11.9-.8-8.9-5.5-15.6-14.7-15.4zm-1.6-812c-8.4-1.1-11.9 3.9-11.3 9.4.7 6.4-1.7 16.8 7.6 17.8 20.9 3.5 23.2-28.9 3.7-27.2zm-.3-161.8c-11.5-.2-13.6 26.2-2 26.2 6.1-.5 16.3.3 14.5-11.3.7-9.4-3.4-15.5-12.5-14.9zm-5.7 1139.6c-10.2.2-8.1 10.4-8.4 15.1-.5 8.7 8.6 12.5 15.6 13 6.4.5 11.6-4.9 11-14.1 1-12.3-8.1-14.3-18.2-14zm17.1-53.2c-.3-8-3.8-14.1-13.5-15.2-5.3.6-6.8 4.7-7.5 9.7-3.5 14.3 22.1 21.1 21 5.5zm-15.2-496.5c-8.8.7-13 7.8-12.4 16.5.8 11.7 10.8 11.2 19.6 13.7 9.7-4 7.3-13.4 6.7-20.4-.7-6.6-8.1-10.3-13.9-9.8zm-2.3-788.3c18.6 1.6 22.7-33.9 1.4-30.1-10-2-15.1 4.2-14.4 12.7.7 7.2 1.6 17.3 13 17.4zm-3-142.6C945 63.8 946.7 36 930 36.7c-6.7 1.2-12.2 4.2-13 11.8-.5 5.2-1 11.7 6.4 12zm-17.9 199c13.8 1.3 15.6-27.6 1.4-26.6-11 .3-12.5 7.3-11.8 16.2-1.7 8.4 3.9 10.5 10.4 10.4zm-15.4 1179.7c-12.7-3.4-10.6 7.4-10.7 13.5-.2 6.5 2.2 13.1 11.6 13.1 18.8.5 18.6-31.1-.9-26.6zM874 332.5c.2 7.7 5 10.7 12 10.8 6.5.1 13.9-1 12.5-9.1-1.2-7.4-1-18.3-13-18.3-10.8-.1-10.3 9.3-11.5 16.6zm19 1030.8c.6-7.5-2.5-11.7-10.5-10-15.8-4.9-14 23.5-3.3 23.3 6.8.1 13.2-5 13.8-13.3zm-28.9-279.9c-2.6 17.2 27.5 24.5 25.5 4.1.9-14.1-24.2-18-25.5-4.1zM880 1577c-7.5-.3-12.1 3.8-11.7 10.9.3 5.3.8 12.7 9 11.2 15 2.5 16-21.8 2.7-22.1zm-5.5-1116c-12.1 0-12.4 8.5-11.9 17.2.5 7.4 5.6 9.2 13.5 9 15.4 1.1 18.2-27.5-1.6-26.2zm-7 344.5c-10.8-1-11.2 25.2 7.4 23.6 10.1-.2 6.6-8.5 8.3-13.2.2-12.5-9.9-10.1-15.7-10.4zm-.2-694.6c17.9 3.5 16.9-26.7.9-25.4-5.5.3-13.1 2.8-11.2 11.6-.8 8 2.6 13.3 10.3 13.8zm-.5-70.2c15.2.8 16.5-24.9-.7-22.8-13.4 0-11.4 22.8.7 22.8zm2.4 1473.3c.5-14.9-24.2-10.2-22 2.5.7 5.6 3.6 10.6 8.2 9.9 10.3-.8 14.1-4.3 13.8-12.4zM847 168.8c7.8.1 15.3-2.8 14.9-12.8-.3-6.2-.7-13.1-9.9-13.7-10.3-.7-14.4 3.8-12.8 13.6-1.5 6.9.2 12.8 7.8 12.9zm-6.2 984.3c-8.2.3-18.2-.2-17.4 12.3.7 11.4 9.5 15.2 19.1 15.4 7.6.2 6.9-7.6 9.4-13.3-3.7-4.9-.6-14.8-11.1-14.4zm-13.6-862.6c8.5 1.9 13.8-3.2 14-13s-6.7-10.6-12.8-12.9c-22.3 0-18.4 21.8-1.2 25.9zm-25.7 1033c12.6-17.8 23.6-36.8 36.9-54-4.2-9.6-25.9 25.1-29.2 29.1-60.9 87.7-112.3 192.8-112.5 301.5.1 3.1 1.7 3 4 3.4 2 1.2 2.1-.3 2.3-1.7.6-3.3 2-6.6 1.9-9.9 5.7-96.5 44.8-188 96.6-268.4zm6.8-447.5c.3 16.1 23.5 16.5 23.9.6.9-16.6-24.8-19.5-23.9-.6zm5.7 685.3c-14.7-2-15.9 27.1 1.1 23.6 10.8 3 10.8-6.3 11.8-12.7 1.3-9.1-6.9-10.8-12.9-10.9zm-12.6-738.9c.3-6.4-2.6-12.3-9.2-11.7-11.2-.6-11.6 7-11.9 12.5-1.8 17 21.6 14.6 21.1-.8zm-27.1-686.2c-2.3 20.7 26.3 15.4 23.7-1.2 1.4-17.8-25.7-12.9-23.7 1.2zm7.7 230.1c11.9.2 12.7-27.6-.5-26.9-7.2.4-16.1 2.2-14.5 14.2-2.8 12.2 8.5 12.5 15 12.7zm-3.1 576.8c6.5-.1 11.5-3.4 11.8-9.9 2-14.2-23.2-17.3-19.8-1.8-.1 6.2.1 11.8 8 11.7zM778.5 83c12.9.9 11.3-24-1.5-22.3-8.6-.3-12.1 3.7-12.1 11.2 0 8.8 6.6 10.8 13.6 11.1zm-5.7 148.3c9.5.1 9.8-7.4 10.5-12.8 1.4-10-6.6-13.4-14.3-14.3-14.3-1.2-14.2 26.6 3.8 27.1zm-35.7 37c-1.5 8.2 2.3 12.5 9.8 12.7 4.4.1 11.3 3.3 12.2-5.4 1-9.4-1.3-17.3-12.1-18.3-7-.8-11.6 3-9.9 11zM738.5 33c14.4 2.1 11.8-8.2 11.4-16.3-.5-10.4-8.7-8.2-15.1-8-10.7.4-8.7 9.9-9.3 15.7-.9 8.4 6.1 9.4 13 8.6zM727 123.1c11.3 2.2 12.3-7 11.6-14.9-.5-6-7.6-10.3-12.7-10.6-17.5-2.1-19.3 27.8 1.1 25.5zm-6.5 76.1c9.1-1.8 7.5-8.9 7.2-14.7-.3-6.8-5.5-8-11.9-7.4-16.3-4.7-12.4 27.7 4.7 22.1zm-12.3 206.2c5.3.4 10-1.6 9.5-7.5-.6-8.4 0-18.8-13.3-16.9-20.9-1.4-18.2 25.2 3.8 24.4zm-40.7-245.7c7.1-.5 10.5-5.1 9.5-12.5 1.5-10-5.3-12.8-12.8-12.9-17.9 0-13.9 27.9 3.3 25.4zm-.8-98.3c9.8-2 9.4-9.7 9.8-15.6.3-4.8-5.9-7.7-10.6-8-7.1-.5-12.3 2.9-12.7 8.8.3 10.7 1.6 17.2 13.5 14.8zM634.5 239c23.6 2.4 15.1-30.4-1-27.9-6.6-.3-10.7 4.8-9.3 10.6 1.6 6.4 1.2 15.9 10.3 17.3zm-55.2-136.6c-2.4 16 29.7 21.4 25.9 5.6-.2-9.4.2-17-11.4-17.3-9-.2-14.5 3.7-14.5 11.7zm6.5-68.1c7.6-.3 14.2-.5 14.1-9 0-9.3-3.3-16.8-14.2-17.2-7.9-.3-13.2 3.2-13 11.6.3 8.7 2.6 16.5 13.1 14.6zM541.1 177c11.3 2.3 12.5-6.5 12.7-14.1.2-8.5-2.7-16.8-13.8-15.8s-10.8 10.1-11.4 18.2c-.6 8.5 3.3 12.6 12.5 11.7zM538 74.5c5.7-.7 14.3-1.8 14-10.8-.2-5.9 0-13.8-9.8-12.8-13.6-2.8-16 23.9-4.2 23.6zm-79.8 22.9c-.7 19.2 28.6 26.5 26.8 3 4.4-16.4-29.2-18.5-26.8-3zM443.7 47c8-.5 16.3-1.2 15.3-13 .7-6.3-1.3-10.9-8.7-11.1-10.2-.3-12.5 7-13.3 14.8-.4 4.4.1 9.7 6.7 9.3zm-.7 134.7c14.1-3.5 8.5-31.3-6.7-29.4-18.6-1.4-12.4 32.2 6.7 29.4zm-68.5-80.5c-.1 6.2 1.7 13.7 11.4 11.8 8.6 1.5 13.7-3.6 13.5-10.7-.3-7.5 3.2-19-11.4-19.4-14-.4-13.4 9.8-13.5 18.3zm5.7-62.2c9.9.5 12.3-5.7 11.8-12.2s-6.7-7.6-12.4-7.8c-8.2-.2-10 5.9-10.5 12-.9 9.5 7.8 5.8 11.1 8zm-31.1 1513.7c.9-75.6-9.1-151.4-33.4-223.2-7.5-26-17-51.2-26.5-76.3-12.5-29-21.5-62.7-42.5-86.6 63.3 155.5 102.6 260.8 96.2 433.4-1.1 5.9 7.6 6.5 6.1 0 3-15.9.9-31.4.1-47.3zM321.7 90.4c13.1 1.6 16.6-24.6-4.5-25.6-7.8.2-12.5 2.5-12.3 10.4.3 10.8 9.9 14.1 16.8 15.2zM275 33c17.9 2.3 17.2-25 .6-21.9-9.4-2-9.1 5.5-9.4 10.9s1.8 10.9 8.8 11zm-4.5 110.3c17.7-2.1 15-30.6-2.2-31.9-7.3-.5-14.7 3.8-13.1 12.9 1.4 8 1.3 18.5 15.3 19zM256 248.6c9 .5 17.1-3.7 15.8-15-.6-5.8-1.5-12.8-11.1-12.8-7.2.9-13.6 4.6-12.3 13.4.8 5.1.2 14 7.6 14.4zm-34.4 1193.2c-41.9-69-107.6-134.1-185.6-155.2-3.9 2.1 10.8 10.8 12.5 12.8 56.7 52 87.3 127.1 107.1 200 7.9 32.4 10.9 65.3 15.5 98.2.1 2.5 3.3 4.8 5.2 2.5-.1-104.6-38.7-207.4-102.7-290.3 86.8 48.4 154.2 131.1 178.1 227.9 4 18.4 7.6 36.7 7.6 55.6 0 3.6 2.5 7.2 3.7 10.6 15.9-43.5-19.4-122.8-41.4-162.1zM226 76.7c11.2-1.4 11-12.3 10.6-20.4-.4-7.3-5.7-11.8-14.1-9-13.9-3.4-14.6 7.5-15.1 15.9-.9 12.5 9.7 14.6 18.6 13.5zm-6.2 1478.1c-10.6-50.8-23.9-102.1-56.1-144-1.4-2.1-3.3-4-4.8-2.9-1.9 1.4.4 3.5 1.4 5.3 16.6 26.9 27.8 56.4 37.5 86.5 4.5 15.3 9.5 30.8 12.8 46.3 3.4 16.3 3.3 33.3 4.4 50 .2 3.2 2.4 4.2 4.7 4.5 2.8.3 1.5-2.7 1.4-4.2-.4-13.7 1.3-27.6-1.3-41.5zM189.9 164.7c15.9 2.4 18.3-27.1 2.1-27.6-6.3-.1-12.2 1.7-13.5 10.4 3.4 5.7 1.6 16.3 11.4 17.2zm-19.3 375.7c9.8-.6 11.6-10.6 12.3-18.8.6-7.3-6-10.6-11.4-9.9-8.7 1.1-16.2 5.6-17 20.8-1.2 8.2 9.8 8.3 16.1 7.9zm-6.3-467.3c11.3.7 10.8-8.1 10.1-14.5-.6-6.6-4.4-12.9-13.4-11.5-16.4-3.3-11.1 27.4 3.3 26zm-24.5 186.2c2 6 1.2 16.6 10.4 17.4 9.8.9 11.9-7.5 12.9-14 2.8-18.6-27.2-19.9-23.3-3.4zm1.2 81.6c-14.4.3-12.6 27.5 1.5 27.2 18.6 1.5 17.6-30.4-1.5-27.2zm3.1 402.1c14.6.4 14.4-27.5-3.1-26.2-16.6-1-15.5 28.6 3.1 26.2zm-11.2-551.7c12.7-1.7 8-22.8-3.9-24.1-9.1-1.2-9.4 7.3-9.7 12.8-.3 6.2 2.1 12.4 13.6 11.3zm-19 304.8c11.4.6 17.6-4.2 17-15.8-.5-8.8-3.1-16.6-15.1-17.9-14.3 2-9.3 14.5-10.4 23-.5 4.4 1.3 10.4 8.5 10.7zm1.3 1072.7c-6.9.4-12.8 3.8-11.8 10.3 1.1 6.9-2 18.9 13.6 18 13 3 12.8-9.1 13.4-17.1.8-9.1-6.6-11.7-15.2-11.2zm-13.8-778.6c-1.7 14.8 7.4 17.8 14 18.2 6.3.3 8.5-8 8.2-14.1 1.2-14.5-19.8-14.6-22.2-4.1zM97.1 96.4c-4.8 21 25.7 25.6 24 4.7 3.3-16-22.6-19.6-24-4.7zm3.7 581.4c-9.9.6-9.6 7.7-10.2 17.5-.8 4.8 2 11 10 11.5 21.1 3 22-31 .2-29zm5.8-291.2c-2.2-18.1-27.9-18.5-22.6 5.6.7 6.8 4.5 9.3 11.4 8.8 10.5.9 12-5.5 11.2-14.4zM91.1 38.8c17.2-.8 15.6-25.9-2.3-26.3-5 2.1-11 4.2-10.7 11.8.3 8.1 4.2 14.5 13 14.5zm4.8 1050.8c-.7-5.3-2.1-11.5-10.5-10.6-10-1.1-11.6 7.3-12 14-.9 19.2 25.6 14.6 22.5-3.4zm-30.8 412.3c-16-.8-16.2 26.2-.8 27.3 18.8 1.3 19.3-28.5.8-27.3zM48.2 304.7c-1.6 23.3 31.9 21.9 29.5 8.3-1-12.9-3.3-21.4-12.8-21.6-7.6-.1-16.6 3-16.7 13.3zm14 342.3c8.8-1.6 10.5-8.2 10.8-13 0-13.7-2.5-16.7-10.6-17.2-10.8-.7-15.5 5.2-15.3 14.8.2 9.4 2.6 17.7 15.1 15.4zM46.6 212.7c.4 7.5-.3 17 11.1 18.4 10.2 1.3 11-5.7 11.7-15.2 4.4-11.6-22.9-14.8-22.8-3.2zm-6.3 667.8c.8 7.4-.8 17.3 8.1 18.6 11.1.2 19.2-6.1 18.4-12.8.6-15.3-26.6-24.3-26.5-5.8zm9.1-466.3c-6-.1-10.5 6.3-9.9 10.7 1.1 8 .2 18.9 12.4 20.4 22.9 1.3 17.5-33.3-2.5-31.1zm-6 362.5c.5 6.8 3 14.4 12.5 14.3 6.2 0 11.1-4.1 10.6-9.3-.6-7.6-1-17.5-12.5-16.7-9.5-.8-11 6.5-10.6 11.7zM26.8 140.5c1 8.6 8 13.3 15 14 8.2.9 7.5-8 7.9-13.4.6-6.4-2.4-11.9-10.1-11-5.7.8-14.7-1.3-12.8 10.4zm5.5 902c5.5-.9 16.2 1.3 15-8.2-.2-13.6-8-16.3-16.6-15.8-12 .2-8.7 25 1.6 24zm-3.4 399.7c-11.8-.9-9.4 9.1-9.3 15 .1 6.6 4.7 11.4 11.7 10 9.8.5 13.6-4.2 13.9-12.5.4-11.9-8.6-12-16.3-12.5zm1.2-853c8.4-.4 9-6.3 8.9-12.3-.2-9-1.9-17.2-14.8-15.8-10.8-2.7-12 6.3-11.8 13.2.2 10.3 7 15.3 17.7 14.9zM25 1563.3c-16.7-1.8-17.9 33.8 4.5 28.7 16.2-1.1 8.1-29.3-4.5-28.7zm-6.9-846.9c14.7.4 25.6-28.7 7.4-32.1-11.7-.8-17.6 5.9-16.5 17.7-.9 7.6 2.4 15.2 9.1 14.4zm-11 122.3c.9 7.7.2 17.5 11.7 18.2 9.1.5 12.6-5.3 12.4-14.9 3.2-16.2-26.5-22-24.1-3.3zm15.1-495.5C3.1 341.8.5 376 20.4 372.3c11.9.3 16.5-29.2 1.8-29.1zm-3-256c13.7 1 10.4-10.2 11.5-16.9C34.4 50.5 5 58.6 5.2 74c-.7 9 6.1 12.3 14 13.2zM26.1 1099c1.6-18.3-25.1-21.5-23.3-6.6-1.9 15.4 22.4 21.1 23.3 6.6z"/></g><g><path d="M52 1548v15l-37 37h946l-37-37v-15H52M52 52V37.7L14.3 0H0v1600h15l37-37V52m872 0V37.7L961.7 0H14.3L52 37.7V52h872m52-52h-14.3L924 37.7V1563l37 37h15V0z"/><path d="M961 1600h15V0h-14.3L924 37.7V1563l37 37H0V0H961.7M52 52V37.7L14.3 0m.7 1600l37-37V52h872m0 1496H52" fill="none" stroke="#333" stroke-width="2" stroke-linecap="square" stroke-miterlimit="3"/></g></svg>