<svg xmlns="http://www.w3.org/2000/svg" xmlns:xlink="http://www.w3.org/1999/xlink" viewBox="0 0 976 1600"><path d="M960 22v1556c0 3.3-2.7 6-6 6H22c-3.3 0-6-2.7-6-6V22c0-3.3 2.7-6 6-6h932c3.3 0 6 2.7 6 6z" fill="#fff"/><defs><path id="a" d="M960 22v1556c0 3.3-2.7 6-6 6H22c-3.3 0-6-2.7-6-6V22c0-3.3 2.7-6 6-6h932c3.3 0 6 2.7 6 6z"/></defs><clipPath id="b"><use xlink:href="#a" overflow="visible"/></clipPath><g clip-path="url(#b)"><path d="M459.5 1054.8c-43-41.1-105.3-64-118.9-134-6.8-6.4 1.1-28.9-13.7-20.8-33.5 37.3-98.3 44.5-147.6 56.9-10-1.4-32 18.2-30.7.6-19.9-57.4 35.9-196.8 112.3-190.4 20-.9 56.9 36.8 25 44.5-30.2 12.5-77.8 37.8-83 64.6 40.4-2.9 139.9-116.7 146.4-15.1 1.7 17 23.2-5.9 27.9-5.3 39.2-28.3 63.1 65.1 74 96.9 9.2 20.3 2 51.1 16.2 64.8 19.9-22.9.7-70.3-5.9-100.8-14.9-57.7-76.9-96 26.2-87.5 23.1-.8 44.4 38.7 54.6 6.7 16.7-40.4 73.8-2.9 103.9 6.3 17 4.5 29.8 25.1 44.1 20.3-9.4-33.7-66.8-52.2-95.9-58.1-11.2 2.9-28.2-1.5-21.3-15.3 61.7-145.9 172.6 3.4 161.9 99.8 1.2 10.7-5.1 20.6-6.3 29.8 1.7 5.5 10.5 18.2 1.6 20.4-57.5-8.3-119.3 12.6-173.4-15.5-13.7 51.6-47.8 108.5-97.4 131.2zm-54.9-243.9c-28.5-37.7-31.8-96.2 1.2-131.4 14.4-13.6 41.4-5.9 37.2 15.7-1 36.2-18 88-38.4 115.7zm-88.5-60c-22.6-32.1-21.4-98.9 6.4-131.7 79.9-59.4 18.6 113.1-6.4 131.7zm218.3-60.2c-73.5-27.2-51.8-160.3-10-82.3 5.2 22 21.5 63.7 10 82.3z" fill="#5d4e8c"/><path d="M637 1604c-31.3-.1-83.7 0-115.3 0-4.7 0-4-5.8-4-9 0-3.8 5.7-4.3 5.5-8.5 12.3-213.5-1.1-430.7 34.1-642.2-.3-32.7 19.2-10 37.6-6.8 15.1-1.5 12.7 8.9 28.5 3.5 27.4 1.5 50.5-5.4 77.2-3.9 9.7 5.9 16.7 1.8 26.8 5 10.4 2.1 8-11.8 7.7-18-5.7-12.7 7.1-28 1.7-39.4-6.7-27-8.2-55.1 16.5-74.3 55.4-62.2 122-124.9 207-141.1 3.5.4 4.8 5.4 1.7 7.3-34.2 23.4-55.1 53.5-83 81.1-65.9 79.7-122 167.5-159.6 264.1-22.2 68.7-54.8 153.1-43.3 223.7 30.8-25.5 52.1-80.3 84.1-107.4 46.5-53.4 108.2-99.7 177.8-119.3 4.7-1.9 17.9-5.6 13.2 3.9-76.4 65.1-142.7 149.3-187 236.2-17.8 37.8-50.3 100.3-41.1 137.3 46.8-54.3 98.7-118.2 159.3-159.2 24.9-22.5 112.4-67.4 38.5-5-91.1 92.5-148.8 230.7-155.8 359.6 27.3 27.2-125.8 6-128.1 12.4zm-229.5 0c-55-.9-165.5.5-218.6 0-9.7-15-7.7-40.1-19-60.1-20.2-53.5-50.3-102.8-88.5-145.4-15.7-29.4-125.5-103.6-11.9-51.3 70.1 35.6 134.1 99.9 164.7 174.3 10.8 16.4 10 43.6 24.6 54.7 10.7-1.4 4.7-19.3 6.3-25 .6-57.4-.2-116.5-9.9-173.8-12-94.3-32.5-182.2-71-270.5-22.2-32-62.9 205.9-68.1 216.6-22.8-90-48.1-220.7-.2-308.5 14.3-22.2 34-14.2 52.5-10.7 56.7-32.4 81 59.7 104.4 95.5 22.2 13.3 4.2-32.4 3-42.3-31.4-161.7-53.6-82.8 41.3-145.8 6.7-6.5 17.3-14.8 18.1 1.5 1.2 31.5 18.2 47.9 30.4 74.1 10.3 32.6 22.8 63.6 33.5 96 44.8 135.5 65.4 273.6 69 414.2-.5 29.8 5.5 59.9 1.3 89.7-1 4.8 5.8 5.5 6 9.6.2 2.7 0 7.6-4 7.3l-63.9-.1zM191.9 794.4c-42.7-70.1-75.2-155.2-129.1-220.9-2.3-2.8-4.9-9.5 1.2-9.9 72.3 49.6 139.4 116.2 186.6 198.5-11.7 6.8-30.6 8.2-40.4 18.1-6.6 4.6-10.1 12.2-18.3 14.2zm504-35.4c-17.7-13.7-35.7-34.6-60.5-31.7-8.3.2-21.1 11.2-27 5.8 22-111 71-226.4 145.2-314.6 15.7-25.5 191.9-183.2 209.9-152.2C823 396.3 738.7 574.4 695.9 759z" fill="#333"/><path d="M457.2 1153.4c-24.4-4.5-24.5-44.7-15.4-62.2-5.3-11.5-13.2-22.2-10.3-35 2.4-41.8 28.4.9 34.6 17.4 3.7 15.3-4.2 13 4.9 28.1 10.7 18.4 13 47.3-13.8 51.7zm10.7-122.7c-17.6-58.1-18.4-136-69-181.3-22-4.3-.4-25.2 9.6-37 7.4-16.3 12.6-36 22.9-50 16.2 9.5 17 38.5 19.6 61.3-1.1 12.2-23.5 8-25 21.6 33 46 61.9 129.6 41.9 185.4zm-258.3-154c-24.7-11 66.3-66.6 85.6-65.7 15.4-3.5-11.3-35.9 15.6-49 15 3.5 4.5 27.4 9.4 38.1 3.3 4-.9 11-2.1 15.7-31.4 16.4-71.8 36.7-108.5 60.9zm478.8-9.6c-34.6-23.1-73.7-43.1-116.2-47.3-7 .9-14.9-12.3-19.1-.5-7.1 7.3-12.1 28.4-20.5 29.6-10.5-3.9-17.5-15-31.2-16.3-3.4-.8-8-3-9-13.6-2.5-30.8 15.1-53.7 30.5-74.3 7.7-.6 5.5-10.1 6.7-15.5 13.7-87.9 41 48.3 40 72.3 15.6 5.2 33.2 3.3 49.3 9.6 15.3 4.1 94.5 45.6 69.5 56z" fill="#ffeb5c"/><path d="M978.6 1190c-59.2-13.9-235.8 153.5-259 212 28.5-135.5 105.3-255.3 205.5-349 14.3-13.4 28.3-27.6 46.5-36.2 2.3-1 2.8-5.6 0-6.4-131 8.7-233.6 130.6-296.6 236.3 14-207.4 116.9-399.2 262.3-544.8 10.8-11.3 22.1-22.8 37-29.3 2.5-1.2 3.2-5.8.6-7.3-22.4-4.6-44.2 5-64.4 13.7-72.2 29.5-128.7 87.2-177.4 145.9-5.2-9.2-6.4-20.3-10.8-29.9-19.4-35.4-20.5-34.1-10.3-75.3 10.1-34.7 18.6-69.8 29.6-104.2 34.9-90.7 80.9-176.8 141.5-253.2 29-34.6 55.8-72.2 92-99.8 3.7-1.8 5.2-7.6 1-10.1-56.7 10.4-102 53.1-147.2 86.6-67.1 51.5-120.3 119-157.2 195-26.2 51.8-45.9 107.2-62.1 162.8-6.2 30.5-21.8 55.6-37.9 79.5-1.7-18.4-8.8-37.9-12.3-56.2-2.3-12.2-14.2-18.5-15.9-31.8-3.9-31.2-4.8-63.3-20.4-92-9.4-23.8-38.8-19-42.3 6-2.6 31.6 12.6 65 38.1 83.9 11.4 7.3 19.2 9.5 10.1 25.4-3.5 11.2-1.9 24.1-11 33.6-20.2 21-31.5 45.5-29 75.4.1 1 1.3 3.2-1.5 3.1-53.8-1.2-18.8 5.4-41.4-50.4-2.3-6.8-9.8-13.1-9.5-17.4 4-24.2 18.2-48.6 9.5-73.9-6.4-22.2-38-17.5-48.5-.8-8 10.6-12.1 22.5-15.2 35.7-5.9 25.2-1.5 48.4 5.5 72.4 3.3 11 21.1 20.3 7 33.9-8.3 8-3.5 23.3-17.8 27.6-8.1 2.5-15.1 8.2-22.7 12.5 5-21.8-11.9-42.2-30.7-52.1 4.7-8.7-.9-17.3-.4-25.9.8-15.7-4-31.6 7.1-46.4 20.5-33.5 33.7-72.4 38.8-111.5 1.1-11.2-11-27.6-21.3-26.2-21.5 3-45.3 27.3-46.6 48.5-1.2 18.4-6.2 36.2-2.8 55.3 2.5 13.8 4.3 27.7 9.3 40.6 3 7.9 3.3 12.5-3.6 17.5-2.7 2.1-4.6 5-5.6 8.3-5 14.9-11.6-5-27-8.8-5.4-2.2-12.2 1.5-16.3-4.7C210.5 689.8 156.6 626.8 91 578c-10.6-6.3-59.6-50.6-66.1-43.8-2.3 3.2 1.6 5 3.5 7 28.6 26.7 50.8 58.3 70.5 92 28.3 48.7 58 96.6 79.8 148.7 2.6 5.9 10 12.4 5.8 18.7-22.4 31.9-36.1 69.7-42.9 107.9-3 17.6-3 35.8-3.8 53.8-.3 5.8-1 15.5 8.6 12.2 9.4-3.2 18.5-7.4 27.9-11 20.3-7.8 42.7-6.1 62.9-14.1 4.6-1.8 8.7.4 10 5.7 13.1 53.2 25 104 36.6 158-10.5-19.9-16.8-34.7-26.8-53.2-8.8-14.7-18.9-28.7-27.4-43.6-11.8-20.7-32.3-30-50.8-21.1-21.4 14-34-11.7-57.1 4.9-26.2 21.5-33 58.1-34.7 90.4-.5 18.8-3.2 37.5-3.3 56.2 1.6 32.9 6 66 10.1 98.7 3.1 19.7 6.9 39.4 11.8 58.8 3 12.2-.8 28 16.2 35.6-1.6-5 .7-8.4 1.3-11.8 5.6-31.9 6-65 15.6-96.1 13.6-42.2 22.6-85.6 40-126.6 26.2 52.8 41 111.2 53.6 168.8 23.9 100.8 31.5 199.9 29 304.1-22.5-77.4-63.1-146.6-126.6-196.5-38.5-28.9-81.2-54-128.6-64.3-5-1.2-10.2.6-13.4 4.7-1.7 2.3 1.7 6 4.8 6.6 34 12.8 71.2 62.3 95.2 90.3 42.5 52.8 72.2 115.2 90.7 180.3 1 2.4 5 3.8 5.9.8-2.8-35-19.4-67.1-33.2-98.9-32-64.5-78.6-120.2-132.4-167.8 73 21 132.6 73.7 177.1 133.5 26.1 39 41.3 84.1 56.4 128.2.5 1.4.2 3.3.1 5.1-.1 10.7 12.2.4 11.2-6.3 5.4-120.9-5.9-242.7-35.8-360.1-13.1-46.1-27.9-92.2-48-135.8-1.3-2.8-1.2-4.5.1-7.4 5.2-11.7 9.8-23.6 15.2-37 63.9 113 97.7 238.9 106.9 367.8 4.1 58.3 1.8 118.1 6 175.8 8.5-4.6 3-49.7 4.5-61.2 3.3-101.8-8.1-203.6-33.7-302.2-9.5-46-29.5-88.7-48.6-131.3-8.3-17.4-16.6-35.2-29.1-50.3-2-2.4-2.7-3.6-1.3-6.7 4-9 7.3-18.3 11.1-27.4.5-1.2 1.5-4.3 3.7-1.8 14.3 15.4 22.7 34.9 33 53 40.2 71.7 63.6 151.8 81.2 231.6 11.3 65.1 17.8 131 21.2 197 3 33.2.9 70.2 6.4 102 8.1.8 3.3-51.9 4.2-59.9-2.4-62-6.1-124.4-14.3-186-9.1-71-30.8-139.3-51.2-207.6-9.4-35.7-14.9-72.2-24.4-108-3.6-15.7-6.8-31.5-10.7-47.1-3.7-14.9-8.1-29.6-12.1-44.4-.1-.3.6-1.1.9-1.2 6.9-.4 12.8-4.1 19.2-5.8 7.2-1.9 18.4-10.6 19.1 7 18.1 43.5 30.7 89.2 41.5 135.2 27 93.1 41.1 189.7 53.4 285.4 7.2 60.4 8.4 121.4 12.5 182.1 1 16.1 2.5 32.2 4.1 48.2.2 1.9 1.9 3.6 2.8 5.3 6-9.1 1.2-20.8 1.5-31.1-1.3-22-3.1-43.9-3.8-65.9-4.3-124.4-20-248.1-47.1-369.6-17.8-66.1-33.3-132.8-59.3-196.3-2.2-6.3-1.8-11.8 6.4-15.3 7.5-3.1 13.9-8.8 20.7-13.6 1.5-1.1 1.8-4.4 4.3-3.5s2 3.7 2.2 6c1.6 14.5 4.8 28.5 11.4 41.7 5.7 11.5 15.1 20.2 19.2 33.1 10.2 32.3 22.9 63.9 33.5 96 44.1 132.7 65.3 273.2 68.8 412.7-.8 19.4 2.4 39 2.9 58.5.3 11.5-1.1 23.1-1.9 34.6-.3 4.5 3.2 6.2 6.2 6.4 2.3 0 4-2.7 4-5.6 0-35.3 1.3-70.7-.6-105.8-2.4-53.6-1-107.1-2.8-160.7-3.9-48.8-7.5-97.9-13.9-146.5-1-8.5-7.6-20.5 9.5-21.3 3.7-2.9 6.2-4.3 7.4 1.3 23.5 120.5 19 243.7 21.7 365.5-3.1 23.9-.5 47.8-1.4 71.7 0 1.2 1.8 2.4 2.7 3.6 1-.8 2.8-1.5 2.9-2.4 3.2-31.9 4.1-63.9 2.8-95.9 1.1-105.3-3.1-210.4-15.2-315-1.2-10.8-2.6-21.8-5.6-32.2-2.6-9.3 1.6-17.4 1.8-26.2.5-17.9-15.5-29.8-13.5-49.9 3.1-33.3 35.1-46.4 52.5-71.4 8.1-10 13.2-21.5 22-34.3-13.2 70.3-11.4 137.9-15.1 208.6-.6 37.5-6.2 74.4-4.6 112.1 1.8 18.4-2.3 37.2-2.8 55.9-3.1 80.4-1.4 160.5-4 240.9-3.2 8.4 7.8 7.6 7.9-.3 6-124.4 5.6-249.3 11.6-373.8 2.1-95.5 6.3-191.7 25.2-285.7 9.8 5.1 20.1 9.2 30.7 12.2 3.9 1.1 13.9-3.4 12.6 8.1-8.8 52-7.4 120.9-14.5 179.9-14 52-23 105.1-28.4 158.7-8.8 101.6-21.5 204.7-4.8 306.2 2 6.3 7.6 4.6 6.9-2.1-1.9-17.1-4.2-34.2-5.1-51.4-.8-16.7-.1-33.4-.1-50.1 2.8-160.4 19.1-323.3 79.3-472.9 7.6-20.6 17.3-40.5 27.2-60.1 2.9-5.7 2.3-15 10.4-16.6 7.8-.7 19.2-2.2 26.2 1.6-42.9 83.3-83.3 222.3-93.3 340-1.8 31-4.2 62-5.9 93-1.2 20.8 4.2 41.3-3.3 62.7-8.5 24.3-12.5 50.5-16.4 76.1-.3 10-14.2 91.4-4.4 86.8 6.1.1 4-13.8 5.7-18.3 3-53.9 16.1-106.4 28.3-158.7 6.7-35.3 21.5-68.1 34-101.5 13.3-36.5 32-70.1 53.7-102.1 56.8-90.5 139.8-173.2 245.6-200.8-77.3 66.1-140.9 146.6-187.5 237-27.2 47.5-41.3 101.5-49.1 155-23 46.3-68.2 137.4-55 187.7 5.9-1.8 3.9-6.8 4.6-10.8 5.6-53.1 24.8-103.3 47.9-151.1 31.4-61 74.9-114.9 127.9-158.4 34.1-28 67.6-60.6 109.7-75.8-86.5 67.5-136.2 173.1-167.6 276.9-5.7 26.6-29.3 99.5-13.3 120.3 6.3-4.7 3.1-25.3 5.3-33.8 5.8-57.7 26.9-112.6 47.4-166.4 33-78.7 81.4-156.1 153.6-204.1 2.6-1.5 8.5-1.9 6.5-6.6zm-773.8-165.9c-16.3 41.6-37.8 81.2-50.4 124-16.9 56.1-34.5 112.8-38.8 171.4-6.5-56.9-23.4-113.6-22-171.2 2.3-26.1.3-52.3 5-78.3 5.1-27.3 20.5-77 56.1-65.1 9.2 3.8.2 8.1-.7 9.5-23.8 40-48.3 126-35.8 170.5 7.8-6.9 3.8-17 4.8-26.1 2.8-48.6 14.9-97.6 38-140.7 8.6-15.8 35.5-26.2 49.2-8.7 1.8 2.2-3.3 9.7-5.4 14.7zm406.4-298.3c26.8-89.9 56-180.8 110.2-258.5 50.2-75.4 155.4-171.1 239.4-203.9C825 393.5 730 566.7 697 752.1c-.4 2-.4 4.4-2.8 1.5-9.7-12.1-22.7-19.4-35.8-27.1-5.2-3.1-.1-10.7 1.2-15.3 19.6-70.3 46.9-137.5 79.8-202.5 10.9-18.5 20.8-39.1 34.4-55.4.6-2.3 3.4-6 .9-7.7-31.4 34.5-52 77.8-70.6 120.5-15.3 31.1-26.9 64-37.2 97.1-6 18.2-12.8 36.1-17.3 54.6-3.3 13.4-13.3 1.6-19.1 6.7-2.6 2.3-9.3 1-13.5 4.3-3.3 2.6-7.1 4.2-5.8-3zm-34.4 64.3c40.1-107.4 127.9-45.9 147.9 38.8 1.5 5.8-.9 12.7 1.1 18.1 7 20.7 6 38.5 2.9 60.4-24.2-59-78.7-104.1-142.1-106.7-5.5-1.1-14 1.7-9.8-10.6zm-9.3 22c1-4.5 7.2-5.4 10.7-4.8 39.5 3.1 76.7 19.8 105.3 47.2 3.5 2 6.1 4 7.3 8.1-6.1 2-8.2-4.1-11.4-6.5-25.2-18.5-54.6-27-83.4-37-6.7-2.3-14.2-2-21.3-3.3-2.8-.3-8.3 1.2-7.2-3.7zm-47.8-134.2c-18.5-14.3-52.3-80.4-15.4-89.4 23.1 10.3 29.1 74.9 30.1 98.2-5-2.9-10.8-4.9-14.7-8.8zm13.6 55c1.2-10.2 2-20.7 6.9-30.6 9.8 11.3 14 25.1 16.7 39.3 2.3 20 15.2 51.2 1.3 68.3-2.4 2.3-5.5-.7-6.8-2.5-15.4-22.5-21.3-47.6-18.1-74.5zm-14.8 25.9c2.2-2.9 3.2-6.7 4.7-10.1 1 24.5 9.4 47.4 24.7 65.3 4.7 6.8-3.6 9.3-5.7 13.5-13 34.8-8 6.6-39.8 1.1-4.2-.9-5.4-4.7-5.8-10-2.2-23.7 8.4-42.1 21.9-59.8zm-71.4 64.8c0 3.8-2.5 2.9-4.4 3.7-6.7 2.9-13.6 5.6-20.1 12.9 1.8-7.6-.4-13.1-3.9-16-10.4-8.3-5.5-16.7-.7-24.3 6.6-10.6 8.3-23 14.3-33.8 10.7 16.4 13.7 38 14.8 57.5zm16 168.3c-6.7-49.8-23.4-100.2-54.8-139.9 0 0 .7-.8 1-.8 7 .8 14.6-3.2 20.2 5.4 13.1 19.9 21.9 41.7 29 64.1 5.5 17.4 7.9 35.7 11.1 53.8s-1.8 34.9-1.6 52.2c-1.7-11.6-3.4-23.2-4.9-34.8zm-1.8 94.9c-6 5.8-11.9 2.9-17-1.6-7.3-6.4-7.8-15.7-9.6-23.2 1.4-4.7.9-26.4 7.9-18.3 6.9 9.7 27 31.2 18.7 43.1zm-73.7-352c.9-23 12.5-65.4 43.8-56.7 9.8 3.8 7.4 13.2 7.6 21.1.4 20.6-6.8 39.5-13.7 58.3-6.8 16.3-11.8 34-20.5 49.3-13-21.9-19.8-46.7-17.2-72zm18.5 86.4l9.4 13.6c-.6 4.7 2.3 10 .6 9.1-7.8-4-19.1 6.1-21.9-1.4-2.3-6.1 5.6-15.2 11.9-21.3zM305.2 684.9c2-22.4 3.1-45.5 20.1-62.8 7.6-7.7 16.7-15.8 28.9-8.8 16.6 14.5-13.9 85-21.8 104-2.2 2.3-16.4 37.8-17.5 27.5-6.9-19-11-39.6-9.7-59.9zm6.5 80.9c6.3 3.3 1 29.5 5 35.9.9 1.8 2.1 7.3-1.5 7.3s-11.5 3.6-10.4-6.5c.4-3.8-1.6-8.1-3.3-11.8-2.5-5.4 4.5-23.6 10.2-24.9zm2.4 50.2c-35.7 12.1-65.3 29.9-93.4 50.4-4.2 2.3-8.4 6.7-13.4 6 18.7-24.5 47.1-42.4 75.4-54.7 8.9-3.3 19-3.8 31.4-1.7zm-150-81.2c-28.7-58.7-61.6-114.4-100.2-167.1 75.1 52.8 134.1 117.8 183 192.8-7.9 1-15.6 3.7-22.4 7.9-15.2 9-14.8-7.6-19.1-13.7-11-15.8-17.1-34.9-31.3-49.8 1.7 16.7 24.3 50.5 34.2 69.7 1.1 1.8-.1 2.2-1.1 3-4.2 3.7-8.3 7.5-12.4 11.3-5 4.6-4.8-2-5.5-3.3-8.7-16.8-17.4-33.6-25.2-50.8zm-5.8 145.5c10.7-36.6 25-73.2 57.9-95.6 25-19.4 68.1-20.3 78.2 14.5 1.5 7.1-8.3 7.7-12.7 9.3-62.5 24.8-107.7 78-134.5 138.7-1.7-23.7 4.4-45.2 11.1-66.9zm168.8 13.8c-45 49.5-117.1 45.1-174.9 66.9 9.4-43.9 48-73.4 84.3-95.8 24.6-16.8 50.3-31.3 78-42 15.8-6.9 31.5 16.5 31.1 32.1-.1 15.8-8.3 27.7-18.5 38.8zm25.6 46.7c-2.6-11-8.6-21.2-12.1-29.5 1.5-28.1 17.2-42.5 38.2-52 24.8-11.3 19.2-8.2 34.2 13.8 33.9 51.7 46.1 117.3 46.6 177.7-32.2-40.4-95.2-53.2-106.9-110zm108.1 339.7c.4 28.8 4.5 57.5 3.3 86.2-12.9-128-44.1-251.3-92.1-373.6 19.6 17.8 40.9 28.6 59.3 43.5 1.7 1.4-.9 9.2-2.5 13.6-4 10.6-3.1 22.4 2.4 32.2 3.7 6.8 1.3 13.2.6 19.1-2 16.9-.7 33 7.4 47.8 15.1 27.6 12 58.3 16.5 87.8 2.1 14.4 4 28.9 5.1 43.4zm14.1-150.9c1.2 10-6.4 13.7-13 18.2-5.7 3.9-10.8-.2-13.3-3.2-9.8-10-7.4-25.3-7.6-38.2 0-5.1-1.3-11 7.5-7.4 5.1 2.1 9.9-.2 15-1.3 4.1-.8 2.9 5.2 4.3 8 3.7 7.5 7.8 15 7.1 23.9zm68.3-177.2c-12.5 39.6-41.3 65.2-71 93.3 16.6-68.5-1.6-139.9-39.1-198-7-10.4 5.3-10.7 8.8-12.1 76-22.5 128.8 43.2 101.3 116.8zM613 998c13-75.6-11.6-44.1 50.7-55.9-50.4 98-70.2 206.7-50.7 55.9zm57.5-65.9c-13.5.7-26.2 5.3-40.4 4-17.7-1.6-77.1-4.1-70.8-31.4-3.8-52.2-31.4-44.1-10.2-72.8 9.2-19.8 25.8-8.2 37.7-6 58.8 13 125.4 46.6 143.3 108.8-19.9-1.1-39.3-4.6-59.6-2.6zm-4.8 327.5c-3.7 14.8-13.1 28.1-18.5 42.6-12.8 30.6-23.2 59.5-34.6 90.8 1.6-27.9 3.1-48.7 3.2-75.3 4-93.3 34.1-219.1 62.9-293.3 8.6-27.1 19.6-53.1 34.3-77.5 3.5-6.7 18.9 1.9 25.5 1.5.7 0 3-4.4 2.3-5.8-3-6.3-.6-12.9-1.8-19.1-6.7-39.2 42.3-85.9 61.2-119.6.5-1.1.4-2.3-.2-3.3-1.8-2.2-3.7-.2-4.6.8-22.2 24.9-37.8 52-56.2 80.2-.2-33.5-12.5-39.9 15.2-66.1 20.3-27.2 45.8-49 71.8-70.7 36.1-31.6 85.8-64.4 133.8-71.5-21.9 14.6-38.8 32.9-55.3 51.8-22.5 21.5-41.2 46.1-60.2 70.6-38.2 47.7-70.5 100.1-97.5 154.9-30.9 61.7-53.6 127-67.8 194.5-7.9 37.7-9.7 76.7-13.5 114.5zm.1 179.1c-10.3 43.4-21.6 86.7-26.2 131-1.7 5 .6 36.8-5.7 35.9-4.2-.2-2.3-5-3.9-7.5 4.2-33.5 5.7-67.1 13.1-99.9 6.6-30.4 15-60.8 23.2-90.8 32.3-100.4 74.2-199.1 139.3-282.7.8-1.2 2.4-2.9 3.5-1.1.9 1.3 2.8 2.9.8 5.5-67.2 92.9-115 198.9-144.1 309.6zm107.5-36.4c-26.9 52.2-44.5 108.7-52.3 166.9-1.6 6.1-1.6 30.4-9.2 29.4-2.3-.5-2.2-3.7-1.9-6.7 3.5-32.3 7.8-64.8 18.3-95.8 14-52.3 37-101 67.2-145.9 1.8-2.5 12.8-17.7 13.6-12-1.5 10-8.2 16.8-12.8 24.2-8.2 13.1-15.7 26.5-22.9 39.9zM227.8 1600c.3 1.9-.9 2.8-2.3 5.8-1.5-2-4.1-3.8-4.4-6-5.6-38.3-24.3-72.6-42.5-106.2-10.5-21.6-22.9-42.1-38.1-60.7-8.7-11.6-21.2-20.2-28.8-32.5 45.6 12.1 112.2 152.8 116.1 199.6z"/></g><g><path d="M52 1548v15l-37 37h946l-37-37v-15H52M52 52V37.7L14.3 0H0v1600h15l37-37V52m872 0V37.7L961.7 0H14.3L52 37.7V52h872m52-52h-14.3L924 37.7V1563l37 37h15V0z"/><path d="M961 1600h15V0h-14.3L924 37.7V1563l37 37H0V0H961.7M52 52V37.7L14.3 0m.7 1600l37-37V52h872m0 1496H52" fill="none" stroke="#333" stroke-width="2" stroke-linecap="square" stroke-miterlimit="3"/></g></svg>