<svg xmlns="http://www.w3.org/2000/svg" xmlns:xlink="http://www.w3.org/1999/xlink" viewBox="0 0 976 1600"><path d="M960 22v1556c0 3.3-2.7 6-6 6H22c-3.3 0-6-2.7-6-6V22c0-3.3 2.7-6 6-6h932c3.3 0 6 2.7 6 6z" fill="#fff"/><defs><path id="a" d="M960 22v1556c0 3.3-2.7 6-6 6H22c-3.3 0-6-2.7-6-6V22c0-3.3 2.7-6 6-6h932c3.3 0 6 2.7 6 6z"/></defs><clipPath id="b"><use xlink:href="#a" overflow="visible"/></clipPath><g clip-path="url(#b)"><path d="M172.4 823c-4.5 0-6.5-4.6-4.9-8.8 24.6-49.8-17.2-24.9-52.3-54.8-19.6-9.2 31.4-32.3 38-41 12.1-8.3 33.6-7.2 35.4-28.2 7.6-24.6 20.8-47.3 33.7-68.4 17.5-15.6 46.6 50.9 58.1 60.4 23.2-9.9 46.8-24.2 72.8-28.5 20.2-.5-3.7 47.7-9.6 61.2-2.9 11.8-24.7 21.9-20.1 34.4 12.6 16.1 32.5 41.3 32.8 63-23.7-10.9-43.3-33.9-64.5-34.3-48.6-13.8-77.5 32.5-119.4 45zm316.9-12c-28.3 3.3-80.6-33.5-59.2-63.4 20-25.2 103.2 65.5 59.2 63.4zm-13.6-90.7c-18.8-8.2 2-52.7 3.9-71.3-18.8-10.2-51.2-19.1-59.8-47.6 17.6-11.8 43.1-19.7 64.6-22.7 5.2-.1 12.6 3.7 14.6-3.3 22.8-93 31.4-91 80.5-11.2 28.9-12.6 69.8-31.2 96-11-1.8 28.3-24.3 52.4-46.6 71.6-2.6 2.1-3 5.8-1 8.4.3.3.6.7.9.9 19.5 15.4 32.4 38.9 36.9 63.4 10.8 41.8-94.6-18.1-108.3-28.8-19.2 22.2-46.8 43.6-81.7 51.6zM282.8 615c-7 .8-9.1-4.8-5.3-10.2 77.5-121 121.7-3.5 5.3 10.2zm-107.5-3.9c-70.7-5.8-94.7-110.5-30.2-66.2 10.1 5.7 44.1 63.8 30.2 66.2zm53.8-64.4c-28.9-15.5-48.4-89.8-10.7-97.4 28.5 5.1 26.2 83.9 10.7 97.4zm406.5-52.4c-84-3.2 34.3-71.4 53.8-30.6 8.9 30.8-34.1 28.4-53.8 30.6zm-121.2-20.6c-48.9 5.5-105.1-49.3-56.9-62.8 17-4.5 94.7 58.4 56.9 62.8zm149.5-73c-72.9 1.3-5-49.6 28.5-45.4 45.1 11.6-1.1 50.9-28.5 45.4zm-141.6-23.6C427.8 364.2 418 255.8 494 317.3c7.8 11.8 48.8 50.6 28.3 59.8zm99.5-61.9c-23-14 31-54.3 46.4-50.6 69.2 3.3-20.6 53.9-46.4 50.6zm-64.6-14.5c-32.2-18.2-54.6-89.9-11.8-106.7 24 10.8 27.6 91.3 11.8 106.7z" fill="#5d4e8c"/><path d="M546.9 1287.6c-14.2-15.4-7.4-1.9-22.8-8.8-23.6-17.6-54.5-2.4-79.4-18.7-21.9-13.5-38.5-37.3-69.1-41-53.5-2.2-55-73.3-92-99.9-51.8 20.5-85.1-16.8-134.2-24.5-53.4 11.2-100.9-11.1-138-49.9-68.1-43.4 19.9-123.1 53-163.8 41.5-41.4 89.9-41.8 136.3-67.3 21.5-15.1 41.5-35.3 70.1-34.1 41.4 1 89.1 29.5 103.7 72 3.7 14.3 29.2-.8 38.7 2.8 16.5-.5 34.3 4 44.4 17.4 2.1 2.6 5.8 3 8.4 1 .1-.1.3-.2.4-.3 7.3-6.4 13.8-8.4 22.3-9.4 9.1-4.9 20.3 6.7 26.5-1.2 18.2-28.3 51.9-30.3 81.3-32.6-4.5-62.7 34-132.7 112.2-107.2 28.6 12 62.5-5.9 90.6 12.9 21.7 11.4 30.7 31.1 43.3 49.3 27.4 35.7 77.5 40.5 76.8 99.2.3 31.9 10.4 66.1 12.4 94.6 9.2 9.5 22.5 17.8 27.3 29.8-1.3 6.6-9 6.2-14.3 4.4-13.1 9.4-29.5-2.4-44.8-1.1-51.5 9.8-98.1 48.3-154.4 38.8-90.5-22-14 18-51.9 67.4-9.9 15.8-22.2 28.6-37.7 43-16.1 19.3-13 50.3-38.1 62.1-28.4 17.3-50.4 39.6-71 65.1z" fill="#333"/><path d="M0 1604c-4.7-1.1-13.8-575.9 3.5-565.3 44.5 52.3 91.3 65 157.2 59.8 33.5 8.8 64.7 36.5 100.8 27.1 30.2-17.6 48.4 28.3 59 53.8 19.1 48.6 82.3 37.7 110.9 73.8 19.1 24.4 57 12.2 83.9 24.2 18.3 14.6 38.6 12.7 50.5-8.7 21.4-31.9 67.3-39.2 79-76.7 16.5-58.4 84.5-67.7 56.7-144.3.3-5.6 7.3-4.1 11.3-3.3 50.7 18.9 110.7 3.7 156.2-22.3 29.7-26.1 84.8 22.4 94.9-16-.2-5.8 8.8-3.6 12.2-4 11.7-.9 0 594.1 4 598.1.9 11.6-976.1-.3-980.1 3.8z" fill="#ffeb5c"/><path d="M960.5 991.5c-52.6-44.8-9.2-134.4-66.6-174.1-74.3-45.1-56-110.9-162.2-96.8-15.6-.3-29.2-10.7-45.3-9.7-4.1.2-11 .1-11.9-1.9-3.5-8-5.3-16.8-7.4-25.3-4.1-16.6-13.8-29.7-24.1-42.9-2.8-3.6-16.3-4.8-6.5-14.2 14-10.8 62.1-67.7 38.3-82.1-31.7-8.8-67.9-2.8-95.3 16.1-2.1-16.4-16.2-27.8-13-46.1 2.2-11.8 23.2-30.3 34.1-24.8 22.6 11.6 64.3 13.4 85.2-.6 16.9-16.1 11-31.6.3-37.8-44.2-25-74.2 26.9-113.3 37.5-3 .7-4.2 1.8-3.9-2.3.8-11.2-.1-22.8 2.7-33.4 2-7.6-3.1-17 5.3-23 15.1-9.1 30.4-27.1 47.8-29.9 5.7.3 11.1 3.8 16.8 4.9 27.7 5 80.1 2.4 75.2-38-9.7-34.7-63-14-79.7 5-5.2 5-8.2 13-14 16.6-16.4 9-33 17.6-47.6 29.6-1.1-15.4.3-31.1.2-46.6-1.7-24.9-1.4-24.5 19.8-39.4 15-14.2 20.4-13.3 39.9-12.6 19.2-.2 65.1-23.7 64.6-44.4.1-7.9-6-13.2-12.6-15.3-26.2-9.4-51.5 8.3-67.5 28.6-5.6 8.2-6.1 19.2-15.1 25.3-9.5 6.4-18.7 13.2-28 19.8-1.3.9-3 2.9-3.6 0-9.8-26.6-2.8-51.3-.5-78.4 2.4-23.5-12.8-92.5-44.1-59.2-21.5 30.4-8.9 72.7 14 98.2 8.8 10.6 20.4 18.1 20 35.8-.4 19.4 2.6 39 2.2 58.6 0 1.6.5 4.7-2.7 2.4-14.7-10.8-29.8-20.9-37.3-39-10.5-26.8-51-78-82.1-53.2-9.8 9.6-8 22-1.9 33.1 15.8 28.9 43.6 39.4 73.2 47.6 6.6 1.8 13.2-2.8 19.4 2.2 8.2 6.5 16.7 12.6 25.5 18.2 11.1 5.2 2.8 9.7 3.7 18.5-1.3 20.1-2.7 40.2-4 60.3-.1 1.1.3 3.3-1.9 1.6-11.4-8.8-24.6-14.7-32.8-28.4-11.1-18.6-27.7-33.3-47.6-41.9-60.3-26.8-59.4 59.3 22.1 67.5 14.1 2.6 27.9-6.2 42.5 3.1 13.3 8.5 19.3 15.6 15.2 31.5-.7 2.8-1.3 4.1-4.4 1.2-5.1-5.2-11-9.4-17.5-12.6-4-2.6-8.4-5.9-13 .9-12.5 18.8-21.2 39.8-25.9 61.9-1.1 5.1-2 9.8-9.8 10-4.1.2-8.3-1.1-12.6.3-14.5 4.8-29.8 7.7-43.8 13.7-7.9 3.4-22 8.3-15.2 20.5 11.4 20.5 30.3 33.6 52.6 41.4 2.4.8 7 2.3 5.3 6.2-6.2 13.3-21.3 63.8-1.7 68 28.8.7 54.5-14.5 75.5-32.7-4.3 39.2-8.4 78-11.2 117.3-.1 1.2-.5 3.8-1.7 2.6-7.5-7.8-20.8-2.7-27.3-16.6-9.7-29.1-69.2-90.5-88.1-38.2.5 32 34.9 58.5 63.9 59.4 12.8.4 25.3-9.5 38.1-.4 5.7 4 15.1 2.3 13.8 15.3s-13.7 14.2-18.3 22.9c-7.8 17-23.3-7.7-50.1 16.6-1.6 1.5-3.1 1.9-4 .3-14.4-23.5-36.5-24.8-60.5-21.3-6.4.9-16.5 3.7-18.6.9-6.7-9-13.8-19.6-16.3-29.9-6.8-27-16.7-51.6-36.1-71.9-1.3-1.4-2.5-3.1-.3-5.5 16.9-17.8 31.6-40.1 34.8-64.7.9-8 7.7-17.6-1.1-26-6.6-6.3-12.8-1.8-19.5-.8-20.4 2.9-39.8 10.8-56.4 23.1-5 3.7-8.3 2.7-9.5-2.4-2.3-9.6-9.4-16.1-13.7-24.4-2.1-4-7.2-10.2-6.1-11.4 5-6 10.8-13.6 18.6-14.2 31.3-2.4 59.5-10.8 79.7-36.8 8.1-10.5 11.7-23 1.9-33.4-16.7-16.9-42.3.2-56 13.4-14.8 11.5-24 27-30.8 43.7-4.1 10.1-14.4 12.5-20 20.3-9.7-6.6-21.8-16.3-18.8-31.6 3.2-16.2-.2-33.6 6.6-49.5 4.9-11.6 5.9-23.6 6.2-36-.2-23.8 2-64.6-27.8-70.1-27.7-.1-26 40.2-21.8 60.2 4.5 18 12.1 32.8 24.8 45.5 3.9 3.9 7.7 6.8 6.5 13.7-2.6 15.1-5 30.4-5.6 45.7-.3 6.2-.7 10.8-4.4 16-6.4 9-9.6-.5-13.6-2-5.8-2.1-13.7-5.3-15.6-10.1-49.1-157.3-143.1-58.2-43-3.5 18 7.2 38.6 8.7 53.3 22.7 2.4 2.3 11.2 2 6.9 10.1-9.4 17.8-19.4 35.4-24.4 55.2-.9 3.6-.7 9.2-7.2 10.1-20.3 5.2-39.6 18.8-55.8 31.4-15.4 14-20 15.7-1.2 30.6 5.2 4.1 12.2 5.7 17.2 9 8.7 8.4 42.7 8.5 35.1 16.2-17.6 40.9 7.8 25.5-41.7 42.3-43.2 15.9-81 45.7-103.3 86.1-14 30.9-46 47.7-41 86.3-3.4 20.5 4.2 20 17.3 33.9 32.7 33.4 75.3 70.3 126.4 61.4 11.3-1.3 22.4-2.4 33.4.1 34.2 9.3 65.7 37 103 27 5.3-1.9 13.1-6.8 15.7-4.9 18.9 14.2 30.9 33.9 38.1 56.1 28.3 58.7 70 30.7 111.9 75.4 14.5 14.5 31.2 18.7 50.5 19.3 44.4-5.9 56.1 42.6 89.9-4.1 21.2-31.3 70.2-41.2 79.8-78.5 2.7-15.5 9.8-27.7 21.4-37.3 28.3-24.3 54.1-63.6 35.5-101-.9-1.8-.1-4.5-.2-6.8 9.3-.3 17.4 6.3 26.4 7.2 48 5.6 98-4.6 138.9-29.3 21.8-11.7 43.2-8.6 63.7-1 22.6 10.1 45.7-17.2 26.7-33.2zm-342.6-520c8-5.1 16.7-9.1 25.1-13.6 15.1-7.5 42-3.3 44.3 12.2-1.8 10.6-8.9 16-17.9 16.6-20.4 2.2-43 7.9-62.2-3.7 3.5-4 6.4-8.8 10.7-11.5zm17.1-83.9c10.5-17.8 60-43.9 71.6-18.4.5 16.3-10.2 20-20.3 23.6-16.4 5.9-32.9 4.3-49.4-.4-3.2-.8-4.6-1.4-1.9-4.8zm-11.5-88.4c12.8-23.2 38.6-35.5 61-29.3 9.1 5.6 2.5 12.9-1.6 16-16.1 11.7-32.3 23.8-54 23.3-3.2-.1-7.7 4.1-9.3.6-1.1-2.4 2-7.3 3.9-10.6zm-64.7-4.8c-4.1 10-20.4-21.5-23.2-25-8.8-13.1-9.4-28-8.3-42.8.8-11.2 3.3-22.5 15.5-27.9 4.4-1.9 5.9-.1 10.5 10.5 13.6 28.6 8.2 58.6 5.5 85.2zm-38 78.5c-25.1-4.7-93-37.3-68.7-68.6 2.5-1.2 5.7-1.1 4.5-.9 29.2-1 41.3 25.8 55.9 44.3 1.7 3.7 20.4 27.8 8.3 25.2zm-6.3 96.8c-26.8 1.2-82.5-15.8-67.2-51.7 1.9-3.5 5.8-3.2 9.5-3.1 16 2.6 29.9 9.6 41.1 21.5 3.7 5.8 37.2 34.1 16.6 33.3zm-23 337.2c-56 4.4-85.9-71.7-40.5-57.2 23.4 10.9 35 32.3 48.7 51.9 1.6 2.3-2 4.7-8.2 5.3zM280.9 606.8c45.5-80.7 101.9-51.6 51.1-14.1-15.5 10.8-33.8 17-52.7 17.9.5-1.3 1-2.6 1.6-3.8zm-107 0c-23.4-7.4-46.9-14.8-57.9-39.9-3.7-8.5-8.4-17-1.3-26.3 2.1-2.8 4.1-3.9 6.9-3.5 29.7 4.6 42.3 42.6 53.5 67.2.8 1.6 1.9 3.5-1.2 2.5zM707 725.4c11.8 5.5 25.2 6.4 38.8 4.3 44.6-7.7 73.8 20.5 93.6 56.6 6.9 10.1 15.9 18.6 26.5 24.8 67.8 33.7 41.9 91.4 61.5 151.5 3.2 3.8.7 5.8-3.3 2.2-32.1-32.8-72-58.4-108.6-85.2 19.8-2.4 27.6-3.3 43.9 12.4 3 5 39.5 23.3 41.6 15.5 4.4-7-31.2-12.3-43-28.8 7.7-.9 36.5 5.9 37.8-1.6.2-5.3-4.9-6.1-9.7-6.3-21.3-.9-43.1-5.6-63.6-2.2-27.4 4.5-44.5-13.4-65.9-22.2-8.6-3.5-17-7.7-25.4-11.6-1.8-.6-2.2-2.4-.5-3.3 28.7-14 33.2-15.9 61.6.3 17.8 7.6 36.6 4.7 55.1 5 1.2 0 2.5-2.1 3.8-3.2-9-7.1-30.9-4.9-42.9-6.6-10.4-.5-18.3-6.8-27.5-10.1-.5-.2-.8-1.1-1.1-1.6 15.1-2.8 31.7-1.5 47.3-2 5.4.1 10.9 4.3 16.3-.3 3.7-3.2 1.2-5-1.8-5.9-41.6-9.8-85-1-121.7 20.2-7.7 4.3-14-3.1-21-4.7-11.2-2.6-21.8-7.8-32.8-11.4-3-1-3.1-1.9-1.5-3.9 6.7-8.2 13.6-16.3 20.2-24.7 2.7-3.4 5.5-1.8 8.6-1.6 24 1.8 45.6-6.7 67.3-15.1 10.8-3.7 1.7-10.2-5.7-6.1-19.1 6.4-38.5 13.4-59 12.9 7.9-7.4 15.5-14.5 23.1-21.7 1.8-1.7 4.5-3.7 1.8-6.1-6-6.1-48.8 37.8-54.8 44.5-19.2 35.6-36.8 7-63.3 15.2-3-55.9 50.6-99.4 104.3-79.2zM489.5 711c-4.5.4-11 5.7-14.1 5.3s-3.2-4.5-2.2-10.5c1-19.2 2.3-38.6 13.5-55.8 2-3.1 0-6.4-4.7-7.1-24.8-3.7-42.5-18.3-57.4-37.3-3.1-4 1.5-3.7 2.5-4.2 19.4-8.3 40.4-19 61.8-18.1 15.6 3.8 14-8.9 16.1-17 2-7.3 19.6-72.3 29.3-56.5 13 11.1 23.1 24.6 31.2 39.6 4.5 5.4 3.5 18.2 9.4 21.2 2.2.7 5-.5 7.4-2.2 24.8-15.1 58.3-24.2 86.5-16.5 7 2.7 1.4 11.6-.9 16.9-9.7 25.3-29.6 42.4-48.9 59.8-.4 1.6.3 3.3 2.6 5 24.3 16.8 36.9 43.3 41.9 71.7.8 3-2.1 2.4-4.3 2.2-36.6-3.4-70.8-20-98.5-43.6-2.7-2.9-7.3-2.1-9.3 1.6-13.9 24.6-36 37.6-61.9 45.5zm61 46.3c3.8-27.4 3.7-55.5 7.4-82.7 20.1 11.4 37.5 28 60.4 34 8.8 2.6 17.2 7.8 27.3 6.7-9 6.1-19.1 9.6-25.5 17.9-11.6 14.8-24.4 30-26.4 49-1.4 12.7-5.3 26.2-.7 39.3 5.1 8.1-29.4-1.5-48.1 9.9.5-24.8 2.4-49.6 5.6-74.1zm-325.2-217c-18.4-21.5-26.7-45.6-20.6-74.2 1.8-8.4 4.4-13.9 13.2-12.8 10.8 1.3 12.4 11.8 14.6 19.4 5.1 16.8 3.9 56.6-3.4 70-1.3-.8-2.9-1.4-3.8-2.4zM117 755.8c-1.1-.6-2.2-1-3.4-1.3 12.4-13 28.2-21.8 42.1-33 4.6-3.7 11-5.6 16.9-6.8 14.1-2.9 16.7-13.7 20.5-25.3 1.3-6.7 31.5-75 37.2-66 18.4 17.7 33.6 38.5 44.8 61.5 3.7 6.2 6.6 4.1 12 .3 9.4-6.6 20.1-11.4 30.6-16.4 11.9-5.6 24.6-7.1 36.7-11.2 4.5-1.5 2.5 3.6 2.2 5-4.5 28.6-15.8 56.7-37.3 76.8-3.8 3.8-3.7 7.7 0 11.4 15.5 15.9 24.1 35.7 34.5 58.2-32.1-30.6-69.4-45.8-111.3-31-20 7.2-32.9 24-51.1 33.1-3.4.9-23.4 13.4-20.3 4.4 23.1-63.1 11.6-16.1-54.1-59.7zM268.9 1119c-45.3 14-79.1-28-122.7-28.2-78.3 11.4-96.9-20.6-152.3-66-3.9-3.3-2.9-8.2-3.3-13.1-2-24.9 8.7-43.4 23.5-61.6 17.7-21.9 31.1-47.3 52.9-66 19.1-16.5 39.6-30.4 63.6-39.4s50.3-13 72.2-27.7c11.4-7.7 21.9-16.9 33.6-24 49.3-27.5 112.6 10.7 134 57.2.5 6-7.1 5-10.7 6.3-26.9 8.2-44.3 28.5-63.9 46.3-.2-1.1-.9-2.2-.6-3.2 2.8-11.5 6.1-22.9 8.6-34.4 3.2-14.7 5.8-29.5 8.4-44.3.2-1.1-1.8-2.5-2.7-3.8-8.4 4.7-7.3 19.8-10.4 28.4-3 13.6-6 27.2-9.1 40.7-.4.5-.9.7-1.5.7-13-26.9-30.2-50.1-55.6-66.6-2.1-1.4-4.7-2.4-6.2-.1-1.3 2 .2 4.3 2.3 5.7 16.9 11.7 26.4 29.8 41.2 46L220.5 856c-5.5-.4-21.1-10-23.5-3.3-5 6.8 63.1 26.8 70.5 28 16.4 3.3 14 19.2 21.4 28.4-15.2 8.3-34 7.8-50.8 11.8-7.8 1.3-11.4-6.2-17.1-9.4-19.2-11-38-22.7-57.3-33.5-8.1-4.5-17-7.7-25.9-10.6-2.9-1-8.6-2.6-9.4 2-.9 5 5 6.1 8.7 7.7 12.6 5.5 25.7 10 40.4 22h-66.7c-1.8 0-4-.5-4 2.4-.9 8.7 60.9 7.3 67.5 3.2 14.3-4.3 22.1 3.5 32.1 8.9 3 1.6 5.8 3.7 8.9 5.1s7.2 1.6 7.4 5.7c0 .8-5.5 2-8.6 2.8-17 3.9-33.2 10.1-49.3 16.5-10.8 4.3-22.8 11.5-32.9 9.7-29-3-56.6-17.3-86.3-14.7-1.9 0-5.3 3-5.4 4.9-.3 3.2 3.2 1.4 5.1 1.8 8.5 2.3 18.6 1.3 26.2 5.7-9.5 7.4-21.6 11.6-33.4 14.7-3.3.7-10.5 2.7-8.1 7.6 2.5 5.2 8.5 0 12.5-.7 15-2.8 28.3-10.5 41.6-17.7 7.2-3.9 13.5.4 19.7 1.7 4.5 1 13.8.8 13 1.9-4 6.4-12.2 7.5-18.7 10.8-21.3 13.3-83.3 36-78.3 65.8 1.5 1.4 5.3.3 12.5-4.3 39.1-21.7 79.8-37.8 122.6-51.2-7.2 12.7-14 25.1-21.4 37.3-6 10-18 10-27.2 13.9-15.2 6.4-26.3 17-36.9 28.8-1 13.2 43.3-27.4 53.1-25.8-6.6 10.6-14.6 20.3-21.5 30.6-.8 1.2-4.1 3.2-.9 4.7 10.9 4.8 31.8-34.2 38.8-42.4 45.4-68.7 4.4-42.8 90.5-66.4-5.9 16.4-9.3 36-18.9 50.5-5.2 6.3-13.9 9.6-20.8 14.5-13.3 9.4-25 20.8-34.7 33.8-.7.9-.2 2.6-.3 3.9 1.4 0 3.3.5 4.1-.3 14.9-12.4 28.6-27.5 45.5-37.1-6.4 14.3-14.2 28-20.9 42.3-1.1 2.3-1.4 5.4 1.7 7 8.6 7.6 55.6-101.2 53.7-111.6 1.4-7.8 7.6-4 10.8-5.1 7.9-2.5 16.3-3.3 24.5-2.4 6.8.7 2 7.5 1.5 10.2-4 19.4-10.6 37.9-17.5 56.5-11.6 29.8-9.5 69.2 13.5 93.4 1.1 1.1-.6 2.4-2.7 3zm16-196.3c-.7 16.3-7.5 22.5-23.1 24.3-27.5 3.2-54.8 8.4-81.7 15.4-52.4 13.7-103.1 33.4-150.9 58.8-.5-2.6 1.4-3.3 3.2-4.3C85 982.7 142.1 958.1 202 939.7c24.4-7.9 50.4-11.6 75.4-18.2 2.5-.5 6-2.1 7.5 1.2zm244.5 353.9c-3.3-1.7-7.3-2.2-10-4.4-21.8-15-50.6.2-72.5-15.4-10.9-7.3-21.2-15.4-31-24.1-22-21.8-59.3-12.7-78.4-37.3-8.9-11.2-13.9-25-19.5-38.4-30.3-59.5-80.4-49.8-45.2-142.3 18.6-36.5 8-82.8 39.7-113.3 16.5-15.7 33.8-30.7 56.4-36.5 34-8.1 86-18.3 94.1 30.8 1.1 7.3 8.3 17.5-3.9 16.7-10.7.7-18.5 7.8-28 11-6.2 2.1-11.6-2.1-17.3-2.2-16.5 1.8-82.8-7.1-86.7 9.1 15.5 3.9 31.3-1 47-1.1 12.2-.5 24.5-.2 36.7 0 1.4 0 3.8-1.3 3.9 1.4 0 1.1-1.5 2.7-2.7 3.3-36.4 21.8-72.6 46.6-97.8 81.1-2.4 4.1-8.2 4.1-9.9 9.4-.8 2.4-2.1 4.4-1.2 7 2.5-1 5.6-1.3 7.4-3.1 14.5-12.6 25-28.5 41.8-38.2-7 16.6-13.4 32.3-20.1 47.9-1.1 2.6-2.7 5.4 0 6.8 11.4 2 26.9-53 33.1-63.4 4.6-10.3 16.2-15 24.8-21.8 22.9-17.3 49.9-29.1 76.2-40.6 2.9-1.3 1.4 1.4 1.6 2.1 4.4 23.8 7.9 47.9 13.3 71.5 3.4 14.7-9.9 13.4-15.5 17.2-33.8 21.1-68 44-92.1 76.2-6.8 8.5-13.8 17.8-16.3 29.2-2.2 4.7 4.9 6 7 2.5 14.4-23.2 33-43.8 53.4-61.8-3.6 30-16.9 58.3-28.5 86.1-.6 1.4-1.6 4.4 1.2 5.1 14.8 3.7 41-84.8 39.1-98.5.2-4.6 3.8-6.1 7-8.2 15.9-10.4 31.7-20.9 48.7-32.1 5.4 28.8 9.8 56.7 16.1 84.2 1.8 7.9-2.7 9.4-6.1 13.2-27.2 28.5-55 57.4-70.4 94.6-1.5 3.5-4.1 8.7-.6 10.5 5.1 2.6 6.7-4 8.6-7.1 9.5-15.3 18.5-30.9 29.9-50-3.6 22.6-.9 41.3-5.6 59.5-.6 2.3-2.2 7.9 2.1 7.8 6.2-.2 6.8-7.3 7.4-11.4 2.2-14.7 6.8-30.5 3.4-44.1-4.6-18.7 8.5-25.8 16.5-36.6 5.1-7 11.5-13 17.5-19.5 11.1 53.4 17 106.4 26.8 159.7 1.7 9.1 1.6 9-1.4 7.5zm7.4-41.8c-11.6-47.5-15.3-96.8-25.8-144.7-14.6-70.5-26.6-141.8-44.1-211.5 3.9-9.3 23.7-13.8 33.9-12.5 22.5 3 24.7 138.1 24.5 161.3-.2 7.7 4.3 15.8 3.2 23.2-1.5 9.6-.2 18.6.6 27.8 3.9 47.8 10.3 95.6 8.1 143.6 1.9 4.4 3.6 8.7-.4 12.8zm158.9-205.5c-2.2 12-1.1 24.4 3.1 35.9 12.4 36.9-21 68.6-45.3 92-9.1 8.4-12 19.8-14.2 31-9 31.5-45 41.4-66.4 62.7-9.5 8.6-16.3 20.2-26 32.7 3-61.5-.2-119.9-5.4-179 10.3 6.3 20.6 11.9 30 18.7 7.3 5.3 4.4 15 7.4 22.4 6.1 14.9 11 30.5 22.3 42.6 3.9 7 9.3-.1 4.9-5.1-10.8-14.9-16.6-32.5-21.4-49.8 13.3 8.4 25.4 18.9 37.9 28.5 3 2.4 4.3.5 5.6-.8 6.6-3.9-20.3-22.3-23.7-26.5-18.7-15.8-39.3-29.4-61.3-40.2-8.7-4.3-3.8-14.8-4.6-22.1-2.4-26.5-3.6-52.5-3.6-79.2 20.9 8.6 39.6 19.8 57.5 32 7.3 5 6.7 15.1 10 22.7 9.2 21.5 21.7 41.5 37 59.1 2.3 2.6 4 8.6 8 5.2 3.7-3.2-.9-7.4-3.2-10.7-15.8-19.9-27-42.2-36.9-65.6 21.6 12.1 39.9 30 58 46.9.9.9 3.4.2 5.2.2 3.5-20-110.2-94.8-131.8-98.1-4.5-1-5.5-5.2-5.8-9.7-1.4-19.8-1.5-39.7-5.8-59.2-.8-3.6-1.8-6.6 5.4-5.2 10.2 2 20.8 2.9 31.1 3.8 13.5 1.1 16.6 10.4 21 18.7 5.4 10.3 43.8 38.7 54.2 37.8-15-19.3-41.5-27.4-51.6-51.3 18.3 2 36.6 10.2 54.1 16.9 2.2 1 5.8 3.6 7.4-.4 1.4-3.4-.6-5.7-4.3-7.3-29.2-13.8-59.5-20.4-91-26.8 16.3-7.7 32.4-15.3 48.5-22.9 2.8-1.3 8.1-1.3 6.6-5.7-1.5-4.6-7.5-3.4-10.1-2.1-19.3 9.5-39.5 16.7-57.8 28.4-6.6 4.9-18.8 2.2-18.8-9.5-.7-10.2-9.3-21.1-.4-30.6 22.9-26.1 68.1-34.6 97.2-13.8 7.5 5.3 9.3 14.3 10.9 23.3 8.5 47.8 68.4 56.6 76 105.6 4.5 20.4-6.6 36.4-9.9 54.5zm-9.8-115.9c-.1 3.7 1.8 7.4 2.8 11.6-19.5-16.6-44.7-28.2-49.3-55.5-1.7-6.4-2.3-13-5.3-19.1-.9-1.9-2-4.1 1.3-3.2 14.3 3.8 29.2 6.5 42.5 12.5 6.6 3 3.7 14 3.5 20.8-.5 11.5 4.8 21.7 4.5 32.9zm218.6 93.7c-24.6-1.8-44.4 12-64.9 22.4-26.7 11.8-56 16.8-85 16.8-12.6-1-25.8-.2-37.2-7.2-14.5 2.3-13-6.1-9.7-15 12-24.4 13.5-53.6-1.7-77.3-1.8-2.6-2-6.3-3.3-10.5 14.4 13.3 27.3 26 36.2 42.3 1.5 2.7 3.8 4.1 6.4 2.9 3.7-1.6.5-3.6-.3-5.5-5.9-15.9-18.1-26.9-28.5-39.6-5.8-7.2-17.2-7-19.3-15.7-3.1-14.2-5.3-28.6-6.3-43-1-4.7-4.5-12.4-.9-13.6 4.4-1.5 11 2.2 16.2 4.5 17.1 7.4 34 15.1 50.9 22.8 1.2.7 2.1 1.9 2.2 3.3-1.8 20.6 7.4 39 12.2 58.1 4.7 18.6 11.2 36.7 17.5 54.9 2 4.2 7.7 18.2 12.9 17.1 4.4-6.1-12-37.3-14.6-48.2 14.9 7.3 23.7 18 31.8 29.6.6.9 1.2 4 3.9 2.3 2.3-1.4 3-4.4 1.7-6.7-9.3-15.2-18.5-30.3-37.8-35.2-2.5-.6-3.8-7.1-4.9-11.1-4.6-20.1-12.1-40-14.7-60.2 15.6 8.8 31.6 16.3 45.7 26.4 5.5 3.9 7.4 13.5 9.7 20.9 5.5 18.2 15.5 34.2 26.1 49.5.7 5.3 6 6.9 8.5 5.7 4.9-2.4 0-6.1-1.4-8.3-11.5-18.5-20.9-38.3-28-59 39 22.9 75 50.9 108.6 82.4-10.8-2.2-21.3-5-32-5.8zm49.8 1.3c-3.7 7.5-49.4-38.1-58.6-42.6-16.3-12.3-33.8-23-50.2-35.3-67-45.2-142.3-79.8-222.1-94.6-8-1.5-23.4-4-22.3-19.8-.4-2.8-.2-4.5 3.5-4.2 55.8 3.7 108.4 25 157.9 50.1 61.3 31.2 114.8 74.7 167.1 119 3.3 3.3 29.6 26.2 24.7 27.4zM553.8 634.3c-14.4 3.3-28.4 6.3-41.5 13.2-1.7.9-3.8.2-4.7-1.6-.1-.2-.2-.4-.2-.6-1.2-3.8 1.9-6.2 4.4-7.9 3.1-2.1 7.8-2.3 10.3-4.8 5.8-5.7-2.8-8.1-4.5-11.5-3.8-7.4-7.2-15.1-10.3-22.9-3.8-7.5 5.1-10.6 7.9-2.5 3.7 10.1 9.2 19.2 15.5 27.9 3 4.2 6.8 4 10.3 2.9 5-1.6 0-4.2-.3-6.1-.1-10.1-18.2-71.2-9.5-71.4 6.4-1.4 5 5.3 6 9.7 4.6 19.7 11.4 39 12 59.5.3 3 2.8 7.4 3.7 6.5 3.5-3.7 11.9 2.7 12-6.1 1-4.3-3.6-40.4 8.3-37.3 4.3 2.5 2.5 7.9 1.4 11.1-3.1 8.9-.7 17.8-1.5 26.6-.3 2.7 2.1 1.9 3.6 2 6.9 2 31.4-1.5 31.2 7.4-.3 2.1-3.2 4.1-7.4 4.1-15.5-.4-30.8-1.8-46.7 1.8zM195.3 769.7c.1-9 21.9-2.5 10.5-21.1-5.3-8.4-7.3-18.5-8.7-28.5-1.4-5.7 7.1-7.3 8.2-1.4 4.5 12.2 9.4 24.3 14.2 36.3.3.8 2.6 1.8 3 1.5 4.4-3.4 15.4-2.8 13.7-8-3-9.4-3.4-19.3-6.6-28.7-3.3-9.8-3.2-20.7-4.6-31.1-.5-3.8 2.3-6.4 4.7-7.3 2.1-.8 3.2 2.6 3.7 5 4.9 19.5 6.6 41.1 14.4 59.5 2.6 4.4 9.1-.4 13.6-1.5 3.5-.9 1.8-5.4 1.1-8.1-2.5-9.7-1-19.5-1.3-29.3 0-1.5 2.5-4.5 3.6-4.4 5.6.7 5.2 6.3 6.1 9.9 1.4 5.2 1.1 10.8 1.8 16.2.9 6.8-2.8 16.4 11.2 14.6 3.8-.5 5.8 6.2-1.6 7.8-25.5 4.4-50.2 10.8-73.9 21.2-3.1.5-11.4 3.5-13.1-2.6z"/></g><g><path d="M52 1548v15l-37 37h946l-37-37v-15H52M52 52V37.7L14.3 0H0v1600h15l37-37V52m872 0V37.7L961.7 0H14.3L52 37.7V52h872m52-52h-14.3L924 37.7V1563l37 37h15V0z"/><path d="M961 1600h15V0h-14.3L924 37.7V1563l37 37H0V0H961.7M52 52V37.7L14.3 0m.7 1600l37-37V52h872m0 1496H52" fill="none" stroke="#333" stroke-width="2" stroke-linecap="square" stroke-miterlimit="3"/></g></svg>