<svg xmlns="http://www.w3.org/2000/svg" xmlns:xlink="http://www.w3.org/1999/xlink" viewBox="0 0 976 1600"><path d="M960 22v1556c0 3.3-2.7 6-6 6H22c-3.3 0-6-2.7-6-6V22c0-3.3 2.7-6 6-6h932c3.3 0 6 2.7 6 6z" fill="#fff"/><defs><path id="a" d="M960 22v1556c0 3.3-2.7 6-6 6H22c-3.3 0-6-2.7-6-6V22c0-3.3 2.7-6 6-6h932c3.3 0 6 2.7 6 6z"/></defs><clipPath id="b"><use xlink:href="#a" overflow="visible"/></clipPath><g clip-path="url(#b)"><path d="M567.1 1432.7c-57.8 0-124.5-2.7-181.1-19.9-7-2 1.6-14.6-8.5-14.3-40.2-2.5-79.3-20-111.4-45.4-5.7-12.6-20-5.2-11.1 8.5-15.7 9.6-46.3-18.3-66.5-27.1-71.9-43.5-134.4-103.6-185.6-165.7-7.9 8.2-23.8-862.1 6.3-831.4.4 7 16.7 8.6 18.6 1.5 67.3-19.1 146.8-12.4 216.1.9 14.5 3.3 28.9 9.6 45.4 20 5.7 4.7 7.9-5.1 12.8-3.9 89.6 23.5 156.6 91.3 202.4 168.8 134.2 222.2 145.6 494.7 128.9 746.7 3.1 42.6.1 94.3 17.8 132 40.1 38.9-62.2 25.6-84.1 29.3zm192.8-72.2c29.1-185.6-15.4-393.9-.9-587.6-5-169.8 8-402.4 203.8-457.2 3-1.3 5.1 2.1 8 1.9 3.4-1 8.8-3.1 9.2 2.5-3.9 123.1 7.5 789.6-4 925.4-4.3 0-9.2-1.8-12 2.8-55.9 52.6-122.6 112.9-204.1 112.2z" fill="#333"/><path d="M0 1604c-5.9-97.9-8.8-343.9 0-438.3 27.9 41.2 68.2 79.4 102.8 114.4 25.1 13.2 48.4 29.6 69.2 48.9 8.2 6.1 22.5 7.8 28.1 17.9 26 12.1 60.2 22.6 83.7 39.8 32.9 7.1 70.5 17.3 96.8 35.9 23.5 0 49.5-4.2 70.9 11.3 66.1-6.8 133.8 8.9 199.6-6.5 24.9-3.5-7.1-24.6-2.5-37.9-5.3-14.6-5-29.7-8.3-44.2-3.3-10.7 2.2-21.6-2.8-31 2.7-36.8-4.8-77.8 8.9-111.8 1.7-2.7 1.1-6.2-1.5-8.1-3.8-6.5-.7-16.1-.9-23.7-1.1-8.4 9.7-18.4 2.6-25-4.9-14.9-4.7-36 .7-50.9 3.7-5.5-4.5-8.8-2.8-14.4 3.6-10.7-5-24.1.8-34.6-8.8-74.9-13-148.7-26-224 3.1-15.3.6-10.5-6-23.2-3.3-24.8-13.3-49.6-15.1-73.8-14.2-32.6-23-69.8-38.9-100.7-12.1-40.1-39.5-71.5-45.9-107.4-10.1-13-27.2-20.1-19.3-35.3-15-12.8-37.1-19.2-40.7-37.9-28-21.7-54.6-53.1-90.6-67-59.1-32.6-116.8-38.2-176.9-53-2.7-3.6-7.6-2.3-10.7.2-9 5.3-22.9 1.8-33.1.7-31.8-5.8-64.5 6.1-96.6 6.5-6.7-.2-13 1.3-19.8 2.8-4.6-.3-4.2-7-9.3-6.6-5.4-.2-7.3 6.7-7.2 10.9.3 5.1-6.3 3.8-9.3 4C-11.3 342.7-.3 4-4 0c306.9-11.6 667.9 0 980-4 12.7 56.1-.8 247.4 4 312.1-.9 7.7-8.2 1.5-11.8 1.7-24.8 14.9-49.7 17.2-78.4 35.4-64.9 37.9-101.6 109.8-114 180.4-.1 19.9-15.8 36.6-14.5 53.1 3.9 18.1-2.8 38.8-2.8 57.7 1.5 11.7-3.5 19.9-7.5 28.4 11 9.4 1.5 22.7 3.9 35.8-3.4 22.8 6.9 54.1-5 72.7-8.4 7 4.1 9.4 5.1 14.8-5.2 33.9 4.6 69.1-5.5 101.6-3 4.8 3 7.4 3.5 11.7 2.7 7.5-1.3 20.6-3.1 26.2-2.6 4.5 2.4 7.3 3.2 11.6 6.1 10-1.9 16.9.2 25.3 8.5 12.2-2.1 22 1.9 32.1 4.9 10.9 4.2 23.8-.5 34.2 14.1 33.3-3.3 37.2 4.6 52.7 4.3 12.3 4 24.7-.9 39 10.7 26.3 3.8 60.9 6.5 91.1-3.9 11.9-.8 12 1.8 21.8-4.2 21.3 1.6 37.6-1.6 59.5-.7 6 1.9 13.3-3 18.1-1.2 12.9-3.4 26.8-8.3 40.4 7.7 19.3 42.7 9.7 60 4.7 76.1-23 112.7-67.6 162.2-120.5 11.5-.7.1 358.4 4 362.5.9 11.8-976-.3-980 3.9z" fill="#d81e1e"/><path d="M976 494c-4.4-30.2-11.9-60.1-19.5-89.6-2.4-8.6-2.3-19.5-11.4-25.6 7.8-20.9 19.7-39.6 30.9-58.6 2.7-3.6 7.9-8.5 3.8-10.2-6.2-2.8-13.1-7.7-19.7-.1-2 2.4-5.6 4.1-8.8 5-22.5 5.9-43.6 15.6-63.6 27-51.9 28.3-83.1 81.1-103.6 135.2-7.7 22.8-28.6 38.1-42.2 57.9-47.9 59.9-97.5 119-144.1 179.9-5.3-15.6-11.8-30.8-15.5-46.6-2.5-10.5-16.6-18.8-3.6-33 20.2-22.1 38.2-46.4 59-68.2 2.3-2.5 3.7-5-1.1-8.3-6.9-4.8-14.6-2.3-22.1-4.2 28.3-31.8 54.3-63 81.4-95.2 7.5 13.1.5 41.8-4.4 56-1.6 4.1-4.1 8.4-2.2 13.1.1.2 5.1-.6 6.6-2.2 29.5-26.4 72.1-58.4 66.3-103.1-7.2-22 9.3-48.1-10.6-64.9-8.2-5.9-13.4-12.5-3-21.3 20.4-26.6 42.8-51.5 67-74.6 18-17.8 43.6-24.6 60.9-43.5 29.2-30.8 47.1-69.8 74.9-101.5 7.7-8.4 16.2-16 24.4-24 3.9-3.8.6-8 .1-11.9-15.3-4.3-62 62-72.5 75.1-5.1-20.7-3.8-42.6-6.9-63.7-.5-4 0-11.6-6.9-11.4-4.3.2-3.2 5.8-2.7 8.9 2.6 18 3.9 36.2 3.9 54.4 2.3 9.7 5.1 21.7 0 30.6-12.5 19.8-29.2 37.3-49.3 49.5 1.2-22.9 1.7-45.9 1.1-68.9.1-2.7-1.7-6.7-4.9-6.4-3 .3-3 4-3 6.9-.6 20.3-.5 40.6-2.3 60.8-.8 8.9.4 20.8-12.8 23.2-3.5-5.9.5-13-1.1-18.7-4.1-10.2 4.6-35-5.4-40.2-3.7 0-4.3 3.9-4.3 7.1 0 14.5-1.6 29.2.5 43.4 2.2 12.3-1.6 20.7-11.9 26.8-1.3-14.4 0-29.1-.6-43.6-.1-4-.1-9.9-5.6-9.7-5.1.2-2.1 5.6-2.3 8.4-.7 14.2-.8 28.5-1.2 42.7-.1 4.4 1.3 10.5-1.1 13-25.6 27.4-46.6 58.7-69.7 88.2-8.5 12.5-37.9 22.3-51.8 17.2-10.7-3.9-19.8-9.8-29.1-16-8.2-5.6-13-12.8-9.5-15.9 26.1-22.5 51.7-45.5 73.6-72.2 69.8-80.9 137.4-168 178.3-267.1-1.5-.1-3.4-1.2-4.7-.4-3.3 2.8-7.9 5.7-8.7 9.4-2.8 12.7-10.1 23.3-16.1 34.3-47.2 82.7-105 158-167.6 229.6C712.9 187.2 749 99.1 779.8 9.2c.8-2.3 4.5-4.1 1.8-7.2-.6-.6-1.2-1.2-1.8-1.7-1.6-2.7-6.4 4.6-7 6-11.9 27.8-20.9 57-32.6 84.8-3.2 6.8-2.4 15.8-10.8 20.2-19.9 10.5-39.6 21.4-59.3 32.3-5.2 4.4-6.7-.4-4.3-4.9 26.2-42 51-84.7 74.7-128.2.6-1.1-1.3-4.6-2.7-5.1-.7 0-1.3 1.2-2 1.6-7.3 3.7-9.2 11.4-13 17.6-22.6 37.6-44.7 75.5-66.7 113.4-5 8.9-9.3 18.1-18.8 23.3-23 13.4-46.6 25.6-70.2 38.2-16.2 8.8-32.7 17.1-48.2 27-9.6 6.2-17.1 6.8-22.7-3.4-5.9-10.8-14.3-18-25.2-23.1-30.7-11.2-26.8 16.7-45.5 22.9-10.1 3.3-17.1 11.5-18.7 22.7-.5 3.8 1.4 10.8.1 11.3-28 13.4-71 33.7-76.1 67.2-.4 2.5 1.3 2.3 3.6 2.1 12-1.3 22.3-7.6 33.2-11.5 16.4-5.2 74.8-18 84.4-1.3 3.5 6.4 1.6 15.1-2.6 22-4.7 7.7-1.3 30.3 6.3 33.8 22.6 11 44.1 24.5 69.8 28.2-23 17.6-60 8-76.8 35.5-2.1 3-2.6 2.5-4.9.3-44.9-51.3-109.8-79.6-175.5-94.5 92.8-77 186.1-152.7 277.6-231.4 38.2-33 77.2-65 115.5-97.8 1.1-.9.8-3.5 1.2-5.3-1.8-.1-4-1.4-5.5-.5-24.7 16.7-45.6 38.7-68.9 56.9-77.1 61.2-152.6 124.6-227.8 188.2-35.7 27.5-69.2 62-106.6 85.8-7.9.3-16-3.8-24-6.1 34.7-28.8 67.3-60.4 104.4-85.8 2.6-1.2 5.7-3.4 4.4-7.3-9.8-7.6-26.6 3.8-38.2 2.9-24 3.4-47.9 10.8-72 14.5-12.4 2.2-24.4 7.3-37.7 6.5 1.2-2.1 1.8-4.4 3.2-5.4 38.7-28.3 75.4-59.4 113.6-88.6 63.7-51.6 127.5-103.3 192-154 9.7-6 3.4-15.2-6.1-10.9C339 103.6 185.2 210 30.7 313.7c10.3-15.2 19.6-33 32.8-47.3 11.8-12.8 17.1-31.1 37.5-37.9 17.7-5.9 33.3-19.1 49-30.1C249.9 133.5 350.4 69.5 450.3 4.7c3.2-3 .2-7.8-4-5.1-6 3.6-12 7.1-17.9 10.8C317.2 79.8 210.2 149 98.5 218.7c16.2-22.2 28.9-40.6 44.7-62.2 7.1-9.8 13-21.6 22.4-28.3 69.8-44.5 145-80.1 215.5-123.4 5-2.5 2.9-8.2-2.7-5.2-33.8 14.3-64.2 35.8-96.8 52.6C246 69.8 213.3 92 177.5 109c22.9-33.2 46.7-65 70.1-97.8 2-2.8 5.5-6.2 2.6-9.5-2.5-2.6-5.9-.4-8.4 1.4-20.3 15.1-40.6 30.2-60.9 45.2-36.3 27-72.8 53.8-108.9 81l-1.5-1.8c44.3-42.6 88.6-85.3 134-129-5.4-.7-7.7-1.7-10.5 1.5-17.7 16.3-35.6 32.3-53.3 48.6-45.3 42.5-91 84.6-135 128.4-3.8 3.7 1.3 12.6 6.7 8.4C85 132.7 154.1 77.1 227.3 24.6c-14.1 22.6-31.6 42.9-46.3 65.2-7.6 10.5-13.7 23.3-23.7 30.5-49.7 30.4-102.3 57.4-153 86.3-6.9 3.3-2.6 12.2 3.7 7.6 44.9-25.1 89.7-48.8 134.8-73.6-41.7 62.2-87.6 119.5-130.9 180.3-5.2 7-8.3 14.5-5.8 22.6 2 6.3 9.8 2.3 14.7 3.8C83.3 352 137.3 389 185.9 426c9 7.2 1.1 10.6.5 15.3-.4 3.5-4.4.8-7 .5-12-1.1-24-3.4-35.9-2.5-30.1 4.1-62.8 7-88.7 24.4-1.5 1.1-5.8 1-3.8 4.1.9 1.3 5.2 1.5 7.3.6 38.9-15.1 81.7-22.1 123.5-18.7-2.8 8.2-4 18.1-14.3 19-19.6 6.2-38.6 14.2-56.7 24-27 17.7-58.1 30.7-77.1 58-6.3 5.5-.4 9.7 4.7 3.5 36.7-34.3 82.4-58.2 128.6-76.7 2.4-.9 5-.2 3.5 2.2-5.8 9.4-6.2 22.4-15.2 29-42.2 32.2-89.5 57.8-128.9 93.6-2 1.9-2.3 4-1.5 5.6 1.2 2.6 1.7-.4 2.6-.8 44.3-26.8 84.7-57.7 127.4-87.2-8.2 15.5-7.1 32.8-17.5 47.1-33.3 43-75.8 77.3-115.3 114.4-2.4 2.2-7 4.8-3.7 8.3 2.8 2.9 6.7-.8 9.1-2.7 39.3-30.6 74.4-65.7 108.8-101.2 1.2 9.1-.8 18.6-1.6 27.8-.1 24.4-16.2 40-32.9 55.4-18.1 18.7-36.6 37-55.5 54.9-10.8 10.2-22.6 19.3-33.8 29-1 .9-1 2.8-1.5 4.2 26.4-9.3 46-35.1 67.2-53.5 17.8-15.7 32.9-34.1 49.8-50.4.6.9 1.7 1.9 1.6 2.7-.8 12.2-1.7 24.4-2.8 36.6-.7 7.5.8 17-3.2 22-26.9 36-66.2 59.4-97.4 91.2-3.7 9 9.7.5 12.3-1.5 27.2-21.5 56.5-41.6 77.3-69.8 1.3-2.2 4.2-3.4 6.4-5.1 1.4 11.1-3 22-1.3 33.3.2 4.1 2.6 7.9-1 11.9-11.3 12.8-21.6 26.5-33.5 38.7-13.8 16.1-33.9 27.5-45.3 45.4 19.8-1.4 63.9-54 78.2-71.7-2.2 20.9 3 40.3-14.6 56.5-18.4 17-34.2 36.8-53.7 52.9-2.9 2.4-4.3 6.7-6.4 10.2 18.6-1 56.3-50.4 71.9-65 1.2 28.9 2.3 34.6-21.7 52.7-15.7 13.7-31.6 27.2-47.1 41.1-2.6 2.3-6.6 5.5-4.3 9.6 1.3 2.3 3.6-.8 5.2-1.8 23.7-14.8 43.1-34.5 63.1-53.7 1.5-1.4 4-4.1 4.1-.2.3 6.8 1.3 15.5-2.2 20.3-21.9 29.7-48 56.3-72.9 83.4-1 1.1-3.1 2.5-.5 4.5 2 1.5 3.7 1.1 5.3-.5 24.6-22.6 45.4-48.3 67.4-73.5-1.2 18.1 2.5 35.3-12.8 52.8-21.7 24.9-42.3 50.7-65.5 74.3-1.9 2-2.4 3.5-.9 5.4 5.6 5.7 21.3-16.9 26.2-20.6 20.4-19.2 37-42.8 53.1-65.1 2.8 7-2.2 14 1.4 21.6 1.9 4 1.8 11.4-.7 14.7-27.6 35.6-56.1 71-90.9 99.9-9.2 6.3-3.3 12.8 4.5 5 35.7-27.4 61-60.5 88.6-96.3-3 17.5 2.5 33.7-10.6 47.8-12.2 13.2-20.3 29.9-31.2 44.5-6.7 11.1-38.5 38.5-33.3 50.6 2.5 2.3 4-.3 4.9-1.4 20.7-29.5 46.9-54.9 64.7-87-3.1 23.8-1 47.9-4.5 71.5-3 20.5-5.9 41-7 61.6-.2 4.7-2.2 13.6 1.3 13.8 8.7.3 2-10.6 6.6-15.3 1.6-37.3 10.4-73.2 11.1-110.6-.4-29.7 5.7-58.6 7.9-88.6 9.2 23.5 13.3 50.4 29.2 70.3.2-1.5 1-3.2.6-4.5-9.6-30.4-23.4-60.2-30.7-91.2-1.2-12.9-.8-26-.7-39 .9-7.2-.7-21.9 3.6-26.9 14.4 35.1 23.2 76.5 47.6 107.3-11.2-30.4-25.2-61.7-36-93.1-4.8-13.3-14.4-25.1-12.8-40.7 1.8-18.1 1.6-32.6 2.7-51.4 13.6 40.8 22.4 79.9 45.6 113.2 2.8-.9 1.2-3.5.2-5.5-15.4-31.4-23.2-65.7-36.4-98-2.4-6.6-7.9-12.9-8-19.4-.3-27 2.3-54 2.4-81.1 0-1 1.3-2 2-3 5.3 10.1 4.5 23.2 10.2 33 15.9 37.8 20.1 76 39.7 113-9.8-50-27.8-97.7-37.6-147.7-1.9-9.3-10.7-15.7-10.2-25.3 1.7-28.6 4.2-52.5 6.5-82.2 17.5 51.4 23.8 102.8 39 152.1 5.8-3.9-.7-19.9-1.8-29.6-1.2-11.8-3.8-23.4-6.2-35-7.8-33-12.8-66.6-22.8-99.1-2.1-5.8-6.3-11.5-4.7-18.8 5-19.5 7.2-39.9 13.2-58.9.7.9 1.8 1.7 2 2.7 3.7 18.4 5.5 37.3 9.2 55.7 5.4 21.8 12.4 48.2 19.6 68.5 1.4-1.8 3.7-.3 1.5-9.4-2.8-15.8-5.1-31.7-7.7-47.5-3.1-18.5-6.1-37-9.6-55.5-2.4-12.7-8.6-25.5-7.5-37.8 3.8-25.6 21.3-48.5 27.6-73.8.4-1.7.3-7.6 3.5-5.9 5.5 2.9 11.1 6.9 9.7 15.3-2.3 13-4.2 26.1-5.7 39.3-1.3 24.4-7.8 77.8 5.2 97.1 0-44.9 2.3-89.7 6.9-134.4.1-1-1.1-3.2 1.4-2.7 5.9 1.1 21.3 22.1 20.4 27.9-5.3 49.4-9.3 101.2 4.3 149.6 4.9 1 2.7-3.2 2.6-4.4-3.2-47.7-4.9-96-.3-143.7 9.3 7.2 15.4 18.3 23.3 27 1.4 1.8 3.4 5.5 3.1 5.8-8.8 6.9-5.3 17.4-6.5 25.7-3.1 20.8-3.4 42-4.5 63 0 18.4-1.5 49.4 7.9 64.8 4-1.2 2.1-5 2.1-7.6-4.1-31.4-1.2-63.5-1.5-95.2.3-13.5 2.3-27 3.8-40.5.2-1.8 1.7-3.4 2.5-5.1 5.4 5.4 10.6 11.8 14 18.5 3.3 7.4 13.1 13.9 10.5 21.3-6.1 17.4-9.8 35.5-12.2 53.3-1.1 8.5-.6 18.8-1 28.3-.5 20.7-6.4 54.1 3.9 72.6 1.2-50 5.3-100.2 14.6-149.7 6.8 13 13.9 25.8 20.2 39.1 2.5 5.2 7.5 10.5 5.3 16.4-10.1 29.6-21.9 102.2-13.6 131 4.2-8.2 4.1-18.6 5.4-27.7 1.9-32.9 6-65.6 12.4-97.9 5.7 14.5 10.9 27 15.5 39.7 3.1 8.8 8 18.1 7.3 26.7-5.7 32.4-20.2 63.4-16.7 97.4 6.9-28.3 13.7-56.7 20.6-85.1 3.7 10.8 7.7 21.1 10.8 31.8 3.8 13.1-5.5 24.2-6.5 37-1.4 24.3-11.8 49.3-5.1 73.8 9.2-30.6 10.1-61.5 16.4-94.5 2 6 3.8 9.8 4.5 13.9 3.3 18.1 16.3 33 11.5 54.2-5.7 24.9-9.9 50.9-4.1 77.5 1.2-1.7 3.1-3.3 3.3-5.1 3-23.4 3.3-47.5 7.5-70.6.8.7 2 1.3 2.3 2.2 5.5 16.7 10.5 33.7 16.6 50.2 1.5 4.1 3 12.4 8.4 10.7 4.6-1.4 1-8.1-.4-12.5-2.9-8.7-5.3-17.5-8.1-26.7 24.6 16.8 37.4 43.6 58.3 63.1-9.5-24.1-27.1-43.4-44.8-61.9-5.2-5-15.4-4.3-16.9-11.6-3.9-18.3-11.3-35.4-17.2-55.7C421 806.9 443 833 468 859.8c1.4 1.3-.7 5 3.1 4.3-8.9-29.2-35.7-49.8-54.9-72.7-7.4-8-18.1-14.1-22.6-23.4-7.6-15.7-11.4-33.3-17.9-53.2 31.8 31.7 55 66.3 82.3 97.6-20.9-37.2-44.3-73.5-78.8-99.7-2.2-1.7-5.5-3.4-6.1-5.7-3.8-14.1-7.3-28.3-13.5-41.7-1-2.2-.3-5.1-.4-7.7 30.4 17.3 51.1 49 73.1 75.8 5.5 5.9 12.6 23.3 20.1 24.6-9.4-11.1-12.4-25-20.5-36.5-17.5-24.8-37.4-46.6-61.3-65.3-5.4-4.3-14-1.9-17.1-9.7-4.8-12.3-6.7-25.8-14.6-37-1.5-2.1-1.5-5.2-2.2-7.8 24.7 14.4 46.7 33.6 69.7 50.5 11.6 9.1 21.8 20 32.7 29.9 1 .9 2.7 1 4.1 1.5-21.9-32.4-57.3-57.9-90.3-80.3-8.6-7.8-22.5-7.9-27.1-21.6-3.2-10.9-11.7-20-15.5-30.6 30.6 13.9 60.1 33.5 84.3 57.4 6 6 10.8 13.2 20.7 19-21.9-34.9-53-59.7-89.8-75.2-24.3-10.7-34.9-31.5-48.4-50.4 29.8 10.4 57.5 29.4 85.1 45.3 8.8 5.5 16.9 13 30.2 16.4-8.5-8.7-18.2-16.2-28.7-22.4-13.7-8-26.1-18.9-40.5-25.3-15.5-6.8-29.9-16-46.6-20.5-14.1-3.8-18.1-20-32.8-28.3 44.3 6.2 82.2 20.2 118 40.7-24.4-27.5-63.1-35-97.2-44.3-12.2-2.8-26.5.8-34-13.6-10.2-8.4-19.5-16.4-30.4-26.2 51.6 5 102.3 12.5 147.2 39.7 1.4.9 3.4 3.2 4.9.5-5.3-11-25.9-18.1-36.8-23.7-27.5-12.1-56.7-16.6-86.1-21.3-16.4-2.6-34.8 3.9-49.1-11.4-43-32.6-93.8-62.3-149-67.1 12.3-4.1 25.9-3 38.5-4.1 12.7-2.3 25.6-5.5 38.4-5.3 44.8 3.2 90.9 1.6 134.4 13 67.3 19 115.8 78.7 151.6 135.7 12 23.2 21.7 47.7 32.3 71.6 2.5 5.6 8.5 13 5.1 17.1-6 7.4.8 6.6 3.4 9 7.4 7.5 5.7 20.1 10.7 29 6.9 15.5 6.7 32.5 12.3 48.4 8.3 27.7 12.7 57.3 18.5 85.8 1.6 10.8 1.7 22.8 5 32.3 14.6 53.4 16.2 108.3 25.4 162.6.8 4.2 1.2 9.5 5 9.2 3.8-.4 2.9-6.3 2.7-9.9-.4-17.7-4.5-35.8-3.1-53.3 38 46.3 64.8 100.3 103.8 146.3.1-12.7-8.9-19.9-14.3-28.6-12.8-20.8-26.7-41-40.3-61.2-11.5-16.9-23.6-33.6-35-50.7-7.7-11.5-21.1-19.9-20.9-36 .3-19.6-5-38.4-8.2-60.3 19.3 28.3 38.9 51.2 57 79.5C566 890 580 908 595.2 925.3c.9 1 2.8 1 4.3 1.5-1.4-7-5.3-12.5-9.5-17.9-26.3-35.8-48.2-74.8-75.8-109.6-7-8.8-18-15.4-20.7-26.5-4.2-16.8-5.8-34.3-8.5-50.8 37.4 33.1 64.2 80.6 107.8 106.7-4.3-10.3-15-17.5-21.9-26.3-28.3-29.7-56.1-60-84-90.2-2.2-2.3-6.6-3-6.5-6.9.3-14.7-6.3-27.9-7.3-43.4 33.8 33.5 65.6 67 102.1 98.1 1.5.8 3.5 4.9 6 2.7 2.1-1.8-1-4.2-2.6-5.8-33.5-35.8-68.6-70.1-104.4-103.6-10.5-9.7-8.6-22.7-12.9-34-3.5-9-5.5-18.4-8.2-27.7 13.4 15.6 31.8 26.8 45.2 42.4 13.8 16 29.1 30.2 50.4 42.7-14.6-20.4-31.5-33.5-45.9-49-16.8-19.3-39.7-34.2-55.4-54.1-11.8-31.4-21.8-55.6-37.5-88.4 36.4 34.8 66.1 70.6 101.5 100.3-19.6-35.2-53.2-60.3-79.5-90.4-10.1-10.3-23.8-17.5-32-28.9-27.6-40-59-77.8-98.7-106.3 29 7.6 55 21.9 81.3 35.5 29.5 17.2 51.1 44.6 74.3 69.1 48.7 57.3 83.2 126.1 109 196.5 30.9 83.8 51.3 172.3 58.7 261.3 1.2 35.4 8.9 69.8 10.3 105.1 1.3 28.1-.3 56.4 1.6 84.5 4.1 71.3-14.1 141.5-3.5 212.5 1.5 27.9 1.6 56.2 15.2 81.7 2.2 4 20.7 16.1-1.5 18.8-22.6 2.6-45.3 4-68 4.1-64.1 0-130.3-1-191.8-20.1 40.9-19.4 76-49.5 110.3-79.2 38.9-32.7 85.7-62.8 101.7-114.1C638.4 1101 558.7 967 447.1 930.2c-49.5-18.8-107.1-14.5-151.5 15.2-20.8 13.8-34.5 35.3-52 52.5-17.2 16.9-33 35.4-48.4 54-27.3 31.5-71.3 66.5-63 113.6 13 77.8 56.3 147.3 119 195-36.1-9.8-67.7-34.5-98.3-55.8-21.6-14.8-42.9-29.7-62.3-47.4-15.6-14.3-29.9-29.7-43.8-45.7-12.6-14.5-27.5-26.9-36.5-44.4-1.5-2.9-4.4-5.8-8.4-4-16.3 9.2 79.1 102.1 92.4 111.6-9.6-.4-97.4-6.3-94.3 5.7 1.2 4.6 8.1 2.2 12.2 2.3 22 .3 44.1 0 66.1.2 9.2.1 19.5-1.4 27.2 2.2 12 5.7 22.3 15.1 34.7 24-34.1-2.4-64.2-2.8-97.7-3.2-14.2 1.2-28.7 1.8-42.6 3.8-5.1 3-2.3 5.9 2.2 5.1 49-.7 99.5 4 148 .5 6.5 4.4 13.9 8.7 18 14.9 2.2 3.3-5.1 7.7-8.6 11.3-4.1 5.1-5.2 12.8-13.5 11.3-31.4-1.4-62.8-5.6-94.3-2.3-14.5 1.6-29.1 2.6-43.6 4.4-3.8-.3-11.2 5.6-3.6 7.7 11.1-.6 22.2-.7 33.1-2.3 36.8-4.8 75.1.1 111.5-1-.6 7.1-2 14.4-1.6 21.6.3 5.7-.5 8.2-6.7 7.8-44-3.3-88-4.8-132-4.2-8.7.4-9.1 9.6 0 8.2 45-1.5 90.1 3.1 135 3.3 7.8-.1 9.3 2 10.6 7.3 1.4 5.7-.2 15.1-3.4 15.1-45-.5-89.8-1.2-134.9-1.8-5.6-.5-14.3-.8-14.3 5s9.1 4.8 14.3 4.9c42.2.3 84.4.2 126.7.1 5.3 0 7.7-.3 4.7 6.4-4.6 7.6 1 23.4-5.8 21.6-45.3-1.1-90.3-3.9-135.6-3.8-4.8.5-9.4 7.5-1 6.9 19.8.8 39.5 1.6 59.3 2.3 23.8.9 47.6 2.3 71.4 2.4 7.3.1 12.5.5 14.8 8.3 2.7 8.9 13.5 25.1-4.4 22-42.8-4.3-85.9.5-128.5.4-3.4-.2-12.1-.3-11.7 3.8.5 5.2 7.9 3.8 12.7 3.8 39.1 1.5 78-1.4 117-1.7 23.2-1.3 24.3.6 23.5 24.2-.1 2.9-.9 3.6-3.7 3.4-31.2-1.5-62.5-1.4-93.6-4.4-11.9-.8-52.3-6-58.3 4.3 49.3 3.6 99.9 7 149.8 6.2 14.7-2.4 1.1 12.1 13.6 17.3 1.2.6 1.9 2.4 2.8 3.7-52.9-1.6-106.7-1.2-160-.9-3.2 0-6.8.8-6.8 5.5.1 5.3 3.2 6.8 7.6 6.5 34.1 0 68.2-.3 102.4.1 248.3 3.1 496.7 1.4 745.2 1.9 5.7.7 7-7.5 1.3-8-64.5-4.7-129.3-.9-194-2.2-156.9-3.7-313.8-2.5-470.7-1.9 10.4-6.3 13.4-21.6 30.5-18.6 52.1.4 105.6-2.5 158.1-1.5 143.6-3.1 287.3-5.1 431-8.7 4.5.1 6.1-6.7 0-5.4-107-3.5-214.4 3.3-321.3.7-32.9 3.2-65.4 3-98.1 1.9-54.1 2.4-108.6 1.4-162.8 2.6 29-15.9 49 1.7 72.7-17.6 10.4-8.4 22.6-9.5 33.5-8.6 143.2 3.5 286.5.3 429.8 1.2 5.3 0 14.6-1.4 14.2-4.3-.9-6.5-7.8-2.6-12.6-2.8-135.4-5.8-270.9-1.5-406-3.2-9.4-.4-23-.2-25.9-3.1 28.7-17.2 52.4-5.6 81.1-1.4 12.9.6 25.1-2.6 37.4-10.4 6.1-3.9 13.6-7.5 20.5-7.6 29.2-.4 57.7 2.9 86.2 11.6 7.9 2.3 16.1 3.5 24.3 3.4 41.2-1.8 79.1-22.9 120.9-18.2 12.1.7 24.2-.9 36.3 1.6 2.9.6 10.3 3.1 10.6-3.5.2-5.7-5.8-6-10.5-6.1-13.8-.2-27.8.7-41.4-1-6.1-.8-11.8 2.8-18.3.2 78.2-44.1 77.8-10.3 144.3-21.1 19.6-5.8 51.6-26.3 53-47.9-1.9-5.1-8.2-2.7-12-2-18.9 3.7-37.6 5.1-56.8 1.9-17.3-2.8-35-5.7-52.4-5.4-17 .2-2.7-7.4-3.7-12-1.5-13 14.9 9 60.5-8.6 63.1-20.3 116-63.6 154.8-116.5 1.6-2.5.2-6.3.3-9.2-1.1.4-2.5.6-3.3 1.3-8.2 8.4-15.8 17.4-24.6 25.2-24.2 21.3-49.4 41.4-76.8 58.4-31.4 23.2-68.7 37.1-108.1 36.1 25.6-56.5 10.3-120.7 12.9-180.7-3.7-110.2-13.3-220.1-12-330.4-.4-48.8 4.4-98 2-147-.6-62.1 6.7-124.8 23.7-184.5 12.3-59.9 45.4-118.6 95.4-154.3 25-17.7 54.8-27.1 82.3-40.2-14.8 32.3-48.5 51.6-69.3 80-21.8 26.7-41.8 54.8-59.9 84.1-11.7 19-21.8 38.9-29.1 60.1-.3.8.5 2 .9 3 5.5-3.2 8.5-12.3 12-17.8 31.8-59.5 73-113.6 118.7-163.1-1.6 5.7-4.3 10.5-6.9 15.3-7.9 14.6-10.3 32.2-19.2 45.4-29.3 44-63.1 83-79.8 135 13.7-16 21.2-34.9 33-52.2 13.5-19.1 23.8-42.4 39.5-59.1-3.4 13.2-6.7 27-9.4 40.5-3.3 12.1-1.2 25.5-13.1 35.4-20.7 22-82.5 103.4-79.8 130.5 24.8-43.3 51.6-85.3 85.3-125.8 2.3 41.3-14.4 55-35.6 85.7-11.5 17.8-21.3 36.7-33.4 54-10.3 16.9-23.7 35-26.6 54.5 32.6-46.2 59.4-93.8 91.1-142.3-1.9 19.1-4.5 36.5-4.6 53.8-13.5 1.3-15.5 14.3-20.9 22.6-25.7 41.1-51.4 81.3-64.6 128.9 30.2-47.5 51.1-101.3 85.3-146.3 2.2 19.1-.8 38.8-1.1 58.1-.6 10.9.4 22.2-7.7 31.6-17.2 20.7-30.7 44.3-44.7 67.1-8.1 13.8-15.3 28-17.2 44.5 20-37.3 42-73.3 67.3-107.3v39.3c0 7.5 1.3 15.4-3 22.2-16.8 26-35.2 51.3-49.6 78.7-8.3 15.4-19 31.2-20.7 48.5 1-.7 2.4-1.1 3-2.1 6.7-11.7 13-23.6 19.9-35.2 15.4-25.9 31.8-53.3 49-77.7 0 16.5.5 33.9-.2 51.2-.3 7.7 2.8 15.7-3.6 23.3-26.6 34.2-46.2 74.4-61.2 114.9-.7 2-1.4 4.4.8 5.2 2.7 1 2.2-2.1 2.9-3.4 19-34.8 34.8-75.5 59.3-106.3 0 16.3-2 34.3.5 51.6 3.5 23.9-8.4 41-20.6 58.3-16.5 25.9-31.8 52.9-40.3 82.5 2.3 2.3 7.1-6.8 7.6-8.8 15.7-29.9 32.5-60.5 50.7-88.7 0 20.5 1.2 40.8-.6 60.9-.6 7.1 2 15-2.4 21.8-18 26-33.5 53.6-46.4 82.4-5.2 11.9-13.2 23.4-12.3 37.7 20.6-33.7 33.5-71.2 58.5-104.7-7.1 40.4-14.3 76.8-20.3 116.8-4 21.1-10.3 41.3-16.1 61.8-.7 2.4.4 5.4.7 8.1.9-.4 2.4-.6 2.7-1.3 5.5-14.7 11.5-29.3 16.3-44.3 9-25.4 12.8-52.4 17.3-78.5 13.4 14.2 8.8 91.5 7.7 114.2-.3 2.2.7 4.3 3.3 4.7.7-.1 1.3-.6 1.6-1.2 3.6-31.5 5.5-63 2.1-94.5 1.2-21.3-14.5-28.1-11.8-45.8 4-28.7 8.9-52.7 11-82.5 9.5 37.5 21.1 67.1 27.3 103.8 2.9 20.2 8 40 9.7 60.3.3 3.4 2.4 6.7 3.7 10.1 2.3-3-1.2-5.5-.8-8.3 3.8-31.2-5.9-62.3-12.6-92.5-5.1-19.8-10.7-39.3-17.7-58.4-5.2-14.2-10.4-28-8.9-43.8 2-26 .7-48.5 2.8-75.3 31.4 59.4 45.4 122.2 63.4 186.1l-.1.1c2.3-1.2 3.4-2.2 2.7-5.6-6.5-33.4-11.8-67.2-23.3-99.3-5.3-17.5-14.8-33.7-20.4-51.1-33.5-61.9-20.1-36.8-22.7-105.8 3.5 1.6 3.4 3.3 4 4.7 9.1 20.9 18.8 41.5 27.2 62.7 11.4 28.5 21.8 57.5 32.8 86.2.6 1.5 2.8 2.5 4.2 3.7-9.3-50.6-36.2-100.1-53.7-149.1-5.7-15.2-15.8-28.9-13-46.6 3.5-22.2 1.8-40.3.6-64.1 33.8 58 50.2 120.3 76.4 180.3 1.5-9.3-3-16-5-22.9-13.5-47.3-31.2-93.3-52.8-137.5-5-12.7-17.3-22-16.9-37.1.3-11.3-1.8-23.1.7-33.9 2.1-9-2.9-18.1 2-25.9 32.5 50.8 52 108.1 77.5 162.6 4.2-15.1-6.5-28-11.8-41.4-13.8-36.1-28.9-71.8-47.3-105.8-5.5-11.1-16.3-20.8-18.2-32.2-3.1-18.8-.8-38.6-.8-62 32.6 43.5 56.1 86.6 76.4 131.6-4.3-43.7-36.7-84.9-60.5-120.8-6.5-8.5-14-16.4-12.1-29.1 4.7-24.1 3.5-49.8 10.1-73.2 7.6 8.1 8.3 20.3 13.3 30 11.7 24 24.1 62 37.6 82.5-5.7-33.8-26.8-63.5-36.2-96.1-3.5-11.8-17.9-19.2-12.8-34.1 4.9-20.1 8.8-36.7 14.7-58.5 6 20.2 10.4 37.8 16.5 54.8 9.8 27.9 13.5 58.2 24.8 85.1 3-18.6-7.5-37.6-9.6-56.1-2.5-19-12.3-35.7-15.3-54.3-2.5-15.3-16.6-27.5-11.1-44.8 4.9-14.8 10.8-29.2 17.9-43.1 11.9 42.3 20.4 85.7 29.8 128.8 6.7 3.9 2.2-11.5 3-15.1zM173.3 320.1c-7.9 4.4-20.4 1.5-30.7.2-24-2.8-47.4-1-70.9 4.3-15.1 3.7-30.9.2-46 4.9C154.9 242.2 282.4 151.9 413 66.9c-75 64.4-155.5 122-231.9 184.7-5.2 3.6-15.8 9-11.1 16.6 3.8 5.8 10.4 2.3 16.3 1.1 15.7-3.3 31.6-5.9 47.5-8.1 4.9-1.1 10.3-6.3 15-.7-27.1 17.2-48.3 43.2-75.5 59.6zm16.8 1.5c-2.9-.7.2-3.1 1.2-4 21.1-19.1 44.3-36.1 65.1-55.5 16.4-13.6 37.9-11.6 58.7-16.1-26.7 23.4-52.4 43.7-79.7 65.5-16.5 17.6-23.1 17-45.3 10.1zm562.6 93.8c6.2 20-5.5 39.5-14.9 56.6-7 11.6-18.4 19.3-29.3 30.5 4-21.1 10.1-39.2 5-59.1-3.5-9.8 6.7-7.8 10.6-9.9 8.4-4.4 17.7-7 23.9-14.9 1.2-1.4 3.1-2.1 4.7-3.2zm-106-36.7c22.3 14.5 72.9 7.3 88.2-16 5.6-3.9 16.4 14.1 14.4 21.8-.8 25.6-42 36.3-62.4 38-16.2 2.5-31.2-2.5-45.3-10.1-23-10.1-64.1-50.2-30-70 6.6-1.2 4.8 6.4 6.7 9.9 6.2 12.4 17.7 19.3 28.4 26.4zm5-212.4c6.9-8.6 19.4-12.9 29.6-18.8 15.3-8.8 30.8-17.2 48.1-26.8-23.2 56.5-44.2 109.7-64 166.7-6.5 18.6-25.6 24.7-35.3 39.8 6.7-14.6 3.9-26.1-9.5-34.9-12.2-8-26.1-4.7-39.5-5.5 23.9-40.3 43.7-82.6 70.6-120.5zm-116.1 61.5c32.1-17.9 64-36.4 97.2-52.1-18.7 37.8-44.1 71.9-63.1 109.7-3.3 6.2-11.3 2.1-16.7 1.4-10.7-1.4-23.2-1.4-26-13.6.1-10.2 5.9-16.5 4.4-24.4-.4-2.2.1-5.6-1.2-6.6-14.6-11 2.1-12.5 5.4-14.4zm-99.3 61.8c-13.7-2.5-27.3.4-40.7 2-14.9.6-28.9 5.9-41.8 13.4 17.3-16 35.6-30.9 58.6-37.9 14.7-3.5 46.6-21.4 58.2-6.7 5.5 10.3-3 18.5-9.5 25.4-6.7 12.4-16.1 5.3-24.8 3.8zm87.2 88.5c-96.7-35-32.6-32.3-58.8-75.1-4.1-5.8 1.5-7.9 4.3-10.5 24.3-20.4 12.2-52.2-20.8-46.6-10.1 4.8-22 3.6-31.7 9.6-8.3 1.3 9-27.6 25.6-28.2 5.3-1 7.5-2.8 7-8.2-.9-10 5.9-11.7 13.3-10.5 23.8 2.4 23 33.5 45.6 34.2 11.9.8 15.8 5.6 10.3 16.2-16.3 33.2 26.4 42.5 49.2 39.8 16.4 1.6 32.3-4.2 47.4 4.1 6.4 3.5 9.2 9.5 7.4 14.8-4.6 24.8-24.7 8-33.3 37.5-.5 1.9-.3 3.5-2.9 3.7-15.6 1.2-28.3 8.8-39 19.4-8.4 8.4-16.7 2.1-23.6-.2zm-65.1 67.6c-4.6-9.5 6.4-14.3 13.6-18.5 15.1-8.8 33.4-6.9 49.1-14 27.4-13 34.4-38.1 65.6-46.2 5.2 25.7 19.6 45.6 42.5 59.6-35.5-1.6-41.5 22.1-67.5 36.4-17 8.6-51.5 16.1-70.2 10.1-14.1-5.8-26.8-14.1-33.1-27.4zm37.7 46.6c-2.3-2.6-.6-3.3 2-3.2 13.6.2 27.2.4 40.3-3.9 3.7-1.2 4.6 1 4.5 4.5-.5 24.7 9.3 46.2 23.5 69.9-28.5-20.3-47.2-42.5-70.3-67.3zM567 632.5c-11.3-36.1-31.2-67.3-47.7-101.1 11.8 11.2 44.7 44.5 60.9 38.2 3-3.7-.4-7.3-2.3-10.4-12-19.6-15.7-41.8-21.2-63.7-5.4-21.3 13.2-18.6 22.3-23.8 10.3-5.9 17.3-13.8 24.4-22.7 20.9-10.7 47.6-18.6 71.2-9.8 5 3.6 24.5-1.8 19.1 8.3-29 38.4-66.9 71.1-92.6 111.5-.9 2.8 1.8 6.2 4.3 5.2 7.9-3.5 14.6 3.4 23.2.3-21.7 23.6-41.9 44.4-61.6 68zm67.8 288.1c1.7-35.4-7.5-65.3-11.5-99.2-1-9 6.9-12.5 14-14.1 33.8-8.2 68.5-13.1 101.6-24.2 1.2-.3 2.8.4 4.2.6-31.6 49.1-73.7 87.8-108.3 136.9zm93.9 89.7c-25.9 25.3-52.3 50.4-79.2 74.5-.5-1-1.6-2.3-1.3-3.1 4.8-23.7-12.2-30.4 15-46.3 27.2-24.2 58.9-45.8 86.5-69.3 10.7 22.8-8.9 31.9-21 44.2zm24.2-8.2c5.7 21.7-5.6 36.1-19.9 50.4-26.8 31.2-55.1 60.9-84.2 89.8-1.4-13.9-1.7-27.6-.1-40.2 1.4-8.5 10.8-13.1 17-19.1 29-27.7 57.4-56.4 86.7-83.7.1 1 .3 1.9.5 2.8zm-105 169c3.7-33.2 34.9-46.1 51.9-69.6 16-21.3 37.3-40.1 53.6-61 16.9 39.3-48.2 90.3-63.1 127.2-7.3 14.1-19.9 12-29.4 18.2-4.7 1.5-9.2 3.2-13.7 5.2.2-6.6 0-13.3.7-20zm48 4c20.1-29.6 42.6-59.1 59.6-90.4 8.6 24.5-4.2 44.6-14.3 66-6.3 13.4-21.1 10.2-29 19.2-3.5 2.6-11.9 14.2-16 10-1.6-1.3-1.5-3-.3-4.8zm58.6-539.2c-.2 19.7-.2 24.1-18.7 18.5-10.9-.5-21.6-3.7-31.8-5.7 18.3-22.2 34.3-47 54.4-67.3.5 18-3.1 36.4-3.9 54.5zm-.9 37.4c-4.7 13.7-2.1 26-2.5 38.2-.5 15.8-1 31.7.2 47.4.7 9.4-2.9 12.1-11 14.1-33.6 8.3-66.1 18.8-100.3 24.8 38.6-39.9 75.5-81.3 113.6-124.5zM637.2 938.9c-2.3-11.1 8.1-15.2 13.1-22 32.3-45 69.8-82.3 100.7-129-.7 16.5-1.6 31.4-2 46.3 0 26.2 8.6 58-22.4 69.8-28.6 13.6-56.3 30.5-85.3 43-3.8.6-3.5-5.1-4.1-8.1zm113-31.4c-4 17.4 0 21-20.1 26.8 6.1-10.9 10.9-23.5 18.4-34 .7 2.3 1.3 4.8 1.7 7.2zm-96.4 41.7c27.1-12.2 50.4-23.2 77.8-37.5-5.7 9.2-10.3 16.3-14.5 23.6-1.9 3.2-6.1 6.1-2.8 10.7 3.6 5.1 8.3 3.2 11.5.6 5.9-4.7 13-6.4 19.6-9.2 3.3-1.4 2.9 1.2 3.8 3.2 5 11.2 1 18.2-8.9 24.4-31.9 22.4-62.2 47.4-92.6 71.7-2.3-25.3-3.6-50.8-7.9-76.1-1.2-6.1 8.4-8.7 14-11.4zm-6.6 422.2c-.7-3.7-.2-7.5-.2-10.6 22.4.5 45.4-1 67.6 1-26.1 33.4-31.1 15.2-63.5 20.5-1.3-3.7-3.2-7.2-3.9-10.9zm6 24.4c-6.2-15 21.1-1.4 27.6-5.6 7.6-.1-16.1 18.8-17 22.5-1.9 3.6-10-14.2-10.6-16.9zM442.4 1432c-8.1 8.8-31.9 12.7-80.3-4.9 28.6-.2 54.9-4.4 80.3 4.9zM305 1418.7c-21.6-.9-43.3-4.2-64.9.2-7.5 1.5-8.7-7.6-14.7-8.9-2.2-.5-4.1-2.3-6.1-3.5-5.1-3.1-10.8-7.1-8.9-13.3 1.6-5.1 8-1.8 12.1-1.9 18.9-.4 37.9.8 56.7-.5 14-1 25.6 4.7 37.9 8.8 16.4 5.5 32.8 11.3 53.2 18.4-24.3-3.2-44.6 1.6-65.3.7zm10.5 8.3c-8.8 7.6-16.8 14.2-24.5 21.1-5.8 5.1-12.2 1.8-18.4 2.2-7.8.4-13.5 5.7-19.9 9.3-15.6 8.3-11.2-16.4-13.7-25-2-11 5-11.3 11.7-9.2 21.9 3.9 42.3.7 64.8 1.6zm83.1-36.1c-47.4 12.4-87.8-14.6-128.6-38 29.8 4 49.8 16.3 79.2 13.1 22-1.2 52.8-4.3 65.5 18.3-5.3 2.2-10.6 4.7-16.1 6.6zm-148-374.8c83.8-176.4 320.6-58.5 344.7 99.5 21.8 104.5-48.8 203.2-160.2 189.9-131.3-12.1-232.7-164.6-184.5-289.4zm-42.2 35c9.4-12.8 20.9-24.1 33.6-38.4-27.2 62.9 2.2 93.1-31.9 72.8-9.3.4-9.2-10.8-12.3-17.1-4.7-9.3 6.6-11.9 10.6-17.3zm-27.8 30.8c5.9-7.6 13.6-12.6 13.4-.1 1.8 10.7 10.5 12.2 17.8 12.9 14.8 1.3 19.1 9.1 19.4 22.6.2 8.5 3.3 16.9 5.2 25.8-15.1-10.5-26.5-26-45.1-31.4-5.3-1.6-11.6 2.3-15.9-2.9-9-11-4-19.3 5.2-26.9zm-18.2 22c3.8 10.7 8.8 16.8 23.2 16.3 19.9-1.1 31.5 25.1 50.8 29.1 7.6 2.3 4.7 11.5 8.6 16.6.2.3-.1 1 .1 1.5 1.2 3 6.2 7.2 3.4 8.6-3.8 1.9-9.4.3-14.2.1-38.8.5-51.2-44.7-86.4-49.3 2.5-9.3 7.9-16.5 14.5-22.9zm-16.6 54.1c-1.7-8.9-4.7-32.3 10.2-20.2 20.3 11.2 33.2 33.6 55.3 41.8 27 10.1 38.4-9 53.2 24.6-74.3 1-68.2-36.2-113.3-37.3-6.3.5-4.9-6.2-5.4-8.9zm9.6 41.2c-3.3-7.2-4.9-15.8-6-23.8 28.4-2.7 49.6 34.5 82.6 35 35.8-.7 39.9 2.2 60.2 30.9 1.5 1.6-6.2-.3-7.7 1.3-41.9 11.6-67.9-44.7-120.5-32.1-7 1.7-6.4-7.2-8.6-11.3zm11.4 28.1c-4.4-14.5 7-5.8 9.9-8.3 41-4.1 67.2 43 104.4 33.2 24.5-8.5 32.4 13.3 47.6 21.5 5 3 10.2 6.3 14 10.8-16.9 9.1-35.1 2.4-49.3-8.1-16.3-9.1-22.8 13.5-37.5-9.4-11.7-12.7-25.2-14.2-40.6-10.3-18 4.5-43-11.4-48.5-29.4zm21.5 36.8c1.6-.3 3.5-1.4 4.9-1 12.1 4.1 24.6 2 36.8 1.5 14.5-.6 20 11.4 28.8 18.2 18.8 13.9 21.1-8 39.3 6.5 9.2 5.4 17.9 8.6 28.9 5.9 21.9-5.4 41.6 1.4 61.7 10.4 38.5 15 79.6 13.6 120 3.1-14.9 11.9-28 22.9-41.8 33-1.8 1.3-7.1-1.5-10.5-3.1-36-14.8-71.6-4.3-107.1-26.6-7.2-3.5-14.6-1.6-21.7-.8-25 3-48.3.6-68-17-7.2-6.4-15.4-9.2-25-9.6-11.1-.4-22.8.7-32.9-2.7-5.9-1.7-9.1-11.5-13.4-17.8zm60.6 71.5C234.8 1322 221 1308 205 1292c19 7.1 37.6-1.8 53.6 14.8 14.7 15.1 37.1 17 58.6 15 38.4-6.9 58.2 21.8 97.8 16.6 12.1-1 23.9 2.5 35.4 6 3.4 1 6.3 3.5 13.1 1.7l-40.4 31.6c-5.6 4.4-5.5-3-6.4-4.2-9.5-12.8-23.9-13.6-37.6-16.7-19.2-4.3-38.6 1.9-57.6-2-17.5-2.6-35.8-12.3-53.2-12.5-9.2 3.6-14.2-1.6-19.4-6.7zm25.4 47.3c-68.8-5.3-57.1 17.8-66.4-30 20.5 12.1 42.8 20.3 66.4 30zm462 4.6c-.9 1.6-2.1 3.1-.1 4.2 2.5 1.4 5.9 3.7 8 3 24.8-8.3 48.4 2.8 72.5 4.2 17.8 1.9 35.3-2.4 52.9-3.3-16.7 22.3-43.2 33.5-70.4 32.8-13.6-.4-27.1-5.3-41-5.5-45.5-2.1-79.6 31.3-122.5 40.5-144.7 37.1-56.4-57.2-206.3 13.2-8.1 2.4-17.1.9-25.1-2.1-24.7-9.4-48.2-5.8-71.1 5.4-17.8 8.6-31.6 25.2-51.5 28.8-32.8 3-55.5 2-80.6 27.3-7.1 6.3-14.7 14.7-24.1 11.9-7.7-2.3-8.1-13.1-7.6-20.6 1.1-16.4 1.2-32.4-4.3-48.1-3.4-9.6-8.4-18.6-9-29.1-.8-20.5 16.9-39.5 5.2-59.2-10.2-19.8.5-34.7 10.9-50.3 5-7.4 8.1-3.2 12.6-1 22.3 10.8 17.7 31 15.8 49-3.6 32.5 31.6 20.2 29.2 55.2-2.3 18 10.2 38.2 29 24.3 19.7-15.7 31.5 4.2 51.2-24.3 9.9-12.9 27.2-18 41.2-10.5 28.6 13.9 67.2 27.9 96.2 8.2 11.4-8.5 24-6.4 36.8-5.5 28.2.4 56.4 4.5 84.6 1.9 8-1.1 16.7 1.8 24.6.5 23.6-3 47.8-2.8 70.6-9.8 19.6-23.6 44.7-43.2 65.7-65.7 9.6-11.4 17.7-24.1 28.8-39.4-8.3 23.9-11.2 45.4-22.2 64zm26.1-108.5c-1.6 8.9-1.3 18.2-1.4 27.2 0 3.5-2.6 4.3-4.2 6.1-29.6 26.7-15.8 44-56.5 40.7-15.7 0-31.5-3.6-47.2 0-9.2 2.1-8.5-4.6-9.1-9.9-.9-11.6-6-23.5 11-18.9 22.7 0 45.4.5 68.1.7.9 0 2.5-1.8 2.5-2.7 0-1.8-.9-3.2-3.4-3.3-27-1.3-53.9-3-80.9-4.3-1.8-13.5 6.3-26.2 22.3-22.1 10.9 2.9 23.8-1.7 34.7 1.3 15.9 4.3 31.6 2.6 47.4 3.3 2.2.1 6 1.4 6-2.4 0-3.6-2.6-5.7-6.6-5.7-13 .1-26 .8-38.9-2-13.4-2.9-27-2.8-43.1-2.3 14-5.8 25.9-10.6 37.6-15.6 5.1-2.2 8.1-8.1 14.5-8 11.3.1 22.5.6 33.8.2 13.7-.7 15.4 6.1 13.4 17.7zm.3-43.9c-.9 3.9 0 18.9-3.6 19.8-11.4-3.6-23.2-1-36.1-2.3 12.9-7.5 24.6-14.5 36.5-21 2.9-1.6 3.3 2.1 3.2 3.5zm-1.8-21.5c.1 9.7-9 12.5-15.1 14.9-20.8 8.2-36.5 24.3-55.8 34.5-16.8 8-34.3 13.2-48.8 25.8-.4-20.8.5-41.2 3.8-61.3-1.6-19.1 8.2-35.4 31.9-35.6 19.5-.3 34.2-8.8 50.6-16.9 21.6-10.6 21.9-15.7 32.4-41.5-.4 26.6.6 53.3 1 80.1zm-1.2-649c-17.2 30.5-48.1 53.6-66.3 83.6-7.6 15.1 9.2 11.1 13.8 12 12.4 2.3 24.3 7.6 37.4 7.6 2.4 0-1.1 5.3-2.6 6.9-39.1 41.3-77.8 83.1-116.4 124.8-4.4 6-7.3 3.3-8.4-1.6-3.8-16.7-6.8-33.6-10.3-50.3-10.7-25.1-3.6-24.9 11.2-41.3 20.7-29.1 45.4-55.5 66.7-84.2 30.8-39.5 59.4-79 91.3-117.7-5.5 21.9-7 43.2-16.4 60.2zm111.2-381.3c-.4 3.6-.9 12.1-6.1 11.7-3-.3-1.7-2.8-1.8-4.3-.2-22.7-.2-45.5.1-68.2 0-2.8-2.5-8 2.2-8.3 10.8 1.7 4.4 28.2 6.2 36 1.6 11.3-2 22-.6 33.1zM577.2 1316.1c-2.9 15.5 34.5 60.7 43.5 78 1.9 2.9 8.4 5.5 5.1 9.6-2.8 2.9-5.3-.4-6.8-2-20.8-19-31.5-42.4-45.8-66.6-3.1 27.3-4.7 53 3.5 78.3.3 1.1-1.6 3.8-3 3.8-16-20.8-10.8-51-10.5-75.9.2-8.6 4.8-16.9 3.6-25.7-25.3 13.6-42.6 36.8-61 57.9-5.9 6-7.1 16.1-14 21.3-1.9-14.6 9.5-27.3 17.8-38.2 15.5-22.8 39-36.8 59.6-54.1 7.4-4.4 10.7-46.7 18.9-41.3 2.2.8.9 3 1.4 4.3 1.7 4.7 4.1 9.1 7 13.2 9.3 12.6 13.3 28.4 24.4 39.9 2.4 2.4 3.6 6.7 1.8 10-38.8-30.4-30.5-81.8-45.5-12.5zm-260.7-98.8c110.2 124.7 296.1 55.9 253.9-118.6C546 1008 449 929.9 353 955.6c-115.6 34.1-108.6 186.6-36.5 261.7zm-43.1-151.1c10.4-100.5 120.6-132.5 199.3-82.1 48.5 29.4 84.7 80.9 92.3 137.4 17.6 72.4-36.4 152.8-114.3 149.4-102 .3-189.2-104.9-177.3-204.7zm167.9 14.5c-18.3 42.7 19.4 82.6 58.9 93.5-7.9 30-24.7 52.3-52.1 67.3-3.2 2.3-11.7 11.6-3.5 12.9 33.5 11.1 66.6-9.7 86.5-35.7 70.1-76.6-43.3-218.7-89.8-138zm94.1 44.1c21.8 53-18.9 124.5-79.2 121.7 26-17 51.5-43.3 51.7-75.3-1.3-9.9-12.8-7.8-19.4-11.7-19.3-11.4-37.4-22.4-39.8-48.2-1.3-14.4.7-26.8 10.8-37.2 31.4-21 67.8 21.9 75.9 50.7zm-138.5-16.9c35.1-1.5 47.7-42.2 30.8-69.5-.8-1.4-6.3-6.1.5-7.1 6.3-.9 13.1-1.3 19.4 0 22 4.1 46.9 10.7 67.1 14.9 3.2-10.9-26.8-34.3-35.7-40.1-45.3-33.4-143.9-44.9-152 30.5-.4 12.1 4.1 23.1 9.1 33.5 9.8 20.2 31.4 40.6 60.8 37.8zM373 992.5c47.9-11.4 91.9 11.6 127.1 42.5-27.8-7.8-52.5-15.8-80.4-9.9-22.6 4.3 24.7 33-3 63-57.6 43.9-119.7-77.2-43.7-95.6zm-74.2 133c14.9 51.4 59.8 127.6 123 111.2 51.8-25.5 19.8-94-22.6-112.7-44.3-20.4-43.8 24.5-53.9 16.3-16.3-16.4-29.3-35.7-38.3-57-5.9-11.6-.6-25.8-8.3-36.3-1.2.9-3.4 1.7-3.5 2.8-6.3 25.5-3.7 50.8 3.6 75.7zm49.2 25.8c4.9 2.9 7 3.3 10-3.9 22.9-53.6 91.8 21.3 78.2 59.5-2.8 11.2-16.5 21.4-30.9 22.1-28 1.3-43.6-18.2-60.3-35.7-23.7-28.2-38.3-63.7-43.4-99.9 11.7 22.5 23.5 44.6 46.4 57.9zM152.3 386.1c-11.5-15.1 68.7-6.3 75.8-4.8 26.7 4 55.1 10.7 76.3 27.7-48.7-14.9-100.4-27.1-152.1-22.9zm144.3 458.8l-.6-.9.6.9zm-72.9-86.3c9.7-12.5 6.6-26.2 4.6-39.4-2.4-16.1-2.3-32.7-7.4-48.3-.9-2.7 1.2-4.1 2.6-5.8 2.4 3.1 6.5 5.9 7.1 9.3 14.4 35.5 30.6 70.2 42.7 106.8 5.5 21.5 20.2 40.7 22.6 62.7-26.8-40.2-38-87.5-58.6-130.6 8.2 31-1.6 64.4 15.1 94.7 15.4 27.8 27.7 57.3 39.4 87.4-21.4-24.6-30.6-56.8-47.2-83.9-.5 1.4-1.8 3-1.4 4 2 5.7-1.4 11.7 1.8 17.3 4.5 7.9.9 17 1.1 25.2.4 16 10.5 26.3 16.3 39.1 6.8 15.2 14.9 29.8 22.3 44.7.4.8-.2 2.1-.4 3.2-15.6-9.2-25.4-38.6-34.7-54.7-1.4 29.2 4 58 5.3 87.2.1 2.8-2.5 8-3.9 8-3.2.1-3.5-4.3-3.8-6.9-5.4-46.2-8.7-87.2-12.8-135.3-15.1 39.1-22.7 74.9-36.1 112.2-4.8-17.7 21.5-108.9 35.7-121.7 3.9-3.6.4-14.2.4-21.5-.4-16.3-1.5-33.2-4.2-49.1-15.8 31.2-26.9 64.3-39.4 96.8-.6 1.4-.6 4.7-3.3 3.8.8-28.7 15.9-57 25.5-84 3.1-7.4 6-15 10.7-21.2zm-71.3-372.4l-.1-.1h.1v.1z"/></g><g><path d="M52 1548v15l-37 37h946l-37-37v-15H52M52 52V37.7L14.3 0H0v1600h15l37-37V52m872 0V37.7L961.7 0H14.3L52 37.7V52h872m52-52h-14.3L924 37.7V1563l37 37h15V0z"/><path d="M961 1600h15V0h-14.3L924 37.7V1563l37 37H0V0H961.7M52 52V37.7L14.3 0m.7 1600l37-37V52h872m0 1496H52" fill="none" stroke="#333" stroke-width="2" stroke-linecap="square" stroke-miterlimit="3"/></g></svg>