<svg xmlns="http://www.w3.org/2000/svg" xmlns:xlink="http://www.w3.org/1999/xlink" viewBox="0 0 976 1600"><style>.st2{fill:#333}</style><path d="M960 22v1556c0 3.3-2.7 6-6 6H22c-3.3 0-6-2.7-6-6V22c0-3.3 2.7-6 6-6h932c3.3 0 6 2.7 6 6z" fill="#fff" id="Paper_Backing"/><defs><path id="SVGID_1_" d="M960 22v1556c0 3.3-2.7 6-6 6H22c-3.3 0-6-2.7-6-6V22c0-3.3 2.7-6 6-6h932c3.3 0 6 2.7 6 6z"/></defs><clipPath id="SVGID_2_"><use xlink:href="#SVGID_1_" overflow="visible"/></clipPath><g clip-path="url(#SVGID_2_)"><path class="st2" d="M903.9 1604c-15.9-8.7-15.5-6.3-14.7-25.7.8-23.7-.6-45.3-2.2-69-7.2-23.9 28.9-29.3 38.5-42.5 17.9-12.8 34.4-31.8 51.9-42.5 7.5 36 .1 136.3 2.6 175.7 4.4 8.5-74.3 2.2-76.1 4zm-206.7 0c-53.8-81.6-100.5-176.4-128.2-271.4-6.3-17.5-32.1-140.9 9-105.5 34.6 17.7 13.7-14.2 10.9-31.4 167.1-9.7 108.8 77.3 136.4-125.5C738.8 961.8 756.8 846.1 788 740c4.8-22 84.5-243.5 86.3-142.9 7.8 51.1 26.9-12.5 30.1-22.8 8-10.8 17.4 13.6 24 22.5 93.3 191.5 37.2 516.5 51.7 726 0 6.5-.2 50 0 57.7-6.6 9.7-21.8 13.8-29.8 19.8-13.5 8.6-29 14.7-42.7 23.1-7.8 6.4-14.9 11.6-20.1-6.3 5-168 2.7-338.5 3-505.3-.9-11-.5-19.5 4.2-27.8-1.5-14.1-7.7-31.2-.9-46.9-1.7-16.5-5.9-37.2-.9-54.7 3.5-6.4-5.5-14-1.5-20.5 1-3.2.7-4.2.3-7-4.8-14.9 3.4-24.4-.5-36.4 1.4-21.5 2.6-83-13.5-31.3-.5 4.5.9 10.9 2.8 15.3-.9 5.8-7.6 11.3-4.7 17.1 1.6 33-3.3 70.6-6.5 103.1.9 29.6-2.5 60.9-7.4 90.7.2 14.4.5 31.3-3.8 46.9-2 10.9 1.9 24.1-1.7 36.1-4.5 20-1.4 40-4.3 60.6-2.7 8.7-8.7 11.8-1.8 21.3 5.4 14.5-3.5 29.6-4.5 41.8 4.7 39.8-2.6 78.1-3.9 118.3-3.7 47.2-5.8 96.1-5.3 145 2.9 27.1-.2 50.3-29.6 24.1-32.8-25.6-67.3-49.1-95.6-79.5-14.9-11.8-33.8-19.9-44.4-37.7-3.6-4.4-10.9-4.9-14.5-10-11.5-5.7-10.5 8.5-5.4 14.5 11.3 11.4 24.4 24.8 32.8 40.1 21.8 25 48.7 47.2 67.2 75.2.1 2.7 1.9 5 4.5 5.6 11.1 5.3 21.8 19.2 29.3 29.4 15 13.6 31.9 26.5 47 40.4 8.1 17.2.7 34.8 2.3 51.4-2.2 8.5 2.9 17.8-1.9 26.1-2 2.6-1.6 6.3.9 8.4 5.4 5.3.5 18.8 2.1 27.2 6.1 13.8-131.6 1.4-134.1 5.4zM0 1604c-11.5.7-.1-316.2-4-320.3 1.3-7.1 11.5-4.4 11.8 2.1 17.7 34.7 45 62.8 71.3 90.3 7.8 8.2 2 15.1 4.1 22.5-.7 13.5 2 28.4 1.5 42.6-3.5 20.7 6.6 46.2-3.6 64.8-6.6 5.6 6.3 28.7 1.4 42.8-2.8 14.7 3.8 31.8 1.2 46.8-4.8 13.8-72.3 6.8-83.7 8.4zm129.4-4.6c-12.1-2.3-3.7-18.6-5.6-26.3-8.6-10.1 6.5-22.8 2.6-32.6-6.1-11.2-1.6-32.3-4-45.6 1.5-17.7-4.5-38.4.7-56.5 3.5-9.3-11.2-23.8-2.3-33.8-4.5-22.6 23-40.4 30.7-60 1.8-12.3 16.5-20.7 19.1-31.6 5.8-10.4 10.1-27.7 19.9-34.4 2.8-1.3 4.2-4.4 3.2-7.3-.1-9.9 9.6-17.2 10.8-27.9-7-34.8-64.5 69.3-79 74.1-16.4-6.6-11-77.7-8.4-92.9 3.6-6.6-4.4-14.7-2-23.7-2.9-13.7 6-28.9-2-40.1 2.9-36.2-4.9-69.1-3.6-104.6-1.1-10.9-8.2-85.1-15.9-51.7-5 25.1-2.4 49.8-4.4 75.2-2.1 30.6 3.3 61.9-1.8 93.5 1.4 34.4 3.6 72.8 0 108 16.3 107.3-61-17.8-91.3-33.6 14.7-102.9 31.7-224.4 84.6-313.1 8.3-6.7 8.8 10 11 14.9 13.2 19.2 17.2-28.6 30.1-20.2 28.2 40.7 39.4 121.1 46.6 173.4 12.1 75.2-15.9 59.6 54.8 75.3 7.6 15.3-36 55.7 13.8 34.6 7.6 2.3 21.7-21 26.3-9-3.3 87.8-11.3 187-25.6 274.1-22.1 112.7 13.3 107.8-108.3 121.8z"/><path d="M592.6 1233.4c-56.8-12.5-54.6-84-14.9-50.7 4.8 9.7 31.8 46.8 14.9 50.7zm-376.8-14.5c-13.3-19.1 28.2-65.2 49.6-63.4 34.8 14.7-26.5 63.4-49.6 63.4zM97.1 958.4c-14.1-17.5-24.6-74.8 6.3-81 37.9 6.7 7.6 66.1-6.3 81zm786-343.6c-17.7-16.7-15.6-56.8-3.7-82.5 40.2-34 29 69.2 3.7 82.5z" fill="#ffeb5c"/><path class="st2" d="M835 1604c-3.4-.2-4.4-3.3-3.9-6.3-.5-35.3.9-67.9-.3-106.1-44-44.7-91.9-90.4-134-138.4-8.3-13.4-78.3-81.2-63.7-87.6 26.9 11.5 191.4 180.8 204 150.7 1-241.9 25.1-483.6 43.3-724.4 1.3-6.7 1.4-30.4 10.4-18.2 1.8 148.9-2.5 300.8.1 450.8-1.1 99.6-.3 197.1-2.3 296.5 6.6 25.4 83.6-49.5 91.3-32.7 4.5 30-9.4 39.9-28.9 55.9-21.8 20.5-49.3 32.7-63.9 54.6 2.6 34.2 3.7 69.5 4.8 103.1 1.2 4.9-55.4.7-56.9 2.1zm-747.5 0c-8.6-5.3-2.9-23.2-4-32.9 2.3-58.4 1.3-120.2 3-178.3 1.3-14-12.2-23.2-21.7-32.7-24.6-20.4-38.2-55.3-62.1-72.3-2.8.3-6.9-.3-6.8-4 2.5-3.6-5.6-43.3 5.2-40.3 20.9 32.5 47.3 61 78.1 84.3 18.6 5.4 6.6-37.3 10.7-48.5-6.6-256.3 15.7-443.2 25.4-36.2-5.8 144.6 15.9 56.8 73.6-1.3 42.5-50.7 4 31.2-6.6 47.2-17.2 46.6-67.9 84-62.1 136.3 2.5 57.6 1.7 115.6 3.3 172.9 5.1 11.4-32.4 3.6-36 5.8zm552.9-468.2c-17.8-6.5-26-87.4-41.8-67.5-8.2 20-35.3 84.1-44.4 29.1-7.3-12.5-1.2-37.6-13.6-44.9-21 3.4-44.1-54.1-44.6-72.3 7.4-10.4 70.1 11.8 61.9-10.5-36.3-41.6-24.2-36.2 13.4-35.5 10.3-3.2 21.6-5.4 32.5-8.1 27.6-11.5-98.4-50.4-43.5-49.9 15.2 1.6 28.2 3.9 43.1-4.1 4.7-2.1 4.2-9.5-.7-11-16.6-1.5-75.3-60.3-46.2-59 96.3 26.6 184.3 123.5 169.5 227.7-42.1-12.1-15.9-15.4-29.8 60-.1 10.5-9.8 4.3-13.6-.6-42.8-64.5-20.4 26.8-42.2 46.6zM146.2 805.5c-29.3-39.5-5.6-125.5 14.4-164.9 33.2-37.3 21-94.9-9.7-129.5-3.5-15 25.4 5.7 34.5-2 10.7.6 1.7 14.8 8.8 18.7 3 1.9 6.4 5.6 5.9 9.7 37.6 62.6-4.3 121 14.4 178.3-.2 10-17 17-23.7 24.7-6.7 2.9-7.3 13.5-14.6 16.7-7.8 6.4-8.7 20.1-19.4 25-1.2 7.6-3 19.7-10.6 23.3z"/><path d="M182.9 506.6c-92.7-7.6-45.2-105.8 24.9-96.1 71.2 9.3 29 92.9-24.9 96.1zm728.7-36.1c-163.4 6.1-331.1-93.7-411-233.2-32.9-64.6-53.8-121-61.5-196-3.4-10.8 2.4-30.6-9.1-36C402.2-19.4 977 3.6 976-4c11.5-.8.1 465.1 4 469.1-1.1 6.9-6.7 2.2-10.8 1.7-16.9 1.3-39.7 3.9-57.6 3.7z" fill="#d81e1e"/><path d="M995.5 1370.7c-4.4-2.2-14.6 7.7-19.5 9.7-21.8 13-43.7 26.6-67 36.8-4.8 2-13.6 17.1-17.7-1-1.2-5.2-1.5-11.2.1-16.1 1.9-5.7-1.5-14.9 1.7-16 35-17.8 69.2-37.9 97.5-65.3 5-2.4.6-7.1-3.1-3.5-30.7 23.7-65.5 41.8-95.9 65.3 4.1-10.4-2-36.4 3.4-42 27.9-17.2 53-38.7 74.2-63.7 2.4-3.2 9-9.8 5.7-13.3-4.9-2.8-7 5.8-10.6 9.3-22.2 21.4-44 43.9-70.9 59.7-1.1-17.1-.3-34.2-.4-51.3 0-1.5-.7-2.9 1.7-4.4 19.5-13.7 80.1-53.2 86-73.4-2-.1-3.5-.1-4.8 1.3-26.8 20.4-52.2 42.9-79.7 62.2-3.1 1.9-2.5-.2-2.5-2.1.5-15.8.8-31.7 1.3-47.5 0-1.3-.1-3.6.5-3.8 12.7-4.7 21.8-14.5 32.5-22 16.4-12.4 43.8-28.3 48.5-49.1-8.9 1.1-12.2 9.5-18.5 14.8-19.8 16.9-40.3 34.8-62.8 47.2-1-18.2-.3-36.4-1.1-54.6-.1-2.6.9-2.3 2.3-3.1 26.3-15.2 54.5-31.6 71.1-57.7-9.3.7-11.8 7-17.8 12.3-18.5 11.7-34.3 28.1-54.2 37.3-.7-13.4-1.7-28.2 0-41.3 21.4-11 76.5-48.3 78.4-72.3-8.5 2.9-12.5 12.7-19.3 18.3-18.2 16.7-36.9 34.1-58.9 45.4-1.3-10.6-1-21.4-.8-32.1.2-6-.4-10.2 7-15.5 26.8-19.1 53.5-40.4 68.8-70.8-1.3-3.8-4.8-3.1-6.3.2-18.1 23.6-39.9 43.6-62.7 62.5-1.6.9-6.8 5.3-7.5 2.5 1.8-12.1-.6-24-.8-36 0-1.6-1.3-5.5 2.2-7.6 16.3-9.7 31.4-21.3 45-34.5 11.6-11.2 21.4-24.3 31.5-37 1.6-2.4.3-6.4.5-9.1-24.2 26.6-48.2 54.3-79 73.3-1.4-8.8-.6-18-.4-27 .4-6.9-3.6-16.5 2-20.1 26.8-18.2 69.5-49.5 80-80.5-7.3.8-10 8.2-14.3 12.8-21 21-41.3 44.1-67.3 58.8 1.9-20.6-5.2-39.1 16.5-53.5 22.5-16.5 43.2-38.4 56.3-64-3.7-1.3-5.7 1-7.9 3.4-19.8 21.3-38.4 44.3-62.6 60.9.1-14.8-7.2-32.9 11-44.3 26.3-17.2 48.4-42.1 65.1-68.6 2.4-3.1 5-10.1 2.2-12.9-2-1.1-2.9 1-3.8 2.9-19.6 29.9-46.6 55.2-74.7 77.3-1.3-9.8-.7-19.8-.7-29.6.1-4.7-1.2-10.9 1.2-13.7 22.9-23.4 49.9-44.4 67-72.8 2.4-5.7 14.6-19 8.6-24.2-2.2-1.7-5.2 3-7 6-18.3 30.2-41.8 56.9-69.3 79.1-2.7-5.5.5-10 .3-15.8-1.3-8.9-3.8-22.5.8-26.6 25.1-21.9 68.2-66 77.5-97.6-6.6 1.3-16.8 19.5-22.5 25.2-16.4 21.8-32.9 43.8-53.8 61.7-1.9 1.6-2.7 1.9-2.7-1 0-14.8 0-29.6.2-44.4 0-.9 1.1-2.1 2-2.7 16.6-11.2 30.1-26.2 42.6-41.6 6.2-9.5 16.3-18.4 17.5-30-21.1 19.5-37 45.9-61.2 63.1-1-6.9-3.3-13.4-2.4-19.5.8-5.2-2.3-12 2.5-15.6 14.2-11.9 50.1-41.2 46-59.3-13.1 19.1-30 34.5-46.6 50.7-.5-4.2-1.6-7.6-.2-11.3 5.7-10.3 10.1-21.4 13-32.8 3.3-13.5 3.6-27.5.9-41.1-2.8-14.9-24.1-21.9-31.9-7.8-17.2 28.8-8.7 58.3-4.2 89.5-9.8-11.4-20-19.8-24.4-33.8-3.3-4.8-3.3-19.7-11.3-17.8-6 2.6-1.2 7.7-.4 11.6 1.8 9.2 5.4 18 10.6 25.9 20.7 30.9 35.8 15.2 26.8 59.9-23.8-15.8-39.2-39-59.2-58.3-1.2 2.4-3.6 4.6-1.3 7.6 14.7 19.6 30.5 39.2 49.4 54.7 7.5 5.8 14.3 9.7 10.4 20.4-2.7 6.9 6.8 20.4-2.5 24.3-24.5-16.8-46-37.6-63.6-61.5-3.8-7.5-9.8-2.3-5.7 4.2 14.8 24.9 36.1 44.2 58.9 62 4.5 3.5 15.1 3.5 11.5 13.6-3.3 14.6-.8 25.3-1.5 42.5-12.7-17.2-29.7-25-43.1-40.5-13.4-15-26.4-30.7-34.9-49.1-.9-2-2.9-3.2-5-2.3-6 .4 10 28.6 12 31.6 16.5 23.9 38.7 42.7 59 63.2 3.5 3.6 11.4 2.8 10.9 9.8-.7 9.7-2.3 19.4-3.5 28.8-27.6-20.7-53.7-43.9-74.5-71.4-4.5-4.3-6.6-12.6-13-14.1-2.7-.1-2.3 2.7-1.7 3.7 19 40.3 57.1 67.5 89.5 95.7-2.6 10.2-1.1 20.6-1.6 30.8-.1 2.4.3 4.6-3 1.8-28.2-25.2-60.3-47-80.9-79.4-3.1-4.3-6.2-8.7-9.5-12.9-1.2-1.6-1.5-5.5-4.6-3.2-2.3 1.7-2.2 4.4-.2 7.3 7.4 10.6 13.7 22.1 21.8 32.2 18.3 22.9 40.7 41.6 63.3 60.2 4.3 3.6 12.6 4.7 11.2 13.7-1.5 9.7-3.1 19.5-3.5 29.4-.3 6.4-1 4.7-4.6 1.8-19.6-14.4-39.4-29.5-55.3-48-10.1-12.1-20.2-24.2-29.2-37.2-4.7-5.1-6.5-13.4-12.6-16.8-4.6 11.6 6.3 19.8 11.7 28 19.6 32.4 48 58.8 78.4 81.3 4.5 3 13.5 5.2 10.6 13.5-2 10.5-1.7 20.4-4.5 30.7-36.8-22.2-68.4-52.6-94.2-87-4.9-5.1-8-17.5-13.7-19.6-5 13.1 8.4 23.1 15 32.5 21.7 31.2 51.4 56.1 81.9 79 4 2.7 12 2.6 11.6 9.6-.5 10.9-2.4 21.8-3.6 32.6-.3 2.8-1.1 2.1-3.1 1.1-44.1-25.6-82.4-60.1-112.6-101.2-2-5.2-6.4-3.5-6.1 1.3 5 12.2 13.4 22 22 31.6 26.3 27.7 54.7 55 88.3 73.8 3.9 1.8 10.1 4.7 10.2 7.2.4 12.1-.8 24.2-1.8 36.3-.2 1.8-.9 6.1-4.4 3.9-35.5-21.3-70.5-44.1-97.8-75.8-40.9-41-16.3-69.8-84-130.2-26.1-23.2-80.2-62.3-116.3-57.1-.7.1-1.9-1.1-2.6-1.9-38.3-50.2-98.3-73-160.1-73.4-22.2-2.5-44.6-3.1-65.3 3.6-34.9 12-100.5 12.2-103-35.6 6.5-55 29.1-115.8-.8-167.6-12.7-18.4 16-25.7 24.4-39.3 5.3-7.2 8.5-16.8 15.4-21.7 17.4-12.3 36.2-22.6 54.3-33.9 34.2-22.1 68.5-43.8 103-65.3 16.4-10.4 32.8-20.8 49-31.5 6.5-3.5 6.3-13.3-3.1-10.6-51 17-101.6 35.3-152 54.1-27 9.5-54.1 20-81.3 28.7-10.1 2.7-21-4-31.9-.7-12.5 3.7-24.8 7-36.4 14.2-30.6 21.7-30.4 43.5-33.9 76.8-1.5 13-4.2 26.3-1.9 39.3 5.9 30.6 31.3 59 28.7 91-7.4 62.1-42 128-15.4 189.6 23.3 59.8 81.8 105.3 145.9 112 9.5.8 17.5 4.3 23.6 12.5 21 26.5 38 55.3 52.8 85.5 16.2-14.7-20.4-73.2-33.6-89.3 49.4 12.8 95.5 25.2 143.9 39.5 6.6 2.2 16.3-.5 19.3 7.7 8.1 22.5 19.2 43.5 30.2 64.7 5.5 10.6 18.7 16.7 21.1 27 3.1 13.6 8.8 25.9 13.2 38.8 5 14.5 20.3 21.2 26.6 11.6 10.7-15 18.1-31.8 24.8-48.8.8.9 2.3 1.8 2.3 2.7 0 8.4 2.6 16.3 5.2 24.1 4.4 11.6 18.5 55.4 32.7 53.7 2-.9 3.6-2.7 4.2-4.9 4.2-20.7 13.2-40.4 12.3-62.1 0-1.6 1.5-3.1 2.3-4.6 9.2 7.4 30.4 42 41.3 21.8 1.2-25.7 6.8-50.6 1.8-76.3 4.7 3.5 8.2 6.1 11.8 8.7 21.8 17.7 11.5-21.4 24.6-4.5 24.4 32.5 54.8 62 91.3 80.7 4.7 2 11.8 6 12 9.5 1.3 17 .6 34.1.6 53.1-43.1-36.2-79.3-70.1-110-115.3-1.2-1.9-2.8-4.6-5.6-3.2-13.4 7.4 48.1 68.3 55.8 77.9 14.3 15.5 30 29.6 46.9 42.1 5.3 4 14 7.9 10.8 17.8-4.3 13.9-.1 28.4-3.1 42.5-35.6-24.6-65.5-59-92.2-93.2-7.7-9.9-14.2-20.7-21-31.3-2.8-3.1-4.4-10.3-9.7-8.7-5.3 3 6.2 18.5 8.3 22.7 27.5 42.1 60.8 81.2 100.7 111.9 4.3 3.4 12.3 6.7 12.4 10.2.5 17.8-1.1 35.6-2 54.5-5.6-9.2-14.3-13.8-20.8-20.6-26.1-29.9-53.9-58.6-76.9-91-6-8.2-11.5-16.7-17-25.2-4.3-5.5-6.3-13.4-13.6-15.8-.7 29.7 82 114.5 104 140.2 9.4 10.9 26.4 15.7 23.7 37.2-3.9 28.1.3 56.5-1.3 85-27.9-60.8-56.1-121.3-95.8-175.3-1.9-2.5-5.2-9.1-8.5-6.5-3.7 2.9 1.1 7.7 3.3 11.2 36.8 54.7 64.1 113.3 94.1 172.2-20.1-11.2-37.6-27.9-56.4-41.6-5.8-4.6-14.5-7.1-15.9-15.6-2.4-25.3-1.3-55.7-14.5-78-3.9 5.6-1 13.4 0 19.8 4.7 17.7 5.8 36.1 7.4 54.8-9.9-8.5-20.1-16.5-29.3-25.5-5.6-5.5-.1-13-1-19.7-3.3-34.3-9.7-68.7-23.4-100.6-.5-1.9-2.3-4-4.2-1.6-3.2 5.5 4 22.3 5.2 29.2 8.8 27 14.8 55.7 14.9 84.1-11.3-4.9-19.9-14.8-29.8-22-6.6-5.5-10.7-11.5-9.9-21.4 2.7-26.1-5.1-51.3-13.1-75.9-1.8-3.8-1.6-10.6-5.9-12.2-2.6 0-.8 2.3-.9 3.5-.2 2.6-.2 5.2 0 7.8 5.6 27.4 14.1 53.7 12.4 82.2-8.6-8.3-20.6-14.9-23.9-24.5-4.3-12.3-2.1-27-6.2-40.1-4.7-13-4.5-30.8-17.4-39-.9 9.4 4.2 19.1 6.5 28.3 5 14 6.5 28.6 7.9 43.9-6.2-4.9-10.8-11-16.3-16.1-3-2.7-7.2-4-8.5-8.5-5.4-18.4-11.8-36-25.3-50.2-21.2-22.3-46 7.7-30.8 29.8 23.8 33.2 59.4 25.4 66.8 50.8-17.7.6-36.5-3.3-54-6.8-9-2-17.9-4.5-26.5-7.6-1.2-.4-2.8.5-4.2.8 9.8 16.6 68.9 22.7 88.1 21.6 1.8-.1 4.9.3 5.3 1.4 4.5 11 14.7 17.7 20.4 28.4-32 1.4-63.9-1.1-94.3-11.4-4.3-1.4-8.5 2.3-3.3 4.8 5.6 4.2 12.3 5.7 18.9 7.4 21.1 5.8 43 8.2 64.9 7 10.2-.6 21.4-2.3 28.9 7.4 5.2 8.8 12.3 17.9 17.8 25-40.2.8-83-1.6-121.2-16-2.3-.1-8 4.1-2.6 5.9 11.7 7.1 24.9 9.5 38.1 11.9 25.3 6.4 51.2 5.3 76.9 7 5.9.8 12.4-3.6 16.9.7 9.8 9.3 18.7 19.7 27.9 29.6.9.9 2.3 2.5-.4 2.5-42.7 1.2-85.8 2.6-127.4-8.8-7-.6-14.3-6.3-20.8-2 22.9 17 71.1 18.4 99.7 20.5 12.3.4 24.5 1.8 36.8-.9 7.1-1.5 16.6-3.6 21.7-.3 8.2 5.4 13.7 15.1 20.3 22.9 1 1.2 2.6 2.4-.6 2.7-22.6 3-46 3.8-68.6 4.9-13.5 1.3-26.7-1-40.2.2-10.5.9-21.5-3.3-32.4-6.2-3.2-.1-9.4-4.6-10.7 0-3.2 7.2 45.9 13.1 52.5 13.8 29.3 2.7 58.1 1.1 87.1-2 11.3-1.2 23.6-8 32.3 6.6 3.5 6.9 12.5 10.3 15.9 17.5-16.6 5-35.7 7.2-53.2 8.7-38.5 3.5-76.9.4-115.3-3.5-2.2-.2-5.2-2.9-6 .9-.7 3.1 2.8 4 5 4.2 11 .8 21.5 4 32.3 5.8 21.9 3.5 43.8-.4 65.7 2.8 19.9.8 41-5.5 61.1-7.4 6.3-1 14.1-5.4 18.3-3.1 9 5 16.2 13.4 24.3 20.6-47.8 12.6-96.9 17.8-146.1 16.4-10.4 1-21 .3-31.2-2-3.2-.7-8.5-.7-9.1 2.4-1 4.6 4.1 2.8 6.8 3.7 40.3 7.3 83.5 7.9 123.7-.2 14.1-2.3 28-5.6 42.1-7.5 9.7-1.3 20.3-13.6 29.3.1 6.1 9.3 1.5 20.5 2.2 30.8 0 .2-1.1.3-1.7.6-60.4 17.9-124.5 11.8-186 3.6-1.9-.2-3.7-3-5.8-.7-5.9 10.5 19.9 7.1 25.5 10.2 51.4 9.5 105 9.8 156.3-.7 6.7-1.1 16.1-5 10.9 5.5-.1 30.9 5 24.5-27.1 28.3-40.3 7.3-81.6 4.5-122-.6-2.9.4-19.2-4-17.9 0 .1 1.5-.5 3.4 2.3 4.7 24.5 6.8 50.7 6.8 75.9 9.5 24.1-.8 49.2-.1 72.8-5.7 23.5-7.2 16.5 8.1 17.2 24.5-1.1 5.3 7.3 8.4 8 2.4-.5-36.3 1-73.1-.3-109.2-2-9.5-11.7-13.4-18.2-19.6a1766.12 1766.12 0 01-183.2-201.5c21.1 13 36 34.8 56.7 48.5 15.5 11.3 28.2 25.5 43.7 36.8 31.8 25.7 61.7 53.8 97.9 73.6 2.5 1.6 5.7 4 9.3 1.8.6-53.2 1.4-107.8 2.6-161.6 2.5-38.8 6-77.5 6.5-116.3 4.7-39 6-78.3 7.3-117.5 3.2-40.1 9-80 10.1-120.2.2-19.2 5.6-38.4 5.6-57.3 1.6-61.2 6.4-122.3 14.2-183 3 91-1.1 182.1-1.8 273.2 3.5 159.3 1.5 318.9-.6 478.3-.6 15.8 7.1 8.1 11.9 6 18.3-8.2 36.1-17.6 53.3-27.9 7-6.1 47-25.2 45.2-33.8zm-402.3-141.3c-14.8.3-62.5-40.5-31.6-51.4 5.1-1 10 2.8 12.8 7 3.2 2.7 25.3 45.7 18.8 44.4zm-84.8-452.6c32.2 25.3 44.5 69 83.3 86.5 1 .4 1.5 1.9 2.2 2.9-36.3-.2-73.9-9.3-108.5-19.6 3.9-3 9.6-.9 13.7-3 4.9-2.3 13.8-5.6 12.4-9.5-3.9-10.5-11.2-19.4-20.6-25.4-7.6-4.9-13.7-12.2-23.2-14.2-1.3-.3-2.2-2.7-3.2-4 28.1-9.1 1.6-30.1-10.1-44.6 19.6 6.1 37.2 17.4 54 30.9zm115.7 194.1c-.1 1.4-.8 2.5-2.2 1.6-14.6-11.2-33.8-20.3-42.3-37.1 11.2-1.7 22.3-4.2 33.1-7.7 7.8-2.5 6.2 6.3 7.3 9.5 3.7 10.8 5.1 22.3 4.1 33.7zm-22.7 22.7c-.7 5-1.9 10-2.9 14.9-6.1-3.3-54.7-60-59.8-70.4 10.8 0 20.9-.1 31 0 3.3 0 1.3 3.1 1.9 4.6 9.3 23.3 37.8 22.8 29.8 50.9zm-6-70.5c-7.2-.4-15 0-21.2-.1-26.2 5.3-50.8 1-75-4.4-4.4-1.3-66.3-17.1-57.4-21.2 22.8-10.4-8-25 3.5-29.7 16.5-4 5.9-13.2 1.6-21.7-.2-.8 0-1.7.6-2.3 2.6-2.7 4.6 1.5 6.6 2.9 23.6 16.8 50.7 23.9 78.5 30 5.9 1.3 10.3 8.7 15.9 12.4 15.2 10 30.6 19.6 46 29.4 1.7.9 3.6 4.6.9 4.7zm-222.3-52.8c9.8-5.5.8-15 .2-22.8 19.5 10.5 37.8 22.4 61.1 22.7 1.1.1 2.9 1.8 3.2 2.4-2.5 6.2 6.9 8.7 4.4 13.8-.6 1.2-6.9.4-10.2-.7-20.2-2.2-41.2-3.8-58.7-15.4zm20 40.5c-26.7-6.9-50.9-18.3-72.2-41.1 17.4 5.5 34.6-1 47.2 13.4 3.6 4.1 10.3 6.2 16 7.8 9.8 2.7 7.9 12.6 12.5 18.5 1.4 1.7-2.3 1.7-3.5 1.4zm51.6-51.5c1.3.9-1.9 1.8-3 1.4-23.4-6.8-45.9-16.3-67.2-28.3 11.5-1.8 22.1-.4 32.7-2.8 9.6-2.2 17 5.8 25.7 8.3 11 3 4.2 16 11.8 21.4zM265.1 442.6l-9.4 5.9c-8.9-23.1 13.3-20.8 23.4-27.2 9.6-6 19.5-11.6 29.7-16.6 20.7-10.3 41.9-19.5 61.7-31.5.6-.3 1.5 0 4.6.2l-110 69.2zm-9.2-41.5c42.5-15.4 84.5-30.2 127.2-45.3-1.6 7-9 6.5-13.3 8.8-39.1 20.6-78.7 40.3-118.1 60.1-1.7.8-4.7 2.5-5.3-1.7-3.8-4.5-8.1-9-12-13.5 7.2-2.8 14.3-5.8 21.5-8.4zm-82.6 18.2c6.9-2.2 14.3-2.6 21.1-4.9 7.4-2.5 14.1 1.5 21.2 1 3-.2 1.2 2.3-.2 3.8-11.9 13.6-41.6 25.1-54.3 6.7 4.1-2.3 7.9-5.3 12.2-6.6zm-22.6 12.8c2-1.6 4.7-2.1 6 0 16.9 25.6 56.5 9.1 68.9-12.5 39.4 26.2 1.1 67.4-29.3 80.3-44.2 14.2-84.8-32.5-45.6-67.8zM267 905.6c-72-21.4-145.4-95.7-128-175.8 5.5-37.1 20.3-73.4 19.8-111.1 1-43.8-44.5-80.7-26.7-125.5 7.2 5.2 14.2 11.5 21.9 15.6 8.9 4.9 18.6 7.4 30.1 4.6 3.3-.8 2.9 1.4 2.6 3.1 5.2 11.4-37.6 4.1-43.8 7.6 4.6 9.7 18.2 9.9 27.2 10.1 7.3 1.1 18.4-7.1 23.9-1 5.5 5.8-2.4 6.3-6.5 5.9-9.8 1.7-26.8-.7-34.5 4.2 5.7 8.1 15.5 5.6 24 6.1 7.9 2.3 25-8.9 25.9 3.5.8 5.4-18.4 4.7-22.6 5.7-3.5 1-10.6-1.2-11.2 3.4 3.3 10 26.8 3.4 34.7 1.6 3.8-1.1 4.3 2 4.5 3.6 4.7 29.5 6.6 59-.9 88.3-1.4 20.4-7.9 44.3 3.6 62.6 15.1 22.7 46 26.1 72.1 25-67 55.2-58.4 99.9-8.9 162.3-2.3 0-4.8.6-7.2.2zm-16.4-56.8C228 791.6 278.9 741.7 333 734.4c27.3-1.8 54.6-1.5 81.9.7 15.3 1.3 44.7 27.4 52.8 40.3.9 1.3 2.9 3.1-.4 3.4-26.8 3.7-54 2.5-78.8-9.5-2.8-1.3-5.7-3.1-8.9-.7 11.1 14.6 30.8 23.3 47.8 23 28.8 1.5 53.3 17 70.7 38.6 2 2.9 2.8 4.9-2.5 4.8-27.8-.7-54.9-5.2-79.4-18.6-13.4-8.9-22.9-25.1-37.1-33.8-11.8-8.7-24.8-15.2-40.4-16.3-1.6-.1-4.6-1.3-4.3.9.4 3.5 4.1 5.4 7.1 5.7 16.2 1 50.8 30.3 60.6 43.5-18.1 6-48.5-6.1-66.6-12-16.5-4.5-27.6-20.9-43.1-27 13.7 36.2 48 24.6 79.9 87.5-20.4-7-39.9-3.8-58.3-12.9-15.3-7.6-29.9-15.3-42.3-27-2.2-2.1-3.4-1.2-5.6.6-6.1 7.9 25.9 29.8 30.6 36.8 7.9 9.3 15.8 18.8 23.5 28-26.6 0-56.8-7.9-69.6-41.6zm54.3 64c-8.9-5.7-16.8-13-25.1-19.7-.4-.3-.3-1.2-.4-1.7 1.8 0 3.9-.6 5.4.2 13.1 6.8 27.4 7.5 41.6 7.2 11.1.3 13.4 10.1 27.1 13.7-17.1 4.5-33.1 10.1-48.6.3zm46 12.4c8.5-7.8 15.8-8.2 25.6-4.8 9.3 3.3 20.9 1.9 28.6-5.2 5.6-5.1-2-11-4-17.5 25.8 12.9 51.2 23.6 78.8 31.1 62.3 18 38.3-7.9 71.9 43-70.4-3.8-134.3-29.2-200.9-46.6zm246.3 135.5c-6.9 19.4-16.4 37.8-28.4 54.5-.6.6-1.5.9-2.4.8-3.8-.7-4.4-4.5-5-7-10.7-31.6-13.2-65.3-8.8-98.5.3-4-2.6-11.3-5-11.7-4.3-.8-4 4.9-5 8.8-3.4 13.2-6.4 26.4-6.3 40.1 0 1.9-1 3.3-2.6 1.3-11.3-13.9-22-28-27.9-44.9-2.2-5.5-2.6-11.9-5.5-17.3-2.5-4.6-1.6-6.5 6.5-5.3 13.6 3.6 30.4-.4 46.7 2.2 14.1 5.8 16.5 26.9 39 32.7 7.7 2.4 7 6 5.7 11.5-2.3 10.9 2.9 21.7-1 32.8zm48.1 49c-2 6.8-3.1 14-4.9 22.1-27.9-47-38.8-102-31-156.1 6.7 0 12.4 7 20.7 5.9.9.6 2.6 7.2 2.8 9.2 2.8 46.2 29.7 71.3 12.4 118.9zm49.1-34.7c-.6 5.6-1.8 11.2-2.4 16.9-34.4-28.9-42.7-66-52.4-107.9-2.1-11.9-10.5-27.3-7.7-38.7 27.5 8.2 33.9 37.2 49.5 56.6 21.6 19.1 15.6 47.6 13 73.1zm21.1-52.5c-24.5-21.3-43.3-47.3-54.4-77.4-4-10.8-3.9-24.3-8.5-35.3-4.6-10.7-12-36.8-27.3-35.2-1.3.8-1 3-.2 4.4 11.4 20.3 24.5 41.9 25.3 65.5-27.1-32.1-68.5-40.3-99.8-65.1 21.7 3 44.8 5.5 63.5-8.7 17.8-16.2-32.1-2.2-62.9-65 54.3 10 119.9 61.3 146.5 109.6 15.2 31.3 32.9 77.7 24.8 112.4-2.2-1.7-4.8-3.3-7-5.2zm116.1 81.9c-36.9-22.4-69.5-53.5-95.6-87.2-4.9-11.5-2.7-24.5-5.1-36.7 11.9 13.8 23.3 28.2 36.9 39.6 19.6 16.5 41 30.1 62.8 43.3 13.7 4.5 21.6 22.1 14.9 35.8 1.5 20.6-8.6 8.7-13.9 5.2zm53.3-494.6c-6.8 6.4-9.7-31.8-10.3-40.8-1.8-9.5 3.5-22.3 8.7-35.2 1.8-4.4 5.4-6 9.6-4.7 21.5 11.6 2 64.5-8 80.7zm103.8 793.6c-2.7 27.6-41.8 48.3-60.5 66.5-8.3 7.4-18.2 15-29.7 19.9-12.8 5.4-5.9 18.7-7.2 28.5 1.2 12.5-2.3 29.8 14.5 16.9 25.2-15.5 46.8-36.2 70.6-53.2 1.6 12.2-64.6 62.3-76.9 63-6.9.8-6.6 4.1-6.5 8.9 1 13.4-1.4 28.2 1.1 41 30-13.6 54.9-34.8 80.1-57.1-3.1 21.2-46.4 45.1-63.3 58-9.1 6.5-24.9 13.7-23.8-4 .6-31-2.1-61.8-3.9-92.7-.3-8.3 7.7-11.9 13.4-16.4 17.3-13.9 34.7-27.6 52.1-41.4 10.1-8 19-17.2 27.4-26.8 3.8-4.4 6.6-9.4 12.6-11.1zM425.1 6.5c-.4-1.7-1.6-5.1 2.4-5.2 4.4-.1 10.3-.6 11.3 5.1 5.8 39 6.7 78.6 19.8 116.3 22.3 76.1 57.5 149 115.8 203.9 62.9 59.3 137.4 108.6 222.7 126.9 23.9 6.3 47.5 12.3 72.5 11.4 16.1.7 32.2 1.9 48.3 1.5 17-.4 33.9-2.1 50.8-3.6 3.6-.3 5.9.5 7.3 2.3 3.5 5.5 1.3 12.6-7.1 12.1-34.2 4.9-68.9 7.7-103.4 3.9C623 464.1 426 248.4 425.1 6.5zm130.6 1417.3c-1.5 2.7-4.1.3-6.2.2-17.6-1-35.2-.9-52.8 1.4-11.7.9-12.6 12.1-16.9 19.1-9.9 16-18 33.2-27 49.8-1.1 2.1-3.9 5-5.5 4.8-3.3-.5-2.8-4.4-2.2-6.7 5.2-25.2 19.4-42 32.7-64.8-30.5 12.7-56.6 25.3-86.6 37 19.8-17.3 43-32.7 68.8-38 .9 0 1.8-1.6 2.8-2.5-20-9.7-43.2-7-63.7-14 16.3-13 59.4.7 78.4 6.3 6.9 2.1 3.3-6.9 3.1-9.9-2.6-53.9 5.6-107.5 1.8-161.4-.2-5.1-6.4-9.9-8.1-16.3-1.3-4.7-1.9-8.8.7-12.4 11-15.1-.3-29.7-1-44.4-.5-9.7-3.9-19.2-5-28.9-3.5-29.2-4.4-58.8-10.1-87.7-.6-4 .1-9 3.7-9.5 9.7 1.2 6.7 21.9 9 29.4 5.5 46.1 10.4 92.4 21.9 137.5 4.3 17.7 1.3 34.7 1.3 52-.7 48.6-.1 97.3-3.9 145.8-.9 9.2 4.4 6.5 9.4 5.7 17.4-2.8 34.9-7.1 51.9 1.4 2.1.9 5.1 3 3.5 6.1zM436.9 984c-.8-2.3 1.3-3.3 2.7-4.5 1.8-1.5 2.9.3 4.1 1.4 11.9 10.1 23.7 20.2 35.5 30.2 2.5 3.2 10.2 5.4 7.7 10.3-1.9 3.2-4.8-.1-6.3-.7-4.8-1.8-9.3-4.1-13.6-6.9-7.9-5.1-15-11.3-21.3-18.3-3.1-3.5-8.8-5.1-8.8-11.5zm-23.2-2.6c9.9 12 19.6 24.1 29.4 36.2 4.7 5.3 5.8 9.1 13.3 12.4-22 1.5-35.4-29.1-48.8-43.2-7.2-7.1.7-15 6.1-5.4zm-18.7 7c7.5 17.5 15.6 28.7 18.9 48.8-11.9-16.4-21.6-34.3-29.1-53.2-3.3-3-6.6-8.7-2.6-10.2 7.1-1.9 9.8 9.6 12.8 14.6zm-5.7 356.6c-36.4-2.7-46-19.3-74.1 15.4-8.1 6.2-14.2 20.4-24.6 22 3.9-17.8 18.9-28.1 32.5-42.4-19.8 5.5-38.8 13.3-56.7 23.3-3 1.7-6.9 4-9.2 1.3-2.5-3 2.2-4.8 4-6.7 15.9-15.9 36.3-21.6 56.7-26.8-15-8.7-34.9-11.1-51.6-17.2 20.9-8 43.6 3.4 62.9 11.7 3 1.5 4 .2 3.7-2.1-1.9-13.2 5.3-24.1 9.2-35.7 11-30.7 18.9-62.4 27.8-93.8 2.2-7.9 10.9-17.7.2-27.8-4.2-4-2.5-13.8 1.1-19.6 7.7-12 1.2-23.6.3-35.3 1.2-10.5-11.7-80.8-3-78.3 3.1 0 5.8 2.3 6.3 5.3 2.3 12.8 5 25.7 6 38.7 1.9 23 6.4 45.7 9.9 68.4 2.5 16-2.3 31.4-6.1 46.7-9.6 46.3-26.9 89.9-43.6 134-.6 1.9.5 2.6 2.4 2.7 16.1.3 31.7 2.9 46.3 10 5.8 3 7.3 8.3-.4 6.2zm-20.7-371c8.7 17.2 18.9 35.5 18.7 54.2-5-2.1-4.6-8.3-7.2-12.3-5.2-12.6-10.9-25.3-15.7-38-2.8-3.1-8-7.1-3.4-10.5 4.8-3.6 6.2 4.1 7.6 6.6zm-78.5 579.2c-22.8 13.2-48.2 19.9-73.4 26.6-27 8.3-54.5 12.2-82.7 14.5-2.3.3-7 3.3-6.7-2 .2-4.6-4.5-12.9 5.3-13 9.1-.1 17.6-3.3 26.2-4.9 24.1-4.3 46.9-13.7 69.1-23.8 18.6-8.9 42.1-9.8 56.3-26.3-2.1-5.2-6.1-1.3-8.9.5-44.2 15.8-87.1 36.2-133.1 45.8-25.5 13.7-18.8-25.4-1.5-27.3 49-6.8 94.7-29 137.8-52.4 5.3-1.4 1.3-7.7-3.1-5.4-24.3 11.5-48.4 23.7-73.5 33.3-18.7 6.7-37.9 11.8-56.8 17.9-15.9 5.2-18.1 3.9-17.9-12.7 0-3.2-2.2-8 3.6-8.7 22-2.9 42.6-11 62.8-18.9 27.1-10.7 54.3-22.2 78-39.6 1.7-1.2 7.5-.8 4.7-5.3-2.1-3.5-6.7-1.2-9 0-10.6 5.6-21.1 11.2-31.8 16.5-28.9 14.6-58.3 27.6-90.2 34.9-6.4 1.5-21.3 17-19.1-7.5 0-5.4-3.1-15 2.5-15.8 11.1-1.7 20.7-7.2 31.5-9.6 27.3-7.1 53.9-18.8 79.3-31.2 5.8-3.5 36-19.3 33-25.8-1.2-4.3-15.1 6.1-17.8 7.3-35 22.9-75 35.1-114.2 48.4-15.4 5.9-15.5 6.4-15.5-10.3 1.3-5.4-3.2-17.3 3.6-18.9 39.9-10 78.3-25.8 116-42 5.4-3.5 32.5-13.3 28.7-20.2-2.2-3.8-7.1.8-10.6 2.3-36.8 17.8-74.8 33.8-114 45.1-6.5 1.8-23.4 8.6-25.2-1.4-3.9-12.1-.2-22.2 11.8-24 25.1-4.5 47.7-14.9 70.9-24.8 15.8-4.7 29.5-13.8 43.1-22.7 3.9-1.8 4.5-3.8 4.6-8.4-42.9 18.3-84.2 42.2-131.2 51.3 10.3-13.7 17.3-30.3 29.3-41.4 5.7-3.7 14.2-2.9 21.2-5 22.8-8.6 51.3-10.4 68.7-28.6-3.4-4.7-10.4 1.3-14.9 2.3-22.3 9.5-45.4 17-69.1 22.4-.8.2-1.8-.6-2.6-.9 14.3-26.9 20.2-24.3 46.5-33.8 33.3-14.7 66.7-30.7 95.1-53.8 6.8-4.7 2.5-13.9-4-6.2-36.2 27.9-75.7 45.4-118.4 62.2 7.9-9 9.4-25.6 18.1-30.1 22.6-9.4 43.3-21.7 64.8-33.1 13.7-8.1 26.6-17.7 37-30.3 2.2-2.6 7.7-5.4 4-8.9-2.6-2.4-6.6 1.8-9.4 4.3-25 24-56.1 38.9-86.5 54.6-1.6.8-2.8 3.6-4.8 1.5-.7-.7 0-3.7 1-4.8 12.9-18.5 10.7-44.8 39-49.4 7.9-1.6 15.3-6.6 21.5-13 7.7-9.6 29.3-33.7 19.5-45.4-17.9-20.6-46.7 7.7-56.9 23.7-15.4 28.4-11.4 40.4-40.6 61.9 6.3-22.3 8.8-46.1 17.8-67.6 1.3-7.1 11-15.8 3.8-22.2-5.4-.9-9.4 16.7-11.8 21-7.2 19.8-12.8 40.2-16.7 61-1.3 6.7 2 14.2-2.3 19.7-15.3 19.7-31.1 38.9-46.7 58.2 15.1-51.6 33.6-102.2 55.4-151.4 2.4-4.9.8-21.6-5.2-9-6.4 14.5-12.6 29-18.5 43.6-15 36.9-28.1 67-38 107.3 1-28.4-2-53.3 1.2-77 10.2-13.7 55.2-84.9 48.9-97.8-1.5-1.7-2.8.3-3.4 1.5-15 27.8-28.5 57-45.5 83.4-2.5-20.7-5.4-45.2 13-62.4 10-7.8 37-49.3 32.8-60.6-8.3 3.2-12.1 17.2-17 24.5-8.2 16.1-19.8 29.6-32 45.2 0-15 .4-27.8-.2-40.7-.2-3.5-1.1-6.1 1.6-9.4 13.7-17.4 29.6-35.9 35.4-57.5-2.8-6.3-7 .9-9.3 5.3-9.4 14.2-17.2 29.5-28.5 42.3-1.8-9.2-5.7-38-1.5-45.3 8.8-10.1 26.5-27.7 26-41.4-1.1.5-2.6.7-3.3 1.6-8.5 10.3-16.9 20.7-25.9 31.7-.7-9 .4-17.5-2-25.8-.9-3.1-.8-8.2 1.2-10.2 5.9-6.6 29.8-33.7 22.8-41.5-2.2-1.6-2.1 2-3.1 3.2-4.2 5.2-7.8 10.9-12.2 15.8-3.3 3.8-8.6 16.9-10-1.2-1.1-15.2-7.6-30.4 3.3-44.9 11.6-15.3 17.8-33.1 13.7-53-2-10.2-9.1-16.9-18.7-18.1-19.7-1.8-27.1 22.9-26.6 39.4-.9 22.9 14.3 42.7 10.1 66-1.6 8.5-.3 17.6-.3 27.3-7.5-7-29.4-38.8-36.8-36.5-1.2 5.3 5.3 9.7 7.6 14.2 8.1 11.6 18.6 22.3 28.4 32.1-3.4 10-.7 20.5-2.4 32.3-13.3-15.6-25.4-29.8-38-44.5-1-1.2-2.5-2.8-4.2-1.2-2.4 4.1 3.6 7.7 5.2 11.2 4.1 5.6 8.3 11.3 12.2 17 10.6 15.4 31.5 26.2 23.5 50.4-.6 1.7 1.1 5-3 1.8-17.8-14.2-33-30.9-47.7-48.2-.8-1-1.3-4.4-3.8-2-4.8 5.5 5.4 11.8 7.8 16.7 8.8 11.3 17.9 22.3 29.3 31.3 5.7 4.5 14.2 8 16.5 13.8 3 7.7 1.2 17.3 1.3 26 0 2.6-.7 2.8-2.6.9-16.5-16.9-35.3-31.4-48.2-51.7-2-5.9-13.7-8.2-8.9.8 16.1 23.7 40.3 46.2 60.3 64.9-3 12.3.7 24.6-2 37-3.3-8.6-11.7-12.3-17.3-18.5-13.9-15.3-28.6-29.8-43.2-44.5-2.5-2.3-4.3-5.4-8-5.9 0 1-.4 2.3 0 3 15.7 22.3 34.5 42.3 53.9 61.3 8.4 8.2 18.2 13.7 15.9 27.9-1.8 9.7.7 19.9-1.2 29.6-23.7-23-44.6-49.6-69.5-71.8-3.3-2.4-8.5.4-3.9 3.8 20.7 21.8 40.9 44.1 60.7 66.8 4.3 5 12.8 6.9 13.2 14.3.2 13.9 1.5 28.4-.7 42-28.5-19.3-52.5-45.8-75.1-72-1.3-1.5-4.3-1.5-6.2-2.2 14.2 28.8 41.6 50.4 64.9 72.3 7.8 6.7 21.2 9.7 17.4 24.8-.2 6.8-.3 13.8-2.8 20.4-19.7-12.2-34.8-30.5-51.4-46.5-8-8.4-15.2-17.6-23.1-26.1-1.3-1.4-4.3-1.3-6.6-1.9 8.9 24.9 65.6 84 91.1 90.3 6.8-110.3-5.1-221.4 6.7-331.4 11.8 107.8 13.9 216.5 12 324.9 2 23 47.8-49.6 53.8-54.2 12.6-15.7 25.7-30.9 40.7-48.9-.8 4.9-.6 6.7-1.3 8-8.4 17-16.4 34.2-25.4 50.8-17.2 32.1-34.8 64-55.9 93.8-9.6 15-7.7 31.2-6.5 48.1 1.9 27.3 0 54.7 1.6 82.1 2.7 29.4-1.3 59.8 1.9 89 2.7 4.7 30.9 0 37.4 0 27.9-4.5 55.1-12.2 82.5-19.1 5 1.2 72.9-26 50.5-27.2zm-72.2-348.3c10-19.2 23.8-44.5 48.1-45.4 3.1.3 5.5 2.7 5.8 5.8-1.3 22.3-33.6 46.3-55.9 49.6.7-3.4.6-7 2-10zM102.6 942.6c-1.9 3-3 6.6-5.3 11.8-7.7-19.6-10.9-37-8-57.2 7.2-33.7 50.3-13.2 13.3 45.4zm103.6-175.4c2.4 3.4-1.1 6.5-4.3 4.9-11.1-3.7-34.2-44.2-16.3-47.1 5.9-.3 2.9 4.3 3.3 6.8 2.3 13.2 10.5 24.1 17.3 35.4zm-20.7-307c4-14.4 34.7-3.9 9.2 11.2-7.1-1.4-9-7-9.2-11.2zm-15.1 216.5c4.2-11.2 16.1-18.7 25.5-25.7.7-.4 2.2-.7 2.4-.4 7.5 7.5-21 27-26.1 27.3-.4-.2-1.8-.8-1.8-1.2zm-14.8 29.6c.4-1.3.4-3 1.3-3.8 11.7-10.7 23.2-21.6 35.3-31.8 3.5-3.8 4.6-1.3 5 3.3-2.7 10.5-12.8 14.9-19.9 22-5.9 5.3-13.2 11.8-21.7 10.3zm30.4 78c5.1 7.5-2 9-5.8 3.2-8.8-7.9-26.6-55.7-11-60.1 7.4-.3 2.2 7 3.5 9.3.9 16.8 7.5 32.3 13.3 47.6zm-17 17.3c.4 1.2-.2 2.7-.3 4-20.2-10-20.6-31.4-22.9-53-2.4-7.6-.6-19.2 3-30.7 1.2-4 3.4-5.6 6.9-4.8 3.8.9 2.3 3.3 2.1 6.3-3 26.8-.1 53.5 11.2 78.2zm-42.8 694c.1-.4.1-.1 0 0zm-35.7-102.5c-1.2 69-2.3 138.3-3 206.9-5.1 7.1-15.1 2.4-20.5-2.2-21.7-17-43-34.5-64.5-51.8-1.9-1.5-2.3-3.4-1-5.3 1.6-2.3 3.6-.2 4.7.7 19 15.6 40.2 28.4 58.1 45.4 3.8 3.6 9.1 5.6 13.8 8.2 2.6 1.3 2.6-6.1 2.3-7.4-2.7-9.6-.1-19.6-2.3-28.8-.9-3.9-7.7-6.3-11.6-9.5-21.4-18.3-43.7-36.8-63.7-56-.2-2.6 2.7-1.1 5-.2 26.8 14.3 45.9 38.5 70.6 55.3 3.7-30-4.7-38.7-25.8-55.6-16.4-17.5-41.2-30.9-50.4-53.6 27.3 16.2 47 45.1 73.9 62.9 3.1 2 4.7-.9 4.7-3.3.2-11 1.1-22.2-.4-33-24-22.9-49.4-48.7-72.8-73.2-2.1-2.9-5-7.4-4.3-11.3 23 18.3 45.5 39.7 64.1 63.2 2 2.1 13.3 16 13.5 8.3-.4-13.8-.5-27.6-1.2-41.4-.1-2-2.8-4.2-4.9-5.7-11.2-8-22-16.5-32.7-25.1-2.9-1.7-56.7-50.8-36-41 21.2 18.3 42.3 36.6 63.3 54.9 3.2 1.9 6.1 6.5 10 5.7-3.3-6.7 3.5-14.3-3.3-21.4-27-28-54.1-56-72-91.2-4-5.5 1.6-8.9 5.7-2.8 18.1 25 35.8 50.3 57.8 72.4 10 10 24.2 19.6 22.9 35.9z"/></g><g><g id="Layer_1_2_"><g><path d="M52 1548v15l-37 37h946l-37-37v-15H52M52 52V37.7L14.3 0H0v1600h15l37-37V52m872 0V37.7L961.7 0H14.3L52 37.7V52h872m52-52h-14.3L924 37.7V1563l37 37h15V0z" id="Layer0_0_FILL_1_"/></g><g><path id="Layer0_0_1_STROKES_1_" d="M961 1600h15V0h-14.3L924 37.7V1563l37 37H0V0H961.7M52 52V37.7L14.3 0m.7 1600l37-37V52h872m0 1496H52" fill="none" stroke="#333" stroke-width="2" stroke-linecap="square" stroke-miterlimit="3"/></g></g></g></svg>