<svg xmlns="http://www.w3.org/2000/svg" xmlns:xlink="http://www.w3.org/1999/xlink" viewBox="0 0 976 1600"><path d="M960 22v1556c0 3.3-2.7 6-6 6H22c-3.3 0-6-2.7-6-6V22c0-3.3 2.7-6 6-6h932c3.3 0 6 2.7 6 6z" fill="#fff"/><defs><path id="a" d="M960 22v1556c0 3.3-2.7 6-6 6H22c-3.3 0-6-2.7-6-6V22c0-3.3 2.7-6 6-6h932c3.3 0 6 2.7 6 6z"/></defs><clipPath id="b"><use xlink:href="#a" overflow="visible"/></clipPath><g clip-path="url(#b)"><path d="M449.2 1431.3c-27.4-3.8-17.5-50-9.9-68.3 3.5-8.2 2.1-24.1 13.2-26.6 27.6 20.5 38.7 84.1-3.3 94.9zm120.4-121.4c-7.7-1.2-47.2-1.9-44.8-16.7 22.4-22 81.4-52.6 87.6-6.5-3 19.5-26.5 22.7-42.8 23.2zm-195-6.9c-17.6-1.3-36.2 4.4-50.6-10.6-13.2-9.7-14.7-36.4 6.4-38 17.3-1.1 90.1 49.1 44.2 48.6zm12.6-98.2c-21.5 3-90-24.3-47.6-43.3 25.4-6.5 110.5 43.1 47.6 43.3zm184-1.5c-19.8-1.2-45.5-3.1-51.8-19.3 56.8-55.1 132.1 12.5 51.8 19.3zm-402.4-64.2c-28.9-3.8 1.9-70.9 14.3-74.5 18.8 14.4 14.1 67.8-14.3 74.5zm229-48c-25.2 2.5-88.1-33.3-46.7-48.2 26.9-.6 113 46.4 46.7 48.2zm186.9-9.8c-9-.8-58.6-4.8-42-18.5 13.7-10.7 27.3-20.7 46.9-20.5 49.1-4.5 38 43.4-4.9 39zM292 1067.4c-24.5-2.5-45.7-18.8-63.8-33.4-6-11.8 18.1-10 25.2-11.3 20.3-3 78.4 31.2 38.6 44.7zm-184.4-84c-28.3-2-32.1-35.4-2.9-38.6 12.9-3.9 68.4-5.4 55.9 15.1-14.4 14.6-32.2 22.5-53 23.5zm302.7-22.1c-22.5-2.6-45.3-3.9-64.4-21.2-9-8.7-10.8-22.8 7-23.2 18.4-5.6 111.8 44.4 57.4 44.4zm180.1-.4c-14.9-1.5-30.3-3.2-44.8-8.3-16.3-12.4 27.1-25.5 39.9-26 34.2-6.1 40.2 30.9 4.9 34.3zm-285.5-3.6c-21.6-3.5-41.5-12.8-56.4-21.7-27-15 14.9-23.3 28.5-19.8 19.2-3.2 64.1 31.9 27.9 41.5zm492.4-27.5c-25.6-12.1-26.8-57.9-17-80.4 27.4 12.4 48.5 66.6 17 80.4zm-132.2-40.7C630.5 876 693.4 829 713 839c2.2 22.8-22.2 46.2-47.9 50.1zM130 865c-67.5-12.5-7.1-50.5 45.6-29.5 23 15.3-33.5 32.1-45.6 29.5zm765.4-5.7c-28 1.5-46.3-18.7-63.5-36-10.7-9.9 14.4-9.4 19.6-9.6 22.7-5.7 86.4 33.8 43.9 45.6zm-303.2-.4c-95.5 3.9-.5-44.3 30.9-25.8 16.9 19.3-16.1 26.7-30.9 25.8zm-283.9-8.1c-15.8-.3-31-5.9-45.9-16.5-20.5-13.3 13.8-24 25.5-23.4 22.2-4.5 57.8 38.3 20.4 39.9zm104.5-7.9c-78.9 1.7-90.5-99-19.2-37.2 5.5 7.7 37.8 31.2 19.2 37.2zM644 786.3c-60.7-10.9 29.3-60 40.3-32.1-4.4 16.7-25 32.8-40.3 32.1zm-317.2-23.5c-18.5-1.7-28.3-21.5-35-34.7-3.5-38.3 84.7 26.1 35 34.7zM875.2 743c-23.4-3-52.8-8-67.2-27.4 15.3-17.2 55.2-17.1 76.8-6.2 19.3 9.1 11.7 35.1-9.6 33.6zm-319.3-3.8c-48.9-.8 60.2-65.2 57.6-21.6-3.2 24.5-39.4 17.8-57.6 21.6zm-121.8-16c-85.4 6-97.4-84.8-39.7-53.6 12.1 8.2 52.6 39.2 39.7 53.6zm384.2-98c-65.7 4.8 7.2-47.3 33.9-41.7 57.7 12.9-5.8 44.1-33.9 41.7zm-385.1-8.4c-45.8 5.5-81.3-79-24.7-50.8 9.5 7.6 50.4 50 24.7 50.8zM447.5 511c-26.3 3.1-78.9-54.8-43.3-71.5 17.1-4.2 58.7 62.2 43.3 71.5z" fill="#5d4e8c"/><path d="M153.7 744.9c-25.7 1.3-21.3-61.7-8.1-77.7 31.4-3.3 29.2 65.3 8.1 77.7zm507-126.1c-43.3-11.6-74.2-132.6-16.1-128.4 33.1 26.9 53.4 99.5 16.1 128.4zm-424.7-.4c-25.3-5.7-35.4-36.4-35.1-58.6 1.5-2 2.5-5.8 4.9-6.4 6.3-1.2 1.7-12.9 9.7-10.5 30.3 12.8 31.7 38.4 34.1 64.9.4 5.8-7.4 3.1-9.1 7.6-.8 1.8-2.5 2.9-4.5 3zM75.4 576.2c-13.5-24.3 51.8-56.6 73.2-50.3 14.3 15.2-6.6 35.1-22.4 41.8-12.3 5.5-25.9 7-35.3 7.7-6-4.2-9.7-2.7-15.5.8zm224.1-17.5c-39.5-8.6-88-117.7-37.1-114.7 35.5 17.6 64.4 82.5 37.1 114.7zm231.3-56.9c-22-14 22.4-105 45.4-79.3 14.4 20.4-9 59.4-26.5 74-7.7 5.6-9.3-2.4-18.9 5.3zm183.6-39.4c-21.3 0-39.3-13-62.4-31.4-14.3-33.7 33.4-23.9 53.8-11.4 22.2 10.2 42.8 44.9 8.6 42.8zM141.5 442c-15.4-.7-17.5.4-18.8-14.2 1.9-28.3 67.7-57.9 90.8-39.6 8.6 32.4-43.7 54-72 53.8zm198-8.7c-58.4-26-46.2-116.6-3.3-58.8 9.1 15.6 24.2 37.5 17.8 54.5-7.2-.9-8.6.6-14.5 4.3zm520.9-2.5c-30.6-12.3-43.6-53.4-41.4-87.5.3-5.6 5.6-3.7 9-2.7 3.5.2 5.3-4.1 9-3.1 29.1 2.4 54.6 82.8 23.4 93.3zm-125.8-56C705 360.3 746 317.2 765 315.6c8.3 5.4 21.4.5 13.8 18.6-7.1 21.6-24.9 32.9-44.2 40.6zm-313.3-11.9c-34.1-4.1-67.7-52.1-47.6-80.4 31.9-21.2 59.4 64.7 47.6 80.4zm-282.2-21.7c-6.4-.3-1.9-9.6-8.1-10.8-2.1-.7-3.2-3-2.5-5.1.2-.6.5-1.1.9-1.5 21-26.5 104-64 106.5-21.5v-.1c-34.9 42-57.5 30-96.8 39zm525.6-18.8c-16.4 1.6-68.1-21.1-46.3-43.8 28.5-17.7 111.1 42.5 46.3 43.8zm242-19.8c-20.8-.8-59.1-16.3-59.2-43.5 21.1-17.8 67.8-1.6 75.1 25.1-.7 3.1.2 6.5 3.3 7.8 9.2 9.7-14 10.5-19.2 10.6zM249 221.3c-82.2 3.2-31.4-52.9 18.7-51 10-.3 59.8 7.1 50.7 20.4-10.4 21.6-34.9 30-69.4 30.6zm382.3-3.7c-69.1-2.2 10.1-61.7 42.7-46.2 37.6 7.2-25.2 50.6-42.7 46.2zM89 215.7c-17.8-18.9 2.9-63.3 23.4-73.9 10.1 2.7 14-5.7 17.9-.3 9.6 29.1-14.1 67.6-41.3 74.2zm766.3-37.4c-19.4 0-34.3-10.3-51.5-22.2-14-8.8-10.7-5.9-9.7-19.9-1.7-19.2 32.9-5 43.8-3.5 23.2 3.3 57.2 47.4 17.4 45.6zm-622.2-33.8c-28.3.2-56.3-56.7-27.9-71.1 26 3.4 52.2 54.2 27.9 71.1zm353.2-3.3c-22.1-1.4-48.2-13.4-60.5-29.5-3.2-6.3 7.2-5.7 6.8-11.5 23.1-28.1 133.5 39.5 53.7 41zm-228.9-13.1c-27.8.1-51.6-9-65.4-25-3.9 0-5.4-5.5-2-7.4 38.9-32.5 160.4 19.1 67.4 32.4zm-265-34.4c-59.2-2-28.2-44.1 14.8-40.2 56.6 5.5 22.9 40.7-14.8 40.2z" fill="#333"/><path d="M926.8 275.2c-19.7-29.4-54.2-39.1-87-24.4-2.8 1.3-3.5 6.1-8.3 4.1-14.6-6-30.1-9.4-45.9-9.9-2.5-.1-3.5-1.6-4.6-3.6-23-43.5-45.2-84.1-75.3-124.5 19.9 8.5 38.8 12.6 57.1 18.5 8.8 2.8 20.7.7 24.8 13.2 1.1 3.3 3.3 6.1 6.2 8.1 20.3 13.3 38.8 31.3 66.5 27.1 14 .2 24.2-9.2 17.2-23.4-8.5-15.3-18.9-27.6-36.8-33-18.5-5.6-36.4-11.4-55.6-2.8-2.1 1-1.5 5-6.2 3.5-17.7-5.7-36.1-9.2-53.5-15.4-12.3-3.9-24.9-1.2-33.1-14.6-18.8-29.8-42.9-56.2-58.1-88.5-1.4-3-4.8-5.9-9-3.9-4 1.9-1.1 4.5 0 6.4 25.4 50.3 61 94.5 91.4 141.4-6.8.4-11.8 3.5-17.8 6.2-6.4 2.1-11.7 8.2-18.9 6.6-24.6-6.6-50.9-.1-69.6 17.2-9.5 7.9-18.8 18.6-10.9 31.9 5.5 9.3 17.1 7.6 27 8.2 26.3 1.9 57.8-14.7 64.6-41.4 3.4-15.2 16.2-18.2 27.3-25.3 25.1 35.3 42.6 75.1 63.9 112.7 6.1 9.9 18.9 21.2.4 33.3-9.3 7.7-13.8 4.7-23.5 7.4-23.6 11-50.3 36-40.7 64.9 3 5.1 8.9 7.9 14.6 5.8 13.5-5.1 26.8-10.2 38.1-20.3 31.9-28.1-1.2-45.8 27.7-60.7 3.7 14.8 19.9 24.3 14.9 43.5-3.4 13.2-.9 28 2.9 42.1 6.6 24.5 25.6 56 54.4 51.5 8.4-3.4 6.3-13.4 7.8-20.4 2.7-12.6 1-25.4-1.5-38.1-4.2-21-15.2-36.4-34.5-45.7-5.1-2.4-13-2.7-15.3-6.6-13.9-23.8-27.9-47.8-40.2-72.5 8.1 1 16 2.9 23.7 5.5 40.8 7.6 14.3 12.7 56.7 37.9 19.7 17.2 87.7 21.2 59.1-22zm-125.9-144c12.6-1.7 24.1 3 36.1 5.6 14.8 3.6 24.2 14.1 32.3 25.5-12.5-5.3-24.4-9.9-36-15.3-11.4-5.4-23.4-8.5-35.3-12.1-.5-.1-.7-1.3-1-1.9 1.3-.7 2.6-1.7 3.9-1.8zm68.6 41.1c-29 8.4-48.9-10-73.4-26.2 27.9 6.2 50.2 17.6 73.4 26.2zm-262.2 32.1c3.9-19.9 43.7-34.3 63.6-30.6-22.9 10.8-42.4 21.8-63.6 30.6zm74.8-23.8c-14.6 25.3-39.3 36.5-68.5 32.3 24-12.8 44.4-22.5 67.1-35.6 2.4-.4 2.3 1.8 1.4 3.3zm45.6 182.9c-2.1-14.9 26.2-45.9 38.7-43.8l-38.7 43.8zm46.6-28.9c-6.2 15.9-17.5 27.2-34.1 32.4-2.5.8-3.1 5.1-7.3 3.5 11.5-13.3 22.7-26.3 34-39.3 2.7-3.1 5.7-9.1 9-7.4 3.7 1.9-.4 7.7-1.6 10.8zm65.8 7.5c28.9 16.9 30.2 48.9 28.8 80.2-9-30-21.6-54.8-33.5-80.8 1.5.1 3.4-.1 4.7.6zm21.4 82.8c.3.6.6 1.1.9 1.7-.9 0-2.1.5-2.8 0-29.8-18.4-37.7-48.9-36.6-83.4 14 29.7 26.2 55.7 38.5 81.7zM904 266.5c3.9 3.3 15.2 12.8 14.6 18-22.9-5.8-44.5-17.2-67.1-25.1 18.3-5.6 36.2-4.1 52.5 7.1zm-52.2 4.4l72.5 24.9c-28.8 9-49.6-4.6-72.5-24.9zm-2.4 537.5c-9.6.2-18.7 5.6-27.4 4-14.3-2.7-27.9-8.1-41.6-13-3.5-1.2-8.4 2.1-10.6-4.9-6.6-20.2-11-41-19.9-60.5-1-2.2-6.4-9.2-.3-10.7 16.8-3.3 36.8-4 53.4-1 21.5 19.3 49 29.1 78 26.5 52.5-4 16.7-77-63.9-46.8-7.1 2.5-11.9 9.9-19.8 9.9-13-1.2-26-.7-39-.4-5 .1-11.5 6.2-15.4-1.4-9.2-18.3-15.1-38.1-27.8-54.4 20.4-4.2 38.9-13 58-19.8 6-2.1 10.5-8.7 17.9-6.4 22.4 6.8 93.1-2.3 93.4-31.8-.3-12.4-12.1-18.9-23.3-20.5-36.4-5.5-64.8 17-82.6 45.7-8.7 3.5-69.8 30.2-72.5 22.2-6.5-9.8-14.8-18.2-24.4-24.9-14.5-4.9 19.7-31.9-2.6-89.6-5.9-23.6-23.3-43-45.5-50.9-10.8-22-13.5-47.8-19.6-71 33.4 13.4 23.6 10.2 45.2 35 19.9 15.9 39.9 27.3 66.4 23.4 8.7-1.3 19.2-10.7 16.6-16.3-14.5-33.7-51.3-58-88.5-48.3-6.1 1.5-8.8 12-17.7 6-4-2.7-9.8-3-13.4-6-4.5-3.4-11.5 1.4-13.5-6.2-11.7-43-27.8-84.2-43.8-125.8 6.1-.3 10.1 3.4 13.8 6.2 9 6.7 22.8 3.8 28.7 17.6 10.3 24.3 56.3 48 83.1 30.6 7.7-5 12.6-10.3 5.3-19.1-17.3-20.8-41-41.3-70.2-33.7-6.3 1.7-11.4 7.9-18.2 5.9-7.9-2.2-15.5-5.4-22.6-9.4-9.4-5.4-23.3-3.1-27.5-16.1C535.7 199.9 514.1 146 488 95.6c.6-.1 1.4-.5 1.8-.2 4.8 2.8 9.9 3.5 15.4 4 18.8 2 4.1 15 36.5 33.2 18 13.1 65.2 23.6 81.4 6.5 7.5-12.9-4.8-19.2-11.3-25.6-17.3-16.4-43-30.3-67.7-24.6-9.5 2.2-18.1 9.3-29 3.8-11.2-6.4-34.4-4.4-40-16.8-9.8-21.8-23.3-41.5-36.6-61.2-3-4.4-6-14.1-10.5-10.9-5.7 4 2.7 9.9 5.1 15 9.5 20.1 19.2 40.1 28 60.5 3.3 7.6 19.4 16.3.2 24.5-8.1 4-15.7 15.1-25.5 12.4C374.6 106 401.6 78.8 330.6 77c-14.9-.8-29.2 3.8-42.5 10.2-26.2 10 5.1 27.5 17.2 35 19.3 9.1 38.7 13.6 60.8 11.6 16-1.5 28.7-15.1 44.9-13.6 7.1 1.3 14.3 3.8 21.8 4.2 0 0 .1 1.9-.3 2.2-5.9 3.1-8.8 9.5-13.8 13.2-10.3 7.7-17.2 18.1-25.9 27.1-5.3 5.4-8.3 14.7-16.4 15.7-7.7.9-15.5 1.3-23.3 1.6-9-.5-19.3 2.2-27.8-.4-10.2-11-24.1-15.7-37.7-18.5-27.4-5.6-53.8-1.1-75.9 17.1-9.1 7.5-24.4 14.6-16.3 30.6 5.2 10.2 19 12.6 28.4 13.2 30.4 2 61.6 4 87.7-18.3 4.9-4.2 8.1-11.6 14.4-12.5 13.2-1.8 26.7-1.7 40.1-2.3 8.7-.8-4.7 10.9-6 13.9-10.3 13.6-20.6 27.3-31 40.8-6.6 8.6-9.1 21.8-22 23.5-25.6-.1-48.3 16.2-75.1 10.2-21.9-5.8-43.8-3.2-65.1 7.1-15.7 8-52.9 29.5-47.2 49.2 10.5 15.1 44.5 3.7 60.7 3.5 21.6-2.3 38.2-13.2 52.9-28.3 5-5.1 5-15.6 9-17.1 22.3-7.8 45.3-13.5 66.4-19.4-13.1 20-26.3 41.7-40.9 62.3-9.6 13.5-9.6 34.5-30.3 39.6-7.2 1.8-15.5 9.4-21 5.8-30.8-20.1-88.9 8-102.8 39-6.1 12.4-5.2 24.2 11.4 22.1 31.5 1.1 65.7-.2 84.7-30.1 5.9-8.9 6.7-22.7 20.9-25.1 3.1 0 12.1-6.3 10.1.3-14.4 30.5-30.8 59.9-44.1 90.9-5.5 12-4.7 28.2-19.7 34.7-4.9 2.2-9 7.6-14.4 7.6-18.1-5.1-36.2-4.3-52.5 4-15.1 7.3-29.8 16.3-40.2 30.9-6.1 8.6-7.8 20.8-1 22.8 26.3 6.8 77.2-5.1 85.8-33.8 3.6-13.2 12.1-19.5 24-22.8-10.3 33.4-20.9 67.8-26.1 103-1.8 12.2-.6 25.8-11.8 35.8-5.8 5.1-8 13.6-9.8 21.5-3.4 14.9-3.3 30.5.3 45.4 2.3 9.6 7.7 19.4 16.7 23.4 9.9 4.4 13.3-6 18-12.5 13.8-18.7 12.9-39.2 8.4-60.6-2.1-10.1-13-17-12.6-26.3 2-45.4 15.3-90.6 32.2-132.3 14 23.6 4.5 29.7 4 54 1.4 22 16 43.9 37.3 48.5 6.7 1.4 16.2 2.3 18.2-9.3 1.4-8.5-.9-16.4-1.9-24.5-2.7-21.6-8.8-41.1-31.9-50-9.2-3.5-23-26.4-20.2-32.7 10.6-24.4 21.4-48.8 32.2-73.1.9-2 2.4-3.3 3.3-1.9 2 6 5.5 11.2 3.5 18.5-8.2 37.2 10 84.6 42.4 104.9 16.8 8.4 14.3 11.9 6.4 26.8-29.5 74.5-53 151.3-70.1 229.6.5 22.4-38.2 19.3-53.3 14.3-24.3-10.9-88.2-4.6-64.5 35 15.6 16.5 61.2 8.9 75.4-6 9-9.5 18-17.1 31.4-19.2 6.3-1 5.7 2 4.8 5.2-2.9 9.9-4.4 19.9-5.9 30-2.7 18.6-7.3 36.9-9.4 55.5-.7 6-2 15.8-3.8 16.3-5.6 1.8-13 4.1-18.9 4.3-2.8.1-5.3-.4-7.1-1.6-20.7-15.9-78-18.4-88.3 8.8-8 54.4 67.7 34.2 87.7 5.1 6.3-7 16.3-2 24-5.2-.4 23.1-4.7 46.9-6.4 70.2-1 9.8 1.8 22.1-3.1 29-13.6 19.2-25.8 38.3-28.1 62.2-1 10.4-4 22.1 8 28.2 35.4 13.3 47.9-44.3 38.1-68.4-4.2-14.6-14.4-27.7-7.8-44.1.7-1.7 1.7-4.9 2.1-4.8 3.6.6 7.5.7 11.3 1.1 4.3.5 8.3 1.3 11.1 3.6 21.3 17.7 43.2 34 70.1 42 18.2 8.1 35.2-12.9 24.8-30.1-13.9-22.2-41.3-28.3-65.6-26.8-13 2.2-25.5 9-39.6 3.8-6.6-2.3-11.9-4-11.4-9.5 5.9-24.5 6.2-51.5 12.8-76.3.5-2.5-1.3-9.8 8.4-7.3 10.9 2.8 20.1 6.2 29.7 12.7 14.7 10 31.2 17.7 49.3 21.3 20.3 6.5 41.3-5.5 30.9-27.3-13.7-24-52.9-31.9-77.1-20.8-9.6 4.6-19.5 5.3-29.7 5.2-15.6 1.2-3.8-19.7-4-28.6 2.8-15.9 4.8-32 8.7-47.7 1.1-4.3-1.8-13 6-13.2s17.3.1 22.7 4.4c14.5 11.4 30.9 17.3 48.1 22.8 16.3 5.2 33.9-4.7 32.4-21.4-1.2-13.1-12-19.9-22.4-26.3-13.7-8.5-39.1-3.2-52.8 9.4-9.6 8.8-18.1 1.5-26.8.1-4-.7.1-6.5.6-9.7 2.8-31.5 15.2-60.5 24.1-90.5 1-3-2.4-15.2 8.9-9.1 7.8 4.3 18.6 8 21.9 14.8 8.2 21.1 29.8 57.6 57 39.8 23.3-21.8-18.8-53.5-41-52-23.4 2.2-17.1-4.7-36.8-13.7-1.3-1.1-5.6.5-4.4-3.7 13.7-43.1 26-87.4 44.8-128.6 27.7-39-1-128-53.2-126.9-4.4.3-14.8-9.7-13.2-15.7 4.2-8.9 8.7-17.8 13.4-26.1 12.5-22 21.7-45.9 37.2-66.1.8 1.4 2.1 2.7 2.3 4.3.9 7.1 10 12.3 6.4 19.8-3.4 7.1-3.6 15.1-2.8 21.4.5 42.9 66.6 93.9 67.2 45.4-.4-22.8-17.9-54.8-37.1-67.4-7.6-4.9-19.7-3.8-22.2-16.1-.8-6-10.4-11-7.4-17.4 20.3-30.1 39.5-61.7 62.1-90 4.1 6.9 5.4 15.2 7.9 22.8 2.1 7.4 7.6 16.3 5.3 22.1-5.8 15-7 29.4-2.9 44.3 4.3 15.7 11.1 30.3 25.9 39.1 6.8 4 14.7 6.1 21.5 10 8.2 4.6 14.1.2 14.9-8.4 2.1-29.3-7.9-68.2-34.8-83.6-4.7-2.8-12.9-3.1-14.6-6.9-6.7-14.4-11.5-29.8-16.7-44.9 10.9-27 36.4-49 55.1-71.6 17.3-17.3 35.8-37.8 58.2-47.8 3 6.4 7.7 12.9 8.1 19.7 4.3 53.2.5 106.6.7 159.8.9 62.1 4.8 124.2 1.7 186.3-.1 3.4 2.5 7.4 1.4 10.3-2.8 7.5.2 14.9-.9 22.4-1.3 9.1-.3 18.5-.3 29.5-2.5-2.8-3.3-4.5-4.6-5.1-19.1-8.5-25.8-29.4-32.8-47.2-8.3-19.4-28.3-60.5-54.1-47.7-21.2 14.7-5.9 46.4 8.5 60.4 8.9 9.2 19 17 32.3 20.8 6.9 2 14.4-1.8 20.1 3 6.8 5.4 13.1 11.4 18.9 17.9 3.4 4 11.1 3.8 11.1 9.7-.9 31.9 3.3 64.5-2.4 95.9-9.6-10.7-28.2-17.6-34.6-29.1-8.8-22.9-36.7-70.3-65.4-59.6-7 4-12.1 9.7-11.6 19.4 1.9 23.3 28.6 49.1 53.5 49.2 12-1.5 23.1-2 31.4 10.2 10.6 12.9 31.1 15.5 28.9 37-2.3 26-4.7 50.7-5.7 77.2-8.5-10.2-19.2-16.1-28.5-23.6-9.1-7.2-12.9-18.4-18.7-28.1-10.8-16.1-41.1-43.1-61.8-40.3-23.5 3.8-27.7 33.7-11.8 48.5 20.4 20.4 45.2 27.3 73.7 24.3 16.9-1.8 25 13.6 36.5 21.9 4.2 3.1 11.7 3.7 11.1 12.7-2.3 34.8-3.9 69.8-5.8 105.3-9.2-5.6-18.8-11.5-28.6-17.3-5.1-3-11.8-4.5-15.5-8.7-16.2-22.9-32.3-46.4-58.1-59.6-39-20.2-44 28.7-20.2 46.1 15.9 12 33.2 18.4 53.1 20.3 6.6.6 13-3.6 19.6.5 10.6 6.7 22.2 12 32.6 18.9 8.1 5.4 19.1 7.5 17.1 23-3.7 26.8-2.6 54.2-5 81.1-14.9-10-31.4-17-45.2-30-18.7-18.5-42.4-30.1-70-31.1-8.3-.3-15.8-.1-20.6 7.8-13.6 32.2 53 50.4 77.8 47.5 16.9-2.9 33.2-.8 47 10.7 3.6 3 10.7 2.8 10.1 9.8-1.4 17.5-3.4 35-4.6 52.5-1.1 16.5-1.4 33-2.2 49.5-.1 1.5-1.6 2.9-2.5 4.4-9.4-6.1-22.6-4.6-29.7-14.8-5.8-8.4-12.9-15.7-21.5-20.5-19.1-9.5-57.7-35.2-75.3-13.8-5 8.1-5.6 18 2.5 26.2 16.4 17.3 40.4 27.7 64.2 26.6 29.2-6.3 26-8.8 53 3.6 6.7 1.5 7.8 4.8 7.4 10.6-2.1 32.4-4.1 64.9-6.1 97.3-.1 2.4-1.3 3.5-3.5 2.6-8.3-3.6-17.5-6.2-24.6-11.4-9.5-6.9-16.8-17.1-26.4-23.9-16.7-11.8-35-20.5-56.3-21.2-8.4-.3-16.1 1.2-20.6 7.8-22.7 33.3 42.5 48.5 65.4 47.9 30.7-3.2 32.9-6 61.6 9.5 1.3.6 3 1.1 2.9 3.8-1.4 24.5-2.2 49.1-4.1 73.6-.2 3 4.2 11.6-5.6 9.8-9.1-1.6-18.3-3.5-27.3-5.8-7.1-1.8-16-2.2-20.7-6.8-20.1-19.3-45.8-53.2-77.5-42.1-18.9 10.8-10.1 41.4 7.1 49 17.4 9 35.9 9 54.9 6.5 5.6-.8 10-6.3 15.5-4.2 12.8 4.9 26.4 6.2 39.3 10 6.6 1.4 16.8 2.1 13.9 12.3-1 4.5-6.3 7.9-7.9 12.5-6.9 19.7-13.8 39.3-17.6 60-1.7 9.3 6.1 33.4 14 37.1 17.8 8.3 40.7-4.9 43.6-24.6 1.8-12.3 2.8-24.3 0-36.7-3.4-15.4-11.2-29.5-22.6-40.5-6.2-5.7-4.6-17.5 5-16.4 17.7-2.7 35-11.2 52.9-13.4 11.8-1.7 22.4 6.2 33.7 9.3 18.4 5 35.7 2.1 52.5-4.5 14.2-5.6 16.8-18.7 14-31.6-3-13.6-15.5-18.7-27.6-19.3-19-.9-35.2 8.4-50.3 19.2-7.8 5.6-14 14.5-22.6 17.8-15.7 6.1-32.6 9.2-49 13.2-3.5.9-8.8 6.7-8.6-4.9.4-29 6.9-57.4 6.6-86.3 0-1 .6-2 1.4-2.5 14.8-5.3 28.8-12.4 42.5-20 1.5-.8 3.4-.9 5-.3 26.5 15.6 61.4 25 89.8 7.5 6.1-4.1 9.4-11.3 8.5-18.6-1.5-25.7-36.5-28.5-56.4-23.7-17.7 4.1-31.9 16.1-46.7 25.6-12 7.1-25.5 11.6-38.3 17.4-11.6 10.6 2.3-73.5 1.7-79.4.6-13-1.6-25.3 16.3-29.1 11-2.4 21-8.2 31.7-11.5 30.6-9.9 49.2 18.1 89 1.2 9.7-3.8 19.2-8.4 19.9-20.1-1-42.4-63.1-29.6-84.4-9.6-11.3 12.4-10.8 15.3-27.5 20.3-13.2 4.8-26.8 8.9-40 14-4.3 1.6-2.7-.9-2.6-2.1 2.4-35.4 3.8-71 6.1-106.4-1.8-14.9 10.5-12.8 20.5-17.3 33.4-18.3 66.7 16.7 101.3 3 31.1-9.5 23.3-43-7.4-46-20.6 1.1-39.5 8.2-56.3 19.2-16.1 10.5-35.3 10.5-51.8 18.7-1.6 1-4.5 1.4-4.2-2.2 1.3-23.6 2.6-47.2 3.5-70.8.2-6.2 1-9.3 8.2-11.3 6.1-1.7 12.3-3.3 18.5-4.6 10-2.2 19.3-8.3 30.1-6.9 25.1 2.2 83.1 17.4 91.1-16.9 1.6-6.9-1.7-13.2-8.1-17.3-28-16.6-63.5 7-86.5 22-13.1 7.2-28.8 7.1-42.6 12.5-9.6 3.7-8.8-.7-8.4-7.2 1.5-30.8 2.7-61.6 4-92.5.2-5.3-2-10.1 7.7-10.8 19.1-1.4 37.9-6.2 57.4-5.9 18.2.3 36.3-.5 52.6-10 17-7.3 14-35.3-4.6-37.9-31.3-4.7-54.1 12.7-72.4 35.6-10.4 3.1-21.2 4.8-31.9 6.7-10.2 2.7-9-4.9-6.8-11 3.7-68.1 4.5-136.2 4.1-204.4.3-14.3 3.5-29 1.2-42.8-2-12.4 1-24.3-.8-36.5-1.5-11 1.9-22.6 1.1-33.9-3-30.6-1-61.4-1.9-92.1-2.7-60.3-.6-120.6-5.9-180.8 22.1 44.9 40.7 91.3 59.8 137.8 10.2 26.6 20.1 53.3 29.8 80.1 2.5 7.1 6.8 16.4 4.3 22.1-6.5 15-11.2 28.5-27.7 37.3-31.7 17-40.1 49-40.1 82.9 3.8 46.6 73-24.3 65.2-63.1-.3-16.1-3.6-33.3 7.2-46.8 10.8 24.7 15.8 52.5 22.7 78.7 1.7 7.5 8.9 14.8 4.5 22.5-21.3 40.4-10.6 118.8 37.9 134.8 8.3 1 17.8-.6 24 6 14.9 15.9 29.3 32.8 37.3 53 3.9 10 22.6 21.7 3.3 34.2-51.1 46.9-49.8 4.2-91.3 35.1-8.2 6.8-19 12.8-12.8 26.2 4.5 9.7 13.7 14.3 23.7 14.1 16.7-.4 36.1-7 44.4-32.6 1-3.2 2.4-7.1 4.8-8.9 13.5-9.5 27.3-18.5 41.1-27.7 2-1.3 3-.9 3.9 2 5.5 16 10.7 31 16.2 46 3.6 9.8 7.6 18.7-4.4 26.3-5.4 3.5-8.8 10-13.5 14.8-24.8 32.5-63.9 13-83.4 60.3-4.2 10.4 1.3 20.7 12 23 22.3 1.3 46.5-19.2 53.6-39.9 2.2-6.6 1.2-15.9 5.5-19.7 9.4-8.3 19.2-16.2 27.7-25.6 6.6-7.3 12.7-14.4 16.2 2.7 2.1 10.7 10.3 20.7 9.4 31.8-1.4 11.8-4.7 23.5-5.2 35.8-.5 18 8.5 63 32.9 56.7 32.6-13.7 14.1-59.9-1.8-80.4-23.1-21-18-12.7-24.7-44.7-3.5-7.7 34.3 7.7 38.9 7.4 4.9 1.3 9.6 3.4 13.5 8.5 8.9 11.6 20.2 21.5 32.7 30 83.7 36.8 72.2-51.6-10.7-49.6zm-35.1-94.9c64-26.1 105.5 21.8 58.6 25.3-30.5-5.1-34.3-4.6-60.2-22.2-2-.8.8-2.8 1.6-3.1zm-8.7-108.2c16.4-13.5 42-25.6 61.8-12.8 6.2 6 3.7 15.7-5.5 18.1-21.7 6.9-45.8 15.5-68.6 7.8 4.1-4.3 7.8-9.2 12.3-13.1zM654.5 427.8c27.5 8.2 50.6 18.8 74.5 28.4-26.4 7.8-46.2-5.8-74.5-28.4zm5.2-14.6c21.2-6 60.4 13.5 68.6 34.3-24.2-13.6-50.6-21.4-76.1-31.5 2.5-.9 4.9-2 7.5-2.8zm27.9-102.4c-23.7-12.1-45.3-20-68-28.4 30.1-9.3 47.8 8.1 68 28.4zm-5 5c-26.7 7.2-48.1-.9-67.7-25.2l67.7 25.2zM613 130c-26-11.3-50.3-22.5-76.4-29.6 19.2-9.2 63.3 7.4 76.4 29.6zm-75.8-20c24.1 7.2 47.7 19.6 72.5 23.1-13.5 4.3-27.3 6.1-41.1.9-13.8-6.1-30.7-11.8-39.3-24.6 2.6-.4 5.3-.2 7.9.6zm-235.3-1.6l83 9c-16.2 12.6-63.5 6.1-83-9zM292 99c32.1-19.6 81.9-6 95.6 9-31.3-5.1-62.6-9.5-95.6-9zm-82.3 112.9c33.9-5.4 66.7-14.2 101-14.9-14.2 17.5-58 27-101 14.9zm39.3-18.8c-13.4 1.2-26 7.8-39.6 7.4 27.5-32.9 70.5-31.7 107.6-13.6-25.9-1.8-46.8 3.5-68 6.2zM132.2 326.6c28-28.2 57.6-42.1 97.3-37-34 9.9-63.6 23.7-97.3 37zm98.9-24.2c-24.6 30.9-55.2 28.6-92 34.8 10.4-9.3 22.1-10.3 31.8-15.8 10.6-5.9 22.7-9 34.2-13.3 9.2-2.4 18.1-9.5 27.7-8.5-.5 1-1 2-1.7 2.8zm-21.6 86l-83.8 36.7c7.5-19.4 52.6-45.5 83.8-36.7zm-82.3 47.7c27.9-12.5 55.8-25.1 83.6-37.6-3 23.2-53.7 46.2-83.6 37.6zM75.4 572.2c1.9-15.5 43.6-47.8 72.4-42.3-23.6 16-51 24-72.4 42.3zm15.5-.7l59.3-31.9c-12.2 24.2-34.7 30-59.3 31.9zm56.5 167.6c-12.1-8.9-11.2-50.7 1.6-69.6.2 24.1-4.8 46.5-1.6 69.6zm15-15.1c-1.4 6.4-5 11.5-8.7 16.9 1.5-21.5-.8-44.4 5.9-64.6 8.3 14.8 6.1 31.9 2.8 47.7zm83.2-115.9c-14.1-20.4-20.8-41.2-31.7-61.6 28 11.9 29.3 35.4 31.7 61.6zm-38.5-51c10.2 16.1 15.4 35.2 27.4 50.7 1.3 1.9 3.9 4.2 2 6.4-23.6-5.8-29.3-30.9-32.1-52.5l2.7-4.6zM177 844c-17 15.3-42.1 21.8-63.1 13.6-4.7-2.4-8.6-4.3-8.7-9.7 6.6-24.1 52.4-11.8 69.8-8.5 1.6.3 4.5 1.9 2 4.6zm-18.9 112.8c-48.6 48.5-98.8 3.4-52.5-8.1 18-3.9 35.2-3.9 52.2 3.9 4.3 2 1.2 3.3.3 4.2zm75.5 72.4c88.3-14.2 93.3 82.2-2.8 1.5.8-.6 1.8-1.1 2.8-1.5zm-44.9 52c7.3 52.6-31.8 69-27.4 39.8 2.5-15.8 6.6-31.3 15.6-45.1 1.9-3 5.6-8.2 6.5-7.2 2.9 3.6 4.8 7.9 5.3 12.5zm63.9-159.9c19.4-4 43.1-2.5 58.1 14.2 8 8.8 1.5 21.1-10.1 17.3-20.6-5.8-41.7-12.8-58.1-27 3.3-1.5 6.6-3.7 10.1-4.5zm17-101.4c17.4-11.3 39.6-2.6 49.1 12.2 6.2 8.5 1.2 15.3-12.1 14.7-10.2 1.8-69.1-21.5-37-26.9zm26-98.8c16.5-1.2 30.8 7.7 39.9 21.3 2.5 6.3 2.4 13.3-3.4 15.4-14.3 7.4-38.7-24.7-36.5-36.7zm-40.2-275c23.4 7.4 37.2 28 44 51 4.6 16 10.4 31.3 4.9 48-13.8-24.1-28-47.3-40.4-71.5-4.3-8.2-9.4-16-13.2-24.5-.8-1.7 2.6-3.8 4.7-3zm-9.6 10c17.9 34.8 33.4 67.6 53.6 98.6-38.1-18.6-56.4-64.6-53.6-98.6zm68.2-98c22 14.9 35.3 41.6 38.2 67.3-1-.5-2.5-.7-3.1-1.6-6.7-10.2-13.5-20.4-19.7-30.9-2.6-5.9-19.1-31.1-15.4-34.8zm-10.1 4.7c6.9 24.2 23.8 43.3 35.6 66.4-32.1-19.5-39-49.2-35.6-66.4zm117.4-3.9c-16.2-25.8-28.6-50.9-38-77.5 32.5 15.3 31.7 46.8 38 77.5zM374 286.5c10.5 23.8 19.3 48.5 36 71.4-31.5-22.1-43.5-46.7-36-71.4zm71.6 220.4c-19.2-.5-48.6-27.6-48.5-49.5-2.3-24.3 20.8-11.8 27.7.7 3.2 2.7 31.3 53 20.8 48.8zm-62.3 70.4c-2.3-16.8 14.3-17.3 23.6-7.3 14.2 10.8 23.9 26.7 31.9 42.5-22 3.3-49.6-14.1-55.5-35.2zm-11.4 122.4c-11.8-8.9-14-33.3 4.9-33.7 8.8-.2 13.9 6.4 20.3 10.5 16.5 10.3 28.6 24.5 37.2 42.8-22.7-1.3-44.7-3.2-62.4-19.6zm42.5 138.7c-23.9-.2-50.1-8.7-62.5-31.7-4.3-5.5-4.1-19.9 6.3-17.9 21.5 5.7 37.4 22.6 50.5 39.7 2.3 3.1 7.6 5.1 5.7 9.9zm-4.1 119c-20.3-2.8-62.1-5-66.8-31.6 11.1-18.5 72.3 16.1 81.1 30.4l-14.3 1.2zm5 127.4c-26 5.9-53.1-2.5-71.3-21.9-2.6-2.6-3.4-6.5-2.3-9.9 9.1-20.5 70.6 16.6 79 29.5-1.8.8-3.5 2-5.4 2.3zm-8.1 112.3c-.7 3-3.2 1.4-4.9 1.9-15.9 5.7-74.4-3.7-71.2-26.4 3.6-20.8 60.9 5.9 68.1 16.2 2.1 3.3 8.9 4.2 8 8.3zm-25.3 101.7c-18.5-1.4-39.8 5.6-54.9-9.1-7.2-7.8-13.5-16.7-5.8-26.4 7.3-9.3 16.8-2.9 25.3.4 16.7 6.9 28.5 20.8 41 32.8-1.9.8-3.7 2.2-5.6 2.3zm73.8 44.1c16.7 21.9 28.1 68.4-2.1 83.5-9.2 3.1-13.8-3.3-16.1-10.3-1.4-4.3-4.7-9-2.5-13.5-.1-15.1 4.7-28.3 9.1-41.6 1.4-4 4.3-27.9 11.6-18.1zm114.1-72.9c61.5-18.6 51.5 63.9-42.3 26.2 12.5-11.1 26.3-20.5 42.3-26.2zm-44.7-87.1c64.5-41.2 100.6 7.4 57.7 15.9-20.3 1.3-40.2-.1-57.9-11.9-2.5-1.2-1.6-2.8.2-4zm63.1-136.7c58.5-2.5 29.6 52.1-46 21.8 14.3-10.7 26.8-21.4 46-21.8zm-41.3-101.1c48.4-34.1 92-.8 43.5 11.8-5.4-.8-52.4-5.1-43.5-11.8zm12-98c18.1-9.1 42.4-22.4 61.9-10.7 3.4 2.3 3 5.9 2 9.2-2.3 8.1-10.6 5-12.9 6.9-18.5 5.6-34.2-.1-49.9.5-2.2.1-4.5-1.4-6.7-2.2 1.9-1.3 3.8-2.6 5.6-3.7zm8.2-131.8c11.2-5.6 23.7-8.3 36.2-7.9 5.2.2 6.1 5.8 6.1 10.3.1 8.2-7.5 12-12.5 12.5-17.1 1.8-34.1 6.9-51 4.3 6.8-6.7 12.1-14.9 21.2-19.2zm-34.2-219.9c-.6.9-1.2 1.7-2 2.4-9.5-21.5 16.2-67.9 36.4-78.2-12.4 26.3-23.7 49.7-34.4 75.8zm14.4-2.1c-6.5 5.2-2.3-3.5-1.8-6.1 10.6-19.7 17.3-43.1 30.3-60.8 2.9 24.4-9.3 50.5-28.5 66.9zm76.8 6.9c13.5 37.6 19.9 77.5 36.6 114.6C628 603 603.9 527 624.1 500.2zm45.4 106.5c-.1.5-.9.9-1.3 1.4-10-36.3-16.8-73.9-30.7-109.3-.8-2.1-1-5.9.2-7.1 1.9-1.8 3.5 1.3 5.1 2.6 23.8 18.7 30.4 48.6 34.2 76.9.5 12.7-6.2 23.5-7.5 35.5zm1.1 163.4c-16.5 14-31.7 16.1-41.8 5.5-2.4-2.5-2.3-4.6-.7-6.8 9.3-13.2 23.5-16.3 38.6-18.3 4.7.8 9.5 1 14.2 1.7-3.5 5.9-4.6 13-10.3 17.9zm39 75.1c-4.1 29.3-64.4 58.7-47.3 24.6 5.9-12.1 16.6-18.8 29.1-22.7 5.2-1.6 9-6.5 15.1-6 2.6.1 4.6-1.4 3.1 4.1zm72.2 8c18.4 15.7 34.9 44.4 22.3 67.6-1.4 3-5.3 6.1-8.5 4.7-6-2.6-8-9.3-10.3-14.7-7.9-18.4-7.7-38.1-3.5-57.6zm123.2-2.4c-4 6.9-12.9 4.1-20.1 3.6-17-1.1-27.6-13.1-39.5-22.7-4.3-3.5-5.7-10-12.1-12.1 23.7-4.4 45.5-1.2 64.3 15 5.2 4.4 10.6 10.5 7.4 16.2zm-763.9-776c4.9-7.1 9.6-5 15-5.6 2.1-.2 3.5-.6 1.3 2.6-7.7 11.2-14.9 22.7-21.9 34.3-5.4 8.9-7.5 19.3-17.9 25.7-31.2 19.3-46 47.4-38.3 83.1 4 14 11.8 19.4 22.3 6.2 6.3-6.3 13.2-12.5 18-20 11.2-17.1 22.1-34.5 18.1-57-1-5.5-7-9.6-4.2-15.4 13.2-26.3 29.5-51 48.6-73.4 10.6 16.1 5.9 14.8 5.3 31.1 1.8 11.5 4.6 22.8 8.3 33.8 5.2 15.2 21.1 29.1 38 29.1 18.4 2.1 13.7-30.7 11.6-41.7-2.4-18.2-26.8-41.5-44.9-42.4-2.4-.1-12.6-16.5-11.4-18.5C193.9 33 226.3 11.1 222.8.3c-3.9-7.4-18 15-21.9 17.8-9.9 11.3-20.3 22.2-28.3 35.1-3.2 5.1-27.6 12.7-31.3 9.4-21.2-19-61.9-17.2-81.7 2.6-33.5 28 56 52.3 81.5 9.6zM89 211.7c-2.7-13.5-4-25.8 2.3-38.2 6-10.3 11.9-23.1 23.2-28.2-7.5 22.2-16.8 43.2-25.5 66.4zm31.5-29c-3.8 10.4-11.6 18-20.3 25.4 8.6-21.7 16.4-43.7 26.6-64.7 7 12.9-2.4 27.1-6.3 39.3zm117.9-50c-11.1-18.6-22.1-36.8-33.1-55.2 22.5 5 35.5 35 33.1 55.2zm-40.6-48.8c12.4 18.5 24 37 35.7 56.6-22.7.3-38.4-33.9-35.7-56.6zm-90.7-26.3c4.9.6 19.9 2.2 22.4 6.3-20.8 2.5-45.3 7.3-67.4 11 12.1-14.2 28-17.8 45-17.3zM64.6 82.2l70.9-11.3c-22.3 23.9-54.7 21.9-70.9 11.3z"/></g><g><path d="M52 1548v15l-37 37h946l-37-37v-15H52M52 52V37.7L14.3 0H0v1600h15l37-37V52m872 0V37.7L961.7 0H14.3L52 37.7V52h872m52-52h-14.3L924 37.7V1563l37 37h15V0z"/><path d="M961 1600h15V0h-14.3L924 37.7V1563l37 37H0V0H961.7M52 52V37.7L14.3 0m.7 1600l37-37V52h872m0 1496H52" fill="none" stroke="#333" stroke-width="2" stroke-linecap="square" stroke-miterlimit="3"/></g></svg>