<svg xmlns="http://www.w3.org/2000/svg" xmlns:xlink="http://www.w3.org/1999/xlink" viewBox="0 0 976 1600"><path d="M960 22v1556c0 3.3-2.7 6-6 6H22c-3.3 0-6-2.7-6-6V22c0-3.3 2.7-6 6-6h932c3.3 0 6 2.7 6 6z" fill="#fff"/><defs><path id="a" d="M960 22v1556c0 3.3-2.7 6-6 6H22c-3.3 0-6-2.7-6-6V22c0-3.3 2.7-6 6-6h932c3.3 0 6 2.7 6 6z"/></defs><clipPath id="b"><use xlink:href="#a" overflow="visible"/></clipPath><g clip-path="url(#b)"><path d="M83.1 1604c-8-4-82.2 6.6-87.1-4 9.2-4.2-17.9-619.5 9.7-607.7 18.1 9 35-20 55.8-18.5 11.4.8 10.3-3.7 16.2-9.6 54.7-23.3 107.2-42.5 163.1-56.1 136.4-27.2 281.3-24.7 417.4 16.8 20.1 6.3 48.6 19.9 65.6 34.8 5.1 4.6 8.4-3.1 12.4-4.2 38.5 10.3 74.7 34 109 54.3 47.2 30 98.1 56.9 134.8 99-2.2 97.2 1.6 398.7 0 491.3.9 11.6-892.9-.1-896.9 3.9z" fill="#333"/><path d="M976-4C972.1.2-5-12-4 0 8.8-4.2-30 1046.2 12 994.1 160.6 906 337 870.8 508.2 890.8 680 904.7 846.7 986.5 976 1098.5 982.9 1096 984.7-1.9 976-4zM666.3 721.5c-61 72.2-139.9 108.3-225.1 116.4-94.2 3.5-172-20.7-239.1-76.1-55.5-45.8-94-103.4-110.9-173.7-28.8-119.8-.5-226.3 83.5-315.5 55.4-58.9 126-92.6 207.1-99.8 106.1-9.4 197.9 25 272.1 100.7 54.3 55.4 85.9 123.7 92 201.7 7.4 92.7-19.3 175-79.6 246.3z" fill="#d81e1e"/><path d="M205.6 771.1c70.5 55.9 152 79.4 241.2 70.7 101-9.8 182.3-57.7 242.1-138.8 48.9-66.1 68.5-142.1 62.9-224.5-10.7-157.9-147.5-321-356.7-311.6-163.2 7.4-323.4 145.5-318.7 345.6 2.5 105.7 46.2 192.8 129.2 258.6zm-22.4-490.3c53.5-56.8 121.6-89.3 199.8-96.2 102.3-9 190.9 24.1 262.5 97.1 52.4 53.4 82.9 119.3 88.8 194.6 7 89.4-18.7 168.8-76.8 237.6-58.8 69.7-134.9 104.5-217.2 112.3-90.9 3.4-166-20-230.6-73.4-53.5-44.2-90.7-99.8-107-167.6-27.8-115.7-.5-218.3 80.5-304.4zm793 1182.9c-1.3 1.4-2.4 1.5-4.2.3-19.6-12.2-38.9-24.8-59-36.1-35.7-19.9-73.3-35.8-111.2-50.8-23.3-9-44.3-22.3-69.4-26.4 74.5 49.9 141.9 111.6 186.2 190.2 2.2 4.1 9.2 10.7 4.6 12.1-5.5 1.7-8.3-8.3-11.9-13.3-50-73.2-112.9-136.6-187.1-185.1-21.7-15-46.6-17.4-70.7-23.4-8-2-15.2-7.4-26.3-5.5 94.6 58.1 172.8 130.5 232.4 225.1-12.6-4.9-15.7-15.1-21.5-22.5-52.6-66.7-113.9-126.2-182.3-176.8-54.8-42.7-80.1-37.9-145.9-46.9 111.4 56.9 211.7 136.9 284 239.3 6.8 7.7-.8 12-5.8 3.5-65.7-87.2-150.9-159.1-244.4-215-53.3-34.7-74.6-29.5-135.1-29.4 131.6 45.6 250.1 130.2 330.4 244.4 1 1.4 3.8 2.8 1.5 4.9-2.1 2-3.5-.3-4.8-1.7-65.3-76.1-138.5-146.4-228.4-192.8-94.5-50.4-122.4-62.3-228.1-35-97.1 23.9-190.6 63.5-269.7 125.2-2.4 1.8-4.9 6.4-8.1 2.8-2.5-2.9 1-5.8 3.1-8.1 28.7-29 66.4-46.2 100.8-67.5 68.7-35.6 143.6-58.8 219.4-73 21.5-5.6 43.8-4.3 65.4-9.3 4.8-.9 9.8-1 14.6-.1 20.5 3.1 33.3-8.9 47.4-21.2 17.1-14.8 36.1-27.5 56.9-37 34.2-15.8 68.1-32.6 105.3-40.4 116.8-28 242.8-29.4 358.5 4.4 1.9.6 3.3 1.9 3.3 3.4 0 2.3-2.4 2.5-4.8 1.6-55.3-14-109.5-18.7-167-18.9 47.9 24.6 88.5 55.1 122.3 96.1 3.8 5.6 22.8 27.4 19.8 32.2-18.9-12-29.3-34.5-46.8-48.8-26.5-24.1-55.3-45.8-85.8-64.6-22.7-13.8-46.4-18.1-72.6-13.3-12.6 2.3-26-.5-39.5 3.4 91.1 25.5 166.4 85.3 224 158.7 2.6 2.7 1.8 5.3-.6 6.6-2.7 1.4-2.9-1.6-4.2-3.3-3.5-4.7-7.8-8.8-11.8-13.2-56.4-67.9-134.1-120.2-219.4-143.9-72.1-5.9-193.5 47.5-247.6 95.5 8.5 4.1 17.6 2.4 25.6 1.7 15.2-1.3 30.1.9 45.1 1.2 31.3 2.6 62.8 8.1 93.5 15.1 104.7 20.3 208.9 50.3 300.3 106.7 23.1 14.3 45.5 29.9 68.4 44.5.7 1.4 3.1 2.4 1.2 4.4zm-550 7.7c-.4 2.8-3 1.9-4.5 1.6-41.9-10.3-85-11.3-127.9-8.5-21.6 2.4-42.7 6.7-63.9 10.5-15.7 2.8-27 13-41.4 22.2 67.8-11.6 133.2-8.1 198.7 7.9 3.4 1.7 9.4 2 8.1 7.4s-5.1 1.4-8.1.7c-71.1-13.1-145.3-18.2-216.2-1.8-7.3 2-14.3 7.5-19.9 13-17.1 16.8-33.8 34.1-50 51.7-7 5-18.8 31.8-26.2 28.3-4.7-2.2-.6-6.5.8-8.8 46.6-73.1 120.6-123.7 198.4-159.2 44.7-20.4 91.3-37.7 139.4-48 4.2-.1 9.2-4 12.6-.6-.9 1.1-1.5 2.8-2.6 3.1-24.3 7.4-48 16.5-71.7 25.5-31.6 11.4-61.7 25.9-92.5 39.1 30.7-1.9 61.1-7.2 91.6-2.4 13.4 2.3 72.7 4.6 75.3 18.3zm557.9-366.6c-26-33.4-62.5-56.5-97.6-79.6-51.8-33.1-104-63.9-162-85-90.2-39.7-187.7-54.9-285.5-58.7-15.6-.7-31.4 1.8-47 1-35.6-2.1-70.2 4.1-105.4 8.1C215 902.4 145 924.8 79.1 955.2 64.5 962.4 5.9 983.8 6 998.3c2.9 7.7 12.5-.7 17-2.7 30.3-24.9 68.2-19.8 104.1-15 65.5 10.3 131.4 32.3 183.9 73.7 8.2 6.6 19.2 9.2 25.4 17.4-7.8 3.1-15.3 7.4-23.4 9-38.8 8.9-73.5 28.8-109.9 43.9-37.1 13.8-69.7 35.6-103.5 55.8-33.6 22.6-66.9 45.9-93.3 76.8-2 2.2-5.1 5.1-5.1 8.4-.2 4.3 4.5 5.2 8.4 1.6 78-80.4 182-128.7 285.3-168.2 15.7-5.3 31.2-10.9 47.4-14.9 17.9-4.4 34.5-14.3 54.1-7.2 16.1 5.8 32.6 10.5 48.9 15.8 15.5 5 29.1 14.1 43.5 21.4 13.2 6.7 26.9 12.4 39.2 21 9 5 24.3 20.1 33.2 20.3-.2-1.3-.1-3.7-.7-3.9-6.2-2-8.2-8.6-13.1-12-12-8-24-16-35.6-24.5-33.8-24-67.1-31.4-108.1-45.8 82.7-15.4 157.5 34.5 219.8 82.7 4 3.5 10.8-.3 4.6-3.4-40.5-45.2-86.3-65-140.9-86.9 76-7.3 153.4 11.6 228.7 23 2.8.5 7.9 0 8.6-1.5 1.5-3.2-3.3-2.4-5-4-97.7-31.7-204-38.6-305.7-24.1-2.9.4-6.8 2.5-8.4 1.3-9.9-7.2-19.3-15-28.7-22.7-63.9-49.7-139.9-81.6-218.9-97.5 13.7-4.2 26.8-8.8 40.3-12.2 12.8-3.2 25.1-11.2 39.1-6.8 61.2 20.6 115.8 55.7 170.2 89.7 14.8 9.6 29.1 19.9 43.7 29.8 2.1 1.4 4.5.2 6.1-1.8 2-2.5-.3-3.8-1.8-4.8-19.7-13.2-36.5-30.2-58.6-40.6-50-29.6-97.4-63.5-155.3-77.4 22.7-4.2 40.4-11.5 62.8-8 73.6 24.2 133.4 73.2 195.6 117.5 1.2.8 2.9 2.7 3.9 0 .6-1.4 1.6-3.1-.6-4.7-51.9-40.8-105.8-79.9-166.7-106.1-7.8-4.1-17.6-3.8-24.9-11.2 115.4-9.2 234.1-6.7 345 29.2 39.7 10.3 67.3 39.7 101.8 59.8 31.3 27.8 59.4 58.9 83.9 92.8 11.8 16.9 22.5 34.1 30.7 52.9.5 1.3 2.4 2 3.6 3 3.4-19.4-25.1-58.1-36.5-75-28.4-40.7-63.5-73.5-103.9-102.7 37.8 11.3 72.8 33.3 106.8 53.7 35.9 22 72.1 43.8 105 70.2 10.2 8.1 19.2 17.8 29 26.4 4 3.1 11.5 1.2 7.1-5zM170.2 944.3c81.6 20.9 159.2 59 223.3 113.8-13.6 3.4-28.2 8.4-43.2 10.4-9.4 1.2-15-9-22.2-14.1-72.5-52-159.6-87.3-249.5-86.3 31.1-9 57.7-33.8 91.6-23.8z"/></g><g><path d="M52 1548v15l-37 37h946l-37-37v-15H52M52 52V37.7L14.3 0H0v1600h15l37-37V52m872 0V37.7L961.7 0H14.3L52 37.7V52h872m52-52h-14.3L924 37.7V1563l37 37h15V0z"/><path d="M961 1600h15V0h-14.3L924 37.7V1563l37 37H0V0H961.7M52 52V37.7L14.3 0m.7 1600l37-37V52h872m0 1496H52" fill="none" stroke="#333" stroke-width="2" stroke-linecap="square" stroke-miterlimit="3"/></g></svg>