<svg xmlns="http://www.w3.org/2000/svg" xmlns:xlink="http://www.w3.org/1999/xlink" viewBox="0 0 976 1600"><path d="M960 22v1556c0 3.3-2.7 6-6 6H22c-3.3 0-6-2.7-6-6V22c0-3.3 2.7-6 6-6h932c3.3 0 6 2.7 6 6z" fill="#fff"/><defs><path id="a" d="M960 22v1556c0 3.3-2.7 6-6 6H22c-3.3 0-6-2.7-6-6V22c0-3.3 2.7-6 6-6h932c3.3 0 6 2.7 6 6z"/></defs><clipPath id="b"><use xlink:href="#a" overflow="visible"/></clipPath><g clip-path="url(#b)"><path d="M0 1604c2.9-58.4-33.3-654.7 22.3-654.9 60.4-31.8 127.6-57.8 193.8-72.2 21.1-4 41.7-12 63.7-9.9 14.3-1.9 34.3 12.4 43.3 1.5 1.5-4.3 9.2-3.3 8.1-9.4 12.1-10.2 35.9-5.5 51.4-8 14.3-5 47.3 18.2 56 1.5 44.8-1.2 91.6 5.2 136.5 13.1 38 2.2 80.5 22.1 111.1 33.7 4-1 3.2-7.2 7.7-7.2 10.7 3.2 21.2 7.3 31.6 11.6 95.8 37.4 181.3 89.8 252.2 161.6 6.8 1.8.2 171.8 2.4 175.7.2 8.1-.2 349.5 0 358.9.9 11.9-976.2-.2-980.1 4z" fill="#333"/><path d="M992.8 1246.6c-1.8 5.6-12 2.4-16.8 3.8-29.8 3.3-60.3.5-89.6 6.8-95.7 15.2-187 50.3-267.4 104.3 98.9-8 199.2 10.4 289.9 49.8 13.3 5.8 25.2 14.6 37.6 22.3 1 .7.9 3.2 1.3 4.9-2.1.1-4.7 1-6.2.1-19.9-12.6-41.3-22.9-63.6-30.5-19.3-6.4-38.5-13.6-58.7-17.2-25.3-6-50.3-14.1-76.5-15.6-48.2-2.4-97.6-10-144.9 2.4-7.7 1.9-14.1 9.2-25 16.7 78.8-24.8 260.3 18.9 321.7 72.5-1.4.6-3.3 2-4.2 1.5-19.9-10.1-39.3-21.4-59.7-30.3-16.5-7.2-34.1-12.1-51.5-16.8-62.7-11.8-130.1-34.2-193.5-19 8.6 5.1 19.6 2.8 29.1 4.2 51.6 3.4 101.4 19.3 148.9 39.2 15.3 6.2 29.6 14.7 42.5 25.2 8.3 7.5 22.5 11.7 25.3 23.8-81.1-53-170.6-81.9-269.4-79.8-32.2 3.3-52.4 34.1-73.9 54.8-32.6 33.6-60.7 72.5-85 112.6-1.3 3-2.6 5.9-6.1 6.8-13.4-22.8 76.4-123.4 96.2-142.2 12.3-12.3-4.7-11.3-7.4-13.1-67.1-44.1-143.7-74.6-223.9-82.5-17.8-2.3-36-3.9-53.9-2.9-10.2.6-20.6-5.3-29.9 2 57.6 22.1 106.6 64.7 143 114.2 9.2 14.2 29.9 42.5 26.6 59.1-41.1-81-136.9-181.2-236.6-166 71.2 22.6 143.4 79.4 169.4 150.4 2.6 8.6 6.1 17.3 9.5 25.8.4.9 2.2 2.6-.4 2.8-1.3 0-2.5-.6-3.2-1.6-10.5-19.1-18.2-39.8-31.3-57.6-8.3-11.3-16.6-22.6-26.3-32.9-35.9-36.3-79.8-65.6-128.3-81.1-14.4-4.7-29.6 2.9-43.7 8.2-17.3 6.4-35 12-50.4 22.7-6.3 4.4-11-4.8-2.5-7.9 126-76.3 306-60.4 433.5 5.4 98.1 53.2 39.9 57.8 132.9-9.7 82.2-65.5 179.4-111.1 283-129.9 40.4-8.1 81.5-13.3 122.7-11.3 4.4.4 8.7 1 13 1.8 2 .6 4 1.5 3.7 3.8zM25.9 951.8c63.7-33.5 131.7-59 202.2-73.5 39.5-13.1 82.3-6.6 120 9.2 67.5 25 117.7 76.9 164.5 129.4-42.9-73-105.8-120.6-185.6-147.5 45.6 3.9 86 29.6 125.6 51 49.1 28.3 92 64.8 132.4 104.1 2.4 1.9 7.5.6 3.5-2.5-63.8-79-155.9-135-253.4-162.7 65.9-15.3 130.1 13.8 184.4 49.1 57.2 35 100 88 137.5 142.8-43.6-96.4-120.8-155.8-216.5-195.1 57.4.3 116 9.2 173 20.6 48.5 12.1 90.2 38.5 132.6 63.6 75.7 44.2 139 106 187.1 179.1 2.9 3.8 4.8 12.1 10.1 10.2 3.7-1.3-.7-7.6-3-11.2-32.9-53.8-74.4-102.6-123-143-37.5-31.8-81.8-52.8-124.5-76.5.4-.9.7-1.8 1.1-2.7 71.5 26.9 142.9 58.7 204 105 26.7 21.2 52.2 43.8 77 67.1 1.5 1.3 3.6 3.3 5.5.8 1.7-2.3 2.1-4.8-.3-7.5-21.4-23.7-44.6-45.6-69.5-65.5-66.1-52.1-144.3-89.4-224.3-114.9-69.4-19.2-140.5-33-212.4-38-32.2 1.4-64.5-3.6-96.4-1.3-84.4 6.3-169.6 21.2-249 51.3-24.7 9.1-49.8 17.1-73.3 29.4-18.9 11-71.8 24.7-65.2 52 3.9 3.4 7.4-4.6 10-6.6 7.3-7.3 16.7-11.7 25.9-16.2zm410.6 109.1c93 27 180 71.3 256.5 130.7 6.2 5 12.6-1.7 5-6.8-153.8-127-361-184.7-558.7-169.2-43.9 5.2-88.5 12.6-129.8 29.6-6 2.8-1.2 10-5.4 13.5 16.6 5.2 34.7-1.3 51.8.7 81.3 3.6 160.5 36 219.8 92.1 3.6 3.7 9 0 4.4-3.6-25-32.1-61.8-51-97.8-68.3-49.4-25.5-103.8-31.3-158.8-28.7 79.5-24.9 163.2-29.2 246.1-23.6 34.8 1.5 58.1 33.1 83.5 53.4 23.8 21.8 42.5 47.2 58 75.2 12.6 20.1 15.4 44.9 27.8 64.5-7.7-77.5-64.2-147.3-130.1-187.1 17.1-5.5 94.4 46 105.9 61.3 28.1 27.4 51.1 59.3 75.1 90.4 16.7 22.6 28.4 48.3 41.5 73 .8 1.6-.5 6.2 3.3 4.4 3.5-1.6.7-5.2-.1-7.6-28.3-75.4-78.9-142.9-141.3-193.5 94.8 44.3 175.3 119.4 227.6 209.9 2 3.4 5.1 1.7 7 1.2 2.6-.7 0-2.7-.6-3.8-16.6-27.6-31.5-56.6-52.5-80.8-50.2-58.3-112.1-105.3-181.1-139.2 14.7 2.3 28.4 8.9 42.9 12.3z"/></g><g><path d="M52 1548v15l-37 37h946l-37-37v-15H52M52 52V37.7L14.3 0H0v1600h15l37-37V52m872 0V37.7L961.7 0H14.3L52 37.7V52h872m52-52h-14.3L924 37.7V1563l37 37h15V0z"/><path d="M961 1600h15V0h-14.3L924 37.7V1563l37 37H0V0H961.7M52 52V37.7L14.3 0m.7 1600l37-37V52h872m0 1496H52" fill="none" stroke="#333" stroke-width="2" stroke-linecap="square" stroke-miterlimit="3"/></g></svg>