<svg xmlns="http://www.w3.org/2000/svg" xmlns:xlink="http://www.w3.org/1999/xlink" viewBox="0 0 976 1600"><style>.st2{fill:#333}</style><path d="M960 22v1556c0 3.3-2.7 6-6 6H22c-3.3 0-6-2.7-6-6V22c0-3.3 2.7-6 6-6h932c3.3 0 6 2.7 6 6z" fill="#fff" id="Paper_Backing"/><g id="Wikipedia_Cropped"><defs><path id="SVGID_1_" d="M960 22v1556c0 3.3-2.7 6-6 6H22c-3.3 0-6-2.7-6-6V22c0-3.3 2.7-6 6-6h932c3.3 0 6 2.7 6 6z"/></defs><clipPath id="SVGID_2_"><use xlink:href="#SVGID_1_" overflow="visible"/></clipPath><g clip-path="url(#SVGID_2_)"><path class="st2" d="M475.3 1490.1c-26.6-14.5 6-98.4 36.8-89.2 7.7-3.9 13.7-3 13.3 6.8 6.4 32.1-19.3 68.6-50.1 82.4zm-289.8-47.3c-66.4-1.8 26.1-70.9 50.6-61.9 17.9-3.1 28.2 16.1 18.3 30.2-18.2 21-41.3 31.7-68.9 31.7zm238.6-420.1c-48-19.2 65.6-78.7 81.1-52.3-3.6 37.7-48.5 55.3-81.1 52.3zm-79-19c-23.3-2.7-67.9-62.3-42.4-79.3 31.2 4.1 68.5 54.6 42.4 79.3zm-238.5-38c-16.8-.6-10-20-9.9-30.1-.8-27.6 18.5-70.3 51-67 38.7 8.9-2.4 95.8-41.1 97.1zm-30-322.5c-26.1-.1-61.9-18.1-74.4-48.3-2-13.6 26.2-15.3 35.9-16.7 29.8-5.6 102.4 66.6 38.5 65zm122.2-44.4c-34.2-15.9-39-75.3-15.9-100.9 46.4 17.6 49.4 69.8 15.9 100.9zm78.7-95.9c-38.3-6-65.2-26.9-77.8-61.9 7.8-16.3 41.4-3.7 57 .1 18.9 11.3 54.1 51.9 20.8 61.8zm132-40.6c-31-26.3 14.4-84.5 49.6-86.4 30.5 26.1-14.6 80.4-49.6 86.4zm350-240.8c-27.3-25.9 4.5-71.1 35-83.5 6.3-2.7 9 1.9 10.3 12.6 6 28.5-19.5 56.7-45.3 70.9zM837.6 1604c-7.7-1.5-1.2-15.6-3.3-21.7.1-23.4 7.5-45.6-1.8-66.9-4.4-106.3-147.2-116.3-205.2-194.6-5.4-10.5 46.8-7.8 20.9-34-31.9-45.5 71 6 84.4 10.2 20.7 1.4-12.9-50.5-14.3-62-5.1-23.3-18.1-41.9-26.7-67.4-10.4-28.3-21.8-57.7-24.7-89.4-3.4-11.4 4.8-15-1.5-28.4-3.3-6.3 8.3-25.2-1.4-31.9-3.3-37.2-34.9-68.5-29.3-108.4-2.4-13.2-14.3-19.1-8.3-36.3-.9-25.5 23.4-36.5 47.4-35.1 4.2-1.7 4.9-11.8 10.5-10.5 31.4 20 41.4 61.2 75.8 74.9 18-9.4 6.9-35.6 12.2-52.8-1.3-9.9 8.2-15.7 5.7-23.6-3.7-5.2.8-13.5 1-20.1-4.2-12.5 12.1-24.8 4.3-33.9-2.1-21.3 2.2-46.7 0-69.5-2.4-10.6 10.1-20 2.3-27.3-8.1-11.1-3.4-30.1-7.2-43.8-4-5.8 3.6-15.8-.8-21.5-12.1-43.9-19.1-86.2-37-125.6-8.6-14.8 14.3-10.3 19.3-20.8.3-9-8.1-21.7-2.5-28.8 12.1-13.6 39.5 1.4 33.4-28.6 2.6-8.4-5.9-9.2 4.1-17.4 12.1-9.9 26.8-18.9 35.4-31.4 4.4-14.6 21.3-14 21.9-27.7 28-33.7 54-66.1 74.3-104.3 11.2-12.2 12.4-30.7 25.2-43 8.2-12.5 11.7-33 24.2-42.4 11 29.4.5 135.3 4 171.3-16.2 12.7-19.2 36.8-34.3 51.8-5.5 1.7-4 7-5.5 11.4-3.6 10.5-11.5 16.7-16.9 26-16.1 15.5-23.9 34.2-39 51.6-16.8 16.3-22.2 37.7-15.2 61.9-2.8 32.4.9 66.1 2.7 100.7 2.6 7.8.1 11.5-3.3 17.4 6.9 14.4 5.6 31.3 6.4 47 .3 18.8 1.9 37.5-4.4 53.4 9.5 22.2 1.3 51.7 5.5 73.6 8.5 43.4 20.5 89.5 8 132.1-.7 23.8-7.1 53.4-15.6 75.5 7.3 9.9-7.5 22-1.5 30.9 12.5 56 38.2 109.8 66.5 160.5 11.3 18.8 25.8 38.7 30.7 59.4-1.7 6.6 6.9 9.2 12 8.9 11.3-.9.3 322.4 4 326.4.8 11.1-138.4.7-142.4 4.2z"/><path d="M369 1413.1c-3 0-6.6-1-8.2-8.9-10.6-24.1-23.3-14.9-41.3-10.1-21.9-1.3-4.8-46.3-19.1-52.2-21.5-2-37.5-16.6-46.4-36.7-4.2-6.4 19.1-16.3 18.8-22.3 3.3-6.4-8.1-15.9-10.2-22.1 6-19 31.1-19.1 47.1-24.1 3.9-18.5 3.9-45.1 25.9-52.9 29.8 17.1 24.5 15.9 47.9-6.6 55.7 41 3.6 42.3 77.2 22.2 37.1 2.4 10 17.1 23.2 34.2 4.5 6.8 22.3 5.7 20.5 12.8 3.8 20.4-13.1 35.4-28.8 44.4-2.6 2.1-2.9 6-.8 8.5.1.2.3.3.4.5 7.3 5.7 31.4 42.2 9.2 49.5-38.6-3.3-6.8 36.3-27.6 39.7-15 .8-28.1-2.1-40.6-14-12-7.6-20.8 39.2-47.2 38.1zm10.3-100c13.5 4.1 24.5-12.4 25.5-24-.6-8.4-2.2-14.8-8.5-20.7-3.5-6.5-10-.4-15.5-4.1-6.1-2.9-21 10.8-20 17.1-7.2 12.6 2.3 34.1 18.5 31.7zm134.5-427.8c-13.8.1-10.8-12.9-12.2-21.4-26.5-36.2-54 23.7-36.1-66.4-15.3-8.4-52.6-39.7-28.1-55.3 7.1-4.5 12.8-11.3 22.5-6.8 12.6-6 10.4-33 32.4-20.5 31.4 9.4 13.4-58.5 51.7-68 10.2 2.6 18.3 18.3 29.9 16.2 28.5-7.2 32.5-30.6 45.1 13.9 7.7 10.8 20.9-5.9 34.7-2.4 16.9 1 36.3 3.5 41.6 16.8-32.3 50.5 53.9 32.8-23.8 79-3.1 1.2-4.6 4.7-3.3 7.8.1.3.3.6.4.8 9.4 14.7 20.6 57.6-2.6 58.3-46.2-7-32.2 32.6-45.1 40.1-15.8-3.7-26.6-12.8-38.8-26.3-11.4-8.7-22.2 33.6-68.3 34.2zm50.7-92.1c6.4 4.3 11.7.5 17.4-2.2 6.9-2.1 11.1-6.9 11.4-14.3 4.1-6.1 1.4-11.1 2-18.3-.3-6.6-9.7-13.9-15.6-15.7-8.1-3.4-12-6.7-19.6.7-7 2.8-9.7 5.6-13.5 12.2-8.5 14.1 2 35.2 17.9 37.6zm-373.9 63.2c-15.2.8-16-32.8-29.5-31.2-35.1 20.6-39.1-17.9-30-45.2 0-12.8-29.4-11.7-36.9-33.8-6.2-8.8 16-18 13.1-26.7.8-7-20.3-16.8-8-25 13-21.4 54.7-8.5 61.3-22.9 0-18.6 6.3-35.6 18.7-50.4 9.1-4 20.1 16 26.6 12.5 9.8 1.8 28.4-30.5 35.3-6.2 7.7 8.5 11.2 37.1 25.1 31.4 16.5-14.8 36.4-23.8 54.5-12.1 5 10.8-10.2 33 2.3 41.3 7.2 3.6 24.8-4.1 21.5 10.3-1.5 13.5-16.3 20.2-24.4 31.6 9.4 14.5 25.6 38.7 19.7 55.1-2.3 7.8-9.5 9.1-16 9.7-34.1.4 6.9 40.5-34.1 36.3-18 1.1-31.6-8.3-46.1-16.4-15.6 16.1-26.2 41.6-53.1 41.7zm19.7-104.2c11.8 3.3 15.7 6.5 23.3-6 10.1-10.5 6.9-31-7.3-36.1-7.6-1.8-13.8-5.1-20.1.8-7.9 2.1-8.4 8.4-11.8 14.7-3.5 8.4 5.2 28 15.9 26.6zM506 312.7c-19.4-2.5-45.8-9.6-54.4-30 3.2-6.8 14.1-24.3 11.7-27.6-1.5-5.6-5.7-7.2-17.4-15.2-14.8-21.5 27.6-40.9 47.2-43 7-1.8 4.7-8.7 2.1-13.7-12.5-24.1 6-73.8 35-45 27.4 3.8 7.8-31.7 28.4-34.5 31.4 5.8 31.8 35 49.7 49 12.5-7 25.3-15.1 40.3-15.5 40.4 4 19 13 23.4 36.4 7.3 13.2 30.3-1.1 37.4 11.2 5.7 15.3.3 36.4-14.7 44.2-18.9 21.7-20.5-16.3-39.1 12.4-3.9 6.6-9.4 13-14.4 12.4-17.9-3.1-9.5-27.7-29.5-23.1-7.1-.3-2.9-8.9-8.3-11.2-4.7-1.5-6.2-9-11.6-9-16.4 2.1-23.3-8.1-32.9 13.9 1.1 5.4-3.7 13.8 2 17.6 5.1 4.9 6.2 10.8 14.4 9.2 9.7 2.3 6.9 11.8 7.3 19.5-.7 6.7 3.7 16.6-.5 21.2-8.5 9.7-21.5 3.3-32.3 5.2-15.1-.3-28.1 14.1-43.8 15.6z" fill="#ff8db6"/><path d="M341.5 1489c-23.2.3-16.8-41 5.5-40 21.8 2.2 15.6 41.9-5.5 40zm292.2-27.3c-26.8 3.1-31.6-38.6-3.9-38.1 23.2-2.3 33.2 39.4 3.9 38.1zm-474.6-82.4c-18.8-9.4-6.9-33.8-38.4-5-24.2 15.7-43.5-36.6-38.1-56 .6-3.3-1.6-6.4-4.9-6.9-.4-.1-.7-.1-1.1-.1-22.5-1-38.3-14.9-42.1-30.6 13.5-13.3 27-22.3 4.8-37-24-24.5 28.4-27.1 39.5-38.1-5.1-20 1.7-49.4 17.3-61.6 9.7-8.6 19.1 13.3 26.1 11 3.8.5 11.2-7.1 14.4-15.5 11.9-24 37.3 13.3 44 25.3 7.7 21.6 19.7 4.8 34.4 3.9 3.1 0 5.7-2.3 6-5.4.9-11.5 19.4-10.9 21.9-20.1-5.1-23.6-27.8-26.7 7.5-39.7 14.5-8.7 31.1-5.6 46.8-7.4 6.6-15 5.4-41.1 23.1-48.5 9.5 1.4 17.1 14.9 25.8 15.2 15.9.8 15.5-31.6 31-26.3 22 9.7 20.4 37 36.3 48.2 27.8-11.5 59.1-21.6 79.3 1.6 1.6 9.1-12.4 18.2-3.9 25.8 64.3 14-17.4 49.9 16.4 69.9 3.3 2.7 8.5.8 9.5-3.2 7.7-17.1 32.9-38.4 55.9-31.2 4.8 7 .3 18 2.9 25.4 12.1 16.6 49.5-32.6 32.2 38.9-.9 7 6.9 6.8 11.5 6.4 16.6 2.9 61.8 28.5 35.3 46-38.9 15.9 33.7 30-19.6 48.3-47.8-2.3-4 37-62.2 59.2-6.9.1-9.8-6.6-12.9-11.4-19.2-20.3-21 37.6-51.6 2.3-15.8-12.7-9.7-28.7-15.9-43.9-41.2-47.5 15.1-17.9 12.4-49.7 12.9-35 6-22.1-18.5-38.1-4.5-7.7 9.3-17.6 4.8-25.8-21.9-13.6-46.1-2.9-68.2 6.4-16.8-3.4-30.5-66.7-46.7-26.7-21.9 23.3-30.6-12-44.9-4.7-4.6 2.8-13.7 4.5-10.9 11.7.5 10.3-8 21-6.8 32.3-4 23.7-36.3 8.7-47.9 29.4-9.5 8 11.9 20 7.4 28.7-2.7 11.4-27 13.1-17 26.9-3.8 17.8-33.7 20.9-52 21-15.1 13.3-14.1 43.6-42.9 49.1zm220.9-66.4c-27.5-.2-22.7-47.6 3.3-46.9 28.8-.1 22.5 46.7-3.3 46.9zm190-520.2c-32.3.7-33.5-51.5.3-49.3 33.8-2.4 28.5 49.2-.3 49.3zm-351.7-41.6c-28.6 5.8-29.9-41.7-1.9-40 26.8-2.1 27.3 40.5 1.9 40zm239.4-16.8c-19.5-2.3-28.9-24.8-40.6-33-18 9.9-50 36.7-65.4 14.6v-.1c-2.3-57.1-50.6 3.5-26.7-67.8 2.8-4.7 4.7-12.8-2.8-13.7-16.8-4.5-56.1-28.2-33-44.2 23-23.4-15-37.9 36.2-43.4 8.3-1.3 23 7.5 26.5-3.3 5.1-20.6 16-47.2 34.7-58.2 23.6 18.2 19.8 28.1 48.3 9.6 24.9-15.4 23.6 29.4 28.5 44.7 9.7 11.2 46.5-13.1 74.7 6.9 20.9 8.5-13.8 32.5-7.1 41.1.2 5.5 20.4 10.6 21.7 21.4-4.9 19.2-27.5 26.8-44.3 36.3-8.4 10.3 8.9 26.6 5 41.3-6.1 53.5-20.5 16.5-41.4 25.3-4.1 5.1-5.8 25.4-14.3 22.5zm184.5-129.1c-20-2.3-10-40.3 7.4-36.1 30.7.8 13.2 41.6-7.4 36.1zm-539.8-45.8c-29.8 1.4-28.2-45.7 1-44.2 26 .9 25.3 43.8-1 44.2zm522.9-62.2c-16.8-.6-6.6-32.8-24.3-34.8-17.6 7.8-29.5 27.2-39.7-3.5-10.1-13.5 7.5-44.4-4.1-52.3-21.1-3.6-45.4-27.1-45.2-52.5 4.6-7.6 22.7-3.5 24.4-14.4-2-8.3-12.5-14.8-14.5-22.7-2-21.8 36.3-19.3 52.3-18.2 11.3 1.6 16.1 1.2 17-13.3 26.5-69.3-23.7-7.2-31.3-54.2 0-26.3 46.4-26.7 46.6.7 0 3.5-.8 7.7 2.9 9.6 6.6 2.5 14.4-7.9 19.2 1.9 30.9 46.7 27.7-65.7 68.7 23.3 1.1 4.8 6.2 8.8 10.7 5.1 14.3-13.4 34-20.8 54.5-21.2 23 1.6-3.4 44.4 29.6 41.7 25.1 10.1-9.1 53.2-21.2 63-2.5 2-2.9 5.7-1 8.3 12.5 15.1 32.9 55.7 11 63.2-7.7-1-20-.2-22.6 3.5-8.5 19 16.2 40.3-21.6 41.8-18.7 5.7-33.1-1.1-47-19.7-11.5-12.6-20.8 42.4-64.4 44.7zM276.6 380.4c-22.1-2.5-17.6-44 5.6-40.4 23.7 0 18.6 42.6-5.6 40.4z" fill="#d81e1e"/><path d="M976 1269.7c-2.7-1.1-3.8-2.3-4.8-5.4-20.2-42.1-45.7-81.4-64.4-124.2-16.2-42.4-44.5-87.7-29.2-134 16-54.3 24-113.4 10.8-169-13.5-60.3-4.7-122.3-8.7-183.5-4.1-54.1-4.3-108.7-8.1-162.6 4.4-25 22.3-42.6 36.8-61.5 28.2-33.6 48.6-71.7 67.3-111.1 1.2-2.1 1.5-4.7.7-7-2.4 1.2-6 1.7-7.1 3.6-9.2 14.3-14.4 32.3-25.7 44.9-1.3.7-2.2-2.2-3-4-9-18.6-22.3-32.6-42.7-38.7-5.1-2.2-9.2 6.2-3.3 8.1 12.3 6.5 24.5 13.1 32.2 25.3 16.5 18.8 9.9 26.2-4.2 43.5-5.1 7-10.6 23.6-15.2-.9-6.3-15.4-18.2-24.6-33.6-29.7-4.5-2-14.5-5.7-15.1 2.6 2.6 8.8 29.5 8.3 37.2 27 4 8.2 11.5 18.2 7.7 24.9-8.9 16-21.7 29.8-32.3 43.8-12.5-17.4-28.8-35.3-52.4-35.9-3.7-.1-7.6-8.6-11.5-2.3-2.4 3.9 4.6 5.9 7.4 8.7 1.5 1.5 4.1 2.3 6.3 2.8 20.1 5.4 51.9 26.3 41.8 51.1-3.5 8.7-.7 19.1 1.9 29.2-16.8-10.9-45-13.3-63.6-7.4-15.4 4.8-20.6 2.8-34.7-3.3-2.9 2.3-2.4 5-.2 7.5 10.1 11.9 23.6 8 35.2 6 20.8-3.6 41.4-6.6 59.7 5.7 5.4 3.6 3.6 14 3.2 21.6-19-13.4-37.2-17.1-59.1-7-4.1 1.7-6.8 3.6-5.9 6.8 1 3.8 5.5 2.3 8.3 1.4 8.9-2.6 18.1-3.9 27.3-3.7 10.2 0 29.3 11.1 29.6 17.6.9 18.3 1.4 36.6 2.9 54.8.6 6.9 5.2 13.6-7.9 8.1-17.5-7.4-34.6 4-52.2 4.2-1.8.7-5.2 7.9 0 7.7 10.1.6 20.3-.7 29.8-3.9 9.7-3.2 30.5 3.9 31.3 12.2 2.5 25.5 2.3 53 2.1 78.1-12.4-18.9-31.5-26.3-53.7-16.5-3.8 1.6-8.2 4.5-6.9 8.7 2 8.8 19.2-9.6 34.5-1.5 19.2 8.6 25.8 25.1 26.1 45-1.1 14.8 9 50.3-18 38.9-11.4-4.3-21.5-13.6-35.1-11-3.8.7-9.1 1.9-8.5 6.2 1.2 6.8 11-2 18.1 2.9 13.8 5.3 26.2 15.8 42.6 10 2.2-.8 1.6 1.3 1.9 2.5 4 20.7 8.2 41.3 11.9 62.1 1.2 6.6 4 14.5-.1 20.1-9.3 12.6-23.4 13.2-36.5 8.7-71.8-27.5-53 66.5-110.2 69.3-31.5-.2-51.5 27.4-69.2 49.9-.8-2.1-2.5-4.3-2.1-6 1.8-7-7.2-13.8 1.3-21.4 19.1-20.3 31.9-60.4 67.1-51.9 3.8.9 8.4 3.1 9.3-1.5.7-3.6-5.1-4.8-8.2-6.9-25.6-5.3-60.2 19.5-68.6 43.8-1.3 4.2-5.6 7.4-8.5 11.1-6.3-20.8-25.4-51.3-19.6-73 7.7-22 18.7-37.4 44.4-35.7 4.5.3 7.7-1.8 10.7-4.5-26.5-10.3-50.8 3.3-59.3 27.8-8.5-9.7-3.9-21-3-31.4 1.3-14.4 14.7-23.5 29.4-24.3 7.8-.4 18.7 2.8 21.3-10 .1-.5 2.3-1.3 2.5-1 16.1 12 24.4 30.8 39.5 44 2.7 2.1 4.4 5.4 6.6 8.2-24.4 2.8-42.7 14.5-58.3 32.8-2.7 2.9-1.2 6.4-1.7 9.6 6.6 1 12.9-8.9 18.3-12.6 13.8-12.7 28.7-22.4 48.8-18.7 7.7 1.4 24.1 12.8 20.9 20.3-2.8 6.7-1.3 13.4-1.8 20-.2 2.7-1 6.5 2.4 7.2 15-11.1.9-39.7 17.4-54.1 7.3-7.4 32.6-16.1 41.3-11.3 5.4 2.9 13.2 5.9 18.8 2.8.2-1.3-.1-3.6-1-4-19.2-14.3-44.7-10-61.8 4.9 1.9-12.8-.5-35.8 7.2-45.2 15.8-8.4 33-6.6 49.7-1.8 18.7 4.6 25.2-4.3 3-8-12.7-1.9-25.1-8.7-38.1-2.8-22.4 9.8-12.4-6.6-12.7-19.3-1.2-30.5 33.8-49.2 58.9-33.3 3.4 1.8 7.8 5.3 10.3 1 2-3.6-3.2-6.5-6.1-8.4-19.1-12.6-37.9-10.7-60.7 5.6 10.7-29.5-18.2-100.5 33.7-94.2 11.5 2.4 24 8.8 35.7 2.6-3.1-8-13.3-6.5-20.1-9.5-51.1-15.9-46.4 35.7-51.3-28.9.7-7.2-5.1-14.3-.1-21.2 16.1-25 60.6.2 61.5-17.8-.3-5.2-5.3-2-8.1-2.7-16.8-4.6-45.2-3-56.3 10.1-9.5-44-20.8-88-37.7-129.9 6.3.8 10.3-4 15.3-6.3 19.5-8.9 34 5.7 50.4 10.6 3.8.8 17.5 3.9 17.3-1.6-2.2-5.3-8-3.8-11.8-6.2-15.8-5.8-30.3-16.3-48.3-14.9-.7.1-2.1-1.1-2.3-1.9-5.4-17-7.1-24.2 16.9-26 9.3-1.2 18-4 14.7-15.9-1.8-6.4 3-12.4-.8-18.9-.6-1 6.9-7.3 11.2-10.4 2.3-1.7 4.1 1.6 5.1 3.1 14.8 21 43.4 21.3 58.6 42 1.6 2 3.4.8 4.9-.1 7.9-8.7-26.8-29.7-34-31.6-10.5-4.4-17.2-13-26.3-18.8 6.4-6.4 12-18.8 20.8-7.1 6.1 11.9 17.4 15.5 28.5 19.5 2 .7 5.7.8 5.8-1.9-1.1-8.9-19.8-8-24-18-3.1-5.3-13.6-7.4-10.5-13.8 8.4-17.8 23.5-21.3 41.8-13.4 11.5 5 18.5 15.2 28.5 21.8 22.6 8.2-22-40.3-49-35.3 14.4-18.1 29-35.8 43.4-53.8 2.9-3.7 3.6-11.6 8.3-10.8 20.3 5.2 33.8 24.2 52.8 32.3 3.9 2.7 7.2-2.7 3.5-5.3-15.9-11.7-28.3-28.3-48.3-34.3-3-.9-3.3-3.1-1.5-6 5.6-8.9 11-18 16.4-27.1 1.3-2.1 1.8-2.3 3.8-.3 9.4 9.3 18.6 18.7 23.6 31.4.9 5.5 11.6 7.3 9.1-.8-5.1-16.1-15.5-28.5-27.6-39.7-1.3-1.2-2.6-2.1-1.2-4.4 3.3-5.7 5.4-12.5 9.6-17.4 3.4-3.9 4.3-17 14.8-6.7 4.1 4 9 13.3 13.8 8.3 1.9-2 1.5-4.3 0-6.6-3.9-4.4-8.8-10.4-14.6-12.1-3.4-.6-2.7-2.8-1.8-4.4 5.4-10.3 10.6-20.6 16.5-30.6 2.3-3.5 5.3-9.6 2-12.1-2.9-2.5-5.6 1.9-6.8 4-50.2 85.7-99.8 173.7-173 242.3-2.8 2.6-9.6 8.4-10.4 5.5-2.8-10.4-10.6-16.5-16.8-24.6 16.5.5 53.3-70.4 23.5-70.5-38.4-5 10.1-53.9-49.4-42.4 10.8-28.3 7.9-13.5 29.8-29.2 24-16.7 39.4-38.1 33.7-69.3-1.2-6.5-1.8-17.8-11.3-15.1-29.3 7.7-52.5 37.1-54.8 67.8 0 10.1 3.5 20.9-1.9 30.5-3.9 7-2.7 17.6-10.2 21.1-9.8 4.5-18 11-26.3 16.5-5.4-7.7-5.9-17.4-12.7-24.1-2.1-2-4.1-5.6-.1-7 19.2-7.1 33-34.6 25.1-53.5-5.9-11.9-18.4-7.9-28.1-8.9-11.4-1.1-12.9-6.2-10.4-15.8 8.2-19.1-1.2-25.2-20.4-26.4-17.6-1.7-33.2 3.8-46.8 15-1.5 1.2-3.8 2.6-3.6-.4-7.2-25.4-25.5-47.8-53.8-50.4-2.1-.2-6 .5-6.2 1.5-2.5 9.7-4.4 19.6-6.7 29.4-.7 3.2-2.5 6.2-6.5 4.7-7.7-2.9-15.3-6.2-23-9.2-4.9-1.9-9-2.8-12.5 3.5-12 16.1-16.7 37.9-7.6 56.4 2.5 5.1 2.5 8-2.7 9-14.1 2.7-26.4 8.9-38.3 16.8-12.8 8.4-17.7 29.3-6.7 34.8 15.8 7.9 16.3 16.9 6.4 29.7-4.8 6.3-5.9 16-.1 20.1 11.1 8.1 22.7 16.1 36.9 19.4 13.4 3.2 31.8-4.4 38.2 15.7 1.6 5.1 12.6 11.2-2.5 14.6-8.2 1.8-20.7 6.4-16.7 17.4 20.1 56.3 56.9 41.2 50.8 55.4-5.4 15.6-6.3 31.2.6 46.1 9.4 23.6 15.1 19.2 31.3 12.5 6.1-2.5 11.8-13.8 18.1-.7 5 12 5.4 34.3 24.2 28.3 25.1-7.7 44.7-22.3 53.2-49.1 7.8 14.5 20.5 20.9 34.7 26.2 5.7 2.1 13.4-3.5 16 2.5 24.6 64.2 38.8 131.8 42.1 200.5 4.5 71.1-7.3 143.4-15.6 213.4-9.6-9-19.5-18.4-29.5-27.6-13.4-12.3-21.3-29.2-35.7-40.9-4.1-3.3-12-3.7-12.2-12.5-.3-12.4-2.4-24.8-10.4-35.1-2.8-3.7-.4-5.3 2.7-6.7 14.7-6.8 26.6-17.1 36-30.2 13.1-15.3-30.8-9.3-13.7-45.3 1.6-3.9 5.7-8.3 1.1-13.6-14-16.1-51.7-18.6-69.2-10.3-3.1 1.5-7.6 5.7-7.4-3.3.1-4.6-4.3-9.2-4.9-14-.7-6.3-12.8-8-6.5-16.5 5.3-7.2 10.3-14.6 16.3-21 3.5-3.8 6.3-8.7 13.9-7.8 10.1 1.2 20.3.4 27.1-10.5 14.7-23.8 1.7-35.2-17.8-39.4-15.4-2.8-32.7 23.8-22.9 37.3 2.4 3.5 1.2 4.6-.8 7.1-8.3 10.5-17.1 20.7-24.1 32-39.3 51-53.8-33-86.8 30.6l-8.6-19.2c16.1-2.7 29.9-14.6 42.5-24.6 15.2-13.2 14.1-16-.7-29-5.2-4.6-21.5-7.3-9.4-20.9 2.5-2.9 5.3-6.2 6.2-9.8 1.8-6.6 8.3-14.7-1.1-19.8-25.3-13.8-51.4-14.9-78.2-2.2 1.8-17-3.3-32.7-10.1-47.8-2.4-4.8-2.5-14.3-11.2-11.5-8.2 2.6-15.5 7.8-23.1 12.1-11.5 8-20.6-1.9-26.8-11.3-1-2.2-5.5-.4-4-3.3 2.7-5.2 3.9-13.9 9.8-14.4 44.6-3.4 85.7-46.8 67.3-92.4-.7-2.2-2.5-6-6.1-4.9-14.6 4.8-30.7 6-41.8 19.1s-24.7 24.5-26.3 43.9c-.7 8.8 2.5 18.9-.5 25.6-5.7 12.6-11.9 26.1-24.7 34.6-10.8-38-34-71.6-55.3-104.3-4-6.4-16.1-8.7-11.1-21.1 5.5-13.7.8-26.4-12.1-33-21.3-10.9-44 20.7-29.3 39.8 7.5 11.4 18.7 13.6 31.2 7.6 1.6-.8 2.8-.9 3.9.6 26.7 34.1 49.8 71.2 66.6 111.1 4 16.7-11.5 30.2-14.2 46.7-.5 2.2-1.8 3.7-4.7.6-8.9-9.5-18.4-18.5-27.7-27.7-6.4-6.3-17.8-12-18.4-18.7-2.3-23.9-17-38.3-33.4-52.1-17.7-14.9-39.4-13.5-60.6-12.8-2.2.1-8.6-1.8-8.9 2.6 1.7 44 53.8 85.5 97.1 73.3.9-.3 1.8-.2 2.6.3 12.8 12 25.5 24.1 38.3 36.3-8.5 1-17 .5-24.1 3.3-7.4 2.9-21.3 2.3-17.7 15.8 8.8 28.6-25.6 30.1-11.6 48.1 9.2 12.6 21.2 21 35.3 26.8-1 1.1-2.7 1.3-4 .7-15.4-4.2-33.5 5.6-45.1 16.4-1.6 1.6-3.8 3-4.2-.1-1.4-10.5-9.2-17.8-12.9-27.1-14.4-35-34.1 5.4-38.1-2.8-1-7-4.5-15.3-2-21 8-18.2 17.6-35.4 16.6-56.4-1-21.7-15.1-43.5-35.7-50.4-2.8-.9-7.4-5.9-10.4-.5-9 16.3-17.8 32.5-15.6 52.3 4 57.2 41.4 44.8 36.8 77.3-2.5-1.5-5.5-2.4-7.3-4.5-20.9-21.7-23.5 15.7-28.2 3.9-11.1-19.3-26-35.9-39.4-53.5-17.1-16.8 18.1-20.4-.5-48.6-16.6-22.7-42-12.9-49.8 9.3-3.3 9.2 6.7 34.2 19.8 34.2 7.2 0 15.3-3.1 21 6 7.1 11.2 17.9 20.3 23.5 32.1 6.9 14.5 28.2 23.9 18.5 44.1-.7 1.5 2.1 8.9 1.7 13.3.6 8.7-15.4-2.6-20.3-7.6-9.6-10.4-26.4-12.1-32-28-8.3-21.9-27.9-37.2-47.9-48.1-13.4-7.5-27.7-5.1-41 .1-33.1 6.6-21.1 27.6-2.2 43.7C38 641 62.9 653 94.2 645.2c3.9-1 7.8-5.2 11.6-3.2 15.6 6.4 27.7 19.1 42.1 28-19.4 3.3-38.7 3.7-53 18-6.1 6.1-13.3 13-.8 21.5 20.6 16.3-13.4 23.5-8.7 35.7 18.5 38.9 48.3 20.3 37.9 43.7-4.4 10.4-2.6 22.4 1 34.3 10.7 37.1 32.2-6.4 41.6 13.3 5.3 9.2-3.1 10.3-6.4 14.1s-4.6 9.4-11.8 10.3c-17.6 2.1-33.4 11-42.3 25.4-12.9 20.9-17.6 45-12.3 69.8 1.2 5.8 1.1 15.5 11 14.8 43.9-6.5 74.9-61.3 57.6-102.7-3.5-7.1 5.8-11.2 9.5-16.2 1.7-2.3 2.9 2.9 4.4 4.6 18.5 19.1 52-10.2 62-27.4 1.1-5.3 1-14.4 10.7-5.2 9.7 14.7 78.1 23.5 67.1-5.1-10.7-26.4 25.2-11.9 29.5-30.6 3.8-16.9-1.2-31.7-10.7-45.7-2.7-4-10.3-7.4-7.2-12.4 4.5-7.3 14.7-9.4 19.7-19.1-.4 15.3 8.4 16.3 19.5 15.5 18.4-.5 34.9-6.6 47.2-22.8 1.3-1.7 2.5-1.2 3.4.5 5.4 10.5 12.5 19.5 22.1 26.4 2 1.5 2.8 1.9-.5 4.2-5.7 3.9-15.9 5.3-15.2 14.2 1.8 23.4 14.6 39.2 36.5 47.7.8.3 1.8 3 1.4 3.3-9.1 9.3-6.4 21-6.1 31.9.8 25.7-.7 25.3 23.5 24.6 12.7-.3 19.8 9 19.3 21.8-2.1 22 34 9.3 45.7 4.5 14.2-6.7 24.2-17 32.4-29.2 8.6 6.9 17.9 14.2 27.1 21.6 5.2 4.1 14.3 2.2 16.9 10 7.4 27 8.6 55.5 20.2 81.4 8.5 21.5 18.5 42.5 18.6 66.2-2.1 49.8 9.5 97.9 29.6 143.4 16.8 36.8 29 75.4 44.4 112.6-20.8-7.4-40.6-18.8-63-22.8-5.2-1.1-11.4-2.6-3.9-9.5 1.1-1 1.5-4 .9-5.4-9.2-20.2-23.1-33.6-47.6-36.8-13.8.6-.3-9.5-2.1-24.2 1.8-46.1-34.1-10.6-38-21.9-1-5.8-1.7-11.7-2-17.6-1.7-29.7-57.6 1.4-61.9 18.7-4.7 9.3-9 7.8-15.1 2.9-1.1-.9-3.1-2.4-1.2-3.6 8.8-5.9 14-14.4 17.1-23.9 6.4-19.2 9.6-29.7-12.7-33.8-21.9-3.4-2.8-15.2-5.7-26.5-5.3-13.7-18.3-16.8-30.4-17.7-32.2-3.9-52.4 18.4-54.2 9.2-5.4-14.4-13.9-27-22.7-39.3-1.2-1.7-6.2-3.2-3.9-4.6 7.1-4.3 14.6-12 23-9.2 39 11.6 87.7-2.9 100.2-44.4 2.4-6.7 2.8-15.5-5.5-20-31.6-8.3-65 12.2-87 33.4-11.5 13.2-19.9 30.1-40 32.6-2.8-12.2-19.8-16.3-16.6-32.7 2.8-14.2-4.7-26.9-11.5-39.2-9.9-18-23.1-31.4-44.8-32.8-4.4-.3-12.2-1.7-13.1 4.4-2.5 17.4 1.1 35.1 10.3 50.1 10.2 17 21.9 34 46 32 3.2 0 28.5 21.1 21.7 24.7-10.2 8.1-16.8 34.6-32.6 19.3-6.1-4.4-19.2-13.3-25.7-4.7-11.5 13.3-14.5 29.7-16.3 46-19-4.7-37.5.7-54.5 8.9-18.1 8.5-21.2 15.6-9.5 29.4 7.6 8.9 6.2 13.4-3.4 16.7-10.3 3.5-9.6 20-23.6 18.8-5.5-.5-11.9 9.7-16.5-2.1-5.2-13.2-14.3-23.3-25.7-31.8-16.3-12.1-20.5-13-27.5 1.2-7.3 14.8-13.1 20.5-25.5 4.4-3.4-4.4-12.8-5.8-17.1.6-12.4 18.3-23.4 37.4-16.4 61.1.4 1.4.6 2.8-1.9 3.6-16.2 7.4-44 9-46.4 30.4-1.6 14.4 34.6 15.7 12.2 35.7-27.9 17.5 13.5 48.3 34.6 46.2 3.9.1 4 1.2 3.7 3.9-5 32.2 24.4 88.8 55.5 51.1 7-7.1 10.1-3.3 14.7 2.7 3.8 4.8 2.4 16.8 12.5 13.4 13.9-4.6 23.4-15.4 32-27.5 6-8.4 1.4-26.4 22.3-23.3 14.6 2.2 29.4-4 41.2-14.2.2-.2 1.6.5 2 1.1 17 24.4 50.3 16.3 44.2 42.3-1.5 7.5-.8 13.7-10.6 13.6-10.5 0-19.8 8.3-31.4 2.9-38.5-17.8-81.6 6.4-99.4 42-14.6 21.9 13.8 24.1 29.3 24.4 9.1.5 18.6-3.8 27.8-6 18.3-4.5 31.2-16.1 42.2-30.9 4.7-6.3.9-18 12.8-19.7 7.3-1 14.9-1.7 21.6-4.4 20.2-8.7 11.6 18.3 22.3 16 4.2-2.5 9.1-2.9 13.5-4.9 5.6-2.4 13.5-7.2 19.2.1 8 10.3 19 20.3 10.1 35.4-2.6 4.4-2 14.1-7.1 12.7-23.3-8.5-39 25.3-26.6 41.3 5.5 6.8 13.4 10.3 22.5 6.7 10.4-4.1 18.6-10.7 17.3-23-1.4-12.5-8.1-24.7 2-36.8 3.2-3.9 2.6-13.3 5.9-14.5 19-7 29.9-21.3 38-38.6 2.1-8.4 14.1 12.7 36.7 13.8 44.9 2.1 6.9-30.5 28.8-39.7 5.2-1.2 14.3-1.8 15.8.8 5.5 9.5 13.8 15.1 22.3 20.8 2.1 1.4 6.3 1.8 4.9 5.5-1.7 4.2-3.1 8.9-8.6 10.3-32.4 9.1-51.5 42.8-49.6 76 2.2 57.4 52.4 3.1 63.1-20.8 23.7-32.7-15.5-52.3 15.9-75.2.6-.4.5-2.2 1.1-2.4 4.8-1.7 3.5-13.4 11.1-8.3 6.6 4.4 12.3 11.3 16.3 18.3 10.5 18.6 28.7 36.8 39.4 53.9-10.1 31.1 37 45.7 48.7 19.1 8.5-20.3-19.3-44.7-38-31-3.3 2.2-5.9 2.3-8.5-1.5-9.9-14-20.1-27.7-30.1-41.6-1.3-1.8-1.6-3.1 1.1-4.5 18.7-9.9 29.3-25.7 31.6-46.4.7-6.3 2-7.8 8-7.7 4.8 0 4.2 4 6.2 5.9 17.8 17.6 36 34.6 56.1 49.8 107.3 67.8 156.5 70.3 144.3 215.4-.1 4 .3 9.3 4.1 12.1 2 1.5 3.4.2 4.2-.9 5.1-5.8 2.1-13.6 2.6-20.5.8-15 2.5-30 2.4-45 0-6.4 2.8-4.6 5.8-4 24.6 6.5 51.4 5.7 75-4.7 2.4-1.2 7.7-1.9 5.3-6.3-6.2-6.4-17.6 4.6-24.9 4.2-15.9.7-32 3.6-47.7-.1-31 .1-6.6-22.5-35.9-69.3 37 7.5 66.9 7.8 101.3-10.5 3.5-1.8 8.7-4.1 8-8.9-.3-2-4.8-.7-7.8.5-27.3 13.3-58.1 17.6-88.1 12.4-11.6-1.7-23.1-4.3-32.2-12.6-17.6-16.1-37.9-28.1-58.8-39.4-41-21.1-78.8-45.8-110.1-80.3 6.1 2.7 9.1-2.1 13.3-3.6 17.4-6.4 20.1-17.9 7.2-30.9-2.3-2.6-7.9-6-5.7-9.8 5.1-10.3 66.6 18.8 76.9 23.5 6.3 3.3 14.7 2.6 18.9 10.1 6.3 11.3 12.7 22.7 23.3 30.8 1.3 1 2.4 3.8 4.4 1.7 1.6-1.5 1.9-3.9.7-5.7-8-13.7-18-26.3-23.6-41.5-6.9-18.9-15.5-37.3-22.1-56.3-1.4-4-7.2-9.8-3.2-12.9 5-3.9 12.3-5.4 18.9-6.4 16.8-2.6 33.7-6.2 50.5-6 26.4.3 47.4-10.9 67.6-25.6 2.5-1.8 7.6-2.3 4.6-6.5-2.1-3-6.6-1-9.3.9-36.1 28.7-81.5 17.3-122.7 30.2-4.5 1.4-10.8 9.7-15.1 1.4-7.5-14.8-14.1-30-19.8-45.6-2.2-5.9-8.7-13.2-2.4-19.4 28.6-25.3 70.7-22.2 102.7-41.8 9.3-2.9 2.1-8.9-4.6-5.3-31.4 14.8-67.3 13.6-96.3 34.2 8.6-18.2 5.1-37.2 1.7-55.8-.5-3-1.3-9.5-6.9-9.1-3.5.2-3.3 4.1-2.5 6.5 6.5 21.2 5.3 42.3-1.6 64.2-7.3-19.3-12.1-38.4-13.8-58.6-.3-4.9-6.5-13.1 3.9-16.1 44.4-11.6 42.6-53.4 95.4-61.7 11.5-2.3 23.9.2 34.1-7.7 12.3-9.5 24.5-19 41.6-16.8 3.6 1 10.1-7.2 3.4-8.1-10.1-4-34 2.6-41.2 10.9-3.9 4.5-9 7.8-14.7 9.5-12.8 4-26.5.5-39.3 7.4-12.5 6.7-27.2 10-36.9 20.9-10.8 12.1-20.2 25.6-35.6 32-3.3 1.4-12.1 12.2-13-1.8-.7-11.3.6-23 10.9-31.3 4.1-3.4 7.6-7.4 10.4-11.9 25.1-45.4 82.9-19.2 98.7-71.7 22.8-66.2 64-2.4 95-35.9 2.2 9.4-1.5 18-1.3 26.8s-1.2 15-12 7.7c-22.2-5.4-48.7-4.5-67 12.7-6.6 4.1-.8 12.4 5.2 7.8 3.2-2.5 6.4-5.2 10-6.7 10.8-5.8 68.8-14.8 59.9 9.4-16.4 84.6-5.1 23.4-72.7 66.4-15.8 9.7-29.4 23.2-49.5 24.8-2.3.2-9.9-2.4-9.8 4.2.4 13.1 39.5-2.6 44.8-7.4 16.2-12.2 33.2-22.2 52.4-28.6 6.6-2.2 15.8-6.5 19.6-1.2s1.7 17.1-3.4 20.9c-45.2 40.3-86.2 29.5-138.7 45.6-6.1.3-17.9 14.9-4.9 11.8 57.3-19.2 93.6-3.9 145.3-47.4.8 1.6 2.3 3.3 2.2 4.8-.8 6 3.7 11.1 3.2 16.5-.9 10.7 16.3 19.8 1.3 31.8-40 36.1-96 24.9-140.1 50.2-3.3 2.2-2.8 7.9 1.4 6.3 46.2-18.2 101.5-12.8 140.1-48.1 1.8-1.7 6-9.3 9.9-3.1 4.5 7 6.8 15.3 10 23.1.6 1.4 1.3 2.7-.8 4.1-36.9 25.8-82 35.6-125.8 42.3-9.2 1.5-19 4.2-25.3 12.6-.9 1.2-2.4 2.2-.5 3.7.8.6 2.2 1.3 2.8 1 26.1-13.2 56.2-8.8 83.2-19 18.5-7.1 37.6-12.2 54.9-22.4 5.8-3.4 13.3-21.1 21.3.2 6.1 16.3 15.9 31.3 24.2 46.8 1.6 3-.9 3.9-2.1 4.5-12.6 6.6-25.2 13.4-38.2 19.2-42 21.7-44.4 8.9-81 16.3 3.6 10.8 39.7 7.3 49.4 5 26.7-6.2 50.7-18.6 73.2-33.9 1.6-1.1 2.9-1.4 4.4.6 11.7 15.7 18.7 34 28.7 50.6 2.4 4 2.3 8.2-3.8 8.2-18.4.1-33.5 10-49.4 16.9-24.8 10.8-49.6 20-77.3 17.5-1.3-.1-3.3-.7-3.4 1.7-.1 1.8-.4 3.8 2.2 4.3 6.3 1.3 12.6 4.1 18.8 3.8 43.3 1.5 92.4-44.1 123.9-34 6 3.8 13.8-1.8 6.4-6.7zM769.6 160.9c7-9.3 17-14.3 26.7-19.2 3.4-1.8 3.9 6.1 4.5 9.6 4.5 31.6-17.6 48.9-41.3 66.3 9-19.7 19.7-34.1 29.4-49.1 5.7-5.8-.4-10.9-5.5-5.7-11.3 12.8-19.6 27.8-28.7 42.2-1.5 1.2-2.7-1-2.8-2.2.3-16.4 8.2-29.3 17.7-41.9zM516.3 305.8c-15.7 8.9-45.9-6-57.7-17.9-7.4-7 .8-8.6 2.4-12.4 23.5-41.9-30.6-28.2-10.2-52.8 10.2-12.1 24.3-18.7 39.4-21.3 32.1-2.9-10.4-25.5 11.6-60.7 11-20.1 18.5 1.3 27.5 1.5 12.6.2 21.2-3.2 21.8-16.9-.1-14.8 3.8-23 17.8-13 13.6 5.4 19.3 18.5 26 30.4 19.5 38.8 6 5.1 49.9-1.1 6.3-1.4 13.6 1.1 20.2 2.9 5.9 1.6 7.2 5 4.4 11.5-10.2 18.7 5.8 31.3 24.4 27.5 4-.5 11.4.6 11.8 2.2 7.1 25-3.3 32.8-21.2 46.9-.5.5-2.8.2-3.5-.5-14.4-15.5-22.4-.2-30 9.5-7.2 11.4-12.7 11.1-19.3-1.2-3.4-5.8 6.3-.2 13.1-7 5.5-10.8-41.4-1.6-32.5-9.9 6.6-6.2 42.7-22.5 37-31.1-2.7-4.5-6.2 1-8.7 2.6-10.9 6.8-21.5 14.1-32.2 21.2-2.8 1.9-10-5.4-8.6-8.6 3.2-9.4 7.4-18.8 7.3-29 .9-6.8-7.7-7.6-7.9-1.2-.4 8.9-7 16.1-6.5 25.3.2 3.2-2.9 4.7-6.4 4.3-6.3-.8-12.6 1.2-15.7-8.5-3.7-11.5-11-21.8-17-32.5-.9-1.5-3.9-3.2-5.4-.9-4.8 7.5 13.1 34.3 16 44.1.2 1-.2 2-.9 2.6-1.8 1-2.7 4.2-5.5 3-9.7-4.3-19.5-8.5-29-13.1-3.2-1.5-4.5.4-5.6 2.1-.9 1.6-1.1 4 1.3 5.1 8.9 4.1 17.8 8.6 26.9 12.2 7.1 2.8 2.4 8.1 3.3 12.1.6 3.1-3 1.3-4.8 1.8-13.5 3.4-27 6.8-40.4 10.5-1.8.5-4 3.6-2 5.7 3.7 3.8 8.7 2 13.1 1.2 12-2.2 23.9-4.9 35.8-7.4 3.5-.7 4.6 2.5 5.8 4.4.6.9-1 4.1-2.4 5.4-6.3 5.8-11.5 12.8-15.3 20.4-.9 1.8-2.9 3.7-.3 5 2.1 1.1 4.8 3.7 7.1 1 6.7-7.6 13.4-15.2 19.5-23.3 1.2-1.6 1.4-3.4 3.8-2.8 7.7 2 3 14.7 4.2 22.7 9.6 29.4-29.3 2.6-62.4 28zm67.9-58.9c-28.1 3.4-25.9-33.7.7-31.5 22 0 24.8 35-.7 31.5zM691.9 449c-10-14.1-13.5-3.6-16.5 4.1-8.6 22-25.4 33.7-47.1 39.7-5.7 1.6-9.1-1.3-9.1-7.1 0-7.8-3.9-14.4-7.5-20.5-12-19.3-26.3 7.3-36.9 7.4-16.2-15.4-14.4-39.7-8.2-59.7 3.5-11.6-9.7-9.2-15.5-11.7-18.3-7.9-28.4-23.1-35.3-39.9-4-9.9 8.9-7.2 14-10 24.5-11.6 1.3-21.1-4.2-35.9-2.6-5.8 3.9-6.9 7.1-8.3 13.1-5.7 27.1-6.1 41-4.3 16 2.1 19.8-1.1 21.5-16.9 1.9-17.3 9.9-31.6 23.9-42.1 4-3 5.6 1.7 7.6 3.6 3.7 3.4 6.5 7.9 10.5 10.9 8.7 6.6 13.8 1.1 17.9-6.4 15.2-38.1 31.8 1.6 40.2 20.2 9 22.2 21-15.9 61.6-17.1 28.9-5.3-7.8 38.6 34.5 41.4 5.8.9 6.4 3.7 5.4 8-4.8 21.9-15.8 39.8-34.6 52.5-1.8 1.2-1.5 2.5 0 4 15 16.1 25.3 36.7 23.3 58.7-.1 5-6.9 2.9-10.4 2.9-19.5-1.7-29.2 10.8-20.2 29.4 4 17.5-11.4 14-19.4 16.5-19.7 6.4-33.2-4.6-43.6-19.4zm-56.6 140c.9-8.1 3.4-16.3 14.1-15.9 21.5 0 15.1 29.5-6.9 28.1-5.1.3-8-5.2-7.2-12.2zM434.7 389c7.4-6.4 16.6-7 25.4-9.3 2.1-.5 2.5 1.2 2.9 3 7.1 38.5-22.7 69.3-55.7 74.8 13.3-17.1 27.3-34.9 40.6-52.4 1.9-1.9 2-5 .1-6.9l-.1-.1c-2.5-2.8-3.8.7-4.8 1.9-13.2 15.3-26.2 30.7-39.9 46.9-1.2-26 13.9-42.6 31.5-57.9zm-157.5-12.6c-16.4-1.4-14.5-34.7 4.8-32.3 17.9-.2 14.9 32.6-4.8 32.3zm11.3 113.3c-18.8-16.3-39.6-32-61.8-43.1-6.9.6-4 7.6.6 9.9 17.1 12.5 34.3 24.8 51.3 37.2 1.1.8 1.5 2.7 2.2 4-34.6.9-66-25.2-77.4-58.3 8.4-3 15.8-1.8 24.1-.5 9.3 1 18.6 1.5 27.4 5.8 12.7 6.1 35.6 35.9 33.6 45zm-186 65.7c-26.6-.9-22.2-36.4.7-36.2 21.1 1.1 20.6 35.1-.7 36.2zm-60.8 54.3c19.3 6.8 37.7 15.6 55.2 26.3-36.8 10.8-75.5-9.5-91.1-42.8-1.8-4 2-2.2 2.9-2.7 37.7-23.1 71.2 4.4 91.5 37.3-10-5.5-58.8-31.8-63.7-23.4-1.4 3.3 2.6 4.5 5.2 5.3zm76.5 347.4c-18.6 12.8-21.2-2.6-18.1-13 1-11.8.7-24 4.8-35.6 6.7-17.3 21.2-35.1 39.8-37.3-6.7 12.4-39.2 59.5-27 70.2 1.1 0 2.9-.7 3.2-1.5 8.5-23.1 19.6-45.4 33.8-65.5 12 25-7.2 71.2-36.5 82.7zm77.2-431.9c-3.8-8.5-11.6-2.8-8.1 4 7.2 19.1 5.9 39.7 11.4 59 .6 2.2-2.1 4.2.1 6.6-30.9-20.5-32.7-63.7-14.8-93 34.8 21 40.4 39.6 23.8 84-5.1-20.7-5.3-41.3-12.4-60.6zm145.4 172.2c-4.2 23.9-41.6 29-25.1 37.8 12.2 6.3 24.4 35.4 20.4 48.8-5.9 14.9-41.4-2.6-29.5 33.2 1.9 5.2-1.6 8.6-6.2 9.3-21.2 2.9-39.9-2.6-55.4-18-3.4-3.4-6.6-1.8-8 2.1-7.3 20.9-21.3 37.8-44.9 41.7-20.1.1-9.1-47.8-48.3-25-5.4 3.1-7.3-.5-8.3-2.9-15.3-33.3 13-54.8-2.9-55.5-16.3-1.8-27.2-11.5-35-24.8-2.7-4.5 3.8-6.2 6.1-8.8 10.6-12.4 10.2-20.1-2.3-30.7-1.2-1-2.6-3.9-2.2-4.3 18-25.7 63-12.5 65.4-23.3-1.4-19.4 4.9-38.6 17.6-53.3 36.5 40.2 46.4-24.1 56.3 8.3 7.1 11.3 12.7 23.6 19.1 35.4 1.1 2 3.3 2.5 5.4.3 12.5-14.2 36-29.8 54.8-18.1 1.5 1.6-1.9 7.3-1.9 11.1-2.5 18.5-5.5 36.1 21.2 32.3 3.8-.1 4.5 1.6 3.7 4.4zm80.2-2c-1-1.7-3-2.9-4.5-4.4-9.8 16-36.3 32-57.9 27.8-8.6-7.1-3.1-21.4-10.2-30.3-13.7-14-30.5 11.4-24.7-24.8 1.5-8.5 6.5-16.2 8.8-24.3 3.3-11.5-9.5-7.7-14.2-9.8-13.6-6.3-24.9-14.6-32.6-27.1-4.5-7.3 22.3-13.5 15.1-34.7-5.2-15.1 7.8-11.5 14-14.7 10.7-5.5 21.8.5 32.8-.6 9-.9 7.6-8.2 8.7-12.2 5.2-18.1 14.4-34.9 27-49 11.3-10.3 12.5 34.9 47.6 10.2 9.7-6.3 20.1-9.6 22.1 6.2 2 13.7 5.1 27.3 8.1 40.9.6 2.6 2.8 2.8 5.9 1.4 23-10.3 46.1-11.2 69.1.1 10.8 5.3 1 11.7-.9 14.8-31.6 41.1 34.5 30.7 5.4 55.7-11.1 9.4-23.7 17-37.1 22.5-5 2.1-7.2 5.2-2.7 11.2 6.9 9.2 7.9 20.5 8.4 33.8 1.9 5.6-2.7 11.9-4.8 18.6-3.5 11.2-11.7 3.7-16.1 1.9-14.5-5.8-22-2.3-24.5 13.3-2.3 14.3-11.2 7-16.8 3.6-11.7-7.1-19.2-18.4-26-30.1zm201.6 167c-.6 3.8-.1 7.4-.7 11.3-28.8-4.7-40.3-42-50.8-26.5-11.6 20.8-30.4 29.6-53.1 33.7-16.7 3.1-9.9-11.7-12.3-18-4-10.5-21.8-20.9-32.2-15.4-6.5 3.4-7.7-.3-8.2-4.8-1.6-14.2-2-27.7 5.2-41.5 4.6-9-8-10.5-13.2-13.7-13.8-8.5-21.6-20.4-23.6-35.8-.6-4.7 6.6-5.3 9.9-8.2 11-14 20.1 7.5 27.8-14.8 8.2-29.9 28 8.7 43-19.6 1.9-3.9 2.9-8.2 2.9-12.5.2-17.9 9.5-31.3 22-42.8 3.1-2.9 6-4.4 10.1.6 12.8 15.3 31.5 17.9 46.8 3.1 10.4-10.1 11.8 2.8 14.7 7.9 3.2 5.5 3.9 12.4 6.5 18.4 1.7 4 6.2 5.3 9.5 2.6 14.9-12 49.5-8.4 62.9 2.7 4.7 3.9-.8 7-1.7 9-19.7 34.9 28.5 35.2 9.4 49-10 6.6-17.3 16.9-29.5 20.8-3.9 1.2-7.1 5.9-3 12.4 9.5 15.4 13.2 32.4 8.5 50.6-1 3.7-3.2 3.7-6 2.9-21.2-5.7-41.3 7.3-44.9 28.6zM478.4 969c19.9-4.1 30.8.7 17 17.1-9.9 23.8-51.2 38.9-73.7 30.6 16.8-8.2 36-11.5 49.9-25.5 6.4-2.8.4-8.7-4.1-5.9-17.6 9.9-34.1 19.6-54.1 24.4 18.7-21.6 39.1-35.6 65-40.7zm-127.9 21.8c-9.4-8-27.7-45.8-38.6-43.9-2.6 2.2.1 3.8 1.2 5.4 10.3 15.3 20.6 30.6 32 47.6-29.5-11.6-41.5-36.6-46.1-64.7-1.2-8.2 4.4-7 8.4-5.6 26.1 8.7 42.1 34.2 43.1 61.2zm-99.2 417.7c-19.6 23.5-57 38.8-85.2 26.2-2.6-7.2 4.8-13.1 9.1-18.3 18.3-22.3 46.8-38.8 76.2-28.3-24.3 10.9-49.3 18.7-70.4 34.6-1.5 1.7-5.5 2.7-3.5 5.5 2.1 3.1 6 1.5 8.4-.1 15.6-10.1 32.6-16.9 49.7-23.8 6.3-1.7 12.7-7.3 19.2-6.2-1.1 3.4-1.3 7.8-3.5 10.4zm104.8 57.5c-.4 8.4-1.4 19-14.6 19-7.9 0-10.6-4.4-10.5-12.9 1.9-7.7 2.2-17.7 14.7-19 9.7-1 10.6 8.7 10.4 12.9zm272.6-38.4c22.1-1.9 27.8 33.5 3.2 30-19.9 1.1-23.9-29.4-3.2-30zm-393.8-272.4c25.8-12.1 3.6-25.7-.7-37.6 5.9-6.9 15.2-9.1 23.6-12.7 24.4-11.8 49 5.2 45.3-6.4-.1-15.8 4.7-31.3 13.8-44.3 6.7-10.2 21.3 21.4 36.5 10.6 8.7-5 11.8-15.4 17.5-23.3 1.6-2.1 1.6-2.8 4.1-1.3 17 9.7 21.8 27.9 29.5 43.7 6.6 19.5 38.6-23 79.8-.7 9.3 4.7 1.3 10.4-.2 14.5-4.9 12.9-1 19.9 13.2 21.3 26.1 2.1 2.9 40-10.6 47.3-9.6 5.6-1.9 12.6-1.6 19 9.6 33-9.8-8.9-61.6 21.8-7 3.3-8.3-5.5-9.7-8-4.6-8-11.6-13.8-16.7-22.1 12.8 0 25.3.3 37.6-.2 3.3-.2 9.6 3.8 9.9-2.7.3-6-7.2-4.6-10.3-4.8-14.9-.9-29.9-.4-44.9-.5-.8 0-1.6-1-2.4-1.5 1.1-1.4 2-3.4 3.5-4.1 13.9-6.3 27.9-12.3 41.6-18.8 1.9-.9 2.5-4.4 3.7-6.8-11.7-2.8-37.6 14.2-50.9 18.4-3.4 1.5-3.7-2.6-5.6-3.8-.9-.6-3.5-2.3-1.6-5.3 6.3-9.8 12.1-19.9 18.2-29.9 4.3-6.4-2.8-11.3-6.2-4.3-6 9.6-12 19.1-17.7 28.8-1.6 2.7-4.1 4.8-5.9 3-2.3-2.4-7.2.6-7.9-6.7-1.2-13.1-1.1-26.9-7.2-39.2-3.3-6.1-7.5-2.1-6.1 3.1 1.9 11.4 4.2 22.7 5.7 34.1.4 2.7 2.4 6.9-1.9 8.8-5.8 2.7-9.1-1.4-11.7-5.5-5.5-8.5-11.5-16.4-19.5-22.5-1.8-1.4-3-2.8-5.2-.1-1.9 2.3-1.3 3.1.4 5.2 7.6 9.3 14.7 19 22.4 28.2 4.1 5-3.5 6.5-2.4 10.3-9.3 3.3-60.4-17.2-60.6-9.7-.4 3 2.7 3.4 5.1 4.7 10.1 5.8 21.4 7.6 32.3 10.6 8 1.7 17.1.3 21.1 9.3-12.3 6.9-25.8 11-38.7 16.6-2.3 1-5.8 3.5-3.5 5.7 3.3 3.2 9.1 3 12.2.4 3.6-3.1 8.3-1.9 11.5-4.7.8-.2 1.6-.1 2.2.4.5.8.5 1.8.2 2.7-5.2 8.6-6.4 18.6-7.2 28-.8 9.2-5.5 9.3-11.9 10.1-6.7 1-13.2 3.5-19.8 5.2-3-8.4 11.5-39.1-4-36.9-18.6 3.7-67.7-36.5-36.7-47.4zm141.5 10.7c.9 25-30.3 32.6-35.8 6.4-.5-21.3 34.7-27.2 35.8-6.4zm-126 145.7c-9.4 10.5-31.1 15.8-47.1 15.1-16.6-5.7-8.4 33.9-41.5 47.8-7.3 3.4-6.6-6.3-9.4-9.8-7.6-9.6-16.2-10.5-24.8-1.6-1.9 2-3.8 4.8-6.1 5.4-3.9 1.1-4.9 7.7-9.1 5.8-8.4-3.8-14.8-10.5-19.2-18.7-18.4-30.8 7.9-55.7-16.6-48.4-17.6-.2-28.6-10-37.6-23.4-1.5-2.3.1-3.9 2.5-5.3 18-10.7 18.6-24.6 1.7-37.1-13.3-5.9-1-17.6 7.9-20.2 10.1-3.8 20.7-6.3 30.6-10.5 7.3-3.1 1.5-8.9.4-12.8-4.5-15.8 5-41.1 16.7-50.8 2.5-2.1 4-1.6 6.4 1.1 15.1 16.7 24.1 13.1 33.9-4 1.9-3.3 2.4-9.3 6.5-8.7 20.5 5.7 28.8 29.2 40.2 44.8 2.4 3.3 9.1 1.2 12.4-1.8 36.4-18.7 2.8 17.3 69.9 32.5 2.5.7 3.3.2 2 3.4-8.5 14.7 5.4 31.1-11.8 38.2-5.6 2.7-3.5 5.6-1.7 8.7 2.6 4.4 5.6 8.6 8.5 12.8 11.2 18.2-28.5 14.9-14.7 37.5zm238.7 28.4c-.2 4.8-2.2 5.5-5.8 5.2-20.6-1.6-28.1 15.6-22.8 32.6 3.1 10-5.2 6.3-9.1 7-12.8.9-22.8-4.4-31.5-12.1-12.2-10.9-15.1.1-19 7.9-6.6 13.2-15.4 24.1-30.2 28.1-6.7 1.8-5.3-6.1-7.1-8.8-11.2-17.8-20.3-19.7-38.9-11.3-13.2 6-11.7-9.3-13.1-15-1.9-8-3.4-16.8-1-25.9 6.2-20.6-30.5 5-53-44.3 10.9-13.5 27.8-13.7 14.7-36.2-1.7-2.9-7.7-5.6-5.2-8.3 4.5-4.8 9.2-10.1 16.3-12.2 9.5-2.8 18.7-5.6 28.8-4 8.7 1.7-5.1-26.4 16.4-50.3 4-4.9 7.3-7.2 12.7-1.7 13.1 13.5 31.9 9.9 39.5-7.3 2.5-5.6 5.7-.3 6.9.7 9.4 7.5 16.6 17.2 23 27.3 10.4 19.9 34.3-20.7 64.9-4.6 6.9 3.6 0 8.1-.4 11.8-1.4 10.7 7.8 23.9 18.5 24.3 2.9.1 6.6 1 6.8 3.5.3 6.7.4 13.1-3.1 20-5.7 11-16.6 14.8-25 21.8-15.7 11.5 19.4 20.8 16.7 51.8zm34 78.7c-4.3 28.6-20.1 50-43.6 65.7-8.6 5.7-7.7-4.3-8.3-8.4-5.3-29.3 8.9-56 32.7-72.6 1.1-1 4-.7 2.3 2.6-6.5 17-14.3 33.7-21.1 50.6-.6 1.4.3 3.4.5 5.1 4.4-1.7 9.3-3.6 11.1-7.9 6.5-15.4 12.2-31.1 18.4-46.6.8-2 2.7-5 3.9-4.9 3.1.2 1.1 3.5 1.8 5.3 1.6 3.5 3.1 7 2.3 11.1zM648.5 1262c-18.4 10.7-18.7 12.7-4 27.6 2 2 6.6 4 4.8 7-3.8 6.3-9.6 11-17.2 12.2s-15.5 1.3-23.1 2.7c-8.4 1.6-4.5 9.1-5 13.8-1.7 18.3-12 29.8-26.5 39.8-11.1 7.7-13.2-2.5-16.7-7.1-25.1-28.1-20.8 35.6-52.2 1.7-14.6-11.3-8.4-28.3-14.8-42.6-21.5-34.9-25.2-12.5 21.4-40.3 2.3-1.1 5-3.7 7 0s5.9 7.2 1.1 12.5c-7.1 8.3-13.9 18.4-20.1 27 4.5 5.9 9 2.2 11.5-2.5 6.6-7.9 12-16.7 18.7-24.5 1.4-1.6 5.9-.6 8.9-.7-3.9 11.5.4 22.3 1.8 32.9 0 6.9-1.5 14.8 7.7 17.2 7.4-16-9.8-45.6 1.6-55.4 7.2-.2 20.7 13.1 28.1 16.9 2.1 1.4 4.4 4.6 7 .8 2.5-3.6-1.1-4.9-3-6.4-7.4-6-14.8-12.2-22.7-17.5-5.1-3.4 1.5-6.4-.7-9.3 12.2 6 25.5.9 37.8 4.2 3.1 2 7.2-1.3 6.7-4.5-4.3-6.2-37.1-4.1-45.3-8 0-1.8.1-4.5 1.3-5.3 9.9-6.6 14.7-18.6 25.8-24.1 6.7-4.2-.1-12.8-5.9-6.3-8.3 7.3-16.3 14.9-24.6 22.3-.7.6-1.1 4.4-2.6 1.5s-7.3-2.7-5.2-7.9c6.4-15.3 12.7-30.6 18.7-45.9.5-1.2-1.1-3.2-1.7-4.8-10.2 0-21.7 39.8-24.4 49.6-1.1 4.6-5.3 1.3-8 2-1.5.4-3 .5-3.9-2.3-3.7-11.6-7.8-23-12.3-34.4-.6-1.3-4.3-3-5.7-2.4-4.8 3.9-.3 8.5.7 12.2 2.9 10.4 7.4 20.4 11.1 30.7.3.8-1 2.1-1.5 3.2-.9 1.7-1.5 1-2.5 0-8-8.2-17.4-12.9-28.8-15.5-14-3.3 11.6-18.9 2.5-55.8 6 8.3 11.1 12.4 17.9 14.9 4.3 0 4.7-7.9 5.9-10.7 8.9-19.4 25.8-27.5 44.6-31 8.8-1.7 4.9 8.6 5.5 13.4-.9 14.5 6.5 23.3 21.2 16.2 4.1-1.9 9.4-7 13.1-2.9 10.7 11.3-3 28-1.3 41.2-.1 9 9.8 4.8 15.1 4.8 13.3 1 58 29.4 32.2 39.8zm-142.1 8.4c2-4.3 2.7-15.4 6.4-17.3 9.5 6.8 3.5 16.5-6.4 17.3zm20.7-8.5c0-17.3 28.2-15.2 26.1.5 1 24.1-28.8 20.6-26.1-.5zm445.8 218c-2.4 3.7-6.7 1.8-8.8.7-31.3-12.7-60.7 3.3-91.1 12.7-1.7-1.4-5.8-3.2-5.9-5.2-.4-6.6 6.3-3.4 9.2-4.6 29.9-12.1 65.1-24.6 96.1-8.1.7.4 1.2 3.5.5 4.5zm-11.3 59.5c-19.1 15.4-44 23.1-68.3 23.7-9.6-.1-17.6 4-25.5-.1-7.6-1.6-5.8-9.5 1.7-8.1 17.4 2.5 34-1.3 50.8-5 13.8-3 25.3-10.4 37.5-16.3 3-1.5 3.4 1.2 4.7 2.3 1.5 1.3.6 2.5-.9 3.5zm-208.2-186.6c92.5 21.4 78.6 70.4 189 28.9 2.1-.6 4.8 1 7.2 1.5-4.9 11.9-36 17.5-48 21.5-35.3 13.6-70.9-4.2-98.7-22.3-13-8.2-27.3-15.1-43.7-16.2-10.3-.7-20.7-4.2-30.6-7.6-14.1-5.7-48.3-9.1-49.1-28.1 23.4 11.1 47.9 19.1 73.9 22.3zM904 291.1c10.8-.6 45.8 25.9 37.9 37.7-.5.4-2.5-.4-3.1-1.2-13.3-23.9-48.7-24.7-34.8-36.5zm-93.3 990.6c-12.6-2-26.5 6.4-39.6 2.2 17.5-19.8 71-6.1 97-13.1 23.7-3.5 43.2-31.7 68.6-20-1.5 1.4-3.2 4.1-4.7 4-18.5-.9-30.9 12.3-45.9 19.5-23.6 11.6-49.5 8.4-75.4 7.4zm-18.2 39.1c36.9 2.9 67.2 22.9 104.2 3.6 8.7-5.9 7.3 7 1.2 8.3-12.5 3-23.9 11-35.5 8.5-26.6.8-47.5-9.4-71.1-14.1-2-.4-5.8 1.4-5.6-1.8.2-2.4 3.3-4.4 6.8-4.5zM822 845.7c12.1 1.5 23.2 7.6 35.8 7.4 3.6-.1 7.4 1.2 10.8 2.4 5 4.2-.5 5.9-4 7.5-2.2.6-4.6.1-10.5.1-3.3-.7-50.1-8.4-43.3-18.2 3.4-5.3 7.5.4 11.2.8zm-97.9-490.6c-12.6-.9-25.3-1.4-37.9-2.2-1.7-.1-3.7 4.5-4.9.2-.7-2.7 2.7-3 4.6-4.1 12.4-7.6 24.7-15.3 37-23 5-3 1.7-10-3.5-6.1-14 8-28.1 15.9-42 23.9-1.2.7-1.8 1.4-2.5-.1-.5-1.1-1.7-2.5-1.4-3.2 4.8-11.2 9.9-22.3 14.8-33.5 1.4-3.2 2.4-7.2-1.2-9.2-3-1.7-4.5 2.3-5.2 4-3.7 9-10.2 16.6-12.1 26.5-.5 2.7-1.2 8.4-5.9 8.2-2-.1-6.4.1-6.8-4.3-1.3-12-2.3-24-4.3-35.9-.6-3.8-.1-11.3-5-10.6-9.8.9 1.4 38.6-.7 48.1 0 4.7-3.8 4.1-5.9 6-1.5 1.4-1.7.2-2.6-.5-9.9-8.1-19.9-16.3-30-24.2-1.3-1-3.3-4-4.8-1.7-1.1 1.7-1.2 6 .1 7.2 7.7 7.1 15.7 13.9 24 20.2 4.9 3.7 4.5 7.6 3 12.5-.6 1.9-1.3.9-2.5.8-13.7-1.9-27.3-3.6-41-5.3-2.7-.3-3.8 2-4.3 3.9-.7 2.6 2 2 3.3 2.5 10.2 3.8 21 4.5 31.6 5.9 4.3.5 10.5-.3 12.3 4.6s-4.6 6.3-7.5 8.3c-9.1 6.1-18.8 11.3-28.3 16.8-2 1.2-4.2 2.7-3.2 5.2 6.4 6.1 32.2-13.4 39.1-17.6 3.9-3.8 11.8.2 8.8 5.9-5.8 10.8-11 22-15.9 33.3-1.3 2.9-5.5 7.4-.8 9.7 8.9 3.3 19.7-33.5 25-40.5 1.8-3.6 6.2-1.9 9.5-2.1.6 0 1.8.8 1.8 1.2 1.6 15.5 10.5 28.6 14.5 43.4.5 1.9 1.9 6.3 5.4 5 2.7-1 4-3.6 2.7-7.5-4.9-13.7-9.3-27.6-13.9-41.5-1-2.8-.4-4.9 2.1-6.4 1-.6 2.7-1.7 3-1.4 11.2 10.5 25.9 15.4 38.3 24 2.2 1.5 5 4.8 8.1 1.6 4.3-4.3-.7-6.5-2.9-7.9-11.6-7.6-23.2-15.1-35.2-21.8-4.9-2.7-2.3-5.5-1.9-8.5.5-3.8 3.4-1.8 5.1-1.9 12-.6 24.1.6 36-.3 2.4-.3 4.5-3.1 6.8-4.8-.9-.8-1.8-2.7-2.8-2.8zm-72.4 21c-21.7-1.8-15.2-35.4 6.1-31.3 24.5 3.8 10.2 34.5-6.1 31.3zm-51.8 399.1c10.2 1.2 36 12.9 43.2 6.3 2.2-2.4-1.6-5.3-4.4-6-11.3-3-22.8-5.6-34.1-8.5-1.8-.5-5.1 2-5.4-2.2-.3-3.7-1.1-7.2 3.7-9.3 13.3-5.8 26.2-12.4 39.5-18.1 3.3-1.4 2.9-3.4 2.4-5.4-5.5-8.5-37.8 13-46 15.9-6.6 3.1-7.5-3.2-10.7-5.1-2.7-1.6 1-3.6 2-4.8 4.2-6.6 29.5-31.8 23.1-37.8-1.7-2.3-3.4-.8-4.5.6-9.3 11.6-18.5 23.3-27.6 35-.9 1.1-.5 4-2.7 3-7.8-3.2-2.9-25.2-4.2-33.2h.8c-1.1-5.3 3-14.3-3.7-16.5-3.6-.8-3.5 1.9-5.1 3.9-3.7 4.6.7 8.2.7 12.2.1 7.8-3.4 15.1-1.3 23.2 2 7.7-5 10.2-10.2 13.5-3.7 2.4-3.8-1.2-4.8-2.4-7-6-22.4-34.7-31.3-29.4-4 5.1 21.8 29.4 25.7 36.7 4.1 5.4-6.5 7.3-4.3 13 .1.2-1.1 1.2-1.5 1.1-10.4-1.5-50.9-16.7-55.9-9.9 2.1 1.9 1.9 5.5 5.8 6.4 16.7 3.8 33.3 7.9 50 12 2.5 1 1.3 3.1-.5 3.8-7.7 4-45.4 10.5-43.3 18.7-1.7 6.3 40.1-8 44.3-9.1 3.6-1.3 4.9 0 6.2 1.6 2.1 2.4-1 3.5-2.2 4.9-8 9.3-16.2 18.5-24.1 27.9-1.2 1.5-2.8 4.1-.4 5.6 5.4 4.7 25-22.1 29.8-26.6 6.1-7.3 9.6 3.4 14.9 1.3 8.1.8-3.2 37.1 8.2 38.8 8.3-7.8 3.4-24.9 4.8-35.3.5-6.8 7.5-4.7 10.6-8.1 2.2-2.3 3.1 1.2 4.3 2.4 9.2 9.8 18.2 19.8 27.5 29.6 2.1 2.2 4.5 4.8 8.1 2.1 4.1-3-.3-4.8-1.4-6.2-9.5-11.8-19.2-23.4-29.2-34.8-3.2-3.6 2-6.1.4-9.2.2-.3 2.1-1.8 2.8-1.6zm-30.6 13.5c-24.7-.2-29.1-39.8-1.3-41.2 30.6-4.3 27 41.2 1.3 41.2zM449.4 664.3c2.1-1.4 2.7-4.2 1.3-6.3-6.5-9.3-10.5-20.3-19.3-27.8-3.7-3.2.1-4.7.8-6.8.8-2.3 1.9-2 4.3-.9 7.9 3.9 16 7.1 24.4 9.8 2.8.8 6.7 5.8 9.7.4 1.9-3.3-1.3-5.6-3.6-6.5-7.9-3-14.4-9.3-23.6-9.5-2.7-.1-6.5-1-6.4-5.6 0-3.7 0-5.8 5.2-6.3 5.9-1.3 34.7-4 33.7-11.2-8.7-11.1-33.2 13-46.2-3.1 7.3-9.3 14.5-18.6 21.8-27.8 1.7-2.1 2.4-4.1-.2-5.9-9.8-3.9-21.6 34.3-35.5 25-1.5-.8-3.8-.5-3.8-3.6-1-5.5 1.9-35.8-4.6-34.8-11.5 1.8 3.2 38.8-7.2 41.3-2.3.9-4.9 1.4-7.5-1.3-5.8-6-12.3-11.5-18.5-17.2-2.3-3.2-6.9 2.2-4.3 4.7 4.7 5.3 9.1 10.9 14 16 2.1 2.1 4.6 3.6 2.9 6.9-1.5 2.9-2.8 6.8-7.5 5.2-9.5-3.1-18.9-6.8-28.6-9-3.5-.8-7.7-6-11.6-.4-1.2 1.8-1.6 4.4.5 5.1 12.6 4.3 25.3 8.3 37.9 12.3 1.4.5 3.6-.5 3.4 2.3-.2 2.5.2 6.7-1.1 7.3-6 4.5-26.2 6.3-25.5 14.7.7 4 3.6 1.6 5.8 1.5 7-.3 13.1-3.4 18.6-7.2 7.7-5.2 9 3.6 13.4 5.6-3.2 11.3-15.4 16.6-18.8 27.6 2.7.2 5.5 1.5 7.9-1.1 5.9-6.7 13.6-11.7 18-19.8.5-1 2.1-1.3 3.3-2 .8 2.1 4.4.2 4.7 4.3 1 4.7 1.7 36 8.5 32.7 6.8-4.1-8.5-36.5 5.5-40 5.2-1.8 5.7 3.2 7.3 5.3 5.9 7.6 10.9 15.8 16.2 23.8 1.2 1.6 1.8 4.2 4.7 2.3zm-41.2-37.6c-24.7 2-20.9-38 1.2-37.1 23.5-1.9 24.4 38.2-1.2 37.1zm40.2 664.1c-12-2.3-24.1-2-36.2-1.7-7.7.2-.5-6.4-4.4-8.2-6-2.6 31.8-15.5 34.9-18 6.8-1.7 12.5-13.4 1-9.5-10.7 4.9-21.1 10.4-31.9 15-3.5 1.5-7.9 4.5-11.6-1.2-2.6-4.1 1.1-5.7 2.2-8.3 3.5-8 7-15.9 10.9-23.7 1.4-2.9-.4-4-1.9-5.3-3.7-3.3-8.6 10.4-10.6 12.9-3.1 6-4.6 15-9.5 17.4-8.6 4.3-13-1.7-14.7-11.2-2.7-12.4-1-29.9-13.4-37.7-.8 1.5-2.6 3.5-2.2 4.4 6.1 12.4 3.3 27 9.5 39.3 3.6 7.2-2.4 9.8-5.9 13.1-3.2 3-5.6-1.1-7.8-3.1-8.6-5.7-17.8-24.1-29.2-19.5-6.7 3 24.9 25.3 28.1 29.4 2.4 2.1 1.1 4 1.1 6.1 0 2.6-2 1.8-3.3 1.8-15.9-.3-31.8-.7-47.7-.8-3.6-.7-9.9 3.8-4.9 6.7 14.7 3.4 29.7 4.6 44.7 3.6 3-.2 6 1.2 9 1.9-1 3.8 5.9 8-1.6 11.9-5.6 4-24.5 14-20.2 22.1 4.6 4.4 14.8-9.9 19.9-11.7 3.5-2.2 6.8-8.2 11.3-4.9 3.6 2.7.1 7.4-1 11.3-3.7 12.7-7 25.5-10.4 37.8.3 2.6-.8 5.5 2.6 6.1 1.1.2 3.2-.2 3.4-.9 4.9-14.7 9.5-29.5 14.2-44.2.5-1.6-1.2-4.4 1.4-4.6 3.4-.3 9.1-.6 10 1.1 4.8 9.1 8.4 18.8 12.4 28.3-.5 6.3 3.2 4.1 7.8 4-1.2-11.5-6.4-22.3-10-33.2-2.2-4.6 3.4-8.1 7-5 11.7 8 23.7 15.5 35.5 23.4 3.1 3 8.1-1.2 4.4-4.1-10.8-12-25.7-18.5-38.2-28.4 2.4-1.7 1.1-6.5 5.8-6.3 12.5.5 25 .8 37.5 1 2.4 0 5.5.6 6.3-3 1.2-3.9-1.5-3.6-4.3-4.1zm-68.4 18.1c-23.7-.5-16.4-41.5 4.6-38.8 23.4 2.4 14 39.1-4.6 38.8zM274.9 730.7c-8.4-1.9-17.5-3.3-26.1-.1-1.7.7-4.5 1.5-5.4-1.6-3.1-3.5 28-12.9 32.3-16.4 4.5-1.6 11.3-10.2 2.6-11.4-11.1 5.2-22 10.7-32.9 16.2-1.5.8-2.5 4.4-4.7 1.5-1.9-2.5-5.5-5.1-3.6-8.8 4.6-9.1 9.4-18.3 14.8-27 2.1-3.4-.7-4.2-1.7-5.6-2.7-4.9-14.3 19.5-17.4 21.9-1.7 2.4-2.1 8.1-5.1 6.7-3.5-1.6-9.9.3-10.5-5.9-1-9.7-1.6-19.4-2-29.1.4-7.8-8.4-8.4-7.2-.3.2 10.1.4 20.2 1 30.3.3 5.4-4.7 5.3-7.3 7.4-6.2 3.4-21.4-21.4-30.6-21-.2 2.6-1.7 5.2 1 7.7 6.8 6.4 13.1 13.4 20.2 19.5 2.7 2.4.2 3.8.1 5.4s-2.7 4.6-3.6 4.4c-13.9-2.9-28-3-42.1-3.6-1.4-.1-3.6-.9-3.8 1.8-.1 2 .3 3.8 2.6 4.2 11.5 1.8 23.1 3.6 34.7 5.1 3.7.5 8.7-.7 10.4 2.7 2.5 4.8-3.1 6.4-6 7.4-8.5 3.1-14.1 10.9-23 13.6-2 .6-9 3.2-6.5 7.6 2.7 4.8 7.7 1.2 11.3-.6 9-4.6 17.8-9.6 26.7-14.5 1.4-.8 2.7-2.5 3.9.1.7 1.5 2.4 1.9.9 4.8-2.5 6.9-25 44.9-17.7 47.5 2.4 1.4 3.7-1.4 5.2-3.3 7.4-9.1 11.6-19.7 15.7-30.4 1.4-3.7 3.1-8.6 6.2-10.2 6.4-3.3 19.6 6.6 19.6 14 .5 6.8 3.6 17 9.9 19.9.8-1.5 2.4-3.3 2.1-4.6-2-8.5-3.5-17.2-7-25.1-3-6.9 2.4-8.7 4.9-12.5.8-1.3.9-1.5 2.3-.3 11 9.2 22.3 18 33.3 27.3 2.4 2 4.5 2.3 6.5.8 5.5-3.9-31.4-34-37.8-36.8 8.2-1.4 42 1.1 42.5-7 .1-6.2-5.2-3.2-8.7-1.7zm-41.6 1c-.7 9.3-6.8 16.9-18.1 15.1-11.8 1.2-15.2-6.3-15.1-15.3-1.8-22.4 35.5-21.2 33.2.2zm-12 555.4c-13.6-7.7-27.5-14.8-41-22.7-3.5-2 2.7-5.1.9-8.2-.1-.1 1.1-1.5 1.7-1.5 8.1-1.8 44.2 2.2 43.7-7.5.2-3.8-3.4-2-5.4-2.2-11.4-1.5-22.8.2-34.2.9-2.1.2-5.7 1.7-6.5-1.5-.3-1.4 2.2-4.1 4-5.3 12.7-9 25.6-17.8 38.3-26.9 1.6-1.1 5.4-2 3.3-5.4-1.5-2.6-4.9-3.4-7.4-1.8-.1.1-.3.2-.4.3-11.8 8.8-25.5 14.8-36.2 25.1-1.9 1.8-4.7 2.7-7.1 4-1.5-2.8-7.1-2.9-5.7-7.2 2.7-8.3 6.6-16.2 9.1-24.5 1-3.3 5.8-7.1.6-11-6.3-6-12.9 23.5-16.3 27.8-.9 1.9-.5 5.6-4.6 5.6-3.6 0-7 .3-8.5-4.1-3.4-10.1-6.7-20.2-10.8-30-1.6-4-2.9-10-8.7-9.4-6 1.3 10.2 37.1 11.3 43.4 1.3 3-3.5 5.8-5.4 5.8-11-4.7-21.8-9.6-32.6-14.7-2.4-1.2-4.8-2.2-6.4 0-4.3 9.1 22.3 15.3 28.2 19.1 2.4 1.2 6.9 1.2 5.7 6-1 4.1-4.2 3.6-7.4 3.8-7.3 1.6-42.8.1-43 6.9-1.7 7.1 41.7.3 48.3 2.9-1.8 3 3.9 5.1.9 8.3-8.9 9.6-17.7 19.3-26.7 28.8-2.1 2.2-3.2 4.4-1.4 6.8 1.9 2.7 5.2 1.1 6.6-.2 9.5-8.8 20-19.2 28.6-28.3 4.2 2.4 9.3 4.1 8.2 10.9-1.9 10.8-3.2 21.7-4.7 32.6l.7.1c.8 4.3-2.3 12.8 2.5 14.6 6.5 2.7 7-35.2 9.9-41.4.7-3.2-1.6-8.4 2.9-9.6 3.4-.9 8.2-2.1 10.1 3.6s15 34.7 21.3 32.1c2.9-1.1 2.4-3.7 1.4-5.8-5.6-12-12.4-23.6-17.5-35.8 2-.1 3.7-.3 5.9 1 13.7 7.8 27.6 15.3 41.4 22.8 2.7 1.4 5.9 4 7.7-.4s-2.5-6.3-5.3-7.8zm-69-19c-19.7-2.8-20.8-36.4 4.6-35.1 22.5 3.7 20.7 39.1-4.6 35.1z"/></g></g><g id="Layer_1_2_"><g><path d="M52 1548v15l-37 37h946l-37-37v-15H52M52 52V37.7L14.3 0H0v1600h15l37-37V52m872 0V37.7L961.7 0H14.3L52 37.7V52h872m52-52h-14.3L924 37.7V1563l37 37h15V0z" id="Layer0_0_FILL_1_"/></g><g><path id="Layer0_0_1_STROKES_1_" d="M961 1600h15V0h-14.3L924 37.7V1563l37 37H0V0H961.7M52 52V37.7L14.3 0m.7 1600l37-37V52h872m0 1496H52" fill="none" stroke="#333" stroke-width="2" stroke-linecap="square" stroke-miterlimit="3"/></g></g></svg>