<svg xmlns="http://www.w3.org/2000/svg" xmlns:xlink="http://www.w3.org/1999/xlink" viewBox="0 0 976 1600"><path d="M960 22v1556c0 3.3-2.7 6-6 6H22c-3.3 0-6-2.7-6-6V22c0-3.3 2.7-6 6-6h932c3.3 0 6 2.7 6 6z" fill="#fff"/><defs><path id="a" d="M960 22v1556c0 3.3-2.7 6-6 6H22c-3.3 0-6-2.7-6-6V22c0-3.3 2.7-6 6-6h932c3.3 0 6 2.7 6 6z"/></defs><clipPath id="b"><use xlink:href="#a" overflow="visible"/></clipPath><g clip-path="url(#b)"><path d="M592.8 1448.8c-30.7-2.1-4.8-72.9 8.6-79.4 19 16 24.8 71.3-8.6 79.4zm114.2-41c-18.5 1.5-72.2-59-54.3-71.3 26.2-1.8 100.6 52.7 54.3 71.3zm-217.7-40.2c-29-.3-27.1-31.8-5.5-36.2 12.5-6.4 74.8-11.1 63.3 10.1-15.2 12.8-34.9 25.8-57.8 26.1zm-194.5-34.1c-16-4.6-41.6.2-43.4-19.7-7.3-2.1-5.4-3.1 1.6-5.2 31.5-7.7 55.4 22.4 58.5 8.1-1.8-16.6 40.9-60.3 39.4-29.8-6.5 13.1-16.9 41.4-37.1 41.1-4.6-3.5-7.6 1.4-11 3.5-.5.1-6.5 1.9-8 2zm426.6-22.3c-28.1-5.9-48.5-37-56-61 18.4-16.1 98.4 47.4 56 61zm33.3-53.6c-32.1-10.2-1.3-70.1 15.2-84.3 19.3 18.2 15.5 78.6-15.2 84.3zm-260.2-.8c-55.8-9.5-21.5-43.5 17.1-40.8 16.7-1.9 62.8 12.3 27.1 27.3-13.7 9.2-28.4 11.5-44.2 13.5zm375.7-41.8c-25.2-6-48.3-32.3-49-58.2 18.4-9.3 84.8 46.2 49 58.2zM703 1179.2c-88.3-4.4 30.9-58.8 42-20.7 1.4 19.5-28 21.1-42 20.7zm-152-22.3c-24.8 1.6-74.2-32.6-34.3-43 17.4.9 80.6 42.1 34.3 43zm342.5-33.9c-30.1-6.4-39.8-26-51.7-46.8-8.3-39.8 97.1 31.2 51.7 46.8zm19.3-100.7c-27-9.1-54.2-43-46.6-67.5 29.1-3.8 88.4 51.2 46.6 67.5z" fill="#5d4e8c"/><path d="M235.6 1214.1c-29.6-8.7-.6-45.5 12-60.7 30.8-1.5 10.9 54-12 60.7zm-151.6-18c-9.9.2-3.9-6.5-17.4-9.5 2.3-19.3 46.4-40.4 62.5-27.3 9.3 20.8-24.5 34.9-45.1 36.8zm84.2-127.5c-37.2-6.9 6.3-46.4 28.4-49.8 5.3 1.5 12-9.5 14.3-.2-.4 28.5-20.7 42.6-42.7 50zm538.7-11.3c-32.2-23.3 16.9-75.4 48.9-74.3 11.8-.3 13 3.5 7.2 12.6 11.6 28.3-29.6 54.6-56.1 61.7zm-594.2-24.4c-19.9-13.4 2-71.2 23.8-74.5 22.7 20.6 7.5 74.1-23.8 74.5zm793.2-174.5c-20.6-1.2-47.9-44.8-40.1-64.8 11 2.7 5.8 3.9 17.7-.5 20.2 6.1 51.5 57.7 22.4 65.3zm-147.4-74c-13.2 1-16.2-9.3-27-10.8 8.9-30.3 50.5-38.5 76-24.5 2 1 2.8 3.4 1.8 5.4-.4.9-1.2 1.6-2.1 2-5.9 16.5-25 27.3-48.7 27.9zM930.2 749c-28.6-3.3-58.4-74.7-27.1-83.6 33.6 11.6 43.4 43.6 42.9 72.9-.4 1.9-2.1 3.2-4 3.3-5.9-.1-5.5 8.6-11.8 7.4zm-174.9-72c-67.9-4.1-19-49 22-46.1 8.6.8 47.2.5 36.5 15-4.1.9-9.2 2.8-8.2 8-7.1 13.3-29.3 21.8-50.3 23.1zm54.3-92c-8.1-1.4-27.2.9-32.6-8.7 3.5-4.8-2.1-8.9.2-13.3 14.2-22.4 83.5-34.9 82.5 2-15.4 13.3-31.8 19.8-50.1 19.8v.2zM270.5 387c-21.3-21.7-27.3-57.4-13.6-81.7 8.6-3.8 5.3 9.4 19.1 4.2 16 7 21 79.2-5.5 77.5zm-71.4-78.4c-37-7 4.7-58.5 26.6-63 26.1 13.9-2.7 57.6-26.6 63zm152.3-14.2c-27.5-.3-62.3-18.6-60-46.9 3.5-1.5 8.6-1.1 8.9-6.3 7.8-9.4 22.9 1.4 34.7 8.8 17.3 11.5 15.8 20.8 18.3 33.7 4.6 3.4 4.8 10.3-1.9 10.7zM773.3 265c-34.2-17.4 5.7-101.9 44.8-100.5 10.7 3.2-4.5 10.5-1.7 16.5 22.6 22.8-16.5 75.2-43.1 84zm118.4-5.8c-9.1-4.1 2.1-5.3-14.3-11.5-13.6-29-20.3-77.8 10.7-92.8 29.9 16.6 26.5 84.9 3.6 104.3zm-734.6-56.8c-31-10.9 14.2-57.6 33.6-61.1 29.6 18.1-11.2 59.5-33.6 61.1zm181.9-1.6c-21.9-1.4-41.2-9-53.9-24.7 7.7-37.9 48.3-13.1 65.8 8.2 7.9 5.5.8 8.4-2.5 13.3-1.3 4-6.3 3-9.4 3.2zm430.7-69.5c-17.9-.5-56.1-8.3-62.3-26.5 41.3-59.7 196.3 11.7 62.3 26.5zm-454-28.6c-21 0-41.1-8.6-53.8-22.9-8.9-37.2 67.5-20.1 67.7 6.2 28.3 7.9 4.3 16.9-13.9 16.7z" fill="#333"/><path d="M389.5 908.4c-141.6 2.2-33.3-57.3-12.3-119.4 3.3-11.5-10.7-18.7-7.6-28.7 3.2-4.2-.7-10.5-5.9-9.5-47 7.6-104 13.9-145.9-8.1-18.4-17.2-24.6 9.1-49.1 1.2-4.2-.3-6.1 4.2-6.5 7.8-16.5 7.1-40.3 14.4-58.7 22.9-19.5-7 36.6-43.3 43-49.9 20.4-3.1 10-14.3 37.7-18.1 1.1-16.4 8.7-31.7 23.4-40.2 57.1-40 121.4-59.4 185.3-82.7 6.3 1.4 17.2 13.4 17.7-1-30.6-72.7-116.3-31.3-59.1-147 1.8-7.8 11.5-9.1 16.1-15.1-.8-17.4 16.8-31.5 25.6-46.5 38.3-49.2 87.6-93.4 141.1-129.2 5-6 12.5-10.4 20.5-4.3 14.5-4.9 24.1-25.3 39.7-25.9 9.8-.6 10.2 2.2 16.1 7 18.1-5.8 31.2-22.7 49.1-28.3 29.3 10 13.3-1.5 37.7-4.9 33.6.9-8.8 28.2-17.4 37.8-.1-.1-142.8 119.3-147.6 157.2 6.8 12.9-18 25.4-6.4 36.1 1.2 2.5 3.1 4.4 1.9 9.1-15.2 20.9 12.5 23.7 3.9 44.8-3.4 5.2-9.4 15.3.9 16.5 51.9-4.1 57.6 58.9 81 14.8 34.9-62.2 81.6-113.4 117.1-177.8 15.8-39 18.1 53.5 15.4 61.3 6.5 12.1 4.9 47.7 14.1 47.3 37.5 2.2 75.6 21.8 113.5 32.9 14.3 8-43.1 21.5-48.4 28-66.3 31.9-134.8 60.3-200.8 92.3-4.4 23.3-18.5 46.6-39.8 68.3-27.4 27.5-72.5 53.6-111.3 68.5-8 3.2-1.7 13.9 4.7 14.2 6.5-1.8 13.7-5.3 20.6-4.9 8.7 0 28.1 7.8 23.6 16.2-1.1 2.9-4.3 4.9-3.5 8.4 2.2 5.9 12.4 8.3 9.5 16-1.7 8.6 11.2 9.9 11.4 19.4 10.3 13.8 48.9-9.4 64.5 9.7 1.1 3.8 2.8 8.5 7.8 7.5 17.7-3.4 38.9-5.2 60.4-7.7 13.6 6.6 1.2 11 26.7 8.8 52.6 14-82.8 52.3-99 53.5-31 6.1-65.4 22.8-95.9 17-34 16.2-76.8 19.7-114.8 24.7z" fill="#ff970d"/><path d="M464.1 973.3c-83.3-.8-161.3-35.3-223.7-83.9-19.8-14.7-127.8-119.9-89.9-132.5 19.4-5.2 46.8-25.7 67.1-10 24.4 17.1 61.3 17.1 91 17.8 23.9-2 61.7-10.3 59.5 28.3-31.1 58-122.3 113.7 8.4 118.5 45.8 1.8 509.3-86.2 274.3-112-59 13.9-48.8-12.5-97.6-1.4-8.9 3.7-10.9-3.5-14.8-11.7-10.5-4.2-9.5-13.6 2.7-11.3 120.2 7.4 227-54.7 317.8-106.8-32.1 182-210.9 311.5-394.8 305zM780.4 740c-8.8-.2-20.5 3.5-31.2 9.1-93 75.6 145.1 15.3 31.2-9.1zm-652.6-4.5c-50.8-94.2-39.1-231 9-322.5 0-5 5.1-13.1 8.9-5.2 10.5 48.3 32.1 113.8 56.9 156.9 10.1 18.1 22.7 39.1 39.7 57.4 10.3 7.9 5.3 18.4-3.6 21.4-25.2 13.1-43.6 25.7-54.6 44.8-6.7 26.6-35.9 25.4-50.8 43.9-.8.4-3.7 3.6-5.5 3.3z" fill="#d81e1e"/><path d="M318.1 657.2c21.5-17.4 49.3-22.5 73.8-33.9 1.2-.7 2.9-.3 3.6.9.3.4.4.9.4 1.4-.4 3.3.9 7.9-3.5 9.3-23.4 7.7-47 14.8-68.4 27.5-1.3.8-3.2.6-4 .7-11.4-.2-3.2-4.3-1.9-5.9zm38.8 3.5c-8 4.1-17.4 6.6-22.7 15.3 21.4-5.8 40.6-15.9 60.5-24.1 2.5-1 9.2-.7 7.5-5.8-2.4-7.4-8-1.6-11-.5-11.7 4.4-23.2 9.4-34.3 15.1zm-106.6 30.4c10.8-10.1 22.8-17.8 37.1-22.3 3.5-1.1 9.2-2.3 9.1-6.8-.1-4.2-4.2-6.4-5.9-5.8-22.2 2.5-37.3 11-48.6 26.6-2.6 3.6-5 6.8-1.7 10.5 4.2 4.5 7.5.2 10-2.2zM971.1 55.7c-29.9 19.1-58.3 40.4-85.2 63.6 6.3 23.1-6 22.6 12 35.4 23.8 29.8 22.9 88.9-5.4 114.9-7.5 4.9-11.5-5.5-15.3-10.3-19.3-24.3-22.8-57.7-11.5-86.6 7-14.5 22.8-28.1 14-45.6-14.5 10.3-25.1 25.4-39.5 36.3-21.1 20.6.6 49.7-36.1 87.8-10.9 13.6-51 37.9-48.6 5.1-.8-18.7-3.5-38.2 5.8-55.4 11.4-21 28.4-38.2 53.1-39.2 18.3-.8 20.9-17.1 32.6-23.8 7.5-4.3 13.2-12 19.8-18.3-26.1-4.4-34.8-8.5-57.8 8.4-29.7 15.4-65.8 10.2-94.1-6-5.6-3.1-13.3-9-13.5-13.9-.5-13.1 11.8-18.6 21.1-25 33.6-19.2 85.3-6.4 111.2 21.3 5.8 6.2 14.6 1.5 21.6 4.2 15.5 5.6 26.8-2.6 38.3-12.8 3.8-6.1 95.7-71.4 77.5-40.1zm-155.5 59.7c-32.7-4.6-63.5-1.2-96.2-2.6 32.3 18.4 63.1 19.4 96.2 2.6zm6.6-9.9c-27.6-21.1-82.4-33.5-111.7 1.9 38.3-6.6 72.8-6.6 111.7-1.9zm-4.2 63c-28.3-1-62.4 53.6-51.8 81.4 10.6-31.1 30.5-56.4 51.8-81.4zm2 20.3c-18.8 22-35 46.1-48.4 71.8 25.6-5.2 48.4-46.3 48.4-71.8zm61.3-28.2c-15.7 30.6-13.9 57.3-.4 85.3.2-28-4.2-54.7.4-85.3zm10.3 94.5c17.8-23.3 19-74.8-2.2-96.6-1.6 32.7.8 64.4 2.2 96.6zM378.8 621c3.1-1.1 7.3-2.1 7.4-6.2-3.7-11.7-59.5 14.9-68.6 25.3 22.4-4.6 39.9-12.5 61.2-19.1zm215.3-33.3c41.2-16.3 80.2-38.6 119.9-58.4 33.3-16.5 67.5-31.1 100.3-48.7 3.3-.8 9.6-8.9 2.4-9.3-76.4 32.1-150.3 70.2-224.7 106.9-8.1 3-5.9 9.1 2.1 9.5zm-456.5-391c1.5-26.2 25.9-52 49.9-60.4 12.2-3.7 19.5-11.1 26.9-20.8 7.8-10.3.7-18.2-2-25.9-9.4-26.9-20.7-53-34.9-77.6-1.6-2.8.1-6 1.7-6.2 12.5-2.9 24.4 33 29.4 42.6 2.7 6.6 7.4 8 12.4 8.2 11.2.3 21.3 4.7 32 6.6 1.6.3 4 .5 4.9-.4 31.2-26.6 74.3 3.8 91.3 32 3 4.1-6.8 9.7-12.5 12.1-26.4 11.2-64.8-1.7-79-23-10.6-15.8-25.3-15.1-39.2-19.5-1.7-.4-2.5 3.1-1.2 5.3 12.4 21.6 16.6 46 23.8 69.3 1.2 3.9 3 5.6 6.8 6.9 14.2 3.8 27.4 15.1 42.5 8.6 29.4-8.4 54.9 7.7 68.7 33.7 2.5 3 6.2 5.8 4.5 10.2-3.4 8.9-11 11.5-19.5 10.5-26.6-1.6-54.9-12.8-67.6-38.2-3-6.2-11-6.2-17.3-8.2-4-1.3-6.8-5.5-11.6-5.3 2.2 19.8 6.2 39.4 12 58.5 2.4 5.6 12.2 7.4 16.7 11.3 9.5 7.6 20 3.9 30.1 3.9 28.6 1.5 52.2 32.3 59.1 58 3.8 10.2-3 11.5-8.8 11.9-28.5 1.9-49.8-10.2-65.9-33.7-5-7-8.5-15-10.3-23.4-1.1-5.3-7.2-5.7-10.9-8.6-2.6-2-5.6-3.7-7.3-4.8 3.9 22.6.7 56.3 17.1 74.6 33.2 22.9 5.9 125.4-16.2 87.8-11-17.9-22.4-36.1-20-58 1.5-13.3 1.8-28 13.3-38.6 3.5-3.2.5-8 0-11.9-1.5-12.3-3.9-24.4-5.7-36.7-.5-3.1-1.2-8.9-3.2-7.8-19.1 11.3 12.2 37.9-36.5 69.2-65.9 43.4-29.7-63.1 9.2-65.1 11.6-1.9 18.7-6.6 24.2-14.6 7.2-10.4-.9-21-2.6-31.4-2.3-13.7-5.8-27.3-9.2-40.8-2.5-10-5.5-19.9-8.4-29.8-8.2-8-14.8 21.7-14.5 26.6.2 8.6-4.7 16.8-8.9 24.6-11.3 21.5-31.7 29.3-53.2 34.1-12.9 3.1-10-10.3-10.1-15.8zm65.6 82.9c8-9.9 16.7-19.3 24.1-29.7-17.2 1.2-40.3 32-39.6 50 5.3-7.1 10.2-13.9 15.5-20.3zm29.1-20.3c-12.2 15.1-24.9 28.8-35.1 45 17.5-1.8 37.1-29.3 35.1-45zm42.3 53.8c1.7 22.3 3.5 44.7 5.3 68.3 8-28.4 4.9-64.3-5.3-68.3zm29.7-71.3c16 9.5 30.2 20 44.5 31.9-1.6-13.4-30.9-34.2-44.5-31.9zM293.8 253c10.5 23.5 30.8 38.6 59 36.7-15.2-14.7-35.1-25-52.1-37.8-1.8-1.2-4.6-.9-6.9-1.3.1.7-.3 1.7 0 2.4zm-34.2 55.2c-.8.8-2.2 1.5-2.4 2.4-7.1 25.5-2.3 50.1 13.2 72.4-3.3-23.5-8.4-44.6-7.8-68.2.2-2.2-1.9-4.5-3-6.6zm34.9-146.4l56.1 28.2c-16.5-17.1-30.4-33.3-56.1-28.2zm-3.1 16.2c15.3 12 32.1 20.3 53.1 18.6-4.3-.9-68.9-34.4-53.1-18.6zm-26-111.5c20.1 5.3 39.3 11.4 59.4 14-11.7-15-42.3-22.5-59.4-14zm-.5 10.7c20.6 23.5 57.9 26 74.5 16.2-24.7-3.2-48.2-9.1-74.5-16.2zm-66.7 77.7c-13.5 15.2-26.2 30.8-42.3 43.5 15.1 1.6 44.7-28.9 42.3-43.5zm-48.3 36.5c14.4-14.9 29.3-28.9 41.3-46-13.8 1.2-43.7 34.4-41.3 46zm811 268.8c-24.3 37.5-42.7 78.5-59 120-7.8 18.2-16.1 36.3-20.7 55.7-1.3 5.5 15.6 25.1 21.2 25.1 35.6 3.7 59.6 56.2 46.9 89.7-5 12.4-13.8 4.9-20 3.5-29.5-6.6-36.8-30.7-42.3-56-7-30.4 11-19.9-8.7-47.6-9.5 33.6-16.3 63.7-25.6 96.2-3.3 9.9 5 14.2 8 21 1.2 2.7 4.3 4.7 5.3 7.4 12.5 23.9 42.8.8 57.5 65.1 11.6 53.8-77.6 6.4-63.5-45.5 1.7-12-6.2-16.9-9-25.2-.1-.4-1.2-.5-1.8-.8-1.3 3-3.5 5.9-3.8 9-6.9 42.5-14.8 84.6-23.6 127-.7 2.3 4.3 6.6 7.1 9.6 9.6 10.3 19.6 20.2 29 30.7 6.7 7.5 15.7 3.3 23.5 5.6 20.7 6.2 53.5 29.2 54.8 55.8.4 8.4-.7 18.1-10.1 22.3-26.8 12.7-65.6-32.9-67.6-56.8 0-15-10.1-23.8-20-32.5-6.8-6-10.3-15-18.7-19.5-3.8 18.3-8.3 36.4-11.1 55-1.8 12.4-1.7 25.4-7 37.5-1.9 4.3-2.9 10.8 4.9 15.7 8.5 5.3 15.4 14.1 21.4 22.4 7.1 9.8 17.4 9.1 26.9 10 23.6 2.3 52.4 24.8 57.8 47.3 2 15.4-15.8 27.9-30.2 20.5-27.5-11.2-40.9-33.1-50.2-59.9-5-11.7-20.3-19.8-28.9-29.9-4.2-5.2-5.6-1.6-6.2 1.9-4 21.5-5.1 43.9-10.3 65.1-5 9.9 2.3 14.6 7.9 20.2 24.2 26.5 16.6 20.7 49.4 28.9 19.7 9.8 41.3 25.8 44.7 52.1 1.4 10.4-15.2 21.3-25.9 15.7-21.5-11.2-38.5-26.9-46.4-51-4.7-14.3-13.2-26.6-26.6-34.5-6.8-4-4.9-3.1-9 5.5-4.1 8.8-4.5 17.3-4.7 26.1-.2 10.2 9.1 17.6 10 28 4.3 25-6.2 80.6-41.6 65-11.5-6.8-10-19.2-8.5-31.5 1.8-23 14.5-41.3 27-59.6 2.2-3 4-6.2 3.6-10.2-.3-27.5 5.7-54.3 9.9-81.2 3.5-32.5 9.7-64.8 14.2-97-14.1 3.3-15.5 17.4-20 29-33.4 76.5-63.5 19.4-103.1 95.3-13.5 17.6-16.8 40.3-26.5 59.9-.3.6.7 1.7 1.1 2.6 3.8-3.7 8.8-1.8 13.1-2.7 13.8-2.6 20.2-17.6 33.4-19.9 16.7-2.9 32.4-14.2 50.8-5.8 9.4 4.3 15.4 11.2 14.9 20.9-8.2 33.2-66.3 30.8-89.7 14.6-5.9-3.4-11.5 1.4-17.2 2-20 2.2-15.1 19.9-18.4 31.8-5 17.9 13.8 15.8 21.3 23.3 13.6 13.4 33.4 7 48.2 16.7 19.9 12.1 57.3 38.3 37.6 64.6-34.3 22.6-70.2-38.1-80.2-65.1-2.3-5.7-12.9-7.7-19.1-12.2-15.8-11.5-14.5 2.3-16 10.8-3 16.8-4.5 34-8.4 50.6-3 12.4 6 16.1 12.6 21.3s13.9 10.5 21.7 12.8c9.3 2.8 19.5.4 29.1 4.2 25.5 7.3 76.7 51.7 43.7 75.9-30.5 17.9-72.4-43.6-77.7-69.8-1.7-5.2-12.8-9.4-19.2-12.6-4.4-2.7-7.5-7.5-13.3-8-.7 12.5-2.3 24.9-3.5 37.3-.2 2-.1 4.7 1.1 5.9 25.2 26.3 25.3 86.7-18.2 91.8-10.4-1.3-20.3-17.8-17.4-27.9 2.8-9.9 1.1-20.8 5.2-30.7 4-9.6 6.6-20 13.6-28 8.1-9.4 4.4-20.6 5.4-31.1.6-6 .9-12.1 1.4-18.5-33 13-37.3 9.9-61.7 36.7-20.6 15.5-73 30.2-76.6-7.2 1.3-36.2 66.9-36.8 91.6-24.5 5 2.2 9.5-2.7 14.1-4.4 7-2.6 13.5-6.1 21.4-7 17.4-1.8 13.4-17.1 14.3-27.3 2.3-23 8.5-45 10.6-68-16.6 4.5-34.2 7.8-50.7 14.1-10.1 3.9-18.9 11.9-27.6 19-10.3 8.4-43.7 13.3-55.9 7.9-25.9-8.7-28.2-37.4-.8-45.1 63.3-23.1 51.6 16.7 116.3-1.3 19.8-2.9 21.6.6 26.5-20.7 2.6-6.2 4.8-12.7 6.5-19.2 1.3-4.9-4.1-4.3-6.1-4.7-15.5-2.9-30.5-7.4-45.5-11.9-7.7-2.3-15.5 4.1-24.2 3.9-20.2-.5-36.9-7.5-50.4-22.5-16.1-16.4 8.1-38.3 25.4-31 18.3 4.8 33.6 16.4 44.4 31.1 13.2 17.8 33.3 12.8 49.5 20 3.1 1.4 6.6 2.1 10.1 3.1 6-19.4 13.6-38.3 22.5-56.5 2.1-4.3-2.8-6.4-5-8.2-30.5-26.7-53.6-23.5-89.9-11.8-91.2 23.5-85.4-19.5-124.6.2-35.5 15.8-70.9 3.3-106.2-6-7-1-11.2 7.5-16.9 11.4-16.9 11.7-48.8 43.2-41.7 65 13.9 37.4-37.8 92.8-48.3 56.9-6.2-24.3 5.9-41.3 20.8-57.3 16.8-10.1 17.1-8.9 25.2-28 .4-.8-2.2 0-3.4.8-17.4 11.8-36.9 17.4-57.3 20.1-2.5.2-7.4.6-8.4 2.9-8.9 61.4-81.7 90.9-76.3 157.5-3.5 77.4 92.8 162.3 160 98.7 21.7-18.4 30.4-37.4 28.3-65.7-1.1-12.2-11.6-2.2-17.4-3.1-17.3-2.7-35.4-2.8-48.9-16.8-4.2-4.3-8-8.4-3.9-14.5 5.4-8 14.4-4.5 21.7-5.4 43.5-5.9 47 26.8 49.8 3 3.5-17.6 30.9-45.6 48.1-32.8 5.5 5.4 3.3 13.7 0 19.2-6.9 11.6-11.7 24.9-23.1 33.5-13.7 11.2-20.7 7.9-15.1 27.9 2.3 34.3-22.4 62-50.3 78.4-76.6 43.3-166.3-43.2-162.5-121.9-2-74.3 54.7-94 74.5-148.5.8-3.2 4.1-6.6 1.4-10.2-3.1-4-6.2-.9-9.6 0-5.2 1.4-9.4-3.4-16.1-.7-10.9 4.4-16.4 11.5-20.8 21.5-11.1 23.6-45.9 34.4-70.3 27.7-10.7-3-8.7-9.5-5.6-15.8 14.8-28.8 40.8-36 69.8-32 10 1.3 11.3-4.8 21.6-8-33.8-21.1-44.5-64.4-39.8-102.2.3-4.6-6-4.2-8.1-8.5-7.1-14.7-4.7-28.8.3-43.2 4.1-18.7 40.2-58.3 48.4-21.4 10.9 75.2-51.2 48-24 132 6.4-7.9 12.8-15.6 19-23.5 5.3-9.3-10.7-9.6 6.9-35.4 6.7-14.1 49.3-43.5 61.1-24.3 4.7 7.8 1.7 16.5-2.8 23.8-12.3 19.9-29 32.3-53.2 35.7-2.4.3-4.5 2.3-6.5 4.9-2.8 4.3-6.7 9.4-8.9 13.7-5.8 6.8-14.7 12.7-4.9 23.1 9.4 11 22.3 24.3 37.8 22.8 8.5-.4 9.7-5.7 9.8-19.1 3.6-49.3 65.7-69.1 108.1-61.1 54.6 10.9 51.6-12.9 100.7-8.1 18 .6 34.7 6.8 51.8 11.6 9.2 2.6 16.5-5.8 24.8-8.8 62.3-27.4 135.6-8.2 185.7 35.6 2 1.8 2.9 1.7 4.2-.4 6.8-11.3 14.5-21.8 24-31.2 6.5-6.4 1.4-15.3 2.7-23.1 5.7-37.9 48.5-67 85.8-58.4 3.1.2 21.3-14 21.7-16.3 9.8-59.1 21.4-118.3 33.7-176.6-140 238.3-465.2 264.8-646.7 59.4-12-15.1-24.6-29.6-34.1-46.8-5-9-10.1-18.8-17.3-26.2-5.8-4.3-17.6 4.8-24.8 6.7-6.2 1.7-15.6 10.8-20.4 4.3-2-14.7 17.8-28.4 27.1-37.9 4.4-3.9 4.3-7 2-11.4C85.4 663.6 75.4 585 92.3 510.9c8.9-41.5 21.8-82.4 42.9-119.5 3.4-4 10.2-19.2 16.1-16.5 2.4 1.3 5.7 3.9 5.7 6-.1 14.3 1.3 28.5 4.2 42.5 6 34 18.3 67 32.3 98.5 15.6 36.3 38.4 68.9 63.4 99.7 7.9 9.2 13.2 2.1 18.2-.5 35.2-17.5 73-28.4 109.9-41.4 6.4-1.8 3-4.4 1-7.1-10.9-14-27.1-20.2-42.3-27.7-89.4-52.7 62.4-208.3 108.2-251.7 37.5-28.9 109.9-104.6 158.8-88.6 11.9 5.6 18.8-4.4 26-9.4 22.5-14.4 57.9-24.4 81.3-8.9 13.7 6.4-30.7 40.9-36.1 47.2-41.5 38.8-86 74.1-123.8 116.4-5.1 6.9-10 14.3-15.7 20.9-3.1 3.6-5.8 6.8-4.1 13.6 3.3 10.6-5 20.9-10.6 29.6 12.1 12.4 3.3 22.7-2.8 33.4 17.4 4.8 18.2 24.6 6.4 38.6 13-1.4 26.6-1.1 36.4 7.2 9.4 7.2 17.2 16.7 28.6 21.6.8.3 1.1 1.8 1.3 2.2 11.5-17.7 24.3-34.6 34.2-53.1 32.2-57.6 76.1-107.4 105.4-166.6.5-1 3.3-2 3.7-1.6 2.2 2.3 5.5 4.8 5.8 7.6 3.6 34.5 8.3 68.8 13.7 103.1 1.7 13.1-1.1 26.3 16.4 26 10.1 0 19.6 3.1 28.6 6.5 16.1 6 33.1 9.4 48.9 16.9 9 4.3 19.5 5.3 29.4 7.5 6.6.5 7.4 9 1.3 10.8-80.7 37.4-160.5 76.7-241.8 112.9-5.6 2.5-6.7 7.7-7.8 12.2-5 20.6-14.8 38.7-27.3 55.6-28 34.5-72.4 60.6-114.2 75.2 12.4 1.4 41.2 8.9 30.9 25.9-2.8 4-.2 4.5 2.4 4.8 115.3 11.5 247.2-35.5 328.9-117.7-50.3 7.2-32.8 9.5-70.5 33.1-25.4 16-103.4 1.6-61.3-35.6 22.9-17.8 76.5-26 97.1-1.2 1 1.3 6.3.1 8.5-.7 9.7-3.3 20-3.5 30-5.1 12.8-2.1 9.7-12.3 12.7-18.7 9.3-20.1 17-41 25-60.8-53 3.2-24.9 27-67.5 34.5-15.8 3.8-32.9 5.9-47.6-2.2-6.9-3.8-22.8-.8-19.6-14.1 7.9-33.3 57.3-46.5 86.4-31.7 12.3 6.2 24.7 8.6 37 6.5 17.8-2.9 20.9-8.4 26.4-25 2.1-5.4 52.6-95.8 48.2-61.8zM780.4 565.4l72.5-13.4c-21.6-12.1-57.2-5.9-72.5 13.4zm76.8-3.4L781 576.4c28 7.9 51.8 6.7 76.2-14.4zm-55.4 92.5c-24.7-.2-48.6 8.5-75.5 10.3 26.9 15.8 54.7 6.5 75.5-10.3zm11-12.5c-28.8-13.5-64.5-9.5-88.6 15 30.3-5.5 58.8-8.9 88.6-15zm-641.6 418.3c-1.1 1.4-2.1 2.8-3 4.3 19.8-7.1 39-21.6 38.7-45.9-8.8 16.9-23.8 27.1-35.7 41.6zm-13 1.4c12.7-12.6 25.1-24.9 39.4-39.1-21.2 5-44.6 27.4-39.4 39.1zm-34.6-34c16.6-12.8 24.1-40.1 16.6-59.8-7.9 19.2-13.5 39.3-16.6 59.8zm-11 1.2c5-22.8 11.2-44.6 21.4-67.3-20.4 17.9-31.3 52.8-21.4 67.3zm12.5 130.9c-17.7-3.5-44.4 8.4-55.2 24.5 20.4-4 37-15.3 55.2-24.5zm3.5 7.5c-5.2-.6-7.9 3.9-11.9 5.8-11.7 5.8-23.2 12.1-35.9 18.8 20.5.6 36.3-9.8 47.8-24.6zM315.1 1322c.4 1.4.9 4.1 3.8 2.2 14.4-9 22-23.1 28.1-38.3 7.8-16.2-31.8 6.6-31.9 36.1zm-13.1 5.7c-10.1-17.8-31.9-15.2-48.9-15.1-1.3 0-2.6 1.3-3.9 1.9 12.2 13.5 29.9 11.1 45.7 15l7.1-1.8zM250.6 1156c-13.4 16.4-24.6 29.6-23.5 50.9l23.5-50.9zm8.3 4.9l-23.4 49.2c19.6-12.1 23.6-28.9 23.4-49.2zm40.1-86.7c-3.3-1.5-7.6-1.2-11.2-1-11.5.5-23-2.5-34.6.2-21.2 7.7-46.4 16.2-52.1 41.1-1.3 8-3.4 17.2-3.3 25.2 1.6.7 3.3.9 5 .7 24.8-6.1 49.5-11.6 68.6-30.2 8.8-8.3 18.3-15.7 27.4-23.6 3-2.6 8-4.8 8.6-7.8.9-5.6-5.5-3.3-8.4-4.6zm134.7-4.1c-31.3-7.3-61-12.3-90.7.4 29.6 9.9 59.3 13.1 90.7-.4zm154.6-3.5c-16.5-15.2-99.6-10.8-122.8 7.3 42.3 18.1 82.8 1.5 122.8-7.3zm-24.6 81.4c-58.5-63.1-89-7.8-12.7 4.9 2.9-3.1 18.5-.2 12.7-4.9zm-19 79c-23.8-10-47.5-9.3-70.5 2.3-5.6 2.8-8.8 8.6-2.9 13.6 16.2 15.8 33 7.9 53.5 4.4 2.3-5.6 34.2-12.7 19.9-20.3zm-.8 107.8c-15.3-6.8-74.9-8.4-72.3 16.4 2.2 11.3 12.1 13.5 23.6 12 19.7-2.5 34.9-12.8 49.5-24.9.6-.4 3.4-2-.8-3.5zm59.9 41.8c-6-16.4-22.8 47.4-21.4 56.6-.7 2.7 1.3 9.8 7.9 11.3 8.2 1.9 12.7-5.6 16.8-11.6 13.1-19.6 2-37.9-3.3-56.3zm48.4-32.7c8.1 20 35.7 64.9 60.7 58.8 12.6-9.2-3.3-31.3-12-38.6-12.8-12.4-27.9-20.2-45.6-22.8-.7-.2-5.2-2.7-3.1 2.6zm17.2-89.4c14.1 19.2 27.9 54.6 56.8 51.8 4.4-1 3.5-13.2 1.3-17.2-13.9-18.9-31.2-33.1-54.9-37.9-2.6-.6-5.1.5-3.2 3.3zm3.8-87.3c9.8 6.2 23.1 8.6 35 7.7 6.3-.5 12.9 1.6 18.8-2s15.6-4.7 14-13.8c-1.5-8.4-9.4-11.1-17.7-10-17.1 3.1-38.1 4.4-50.1 18.1zm89.4-163.8c-19.8 15.8-35.6 31.6-55.6 49.9 25.2-7.3 51-26 55.6-49.9zm.5-15.6c-26.1-5.6-57.8 20.8-65 54.3 22.3-18 41-39.2 65-54.3zm6.8 189.6c-11.6 16.6-22 34.1-24.2 55-3.7 17.2 8.2 30.2 21.3 13.7 13.7-20.2 13.2-47 2.9-68.7zm54.7-15.7c2.9 11.6 8.7 22.4 17.1 30s15.2 18.8 28.6 19.4c1.7-.4 3.8.8 5.1-1.8 5.6-21.7-30.3-45.9-48.7-49.5-2.9-1.1-2.8-1-2.1 1.9zm19.5-92.6c8 22.8 23.6 44.4 49.6 50 2.9.1 4.9-3.6 5.7-6.4 5.4-20.4-38.1-46.8-55.3-43.6zm23.5-108.2c-2.5 18.3 48.4 83.9 55.4 45.7.1-5.3-1.3-10.5-4.2-14.9-11.5-17.2-27.8-27.5-47.3-33.5-2.4-1.2-4.1.2-3.9 2.7zm13.7-163.3c9.9 18.8 21 32.4 33.1 51.3-3.9-22.2-10.6-40.2-30.3-51.7-.6-.4-1.9.3-2.8.4zm-14-.3c4.1 30.3 27 60.8 41.4 56.7-16.4-16.2-27.4-36.5-41.4-56.7zm-348-12.9c-12.5 2.2-25.8 2.4-37.2 7.3-5.2 2.2-12.8 1.5-18.7 3.3-11.7 1.8-9.5 19.4-7.9 29.5.7.3 1.5.3 2.2.1 8.1-6 17.8-8 27.1-11 15.7-5.1 30.8-12.1 47.3-14.6 10-2.1-3.5-17-12.8-14.6zm155.6 26.8c-.7-4.4-4.4-2.2-6.4-2-67.6 2.8-130.2 27.8-193.3 50 10.2 8.4 18.9 9 32 4.7 22.2-7.3 44.7-13.9 66.9-21.4 31.2-10.6 63.2-17.6 94.8-26.7 2.4-.7 6.7.3 6-4.6zm-81 34.2c-29.6 9.8-63.4 19.2-91.2 30.7 2.2 3.3 6.9 5.1 10.3 7.2 29.3-7.1 57.5-11.4 86.1-20.4 38.1-8.7 78.1-17.2 109.6-41.5-1.9-1.5-3.8-4.2-5.7-4.2-8.8.3-18.4-.8-26.3 2.4-27 10.9-55.1 17.5-82.8 25.8zm-212.8-55.9c-6.1 35.1-40.1 52.5-55.4 82.3-3.5 8.6-7.5 19 2.1 24.5 29.6 14.1 70.4 8.3 101.9 2.5 21.3-3.8 42.4-8.4 63.6-12.6 1.9-.4 2.9-1.9 1.3-2.5-11.4-4.1-20.1-17.5-35.2-8.8-10.9 6.2-23.7 4.7-35.7 6.4-15.6 1.8-32.1 5-47.2-.5 1.8-1.3 3.7-3.7 5.5-3.8 26.2-1.7 55.4-3.6 79.7-12.3 1.8-2-5.7-4.6-8.4-7.9-1.9-2.3-1.7-8.3-5-7-9.3 4.6-64.9 16.3-70.1 9-.7-2.6 2-3.6 4-4 14.8-2.8 29.9-4.6 44.4-8.4 7.9-2.1 23.2 1.8 18.3-16.1-.9-3.4-2.3-4.5-5-2.8-10.2 6.7-52.2 17.1-55.9 7.4-.2-.4 3.6-3.7 5.7-4 17.1-2.3 34-5.4 49.9-12.4 6.7-2.9 2.9-9.9 2.7-14.7-.1-4-3.4.1-5.2.3-7.1.6-43 12-44.2 1.9 0-5.8 32.4-6.2 39.7-10 4.6-1.3 11.2.8 14-5 2.8-7.1 7.3-14.2 7.8-21.8-7 1.5-43.3 16.7-46.1 7.4-2.8-6.5 19.8-6 24.2-10.3 19.5-7.4 28.6-2.3 36.9-27.2-28.1 7.5-56.1 15.4-84.8 20.7-3.8.9-19.1-3.5-8.2 11 3.8 4.9 5.6 11.8 4.7 18.7zm219.7 17.7c-13.8-11-41-5.8-58.5-1.9-28.5 8.8-57.7 16.1-85.1 27.8 4.1 5.5 2.1 14.5 9.3 17.8 5.9 2.8 10.7-1.4 16.2-3.7 38-17 79.3-25.9 118.1-40zm-82-40.2c-11-3.9-22.2-2.3-33.4-2.9-13.7-1.2-22.3 3.6-25.2 19.2-1.3 6.3 1.4 2.8 3.4 4 18.2-5.3 35.6-12.1 55-12.4 9.2 2.3 6.6-5.4.2-7.9zM472 752.6c-.4 1.2-.6 2.5-.8 3.8 1.4.2 2.9.9 4.3.5 10.5-3 20.9-1.7 29.6-1.8 5.5.9 11.5-.6 13.3-5.2 1.9-4.8-5.2-5.1-8.1-7.4-11-8.1-33.7-.7-38.3 10.1zm109.1-203c-19.6 10.7-41.4 15.5-61.9 23.6-6.4 2.5-20.1 1.2-8.8 15.1 9.1 11.3 21 17.4 34.4 20.6 6.7 1.6 15 5.4 20.3 3 26.5-10.8 52.1-23.8 77.8-36.7 40.4-18.4 81.1-36.3 121.5-54.7 36.6-16 69.3-35.5 107.9-48.2-18-6.2-34-12.6-50.5-16.8-7.3-1.8-13.7-10.2-22.8-4-50.2 32.9-103.7 60.4-153.2 94.3-7.4 6.6-17.8-1.2-8.5-8.4 51.8-29.8 103.8-59.6 154.2-91.6-24.2-9.7-31.4-9-46.9 2.3-24.2 17.7-45.7 39.4-71.8 55.5-.1-3.8-1.6-6.1 1.5-9.1 20.3-19.4 41.3-37.9 64.5-53.9 4.4-3.1 11.8-4.9 11.1-12.4-.9-9.7-2.7-19.3-4.1-29.4-19.3 20.8-33.9 45-54.3 64.5-1.4 1.2-3 3.8-4.7 1.6-1.9-4.2 3-9 5.1-12.5 10.6-15.6 23.5-29.5 35.3-44.1 9.2-11.5 20.2-21.1 16.1-39.1-3.5-15.3-3.3-31.4-4.8-48.2-31 62-79.5 111-112.1 171.5-6 14.8-23.3 23.7-21.5 42.6-1 10.1-17 9.3-23.8 14.5zm-5.2-35.3c-18.2 12.5-39.6 16.7-59.3 25.1-5.3 2.3-12.2 2.6-16.2 8.4 5.5 5.3-1.2 22.6 7 19.1 14.5-5.5 28.7-11.5 43.9-15.4 11.6-3.2 22.9-7.5 33.7-12.9 3.8-1.8 14.1 0 9.9-10.1-1.3-3-3.4-6.3-6.1-7.9-4.3-2.4-8.1-9.7-12.9-6.3zm-52.3-17.9c-13.2 8.8-25.2 20-41.4 23.2.3.7.5 1.8 1 2.1 3.8 1.5 4.3 5.9 6.8 8.1 2.8 2.4 2.5 9.1 10 6.1 24.1-10.5 49.5-14.6 72.1-28.6-7.9-5.5-15-11.3-24.7-11.9-7.9-1.1-18.1-2.8-23.8 1zm.9-43.1c-1.8-2.9-5.3.9-6.4 2-18.3 17.3-40.1 28.8-65.4 33 9.4 3.8 17.4 22.5 26.1 23.5 19.7-8.4 63.8-32.3 45.7-58.5zm-43.4 15.4c14.3-7.5 49.1-27.1 41.1-47.5-21 15.9-42.4 29.7-68.6 36-21.3 2.1-7.3 10.9-3.9 24.7 10.8-4.5 21.7-7.8 31.4-13.2zm48.4-82.2c-5.1-6-43.3 8.3-54.2 8.4-28.9 1.3-31.3 32.4-33.5 55-.5 4 2.4 1 3.1.8 32.3-14.5 74.6-24.7 84.6-64.2zm157.7-190.7c-65.8 50.5-127.9 108.1-172.5 178.5l10.1 1.8c1.2.3 4-3 6.4-7.2 17.3-30.8 45.1-53 70.8-76.4 34-31.5 68.2-62.5 102.3-93.7 9.7-8.1-13.7-7.3-17.1-3zm-107.6 62.4c-42.9 36.9-78.6 81.1-112.2 126.3 4.4.9 9.1-.5 12.7-1.7 7.4-3.2 18.2-.1 22.5-7.5 13.4-23.2 29.9-44.1 47.4-64.1 16.8-19.2 35.5-36.7 52.8-55.5 16.9-18.4 36.3-33.5 57.2-47.1 3.3-2.1 5.4-6.1 8.1-9.2-18-9.1-73.9 45.6-88.5 58.8zm-68.3 32.7c-28.4 28.9-50.3 63.1-76.6 93.7-1.8 2.1-1.9 5.6-2.8 8.5 2.4.6 5.6 2.5 7.2 1.5 6.9-4 14.6-5.7 20-13.8 39.1-61 91.4-112.2 143.8-161.5-7.1-.8-13.2-2-20.7 5.6-25.5 20.2-48.3 43-70.9 66zM370.8 414c4.6 1.4 7.7-2.8 11.9-3 14.7-6 30.4-8.7 40.4-24.3 34.6-54.4 76.4-101.8 124.6-145.4-6.1-.3-7.5 5.1-11.1 7.1-20.8 11.3-37.4 28.3-55.9 42.6-43.5 34.4-80.7 76-109.9 123zM251.2 644c-20.5 11.9-54.1 27-61.5 50.7-2.8 12.8 17.3 38.1 29.9 44.3 62.1 29 129.6 9.3 193.4-1.6 82-14.7 168.8-59.2 206.3-137.2-19.7 4.9-34.7 17.7-50.3 29.4-19.1 14.2-43.8 23.7-46.2 52.8-.1 1.7-1.3 5.4-4.7 5.4-2.8 0-2.5-2.8-3.5-4.5-4.2-7.2-.8-14.9 1.8-20.3 7.7-16 20.8-27.3 37.5-34.3 2.4-1 5.8-6.3 5.2-6.3-8.9.6-17.2-6.9-25.9-2.6-16.8 11.6-50.2 20.9-50.3 44.7-.1 2.3-.6 5.1-1.9 6.9-4.5 5.9-7.2.5-7.7-2.5-5.1-32.2 30.1-42.7 51.7-55.4-8.8-6.9-18.1-12.1-24.5-22-7.6-5.3-7.2-53.1-17.9-43s-24.1 16.2-37.4 22.3c-1.7.8-4.5 1-5.7-1.6-.8-1.7-1.1-3.3 1.2-4.6 5.6-3.1 10.9-7 16.7-9.6 19.8-8.7 23.3-17.5 12-30.7-1.8-2.1-2.9-2.1-4-.7-5.5 6.7-49.1 33.8-54.1 22.6-1-2.4.8-4.3 2.7-5.2 9.9-4.8 19.7-9.7 29.8-14.1 17.8-7.8 18.8-11.8 5-25-1.9-1.8-2.5-6.8-6.9-4.6-4.6 2.3-8.7 5.5-13.3 7.8-10.9 5.5-21.8 10.8-32.9 15.8-2.9 1.3-6.3.7-7.8-3-3.3-4.8 27-12.5 31.8-18.8 5.8-4.7 17.6-4.8 16.7-14.1-1.1-10.7-5.2-19.9-19.2-7.3-15 7.9-29.8 16.3-47 18.5-2.6.4-6.1.4-6.8-2.6-.4-1.9 1.6-3.8 4.5-4.7 21.9-8.3 70.8-24.3 62.2-51.6-12.6 6.1-57.4 29.6-68.8 22.7-2.1-1.2 1.4-4.8 3.7-5.8 7.6-3.3 15.9-5.4 23.2-9.3 19.8-9.8 45.8-11.7 52.5-39.2-11.4-.8-22.6 5.8-33.8 8.3-9.4 2.9-19.1 5.3-28 9.4-8.3 3.9-19.5 3.6-23.8 14-6.2 15-13.4 29.4-16.8 45.7-13.8 73.3 94.6 32.5 76.4 141-1.1 7.3-9.4 9.1-11.9 1.5-1.5-8.1-2-16.5-4.2-24.4-1.4-4.8.3-14.3-6.8-13.3-47.1 16.7-94.9 35-140.6 56.1zm-59.3 87.5c-2.6-2.8-5.1-5.5-5.9-8.8-3.8-15-11.7-11.5-20-5.3-4.7 3.5-5.6 9.6-4.8 15.2 5.9 13 24.9 7.9 35.2 3.9-1.3-1.7-2.9-3.4-4.5-5zm-71-16c1.5 5.8 4.4 10.7 6.9 16 4.3-3.8 8.8-7.4 13.5-10.6 10.9-13.6 35.4-11.7 38.8-33.9 12.2-22.1 35.2-35.9 56.7-47 11.2-5.6 8-9.1 2.4-15.1-52.9-61.2-78.9-138.2-97.5-216.2-47.5 100.4-56.4 200.5-20.8 306.8zm28.2 35.9c3.5-1.2 14.4 2.3 7.3-6.5-7.6-7.3-3.6-20.6-7.5-17-16.4 12.1-32.6 24.6-46.9 43 17.2-7.1 32.3-12.9 47.1-19.5zM855 668.7c-92.6 74.1-200.3 112-320.4 110.5 17.1 8.1 4.7 18 17.4 15.1 14.7-2.4 29-6.4 44.2 0 5.6 2.3 10.7 8.5 17.2 7 16.5-3.9 32.5-7.5 50-4.8 17.3 1.7 81.8 12.1 54.2 38.3-12.8 5.7-25.7 11.3-38.8 16.1-63.8 23.5-131 34.8-197 50-39.3 5.9-171.8 39-178.5-19.6 9.1-37.5 47.5-54.6 61.1-89.3 2.9-9.8-9.7-26.9-19.5-26-12 1.1-24 2.1-36 2.8-30.9-.8-67.7-.5-93.8-18.7-16.5-13.1-42.1 3.6-59 9.3-4.4 2-14 2.3-11.9 7.1 9.9 22.1 24.1 42.1 39.3 60.7 172.1 217.2 517.1 176.4 641.3-68.5-9.2-1.5-13.9 7.7-19.2 12.9-18.4 17.1-55.5 23.8-78 13.1-5.1-2.4-8.9-7-5.8-11.4 15.9-30 56.1-50.7 87.2-27.3 3 2.3 6.6 3.7 10.4 3.8 18.2-1.8 23.5-32.8 27.3-47.6 2.1-11.8 9-22.4 8.3-33.5zm-49.3 83.9c-25.4-12.6-52-6.9-71 18.5 22.9-8.7 46.7-14.9 71-18.5zm-59.3 24.9c13 8.4 46.7-3.7 53.2-13.3l-53.2 13.3zm155.4-108.3c12 22 23.7 43.6 35.6 65.1.8 1.5 3 2.3 4.6 3.4.3-28.4-8.9-57.7-40.2-68.5zm-4.7 31.3c4.2 17.7 14.2 42.6 35.4 44.1-10.1-24-27.8-43.5-38.8-68-2.1 8.9 1.5 16.3 3.4 23.9zM608.5 555.8c11.8-3.1 31.9-44.8 41.8-56.9 25.3-39.5 53.8-77.2 75.8-118.7-2.8-7.5-19 15.7-21 18.8-20.6 30.6-41 61.4-62.2 91.6-12.1 17.8-24 35.7-36 53.6-1.5 2.2-4.6 3.9-3.2 6.8.9 2 3.8 5.2 4.8 4.8z"/></g><g><path d="M52 1548v15l-37 37h946l-37-37v-15H52M52 52V37.7L14.3 0H0v1600h15l37-37V52m872 0V37.7L961.7 0H14.3L52 37.7V52h872m52-52h-14.3L924 37.7V1563l37 37h15V0z"/><path d="M961 1600h15V0h-14.3L924 37.7V1563l37 37H0V0H961.7M52 52V37.7L14.3 0m.7 1600l37-37V52h872m0 1496H52" fill="none" stroke="#333" stroke-width="2" stroke-linecap="square" stroke-miterlimit="3"/></g></svg>