<svg xmlns="http://www.w3.org/2000/svg" xmlns:xlink="http://www.w3.org/1999/xlink" viewBox="0 0 976 1600"><style>.st2{fill:#ff970d}.st5{fill:#333}</style><path d="M960 22v1556c0 3.3-2.7 6-6 6H22c-3.3 0-6-2.7-6-6V22c0-3.3 2.7-6 6-6h932c3.3 0 6 2.7 6 6z" fill="#fff" id="Paper_Backing"/><g id="Wikipedia_Cropped"><defs><path id="SVGID_1_" d="M960 22v1556c0 3.3-2.7 6-6 6H22c-3.3 0-6-2.7-6-6V22c0-3.3 2.7-6 6-6h932c3.3 0 6 2.7 6 6z"/></defs><clipPath id="SVGID_2_"><use xlink:href="#SVGID_1_" overflow="visible"/></clipPath><g clip-path="url(#SVGID_2_)"><path class="st2" d="M196.6 1463.2c-10 2.4-39.3-12.2-21.7-21.1 12.4 3.6 25.3 1.5 35.7-6.6 7.1-9.2-29-49.8-32-65.6-4.5-10.7-6.5-23.1-21.3-18.8-34.8.6-48.3-30.7-51.6-61-1-7.6-8.2-27.3 1.8-28.6 20.3.8 11.7 36.7 24.5 48.5 40.4 38 37-18.5 22.3-43.7-7.4-14.7 8.4-27.9 15.2-39.3 9.2-21 32.6-14.9 51.6-16.8 8.8-.9 5.5 15.5 15.9 11.8 3.2 0 5 1.8 6.5 3.2 21.1 23.8 21.3-10.9 8.2-24.5-3.5-6.6-10.4-10.2-10.7-19 5.2-29.7 33.6 26.5 43.6 32.8 8.3 11.7 0 27.2-5.9 38.8-5.9 15.9 21 33.3 24.7 50.4 9.1 18.2 15.6 37 23.1 55.6 6.2 17.6 27 3.4 39.1 21 13 8.6 31.5 66.8 3.3 47.3-18.4-20.4-47.7-18.7-70.4-25-32.7 9.4-64.2 58.6-101.9 60.6zM0 469.8c-11.1-42.9-.4-140.1-4-187.1 63.7-71 153.6-130.1 199-219.9C209.8 40 230.8 17.1 251.1-4c2.5 3.2 112.8-6.3 109.9 4-13.6 48.4-34.7 75.1-75.7 100.2-12 64.7-91.7 71.6-119.8 129.8-75.1 95.2-8.3 37.2 49.7 25.4 29.9-9.3 72.8 9.6 12.5 11.7-54 14.5-100.5 52.8-147 82.6C38 373.7 25.7 433 0 469.8zM721.7 1604c-23.8-74.3-77.4-150.2-102-226.1 5.7-19 48.4-30.1 63.5-28.4 30.4 36.4 34 91.8 65.7 129.1 3 0 5.6-2.2 6-5.2 4.5-35.5 9.5-70.2 12.9-105.2-2-60.2 30.4-55 77.2-42.7 16.4 8.4 5.2 33 4.5 48-12.3 65.8-22.9 136.7-34.8 203.1-1.2 7.8-3.6 15.7-1.4 23.3 3.5 9.4-89.4 1.7-91.6 4.1z"/><path d="M477.7 1283.4c-12-1.8-30.9-.3-39.2-9.1-.2-6.6-9.7-4.1-9.3-11-1.1-24.2-2-50.9 1.3-74.4 11.3-.7 15.1-12.8 27.4-12.3 31.1 4.6 62.8 3 93.2-4.9 11.5.7 12.3-15 22-14.8 15.5 3.4 31 12.3 46.9 11.4 28.1 4.2 14.8 45.2 20.6 64.9.1 5.8-9.9 7.4-14.5 7.6-17.3 8-36.8 8.4-56.7 10.1-11-1.5-20.8 11.3-31.7 9.7-17.7 8.4-37.5 25.5-60 22.8z" fill="#5d4e8c"/><path d="M924.2 1236c-82.7-6.6-184-11.8-242.1-74.2-47.6-62.7 58.5-71.1 94.6-88 7.7-13.4-16.6-16.1-25.7-17.8-5.6-4.1-2.9-13.3-14-10.8-30.6 3.6-35.3 9-22.5-24.3.2-24.4 97.1 18 111.6 26.9 60 67.8-219.8 45.4-91.5 115.4 69.4 29.4 146.4 38 220.4 22.4 7.6 1.4 22.7-12.6 25-3.1-.7 68.1 11.4 47.4-55.8 53.5zm-713.8-150.3c-70.8-5-140.6-17.7-210.9-26.6-8.3-3.8-.8-27.3-3.4-34.1 2.1-11.3-7.7-40.5 15.1-25.6 53.6 23 110.5 34.1 167.3 45.6 9.4 3.2 22.5.6 30.1 6.5.2 3.9 1.4 8.5 6.3 8.4 29.7.7 76.8-22.9 35.7-49.4-10.2-4.4-8.9-16.3-17.6-18.5-7.8 1.5-13.7-8.7-15.3-14 4.4-30.2 59.1-35.2 88.9-36.8 23.3 4.2 116.3 1 106.3 35.2-8.2 8.2 6.8 26.7-11 26.8-43.1-6.4-80.3-20.8-116.8-8.3-6.3 11.6 7.3 22.9 13.5 32.1 35.5 56.2-53.5 58.8-88.2 58.7z" fill="#80e3ed"/><path class="st5" d="M137.6 986.1c-44.9-48.2-61.1-132.7-61.7-199.3-.7-89.2 40-174.8 73.4-256.8 109.6-258.7-53.4-234.1 116.5-267.8 4.5-14.4-23.1-6.1-32.1-12.4-11 3.4-22.6 4.9-34 9.1-4.9-1.3-8.9-1.4-12.6 2.6-9.6 1.1-68.4 40.3-49.4 11.4 21-29.4 37.2-62 77-66.5 4-.4 7.9 5 11.7.5 9.8-8.8 25.8-5.3 38.9-7.6 5.1 3 8.6 2.3 13.5-.4 11.6.1 23.4-.9 33.2 4.5 103.4 1.9 153.7 116 159.3 204.7 4.5 28.8-4.2 48.5-27.6 18-6.7-5.4-25.9-42.6-32.3-20.8-4.5 139.8-14.7 281.3-53 416.9-6.3 10.8-6.5 32.3-15.5 35.5-12.8 1-19.4-10-24.5-21-26.6-40.4-38-92.4-43-140.4-5.2-124.8-50.9 38.5-64.7 73.7-11.1 43.6-26.7 97.6-38.2 140.1-10.5 23.1-13.4 66.6-34.9 76zm799.2-50.7c-80.2-81.4-75.8-340.5-114-461.3-8-14-28.8 18.6-39 18.6-5.3 2.6-11.8.8-14 7.7-13 12.7-30.9 13.3-43.6 23.1-20.7 11.3-27.6 4.4-39.3 16.2-10.7 2.5-22.5 11.6-33.6 8.3-11.3 7.5-24.9 12-38.1 11-11-1.3-26.2 13.7-38.9 5.9-15.6-7.4-13.4 17.3-60.2 4.7-14.4 9-34.3 1.2-50.9 4-13.6-13.8 34.1-29.4 47.4-27.7 40.2 10 29.6-8.4 64.2-5.9 11.9 7.8 22-12.4 35.8-5.9 8.6 3.3 13.9-10.8 23.5-8.5 10.2 3.5 11.2-3.6 20.8-6.9 6-2.2 10.4-4.5 16.4-2.8 8.8-4.1 15.7-15 26.4-12.2 9.8-4.7 17.9-18.9 30.6-18.6 3.5.5 7.3-1.5 7.6-5.3 14.3-26.7 48.3-12.6 72.1-15.4 24.8-1.2-27.7-100.9-31.2-114.5-1-7.6-6.8-23-14.8-12.4-39.7 66.7-43.1 87.3-103.4 24.6-28.3-25.3-52.3-58.1-76.2-87.3-39.5-60.4-29.9-21.9-44 21.5-5.6 9.7-2.5 25.3-18.4 22.9-14.8-9-34.9-30.1-48.1-45-52.3-56.3-92.6-125.4-123.7-195.5-23-28.5 17-55.7 2.8-78.8 60.3-9.6 317-1.5 376.6-4 23.7 5.7 72.3-13 89.5 16C886 72.7 936 153.3 965.5 239.1c23.7 6.8 12.5 505.2 14.5 533-6.6 32-18.4 89.5-27.5 127.1-2.9 15.9-2.3 30-15.7 36.2z"/><path d="M505.8 1313c-13.1-2.9-42-3-33.1-23.6 5-4.9 14.1-2.4 20-.8 7.1-3.3 15-6.8 22.5-8.6 15.4-2.3 8.5 36.9-9.4 33zm80.2-30c-15.2 1.6-23.4-28.7-7.7-29.8 14 4.4 51.8-18.3 46.4 10.5-3.1 8.3-13.9 9.4-21 10.1-6.7 1.4-10.8 10.8-17.7 9.2zm-64.8-736.3c-51.4 2.4 38.1-46.9 55.4-46.1 9.4 6 19.1-3.7 28.9 2.5 4.8.4 6.8-7 11.6-5.8 6.1 3.7 10.3-5.3 16.9-3 6.2-1.1 7.8-10 15.7-5.8 5.1-1 7.7-6.4 13.9-5.3 6.7-.7 6.8-10.4 14.8-10.1 7.4.5 3.7-10 9.9-10.4h55.3c15.6 13.1-25.2 12.1-25 22-5.9 16.4-24 7-30.1 19.3l-11.7 5.5c-3.3.8-7.4-1.3-9.6 2.6-7.5 6.5-19 5.3-27.1 8.7-3.3 3.3-11 5.4-15.8 6.8-3.6-.8-6.5-3-9.6.2-6.5 7.4-17.5 2-24.9 4.4a30.36 30.36 0 01-35.9 2.2c-11.3 5.4-21.1 13.5-32.7 12.3z" fill="#ffeb5c"/><path class="st5" d="M922.4 1604c-5.3-5.2-115.5 8.5-117.2-5.1.1-4.8 7.7-3.9 7.4-9.3-.3-8.8 3.8-16.3 5-24 8.4-55.7 17.1-113.3 26.3-164.9-2.1-29.1 40.2-15 58-17.6 24.7 4.4 57.9-1 78 9.9-3.7 4 7.2 211.7-4 210.9l-53.5.1zm-568.2 0c-6.2-7-345 13.8-329.5-7.9 141.9-33 279.6-91 425.2-130.9 59.8-16.6 118-37.6 178.8-50.5 10.9 1.7 17.2 28.6 24 38.1 23.6 47.9 41 102.7 73 145.3 4.4 16.6-367.4.5-371.5 5.9zm395.6-124.5c-5 0-18-33.5-18.6-37.1.8-7.4-11.4-11.9-10.4-19.7-22.3-34.3 12.8-27 33-33.3 22.5-4.4 1.8 31.4 7 41.5-6.2 13-.3 39.2-11 48.6z"/><path d="M435.5 1184.9c-163.4-64.5-144-36.2-52.3-123.7 16.5-23.2 24.3-9.6 25.9-43.3 5.9-46.4 8.4-93.1 7.6-139.8.7-15.5-5-50 10.4-69.2 3 .2 5.7-1.9 6.3-4.9 4.2-17.4 28.6-30.3 41.1-41.8 17.1-24.3 20.3-7.6 41.2-2.8 15.2 7.4 25.2-25.2 38.1-15.5 6.5.9 6.2 8.5 12.4 9.1 14.7 1.5 27.3 14.9 39.5 21 30.8 6.3 15.7 73.1 43.8 52.4 2.1-.9 3.5-.8 5.3-1 7.6 5.5 12.5-3.2 19.8-4.2 4.3 3.4 9.6-.4 13.3 2.8 6.9 5.6 4.2 26.3 16.8 22.5 30.8-13.7 13.2 183.7.7 196.3-6 36.4-55.2-33-65.5-43.8-30-17.9 3.6 144.8 5 161.9-23 11.3-59.8-13.2-79.7-1.1-.5 6.6-9.8 9.4-16.3 6.5-30.8 5.2-64.3 8.8-94.8 4.5-8.5 1.3-9.1 15.5-18.6 14.1z" fill="#d81e1e"/><path d="M976 1386.2c-39-9.5-79.8-11.7-120-11.3-1.3 0-3.9 1-3.4-1.9 1.1-7.1 1.4-14.6 3.9-21.4 13-31.1-23.7-32.9-44.4-37.5-10.9-2.4-22.3-1.8-32.8 1.9-11.1 3.8-9.2 14.6-11.3 24.1-3.4 7.1-1.5 44-9.9 40.7-11-1.6-21.3 2.9-32 3.5-5.7.3-12.9 5.7-16.6 1.2-5.6-6.8-9.3-15.4-12.9-23.8-2.5-5.9-1.4-15.4-10.8-16.9-16.1-4.8-73.3 14-72.3 32.2.4 9.5 3.9 19.4 11.1 26.6-206.3 54.9-404.8 128.4-608.2 192.6-1.4.5-4.4.8-3.2 3.3.7 1.2 3.2 1.4 4.6 1.4 40.5-8.6 80.5-20.1 122.3-22 50.3-3.5 100.5-9.1 148.9-23.8 83.8-19.9 166.5-44.2 251.2-60.3 33.4-6.8 66.5-14.9 99.7-22.8 5.5-1.2 13.6-7 16.5-1.2 10.9 22.1 21.2 44.8 30 67.9-68.7-12-140-10.8-207.4 8.8-44.4 15.3-93.4 25.8-132.6 51.2 2.6 1.5 4.9 2.8 7.7 1.3 30.3-13.2 61.5-23.6 93-33.4 73.4-22.6 152.5-36.8 228.6-21.2 6.5 1.9 15.4-1.4 19.7 9.1 5.8 14.2 14.2 27.3 21.3 41 1.2 2.3 3 2.1 4.9 2.6 2-10.6-4.3-20-8.7-29.1-28.5-59.7-57.4-119.1-86.9-178.3-.8-1.6-2.9-4.9-.6-5.2 3.6-.5 9.2-2.9 11.3 1.2 15 30.6 29.5 61.4 44.2 92.1 18.5 37.7 36.6 75.5 54.4 113.6 1.3 2.6 4 4.2 6.9 4.2 9.9 2.1-24.9-56.8-26.5-63.6-24.9-49.6-48.5-99.9-73.3-149.4 4.9-1.2 11.3-7.8 14.5-.9 9.4 19.9 18.7 39.8 27.9 59.8 23 49.8 45.4 99.8 68.4 149.5.7 2 3.5 3.3 5.4 4.9 1.1-2.2 5.7-2.4 4-5.9-32.4-71.1-67.3-141-100-212-.5-1.1-3.3-3.5-.3-3.4 3.6.1 7.1-6.7 9.8-1.4 36.6 71.7 65.4 147.3 104.3 217.8 4.4 12.4 13 5 6.6-4.2-34.7-72.5-70.2-144.7-104.9-217.3-2.1-4.7 5.8-5.3 8.4-8.4.7-.8 1.5-1.8 2.4.3 32.4 76.1 65.9 152 106.5 224 2.8 5 6.8 12.6 13.8 12.6 9 .3 6.5-9.4 8.3-15.2 1.3-3.3-1.8-11.1 4.9-9.9 10.5 2 20.7 6.1 31 9.2 21 6.2 42 12.2 62.8 18.7 2.4.8 5.1 2.4 6.3.3.3-8.6-35.3-16.2-43.2-20-74.4-24.6-59.2 3.8-48.4-75.3 3-18.7 5-37.7 8.5-56.3.6-3.2-1-10.9 4.5-10.3 23.6 2.6 47.2 4.6 70 12.6 16.8 5.9 34.5 9.5 51.9 13.9 3.2.9 8.3 1.5 8.5-2.8 0-2.5-3.5-4.1-5.8-4.8-24.3-7-47.2-17.3-72-21.9-16.2-3.5-32.8-5.9-49.6-4.3-2 .2-4.3.5-3.8-2.8 1.3-9.1 1.4-18.6 4.5-27.3 1.9-5.3-2-15.5 9-15.7 15.1-.3 30.2-.9 45.2 0 23.6 1.4 47.1 3.9 70.7 5.9 5.2 1.6 9-3.2 3.5-6.8zm-346.6 32.5c1.3-.2 3.7 3.9 5 6.3 5 9.9 9.5 20 14.8 29.8 5.4 10-6.1 7.3-7.3 7.5-41.7 10.4-84 18.1-125.9 27.9-96.7 19.8-190.8 50.4-287.6 69.5-21.3 4.2-43 3.7-64.2 8.5-11 2.5-22.9 4.7-37.3 1.8 92.3-25.6 180.6-57.2 271.8-85.6 77-21.3 152.8-48.1 230.7-65.7zm49-60.4c-14.4 9.4-29.7 16.7-47.1 18.4-2.6.3-6.5 5.2-7.8.2-1-3.7 4.4-4.9 7.2-6.7 17.8-10.8 35.7-18.5 51.9-16.6-1.3 1.5-2.5 3.6-4.2 4.7zm100.9-31.6c5.7-8.4 70.8-3.1 69.2 8.3-6.5 9.7-65.7.2-69.2-8.3zm-24.5 114.2c-1.6 11.2-3.2 22.3-5 34.6l-14.7-32c3.1.1 20.8-7.2 19.7-2.6zm-.1-8.1c-5.9-3.3-11.6-.7-17.5 0-14.6 1.6-10.3-13.1-15.8-19.5-10-11.7-.8-15.1 9.2-16 47.8-6.1 24-12.7 26.2 33.8 0 .6-1.8 1.9-2.1 1.7zm9.2 65.5c-.2.9-.6 1.7-1.1 2.4-2.7-2.2-7.3-10.7-5.8-13.5 6.9-51.1 12.8-99.6 18.1-150.2.3-.8.8-1.4 1.5-1.8 3.6 1.9 10.4 4.3 10.3 5.9-1.7 16.5-4.4 32.9-7 49.4-5.5 35.9-12.4 71.7-16 107.8zm14.2 36.1c-13.1-18.9-4.9-38.4-1.3-58.1 3-28.5 8.4-56.9 11.7-85.3 1-14.6 3.5-28.9 5.8-43.3.8-4.8 3.4-5.5 7.5-4.4 5.4 1.4 6.6 5.7 4.7 9.5-13.1 59.6-17.3 121.5-28.4 181.6zm14.8 29.5c-12.2-20.6-2.7-39.6-1.2-58.3 1.4-17.1 5.8-33.9 7.1-51 3.7-34.3 12-67.6 14.3-102 .3-2.6-1-6.6 2.2-7.3 8.5-.7 13.8-.9 11.1 10.1-2.3 13.7-5.1 27.2-7.4 40.9-9.5 56.6-17.6 110.4-26.1 167.6zm46.3-154c-11.9 59.5-20 119.4-30.3 179.2-13.5-11.5-7.1-25-5.3-37.7 2.9-20.7 6.2-41.4 9.5-62.1 4.6-29 10-57.9 14-87 1.9-13.1.8-26.5 5.9-39.1-2.3-17-.2-17.8 14.8-19.7 1.9-.3 2.3 1.4 1.6 5.5-3.5 20.4-6.5 40.8-10.2 60.9zm138.6-199c.5 3.1-2.4 3-4.4 3.3-10.5 1.6-20.1 4-32.4 4.5-53.1.7-106.4-2.8-156.8-20.8-1.7-.6-4.6-2.4-4.5-2.7.9-2.3 3.2-2.7 5.4-2.3 52 11.9 104.8 17.1 158.1 18.3 6.2 1.8 34.3-5.7 34.6-.3zM640.2 82.1c-.4-2.3-1.7-4.9-1.2-7 3.1-20.9 13.3-51.9 7-71.7-2-2.8-.2-4.8 1.8-5.9 2.2-1.6 3.8.9 4.9 2.5 7 11.1 17.1 16.6 29.8 19.2 18.4 3.7 37 6.1 55.7 7 2.1 1 5.7 1.3 5.4 3.4-4.3 8.9-41.5-.5-51.9-.8 24.5 25.6 35.7 28 69.2 34.1 4.8 1.3 13.2 1.6 14.6 7.1-1.4 5.9-39.8-5.3-45.8-6.7 20.7 35.3 56.2 35.1 90.7 49.7 1.3.4 3.1 2.5 2.9 3.2-.6 1.9-2.6.9-4.2 1-20.3 1.8-36.6-11.7-55.6-14.3 15 36.5 52.4 44.6 84.1 60.2 1.4.7 3.2 3.4 2.8 4.5-.9 2.6-3.2.9-5 .5-18.7-3.5-34.7-13.4-51.5-21.4 9.4 39 52.4 39.2 78.1 59.5-17.3 6.6-57.3-27.3-53-14 11.7 31.7 21.8 39.4 51.3 54.4 9.4 6.8 28.2 9.9 33.3 19.6-3.7 0-7.9 1.2-11-.2-18.3-7.2-35.2-17.5-50.8-29 9.6 43.5 48.3 69 83.2 91.8 3.8 2.8 9.7 5 11.2 9.7-14.3 6-67.8-40.8-76.4-55.1 7.8 57.9 39.8 79.8 80.6 114.4.8.8 3.5 2 .9 3.8-13.1 6-55.5-42.6-63.6-54.1-.5-.6-1.7-.8-2.5-1.2-1.7 47 42.4 75.2 74.3 102.6 2 1.9 6.2 3.5 4.2 7-24.4-4-54.7-39.5-72.2-61.9 3.7 17.5 1.3 32.7 12.1 45 17.3 21.7 34.5 44.1 59.2 58 3 1.6 7.8 3.7 5.7 8-2.5 5-5.5-.4-7.7-1.4-26.2-11.9-42.3-37.8-61.3-58.4-5.7 54.4 40.5 68.1 67.9 102.7-16.3-.3-33.2-22.1-46-31.5-7-5.9-12-14.2-18.6-22.3 4.2 13.5-1.3 27.1 7.8 39.3 15.2 20.6 30.1 41.3 48.4 59.3 3.3 3.2 12.9 4.2 8 10.5-2.9 3.7-9.3-2.9-13.3-6.2-19.6-15-32.8-36.1-46.7-55.8-2.6.3-.3 1.9-.4 3-3.6 50.3 46 77.9 73.2 112-1.7 15.4-66.8-59.1-69.1-66.5-.3 21.3.7 40.5 14.3 57 9.3 11.3 17.4 23.6 26.7 35.1 9 12.3 22.5 20.3 31.6 31.6-.6 4.1-5 1.8-8 0-27.2-16.5-42.6-41.9-60.7-67.7 1.8 19.2.3 37.2 13.9 52.3 12.5 13.8 21.4 30.8 35.9 43 5.7 5.1 12.4 10.6 17.4 16-8.8 12.7-50-39.5-54.7-48.7-2.3-3.8-5-7.3-8.6-12.5 2.7 58.6 11.4 64.9 47.1 106.9-4 1.7-8.5 0-10.2-2.3-8.7-12.1-23.1-19.8-28.2-35 3.2 14.9-.3 30.7 7.7 45 9 16.2 20.4 30.3 33.4 43.3 1.7 1.5 3.5 3.6 1.8 5.7-.5.9-1.7 1.3-2.6.8-.2-.1-.3-.2-.5-.3-14.7-7.2-22.2-20.8-31.7-34.3-.8 39.1 22.4 59.5 42.7 88.2-17.4-.2-26.6-26.1-36.9-40.3 4.5 21.4 7 34.5 11.7 52.5 1.4 9.8 9.8 26.6 6.6 35.1-13.4-8.5-15.5-54.1-23.2-70.8-1 9.3-4.1 57.1-14.4 56.7-.2-1.3-.8-2.7-.5-3.9 5.1-22.6 7-45.4 8.2-68.5.6-10.8 3-21.2-.7-31.8-1.2-3.4 1.5-7.8-2.8-10.4-1 3.6-2.7 7.1-3.1 10.7-2.1 20-9.2 38.5-16 57.2-.9 2.5-2.7 5.2-4.9 4.5-6-.3 8.7-33.3 9.1-39.2 7.4-30.8 13.8-64.3 6.7-95.6-7.1 25-12.8 51.7-24 75.6-1.8 4.7-2.5 12.5-9.1 12.6 3.4-21.3 14.3-41 18.5-62.3 7.8-31.6 14.7-62.2 6.9-94.7-5.8 24.7-13 48.6-22.5 72-3.5 8.7-7.3 17.3-10.7 26.1-1.1 2.8-3.7 1.4-5.1 2.8-.3-1.5-1.3-3.2-.9-4.4 7.4-21 15.2-41.9 22.5-62.9 4.7-13.5 5.3-28.2 9.9-41.5 4.3-12.7 3-24.8 3.3-37.3.1-2 .3-4.8-2.3-4.8-2.8 0-.9 2.9-1.5 4.4-11.2 31.4-23.3 62.3-38.1 92.1-1.4 3-2.8 8.3-6.9 6.8-3.7-1.4-.1-5.3.9-7.8 5.5-13.5 11.4-26.9 16.9-40.5 14.3-37.3 32.2-78.6 24.4-118.7-13.2 30.2-29 57.7-48.8 83.5-1.1 1.6-2.2 3.8-4.4 2.5-2.6-1.6-.8-4.4.2-5.7 15-20.5 26.6-43.2 38.7-65.5 11.3-20.8 17.3-43 10-65.4-9.1 19.1-21.3 40.3-35.2 57.3-6 6-7.9 17.2-18.1 17.5.1-1.1-.1-2.4.5-3.3 5.3-7.7 11-15.2 16.3-23 12-16.2 18.8-35.8 29.9-52.5 7.9-11.6 4.7-23.6 5.7-35.5.2-2.6-.7-4.5-3-5.4-13.1 28.2-27.4 56.2-47.6 80.1-3.9 7.9-9.3.4-4.9-4.2 14.2-15.9 25.1-34.8 34.4-53.7 9.7-19.8 25-42.5 14.4-66.2-5.4 22.3-15.7 40.9-27.5 58.7-1.1 1.7-1.8 5.6-4.5 4-5-6.2 15.3-34 17.6-43.8 9.5-23.3 16-48.1 8.1-72.5-2.7 8-21 61.2-32.3 54.3-1.3-1.5-1-3.8.8-6.1 18.1-27.5 34.4-64.3 23.6-97.2-2.4 17.1-26.1 76.8-42.6 80.6.2-1.6-.1-3.6.7-4.9 14.1-22 27.3-45.1 33.3-70.2 4.6-19.5 7.3-41.5-5.9-61-1.4 31.1-12.4 60.8-30.1 86.2-.7 1-2.5 1.2-3.8 1.8 5.9-20.3 16.9-39.2 22.7-59.5 3.8-12.1 3.6-25.5 5.8-38.3 2.8-15.9-9.4-27.4-12-43.4-2.9 26.2-3.3 63.2-22.6 82-.1-2-1-4.2-.3-5.8 10.3-26.3 13.8-53.4 14.6-81.6.3-11.3-6.8-17.3-9.5-26.1-1.4-4.5-2-9.6-7.5-13.7 3.4 13.7 3.5 27.9.3 41.6-2.7 7.7-2.9 41.6-14.3 39.4-2.2-.8-1.9-2.9-1.3-4.7 11.7-38.5 17.7-83.4-8.3-117.9 0 6.1-.2 10.2 0 14.2 1.3 8.2-3.5 65.3-13.4 62.9-4.3-2.3-1.1-6.9-.4-9.6 6-22.6 5.4-45.2 4.6-68.4-.6-17.3-11.9-26-19-41.6 2.7 15.6 9 69.6-1.2 77.2-6.8-1.3.4-40.3-2.7-49.7-2.6-30.1-5.3-45.8-29.5-66.1.4 12.7 11.6 69.9.8 74-1.2-2-3.3-4.1-3.3-6 .7-19.9-2.3-39.5-4.2-59.2-1.8-19.1-7.6-26.7-32-42.4 5 9.7 19 69.2 9.1 72.9-5.5 0-5-6.7-5.1-11.6-1.8-24.6-4.4-70.1-30-81-3-1.6-1.7 1.9-1.7 3-1.7 14.5-3.4 55.8-14.9 63.6zM729.6 0c-1.1-4.3 2.4-2.9 5-1.6 2.2.5 4.3 1.1 6.5 1.6 31 8.9 63 18.6 95.2 10.2 1.7-.3 4-1.6 4.5 1.1-1.8 6.6-13 6.5-18.5 8.4-14.2 3.5-28.6-1.4-43 .3 23.1 27.2 60 28.1 92.4 31.5 4.7.5 11.1 1.7 16-2.1.4-.3 1.8.2 2.5.7 2.7 16.7-59.4 4.2-69.3 1.5-2.1-.4-6-.4-6.3.4-.8 2.5 2.5 2.7 3.8 4.1 4.5 4.8 8.9 9.6 13.1 14.6 8.6 10.5 21.5 12.2 33.2 16.2 18.5 7.4 38 7.4 57 9.2-13.1 14.1-56.1-2.6-73-6.5 18.1 36.5 56.5 57.8 96 63.8 1 0 2.8 3.4 2.5 3.8-5.6 8.2-14.6.9-21.7-.9-9.4-3.4-18.8-6.9-28.1-10.5-4.1-1-7.7-5.1-12-4.2 9.2 24.9 36.3 37.5 57.7 50.6 8.3 4.6 16.7 9.1 26.1 11.3 1 .2 1.5 2.6 2.2 4-16.7 4.5-49.1-19.4-64.8-29.9 26.6 49.6 29.9 45.4 72.5 74.4-2.6 3.4-6.2 4-9.4 1-8.9-5.8-17.8-11.6-26.7-17.2-1.9-1-4.5-.1-3.5 2.5 9.4 22.2 31.5 58.3 29.6 81.5-8.3-17.5-16.5-35-25.3-53.7-1.8 10-1.8 36.8-10.2 40.8-2.8-.2-2.7-3-2.5-5.2 8.9-46.1 3.2-63.2-21.2-102 1.4 8.7 9 49.6-2.6 50.5-4.3-.2-2.2-6.5-2.1-10 .2-18.1-2.2-35.8-5.3-53.6-2.4-13.7-13-21.7-18-33.5 2.1 5.2 3.2 46.6-5.2 43.6-1.8-1.4-3.2-4.5-2.8-6.6 3.1-17.6 0-34.5-4-51.7-3.1-13.4-13.6-20.6-19.6-32.2 1 10.6 2.3 20.1 2.8 29.7.2 3.8 2.3 10.1-3 10.6-4.9.5-4.3-6.8-4.5-9.6-.8-15.3-3.7-30.5-8.6-45-4-11.3-14.9-17.2-22-28.7 2.1 11.3 3.6 20.5 5.7 29.6.8 3.7.6 7-3.1 8s-3-3.1-3.6-5.1c-9.5-44.9-8.9-45.6-46-74.7 3.3 12.6 9.6 21.3 9.2 31.9-.1 2.7.2 5.7-3.4 6.2-1.6.2-2.3-.2-2.6-.9-3-15-9.8-30.5-17-43.9-3.9-7.6-19.1-7.2-24.6-14.3zM494.1 75c3.5 1.3 6.1-2.4 6.8-5.7 2.5-11.2 6.4-22.1 6.3-33.9 0-2 1.7-4.1 2.6-6.2 11.1 8.9 12 19.5 9.1 32-2.6 15.1-5.3 30.2-8.4 45.2-.5 2.6-4.6 5-.6 7.3 13.2 4.2 15.9-53.5 18.3-63.9 1.6 9.7 14.3 12.2 11.6 23.6-3.1 13-5.2 26.3-6.3 39.6-1 12.8-7.3 24.1-8.4 36.7-.2 1.7-1.8 4.5 1.5 5.4 7.6 3.9 12.3-30.7 14.4-36.4 3.2-13.2 3.2-27.5 7.1-40.4.8.6 1.9 1.1 2.2 1.8 3.7 9.7 11.5 16.5 9.5 30-4.2 28.2-11.2 55.2-22.2 81.3-1.2 2.8-.5 6.9.7 9.9 4.7 8.6 18.8-40.3 20.7-44.4 4.7-15.9 7.6-32.3 8.6-48.9 15.5 21 14.1 32.7 8.9 56.1-6.5 27.6-8.5 57-20.1 83-1.5 2.7-5.8 7.3-1.3 10.1 14.6 5.8 31.7-102.5 31.1-116 4.3 7.4 10.2 14.9 10.4 22.5 1.9 44.1-3.6 87.8-13.4 130.8.2 3 5.1 4.4 6.1.5 10.7-41 16-80.9 13.8-123.9 14.2 38.1 20.6 23.9 16 66.9.1 28.8-6 56.6-13.8 83.9-.9 3.2-.9 6.7 2.6 8.6 5 2.4 7.1-18 8.9-21.6 7.7-29.5 8.4-55.8 11.1-87.1 3.1 16.4 14.2 26.4 12.7 43.1-1.5 16.3-2.6 33.3-1.8 50-2.3 14.7-7.3 29.7-9.5 44.6-.3 1.5 1.8 3.4 2.8 5.1 17-28.7 14.9-66 15.1-98.7 5.4 11.2 14.4 22.3 15.4 34.4.7 23-.6 46-1.7 69 1 6.6-8.3 29.8-1.8 31.9 12.3 4.7 9.3-71.6 12.5-81.8 20.9 29.2 14.8 65.9 13.5 99.4-.1 1.5-.8 3.9 1.7 3.9 2.3.1 4.2-1.6 4.3-3.9 3.3-15.8 4.2-32 2.8-48 3.8 8.3 8.1 16.1 11.7 24.4 4.3 9.5 8.2 19.1 11.8 28.9.9 2.4 6.2 5.7 7.6 5 3.2-1.6.1-4.7-1-7-4.2-7.8-6.5-16.4-10-24.6-36.1-91-76.5-180-122.7-266.6 4.7 0 9.1-.1 13.6 0 5.3.2 11.4-4 15.7 1.6 10.9 13.9 17 29.8 20.6 47 .8 3.8.7 9.7 5 10.7 2.3.5 3.4-5 2.8-8.3-2.5-13.8-4.7-27.6-13-39.6-2.4-3.4-3.3-7.8-4.8-11.7 4.3-.8 7 3.7 10.4 3.8 19 .8 21.9 15.1 25.4 29.2 4.1 16 1.8 32.2 2 48.4 0 1.7-1.1 4.7 2 4.6 10.4-1.2 6.3-55.4 2.7-63.6 6.6 0 7.2 6.8 10.9 10.1 15.9 12 12.7 20.1 15 36.7 3.3 18.3.8 36.2-1.1 54.1-.3 3-2.7 5.7 1.5 6.8 10.8 1.2 10.3-57.2 7.5-65.6 6.5 10.2 15.3 19.9 15.4 32.8-.3 9.6 3.5 18.8 3.5 28 1.8 7.2-6.7 52.3-1.6 50.1 7.1-2.9 4-13.4 6.3-19.4 3.3-13 1.1-26.4 2.2-39.6 5 1.1 2.9 5.8 4.7 8.4 10.5 15.8 11.7 34.1 12.6 52.1.7 15.1-1 30.4-1.6 45.6-.2 1.8-.2 3.7 2.2 3.6 5.9-.1 8-38.9 8.2-46.3 6.6 14.1 13.3 28.3 19.6 41.9.4.9-.4 3 1.6 2.1 8.6-4.5-18.7-56.3-21.8-68.8 6.5 6 34.5 35.5 40 27 .4-5.9-9-8.2-12.5-12.3-21.9-17-42.3-38.9-46.8-67.4 9.3 5 28.5 23 37.3 21.9-.5-1.8-.4-4.4-1.6-5.3-9.1-7.2-18.2-14.5-27.9-20.8-18.6-12.3-28.7-30.8-38.3-49.9 11.6 7 23.3 13.9 34.9 21 2.7 1.6 4.6-.3 6.7-1-.5-1.3-.7-3-1.6-3.7-26.9-17.9-54.7-34.9-77.7-57.6 9.3-4.8 20.3.4 28.5-7.4-.8-1.1-1.5-3.2-2.4-3.2-4.8-.1-9.9-.5-14.5.6-19 4.6-36.3-1.8-55.7-7.8 6.3-.8 40.6-19.7 25.9-21.6-4.7 0-6.1 4.9-9.8 6.5-15.5 5.6-40.3 23.1-56 17.9-6.7-5.4-10-15.1-16-25 15.4 6.8 46.3 9.7 57.2-1.3-1.2-.7-2.7-2.2-3.7-1.9-12.2 3-24.4 3-36.7 1.1-7.1-1.1-16.5 0-20.6-4.2-7.3-7.3-11-18.1-19.6-27.1 16 4.3 58.9 20.8 69.3 11.2-25.3-7.8-55.1-10.5-77.8-24.1-7.9-6.5-12.7-17-21.2-23.9-.7-.6-.8-1.9-1.2-3 17.6 7.8 35.5 16.9 54.6 21.8 8.4 1.9 34.4 8.5 41 5-13.2-7.7-29-8.2-42.9-13.1-22.4-6.7-43-17.2-64.2-27-1.7 0-3.1.8-3.3 3.5-1.4 17.5-5.1 34.4-9.2 51.3-.5 2.9-3 7.9 1.1 9.2zm214.7 103.7l-.2-.3.2.3zM512.4 698.6c-2-8.3 16-10.8 22-6.3-6.5 3.1-16.9 15-22 6.3zm-.5 42c.5 2.2-2 2.5-4 2.4-6.9 1.1-1-16 4-2.4zm-13.5-18.4c-.4-4.8.4-12.6 6.1-10.7-3.8 14 5.4 8.8 5.8 14.2-.8 7.5-13.7.9-11.9-3.5zM105.2 1081c46.6 5.5 231.1 41.9 204.6-48.8-5.4-9.4-11.5-18.4-17.5-27.4-2.4-3.6-.1-5.2 2.5-5.6 12.8-2 25.8-2.2 38.7-.4 20.4 1.8 40.4 5 60.7 7 4.7.1 9.6 1.1 9.3 9.5-3.3 33.5-34.9 51.7-56.1 73.6-9.9 9.8-20.8 18.2-31.8 26.6-5 5.4-15.8 7-16.9 14.8-.3 6.1 6.5 8.3 11.2 10.8 34.1 17.2 66.9 37.2 104.2 46.1 3.1 1 8.3.2 8.6 4.2.7 10.3 2.3 21.2-.3 30.9-4.2 16.1-1.6 31.9-.9 47.7.2 4-.3 11.5 6.3 13 10.3 2.5 20.8 5.1 31.4 5.7 7.8.5 10.5 2.4 10 10.3-.6 10.4 8.9 18 19.2 15.7 1.8-.4 3-.5 3.7.8 7.5 13.2 16.3 5.3 24.1 1 18.9-9.9 5.9-34.1 13.2-39.8 12.5-5.6 24.6-12 37.5-18.4 1.1 10.9-3.3 24.1 8.5 30.6 17.5 8.9 28.5-7.4 42.4-12.4 6.3-2.3 8.5-7.8 10.2-13.7 2.5-8.7 3.8-18.3 15-20.6 3.2-10.4-.5-21 0-31.5 2.3-12.3-4.2-23.7-4.2-35.8 17.5 2 12.1-9 10.4-19.2-7.5-48.4-18.8-97.2-15.5-146.4 19.2 17.7 35 43.7 62.4 49.2 21.7 1 43.9-1.2 65.4 4.6 8.9 1.7 14.3 7.6 2.3 8.1-26.3 8.3-52 18.6-77.2 29.8-34.2 13.1-26.3 52.4-3.5 71.8 59.1 57 217.4 83.8 293.1 58.6.2-6.9-8-2.8-12.5-1-18.2-.1-36.3 2.8-54.6.6-76.8-7.7-167.3-12.3-223.7-71.8-9.9-12.1-17.4-27-6.1-40.3 15-16.9 61.3-29.3 84.3-36.3 7.3-1.6 17.9-3 19.1-12 .5-14.1-19.7-16.7-30.7-18.6 20.3.3 39.3 8.1 58.7 11.1-9.9-14.1-30.3-15.7-46.1-19.1-17.8-3.8-35.2-3.3-53 .4 1.6-6.3 2.8-13.4 6.1-18.8 2.2-3.2-.9-11 5.6-9.7 13.6 2.8 26.7 8 40.3 10.9 16.8 4.3 86.1 22.3 64.2 47.4-22.7 25.8-144.4 22.6-127.7 66.8 18.4 26.8 52.4 33 81.5 42.3 10.1 2.6 19.9 6.3 30.2 8.4 15 2.8 31 1.8 46 4 36.7 3.3 73.7.4 109.3-8.8 10.3-1.1 15-11.4.6-7.9-83.4 12.2-172.3 9.6-247.3-33.1-10.7-6.5-12-18.5-2.5-22.4 14.1-5.6 28.5-10.4 43.2-14.4 27.7-6.1 110.2-22.1 73.2-62.9-30.8-23.3-70.8-32-108.4-36.6-1.8-.5-3-1.5-3-3.6-1.2-32 4.5-64.9.9-96.4 4.6-21.3.2-41.9-5.2-62.2-1.6-6.1.9-7.6 4.5-10.9.8 5.8 1.3 17.5 9.2 15.9 6-1 5.8-7.3 3.3-12.9-7.9-18.1 15.2-12.3 12.8-30.5-.2-10.8-10.5-16.5-11.6-26.5-.4-3.3-1.8-5-5-5.7-4.7-1.1-12.8-1.3-13.6-3.8-5.1-15.5-8.5-31.4-12.7-47.2-4.3-16-9.6-31.8-12.9-48.1-2.9-14.2-10.9-27.1-7.5-43 5-30.6 8.5-59.3 10.9-91 6.4 5.8 28.5 37 35.3 29.2 1.2-4-2.4-5.3-4.4-7.5-5.3-6.1-9.8-13-15.9-18.1-10.5-8.7 1.9-11.6 8-13.7 10.3-5.5 20-9.8 31.4-1.1 7.1 5.4 15.9 8.4 23.8 12.7 3.7 3.8 7.4-1.5 3.7-4.5-9-9.2-21-13.5-31.3-20.8 8.9-3 16.4-8.4 24.5-13 4.3-2.2 7.5-6.5 14-4.8 11.3 3 22.9 4.7 34.4 6.7 1.4.3 3.8 1.1 4-2.1 2.5-6.7-24.3-10.1-29.8-13 17.2-10.5 30.3-30.4 53-24.8 2.8.6 5.7-.5 5.7-3.2-.1-5-6.4-5.2-10.4-5.1-39.8-1.3-79.6-2.5-119.5-3.8-13.9-.4-27.9-.1-41.8-1.2-7.8-.6-17.7 4.6-23.1-2.2-13.6-19.1-39.1-7.6-54.2 3.4-4.4 3.9.6 10.2-4.3 13.3-42.8 26.4-84.2 55.5-126.6 82.3-14.8 7.4-26.6 18.6-39.9 27.8-2.2 1.5-3.2 5.5-1 7.9s3.9-1 5.6-2c6.2-3.6 12.3-10.3 18.5-10.4 14.4-.3 28.8 2.7 42.9 4.2-3.1 4.8-15.6 11.8-9.3 18.4 4.4 5 7.2.6 10.3-2.8 5.8-5.5 10.8-14.3 17.5-15.9 12.7-3 26.4-2 40.8-2.6-3.5 7-17.1 21.2-11.5 27.4 1.6 1.5 5.9 1.6 7.8-1.5 2.5-4.1 4.5-8.7 7.3-12.6 4.5-6.3 5.9-15.5 16.2-16.7 7.9-.9 15.7-3.1 23.5-4.5 1.6-.3 3.9-1.2 2.4 2.8-1 4.9-8.1 22.8-1.9 24.9 8.7 1.8 9-15.4 10.3-20.9 7.5 4.3 10.5 12.9 16.8 18.8 7.2 7 12.2 15.9 17.3 24.4 10 16.8 28 27.4 32 49.3 6.3 31.5 15.9 62.7 25.9 93.2.8 2.8 1 5.1-.1 6.3-8.8 10.4-10 22.4-13 34.3-2.3 21.5-35.7 14.5-50.2 25.3-3.3 1.9-2.9.8-3.4-1.9-2.3-12.4-4-25-9.8-36.6-4.4-8.8-12.2-13.5-19.9-19-16.3-11.8-34-20.8-52.1-29.2-1.9-.9-5.8-.3-3.3-6.1 14.6-34.1-.8-82.2-14.6-115.2-12-24.7-44.4-11.9-65.7-10.5-51.7 5.6 13.5 57.9 7.5 85.1-6 39.7 16.6 47.3-2.2 57.6-11.5 6.3-20 17.5-29.6 26.8-25.2 21.6-40.6 50.1-35.9 83.8 1 29.8 1.3 59.2-2.4 89 .8 5.9-17-5.4-21.2-4.1-34.5-4.4-67.7-14.8-102.2-11.8-22.4.2-73.3 12.1-76.6 38.8-2.2 20 33.7 38.5 46.8 52.5 1.7 1.4 4.5 3 2.8 5.4-11.6 9.8-29.4 9.7-44.1 8.7-28.6-1.1-56.1-9-84.1-13.8-21.8-3.1-43.4-7.9-64.4-14.5-22-7.2-44.1-13.7-65.9-21.5-1.5-.3-2.9.2-3.7 2.6-5.7 5.3 40.6 19.7 44.5 21 24.3 6.3 46.8 17.9 72.1 21.1 30.8 4.2 60.9 14 91.9 17.3-34.5 6.2-72.2-5.4-107.4-8.5-17.7-2.3-34.8-7.5-52.4-10.4-9.8-.7-50.6-14.8-55-7.6 1 3.7 6.5 4.7 10 5.6 38.7 9.7 77.3 19.8 117 25.2 25.1 1.6 49.4 8.3 74.6 7.4 24-.3 79-.9 79.2-33.5-1.7-10.5-9.4-18.2-18-23.9-14.5-9.6-14.9-23.5.5-30.5 16.2-7.3 34.1-4.3 51.2-4.6 28.7-.5 57.4 1.3 85.4 9 6 1.6 14.6 1.3 16.8 7.7 4 12-3.9 11.3-12.3 9.3-31.2-6.3-159.5-36.7-99 31.3 23.1 27.9-8.6 48.2-34.9 49.2-30 3-60.5 4-90.3-.6-56.7-6.9-113.4-15.3-170-22.9-2.3-.2-6.1-1.3-6.6 1.8-.4 2.8 3.7 4.3 6.6 4.8 34.1 8.8 69.2 15.2 104.6 19.2zm576.7-566.2c16.4-16.1 28.5-1.1 42.6 5.2-30.4 12.7-30.7 12.6-42.6-5.2zm-30.4 13.4c-1.3-4.8 6.5-5 10.4-7 13.1-6.7 16.1 7.1 23.7 11.7 7.8 3.4-24 10.7-27.1 12.8-8.4-3.4-5.4-12-7-17.5zm84.9-14c-4.7 2.4-9-4.4-13.7-6.6-4-3.2-8.9-5-13.5-7.2 3.1-1.9 6.8-3.3 9.2-5.8 10.1-10.4 20.3-2.9 30.5-.7 5.9 1.2 11.8 2.5 18.1 3.8-9.1 8-20.4 11.3-30.6 16.5zm51.4-45.5c7.1 1.3 14.7-.8 22-.3-7.3 9.3-17.9 15.2-28 20.9-7.1 3.8-13.3-1.3-19.7-2.8-6.9-1.7-14.5-1.6-20.3-6.2 12.1-15.9 28.5-15 46-11.6zm-44.3-1.9c-15.1 11.1-29.7 11.2-55.3 0h55.3zm-64.7 10.4c12 2.3 23.9 5 35.6 7.5-15.5 18.1-28.8 2.6-41.2-5 1.9-.9 4-2.8 5.6-2.5zm-14.1 10.4c7.3 4 15.9 7 21.9 12.9l-11.7 5.5-16.9-17.9c2.3-.2 4.9-1.3 6.7-.5zm-14.4 7.7c4.8 4.6 9.3 9.5 13.4 14.7l-15.3 5.7c-2.5-5.7-12.6-33.6 1.9-20.4zm-19.4 2.9c4.3-.9 6.4 12.5 6.2 19.5-.1 2.2-8.3 4.1-12.9 6-.6-1-1.2-2.1-1.7-3.1 6-6.8-2.2-20.3 8.4-22.4zm-53.9 6.5c-21.6 18.8-36 45.8-69.2 36 21.9-10.8 38.8-33.3 69.2-36zm-76.3 65.1c-12.3-1.4-24.8-.3-35.6-.3 16.5-17.3 38.8-22.6 63-18.3-9.2 4.5-11.1 20.4-27.4 18.6zm73.3-18.9c-9.8 14.9-26 20.9-46.1 17.5 10.6-17.1 29.2-27.7 49.2-24.3-1.1 2.3-1.8 4.8-3.1 6.8zm-12.2-16.4c7.8-8.2 16-17 24.4-25.7 1.5-1.6 4-3.9 5.4-3.5 3 .9 8.9-3.9 8.6 2.8-.1 2.5-2.3 6-3.7 9-6.6 14.5-21.1 21-34.7 17.4zm49.1 5.2c-2.5 9.4-2.5 20.7-16.4 21.3-2.8-1.1-19.5 6.7-14.5-2.5 5.7-11.6 13.3-20.7 27.5-21.3 1.9-.1 4.1-.3 3.4 2.5zm-5.3-11.9c-2.3.6-4.6.8-6.9.8 6.1-8.9 8.8-20.4 17.3-27.4.5 2 .9 3.9 1.6 6.9-4.7 5.7.7 17.4-12 19.7zm11.5 24.6c-.6-25.3 32.8-32.9 28.9-5.3-6.6 8.2-18.3 5.2-27.5 8.5-2.8 1-.6-2.3-1.4-3.2zm23.2 42.3c-6.6-9.7-16.6-17.8-21-28.7 3.6-.4 10-2 10.3-1.1 4.9 12.6 10.8 24.6 16.4 37l-5.7-7.2zm17.5 6.8c-5.9-13.5-16.3-25.9-19.2-40.4 3.7 1.9 9.1-4.2 10.3-.5 4.5 13.2 7.5 26.9 11 40.4l-2.1.5zm13.1-28.5h-.2c.2 6.6-.1 13.2-.8 19.7-4.6-1.8-3.2-6.8-4.4-10-3-7.8-4.3-16.1-6.2-24.2-1.1-5.5 7.4-4 10.9-5.3 1.7 5.9.4 13.6.7 19.8zm9 29.8c-1-19-1.8-35.2-2.6-52.5 2.8-2.4 8-2.3 11.5-3.5-2.7 19.3-5 36.7-8.9 56zm-190.7 703.6c-12.2 1.6-20.9-18.7-7.5-15 10-3.3 7.8 5.3 7.5 9-.2 2.1 4.9 6.1 0 6zm17 2.6c-10.7.2-10.7-9.6-9.5-14.2 2.3-8.9 13.4-7.8 20.4-11.2 3.4-1.6 0 4.8 2.2 6.5-1.3 8.9-.1 18.7-13.1 18.9zm80.8-30c-9.9 1.1-12-8.7-13-16.5-.4-9.9 10.9-2.1 15-4.8 18.3-12.2 12.2 20.6-2 21.3zm20-9.2c-2.1 1.4-1.8-2.3-1.9-3.8-.3-8.6.3-13.7 10.3-12.9 5.3-2 6.7 4.9 5.4 9.4-1.9 6.2-9.6 4.4-13.8 7.3zm25.7-80.8c2 14.7 2.8 29.6 3.9 44.4 0 .4-1.5 1.5-1.7 1.4-3.4-2.1-6.5 5.5-9.8.2-6-15.1-10.6-30.8-16.3-46-2.9-4.3-7.5.1-5.8 4 2.8 9.4 5.9 18.7 8.9 28 1.6 5 3.4 10 4.9 15.1 2.1 7-5.3 6.1-7.4 6.4-13.4 2.1-26.9 3.3-40.4 4.3-6.4.5-5.3-6-5.7-8.8-1.9-14.9-7.5-29.4-6.3-44.7.3-3.9-3.9-1.4-4.9-3.5-8.2 11.1.2 40.3 4.7 53.1 4.6 11.7-7.7 8.3-11.8 11.7-6.3 5.3-8.9 1.3-8-6 .9-5.9 3.4-37.4-1.8-39.2-1.9.3-4.2 1.1-4.4 4.4-.4 11.7-2.7 23.5-1.5 35s-4.2 15.6-13.1 20.4c-23.4 13.7-48.4 11.2-73.8 4.8 18.1-17.4 39.1-32.7 51.4-54.5-1.7.2-3.9-.3-4.9.6-8.8 8.3-17.3 16.8-26 25.2-.8.8-2.7 1.8-3.2 1.4-2-1.4.6-1.5 1-2.3 7.4-14.6 14.7-29.2 22.3-43.6 2.5-3.3.3-6.2-3.3-6.3-1.9.1-3.7 1.3-4.6 3-13.5 22.7-25.3 46.3-41.7 67.2-3.2-22.9.1-46.4-.5-69.6-1.2-9.5 6.4 3 9.5-4.2 6.9-17.3 24.4-7.5 37.7-7.8 15.5.6 31-1.9 46.5-2.6 6.2-.3 36-5.8 38.4-10.6 1.8-7 4.6-9.2 7.8-9.2 4.7 0 10.3 4.6 14.7 5.2 10 1.2 20.1 7.3 29.7 6.4 14.6-1.1 14.3 7.8 15.5 16.7zm-50.6-227.7c30.2-4.6 18-.2 29.7 12.2-2.1 3.1-5.2 1.3-7.7 1.3-20.2.2-40.4.1-61.2.1 6.3-25.7 26.3-9.3 39.2-13.6zm-29.3-22.7c6.5-16.5-1-30.9 21-22.2 14.9 1.4 11 18.3 19 26.1 2.5 2.5 3.5 6.5 5.5 10.5-12.4 0-25-1.3-37.3.3-17.4 2.2-9.8-7.5-8.2-14.7zm25.2 85.8c1.7 26.3 9 47.7 19.1 68.3 1.6 3.2-2.3 3.1-3.8 4.1-9.8 6.5-14.4 3.2-16.3-7.9-1.9-11.3-5.5-22.4-7.3-33.7-1.7-10.1 5.8-18.2 8.3-30.8zm-15 17.4c-8.4 18.8-16 38-24.5 56.8-3.5 2.1-14.6-2-18.5-4.3 15.2-28.7 29.4-59.2 42-89.3 2.7-5.9 1.5-15.1 12.3-14 2.3.2 3 .9 2.1 3-6.3 15.4-6.5 32.5-13.4 47.8zm-8.4-50.7c0 4.8 1.6 10.5-.4 14.4-5.7 10.9-7.8 23.7-14.1 33.6-9 17.9-18 35.1-26.5 53.1-1.7 3.6-.3 5.4 3.2 8 31 23.2 36.8-15.9 47.3-37.3 13.5 55.4 13.1 40.6-3 95.7-2.4 9.7-9.7 2.5-14.4 4-28.2 6.5-58.4 5.6-87.2 6.2 30.6-49.4 59.5-100.6 73.6-157.6 8.1-19.5-1.5-21 21.5-20.1zm87 165.8c.7 7.7-58.2-4.1-66.3-4.5-10.8-2.8.6-11.1.9-14.5.8-8.1 3.5-16.6 4.6-25 .5-3.6 2.1-5 4.9-5.7 40.9-7.7 1.8-31.7 1.3-69.7-1.4-12.1-2.9-24.2-3.9-36.3-.5-6.5 1.3-10.9 9.7-10.4 16.2 3.4 33.1-11.2 32 11.4-1.3 52.1 2.2 104.5 16.8 154.7zm75.1-235.8c.9 26.8-5.7 54.6-1.7 80.9-16.4-42.9-27.3-90-30.9-134.8 6-4.8 12.6-9.1 18.3-14.2 9.7-8.7 9.3.7 10.3 5.7 4.3 20.5 4.5 41.5 4 62.4zm22.1-109.8c-4 6.1-11.3 2.2-16.3 5.3-1.7 1-3.5-3.7-3.3-3.8 5-2.2 10.1-4.1 15.3-5.7 3-.8 3 2.4 4.3 4.2zm-6.5-12.6c-3 4.8-9.8 2.5-13.9 6.1-1.1-1.3-3.4-2.8-3.1-3.8 1.7-6.4 8.2-3.4 12.2-5.8 1.6-.9 4.5-.5 4.8 3.5zm-10-17.3c3.2-.7 6.6 4.2 5.2 5.2-3.9 2.7-9.1 3.5-13.7 5-2.9.3-3.9-2.1-3.3-3.5 2-5.3 7.3-5.8 11.8-6.7zm-29.2 33.3c2.6-8.6 5.6-17.1 8.4-25.6 8.4 11.2 6.6 26.7 17.6 36.2.3.3.4 1.4.2 1.5-4.8 2.4-15.8 15.5-19.6 13-5.1-7-9.5-15.5-6.6-25.1zm-10 13.5c.1-.6.8-1.2 1.3-1.8 4 4 3.7 10.1 6.4 14.8 5 6.9-4.4 7.9-8.6 11.1-2.7-8.5.2-16.5.9-24.1zm-118.4-34.5c.6 2.5.2 9 4.2 7.8 7.7-1-4.6-38.7-.8-44.8 8.1 3.5 15.5 8.5 23.5 12.3 10.7 5.4 2 12.7.4 17.4-3.7 10.5-4.8 21.4-6.8 32.1-.3 5.5-5.6 30.5 1.3 31 2.9.1 2.2-3.1 2.8-5.4 5.1-22.2 4.8-45.6 14.6-66.6 21.9 10.4 20.7 35.2 26.8 55.1.6 2.2.1 2.9-1.6 4.7-11.9 14-35.6 32.3-36.3 51.4 18.7-12.5 37.8-54 61.9-59.3-.2 1.4.2 3.3-.5 4.1-11.9 12.5-17.3 28.7-24.9 43.6-4.6 8.9-8 18.5-11.8 27.8-.9 2.3-.7 4.8 2.1 5.8 2.4.9 3-.3 4-2.6 11.8-22.1 28-73.6 51-82.9-2.8 53.5 7.6 107.3 23.9 158.5 3.7 11.5 12.8 21.9 10.4 34.7-1.9 10.3-6.3 20.1-10 30-.8 2.1-2.7 3.7-5 1.2-35.9-30.5-64.6-68.2-88.9-108.6-21.7-39-41.3-80.1-45.9-125-1.3-7.4-1.4-22.9-6.1-28-6.1 5.9-3.9 15.9-2.3 23.6 4.9 31.4 11 62.9 25.9 91.5 1.4 2.5-1.7 1.7-2.8 1.7-7.3-.1-12.8-.2-19.5-7.1-7.1-7.3-21.1-7.5-31.4-12.3s-8.6-16.6-11.4-25.4c-9-29.4-15.8-58.8-22.4-89 25.7 22.1 49.9 15.1 69.6-10.6 2.1 11.6 4.2 22.4 6 33.3zm-75.6-67.2c-.9-6.1-2-12.3-2.3-18.4.1-2.1 1.1-3.8 5-4.3 4.9-.6 4.1-5.5 1.5-6.7-8.1-3.8-4.5-10.5-3.6-15.2.7-7.2 19.4-14.6 25.6-12.8 20.4-1.5 23.7 11.7 27.1 31.1 2.1 11.7 7 24.8-1.4 36.7-6.4 9-12.7 19.4-25.2 19.8-12-.2-25.4-17.5-26.7-30.2zm-5.4 30.7c8.4-8.9 10.8-2.1 18.8 2.2 15.1 7.9 31.2 4.8 41.3-11 5.3-8 8.2 2.8 12.4.9-7 10.9-18.4 18.2-27.6 27.2-.7.8-3 .7-3.6.5-15.5.2-24.4-8.9-34.8-15.1-1.3-1.6-7.8-2.5-6.5-4.7zm-33 29.8c6.6-4.6 12.1-11 18.1-16.7-1.9 24.2-11.5 48.9-.2 77.8.7-28.4 3.9-56.7 9.5-84.6 10.8 41.4 19.2 76.9 30.4 114.9-18.8-4.6-35.3-15.6-47.6-29.7-15.8-17.4-38.8-44.2-10.2-61.7zm-52.8 187.4c-37.3-12.3-77.2-16.4-116.2-13-17.4 1.1-36.8.3-48.3 18.5-2.2 2.6.3 9.4-3.1 8.3-3.9-1.3-7.5-6.8-8.8-11.2 7-29.8 86.8-35 112.2-29.5 24.1 3.5 48.8 4.9 71.9 13.8 7.3 2.8-.3 10.3 3.2 14.7-4.1 3.1-7.8-.5-10.9-1.6zm8.9 79.8c11.7-57.9 14.4-117.3 13.7-176.3-1.4-20.8-.7-41.9 6.3-65 19.9 53.5 64.5 73.5 113.3 88.6-24.8 16.8-54.3 22.8-83.6 25.7-5.1.1-5.3-1.9-5.6-5.6-1.3-10.2-3.1-31.8-13-36.5-.3 1.7-1.4 3.6-.9 5 8.1 23.9 8.4 48.7 7.9 73.5 0 2-1.6 5.5 1.5 5.8 1.3.1 4-3.6 4.3-5.8 1.2-8 1.9-16.2 2-24.3 0-5.2 2.3-5.6 6.3-5.7 28.3-.8 56.5-7.7 81-22.4-9.7 14.2-21 27.2-33.7 38.7-14.3 12.8-30.7 22.7-45.5 34.7-1.7 1.3-2.1 4.2-3.2 6.3 2.2.7 3.7-.1 5.8-1.3 30.6-15.4 54.3-37.5 77.2-62.6-17.4 88.5-54.5 170.7-98.1 249-5.9 10.1-13.9 2.2-19.7.5-30.7-9.1-59.8-22.5-88.8-36.2-6.2-3.3-27.8-12.1-14.3-18.7 29.3-21.6 54.7-43.7 78.1-72.2-4.5 23.4-8 40.4-13.1 61.8-.3 1.8-1.7 5.7 1.6 5.7 3 0 5.5-2.7 6.4-6.2 5-19 9.9-37.7 14.1-56.5zm-86.2 405.5c-1.8 8.7 14.8 12.1 15 3.5-.6-7.2 19.7-9.6 25.4-12.1 40.3-8.9 32.1-33.4 20.3-60.9-4.7-21.6-25.5-33.2-45.4-24.3-1.9.9-4.3 1.7-4.5-.6-6.8-32-21.7-62.2-38.3-90.1-4.8-7.6-13.9-13.8-5-25.9 13.5-21.5-3.1-48.2-20.5-62.6-29.6-23.7-4.1-46.3-13.2-57.1-4.9-1.5-16.2-1.7-11.9 7.2 5.4 7.9 2.1 18.4-.4 26.7-13.8-6.2-13.3-30.5-23.9-28.8-8.5.2-11.9 17-3.1 17.3 10.8-.1 8.7 11.9 15.5 15.3.9.5.8 3-1.1 2.9-6-.4-12.3 2.7-17.9-2.2-2.5-2.2-5.9-2.1-8.7-.3-3.5 2.3-1.9 6.1-1.9 9.2s2.9 4.4 5.6 4.1c6.3-.7 12.8 1.4 19.1-1.6 1.6-.8 4.8-2 6.8 1.5 4.7 8 9.6 15.8 14.9 23.5 5.4 7.9 12.7 15.1 8.6 26.5-10.5-6.1-14.7-19-25.9-23.9-12.2-6.5-26.4-4.3-39.7-5.5-5.2-.5-14.1 2.3-17.2 9-4 8.7-9.5 16.3-14.6 24.2-6.8 8-13.3 16.6-8.9 28.6 3.4 13.8 11.8 26.3 9.5 41.4-.5 3.1 4.1 8.4.5 9.4-21.4 3.3-29.5-19.6-33.4-36.5-5.4-16.3-7.3-29.9 5.5-43.2 3-3.1 2-7.9-.4-12-2.6-4.3-6-1.5-8.8-1.2-1.4.2-3.6 3.5-3.4 5.1 1.1 9.4-7.7 14.3-9.1 22.6-1.8-8.8-9.1-16.1-5.1-25.8 1.7-4-1.2-6-4.8-7.5-6-2.8-12 6.3-8.8 10.7 6.1 9.5 3.6 20.8 7.4 30.7 1.1 3-1.3 4.6-4 3.6-3.5-1.3-6.5-3.8-10-5-4.2-1.4-7-8-12.7-3.8-2.9 2.1-4.1 6-2.9 9.4 2.3 6.4 8.5 2.1 12.4 3.9 5.6 2.7 15.4 1.9 16.4 7.4 7.2 41 12.6 89.3 65 84.4 2.1-.2 4.4-3.5 6 .8 8.9 23.3 20.1 45.4 34.7 65.8 2.3 3.1 13.5 9.1 1.4 12.6-8.7 2.4-19.3 6.2-28.9 4.8-8.9-1.7-3.8-22.2-5-29.6.2-4.9-2.8-6.3-6.7-6.5-10.6-1.1-2.6 21.2-3.1 29.5-6-6.4-11.7-10.7-14.8-16.5-2.4-4.4-4.4-5.5-8.8-5.2-2.1.2-3.1.8-2.9 2.9.3 4.6-1.8 12.3 3.3 12.6 9.1.5 9.6 8.3 15.3 12.2-6.4.6-12.1 2.4-17.2 1.2-8.4-1.9-11.8 6.2-4 9.5 5.9 3.5 10.8-2.3 16.6-.9s12.3-5 18.1 3.7c10.9 16.2 35.8 19.3 52.4 9.5 44-32.4 85.8-66.3 141.8-31.2-9.6-3.4-20.5 2.5-29.5-3.8-3.8-2.6-6.5-1.6-9.3.3-3.3 2.3-1.5 5.9-1.2 8.7-.2 6.5 28.8 2.1 35.3 3.3-11.3 5.2-20.5 9.8-30.1 13.7-2.8 1.6-5.6 1.4-5.8 5.4zm-66.4-262.8c-3-5.1-8.8-8.6-9.1-15.2-.1-1.8-.9-4 1.8-5.1 3.1-1.3 2.6 2 3.3 2.9 10.7 12.3 20.9 25.1 31.4 37.6 6.9 9.4-1.5 21.1-4.7 32.4-.2.5-1 .7-1.5 1.1-3-6.5-13.6-7.6-10.8-18.8 3.3-12.9-3.9-24-10.4-34.9zm-96.8 150c-41.7.6-45.1-42.5-51.2-74.8-.6-2.5-.9-5.9 2.3-6.8 3.4-.9 5.5 1.6 6.4 4.8 4.8 22.8 11.3 57.7 41.4 55.3 10.8-.6 5.3 12.8 8 19.4 1.1 4.4-4.9.5-6.9 2.1zm190 61.2c-24.7-12.7-54.5 7-58.6-32.8-10.5-47.7-41.9-86.4-68.6-125.8-1.4-2.2-3.6-6.2-7.3-3.8-7.2 4.6 9 19.2 11.4 24.7 28.5 39 48.2 83.6 61.1 130 .9 3.1 1.1 5.6-3 7.3-36.3 12.6-61 66.3-104.1 47-2.4-1.1-5-4.7-4.9-7.1.1-1.2.6-1.6 1.4-1.6 16.3 4.8 32.3-.7 43.8-12.4 3.7-3.7-2.1-6.9-4-9.3-23.5-32.7-42.6-69.1-45.9-109.8-2.1-70.3-32.5-36.4 11.2-95.4 2-2.9 3.1-3.3 5.4-.1 3.2 3.3 13.4 20 18.2 16.7 4.4-4.6-8-16.8-9.6-21 6.8 0 14.2-.6 21.4.3 2.7.3 11.1-4.6 8.1 6.3-1.2 4.2 5.9 7.6 10.7 5.5 4-1.8 5.1-.1 7.4 2 40.2 35.1 63.8 82.6 81.4 132.1 3.2 7.8 6 13.4 17.3 11.8 13.7-1.9 32.7 17.1 34.9 31.1 1.2 7.6 7.5 14.2 4 22.9-.9 2.3-.8 2.6-2.9 1.1-9.5-6.8-18.9-13.6-28.8-19.7zm6.3-1331C364.3 56 379.6 34.9 382.3 11c1-12 6.5-10.5 13.5-7.3 25.6 11.5 49.2 27.5 76.5 35 7.9.6 4.7 8.3-1.7 6.1-26.3-4.5-48-21.5-71.9-31.4 15.4 35 54.8 49.3 85.1 68.4 1.5.8 4.1 2.5 2.8 5-2.4 4.4-6.2.5-7.6-.3-20.4-10.8-41.4-21.4-59.4-35.4 11.1 40.4 53.5 62.7 89.6 78.5 1.5.4 3 2.7 1.6 4.6-3.4 4.4-8.5 1.2-10.9-.1-18-9.8-37.8-17-52.8-31.9-.7-.7-2.2-.7-3.4-1 9.8 38.1 45.9 56.6 78.1 72.3 1.9 1.2 6.3 2.1 4.6 5-2.4 4-7.5 3.6-11 1.6-16.1-9.2-32-18.9-51.2-30.4 8.9 10.6 9.3 22.1 18.1 29.5 10.7 8.9 20.6 18.7 31.6 27.3 4.9 5.5 28.9 14.4 28.3 19.4-.3 11.7-49.8-24.8-53.5-30 1.1 15.1 12.6 22.8 20.1 33.2 10.1 13.7 22 26 35.4 36.5 3 3.7 16.1 8.4 12.5 13.9-9.7 4-46.6-34.9-52.5-44.3 3.7 19.1 20.9 43.4 32.5 59.9 7.1 10.1 15 19.6 23.8 28.2.9.9 1 3.8.2 5-11.2.7-30.3-30.3-37.8-39.3 6.3 20.3 10.1 39.2 13.6 59.7.2 1-.6 2.1-1 3.1-13.1-23.9-14.5-52.5-27.6-77.1-1.8 8.6-7.1 47-17.9 45.7-2.7-1.4-1.1-6.2.5-9.5 7.7-17 8.7-34.6 8.3-53.2-.3-11.6-5.9-20.3-8.9-34.8-.5 12.6-10 62.4-21.3 59.9-3.6-1.7-.4-4.4.5-6.6 7.5-18.8 10.5-38.5 13.7-58.5 2.1-13.1-8.9-20-8.4-31.2-4.9 21.7-7.4 44.6-19.3 63.8-3.3 6.1-.1 12-10.2 10.5 4.6-18.7 14.7-35.9 17.5-55.3 1.9-11.9 6.8-25.1 3.7-35.6-3.3-10.8-8.1-21.2-14.3-30.7-.9 11.3-17.8 93-31.1 84.8-2.1-1.4-.7-2.1 0-3.8 7.3-17.8 13-36.1 17.1-54.9 8.1-33.2 10.9-40.9-7.7-71.9-8.1 33.4-19.8 65.5-41.5 89.5-3.3-8.9 4.8-14.6 7.7-22.3 18.1-39.6 41.9-75.1 9.5-114.3-3.8 29.5-18.5 55.7-33.8 80.6-3.9 4.6-10.2 21.7-16.6 20.1-3.9-1.3-.6-3.5 0-4.6 19.1-33 39-67.1 43.8-105.6 1.5-5.3-8.5-30.4-10.8-16.9-3.2 22-16.8 39.4-26.2 58.5-6.2 12.6-14.5 24-24.6 33.7-.9.8-1.2 2.3-2.5.8-1-1.1-2.6-2.3-1.1-4.3 7-9.8 13.8-20.4 19.7-31.5zM249.1 55.2c1.5-5.5 5.1-10.5 11.3-12.1.4 1.2.7 2.3 1.4 4.6-9.4 12-10.2 27.9-17.4 41.9-34.2 60.1-89 104.1-131.7 157.3-5.4 6.9-9-2.5-4.7-6.5 27.2-33.6 57.1-64.9 85.1-97.7 23-26.4 46.3-53.1 56-87.5zm-68 1201.2c.1 3.6-1.2 7.1-4.6 6.3-3-.6-9.4.2-7.6-6.2-1.6-10.5 14-10.3 12.2-.1zM0 366.4l-1.5-2.6c10.7-29.4 26.8-55.6 45-80.9 9.3-12.8 64.9-94.2 78.3-84.5 3.1 3.9-6.5 9.5-11.1 13.2-20.5 20-35.4 44.7-52.3 67.7-10 13.7-19.3 27.8-28.6 42-7.8 11.8-13.9 24.6-20.9 37-2.2 3.6-4.3 7.6-8.4 9.4l-.5-1.3zM-2.7 475c6.5-31.1 29-55.8 40.6-84.3 12.1-35.7 82.7-73.2 115.7-92 37-24.4 55.1-36.5 101.5-38.6-13.6-2.4-25.9-5.4-38.5-.9-19.5 6.9-40 10.8-58.6 20.1-15.3 7.7-29.9 16.8-45.1 24.7-5.4 2-35.3 18.7-36.4 12.1-.7-5.1 4-9 7.5-10.5 36.5-13.1 56.6-48 78.3-77.9 17.3-25 38.1-48.5 64.2-64 15.5-9.4 32.2-16.5 42.3-32.3 18.6-34.4 19-76.6 46.2-106.8 3.3-3 5.4-10 10.6-7.1 4.9 2.7-.5 6.8-2.4 9.4C307.9 46 301.1 69 293.5 91.6c28.1-24 54-45.6 59.6-86.2.6-1.7 2.6-2.9 3.9-4.3 10.9 7.4-3.8 37.4-12.6 53.7-16.8 28.9-40.7 28.2-54.9 63.3-19.1 46.4-73.6 52.9-100.2 93-17.8 24.2-36.2 43.9-51.9 70.1 16.2-12.1 33.4-15 47.7-23.1 4.9-2.8 8.5-13.7 11.4-21.3 8.3-17.1 27.4-38.6 43.9-48 3.6-2 7.8-3.9 9.9-.7 2.4 3.6-3.1 3.8-5 5.7-19.1 17.7-36.8 37.1-47.8 60.8 8.9-.1 17.2-6.3 26.6-6 8.4-.4 7.5-8.9 11-13.5 15.8-20.9 34.6-38.1 58.2-49.5 2.4-1.1 7.1-3.3 8.8.2 1.4 2.9-3 4.4-5.3 5.6-23.8 13.2-44 32.8-59 55.4 6.6 1.5 18.5 6.7 23.9-.3 12.8-15.8 26-31.5 42.7-42.4 9.9-6.5 21-11 32.7-13 2.1-.4 5.4-4.9 6.4.4.7 3.7-2.9 4.9-6.3 5.9-29.1 8.6-49.8 30.4-68.6 53.4-2 2.4 1.1 5.3 6.3 6.2 2.4.4 5.2.6 6.9 2 9.6 7.5 12.8-2.5 16.8-6.8 13.1-14.1 28.4-23.8 45.7-32.3 11-5.3 22.7-8.1 34-12.4 3.5-1.4 5.3 1.9 6.1 3.7 1.6 3.5-2.2 1.6-3.4 2.1-31.3 9.5-60.4 26.4-82.7 50.2C328.7 267 354 246 384 245.2c10.2 0 35.8-5.2 42.3 3.1-28.2 4.4-58.7 3.3-85 15.9 36.5 19.3 81.9 10 120 26.1 2.8 1.6 9.2.9 7.5 6.2-3.3 7.5-25.4-3.3-32.5-3.7-17.6-4.4-35.8-6.7-53.5-9.6 13.9 18 34.6 23.2 54.8 29.8 16.8 5.9 33.2 12.9 49.1 20.9 1.8 1.1 5.4 2.5 3.8 5.4-3.4 6.9-30.4-9.2-37.4-10.8-12.9-4.6-25.5-12.3-38.7-15.2 10.5 20.3 27.7 35.3 45.8 47.2 8.8 5.6 18 10.4 27.6 14.5 5.1 2 9.9 4.1 12 9.6-9.6 3.8-44.4-17.1-53.9-23.2-.6 1.9 6.7 23.2 8.7 25 12.8 11.5 25.1 23.5 39.5 33.1 2 1.3 4.4 3.6 2.4 6.2-6.5 6.8-32-20.6-38-26.2 5.3 18.1 10.3 34 15 51.4 1.1 6.8 7.5 25.2 5 30.3-1.9-2-4.9-3.7-5.4-6-4.7-22.5-13-43.8-19.8-65.6-.3-5.6-3.7-5.1-4.3.8-2.3 10.8-4.1 21.8-6.9 32.5-.7 2.8-1.6 8.9-6.2 7.4-5.8-1.9-1.4-7.4-.5-10.2 11.8-59.2 15-47.4-12.5-101.2 2 10.5 6.1 58.1-4.4 56.8-2.5.3-1.5-2.1-1.6-3.3-.6-32.2 6-75-29.6-91.2-.5 4 .8 7.5 2.3 11 2.9 4 9.4 61.1-2.6 44.8-.8-19.5-4.1-38.7-9.9-57.3-9.1-23.5-44-28-67.5-29.2 23.9 14.8 38.5 34.2 44.4 59.2 10 34.4 39.9 55.2 61.7 81.5 6.3 28.2-53.9-48.9-57.3-53.6 2.4 49 6.2 54.5 40.1 90.2 4.7 5.6 11.9 11.1 12.3 18.8-13.8-1.2-41.2-39.7-48.8-52.2-14.1 36.5 31.5 73.7 56.8 97.1 2.3 2 8 3.2 5.5 6.6-2.6 3.6-7.9 1.2-11.1-1.4-22.2-17.1-38-37.7-56.2-59.6 1 14.3-5.6 28-2.9 39.9 9.6 27.1 36.2 48 55.2 69.3 7 10.4-8.3 4.7-11.1.7-18.1-16.7-34-35.7-46-57-12.5 35.7 27 75.3 48.7 102.5 2.1 2.3 3.7 5.8 1.3 8s-3.9-1.6-5.6-3.1c-21.8-18.3-35.5-42.9-48.4-67.8-12.6 30 23.9 70.4 41.6 94.6 3.7 5.2 10.5 7.8 8.9 15.3-22.9-6.1-43.7-51.1-54.2-71.6-14.6 44 25.7 81.8 48.7 114.8 1.1 1.1 3.5 3 .7 4.9-6.2 3.6-9.2-3-12.3-6.6-15.8-19.7-30.3-41.3-41.6-63.7-10 35.3 14.9 68.5 36.1 94.7 3.1 4 7.5 6.7 7.4 12.4-14.1.5-43.6-45.2-45.2-58.8-7 53.2 8.7 63.5 32.6 105.8-3-.3-5.4-.6-7.1-3-10-9.8-18.7-20.4-22.7-34.3-.5-1.6-2.1-2.8-3.1-4.2-.6.9-1.8 1.8-1.7 2.6-.6 32.4-3.7 40.9 18.5 68.3 2.4 4.5 15.7 18.4 12.9 22.3-2.5 2.2-4.2-1.4-5.9-2.8-11.6-9.8-16.4-21.2-25.6-34.9 4 31.2 7.8 53.8 13.1 83 1.3 6.1-3.6 8.3-5.9 1.3-3-12.2-6-24.3-8.8-36.6-3.7-15.2-5.6-23.7-5.5-41.4-4.9 18.9-7.9 31.6-14.1 48.7-.2.7-1.5.9-2.3 1.4-3.3-7.8 4.3-33.3 7-42.3 8.1-21.7 7.7-43.8 6.6-66.6-3 10.8-35.4 57.2-46.3 55.3 1-10.3 12.4-16.6 17.7-24.7 12.8-21 35.3-38 28.7-67.1-1-4.5.7-9.5 1.4-18-5.5 10.1-48.5 75.3-55.5 63.3-1.7-3.1.8-5.5 2.4-7 18.6-16.5 31.6-37.7 45.5-58 4.2-6.1 7.6-13.4 7.3-22.2-.5-12.8 1.1-25.7 1.8-39.7-8.4 8.2-52.3 86.6-58.1 72.1-2.6-4.3 5.6-9.7 7.3-13.8 23-35.6 60.4-65.9 54.6-112.6-11.6 15.2-45.3 69.7-60.3 70.6-1.6-2.1-.2-6.9 2.5-9.1 13.6-12.2 24.2-26.8 34.1-42 18.8-26.8 26-24.5 29.5-60.6-7.6 8.3-45.8 52.7-53.9 47-2.7-3.3.9-5.7 3.5-7.9 18.4-15.6 35.9-32.4 50-51.9 4.6-6.4 3.6-16.9 5.6-28.1-9.5 10.2-17 18.6-24.8 26.7-8.7 8.9-19.6 14.9-30 21.3-1.9 1.2-4.7.2-5.8-2.4-1.4-3.8 4.6-4.6 6.6-6.9 21.6-16.9 61-43.6 56.5-74.2-6.9 5.4-41.2 38.8-48.8 30-2.2-2.8.1-4.3 2.2-5.3 18.5-9 33.3-23 47.4-37.3 6.4-10.9 2.9-30.2 3.7-43.5-12.2 12.1-21.4 26.6-37 34.2-1.4.6-1.6 2.5-3.4.1-1.5-2.1-1.6-3.1.2-4.9 10.9-10.9 21.7-21.9 32.6-32.9 8.6-8.6 9.5-18.5 6.1-29.8-1.9-6.8 1.5-14.7-3-21.1-9.2 11.2-12.9 26-25.1 35-4.4 3.8-8.9-1-4.8-5.2 11.3-13.7 21.4-28.5 27.7-45 3.6-9.3-4.5-17.3-7.8-25.7-1.5-5.2-7-16.6-9.7-5.4-3.5 5.6-16.1 44.1-23.2 37.4-6-3.1.6-9.1 2.6-12.6 5.2-10.8 11.3-21.3 14.5-32.8 3-10.4-7.3-13.3-13.2-17-21.3-14.1-45.1-13-70.1-10 21 14.1 40.5 10.5 57.6 32.8.4.5-.2 2.8-.3 2.8-16.7-1.2-27-18.8-45-20.6 9.6 27.9 29.3 46.2 50.1 64.1 1.7 1.5 4.6 3.3 2.9 5.4-8.8 9.5-40.1-30.6-44.6-38.4-8.2 35.4 33.9 59.1 50.8 84.6-2.4.1-5.6 1.4-7 .3-17.4-12.5-30.2-29.1-43.2-45.8-10.9 42.8 23.9 73.4 42.9 106.3.6 1 3.3 2.5.5 3.8-11.2 1.6-29.3-32.5-35-41.8-4-7.4-8.4-14.5-10.7-22.7-3.8-9.8-6 4.1-7.2 8-10.1 41.5 16.3 78.5 36.5 112.1 1.3 2.2 2.9 4.8 1 5.7-2.2.9-6-.4-7.1-1.9-14.3-20.3-28.5-40.5-33-65.8-.6-3.2-4.3-5.4-5-9.7-2.1 5.9-3.9 11.9-6.3 17.6-12.1 33.2 19.8 76.8 37.6 103.7 1.1 1.5 4.4 4.4 1.5 6.4-9 2.9-22.9-24.4-27.4-31.4-7.3-13.1-14-26.3-18-40.8-.2-.8-1.6-1.3-2.5-2-16 44.6 13.3 76 37.8 106.7 1.5 1.8 4.5 3.6 2.3 6.1-2 2.3-4.8.1-6.6-1.3-23.5-17.7-34.7-44.6-44.3-71.5-21.6 37 5.5 84.7 30.8 113 2 2.2 4.6 6.3 2.1 8.9-.6.7-1.5 1.1-2.4.9-23.7-20.5-38.1-47.3-43.8-77.7-22.4 40.1.2 85.5 25.5 118.7 1.9 2.9 6.1 6 4.7 9.8-2.1 3.4-5.4-1.2-7.4-2.7-22-18.3-29.5-48.3-38.8-73.3-4.4 10.9-8.7 22.6-10.2 34.1-2.4 37.5 23.2 69.9 43.4 99.4.4.6 0 2.5-.6 2.8-4.6 2.1-7.6-1.9-9.5-4.2-16.4-21.4-36.3-50.9-38.6-78.5-19.6 43.1 7.9 87.9 32 121.9-22.9-1.9-41.3-52.1-44-74.2-13.4 42.2 1.2 72.7 20.6 108 2.5 5.2 7.9 8.4 11.5 12.8.8 1 3.4 3 1 4.5-14.3.6-25.8-26.2-31.4-37.7-3.8-8.4-8-16.5-10.1-25.5-.1-.6-1.2-.9-1.9-1.3-9.3 32.2 5.5 67.5 23.1 94.7 2.7 6.2 15.7 17.5 11.8 23.5-1.6 2.1-2.4-.6-3.3-1.4-21.8-18.8-29.9-43.6-39.2-72.7-.1 34.9-.7 63.6 17.8 92.2 3.6 8.7 14.9 22.1 14.3 30.8-16.9-11.7-23.4-31.1-31.8-50.6.1 31.1 1.2 53.8 7.6 82.4-.4 10.6-7.2 4.4-7.6-1.6-5.7-26.2-8.5-53-8.6-79.8-4.8 10.5-33 63.5-43.7 61.1-1-.8-.5-5.7 1-7.4 8.4-10.6 16-21.7 23-33.3 10-17.6 23.4-35.8 18.3-57.3-1.3-5.2 4.3-9.9 1.3-15-8.2 18-19.5 34.1-32.3 49.3-4.4 3.4-15 24.7-20.3 20-2.9-2.8.7-5.7 2.6-8.3 5.5-7.4 11.1-14.8 16.6-22.2 11.9-16.2 22.6-33.3 31.8-51.2 4.9-9.2 4.2-19.9 6.4-32.8-5.2 10-60.2 71.2-66.1 62.5-4.4-4.2 13.8-16 16.6-20 17.4-16.8 37.1-32.7 48.9-54 4.5-8.2 3.3-19.5 5-31.4-12.9 13.9-45.4 62.1-64.3 54.7-1.8-3.6 2.7-4.8 4.7-6.3 23.2-13.7 37.5-36.2 55.3-55.4 11.5-12.4 9.1-27.4 15.2-44.3-15 18.7-57.4 71.2-80.3 63 1.4-3.9 4.3-5 7.6-6.6 29.1-16.7 54.9-41.8 74.8-68.3 5.4-11.8 4.8-23.2 10.3-36.8-7.9 12.3-17.2 19.1-26.8 24.8-10.6 5.1-34.1 30.4-44.9 25.3-1.2-2.3-.3-5.1 2-6.3.1 0 .1-.1.2-.1 24.2-14.1 47-30.5 68.1-49 7.9-6.9 8.5-19.3 11-29.5.8-3-2.1-.6-2.9.2-10.7 9.7-54.9 46-67.6 36.5-.9-2 .5-3.8 2.4-4.5 16.8-6.5 33.1-14.8 46.4-26.4 12.8-11.2 31.3-19.2 32.1-40.5.1-1.9 1.6-3.8 1.8-5.8.4-3.3 4.8-7.1.9-9.4-1.5-.9-6.6 3-9.2 5.5-15.7 15.1-35.6 23-54.8 32.1-4.2 2.1-10.4-1.7-7.9-6.3 26.6-8.2 50.9-24.3 73-41.6 11.1-8.5 9.2-23 14-34.4 1.7-4.1 2.7-8.4 4.3-13.5-8.3 5.9-59 52.6-63.6 37.2.7-1.6 1.8-2.9 3.2-3.9 11.4-7.1 24-12.8 34.2-21.3 23.3-17.1 38-27.7 37.9-60.7-7.1 8.7-51.2 55.3-59.5 46.9-1.7-2.5.6-4.5 2.5-5.6 30.2-22.3 68-51 71.8-90.9-11.9 8.9-55.6 55.9-68.3 46.2 7.3-9.1 20.4-12 28.9-20 10.9-8.9 19.8-20.5 31.3-28.6 14.2-9.9 14.5-24.4 17.4-39.8-18.5 22.9-38.1 41.4-63.7 55.2-2.8 1.6-6.2 3.5-8 .1-2-3.7 2-4.8 4.6-6.8 17.2-12.9 36.9-22.1 49.6-40.7 23.3-22.1 24.3-25.8 23.7-58.5-17 23.1-34.2 45.6-60 59.3-1.6.9-2.7 3.3-4.3 3.6-3.1.5-8 1.1-9.1-.5-2-2.8 1.9-4.2 4.2-5.8 14.6-9.6 28.3-19.5 40.4-32.5 9.2-9.9 16-21.5 25.9-30.7 3-1.8 6.1-42.6-.8-38.6-11.4 31.1-35.3 55.1-60.2 75.6-2.4 2-4.9 1.7-7-.5-2.6-2.7.8-3.5 1.9-4.4 5-3.9 9.8-8 14.4-12.4 20-19.8 37.8-41.8 48.3-68.2 2.3-4.6-10.4-16.6-18.1-17.5-17.6-2.1-8.8 12.7-10.8 18.9-5.3 16.5-12 32.1-21.4 46.4-3.6 6.8-6.7 16.2-17.2 15.2.3-1.5.2-3.3 1-4.5 5.9-7.9 11.3-16.2 16.2-24.8 7.2-14.4 16.4-30.1 16.3-46.8-17.6 3-30.4 16.3-45.7 24.1-27.3 13.4-50.3 33.3-75.8 49.3-19.1 12-33 27.9-43.7 46.8C29 425.4 15 451.5 3 478.2c-2.7 5.8-5.9.6-5.7-3.2zM0 277.1c29.7-55.2 88.6-82.7 127.7-130 44.3-45 65.1-109 116.9-146.9 1.1-.7 2-1.4 3.2-.5 1.2.1 3.2-1.7 3.5.7-16.4 21.8-38.6 40.4-52.8 64.5-11.4 17.6-20.7 36.8-33.8 52.9-36 52.6-89.8 87.9-133.6 133.4-8.1 9.3-16 18.5-22.6 28.8-2.9 5.5-13.5 3.9-8.5-2.9z"/></g></g><g id="Layer_1_2_"><g><path d="M52 1548v15l-37 37h946l-37-37v-15H52M52 52V37.7L14.3 0H0v1600h15l37-37V52m872 0V37.7L961.7 0H14.3L52 37.7V52h872m52-52h-14.3L924 37.7V1563l37 37h15V0z" id="Layer0_0_FILL_1_"/></g><g><path id="Layer0_0_1_STROKES_1_" d="M961 1600h15V0h-14.3L924 37.7V1563l37 37H0V0H961.7M52 52V37.7L14.3 0m.7 1600l37-37V52h872m0 1496H52" fill="none" stroke="#333" stroke-width="2" stroke-linecap="square" stroke-miterlimit="3"/></g></g></svg>