<svg xmlns="http://www.w3.org/2000/svg" xmlns:xlink="http://www.w3.org/1999/xlink" viewBox="0 0 976 1600"><path d="M960 22v1556c0 3.3-2.7 6-6 6H22c-3.3 0-6-2.7-6-6V22c0-3.3 2.7-6 6-6h932c3.3 0 6 2.7 6 6z" fill="#fff"/><defs><path id="a" d="M960 22v1556c0 3.3-2.7 6-6 6H22c-3.3 0-6-2.7-6-6V22c0-3.3 2.7-6 6-6h932c3.3 0 6 2.7 6 6z"/></defs><clipPath id="b"><use xlink:href="#a" overflow="visible"/></clipPath><g clip-path="url(#b)"><path d="M492.5 1252.3c-18-9.6-4.2-18.6-29.7-26.5-16.5-28.1 24.9-58.4 51.6-46.1 30.1-2.9 55.5 46.6 22.7 60.5-19.6-2.7-15.1 3.9-30.5 8.1-6.6-3.4-9 1.5-14.1 4zm-199.2-14.4c-3.6-.5-5.5-5.2-9.8-3.6-6.7-3.1-11.1-11.1-14.8-16.1-1.3-2.9-4.5-3.8-7.5-3.2-8.4-.4-18.5-14-28.9-8.3-28.4-5.8-5.2-32.7 5.8-43.2 16.2-12.2 37-13.6 56.5-13.3 31.9.6 65.7 29 63.5 60.9-8.9 17.4-19.8.9-40.8 12.9-11.4-.7-12.2 12.7-24 13.9zm301.4-105.2c-8.5-1-4.3-11.3-7.6-15.9-4.8-3.7-4.3-12.4-8.7-16.2-7.9-7.7-15.1-15.8-24-21.3-5.1.5-8.7-6.4-13.6-6.8-8.2 2.7-18.2-5.8-11.8-14.6 61.5-82.8 173.9 66.6 65.7 74.8z" fill="#ffeb5c"/><path d="M55.2 1604c-7-2.5-56.2 5.3-59.2-4 6.7-12.9-13.3-113.4 13.2-113.1 44.6-26.3 88.5-59.9 110.2-108 14.1-37.5 60.9-35.8 82.7-59.5 14.7-14.3 27.5-30.5 47.6-38.7 14.3-5.9 26.6-11.9 32-26.4.8-2.2 3.3-3.5 6.5-3.5 3-.2 6 2.5 6.6 5.4 1.8 10.1 12.9 15.1 18.8 22.8 14.2 6.4 36.6 11.6 52.5 6.2 64.1-35.7-22.7-54.5 38.8-67.2 16.3-7.1 10.1 11.5 10.1 20.7 5 33.4 40.3 53.3 70.9 40.7 2.7-2.5 7.6-2 9.7.9 9.4 7.7 42.5 34.2 57.7 21 .8-3.3 4.9-3.5 7.6-4.4 17.6.7 18.4-19.4 30-23.1 40.1 24.5 86.8 58.9 136.7 55 24.9-3.7 36.8 25 57.7 26.5 62.6-10.3 95.2-73.3 150.9-94.6 32.9 4.8 11.7 27.5-3.5 41.2-39.4 41.9-76.5 86.5-129 113.7-119.5 51.5-317.4-209-403.8-46.8-33.6 74.4-90.9 63.1-134 110.7-38.1 35.4-58.3 73-88 109.7-3.7 3.4-.2 7.4.7 11 .9 10.6-119.5.4-123.4 3.8zm162.7-560.6c-15.8-11.9-22.6-37.8-37.2-52.7-13.4-17.1-22.7-33-22.1-57.8 3.2-19.1-8.9-45.5-1.3-65.7 10.2-27.7-10.2-40.9-8.1-65.6-3.2-36.6 6.3-72.4-10.4-109.1-4.6-30.1 16.1-61 18.4-91.4 5.4-11.7-8.7-10.5-9.1-19.2-.7-43.1-3.5-86-2.1-129 3.8-30.1-5.5-61.8 6.5-90.7 16.9-26.8 48.8 6.7 42.2 27.3C203 565.8 190 742.7 217 917.7c-2.9 40.7 42.8 61.9 57.1 96.5-.9 2.3-3.6 4-7.3 4.6-21 1.7-33.9 14.7-48.9 24.6zm379-100.9c-11.8-6.1 4-23.1 2-31.9-17.1-33 6.2-78.1 2.3-115.6.1-29.9 9.4-59.8 3.5-88.9-8-23.4 6.4-47.4 8.4-70.8 2.1-17.4 5.7-36.1 5.7-53.3.6-29.7 44.3-27.5 24-79.9-2.9-7.6-7.9-14.1-14.4-19-14.1-21.1-.8-60.2-.9-88.1 5.4-48.6-1.6-97.6 7.5-145.9 1-38.6 48.6-5.2 41.9 21.3-1.5 35.8-4.8 71.9-2.8 107.8-4 26.6 12.3 54 6.2 79.1-.1 9.1-10.2 8.1-10.9 15.6 2 19.8.2 39.1 1.7 58.8 3 18-7.7 33.9-7.6 50.4 1.6 3.4 7.6 2.4 7.1 7.1-11.4 89.3-15.4 159.8-13 247.1-3.1 154.7 30.2 84.5-60.7 106.2z" fill="#333"/><path d="M457.5 1411.2c-9.4.6-7.8-8.1-15.4-6.7-16.7.3-28.9-25.9-28.6-40.8 4.2-31.6 26.8-48 58.7-47 14.5-2.4 27.7 8.1 32.2 20.3 26.8 27.9-13 71.4-46.9 74.2zm-381-61.8c-58.9-3.8-63.7-86.9 0-91.8 58.7 2.5 62.5 89.5 0 91.8zm471.9-52.5c-47.4 5.1-51.9-32.4-63-22.5-19.8 17.8-56.3-5-66.6-23.7-9.7-10.4 4.4-21.7.2-31.1-1.9-3.4-5.2-6.7-9.3-4.6-6.7 5.6-23.4 4.9-29.5 13.9 34.3 43.9-24.6 73.9-62.9 51.1-20.1-4.1-25.4-43.7-35.3-26.5-22.6 48.3-104.3 37.2-108.6-18.5-81.3-10.2-91.3-131.3-1.4-130.4 76.3 15.6 4.3-21.6 54.5-65.3 42.3-41.3 119.4-14.3 121.1 44.9 6.9 13.4 33-12.7 48.5-7.3 11.6-3.1 35.6 9.4 51.9 23.7 5.6-5.5 27.3-20.3 21.5-28.2-58.1-66.6 19-178.1 86.4-96.8 24.7-28.5 61.5-51 100.1-31.9 15.3 2.4 3.2-13.2 4.5-20.6-2.6-8.7 2.8-15.3.8-22.7 4.1-25.1 34.6-37.8 56.5-30.7 38 10.6 43.9 61.9 11.3 83-23.9 16.3-57.9-10-31.5 32.6 10.3 12.4 18.9-15.4 34-11.9 15.6-1.7 29.7 13.6 29.3 29 0 14.7-13.4 28.6-27.5 28.6-20.4-.1-30.4-31.9-37.6 5.9-11.3 17.7 49.6 10.5 58.3 40.7 16.5 31.2-28 63.2-10.9 67.8 12.2.8 22.2 9.9 27.2 20.6 23.6 27.6-16.4 69.1-46.8 57-13 3-23.6-36.8-34.3-20.6-15 55.1-63.3 56.3-108.4 52.8 6.5 24.8-1.3 43.4-32.5 41.7zm-60-110c-11.7 5-44.6 30.8-22.7 41.1 16.8 3 20.1 40.2 33.1 30.1 11.9-17.5 38.9-11.5 48.3-23 4.6-6.2 1.3-9.6-2-14.9.6-29.9-32.6-39.6-56.7-33.3zm-223.8-28c-20 6.3-38.2 20.8-40.8 42.5 12.7 8.7 32.3 6.3 45.9 20 10.4 3.3 10.5 18.8 18.6 23.9 32.9-34.8 70.5-18.5 63.5-34.9-4-44.4-48.2-58.3-87.2-51.5zm267.6-99c-28.4 11.7 51 18.7 55.6 66 3.4 8.3 32.1 2.6 38.8-1.1-.7-11.9 7.7-24.7 4.5-36.3-7.4-28.8-37.2-54-67.9-46.7-11.6 0-19.3 16.9-31 18.1zM308.4 988c-59-.2-58.7-90.8.1-91.3 60.5-.3 61.1 91.2-.1 91.3zm-195.7-89.8c-53.4-3.1-65.9-73.9-12.8-92.8 69.3-15.5 83 91.2 12.8 92.8zm419.8-.5c-19.1-11.6-17-1.7-31.1-10.7-44.5-29.6-25.6-103.8 28.4-104.3 78.7-3 80.5 112 2.7 115zm-258-76.8c-70.3-3.6-51.8-107.5 13.5-86.2 45.5 10.3 38.1 84.7-13.5 86.2zM744.8 721c-77.3-1.3-77.7-112.2-1.2-114.3 72.3 4.3 75.4 106.9 1.2 114.3zm-149-148.2c-6.3.7-8.2-4.3-13.3-4.9-3.3.8-6.7 1.9-9.6-.8-17.9-9.5-32-32.3-27.3-54.4 2.1-6 2-11.2 8.1-14.4 7-6.6 1.7-14.2 15.7-17.8 73.8-39.3 111.3 82.8 26.4 92.3z" fill="#d81e1e"/><path d="M956.9 1266.4c-6.4-8.7-18.5-13.7-26.4-9.6-41 14.4-126.8 118.2-162 81.6-10.8-9.7-24-19.8-37-16.5-19.5 4.8-36.3-.8-51.1-8.5-21.6-11.3-46.4-16.1-65.6-32.4-9.5-8.2-21.5-13.3-30.5-24.2 45.4 13.9 98.1-5.4 109.6-54.8 25.3 51.3 102.6 22.9 85-31.4-1.8-5.7-2.6-9.7 2.8-13.7 6.4-6.7 22.4-13.9 18.7-24.8-.6-1.2-2.1-1.7-3.3-1.1-.4.2-.7.5-1 .8-4.5 8.4-13.6 11.8-19.5 18.6-3.6 4.1-7.7 5.4-11.8.1-4.5-5.9-11.1-8.2-18.1-9.6-1.5-.5-2.7-1.5-3.6-2.8 38.5-44.4 12.5-97.4-47.2-90.8.4-1.6.4-3.6 1.4-4.8 3.5-4 4-9.1 6.1-13.5.7-1.4.2-7.2 3.7-4.7 14.9 15 40.2 15.4 52.3-2.6 25-35.5-29.5-75.2-54.4-36.5-1.5 2.3-3.3 1.1-3.8-.7.8-8.8-7.4-13.3-8.8-21 26.2 5.5 51.1-8.3 60.3-34.2 16.4-52.5-53.1-93.6-89.8-43.9 1.3-66.2-3.1-130.2 2-195.9 1.5-12 2.6-24.2 4.1-36.2.7-5.2 4.2-4.8 8.2-3.8 18.5 4.6-10.9 20.7 20.7 57.1 32.3 40.2 105.3 13 107-36.7 5.2-44.4-43-81.7-84.3-63.5-15.8 5.8-26.8 17-34.3 32.1-2.9 5.8-7.5 0-11.3.4-2.5.2-2-1.6-2.1-3-.7-19.8 4.2-39.2 2.5-59.1-1.3-15.1.8-30.5 1.4-45.8.8-17.1-1.8-34.2 1.9-51.2 2.9-13.5 10.4-26 8.1-40.5-12.3-52.7-5.1-106.1-5.9-159.5.3-17.5 2.3-35.4-15.8-46.5-10.7-7.5-21.8-14.8-30.6.3-6.6 13.7-4.6 29.7-7.5 44.4-3.8 63.1-6.3 126.4-10.3 189.6-.1 2.7-.4 4.4-3.6 2.9-35.7-14.2-76 17.4-72.6 55.6 1.7 50.3 44.6 41.3 38.1 59.7-4.7 15.6-9.4 31.1-18.3 45-1.9 3-6.5 6.9-2.5 9.9 3.6 2.7 6.8-1.8 9.2-5 12-16 18.3-34.1 22.5-53.7 1.7-8 14.4 1 20.7-4.6.2-.2 1.6.7 2.2 1.4-1.3 26.9-6.1 53.8-11.2 80.3-13.3 32.9 3.3 56.6-2 89.5-3.9 20.9-4.3 42.5-6.5 63.7-.2 2.2 3 4.7-.5 6.7-28.8-71.4-133.6-42.6-119.8 33.7 3.4 17.2 11.8 30.4 26.5 39.3 7.3 4.4 11.7 6.8 4.6 16.1-5.6 7.3-11.3 13.8-18.5 19.3-.9.7-1.2 2.3-1.7 3.5 1.7.6 3.7 2.4 5.1 1.9 7.4-4.6 15.6-8.1 20.7-16 5-7.6 7.8-17.9 21.1-15.3 24 3.5 47.8-11.1 57.9-33.6 1.1 24.8-6 46.8-3.6 71.3.2 2.5-1.2 6.4-3.2 7.7-10.6 6.9-19.3 16.4-25.2 27.7-20.3-37.9-72.2-44.6-97.4-6.5-23.1 31.6-18.7 81.1 11.6 106.3-6.9 6-14.2 11.9-18.2 20.7-1.8 4.1-3.1 2.9-5.9.4-20.7-25.4-64.1-29.3-89.1-11.7-2.9 2.1-3.7 1.7-4.6-1.3-5.5-32.1-21.1-58.8-54.9-66.2-5.9-1.5-12.7-.8-17.1-6.7-15.6-24.2-38.4-42.9-53-67.6-12.1-23.8 10.1-22.1 24.2-18 3.8 1.2 10.2.5 8.8 8.7-3.3 19.2 2.1 41.1 20.6 52.3 38.2 25.1 90-12.7 76.1-56.5-4.4-16.3-27-39.1-43.4-37.2-15.8 1.9-32.5 2.9-42.6 19.1-1.2 1.9-4.1 8.2-8.3 6.1-7.5-3.7-15.3-3.2-23.1-3.6-6.4-.4-15.9.3-18.3-3.3-4.4-6.8-6.3-16.2-6.4-24.6-.2-19.5-.4-39.1-3.9-58.1-2.5-13.6 1.3-20.5 14.2-24 2.8-.8 4.7-2.3 6.8.9 16.3 26.4 50.5 29 72.6 11.7 24.6-19.2 26.5-65.1-5.2-81.8-17.1-7-3.5-16.2-10.8-29.9-2.1-7.5-10.6-5.8-8.9 1.8 1.6 38.4 1.6 10.3-25.9 24.2-21.3 7.3-35.4 37.5-28.7 59.3 1.2 4-1 4.7-2.7 5.2-4.1 1.3-7.4 5.5-12.1 4-1.1-.3-1.6-3.8-1.6-5.8-.2-9.5.2-18.9-.3-28.3-6.4-79.8-3.2-159.7-7.6-239.6-5.4-36.8 12.4-157.3-18.8-173-25.9-16.8-44.8 15.2-41.6 38.1 3.4 45.8-1.4 91.3 1.1 137.1 2.1 16.6.3 33.6 1 50.4 1 25.6 3.9 51.8-4.7 76.2-7.7 21.9-5.9 42.3 1 63.1 8.6 26.2 0 52.8 3.3 79.1 1.3 4 0 8.8-.2 13.2C95.8 777 41 832.6 69.4 879.9c1.6 3 1.4 4-2 5.3-6.5 3.6-24.3 7.5-24.7 15.1 1.4 3.8 11.9-.7 15.5-.5 7.9-1.3 15.1-10.5 22.4-6.6 22.8 12.2 44.3 15.8 65.1-3.4 1.9-1.7 2.7-.5 2.9 1.8 1.2 11.8 3.8 23.7 3.5 35.5-4.2 41.3 28.9 69.8 46.5 103.3 25.6 35.1-8.1 25.9 7.5 74.6-43.7-12.6-96.2-1.7-103.7 50.6-3 35.5 20.8 69.2 55.8 78 2.6.6 6-1.1 8.8-.9 7.9 1.7 5.9 18.5 10.1 24.5 2.1 4.5.4 3.9-2.5 3.8-13.4-.5-26.1 3.8-39.2 5.5-7.7.9-16.4 9.4-23.2 2-61-56.4-129.3 50.7-54.2 83.5 34.4 12.8 78.9-18.2 67.9-55.2-7.5-19.3 2.1-21.5 16.8-23 56.1-13.3 34.2 4.9 85.2 14.5-10 2.1-15.9 10.4-21.1 17-14 18.3-33.9 26.6-53.6 35.6-9.1 4.2-18.9 6.3-25.7 14.8-9.8 12.1-15.8 26.6-24.4 39.3-24.1 39.6-63.7 66.3-103.1 90.4-9.1 2.9-9.3 16 2 10.8 30.2-19.7 62.8-36.8 86.6-64.8 12.7-16.2 26.8-31.5 34.6-51 8-19.8 25.5-29.1 43.2-35.6 36.5-9.3 52.1-45.8 84.9-60.4 14.7-6 28.2-12.6 34.2-28.7.9-1.2 5.2-1.3 5.5 1.3 1.6 8 7.4 13 12.9 18.1 2.1 2 6.4 4.9 6.1 5.6-16.8 35.2-39.8 67.2-72.7 89.6-24.5 13.8-118.7 103.6-117.8 128.3 3.4 2.5 5.7-1.4 7.7-4.2 60-95.6 127.9-48.1 205.7-100.7 4.8-3 2.8-9.2-2.5-6.8-26.5 12.2-52.5 24.7-82.3 26.1-7.6.5-15.1 1.7-22.4 3.6-11.7 3.2-24 3-35.5 7.8 25.6-22.3 47.4-50.6 84-56.5 52.9-9.3 86.9-8.5 131.9-42.8 6.4-3.9 2.5-10.2-4-7.8-17.8 9.6-34.9 20.3-54.5 26.1-25.1 5.8-50.7 9.9-75.9 14.7 13.8-19.3 31.7-36.8 39.8-59.5 1.6-10 6.9-13.6 12.4-12.2 9.8 2.3 19.8 5.5 29.7 5.3 30.4-.8 55-35.2 32.5-58.7-4.4-5 .9-5.4 2.8-5.7 8.5-.6 15.2-6.1 23.5-6.8-3.7 22 1 37.8 18 52.2 7.8 7.2 14.8 16 29.6 13.6 9-1.5 19.4 2.5 28.2-3.6 2.3-1.6 3-1.2 4.6.4 15.7 15.6 36 23 56.7 27.5 59.9 14 112.3 47.1 170.3 66.8 54.9 23.3 98.8 23.8 133-29.7-8.3.3-13.8 7.6-19.8 12.4-10 8.5-19.8 17.6-33 20.8-44.1 7.2-83.8-18.3-124.5-31.2-14.1-4.7-27.2-13-40.6-19.8-24.3-14.2-53.9-16-77.7-27.8 11.2-3.6 24-4.5 28.2-18.1 2-6.4 5.2-8.4 10.9-3.8 24.2 23.5 56.8 33.5 87.3 46.3 27.7 16.2 53-5.4 76.3 19.7 45 47.6 127.4-60.6 170.5-80 6.7-4 13.8 0 19.1 4.7 4.3 3.9-.7 7.2-2.8 9.8-5.3 6.4-11.1 12.3-16.8 18.3-50.4 49.7-116.9 146.2-197.6 113-59.1-21.2-114.5-51-171.1-77.8-46.2-22.8-118.7-41.4-151.9 11-13.5 19.7-21 42.4-39.5 59.8-19.3 18.1-38.5 34.4-64.3 39.9-19.5 4.2-29.6 19.6-42.1 31.6-35.8 32.3-59.3 74.9-90 111.6-4 3.3-3.8 10.3 1.5 11.8 2 0 3-3.3 4.7-4.4 10.6-7 13.4-19.8 22-28.9 13.9-14.7 23.8-33.2 37.8-47.7 22.3-23 38.4-52.9 72.6-63.3 39.2-11.6 73.3-43.1 91.7-79.8 1.1-2.9 4.3-4.9 6.5-7.3 2.6 14.2 8.7 27.5 17.8 38.8 2.8 3.8 9.4 4.8 9 10.6.4 10.6-7.6 22.3-1.8 32.1 4.6 3.1 7.2-6.7 7.9-9.8.6-2.7-.7-6 .3-8.4 2.2-4.8 0-14 6.5-14.1 47.1 1.2 91.6-53.4 54.3-94.7 18.3 6.2 35.6 9.1 49.5 17.5 54.7 30.2 111.5 55.6 169.1 79.7 45.2 21.6 95.4 4.9 129.8-27.9 37.4-31.3 69.3-68.9 101.7-105.3 5.5-6.5 7.5-13.8 2.6-20.6zM732 977.3c31.9-1 32.7 47.9 1.5 49.6-34.8-4.3-33.8-46.5-1.5-49.6zm57.5-331.7c4.8-2.2 4.7 3.7 5.1 5.8 4 26.5-5.9 50.1-30.8 60.8-4.1 2.1-3.6-3.5-4.6-5.5-3.9-7.7-7-15.9-11.2-23.4-4.1-6.8 34-36 41.5-37.7zm-93.4-8.5c18.7-30.8 68.6-36.6 89.8-4 1.9 3.1 1.9 3.4-9.8 9.6-13.9 7.4-25.1 17.8-34.5 30.2-.9 1.2-.8 2.6-2.9.6-12.3-11.8-26.6-21.2-42.3-27.7-7.2-2.8-1.5-6.9-.3-8.7zm-6.4 25.8c1.7-15.3 9.5-3.3 12.9-1.6 22.2 11.1 41.1 25.7 48.4 51 1.1 3.9-1.1 4.9-9.5 4.5-25.7-.3-54.8-26-51.8-53.9zM510.5 790.7c14.5-8.2 48.4-3.1 59.6 9.3 1.9 2.1 0 2.8-1 3.9-12.2 12.1-24.8 24-31.4 40.5-1.4 3.5-2.7 3.8-5.8.7-13.8-14-31.9-17.9-50.2-20.8 4.5-15.6 15-25.8 28.8-33.6zm8.7 88.8c-2.9 9.8-7.9 10-15.4 4.3-15.2-11.4-24.3-25.6-22.8-45.3.3-3.5.3-3.5 5.9-3.5 15.5 2.9 31.5 7.3 40.6 22.4 2 4.9-5.9 16-8.3 22.1zm38 8c-7.6 3.9-15.9 3.7-24.7 6.3-15.9-4.2-1.7-13.4-.4-16.3 12.6-23.2 21.4-51.6 44.1-67 3.4-2.3 5.3 3.8 6.2 6.2 9.3 25.4 3.6 55.9-25.2 70.8zM348 925.1c8.4 22.9 1.4 40.3-18.7 53.9.1-7.1-4.4-11.4-8.1-16.1-11.9-14.5 12.8-9.8 26.8-37.8zm-33.7-24c11.5 1.5 22.8 6.9 28.2 17.5-8.9 11-18.5 21.8-31.4 27.8-2.5 1.2-9.3-7.3-14.3-11-7.5-5.4-15.3-10.5-22.9-15.8 9.8-13.2 22.9-20.7 40.4-18.5zM268.8 931c2.8-7.4 54.7 42.8 52.8 50.8-30.4 10.8-63.6-20.1-52.8-50.8zm30.3-123.3c-18.4 15.3-47.1 10-59.3-9.4-3.6-5.6 3.1-4.6 5.2-6.2 4.2-3.3 9.8-9.2 13.3-8.2 4.3-.4 50 20.1 40.8 23.8zm-13.3-64.2c2.9-9 8.1-3.8 10.4-1.9 14.8 11.1 25.3 33.3 13.4 54.5-1.8 4.5-3.2 2.6-5.9 1-9-5.5-17.9-11.4-27.4-15.9-7-3.3-12.4-6.2-5-13.3 7.2-7 11.7-15.5 14.5-24.4zm-53 32.8c-1.3-21.2 18.5-41.2 43.2-41.2 7.9.8-1.1 8.1-1.5 9.2-7.8 18.8-20.3 34-39.3 41.9-3.6 1.5-2.2-6.7-2.4-9.9zM76.7 1261.6c6.4-1.2 41.1 9.9 22.5 18.3-10.7 4.7-19.1 16.5-32.5 12.6-9.6-2.8-20 1.6-28.6-6.4 6.6-15.8 21.1-23.3 38.6-24.5zM33.6 1308c-1.3-8.7.8-14.2 10.3-9.6 8.4 2.4 17.7 2.6 26.5 3.5-2.2 3-3.7 6.8-6.6 8.7-8.4 5.8-9.4 16.1-15.8 23-6.3-7.6-13.3-14.8-14.4-25.6zm27.1 34.7c-16.4-6.3 38.3-57 49-58.7 5.1-2.6 6 2.9 6.9 5.1 11.2 34.2-21.5 66.3-55.9 53.6zm668.5-127c-5.4 13.7-30-17.2-28.2-27.7.2-5 7.3-2.3 11-2.6 6.7-.4 13.4.3 19.9 2 13.9 2.8-1.9 12.2-2.7 28.3zm38.1-45.7c1.6-2.1 2.8 1.4 3.4 2.4 10.8 21.7-11.9 49.1-34.9 48.6 4-8.2 8.2-15.3 11-23 4.2-11.4 13.4-18.9 20.5-28zm-5.7-11.8c2.5 2.1 2 3.1 0 5.2-5.8 6.2-10.7 13.2-17.1 18.6-1.7 1.5-7.7-1.7-11.5-3.2-10.3-3.3-21.6-2.1-31.9-.8 2.2-26.4 40.4-39.3 60.5-19.8zm-41.3-283.9c19.3 8.3 30.9 29.6 25.6 50-3.6 1.9-4.5-3.5-7.3-4.8-18.5-8.6-21.2-25.1-21.5-42.8-.1-2.1-1.1-4.4 3.2-2.4zm-54.9 23.1c6.6-13.7 17.2-22.2 32-25.9 10.1-2.5 14 .9 11.8 8.4-1.7 10.9 2.3 17 2.9 24.9-15-2.6-29.7-7.8-45.2-4.4-2.2.6-1.8-1.8-1.5-3zm12.3 11.4c21.7-1 40 7.8 57.8 18.3 8 4.7 4 15.1-8.2 21.9-24.8 15.5-63.3.3-62.7-30.7-3.8-12.2 4.9-9.1 13.1-9.5zm-102.5-345c-18.5-7.9-36.8-43.3-19.8-61.8 14.4 15.7 21.3 36.7 23.6 57.6.4 5.7-.5 6.4-3.8 4.2zm6.3-39.2c-4.8-10.9-11.5-20.4-18.6-29.9-5.2-7.1 5.4-8.2 8.9-11 16.4-12.1 40.3-7.2 55.1 5.2 4.3 3 1.2 3.4-1.4 4.7-15.3 7.3-27.7 18.5-38.9 31-2.1 2.3-4 2.5-5.1 0zm21.9 43.1c-22.4 5.3-13.4-10.6-14.6-18.3-4.3-29.8 22.7-34.3 39.7-45.9 13.4-9.1 8.5 7.3 11.9 11.7 7.3 21.9-15.1 47.5-37 52.5zm37.3 199.4c-.4-1.5-2-2.7-3.1-4.1-.9 1.4-2.4 2.7-2.7 4.2-2.1 13.9-4.3 27.8-6 41.8-5 34.5-19.5 60.6-31.9 94.5-1.6-26.2 3-46.2 5.8-71 2.1-37.7 5-75.4 8.1-113.1.7-9.5-5.1-17.8-5.3-26.9 1.7-19 8.6-37.8 11.2-56.8 2.1-18.1 6-36.7 5.6-54.8-2.9-13.1 10.2-14.9 15.6-21.6 15.1-18.6 16.2-37.6 8.2-58.9-8.8-24.5-25.3-14.5-18.9-43.6.9-41.3 5.8-82.1 7-123.3 2.2-18-3.3-36.8-.2-54.9 1.1-8.1 2.8-16.1 4.4-24.1 1.1-5.4-1.9-11 2.3-16.2 3.7-4.6 7.5-4.2 11.9-2.1 14.3 6.8 20.4 18.7 19.9 33.9-1.6 57.3-10.2 115.8 5.8 171.8 2.3 6.4-2.3 12.8-4.4 20.5-6.3-38.6-22.5-73.8-18.8-112.2 2.6-21.5 3.5-43.4 9.4-64.5.5-4.7 1.8-11.3-2.4-14.6-23.1 50.7-22 112.5-2.4 164.9 9 30.2 4.9 64.7 7 96 1.1 14.5-2.7 27.9-7.1 41.5-9.3 30.7-18.7 61.5-27.8 92.2-3.6 14.5-6.3 29.3-8.7 44-.6 3.3 3.2 5.6 6.3 7.2 10-44.5 23-83.3 36.9-128.1-4.3 58.9-16.1 111.4-13.3 169.5-.2 19.5.4 39 .9 58.5.4 17.4-2.8 34.7.2 52.2 1.5 23-.8 46.5 2.6 69.5-20-6.7-39.7-8.9-60 0-.1-12.7 6.7-23.1 11-33.8 16.8-43.5 42-89.8 32.9-137.6zM469.8 1065c-50.7-64 23.4-162.6 79-88.2 10.8 21 18.8-21.5 51.6-31.3 53.2-21.3 117.7 33 91.8 89.9-2.7 5.9-7.1 11.7-3.8 18.4 1 2.6 2.3.2 3.7-.4 1.8-.7 3.7-1.1 5.6-1.2 17.3-1.5 47.9 12.8 52.9 26.7 7.6 21.3-1.7 50.9-26.4 62.1-13.9 5.5-31.2 20-43.2 3.2-10.8-13.1-26.3-17.1-43.1-20 7.4-5.3 53.5-32.8 48.5-40.2-3.3-3-6.8.4-9.3 2.4-14.5 11.8-30.1 22.2-46.7 31.1-10.8 6.5-23 10.4-35.6 11.4-.4.1-1.7-1.5-1.6-2.2.2-1.2-2.5-2 .5-3.8 23.7-12.6 45.8-27.1 63.8-47.3 4.7-4.6 11.8-7 12.3-14.5-2.1.1-4.8-.7-6.1.4-18.2 15.6-36.3 31.3-56.5 44.2-5.3 3.3-10.9 6.2-16.8 8.6-.5.2-3.2-4.3-4.5-6.9-1.8-3.6 2.2-5 3.6-5.8 14.9-8.3 26.8-19.7 38-31.9 8.8-10.6 20-19.2 25-32.4 2.5-4.7-2.8-9.3-5.1-3.7-14.2 18.9-30.7 36.1-49 51.2-5.1 4.2-10.1 8.7-15.7 12.2-2.9 1.8-4-2.7-6.1-3.8s-.9-1.5.2-2.5c14.1-11.1 23.3-25.9 32.7-40.7 8.5-12.8 16.5-25.8 21.1-40.6 1.7-5.3-4.1-8-6.8-4.1-6.1 13.9-12.6 27.3-21.8 39.3-9.5 13.1-17.6 26.9-28.6 38.9-3 3.9-5.5 1.5-8.3-.3-3.2-2.1-2.6-3.8-.4-6.5 13.2-16.5 37.8-53.2 38.5-73.9-.3-1.4.7-4-1.9-3.8-1.5.1-3.8 1.3-4.2 2.6-7.1 22.7-20.4 42.3-32.9 62.2-2.4 3.9-3.8 16.7-15 9.1-1.4-.9-.4-5.9 2.1-9.5 10-14.5 15.6-30.8 19.8-47.7 1.1-4.4 4.8-8 4-13-.5-3.1 1.3-8.1-2.7-8.6-4.7-.6-4.4 5.2-5.2 8.1-5.9 21.1-14.4 41.5-25.2 60.5-2 3.4-3 8.9-8.8 4.6-5.1-3.8-.2-7 .8-10.7 2.3-9.1 3.8-18.3 4.4-27.7 0-7.3 6.3-35.7-2-38.1-1.4.5-3.2 2.3-3.3 3.6-2.2 19.1-3.9 38.2-6.3 57.2-.9 4.7-2.8 9.1-5.6 13-1 0-4.3-1.3-6.3-1.8-2.3-.5-1.2-1.7-1.1-3.2-.7-17.4 1.5-35-2.4-52.2-.8-6.9-11.5-6.5-8.2.3 4.2 16.4.8 33 2.1 49.5.4 5.6-1.7 5-5.7 5.7-7.7 1.5-15.7 2.2-22.8 6.9-3.9 3-5.8-2.8-7-4.8zM455 1215.3c-.3 1 .7 3-2 2.1-14.7-6.5-31.5 2.9-31.8-1.9-.8-3 2.2-2.1 3.4-3 13.7-10.9 26.6-22.5 31.7-40.5-.4 14.6 3.3 29.1-1.3 43.3zM71.2 864.2c-6.7-14.2 1.9-35.1 13.1-45.6 1.6-1.4 1.4-1.7 2.9.6 7.8 11.9 16.8 22.8 28.1 31.6 1.8 1.4 2 2.2.6 3.2-8.6 6.4-17.7 12.1-25.8 19-13.5 11.8-14.2-2.8-18.9-8.8zM145 881c-17.9 14.6-37.1 18.2-57.3 5.2 11.5-8.3 24.5-14.4 34-26 4-4.9 9.3 3.4 14.6 3.9 5.5.8 10.9 3.6 16 6-2.4 3.7-4.1 8.2-7.3 10.9zm9.8-19.5c-24.6-7.7-44.3-24.9-59.3-45.1-3.4-6.2 2.9-6.6 5.9-7.1 31.2-7.5 62.2 20.3 53.4 52.2zm19.4 113.3c-19.1-27.2-7.3-63.1-16.3-93.9 4.5-19.9 12-39.3-2.3-58.3-9.2-43.4 6.6-89.3-13.2-131.7-3.4-7.7 1.1-19 3.4-28.5 14.8-42.6 17.6-87.5 25.7-131.5 4.9-21.6 6.8-43.4 4.9-65-.9-10 1.5-20.8-3.1-30.5 3.6-6.5 1-7.4-1.3-13.2-.2-.6-2.7-1.5-3.4-1-3.3 2-1.4 5.4-1.4 8.1-.8 33.5 3 67.2-5.5 100-3.2 17.4-5.4 34.9-6.7 52.5-1 4-3.5 3.2-2.8-.5-2.2-58.4-3.2-116.8-1.2-175.2-1.3-17.3-1.9-59.9 26-47 17.7 8.9 12.6 25.8 14 40.3 1.4 46.8 1.5 93.6 3.5 140.6 2.8 80.5-3 161.3 4.6 241.6 6.7 51.9 3.5 99.9 17.1 151.8-35.6-38.3-28.6-87.5-29.4-134.6 1.3-44.9-7.5-89.2-9.8-133.8 0-1.1-2-3.3-2.3-3.2-10.1 4.8-4.7 30.9-4.1 40.7 6.9 46.2 4.9 93.2 7.3 139.7.8 22.9 1.9 45.8 11.1 67.2 21.8 37.4 55.1 67.2 80.9 102 1.7 2.1-2 3.3-3.8 3.6-18.2 2.8-33.9 10.2-46.7 23.8-2.7 2.8-5.1-2.5-6-4.2-10.6-21.7-25.5-40.3-39.2-59.8zm80.2 299.9c-16.7 7.8-35.2 5.3-51.4-.6-12.1-4-20.8-19.8-23.9-32.7 0-13.3 12.9-26.6 26.9-30.1 43-13.4 110.9 33.2 48.4 63.4zm132.6-20.2c-.1 16.3-21.1 32-38.1 29.4-21.1-2.8-49.4-9.3-51.7-34.8-.1-11.1 10-14.2 17.7-18.3 21.1-11.2 42-9.6 61.5 4.4 6.2 4.5 10.9 10.8 10.6 19.3zm-14.7-30.9c8.1-10.9 48.8-57.4 35.1-66.1-3.5-1.3-3.6 3.2-4.2 5-6.6 18.1-19.6 32.1-30.3 47.6-2.7 3.9-5.9 8.7-12.3 6.7 11.1-19.7 20.5-39.9 22.7-62.7.5-3.6 4.4-9.3-1.5-9.4-7-.1-5.1 8.6-6.4 13-4.9 17.7-12.7 34-20.3 50.6-2.8 7.5-9.3 9.4-14.2 7-4.9-2.8-.5-9.1.6-12.8 6.7-20.8 9.9-42.6 9.4-64.4-.1-2.8 2-7.7-2.5-7.8s-5.7 4.6-5.6 8.9c.3 11.6-.9 23.2-3.4 34.6-2.2 11.6-6.6 22.9-7.5 34.8-.8 11.4-11.6 8.3-17.3 12.4 2-23.2 7.9-45.9 6.3-69.4-1.5-6.6 1.2-34.4-7.4-33.2-4 .2-2.5 4.5-2.5 7.3-.6 29.3 1.4 58.5-5.5 87.3-1.5 8.8-.6 18.6-12.2 21 2.1-41.9 6.8-86.6-8.3-126.6-1.4-3.2-2-9.1-6.8-7.3-4.5 1.8-1.9 7.5-.7 10.6 5.2 14.1 6.9 28.5 7.6 43 1.3 22.5.6 45.2 1.7 67.8.2 3 .6 6.5-2 8.3-2.8 2-2.3-2.2-3.6-3.3-6.2-5-11.5-10.6-10.3-20 2.3-17.2-1.2-34.2-3.5-51.2-.8-12.9-6-24.8-10.5-37-.3-.8-2.7-1.3-4.1-1.3-2.4-.2-1.6 1.9-1.8 3.3-1.9 13.2 7.8 24.3 6.5 37.6.2 8.9 1.5 17.7 3.9 26.2 2.5 8.8-3.3 17.4 1.3 25.7-1.4 4.3-17.4-6.9-17.4-9.1.4-23.8-7-45.7-16.5-67.1-2.2-7.2-10.7-2.8-6.8 3.6 7 16.7 10.4 35.3 13 53-.6 4.4 5 11.2.1 12.2-7.6 1.5-10.8-4-12.6-10.1-3.3-18.3-13-33.7-23.1-48.6-1.2-1.8-3-4-6.1-1.5s-.9 4.1.2 6.1c8.8 16.7 18.5 34.1 21.7 52.7-.2 1.5-.8 2.6-1.9 1.7-5-4.4-9.7 10.8-14.3-1.3-.3-6.6-29.1-52.2-35-42.1-1.6 2.1-1.4 4.3.8 6.4 11.9 11.1 19.4 25.1 27.1 39.1 3.5 6.4-3.2 8.1-4.9 8.8-8.2 4-10.8 18.7-22.2 15.2-52.6-12-77.6-88.4-21.6-114.3 36.3-18.9 83.1 16.3 71.9-9.3-27.1-72.3 79.9-112.1 118.7-52.8 12.9 16 5.8 53.5 20.6 42.7 108.2-64.5 143.1 109.7 17.9 128.5zm109.5 48.9c-14 13.9-52.8-7.8-59.6-23.8-7.8-13.6.3-26 20.7-25.3 17.1 2.3 52.7 24.9 38.9 49.1zm93.5 12.2c-11.7 12.9-54.3 10.8-70.9-3.3-21.6-23.2 24.5-39.6 42.8-36.7 17.9.6 43.1 22 28.1 40zm-.6-38.2c-6.4-.7-3-6.1-1-8.6 12.8-18.2 30.1-45.1 28.5-67.6-4.4.6-4.2 4.6-5.3 7.5-8.6 21.3-20.4 40.9-32.4 60.2-2.5 4-7.8.3-11.6-.9-3.9-1-.7-3 .5-4 4.4-8.6 28.2-72.6 19.5-75.7-5.3.4-4.4 6.6-5.6 10.1-5.9 17.6-10.1 35.8-18.2 52.6-2.3 4.8-4.9 9.4-7.9 13.8-3.4 5.1-8.8-.8-12.2 2.8 5.4-23.3 16.5-44.8 18.1-69.1-.3-4.1 4.9-28.3-.1-27.4-1.4.1-3.6 2.7-3.8 4.4-3.2 27.3-10.3 53.5-19.7 79.3-3.6 9.8-6.1 18.6-17.3 20.2 8.3-37.7 20.8-83.2 7.8-120.2-.9 1.4-2.6 2.8-2.7 4.2-.5 15-.2 30-2 45-2.4 25.6-9 50.7-16.6 75-16.4-11.8-4.6-26.5-4.1-40.2-1.1-20.3 4-40.6.7-60.6-.3-4.5-.9-11.4-4.4-11.1-4.9.5-3.8 8-3.2 11.6 3.2 18-.4 35.5-2.5 53.2-.8 6.5-1.4 13-2.3 19.5-.3 2.3 1.2 6.4-1.8 6.3-3.5-.2-7-2.8-10.2-4.7-2.2-1.3-1.7-3.4-1.4-5.8 2.7-17.2 2.7-34.7 0-51.8-3.5-17.7-2.3-36.4-8.2-53.5-3.6-13 7.5-19 14.8-26 21.2-20.4 58-12.2 77.5-2.5 42.1 19.7 30.7 58.2 44.8 52 33.3-6.3 82.8-5.7 92.5 35.1 10 36.8-15.4 73.8-51.7 81.4-20.3 6.1-39.1-2.4-58.5-4.5zm-148.2 93c10.9-18.1 49.5-25.6 68.3-12 3.8 2 3 5.2 0 6.8-12.6 6.8-21.8 17.1-30.3 28.2-.6.8-1.2 3.8-4 1.2-9.5-8.9-20.7-15.9-32.9-20.5-3.1-1.2-2.6-1.6-1.1-3.7zm18.4 56.5c-1.1 2.2-1.3 5.4-6.6 4.8-6.1-5-13.8-10.6-17.1-19.8-5.8-17.8-7.6-39 14.7-23.3 31.2 16.7 19.1 10.9 9 38.3zm64-42.4c2.2 24.7-22.6 47.7-47.6 53.3-7.1 1.3-12.5-.6-8-8.9 4.6-11.8 50.7-85.4 55.6-44.4zM70.4 1523.8c-12.5 15.3-25.7 30.9-41.7 43.5-7.9 4.4-16.1 23.6-23.5 23.8-4.2-.5-1.4-3.7-2.5-5.4.3-4.3 2.3-8.3 5.7-10.9 20.3-17.5 38.9-37 55.4-58.1 16.8-21.3 29.1-46.3 47.2-66.9 43.3-51.9 102.4-87.8 147.8-137.6 3.4-6 8.9.4 5.1 5.1-40 52.7-100.3 85.1-142.4 136.3-19.4 21.4-32.8 47.8-51.1 70.2zm120.5-13.6c-37 15.1-76.3 26.9-105.2 56.4-13.3 10.7-20.6 28-35.5 36.1-.5-.9-1.2-2.4-1.9-3.6 28.4-44.4 72.2-79 124.2-90.9 25.1-9.3 47.7-27.9 66.9-46.5 22-.9-42.1 48.4-48.5 48.5z"/></g><g><path d="M52 1548v15l-37 37h946l-37-37v-15H52M52 52V37.7L14.3 0H0v1600h15l37-37V52m872 0V37.7L961.7 0H14.3L52 37.7V52h872m52-52h-14.3L924 37.7V1563l37 37h15V0z"/><path d="M961 1600h15V0h-14.3L924 37.7V1563l37 37H0V0H961.7M52 52V37.7L14.3 0m.7 1600l37-37V52h872m0 1496H52" fill="none" stroke="#333" stroke-width="2" stroke-linecap="square" stroke-miterlimit="3"/></g></svg>