<svg xmlns="http://www.w3.org/2000/svg" xmlns:xlink="http://www.w3.org/1999/xlink" viewBox="0 0 976 1600"><path d="M960 22v1556c0 3.3-2.7 6-6 6H22c-3.3 0-6-2.7-6-6V22c0-3.3 2.7-6 6-6h932c3.3 0 6 2.7 6 6z" fill="#fff"/><defs><path id="a" d="M960 22v1556c0 3.3-2.7 6-6 6H22c-3.3 0-6-2.7-6-6V22c0-3.3 2.7-6 6-6h932c3.3 0 6 2.7 6 6z"/></defs><clipPath id="b"><use xlink:href="#a" overflow="visible"/></clipPath><g clip-path="url(#b)"><path d="M294.8 1128.6c-17.6-11.9-2-46.2-1-63.8 1.7-7-6.1-7.2-10.6-8.9-18.3-11.5-57-28.9-54-47.8 65.2-33 67.1 15.6 89.7-44.5 4.2-6.1 8.3-21.7 16-21 26.6 5.4 28.6 62.5 57.6 49.7 81.9-24.1 56.9 8.3 20.6 54.2 9.9 15.2 35 31.7 32.8 55.6-26 11.2-54.2-9.4-78.2-15-20.8 17.6-42.3 31.7-72.9 41.5zm-159.8-3.4c-26.7-6.9-54.7-64.4-17.5-72.6 19.6 1.4 41.7 68.7 17.5 72.6zm59.6-.6c-13.6-14.5 8.4-47.9 22.5-53.7 11.7-7.7 36.9-10.1 34.5 10.1-9 23.3-35.1 35.4-57 43.6zm314.8-36.1c-22.8 4-63.5-34.7-28.7-45.1 17.7.5 77.4 43.6 28.7 45.1zm94.3-25c-24.5-9.1 8.3-42.9 23.4-45.2 12-4 33.4 1.1 31.3 18.7-11.2 17.7-35.2 22.2-54.7 26.5zm-45.7-33c-23.2-9.1-26.6-49.6-13.6-67.5 47.7-41.3 36 52.1 13.6 67.5zM341.8 917.3c-88.6-14.3-69.5-130-15.7-56.8 4.4 14.3 39.5 49.5 15.7 56.8zm94.4-5.7c-49.4 2.8 15-47.5 32.5-44.8 67.7 20.8 9.6 48.7-32.5 44.8zm-53.6-46.4c-17.6-13.8-16.9-47.2-13.3-69.5 1.3-23 39-29.5 37.8-.2-1 23.1-7.9 54-24.5 69.7zM976 832.6c-4.8-.6-6.9-8-12.2-7.9-12.7 5-26.1-.2-38.2-4.7-32.3-13.8-74.7-21-99.3-46-3.4-6-8.1.1-12.4-2.1-12.7-11.2-37.5-17.1-44-32.3-38.5-19.3-70.5-53.2-98.6-85.7-29-26.4-56.7-57.2-83.5-89.2-40.7-33.3-67.6-122.2-115.2-132.1-53.1-14.3 2.4-59.5-7.8-93.6 1.1-10.4.5-28.8-12.3-13.3-11.6 10-27.6 16.2-41.5 23.2-9-4 .5-28.9 1.5-37.2 5-5.1-2.2-8.3-3.1-12.7-.3-16.3.4-36.9-8.1-52.5-19.1-80.5-29.8 26.3-56.2 39.4-10.5 2.3-13.2-39.4-22-49.8.8-8.7-15-26.9-20.7-13.8-10 27.1-13.1 59.9-36.6 17.5-2.3-7.5-11.7-2.9-16.6-8.2-30.5-21.8-15.3-.8-38.3 19.6-6.4 3-3.6 15.9-9.3 19.1-2.4 7.9-9.1 15-11.4 22.4 1.2 14.3-5.3 38.7-21.9 20.8-9.4-5.7-23.1 1.8-32.5-7.8-8.3-1.2-22.1 3-28.2 8.7.6 8.7 8.6 17-5.2 20.8-9.7 4.8-16.5 13.2-26.1 17.4-2.8.2-5.1 2.3-5.5 5-2.5 7.9-6.9 17.7-17.1 20.9-10.7 5.4 1.6 17.8-4.7 28.9-7.4 9.2 2.9 13.8.4 25 .1 5.1 2.4 9.4 2.2 15.1 1 6.5 8 11 11.2 17.9 4.9 6.2-.2 13.3 5.9 18.8 21.4 65.8-19.1 125.4-65.8 171-2.2 2.7-7.1.9-6.9-2.7 2.2-44.6-1.5-246.2 0-285.9 2.8-2.7-5.3-99.5 3.3-98.1 4.4-1.3 11-8 8.4-13.2-1.7-3.2 2.1-5.3 2.7-8.2.8-11.7 20.2-4.2 15.6-16.9-1.4-3.3 1.2-6.7 2.7-9.7 6.8-11.4 15.8-9.7 23.7-14.9-.3-14.7 12.6-21 25.6-24.9.8-12.7 14.9-16.5 22.9-24.8 5.3-7.1 15-.8 18.2-8.6 6.1-9.1 20.6-14 30.8-16.8 6.1-2.5 10.4-9 18.1-9.6 12.8-3.8 23-11 35.3-6.4 8.4-9.6 27.2-18.1 41.3-11.9 8 6.4 9.2-6.2 15.8-7.3 4.9-.3 10.3.4 14.6-2 7.1-1.1 21.7 5 23.4-5.7 9.7-24.1 25-47.2 41.4-67.5 14-13.1 5.6 18.4 15.2 20.4 46-39.9 46.7-46.1 39.9 22.1 2 26.7 61.8-51 76.4-54.5 25.9-6.8-14.6 71.5-19.9 82.8-5.3 27.4 58.8-37.8 81.3-37.1 25.6-7.6 79-29.3 60.1 18.1-3.1 20.8 53.7-11.1 33.6 23.8-10.8 31.6-37.5 48.1 13.6 47.7 10.7 14.9 12.8 2.4 27 2.5 17-.4 31.5 9.9 48.6 8.6 8.3 6.2 3.3 7.4 17.3 10.5 13.4 6.3 28.9 12.4 36.9 25.4 20.1.4 34.2 18.8 51.9 27.8 4.3 3.4-1.2 12.9 7.8 12.3 20.7 3.3 32.6 23.9 48.8 35.9 2.5 18.7 17.6 11.2 26.2 25.4 8.5 10 24.7 16.9 24.3 31 20.5 9 34 33.8 51.3 47.4-4.3 146.8 7.5 321.3-4.1 462.4z" fill="#5d4e8c"/><path d="M794.9 1570.6c-36.4-7.7-60.6-50.3-99.8-43.3-44.5-1.1-47-48.8-92.7-44.7-65.4 7.2-72.2-69-120.2-93.3-27.9-27.1-24.1 20.3-80.3 33.5-37.6-2.3-75.6-16.4-113.1 3.3-64.4 26.6-91.9-15.3-171.9 3.8-58.1 2.9-71.7-62.4-108.6-90.7-40.6-20 27.9-71.9 52-74.1 42.2-23.7 60.5-76.7 117.8-69.3 43.1 6.7 55.2-36.9 95.1-43.1s87.7 4.2 108.8 38.6c36.3 57.7 12.3-56.9 126-56.3 49.8-2.8 47.3 37.1 72.5 10.2 7.3-8.2 21.4-1.7 23.9-11.7 8.1-28.6 44.3-60.8 75.6-61.6 5.1 1.1 9.2-3 8.3-8.1 3.3-33 10.5-61.3 35.7-87.2 30.5-34.3 68.9-2.3 103.9 1.8 39.4-5.5 67.2 9.7 86.7 42.3 54.2 37.5 87.6 99.6 102.2 163.8 2.1 18.9-32 14.1-32 37.1-5.9 35.6-59.7 78.4-96.4 79.7-13.8 4.3 8.1 44 1.5 58.8-2.8 37.4-22.7 69-28.1 105-1.8 13 .1 25.6-7.6 38.1-11.2 18.3-29.4 27.4-40.8 45-3.5 5.6-8.8 1.3-13.1 4.3-5.7 4.5 3.8 16.4-5.4 18.1z" fill="#333"/><path d="M0 1604c-11.3.8-.3-258-4-262 12.7-12.3 32.7 22.6 38.4 31.5 26.1 49.8 67.4 69.6 120 54.3 29.4-7.4 60.8 9.3 90.1 11.4 32.7-2.3 61.2-21.8 94.3-22.2 45.5 8.9 89.3 15.4 119.4-29.8 2.2-3.9 6-5.1 9.5-2.7 58.6 22.7 59.4 101.6 127.9 100.8 45.8-5.9 56.3 45.2 102.2 45.7 37.4-5.4 61 36 94.2 40.9 20.5-3.2 28.6-38 46.1-45.2 22.8-14.8 27.9-46.1 28.5-72.4 11.9-46.1 37.5-89.9 21.2-139.1-9.4-17.3 15.2-13.5 24.6-17.3 19.1-6.3 30.7-13.2 38.6-26.9 4.4-6.7 26-27.3 28.8-16.5V1600c1.2 11.8-975.9-.1-979.8 4zM976 367.1c-17.2-15.9-35.2-41-50.7-59.2-8.3-2.9-17.7-11.5-21.1-20.4-5.3-9.3-21-14.3-26.1-26.2-3.7-6.3-15.2-6.4-18.1-13.9-4.7-3.6-5.2-10.5-11.1-11.5-8.3-1.8-13.3-9.5-19.1-14-5.2-7.2-20.7-10.2-25.5-19.2-3.3-8-13.8-2.9-19.5-11.3-2.6-2.1-3.6-8.2-8.3-7.7-12.6 4.7-16.8-12.2-26.2-14.8-10.4-.1-17.6-8.3-25.8-12.1-9.6 0-17.7-7.8-25.8-8.9-8.6 2.8-15.6-4.5-22.9-7.2-9.8 5.2-18.5 1.3-27.7-3.3-27.1 6.4-39.8 2.6-24.2-25.8 1.5-10 18.1-28.7 5.5-34.8-7.7-3.2-14.8.6-22.1 2.4-18.1-2.8-.2-25-4-34.5-30.3-8.9-65 7-93.7 16.1-15.1 12.4-36.2 20.1-45.9 34-2.7 2.2-6.1 3.5-8.9 1.6-2.2-2.1-1.3-5-.4-7.8 11-22.4 23.4-48.3 24.9-70.8-1.9-42.5-88.3 80.1-81.8 39.2 7.9-69.7-3.8-51-43-16.6-7.6-4.4.9-21.2-10.4-22.2-15 10.2-26.5 31.1-39 44 .5 18.3-10 38.3-30.5 29.7-10.2-2.6-22.6 9.7-35.4 3.2-12 6.1-26.3 9.1-38.8 12.3-8.9 3.1-18.4 9.3-28 7.9-9.4 4-19.6 15.7-31.4 13.1-7 1.7-9.8 11.7-18.1 12-4.3 2-10.5.8-11.7 6.4-1 5.3-7.3 3-9.7 6.7-4.2 6-11.2 7.1-17.9 8.1-4.5 8.3-12.2 19.4-23 22.8-2.8.2-5.2 2.3-5.6 5.1-.9 6.8-7.6 9.4-10.1 12-1.3 3.8-7.8 10.8-10 9.6C23.3 224 7.5 242.6 5.1 260.9c1.6 5.9-7 14.8-9.1 5.5V0c130.3-11.8 432.1.1 569.2-4C693.8 0 855.9-11.6 980 0c-.1 83.7 0 175.4 0 259.1.5 26.7-.3 76.8 0 104 0 2.2-1.8 4-4 4z" fill="#ffeb5c"/><path d="M126.7 989.3c-50.6 2.2-95.3-15.5-130.6-24 0-22.8.1-63.8 0-86.9 1.3-7.2 9-3.5 11.3 1.2 12.3 14.8 28.7 26.9 53 39.4 33.2 17.9 63.8 28 104.7 36.2 8.4 1.8 14.5 4.2 16.6 12.6 11.1 6.3 29.4-7 38.8 1.6-24.7 23.4-65 17.2-93.8 19.9zM634 926.9c-11.8 1.8-10.1-13.5-23.5-6.1-78.7 13.5 25.8-23.3 43.1-33.9 44.5-22.3 88.9-61.6 126.9-100.3 13.6-25.7 33.9-7.5 48.9 4.7 11.4 8.3 38.1 7.2 46.2 22-14.8 22.4-44.1 36.7-66.8 53.7-54.7 35.2-111.8 50.6-174.8 59.9zm-416.6-46C132 876.6 53.6 812-4 767.9V667.4c6.4-8.3 19.3-14.2 27.4-22 57.4 73.6 113.9 158.8 194 212.1 4 3.5-2.3 10.6 4.6 12.8 14.4 3.1 6.9 12.9-4.6 10.6zm317.8-39.3c-7.8-7.7-16.7-.9-25.8-.2-16.6-4.1 25.3-27.7 29-33.8 44.5-32.3 78.9-75.3 112.1-118.6 6.7-7.3 9.8-20.2 19.3-23.7 14.4 6.7 26 27 38 35.9 11.8 5.1 19.4 19.1 30.3 26.4 11.7 10.2 5.4 16.1-3.3 20.8-58.3 47.6-123.8 84.9-199.6 93.2zM248.4 723.1c-20.9-14.2-20.8.4-38.2-10.4-8-6.4-9.2 8.3-17.2 5.9-19.4 1.6-31.8-14.7-44.2-24.6-9.3 3.8-15-8.9-17.4-15.7-1.5-6.3-11.3-5.3-11.7 1-42.7 7.3-70.2-69-51.9-107C103.2 484.7 26.6 440 58 394.9c11.4-5.9-5.2-19.7 14.4-31.5 11.5-2.8 6.9-10.3 18.2-18.3 7.5-7.3 19.4-10.9 25.4-18.5-5.3-14.6-8.6-15.7 11-15.5 107.2 17.4 27.9 16.2 103.2-80.1 5.7-8.4 14.2-3.9 18.7 1.9 53.8 45.2 32.1 35.5 58.4-16.3 19.3 6.8 25.9 82.5 39.9 69.6 23.1-18.5 25.3-49.3 38.5-70.9 25 27.9 24.6 89.4 21.6 126.8 14.6 30.9 90.2-85.6 41.6 62.8-4 39.4 69 23.4 54.1 71.2-4.6 15.1-16.9 23.6-15.2 41.4 9.5 86.3 14.3 97.6-66.9 47.7-74.9-30-52.5-27.5-57.9 22.2-1.4 12.3-17.1 22.2-18.8 34.5 15.6 8.6 17.9 24 7.6 42.3-7.9 13-18.5 25-31 20.4-5.3.3-7.8 8.1-13.7 5.8-10.6 3.5-15 27.6-29 23.5-10.2-4.4-19.1 10.1-29.7 9.2zm47.1-633.3c-48.2 6.1-113.3 20.7-181.8 57.3-24.6 13.1-46.2 27.2-64.8 41.1-3.7-12-7.5-24.1-11.2-36.1 23-17.7 55.4-38.5 97.1-54.8 68.6-26.7 130-28.2 166.9-26.2-2.1 6.3-4.1 12.5-6.2 18.7zm665.1 256.6c-43.5-51.4-85.2-88.3-117.1-113.3-25.3-19.9-48.1-37.7-81-54.8-58.3-30.3-112.8-40.2-149.5-43.6 4.6-10.8 9.1-21.6 13.7-32.4 46.8 4.4 123.6 17.8 205.5 63.5 55.8 31.1 96.2 67.3 123.3 95.9 1.8 28.2 3.4 56.5 5.1 84.7z" fill="#d81e1e"/><path d="M1019.3 1178.3c-9-33.7-20.1-66.8-40.3-95.8-12.3-18.7-24.2-37.3-43.3-50.4-9.3-6.4-18.8-13.2-25.2-23-3.4-5.2-5.7-11.3-9.8-15.9-30.3-34.1-67.8-7.2-119.6-36.5-54.7-20.3-96 46.7-97.5 94.5-.4 5.8 4.5 18.2-11.1 16.3-28.2 4.1-52.1 26.9-66.8 50.7-2.7 4.5-5.3 10.3-9.5 12.3-4.9 2.4-10.6 2.8-15.2 7-3.3 3.1-8.8 7.3-11.9 6.3-4.5-1.4-1.7-7.9-2.1-12.2-.6-6.9-1.7-14-.8-20.8 1.2-8.7-2.8-19.7 10-24.6 7.3-3.2 12.6-16.5 20.5-18.5 19.5-.1 37.3-5.6 53.7-15.8 44.6-38.3-38-53.7-51.8-16.7-6.3 15-9.5 32.1-24.5 42.3-5.7 4.8-9.2 7.7-9.1-3-.7-8.4-1.5-16.8-1.9-25.2-.3-5.3-1.9-12.1.6-15.7 14.9-23 39.8-78.1-.9-87.1-33.3 3.1-35.9 50.2-23.2 72.7 4.1 7.8 13.8 11.3 14.5 20.9 1 13.5 1.6 26.9 2.1 40.4 0 1.1 3 5.4-1.7 4.1-25.7-5.8-36-32.8-60.3-42.3-50.4-16.8-38 48.6 12.9 49.1 10.7 1 19.8-8.8 30-4.1 7 3.3 18.9 1.3 19.9 12.3 1 10.2-.6 20.6 1.4 30.9.5 2.8 6.5 20.6-8.6 6.7-58.1-26.2-130.7 3.9-151.4 64.4-9.7-17.4-31.3-27.4-27.5-50.2 2.7-19.9 2.1-38.5 2.1-59.1 17 12.4 35.9 16.6 55.3 18.3 21.8 1.9 25-.2 22.2-18-2.3-14.6-11.1-27.6-22.5-37.5-5.6-4.8-11.9-5.7-2.9-14.5 11.5-13.3 28.4-33.4 29.5-51.5-.6-11.6-8.8-9-16.4-8.9-14.4-1.1-28.8.4-42.6 4.7-8.5 2.5-13.7 2.7-13-8 .8-13.6 1.5-27.3 2.6-40.8.5-5.9-.5-13.2 8.6-14.4 30.8-11.7 17.8-4.9 46.8-3.1 17.8-1.4 35.9-2.4 52.7-10 46.8-40.7-47.2-67.7-71-21.9-5.4 8.6-6.8 24.3-22.8 23.1-4.4-.3-13.2 10.9-12.6-2 .6-15.8-2.1-31.1 7.7-45.4 11.8-17.4 16.2-38.7 20.1-59.6 6-48-50.4-45.5-52.5.9-2.3 17.6 1.3 33.3 6.6 49.2 3.5 10.6 11.9 19.8 11.1 31.6-3.3 13.4-4.1 26.2-3.8 41.1-19.2-11.2-23.4-25.6-31.2-44.8-11.7-22-29.9-64-60.8-45.8-27.2 24.3 2.6 63.1 27.8 75.8 10.1 5.9 20.7 11.1 32.6 9.7 6.6-.8 29.8 11.4 29.8 18.1-.9 11.2.1 23.9-3.7 34.3-26.5-32.9-31.9-59.4-60-7.6-7.1 8.3-.3 28.8-23.3 24.2-14.4-2.8-29.9.9-44.6 5.3-21.6 6.1-24.3 14.5-13.3 28.5 11.5 15 28.4 24.5 45 33.8 5 2.8 16.9 1.6 14.4 8.5-4.7 12.6-16.7 67.2 3.7 67.6 26.1-3.9 49.8-16.9 69.8-34 3 17-4.1 33.7.2 51 1.3 5.2-2 11.9-10.7 6.5-25.1-15.1-56.9-14.5-85.1-10.1-44.5 7.7-52.5 68.6-78.9 22.7-3.9-4.3-12.3-9.1-9.9-13.6 5.3-9.9 12.3-20.6 21.5-26.2 21.9-13.4 63.7-26.4 56.9-59-4.1-12-15.7-11.1-26.4-9.8-18.5 2.3-39.8 26.2-41.2 44.8-.6 7.4 2.8 15.8-2.8 22.6-5 6-10.7 11.3-13.5 18.9-.3.7-2.9 1.3-3 1.3-5.5-11.5-22.3-15.4-20.4-32.1 2.1-17.8-1.4-35.8-10-51.6-10-24.1-37.7-23.6-43.6 2.8-3.5 17.8 12 46.5 27.8 55.6 8.7 5 19.3 5 26.3 14.9 12.6 17.6 27.3 33.7 41.1 50.3-109.1 1.9-71 42.9-144.5 75.4-18.9 5.9-36.5 18.1-46 36.6-6.6 12.9-16.1 31.6 0 41.8 14.4 7.2 23.3 20 30.9 33.5 26.7 50.4 68.9 72.3 124.2 56.2 35-8.8 66.6 16.1 101 10.1 20.4-4.8 40.2-12.1 60.4-17.9 13.4-3.8 27-3.6 40.9-1.4s27.3 9.6 41.7 6.8c25.9-5.1 46.8-18.7 62.5-40 .6-.8 1.5-3.2 3.9-1.6 10.1 6.9 20.5 13.5 30.6 20.4 17 11.6 23.3 31.2 34.8 46.9 20.9 32.5 47.8 32.8 82.4 36.3 9 1.6 18.9 3 25.3 10.6 32.5 38.5 42.8 27.8 84.5 36.6 28.6 8 62.5 61.5 89 24.3 7.5-12.6 16.2-23.9 28.5-32.9 11.8-8.6 19.7-20.7 25.2-34.8 5-13.2 2.3-26.7 4.9-40 12.3-45.9 37.9-93 21-141.3-.7-2.1-4.4-7.4 1.4-8.4 6.9-1.1 13.6-1.5 20.7-3.7 15.5-4.8 28.8-11.6 38.5-24.8 2.9-4 3.8-9.2 8.9-11.8 15.6-7.8 25.3-20.9 28.3-38.5 1.9-30.2 40.5-19.1 29.7-48.3zm-417.2-132.9c24.6-52.9 103.1-5.7 1.5 14.1-9.9-3.5-3.1-10.4-1.5-14.1zm-80 36.5c-19.6 8.8-51.2-6.5-51.1-26.9 9.7-21.3 43.1 10.1 52.1 20.7 2.4 2.9 3.9 4.1-1 6.2zM422 902.6c47-66.2 100.1-6.3 56 0-5.2 1.4-64 11.2-56 0zm-42.7-44.8c-28.3-78 23.6-100.9 24.3-57.5-1.9 20.8-10.1 39.9-18.8 58.8-2.2 4.7-4.4.4-5.5-1.3zm-33.5 53.3c-1.9 3-5 2.3-7.2 1.6-19.9-5.9-37.4-15.7-48.7-33.8-6.6-10.6-10.9-21.7-2.2-33.4 2.4-3.2 5.3-5.4 9.9-4.5 14.4 2.2 20.4 14.2 26.9 24.7 7.7 12.4 13.7 25.8 20.9 38.5 1.5 2.7 2 4.4.4 6.9zM195.6 1107c4.7-21.2 25.5-43.8 49-36 4.3 2 .8 6.3 3.2 8.5-8.7 22.5-32.7 32.2-53.2 41.1.2-4.5-.2-9.3 1-13.6zm-57.2 13.4c-6.3 3-11.6-3-14.8-6.3-12.8-12.3-34.1-48.2-7.4-57.4 7.2-.9 9.7 5.9 13.2 11.4 8 12.4 11.3 26 11.1 40.2-.1 3.7 2.6 9.9-2.1 12.1zm419.6-93.8c-19.7-11.6-21.5-44.9-10.3-61.3 10.5-15 29.3-8.6 27 9.7-.4 18.7-8.9 35-16.7 51.6zM402.3 1256c1.9 3.9-5 2.8-8 2.8-23 .2-46.1-1.3-68.9.5-47.4 3.2-94.9 8-141.8 15.9-29.9 6.4-59.3 15.5-89 22.6-.2-.5-.4-1-.6-1.6 36.3-15.7 73.8-28.6 112-38.7 44.5-10 90.7-12 136.2-14.4 16.9-.9 33.9-1.9 50.8-1.8 8.7 0 6.9 9.7 9.3 14.7zm-49.2-161.9c-17.6 13.3-37.2 22.7-57.5 30.3-10.7-1.1.8-52.2 2.8-61.1 2.9-11.4-8.2-8.6-13.3-11.1-20.5-10.1-38.8-22.9-54.2-40.6 56.6-27.4 77-.2 79.7-17.3 2.7-16 12.7-28.6 19-42.8 4.4-10 10.5-2.8 13.7 1.2 8.6 10.7 18.2 21.3 23.5 33.7 7.6 17.8 18.9 11.9 30.8 8.5 13.4-3.3 27-5.7 40.8-7.2 10.6 0 5.6 7.9.5 16-8 12.7-14.7 26.3-27.2 35.9-16.5 12.6 18.2 16.3 30.7 56.2 6.9 15.7-61.9-5.3-67-11.8-9.3-5.4-15.7 5.1-22.3 10.1zM2 1331.7c-4.5-5.8-.3-12.4 1.8-18.5 9.4-27.8 34.3-35 57.9-44.4 18-7.1 30.3-21.6 41.7-36.2 34.6-45.5 70.9-23.1 112.7-39.8 19.5-11.8 32.6-33.9 57.4-36.1 30.1-4.1 62.2-.7 87.3 17.4 12.6 9.4 19.7 24.6 30.9 35.1 8 7.5 3.8 13.8 3.8 20-.1 11.6-10.1 3.3-15.3 5.4-10.5 4.2-14.7-4.2-20-11.6-10-12.6-32.9-47.7-48.8-48.8-2.3 3.2 0 5.6 2.6 8.5 14.3 16.3 28.2 33.1 42.2 49.7 1.4 1.9-.4 2.4-1.9 2.6-13 .2-26.1-.7-39.1 2-5.7 1.2-6.3-4.9-8.5-7.8-7.2-9.8-50.6-59.3-61.4-45.7-1.5 3.5 1.5 4.9 3.6 5.9 11.8 6 18.8 17.8 29.3 26.4-12.8-4.4-25.7-8.9-38.5-13.3-4.9-1.7-11.4-8.6-14.5-1.5-2.6 5.9 6.8 8 11.1 9.6 16.4 6.1 32.7 12.7 50.5 14.9 4.7.6 8.6 6.8 13.9 11.2-34.5 3.6-68.4 4.5-101.5 14.8-12.7 3.7-20.1-4.5-29.8-7.2-10-1.6-57.7-17.7-59.5-4.1-.4 4.3 4.9 4.1 7.2 4.5 18.9 3.3 39.4 3.8 57 11.9-46.3 18.4-95.4 34.4-137.5 63.2-6.6 4.7-14.6 8-21.2 13.2-4 3.3-9.9 2.8-13.2-1.2-.1 0-.1 0-.2-.1zm441.8 63c-54.6 48.6-63.5 7.7-120.6 17.8-26.3 3.4-49.5 18.2-75.9 20.2-14.6 1.1-28.4-4.6-42.3-8.5-45.1-15.4-93.4 21.4-134-15.1-22.1-19.3-30.9-48.5-53.7-66.1 56.4-32.7 118.8-45.6 183.4-60.6-14.6 14.5-25.8 30.2-41 38.9-10.3 5.9-25.7 5-38 9.8-16.2 6.3-33.5 10.9-45.4 25.3-2.2 2.6-.8 3.5.5 4.6 2.2 2.1 4.4.2 5.9-1 19.1-15.1 42.6-20.4 65-27.9-7 9.7-63.9 59.6-57.3 68.3 3.3 1.9 6.4.3 8.3-2.3 9.2-12.8 21-23 32.1-33.8 25.4-25.7 54.5-48.3 75.9-77.7 7.6-10.4 19-7.1 28.7-8.5 23-3.3 46.3-4.7 69.5-7 6.3-.6 6.5 3.6 4.9 6.9-5.9 11.8-4.9 25.4-10.6 37.5-4 8.5-12 8-18.2 11.4-18.1 10.2-36.4 20.4-51.3 34.9-4.7 4.8-16.4 15.2-11.4 23.1 1.3.3 2.6-.1 3.5-1 18.9-22.7 43.5-41.7 70.6-52.3-8.7 28.2-30.2 51.9-49.3 74.3-2 2.1-4.2 5.3-.8 8.3s5.6-.7 7.3-2.4c36.5-36.9 64.7-84.6 69.3-137.2.1-3.9 2.7-5.2 5.9-5.3 13.2-.6 26.5 1.8 39.6-2 3.7-1.1 5.5 1.8 6 4.3 2.4 10.8 4 21.7 6.4 32.4 2.1 9.7-6 13.9-10.4 19.8-10.1 13.5-19.4 27.5-25.4 43.3-1.1 2.8-2.5 9.2 2.6 9.7 5.7.6 5.2-6.4 7.1-10.1 8.3-14.6 14.2-33 28.1-43.1 3.1 14 2.8 29.1 2.2 43.6-.3 3.2 3.1 9.6 3.7 9.5 11.2.9 3.1-65.4 2.1-74.6-1.3-10.7-3.9-21.2-6-31.8-.4-2-.1-2.7 2.2-3.1 31.1-7.3 55.1 16.7 55.6 47 1.7 13 2.3 26.1 4.3 39 1.4 22.2 28 24.8.9 41.5zm351.1 172c-35.9-8.4-54.8-47.4-96.4-43.5-45 2.2-47.2-49.3-97.6-44.6-60 1.5-61.4-45-94.9-77.3-11.7-9.2-24.6-16.9-36.7-25.7-29.6-23-10.7-65-28.3-94.3-13.4-23.2-36.7-24-34-56.2 0-56.9 58.8-90.6 110.6-85.7 37.1 3.6 62.5 35.3 83.8 63.4-22.8 4.5-9 10.8-39.9 3.7-31.4-4.5-65.8-10.4-96.4 1.1-1.3.6-4 1.7-2.6 4.5 1.3 2.4 3 1.4 5 1.2 36.2-5.3 70.1-5.2 106.6 2.8-39.6 28.4-73.9 63.7-101 104.2-1.4 2-1.4 7.5-.4 8 3.3 1.7 3.4-2.6 5-4.3 25.3-28.9 48.5-60 80.7-82-3.1 28.3-14.1 54.5-28.3 78.9-2.1 4.1-8.3 8.2-5.1 13.2 2.7 3 4.5-.4 5.6-1.4 20.1-22.8 34-54.4 36.8-84.4 1.1-25.8 22.5-29.3 38.3-38.1 4.5-2.5 10.5 6.9 14.7 11.8 11.2 13.2 21.2 27.5 32.8 40.3 8.8 9.6-1.2 14.5-3.7 20.8-6.7 16.9-14.9 33.2-21.5 50.3-3.3 4.1-51.8 148.4-28.9 120 11.8-40.3 21.7-72.6 35.5-114.4 0 21.3 4.8 37.6 2.8 54.9-1.6 13.7-2.3 27.6-4.4 41.3 2.5 7.8 10-2.4 9.7-6.2 4-26.2 8.2-52.8 0-78.5-7.3-22.7 4.7-39.2 13.4-57.2 3.7-6.2 6.5-22.7 13.7-10 15.3 25.3 33.4 50.4 47.3 76 .9 6.6-.7 13.8-2.4 20.5-4.1 16-4.2 32.4-6.9 48.5-1.7 14.4-8 60 2.5 68.9 5.8-8.7 1.1-20.8 2.8-30.8.7-11.6 2.2-23.2 3.5-36.1 14.8 18.6 15 39.9 20 61.4.3 1.6 0 4.2 2.9 3.4 11.9-8.6-7.8-61.2-16.9-71.5-8.8-15.6.5-34.2 3.3-50.3 18.3 30.9 34.8 64 46.2 98.1 9.1 30.9 18.6 63.2 22.8 95.3zM769.6 1438c-42-90.9-94.6-177.8-162.5-251.8-8.5-9.4-17.6-18.2-26.9-26.8-9.6-8.9 1.7-9.6 4.9-12.1 15.2-11.7 20.8 4 28.9 11.1 17.6 15.5 34.5 31.7 49.1 50 73.7 88.7 120.4 196.7 134.5 311.2-10-27.2-16.2-55.2-28-81.6zm116.2-78.3c-2.9 37.2-22.7 68.6-28.1 104.7-1.8 12.3.2 24.9-7.1 36.6-7.6 12.2-18.4 20.7-28.7 30.2-5.5 4.7-8.5 12-14.3 16.6 1.7-66.5-21.3-130.7-42.1-192.2 10.1 1.9 19 9.8 28.6 13.7 10.9 5.5 7.5 17 10.2 25.5 2.2 8.5 26.1 66.3 35 59.4 2-1.8 1.3-3.1.2-5.4-12.8-22.4-23.6-44.1-29.2-69.8 14.8 8.6 28.7 18.7 41.5 30 .9.8 3.2 0 4.8-.1-.8-14.4-34.5-33.3-47.2-40.6-13.1-6.8-24.7-17.4-38.7-22.4-22.5-7.9-22.5-30.9-33.5-46.3-8.4-11.7-14.8-24.8-22.2-37.2-1.5-2.5-.8-3.9 2-3.1 14.7 4.1 31.3 2.1 44.1 10.5 8 5.3 12.5 15.9 18.8 24 12.3 15.7 26.5 29.3 43.4 40.1 7.6 4.8 14.9 10 22.2 15.3 3.2 2.4 6.4 3.5 8.5-.3 1.7-3.2-1.8-6-3.9-7.4-29.4-18.5-52.9-41.5-75.4-68.2 24.3 5 44.2 14.5 66 23.7.8.3 3.4 2.9 4.3-.5 1.5-10-33.9-22-42.3-25-22.1-7-43.7-16.4-67-19.3-9-1.1-17.7-5.6-27.4-1.9-1.8.7-6.9-4.8-9.2-8.3-10.5-15.8-21.3-31.3-33.6-45.9-7.8-9.2 5.9-6.8 8.9-8.4 9.1-4.6 19.8-4.9 29.3-9.3 9.3-4.3 15.6 4 23.1 7.6 21.7 10.2 41.8 24.3 66.4 27.3 3.3.2 11.4 5.4 11.7-.9 0-3.2-1.7-4.6-4.7-5.3-26.7-6.1-50-19.9-75.8-33.8 16.3-1.5 30.2-2.9 44.2-4 3-.3 6.1 0 6.2-3.9-.5-13.5-89 8.1-99.9 11.7-4.5 1.1-4.5-2-3.8-5 7.7-21.2 14.5-42.8 21.8-64.1 2-3.5 4.1-9.9-.4-12.1-2.5-1.1-3 2.5-4.2 4.4-9.2 15-11 32.8-17.9 48.4-4.5 10.2-6.8 20.4-8.2 31.3-4.2 17.7-34-24.6-42.4-28.7-31.2-21.5 10.5-49 28-64.4 23-18.4 58.2-12.9 75.1 11 12.2 17.3 28.9 27.8 50 33.9 18.5 5.4 34.8 16.7 46.4 32.1 19.1 21.8 22.4 50.7 29.3 77.7 11.7 40.4 42.8 73.1 37.2 118.1zM728.7 1085c-7.4 0-11-14.5-20.3-11.7 3.1-7.6 47.5-2.7 57-2.7 40.4 4.3 80.6 14.9 115.6 35.7 8.6 5.6 19.7 7.4 25.9 16.8-56.1-24-116.7-41.1-178.2-38.1zm41.7 32.1c-1 5.5-7.6.1-10.5-.8-11.2-3.5-17.7-13.7-25.9-21.4-2-1.9.5-1.8 1.6-1.8 15.2-2.8 36.9 6.8 34.8 24zm228.7 79.6c-27.8 13.7-11.8 47.7-43.1 60.9-5.1 2.3-7.3 10.4-11.9 14.6-15 13.7-32.8 21.7-53 24.8-4.6.7-6.3-1.8-7.9-4.9-13.5-23.7-25.1-48.8-29.9-75.8-5-39.3-27.5-72-63.1-89.9-10.5-6.9-11.4-20.8-17.3-31.4 15.4 0 29.8 2.9 44.1 7.3 9 2.8 18.4 4.6 27.6 6.7 5.2 1.2 5.9 5.1 6.3 9.4.4 16.7 36.4 145.5 52.7 139.8 2.2-1.9 1-3.6-.3-6-9.4-18-17-36.6-21-58.1 17.3 14.6 33.2 28.4 44.6 46.4 2.1 2.1 8 12.9 10.8 9.5 7-11.7-44.9-63.5-58.3-66.1-3.9-1.7-5-10.7-6.4-16.6-4.3-17.8-12.4-34.6-13-53.6 15.2 6.4 31.9 11.5 46.2 20.4 6.1 3.8 7.2 15.6 10.5 23.7 10.1 27.4 26.1 51.5 42.5 75.5 3.8 7.7 12.2 2 6.7-4.3-19.9-26.9-31.8-58.4-46.7-87.5 15.7 8.5 31.7 16.3 45.4 27.8 3.4 2.9 8.4 5.7 11.2 2.8 1.3-1.1 1.4-3 .3-4.3l-.3-.3c-21.2-20.5-43.8-39.3-67.8-56.3 23.6-.9 45.8-1.3 67.8 3.8 1 .1 2-.1 2.2-1.8.3-2.6 0-5.7-2.8-6.1-20.6-3.2-40.9-9.9-62.2-4.8-14.7 3.5-27-3.9-39.5-9.8s-25.5-11.5-37.8-17c8.7-4 18.8-6.6 27.9-12.2 5-3.1 9.1 4.2 13.8 6.2 11 5.8 61 19.7 67.2 7 .2-3.2-2.9-2-4.6-1.9-21.4.5-42.6-4.7-61.2-15.2 11.5-3.4 22-6.5 32.5-9.7 1.9-.6 4.8-1.3 3.3-4.3-3-5.6-8.5-3.8-12.5-2.6-18.7 5.5-37.1 11.9-55.7 17.7-10.3 3.2-19.3 12.3-30.5 9.8-19.6-4.5-39.1-9.2-59.4-9.7-1.7 0-1.6-.4-.6-2 10.8-19.1 27.6-27.3 48.9-30.3 18.6-2.6 35.9-10.5 51.7-21.2 6.2-4.6-.7-10.1-5.5-5.5-17.3 10-36.2 15.5-57.4 19.3 8.2-6.4 15.3-11.5 21.9-17.2 3.5-3 11.4-5.4 8.2-10.4-4-6.5-8.9 1.4-12.7 3.7-19.4 10-34 26.7-51.6 39.2-1-14.9-.2-29.9-.4-44.8 0-2.7.1-5.4-3.3-5.4-3 0-4.7 2.2-4.8 5.2-.7 15.2-3.1 30.7-1.4 45.6 1.1 9.2-.7 14.6-6.3 21-3.6 4.1-6.9 1-10.1 1.4-13.8 1.7-28 .3-41.1 4.9 2.8-56.7 42.5-128.7 107.5-88.8 23.6 13.7 52.3.3 77.5 11.6 18.4 6.5 22 25.5 34.9 36.3 16 14.3 34.9 26.8 48.3 43.7 22.9 36.5 43.9 74.9 52.5 117.5 1.5 10.8-8.4 9.5-13.6 12.3zM450 494.9c-11-1-13.6 8.1-14.4 14.4-1.4 10.7 13.7 24 24.4 23.7 9.4-.3 12.9-6.7 13.4-14.8.5-11.1-12.4-23.2-23.4-23.3zm9.8 29c-9.3-1-13.7-8.3-16-16.2-.7-2.3 3.2-4.4 6.1-4.8 8.3 1 22 17.2 9.9 21zm-53.1-151c-28.8 5-31.9 36-1.8 38.8 24.9.6 26.7-37 1.8-38.8zm-2.8 30c-15.1-1.6-12.2-21.8 1.8-21.7 13.1.6 11.3 22.1-1.8 21.7zm-13.8 32c-30.3-25-68.5-45.6-109.2-43-3.3.3-5.9 2.3-5.6 5 4.1 6.9 16 2.8 22.7 5.3 11 1.9 21.7 5.2 32.7 6.9 1.4.2 2.7 1.7 4 2.6-7.4 4.9-6.3 25-17.8 12.7-7.3-6.2-15.1-15.8-25.5-15.4 0 1.9-.9 4.6 0 5.6 5.1 5.4 10.6 10.5 16.4 15.2 22.9 17.5 56.8 31.4 82.7 35.2 7.7.1 25 1.3 19.6-7.2s-12.1-16.7-20-22.9zm-4.9 20c-10.2-3.1-20.5-7.3-30.6-10.6 1.6-6.4 10.4-8.6 8.5-17.5 13.5 9.9 25.2 16.7 34.5 29.8-4.2-.6-8.5-.5-12.4-1.7zm-6.7 596.1c-18.6-1.7-36.9-.3-54.7 5.2-3.8 1.2-6.7.4-8.3-2-1.7-2.7 1.4-4.3 3.6-5.8 8.7-5.8-1.9-10.7-1.2-16.5.6-5.1-2.8-10.6-3.9-16-.3-1.4 1.4-4.6 2.4-4.7 8.4-.2 11.8 26.3 15.1 32.8 5.3-2 14 1.5 11.1-7-2-11.1-9.2-43.5-3.4-52 8.9 7.9 10.5 40.5 11.9 53.2.1 3.3 2.1 2.9 4 2.7 2.9-.4 7.5 1.3 7.8-3.4 1-6.2-.9-33.9 8.3-32.2 5 .8 2.1 7 2.2 10.4.2 7.7-2.3 15.5-1.8 23.1.3 4 6.3 2.4 9.7 3.6 2.8.9 8 1 7.2 3.8-1 3.1-5.6 5.2-10 4.8zm-28.6-685.1c32.1-.3 28.9-44.8-2.1-42.7-21.4 2.6-21.1 42.1 2.1 42.7zm-8.9-20.6c.7-5.9 1.4-12 9.5-12.2 7.6-.2 12.1 4.4 12.2 11.3.1 9.6-8.5 11.7-15.4 12-5 .3-6.9-5.6-6.3-11.1zm13 136.3c-18.7 9.9-35.5 21.4-53.5 32.4-1.3.8-2.8 2.2-3.6 0-1.6-8.9 25.2-22.7 32.6-27 5.3-2.7 10.3-5.9 15.3-9 4.2-2.6 6.1.2 9.2 3.6zm-28.5-7.8c-17.3 9.9-34.5 19.8-51.6 29.9-4.5 3.8-6.7-4-2.6-5.9 13.6-10.3 27.8-19.6 43.3-26.7 3-1.4 4.8-5.9 6.4-5.2 4.7 1.6 7.3-.2 8.3 3 1 3.5-1.8 3.7-3.8 4.9zm-31.4-134c26-2.2 18-41.5-2.5-42.9-28.4-.8-27.4 47.4 2.5 42.9zm-9.7-32c6.9 1.9 18.4-.2 16.5 12.1.3 7.5-2.2 11.2-9.2 11-12 1.3-17.3-20.4-7.3-23.1zm20.9 151.7c-20.2 10.3-39.9 22.2-60.4 31.6-7.8-2.3-1.5-5.9 2.3-9.6 4.3-3 69.1-42.2 58.1-22zm-25.4-10.6c-23.4 3.9-43.6 15-65.8 22.9l-2.9-1.7c2.4-8.4 75-39.1 75.4-25.3.2 3.6-4.3 3.8-6.7 4.1zM153.7 984.5c21.3-1.2 42.8-4.4 62.8-14-35.3 3.4-71 8.6-106-.7-9.7-2.5-19.7-5.2-29.6-6.3-10.8.1-90.2-26.5-81.1-38.8 1.9-3.6 3.7-.4 5.3.8 42.2 24.4 123.2 46.3 170.6 37.6-39.7-11.4-81.1-19.3-117.2-40.6-21.2-11-42.7-24.5-57.1-44.1 1.3-4.5 7.3-3 9.6-.2 14.8 12.7 30.5 23.9 47.9 32.9 60.5 34.6 129.9 47.3 198.9 43.9 3 .1 5-4.1 8.5-.7 12.1 11.6-3.5 11.4-6.8 13.2-45.2 26.9-98.8 31.8-150.4 33.5-35.9.1-71.4-7-104.5-20.8-6.3-1.6-4.9-10.1-4.7-15 1.7-15.5 12.6-1.7 16.7 0 44.2 18.7 90.4 21.9 137.1 19.3zm101.4-550.3c-21 2.5-40.9 8.5-60.5 15.8-6.5 1.9-12.8 7.1-19.6 3.3 4-10.4 90.1-39 89.8-24 .2 6.7-7 4.6-9.7 4.9zm0-87c2.3-26.4-41.2-30.6-42-2.2-2.3 21.7 41.6 27.7 42 2.2zm-21.7 7.8c-16.3 1.1-15.4-22.8.4-20.8 14.2.8 16.3 22.1-.4 20.8zm-24.8 67.9c-19 .8-37.8 3.1-55.9 8.9l-3.8-1.5c5.2-10.2 51.3-18 61.2-14 3.5 2.3 2.5 6-1.5 6.6zM0 667.4c9.4-4.2 17.8-13.5 25.8-18.9C74 730 134.5 800.9 215 860.7 134.1 827.1 60.7 766.3 9 696c-3-7.1-9-2.4-5.2 3.5 49.6 75.7 138.1 143.6 222.7 176.7-79-1.2-158.1-49.5-213-103.7-8.7-9.5-19.9-6-13.5 6.5 45.1 66.6 170.8 121.2 250.5 110.3 3-.4 6.6-.2 8.1-4.8 3.2-9.6-5.6-10.6-10-13.4-34.5-21.1-65.6-46.6-94.9-74.4-29.7-24.3-50.6-56.7-75-85.9-13.4-16.6-26.3-33.6-36.8-52.1C25.1 641 37.5 636 51 622c1.3-1.4 3.6-1.7 3.7.6.2 9.1 4.9 16.6 8.2 24.7 6.5 16.2 17.4 30.1 31.6 40.3 9.5 6.9 22.2 4 30.8 13.9 14.4 16.5 33.7 24.7 55.5 28.2 8.4 1.3 16.7-2.7 24 .2 29.8 12.7 70.6 10.3 92.9-15 8.5-11.5 20.8-16.2 32.7-19C350.6 691 373 659.6 369 639c-18-45 7.8-19.6 2-76.7 35.9 6.3 67.5 25.8 98.5 44.1 7.4 4.6 17 9.3 23.5-2 17.3-31.9-4.1-66.1 2.9-99.1 2.7-9.7 10-17.7 11.9-29.3 39.2 66 90.7 120.9 143.6 175.4 3.5 3.4 14.1 5 7.7 14.1-44.7 69.9-104.6 127.5-171.3 176.3-3.5 3.2-6.8 9.4.6 10.9 9.5-1.9 19.2-.6 28.5-.8 84.4-2.9 166.4-39.2 229.5-94.3 3.2-3.7 8.8-10.1 14.4-7.2 9 4.8 16.8 11.9 25 18.1.5.4 3.3.2 1.1 2.4-8.1 8.3-15.8 16.9-24 25.1-44.7 46-96.8 85.4-157.3 107.8-21.6 8.4-43.5 16.3-66.3 21.4-4.6 1-10.6 2.3-12.3 8.2-.2.6 3.6 3.4 5.6 3.5 33.3 3.4 66.6 1 99.9-1.8 8.1-.6 16.9.3 24-2.7 10.6-4.6 22-4.5 32.7-6.5 20.1-3.7 40-9.1 59.3-16 46.7-19.8 92.6-45.4 132.5-77.2 5-4.2 9.5-13.2 16.8-10.9 16.8 4.3 65.3 22 78.4 13.1 2.4-3.2.8-6.2-1.8-8.2-9.3-8.8-18.7-17.5-28.6-25.7-23.3-17.6-45.2-37.8-72.5-49.1 18.5 3 36.4 8.8 53.2 17.2 14.2 6.9 27.9 15 40.8 24 1.8 1.3 4.9.9 7.4 1.2-12.4-31.1-77.7-70.9-109.3-85.1 38.7-.9 70.9 12.1 103.8 29.6 2 1 4.2 5 6.9 1.9s2.6-7.3 0-10.7c-25.4-36.4-63.7-59.4-101.4-81.2 29.4-2.5 57 2.7 84.5 11.6 5.2.7 12.5 7.7 16.9 2.9 3-9.3-24.9-28.2-30.9-36.7-22.4-22.8-50.6-32.1-79.6-45.7 17.2 0 32.9.1 48.7 0 11.4-.1 21.9 4.6 33.6 4.5 8.4-.1 16.8 4.4 25.2 6.7 1.2.3 1.9 2.1 3.1 2.5 5.7-1.2 4.5-9.4 0-11.2-13.6-10.5-27.4-21-41.6-30.6-16.1-10.6-33.8-18.4-52.5-23.1 30-10.9 63-5.1 94.1-5 2.3-1.2-.8-5.2-2.5-7.2-31.6-30.3-75.9-39.6-118.4-41.6 19.3-8 40.8-10 61.4-13.6 17.6-2.2 34.7-8.3 52.8-3.8 1.6.4 3.7-1.5 5.5-2.3-5.5-10.3-17.8-13.5-27.6-18.5-28.4-12.4-58.9-18.7-90-16.9 37.3-13.2 73.8-27.7 113.9-27.9 1.4 0 3.5 1.1 3.9-1.7-.2-12.6-35.3-17.5-45.6-20.5-37.6-6-69 .1-106.8 7.2 19.8-12.4 107.6-68.5 121.9-39.4 7.5 10.8 17.6 19.9 26.6 29.6 1.3 1.5 3.1 2.5 4.9 2.2 4.8-1.2 2.8-4.8.6-6.6-13.4-17.9-28.1-33.8-43-50.8 13.8-1.5 26.5-2.6 39.1-4.3 1.6-.2 2.9-3.1 4.2-4.5-.5-.4-1-1.2-1.6-1.2-10.3 0-21.2-1.9-30.9.5-13.2 3.3-23.4 1.4-30.8-9.7-1.3-2-10.5-6.8-1.2-9.9 19.1-6.3 38.6-11.3 57.9-17 7.5-.3 11.3-9.8 1.4-8-16.1 4.2-32.1 8.6-48.1 13-23.3 9.5-25.2 8.3-40.9-11-.8-.8-1.2-1 .6-1.6 7.8-2.7 15.5-5.6 23.1-8.9 22.4-9.7 43.7-21.7 66.9-29.6 1.5-.5 2.5-2.4 3.6-3.6-6.8-5.8-14.6-.8-20.9 2.3-24.8 9.9-49.4 20.3-73.5 31.8-13.5 6.4-17.5-6.1-23.6-11.3-3.4-2.8 7.5-4.7 10.9-8.6 18.9-10.4 37.3-23.7 56.4-34 17.2-9 33.4-19.6 49.9-29.7 3.2-2.6-3.1-6.4-5.9-3.8-39.5 20.3-77 44.5-115.6 66.5-10.4 6-13.1-7.9-20.8-9.6 1.2-4.6 5.5-6.1 8.6-8.9 30-18.6 58-40.8 87.1-60.8 15.5-11.1 30.8-22.7 46.3-33.9 2.8-1.9 1.9-4.6 1.1-7-4.3-1.5-13.2 7.1-17.4 9.3-38.8 28.9-78 57.3-118.4 83.8-6.3 4.1-12.3 16.8-23.1 5.6-1.8-3.7-14.1-6-7.6-9.8 15.9-12.8 31.9-25.4 47.7-38.2 39.7-31.7 78.3-64.7 117.3-97.3 1.7-1.3 2.5-3.2.8-4.9-3.8-3.4-8 1.7-11.2 3.7-24 19.8-47.7 39.8-71.8 59.4-27.2 22.2-54.9 43.9-81.9 66.4-8.4 6.9-15.4 8.4-23.5.4-2.3-2.3-2.3-3.3 0-5.3 33.7-29.4 66.4-59.9 98.8-90.8 29.2-27 58.5-53.9 87.5-81.3 1.6-1.4 1.9-3.8.5-5.5 0-.1-.1-.1-.1-.2-.9-.8-3.9-.3-5.3.5-24.4 20-46.5 43-70.3 63.8-42.5 35-80.1 75.9-123.7 109.6-5.5 4-10-4.2-14.5-7.4-3.1-2.1.9-4.3 2.3-5.7 10.4-10.5 21.1-20.8 31.5-31.2 42.1-43 85.1-85.7 126.8-129.5 2.3-2.7.3-3.9-.6-5.4-2.1-4.3-9.9 7.4-12.3 8.7L764 154c-10.7 14.9-15.6 12.2-30.7 4.1C779 109.3 820.8 58 866 8.9c1.2-1.3 4.9-3.8 1.6-6.7-2.8-2.8-4.8-.2-6.7 2.2C820 46.9 782 92.3 742.2 135.7c-6.4 6.4-8.9 22.6-24.6 15.2-2.5-2.1-12.2-.8-7.9-5.6C742.9 99 776.6 53 810.3 7c1.6-2.2 1.3-4.5-.7-6.6-1-1.1-1.7-1.7-2.9-.1-8.5 10.8-17.4 21.1-25.5 32.1-23.6 32.4-46 65.8-70.7 97.4-5.4 6.9-8.4 18.9-21.7 13.2-5.2-1.3-7.2-3.9-4.4-8.8 25.7-40.3 49.5-81.8 73.1-123.3 1.8-3 5.9-7.2 2.1-11-4.5-7.5-35 53.1-40.2 59.2-13 22-25.9 43.9-38.5 66.1-5.4 9.5-9.7 18.6-23.8 12.2-4.8-2.2-2-4.6-1.7-5.5 16.2-38.6 34-76.5 49.1-115.6 1.7-4.6 10.1-11.3 2.2-15.2-5-2.2-7.3 7.1-9.4 11.4-15.4 36.4-30 73.2-46.5 109.1-5.5 17.8-10.8 14.2-26.4 13.6-5.5.4-4-2.9-3.1-5.2 15.7-38.5 28.5-78.1 42.3-117.4 1.5-4.1 3.6-9.9-1-10.3-2.7 0-4.5 4.2-5.6 7.1-6.8 18.4-13.2 37-20.3 55.3-3.3 14.3-7.3 5.2-19.2 7.3-4.9-.6-11.1 8.1-14.1-.5-1.4-3.9 1-9.6 2.6-14.1 6-17.4 10.4-35.2 13.3-53.2 1.4-5.8-4.4-6-6.2-1.7-2.3 7.7-3.3 16-6.5 23.3-1.9 4.3 1.6 12.4-8.2 12.6-10.7-.1-21.6-.7-32.1 3-9.8.3 9.9-33.6.5-42.2-6.5 1.8-7.1 23.7-9.8 30.7-1.1 4.6-1.8 12.5-3.9 13-12.3 2.8-23.7 8-35.7 11.6-.3-18.2 7.9-36.2 5.2-54.4-2.7-2.9-7.9-.5-7.6 3.8-1.9 14.8-3.6 29.6-6.2 44.3-.9 5 .3 11-7 14.5-15.2 7.4-29.5 16.6-40.8 29.5-.7.8-2.1.8-3.3 1.2 9.5-24.8 24.2-47.8 25.9-75.2 1.2-11.9 1.8-15.7-2.1-15.7C461.8 4 447.5 22 433 33.2c-12 8.6-22 20-32.1 29.6 6.9-61.1 5.3-84.3-45.2-26.2-1.4-9.9-1.6-20.3-6.1-29.5-2.9 1.6-6.5 2.6-8.5 4.9-10.8 13-21.2 26.2-32.6 40.6-1.2-14.6-2.4-28.4-3.5-42.3-.3-4.1-1.9-8.7-5.5-8.8-4.2-.1-2.7 4.9-2.6 7.8.8 13.1 1.5 26.4 2.5 39.4 3.2 13.6 1.6 27-5.9 38.4-3.5 5-10.2 1-15 1.9-2.4.4-2.7-1.6-2.9-3.2-5.5-27.3-5.9-56-14.9-82.3-13.9-18.6 6.6 67.8 5.8 72.7.6 4.2 2.6 10.6-1.1 12.4-6.2 2.9-14.1 5.3-20.5 4-9.3-1.8-7.2-12.8-9.4-19.4-7.3-22-12.5-44.7-19-67-.2-2.4-1.9-7-5.8-5.1-3.6 1.3-2 4.1-1.6 5.8C215.6 36 226.7 65 232 94.2c-4.3 1.5-8.8 4.2-13.4 4.3-4.8 0-11.7 6.7-13 2.1-3.6-13.1-10.7-24.5-15.3-37C183.5 45 175 26.8 166.5 8.9 165.3 4.2 164-4 157.2 0c-3.5 2.1 1.4 5.9 1.6 8.9 12.1 31.9 26.6 63.7 38.7 95.6-3.7 1.2-8.3 3.9-12.8 3.8-4.1-.1-7.6 9.2-13.2-.9-19.1-34.2-40-67.5-60.1-101.2-1.3-2.7-2.1-5.5-5.2-3.2-3.6 2.3-1.7 5.4-.3 8 17.2 31.8 36.5 62.5 53.9 94.2 1.9 3.4 10.1 9.4-.3 13.6-3.2 1.3-6.3 3.5-9.5 3.8-2.3.3-4.3 4.6-6.3 1.5-29.9-40.3-57.6-82-88.4-121.7-3.2-5-9.3.4-5.5 4.4C77 41.7 99.8 79.5 126.2 115c6.8 9.6 11.4 16.6-4.6 21.5-4.6 1.4-6.7 2.9-10-1.4C76.4 92.5 42.9 48.5 8.5 5.2c-1.9-2.9-7.1-4-7.6.1 4.6 12.5 16.9 21.5 23.6 32.8C51 74 78.6 108.9 106.3 143.9c1 1.3 1.8 2.9-.9 3-7.3-.3-11.4 14.2-18.7 8.4-26.4-26.4-52.5-53.2-78.9-79.6-2-2-4.6-6.4-7.8-3.8-2.3 1.9-1.9 5.2 0 8 23.2 23.6 45.2 48.7 68.7 71.9 9.3 8.1 12.9 14.8.3 21.8-3.9 2.2-6.3 10.1-12.8 5.4-18.3-11.8-34.2-28.8-53.9-37.8-3.3 4.1 2.5 10.8 6.5 12.7 10.4 7.7 21 15.3 31.1 23.3 6.7 5.3 19 10.2 3.8 20.1-2 1.3-3.4 3.6-4.5 5.7-2.2 4.2-4.6 5.6-9.2 2.9-8.2-4.8-17-8.8-25.2-13.6-2.4-1.4-3.8-.5-4.8.7-2 1.9-1.3 4.8 1.1 6.1 7 4.5 13.6 9.8 21 13.6 4.8 2.4 3.7 3.5 1.2 6.8-12.7 15-24.9 32.3-23.3 53 .8 2.1 2.9 3.9 7.3 4.6 11.4 2 22.6 5.3 34.7 8.2-12.3 7.6-27.2 12.2-25 29.3.6 5.8-.4 7.7-6.7 6.7-2.6-.4-5.8 2.5-8.5 4.2-2.8 4.5 2.9 6.6 6.3 5.3 17.4-3 31.3 6.1 44.7 14.4 4.8 3 19.4 3.6 12 17-6.4 11.5-12.5 17.6-26.6 7.5-7.3-5.5-33.8-13.2-39.2-1.2-.7 2.2 1.2 2.3 2.7 2.4 23.7 1 53.2 5.6 43.3 35.4-.8 3-1.9 2.9-4.4 2.6-10.9-1.6-40.7.4-42.8 13.7 3.7 6.3 22.1-7.5 30.5-5.9 12.1-.4 19.7 2.6 16.7 16.8-.3 1.5 1.3 3.4 1.3 5.1 0 4 3.8 9.4-1.4 11.9-9 3.3-48.7 30.8-43 40.3 2.7 2.5 5.9 0 7.4-1.9 8-10.5 18.5-18.1 29-25.6 6-4.3 12.8-15 18.3.7 2.5 3.1 7.5 9.2 3.6 12.4-23.9 18.7-43.2 41.9-58.3 67.7-2.9 15.4 6.5 6.5 11-.6 11.2-21.6 28-38.6 44.7-55.8 1-1 4.6-7.3 7.5-1.5 10.7 25 2.8 73.4-9.9 97.1-15.5 27.3-37 50-58.3 72.7-4.7 4.4-1.3 10.2 3.1 11.4zm126.1-15.1c-2 3.2.5 8.3-4.5 10.1-8.4-57.5 66.2-68.8 103.5-44 2.8 1.4 7.2.8 7.5 4.6-4 3.5-17 5.6-20.8 10.5-17.4 23.8-55.7-25.4-85.7 18.8zM117.4 515c.9-5.9 6-11.7 10.9-4.4 11.3 11.2 17.2 25.8 19.4 40.5 2.7 18 .2 36.3-7 53-1.1 2.5-3.3 1.5-4.5-.5-16-24.2-21.4-55.4-18.8-88.6zm144.5 86.4c.3 8.8 2 17.8 8.6 24.6-23.9 1-40.9-18.1-62.6-25.3-3-1.7-3.2-3.5-2.5-5.3 16.3-27.2 17.6-60.1-2.3-88 20.7 3.9 40.9 10.4 60 19.2 8.2 3.8 16.3 7.8 24.6 11.5 14.7 4.5-28.9 23.5-25.8 63.3zM207.1 542c3.1 19.2-2.9 36.5-10.9 53.5-2.3 2.2-15.7.2-20.9-1 13.4-22.6 13.6-65.9-12.4-93.2 26.9 3.4 39.9 13.5 44.2 40.7zM175 559.3c-3.6 13.4-.7 39.4-20.9 39-3.6-.3.7-3.7 1.1-5.7 5.3-27.3 4-54.3-12-78.2-1.8-3.4-8.6-6.5-6-9.1 5.1-5.2 12.1-1.6 16.8 2.1 16.7 13 19.1 32.2 21 51.9zm-19.9 125.8c1.5-13.8 14.4-9.4 19.7-16.8.3-.5-.9-2.5-1.6-2.7-15.7-4.8-29.7 9.5-28.9 25.3-10.2-8.6-12-20.2-8.7-31.1 5.7-18.7 30.6-19 47.4-14.4 25.6 2.3-18.6 39.1 13.6 68.9-19.9 2.2-42.6-13.8-41.5-29.2zm100.3 31.7c-3.2 1.1-6.4 3.6-10.6 1.2 6.9-5.9 13.4-12 10.4-22.4-.6-2.1-1.4-3.6-3.3-3.3-1.1.2-2.4 1.9-3 3.3-3.7 9.9-10.4 16.3-21 17.2-21.8 4.7-29.9-27.7-9.1-36.4 43-25.9 79.8 25.7 36.6 40.4zm27.6-7c-.6.5-1.7.5-2.5.8 9.4-47.5-39.5-62.5-72.8-37.2-6.6 4.2-9.4 11.5-9.5 19.3 0 2.7 1.7 5.4-.5 8-13.5-16.6 4-45.8 18.3-57.9 19.2-14.8 38.6-13.7 58.4-3.6 25.3 11.7 36.8 51.4 8.6 70.6zm28-23.8c-.5.3-1 .5-1.6.6-1.1-16-3.6-30.2-16.4-44.8 12.5 5.3 21.9 1.7 31.8 0 3.3-.6 4 7.9 3.6 11.3-1.3 12.9-7.9 23.8-17.4 32.9zm15-4c11.4-12.6 13.8-27 8.3-42.9-1.2-3.6 2.7-1.8 3.5-3.7.5-1.2 3.9-1 5.1-2.3 16.8-16.7 15.5 40.1-16.9 48.9zm167.7-195.7c-23.2 30.8 1.9 69.1-6 102.5-24.9-28-47.2-61.5-84.3-75.1-2.4-1.1-4.8-1.5-6.1 1-1.5 2.7 1.2 3.5 3 4.4 31.3 18.2 57.4 42.3 76 73.5-39.7-22.9-75-48.7-120.4-51.2-.6-.5-4.2 3.5-2 6.9 22.3 32.4-11.2 82.2-46.3 80.1-11.9-1-29.1-18.1-30.7-30.3-3.9-50.5 59.1-74.6 93-99.4 3.4-2.3 12.5-2 8.5-8.6-2.5-4.2-9.5-.1-13.9 2.6-20.3 12.2-42 22.1-59.7 38.2-2.8 2.5-4.9 2.3-8.3.5-43.4-24.1-92.6-40.6-142.6-40.3-10.9 1-21.6 4-32.4 4.9-6 .5-2.3-5.7-2.8-8.2-5.3-44.8-7.8-91.4-33.3-130.3 2.3-7.3 16.3-15.3 23.1-20.3 12.3-9.4 15 4.4 20.4 9.1 9.9 10.5 101.5 77.3 108.3 55-45.2-19.8-89.9-45.9-122.1-85.9 41.6-6.1 78.3 22.4 77.9 9.7-1.4-14.6 5.2-27.5 9.9-40.3 6.9-18.8 18.3-35.5 30.5-51.5 5.9-7.7 10.1.5 13 2.5 11.8 8 22.5 17.7 31.7 28.6 6.9 8.4 14-.8 16.1-5.9 4.9-12 12.6-23.1 13.1-38.2 14.1 22.3 23.4 44.2 26.9 69.5 9.7 26.7 50.8-50.6 49.1-62.6.8-2.8 1.7-5.5 2.8-8.2 21.7 42.4 21.2 91.7 15.5 137.5 20.1-4.4 38.7-15.1 56-26.3 1-.7 2.1 7.8 2.3 11.6 5.3 35.7-37.8 69.2 3.5 93.7 11.1 6.1 27.3 2.5 33.7 17.2 4.7 11.3 3.6 24.3-3.4 33.6zM51 278.1c14.4-29.1 63.2 7.5 75.5 24.7-7.4 1.4-17.2 6.5-21.9 3.6-15.6-9.7-29.3-22.6-49.6-21.5-5.2.3-3.6-4-4-6.8zm-6.2-38.6c13.8-1.2 27.6.2 40.9 3.9 4.8 1.1-1.2 9.8-1.4 13.2-12.3-6.5-23-13.1-39.5-17.1zm294.1-81.9c1.5-23.3 22.8-48.5 43.1-58.4.8 21.5-1.7 44.7-13.4 62.1-8.3 12-23 19-30.7 31.4-.3-2.3-1.4-4.9-.6-6.8 3.8-9.2 1.4-18.7 1.6-28.3zm93.8-31.5c-2.2 19.6-9.9 37.8-18.8 55-5 7.5-18.6 10-27.2 15.5-3-11.4-.9-23.3-8.7-33.3-.9-1.1-.8-2.7.3-3.6 14.6-16.2 34.2-24.7 52.1-36.2 2.3-1.2 2.5 1 2.3 2.6zM735.3 300c14.8 11.3 24.3 25.9 32.4 41.9-.5 1.5-1.3 2.8-3 1.3-14.4-11.3-31.4-18.3-48.9-16.9-20.5 1.7-22.9-18.2-35.9-24.9-10-5.3-18.4-13.7-27.6-20.5 28.6-6.8 58.6 1.7 83 19.1zm-24.2-25.2c28.3-22.7 60.9-34.3 95.3-41.4-19.5 16.3-43.1 30.3-54.6 53.8-3.9 8.1-7.9 7.6-13.2 3.5-8.3-6.5-17.6-11.9-27.5-15.9zm-25.3 307.8c-.9-8.9 8.2-3.8 10.6-2.8 47 13.3 94.4 56.4 77.8 109.6-15.4-38.6-44.3-73.2-86.1-82.2-3-.9-3.3-2.4-3-4.6 1.1-6.6 1.3-13.4.7-20zM760 605c-38.5-41-73.3-19-77.3-50.7-1.7-6.6.5-14.2-5.1-20-1.9-2 .8-1.3 2.4-1.5 46.4-1 92.5 27.5 107 72 5 11.8 4.5 27.4-2.2 38-.5-.5-1.3-.9-1.4-1.4-3.3-15.1-13.2-25.9-23.4-36.4zM545.8 339.6c60.8-39.8 137.5-28.8 178.6 33.2-43-26.8-93.8-19.7-135.1 2.9-5.8 2.7-7.5 1-11-1.5-12.6-9.1-25.9-17.4-37.7-27.4-5.4-4.6 3.4-6.2 5.2-7.2zm-28.6-3c-12.9-5.6-26.3-9.8-39.2-15.4 8.2-13.2 30.5-25.6 43.9-33.9 53.5-26 123.4-8.5 164 35.6-40.1-22.7-82.4-20.4-122.2-1.7-19.3 5.7-26.6 25.5-46.5 15.4zm74.9 46c41-20.1 93-29.7 130.9 1.6 20.5 14.8 34 37.4 37.5 62.5-35-32.2-88-37.2-131.7-21-1.7.6-6.5-6-9.4-9.5-8.5-10.4-16.4-21.5-27.7-29.3-2.2-1.6-4.3-2.2.4-4.3zm49.7 47.4c60.7-20.7 147.7 20.1 135.7 90.9-27-31.5-72.7-59.3-115.6-42.6-8 3.5-6-6.7-7.9-9.9-6.5-11-13.7-21.6-20.1-32.6-6.3-10.8 7-5.7 7.9-5.8zm29.4 53.5c49.7-10.1 97.5 29.1 113.2 74.3 2 5.3 6 12.6-.2 18.1-23.5-34.4-65.8-50.1-106.6-51.7-5.5-.1-5.7-12.3-8.5-18.9-2.1-5-3.8-10.3-5.5-15.5-2.5-7.8 5.3-5.7 7.6-6.3zm111 211.4c6.5-8.6 7.6-19.1 6.9-29.8-.1-1.3.5-3.6 1-3.7 26.1 10 42.1 47.7 28 73.6-8.9-14.5-20.2-26.1-34.7-34.5-1.6-1-3.9-2-1.2-5.6zm14.6-40.6c-6.1-3.2-1.6-5.3-1-6.7 7.1-16.8 6.5-33.3 0-50.3 37 20.1 53.8 50.6 34.1 93.4-7.8-15.3-18.1-28.6-33.1-36.4zm8.2-60.9c-22.3-9.2 5-17.4-19.2-58.4 12.8-2 21.9 6.8 31 13.2 27.4 19.3 30.1 50.8 27.5 84.1-8.7-18.5-22.5-31.7-39.3-38.9zm39.7-36.9c0 1.2-1.1 2.4-1.7 3.6-18.3-21.8-30-29.3-57.3-34.7 14.5-30.7-15.1-59.3-6-61 42.6 3 68.4 54.2 65 92.1zm-22.3-83.7c-13.6-10.3-27-17.8-45.2-16.3-10.2.6-6.8-11.1-7.4-16.2-2.3-19.5-13.6-33.6-25-50 40.6 6.7 71.9 43.7 77.6 82.5zm-32.2-73.2c-10.9-8.7-24.2-12.7-36.6-18-17.8 4.5-17.7-11.5-23.3-20.6-4.6-7.5-11.1-13-17.2-19.1-20.4-17 46.3-2.6 64.3 29.1 6.3 9 13.5 18.5 15.2 29.6-.8-.2-1.7-.6-2.4-1zm-97.1-130.8c-.6 2-1.5 2.5-3 2.1-15.7-4-31.3-3.9-47 2.2 13.3-22.6 82.5-69.8 102.8-69.5-21.4 19-42.4 39-52.8 65.2zm-65.4 1.5c-8.8-10.1-20-17-33-22.3 26.5-29.6 57.8-52.2 96.7-69.9-28.6 27.8-52.4 55.5-63.7 92.2zm-13.7-.4c-40.3-11.3-82.6-5.7-114.7 20.8-8.8 7.1-18.8 12.9-25.6 22.3-8 11.2-15.1-1.2-22.8-1s-14.3-7-22.7-6c-1 .1-3-1.1-3.1-2 42.3-51.7 130.4-74.9 188.9-34.1zM450.7 322c-10.7 10.8-26.3 14.9-39.7 23.2 1.4-10.7 2.7-20.6 4.5-30.4.1-.3 6.2.1 9.4.8 8.6 2.1 17.5 3.4 25.8 6.4zm121.5-95c-12.8-8.5-24.6-5.6-8.1-20.3 20.3-16.5 41.6-36.3 66.9-43.2-51 44.1-40.4 83.5-58.8 63.5zm.2 12.3c.2.1.2.6.7 2.4-59-9.7-120.5 11.6-159.6 57.7.4-15-1-30-4.2-44.6-1.2-5.9 5.7-6.5 8.8-8.7 43.9-30.9 108.9-39 154.3-6.8zm-167 7.2c.7-23.1-26.7-36.3-6-45.3 40.6-18.2 99.5-30.6 131.5 8.8-36-3.9-70.4-.7-102.3 17.5-8 4.2-17.1 8.9-23.2 19zm134.3-40.9c-7.3-11.3-17.8-18.8-29.6-24.2-5.5-2.5-2.6-4.2-.6-5.9 18.8-16.2 43.5-20.1 66.6-26.7l2.7.9c-12.8 18.2-28.2 34.5-35.8 55.9-1.1 2.4-2.4 1.5-3.3 0zm-43.8-32.7c-1.7 2.2-1.9 2.1-9.1 2.1-19.6-4.2-39.2 1.5-58.8 3.5 23.6-29.3 66.9-58.2 104.8-60.6-6.3 21.5-23.7 37.6-36.9 55zm-121 2.8c9.3 38.4-5.9 79.2-31.7 107.1-.7-1.4-1.9-2.8-2-4.3-1-15.7-9.1-29.1-14.3-43.4-3.1-8.5 4.1-13.7 7.2-19.7 9-17.9 23.2-32.2 38.1-45.4 1.1 1.8 2 3.7 2.7 5.7zM321 219.5c-1.2 4.3-6.4-4.2-7.8-5.5-2.2-3-2.6-8.6-7.7-7.6-6.5 1.5-5.7 8.8-6.6 13.6-2.1 12.7-9.9 23.4-12.3 35.9-.1.6-2.9 1.3-3 1.2-4.5-8.8-18.8-12.4-12.7-26.9 11.3-30 30.9-57.4 58.9-73.3 2.9 21.8-3.7 43-8.8 62.6zm-56.6 1.8c-3 17.3-10 8.1-17.5 4.7-16.6-7.6-4.2-17.1-.9-24.4 6.7-13.1 18-25 30.4-32.8 2.2 17-10.4 34.2-12 52.5zm-10.5-44.5c-4.2 7.4-7 6-11.2-1.9-7.5-14.2-13.2-29.6-24.3-41.8-2-2.2-1.9-6.1-4.6-8.6 18.6 10.5 31.6 27.7 45.6 43.4 3.8 4.5-3.8 5.7-5.5 8.9zm-14.8 15.5c-16.5 46-5.3 22.7-28.6 1.2-3.4-3.6.2-5.1 1-6.9 3-7.3 9.9-6.2 15.8-5.7 6.8.5 10.2 5.3 11.8 11.4zm-28-16.1c-6.7 8.8-9.2 2.9-13.5-2.6-8.1-10.4-17.3-20.1-26.1-30l.7-1.6 47.2 29.9c-2.9 1.4-6.6 2.1-8.3 4.3zm9.9 46.4c6.1 10.5-6.5 13.1-8.2 20.4-.4 1.7-2.1 3.2-3.2 4.8-1.5-2.1-3.6-3.9-4.4-6.2-4.6-13.3-13.3-24.9-24.9-32.9-6.2-5.5 10.3-10.4 13.2-12.1 15.5 3.1 21.1 14.9 27.5 26zm-60.3-43.1c-6.1-4.4-11.5-9.8-17.2-14.7l.6-.9 41.6 23.7c-14.2 16.2-17.5-2.7-25-8.1zm10.3 33c15.8 10.2 27.2 26 31.8 44.2.9 3.3-1.7 8.4-4.2 11.4-3.7 4.4-3.7 9.9-6.9 15-7.7-21.1-16.2-41.3-35-54.4-14.3-9 4.1-22.9 14.3-16.2zm11.2 103.4c-.1 1-9-.9-11-5.1-9.9-20.8-21.2-40.6-38.1-56.6-4.7-5.4-17.6-9.2-13.7-18.1 2.5-4.9 5.8-9.8 12.9-9.2 30 6.9 45.5 37.5 53.5 64.8 2.7 8.8-2.7 16.1-3.6 24.2zm-37.9-99.1c-17.2-11.1-32.8-24.8-52.2-32.8 21.9 3.7 42.8 10.3 67.3 21-13.4-1-13 6.4-15.1 11.8zm-23.8 4.4c-3 4.4-5.1 9.6-8.7 13.2-2.8 2.7-4.2-2.4-6.4-3.6-13.4-7.5-26.5-15.5-38.6-22.7 16.8 3.5 34.8 7.3 52.9 11 1.5.3 1.8.5.8 2.1zm-15.1 27.7c28.2 5.1 42 37.1 55.8 58.5-19.6 3.5-28.8-8.8-39-21.6-6-7.5-15.4-12.9-24.1-17.6-7.8-4.2-6-10.6-4.6-15.8 1.3-5 7.7-4 11.9-3.5zm533.5 365.2c-.1.9-.3 1.8-.4 2.8-36.6-41.9-74.6-81.8-104.4-129-10.3-16.7-21.6-32.7-33.9-47.9-6.2-7.8-17.2-8.7-26.6-11.1-9.9-2.6-18.6-8.1-21.7-17.3-1.6-4.6 3.8-11.6 6-17.6 5.5-10 3.5-28.1 17.8-16.7 91.6 39.3 167.5 134.1 163.2 236.8zm17.2 21.5c-6.4-5.9-9.3-11.5-6.5-21.5C657.1 509.4 566.5 397 469 365c-1.7-.7-2.3-1.4-1.8-2.7 3.5-9.7 1.7-19.6 1.3-29.4-.1-2.6.6-2.5 8.8.2 93.6 26.6 168.9 109.1 189.8 203.8 7.1 21 9.7 43.3 7.7 65.4-1 14.2-.7 30-8.3 42.7-3.9-2.6-7-6.2-10.4-9.4zM509 837.4c24.8-22.1 50.8-39.6 74-62.4 30.6-32.1 59.6-66.6 84.3-103.6 1.5-2.2 2.6-3.2 5-.2 4.6 8.3 33.4 23 23.9 33-50.6 51.1-117.8 111.5-187.2 133.2zm221.8-91.2c-57.8 47.6-119.5 82.2-195.7 91.4 67.9-32.7 121.3-76.7 171-131.1 2.9-3.4 4.3.8 5.6 1.9 8.1 7.3 15.5 15.5 24 22.4 11.8 9.5-2.1 13.3-4.9 15.4zm34.5-38c-1.6 8-.2 17.1-5.1 24-15.4-13.2-33.6-23.7-46.4-39.7-11.5-13.3-25.7-23.4-37.3-36.3-4.1-4.6 2.1-11.1 3.2-16.9 6.5-13.3-2.5-30.2 19.3-20.2 34.2 15.9 64.6 50.9 66.3 89.1zm21.2 41.8c-20.6-7.4-11.9-23.1-10-36.5.8-5.8 2-5.8 11.1 1.6 17.3 13 27 32.9 28.5 53.6-10.2-6.2-19.5-13.1-29.6-18.7zM585.1 920.3c79.8-25 148.2-75.3 203-137.3 13.3-15.9 20.9 2.4 30.7 5.6 14.9 4.8 1.5 10.2-1.5 12.9-43.9 41.9-96.2 73.6-151.3 98.7-18.3 7.2-37.8 11.2-56.8 16.7-7.6 2.4-15.1 5.4-24.1 3.4zm283-102.1c-56.4 47.3-122.1 87-196.2 97.2-14.7 1.6-28.1 9.1-43.6 7.2 74-25.4 143.9-61.9 199-117.5 5.9-6.7 11.1-7.8 18.8-4s15.7 6.4 23.2 10.2c5.2 2.5.3 5.6-1.2 6.9zm5.2-55.8c29.3 14.6 53.8 36.1 79.6 55.7 1.7 1.3 5.1.8 5 4.7-15.1 1.4-28.3-6.1-42-10.3-23.3-7.1-45.2-18.4-67.9-26.8-18.4-6.8-23.2-19.8-24.7-36.2-1.5-19.1 42.1 10.3 50 12.9zm31-22c7.5 4.1 13.8 10.3 20.7 15.6-.2.5-.5.9-.7 1.4-22.3-10.5-46.1-17.6-70.5-21.2-6.4-.5-13.2-.8-19.1-3.1-7.4-2.9-.7-9.2-1.3-14-2.4-20.9 10-8.7 16.2-6 18.6 8.5 36.8 17.6 54.7 27.3zm52.1-20.9c1.5 1.6 3.2 2.9 4.8 4.3-38.4-20.3-79.2-27.5-122.3-27 6.6-9.3 10-20.6 9.4-32.1-.5-14.9 5.3-13.3 14.6-9.2 35.2 15.5 67 35.8 93.5 64zm-18.2-88.1c6.9 5.5 13.1 12 22.9 21-37.8-14.3-67.6-14.8-104.3-13.4-3 .1-3.3-.4-3-3.7 1.2-13.8 4.5-27.8.4-41.5-2.6-8.5 2.8-5.6 5.7-4.5 28.1 10.3 54.8 23.3 78.3 42.1zm17-52.8c-16.6-3-28.9-7.3-41.2-6.9-17.1.5-34.2-3.3-51.2.6-8 1.9-10.3-.5-9-8.8 1.3-9.1 1-18.4 1.5-27.9 36.5 1.9 67.2 19.1 99.9 43zm9.4-59.9c-39.4-8.8-73.5-2.8-111.4 5.3-4.5 1.1-2.3-6.2-3.9-9.4-4.2-8.6-5.9-18.5-14.5-25.2 45.6-6.3 87.2 2.9 129.8 29.3zm-36.7-78.2c7.4 2.5 14.1 7.4 22.3 7.8-37.5 5.9-77.8 5.1-111.5 24.7-4.6 2.8-5.3-.6-5.4-2.8-.6-10.6-4.9-19.8-9.4-29-.7-1.5-1-3.9-.3-5.1 1.3-2.3 2.7.5 4.1.7 32.9-9.2 67.6-7.6 100.2 3.7zm-65.3-60.3c10.1-3.4 22.1-1 33-2.5 6.8-.9 12.8 2.1 19.3 1.4 11.6-1.3 22.5 3.5 33.9 5.2-45.1 6.8-88.5 21.1-129.3 41-8.4 3.3-8.1-6.9-12.2-10.4-2.3-2-.9-7.6-2.4-11.1-7.8-17.5 8.2-12.2 14.5-14.6 13.9-5 28.9-4.2 43.2-9zM822.2 365c-7.8 4.8-16.5 8.4-22.3 16-2.5 3.3-4-.1-4.4-1.3-2.1-11.8-27.7-25.5-10-32.7 22.8-11 47.1-18.5 72.1-22.5 13.1-2 26.2.4 39.2-2.7 3.9-.9 10.7.2 16.4 1.9-33 8.9-62.7 23.7-91 41.3zm63.5-79.7c8.3-2.1 11.3 5.4 16 9.7 7.3 6.8 14.6 13.7 22.8 21.6-46.8-7.7-89.8-1-132 15.9 25.9-25.5 58.7-39.1 93.2-47.2zm-7.3-7.3c-34.1 8-71 21.6-94.2 47.8-10.8 12.9-12.2 7.1-16.3-3.2-2.2-8-20.9-18.8-5.8-23.7 36.2-17.6 76.1-27.8 116.3-20.9zm-24.2-27.2c7.3 5 13.4 11.8 21.3 18.9-38.3-6.1-73.9.8-109.3 16.3 14.7-22 34.2-36.1 55.1-48.4 16-9.4 23.1 6.5 32.9 13.2zm-80.5-54.9c6.6-3.8 11.5 4.3 16.9 7.4 9.8 5.7 19.1 12.2 29 18.6-41.5 5.9-78.3 19.2-112.3 41.5 1-2.6 1.4-5.7 3.1-7.6 18.4-22.3 37.8-45.5 63.3-59.9zm-42.6-27.1c2.5.8 39.8 18.9 29.9 20.1-41.8 9.8-79.6 32.8-113.3 59.2 10.3-16.5 62.8-92.7 83.4-79.3zm-68.6-18.4c8-1.4 16.7 1.5 25.1 3.1 8.1 1.5 15.2 6.8 27.9 5.2-46.7 18.9-88.1 38.5-121.4 72.9 13.4-23 27.1-46.3 47.1-64.2 6.7-6.4 12.2-15.5 21.3-17zm-22.9-2.9c-31.6 17-59.8 29.7-84.6 54.8 12.9-19.2 22.6-42.5 42.2-55.9 13.3-4.3 26.9.5 42.4 1.1zm-20.7-65.9c14.5-.3 3.6 11.6 2.4 15.1-4 12.2-10.7 23.6-16.4 35.3-.8 1.9-2.6 3.1-4.7 3-28.2 2.2-55.2 9.2-79.8 23.4 10.4-16.2 19.7-26.8 22.7-44.9 1.7-5.7 7.4-6.5 11.6-9 19.9-11.7 40.8-22.4 64.2-22.9zm-84.9-24c17.6-6.3 36.2-10.8 55.1-11.6 3.5-.2 2.7 6.8 2.7 10-.1 14.8-6.5 25.1-21.2 31.1-11.6 4.6-22.2 11.3-31.4 19.7-3.5 3.3-10.3 3.4-15.7 4.1-35.6 3.8-63 22.9-88.2 45.8 4.1-10.1 3.1-20.8 5.2-31.1 23.8-30.1 56.6-55.6 93.5-68zm-116.4 2.9c19.6-16.8 36.7-36.4 58.5-50.5-4.5 38.3-24.2 70.3-39.8 104-2.9 4.2-11.2 4.3-16.7 7-10.1 4.8-20.6 9-28.8 17.2-.7.7-2 .8-3 1.2-.8-29.4 6.6-57.4 29.8-78.9zm-61.5 11C354.2 46 373 28.5 390.9 14c8.4-1.8-.8 36.6.5 43.3-.3 7.3-3.8 14.3-3.5 20.9.5 10.9-6.5 13.2-13.5 16.3-10.1 4.6-18 11.6-26.4 19.8 2.9-14.3 5.7-28.5 8.1-42.8zM308 77.9c8.2-21.1 22.3-38.9 36.4-57.1 4.2 19.7 2.5 38.9 1.4 58-.5 9.6-10.2 7.5-14.7 12-6.7 6.7-14.5 3.5-22.3 1.9-12.2-2.9-3.5-10.2-.8-14.8zm-19.5 19.5c.9-.3 2.5 0 5.5 1 3.7 2.4 14.8-1.3 19.8 3.2-7.9 7.2-13.9 16.6-22.3 23-1.5-7.9-2-16-3.6-23.9-.3-1.7-.5-3 .6-3.3zm10.2 35.7c11.7-15.6 24.9-29.4 42.3-38.6 6.5.5-8.2 46.2-10.2 52.7-1.3 3.9-5.5 2.9-8.1 4.4-15.2 8.6-26.6 21.5-38.7 33.3 2-17.9 3.1-36.3 14.7-51.8zM261 99.2c5.3-.6 10.8.9 14.6-2 4.5-.5 5.4 0 4.9 4.1-.6 5.2.8 10.7 1.8 16 2.1 6.1-1 10.1-5.8 3.3-4.5-8-11.7-13.2-18.4-19 .9-.8 1.8-2.2 2.9-2.4zm-5.1 12.8c12.7 11.2 38.2 33.5 16.5 48.8-2 1-2.8-.5-3.1-1.9-2.6-14.4-6.9-28.3-12.1-42-.5-1.6-3.7-2.1-1.3-4.9zm-16.2-7.3c5.1.4 5.6 9.7 7.7 15 3.9 10 6.9 20.4 11.6 34.8-15.2-19.8-31.3-31.2-47.8-42.8 8.9-4.2 18.8-7.9 28.5-7zm-47.5 12c2.9-1.2 3.6.2 4.5 1.5 11 15.8 23.7 30.5 31.7 49.4-21.4-15.6-42.8-30-69.1-39.4 12.3-4.3 22.8-7.5 32.9-11.5zM126 145.2c7.3-3.6 14.6-7.1 22.3-10.7 13.9 11.6 25.2 26.1 38.1 38.9.9 1 1.1 2.7 1.6 4.1-2.2-.4-4.8-.2-6.4-1.3-17.3-14.3-37.7-20.8-58.5-27.6.9-1.2 1.6-2.8 2.9-3.4zm-22.3 13.7c5.2-4.7 9.7-4 14.9-.8 15.2 9.4 28.5 21.1 41.6 33.1 1.3 1.2 1.8 3.4 2.6 5.1-25.8-9.8-50.2-21.9-79.7-21.6 7.6-5.8 14.5-10.3 20.6-15.8zm-5.5 38.7c5.6 3.3 11.2 6.7 19.7 11.7-22.5-3.3-40.8-11.1-61.1-10.3 12.1-15.8 16.3-15.9 41.4-1.4zM31.9 223c8-11.1 17-13.8 30-6.4 10.3 5.8 21 10.9 33.5 18.7-24.6-4.3-42.6-6.4-65.9-6.8.8-1.8 1.3-3.9 2.4-5.5zM20 243.3c9.5 1.1 18.9 3.9 28.3 5.9-12 1.9-24 .9-35.5 5.6-.4.1-1.1-.7-1.7-1.1 4-2.8 2.7-11.1 8.9-10.4zm10 30.9c-7.4-2.4-16-2.1-22.8-6.2 1.6-1.6 3-4.4 4.8-4.6 14.1-1.4 28.3-4 46.3-1.3-12 .8-12.3 8.2-15.7 13.5-3.1 4.8-8.4-.8-12.6-1.4zm-3.2 48c-13.1-13.4 15.2-31 29.1-29.4 19.5 2.3 32.7 15.5 46.6 27.3 12.3 10.4-3.2 10.6-6.3 14.4-4.1 5-12 5.7-16 11.9-1.3 2-4.8 4.1-8.6.7-13.3-11.5-29.5-17.3-44.8-24.9zm44.7 251.5c7.8-27.7 13.8-59.7 5.3-87.8-6.3-17.6-15.6-34.1-21.1-51.8-2.8-2.9-1.5-43.1 5.3-33.6 6.9 11.6 12.2 24 15.9 37 2.2 4.6 2.1 14.9 8.6 14.8 7.1-7.9-13-57.5-19.3-67.2-4.4-7.4 3.7-14.3 9.1-19.1 15.7 8.9 21.9 53.6 26 71.7 13.7 57.1-10 121.4 26.6 171.7 3 4-3 6.4-4.7 9.6-2.8 5.3-7.1 9.7-8.5 15.8-.3 1.1-1.6 2-2.4 3-21.9-31.5-15.8-48.8-14.9-84.5 0-2-1.6-3.7-3.6-3.8-5.4-.6-5.5 8.6-6.6 13.2-4.7 20.6-5.9 41.6 1.8 61.8 4.7 12.5 11 24 21.3 33.7 4.3 4 3.6 13.3 5.3 20.8-42.5-15.1-59.2-65.7-44.1-105.3z"/></g><g><path d="M52 1548v15l-37 37h946l-37-37v-15H52M52 52V37.7L14.3 0H0v1600h15l37-37V52m872 0V37.7L961.7 0H14.3L52 37.7V52h872m52-52h-14.3L924 37.7V1563l37 37h15V0z"/><path d="M961 1600h15V0h-14.3L924 37.7V1563l37 37H0V0H961.7M52 52V37.7L14.3 0m.7 1600l37-37V52h872m0 1496H52" fill="none" stroke="#333" stroke-width="2" stroke-linecap="square" stroke-miterlimit="3"/></g></svg>