<svg xmlns="http://www.w3.org/2000/svg" xmlns:xlink="http://www.w3.org/1999/xlink" viewBox="0 0 976 1600"><path d="M960 22v1556c0 3.3-2.7 6-6 6H22c-3.3 0-6-2.7-6-6V22c0-3.3 2.7-6 6-6h932c3.3 0 6 2.7 6 6z" fill="#fff"/><defs><path id="a" d="M960 22v1556c0 3.3-2.7 6-6 6H22c-3.3 0-6-2.7-6-6V22c0-3.3 2.7-6 6-6h932c3.3 0 6 2.7 6 6z"/></defs><clipPath id="b"><use xlink:href="#a" overflow="visible"/></clipPath><g clip-path="url(#b)"><path d="M74.2 1581.3c-10.5-5.1 9.6-26.9 5.4-35.7-8.5-127.1 38-62.3-78.6-96.1-5.7-2.4-1.2-8.5 2.2-11.2 55-60.2 52.5-146 148.9-173.5 19.4 10.8 40.5 13.7 64.3 10.8 20.8-2.1 36.3 14.2 54.1 14.7 20.6 3 33.7-27.8 52.4-19 20.1 42.1 38.3 60.1 92.8 58 7.5.4 13.9-6.5 15.2 6.3 3.7 82.9-37.1 150.6-102.1 190.1-14.5 4-18-32.3-30.3-35.5-62.4 59.1-141.9 88.2-224.3 91.1zm527.9-49.9c-75.1-31.7-121.9-109.4-122.8-192.7 2-29.4 26.1.6 40.7-4.3 42.3-1.8 51.8-52 30.7-83.4-.3-17.1 25.4 13.5 35.2 10.9 34 5.8 18.1 5.6 49.1-2.5 3.3-.8 5.3-4 4.6-7.3l-.3-.9c.8-6.2 8-9.9 11-15.8 17.2-30.6 79.4-30.6 66.3-76.5-3.5-7.7 3.3-13.6 10.5-9.4 55.6 10.4 112.4 42.5 141 89.3-8.8 18-30.1 30.7-49.5 38.7-10.1 6.8 12.8 35.2 9.5 49.4 7.5 50.9 17.5 112.1 50.6 154.8 24.3 23.3-44.4 18.5-57.5 20.8-57.3-2.4-125.6-11.8-173.2-51.7-28.3-32.8-33.7 44.3-39.3 62-4.3 6.9 4.9 18.2-6.6 18.6zm124-499c-37.3 3-12.1-28.7-26.3-49.8-6.6-17.8-18.4-34.6-22.5-52.7-.7-15.2-9.6-52.4-26.3-58-6.2-22.4-24.2-.2-35.8-12.9-17.8-30.3-49.5-44.9-75.1-68.8-4.9-3.6-3.1-9.8 1.4-12.1 44.1-31.3 90.5-36.3 141.7-31.7 38.9-2-3.9 40.9 16.5 48.6 53.8 5.2 97.2 43.7 150.2 53 74.8-13-25.2 86-49.7 95.2-41.3 15.1 53.6 40.2 43 51.9-40.6 23.7-73.8 36.6-117.1 37.3zm-639.5-17.6C-57 918.2 73.4 933 36.4 877c-20-17-24.2-44-40.4-59 .3-23.5-.1-72.2 0-95.1 1.1-7.3 7.8-1.8 12.4-1.6 23.5 1.8 48.8 16.4 73.4 17.5 9.2-14.7-13.5-44.6 2.5-54.8 52.1 10.4 85.6 33.7 126.8 67 106.1 102.6-1.1 56.8-.6 135.2-1.9 10-9.8-.1-14.7-.7-11 7.2-19.9-4.8-33.4-2-23.3-.2-34 17.3-46.1 35-7.8 4.8.2 7.8-1.5 15.6-3.4 26.6-30.2 46-23.3 74.4.4 3.9-1.7 6-4.9 6.3zm195-213.5c-5.7 0-9.2-3.9-10.5-11.5-3.9-48.5-37.8-46.4-57.5-71.9 31.2-17.1 86.6.5 96.7 36.1 28 19.5 17.3-99.7 149.7-65.9 8.3 4.8-1.7 7.7-5.4 10.4-2 3.9 0 9.1-6 10.3-36.9 7.7-51.5 44.9-64.2 76.3-6.1 9.4-42.5-8.5-51.9 7.1-9.2 6.8-22.1 8.2-31.3 1.7-6.2 2.2-11.8 7.2-19.6 7.4z" fill="#333"/><path d="M841.5 728.3c-58.3-11.1-98.6-54.7-142.4-94.7-5.5-4-4.1-11.3 1.9-13.5 8.4-4.4-.1-15.4 9.2-20.3 4.4-38.9 35.2-51.4 23.2-63.6-15.2-19.8 15.9-5.3 25.8-6.7 35.9-.9 70.1 32.3 69.1 65.2 3.3 20.4 32.7 19.7 34.7 44.6 5.6 15.3-3.7 27.4-4.5 39.8 11.8 16.7 10.2 50.1-17 49.2zm-25.8-78.9c-31.3 3.3-16.5 36.8 6.6 35.7 21.5-.3 8.9-33.2-6.6-35.7zM792 587.9c-19.4.8-7.7 32.2 9.5 29.2 21.5-.8 6.4-30-9.5-29.2zm-657.2-29.5c-37.2.2-23.8-34.7-20.2-54.6-16.4-24.9 3.3-58.5 27-66.7 10.2-60.2 35-74.6 95.5-81.4 21-7.3-2.4 16.3.1 18.2 9.3 12.9 23.5 30.3 22.1 49.6 10.8 7.1 5.3 24.1 16.3 28.3 10.2 22.1-115 108.9-140.8 106.6zm25.7-79.3c-17.3.7-30.4 37.1-8 36 22.6.7 34.2-30 8-36zm21.7-61.1c-14.9-1.6-31.3 28.3-9.8 29.2 17.2 3 29-28.3 9.8-29.2zM554 555.2c-49.3-9.8-141.2-71.6-35.6-89 7.4-.2 17 5.6 19.7-4.9 14.7-32.6 56.6-38.4 82.5-21.2 9.8-3.9 18.3-12.4 29.5-11.2 35.8-2.2 93.4 51.9 44.2 72.2-34.9-16.6-21.4 6.3-37.8 4.7-11.2-6-16 8.1-25.7 5.4-7.1-.7-4.1 9.4-10 9.7-21.1-8-11.2 3.9-24.6 6.5-13.7-3.2-14.5 9.6-29.1 10.1-7 4.9-2.5 18.5-13.1 17.7zm-7.4-69.9c-36.4 1.8 9.5 57.4 19.5 22.6-.1-11.4-9.7-22.6-19.5-22.6zm62-26.3c-22.7 1.3-4.7 31.2 8.2 29.9 19.5-1 7.9-29.1-8.2-29.9zm-192.2-74.2c-7.3-.1-4.4-7.6-5.4-12.1-10.4-10.8-25.7-15.4-39.2-16.5-2.2-10.8-10.5-8-18.6-5.1-5.8-.2-3-9.7-9.6-9.4-7.6-.2-15-7.1-21.5-7.4-17.4 8.6-13.1-19.4-36.6-5.8-46.2 4.9-17.2-57.7 7.3-60.6 20-12.2 42.9-9.9 62.1 1.8 25.3-19.9 72.1-5 82.2 24.3 118 10.8 58 74.9-20.7 90.8zm10.7-69.6c-10-.1-20 12.8-19 22.4 8.3 34.2 57.2-19.9 19-22.4zm-60.7-26.3c-9.2.3-14.8 5.7-18.9 16.5-2.1 36.4 51.5-10.6 18.9-16.5z" fill="#ffeb5c"/><path d="M525.3 1331.5c-23.4-.1-40-11.1-62.1-11.3-39.5 5.7-92.6 16.7-121.2-17.8-8.6-9.9-12.7-24.2-13.1-40.2-8.7-19.4-34.3 33.9-56.7 26.7-58.5-27.3-106.8 1.4-122.4-36.2-6.9-19.4-23.6-33.4-35.7-49.7-26.8-38.3 22.9-59.3 42.6-78.4-6.8-10.5-33.5-10.7-38-21.4-11.6-15.9-.6-44.7-14.4-62.9-7.9-17.6-16.3-37-9.1-58.7 8.5-19 23.1-34.7 23.5-56.8 6.6-41.5 57.7-52.2 86.5-24.4 21.4 7.8-11.4-48.6 31.7-57.7 5.6-1.5 11.2-6.5 14.2-12.9 10.2-22.8 32.5-31.8 57.8-29.3 17.7-.8 33.6-14.2 52-13 40.3-4.9 45.5 48.5 58 33.3 15.1-33 47.3-10.8 74.3-30.8 37.3-19.3 61.3 22.9 91.2 37.2 18.1 11.3 18.3 25.2 23.3 39.3 29.9-4.8 59.4 3.9 61.4 41.1 3.1 46.5 63.8 95.2 17.6 137.7-9.7 11.1 33.3 20.7 34.5 37.6 5 14.7-2.6 23.3-7 34.4-6.5 34.8 17.8 76.5-29.1 89.9-31.2 8.7-48.3 59-83 55.7-20.6 2.9-34.6-16.8-49.6-14.3-2 1.8-2.6 4.8-1.3 7.2 16.8 30 6.8 69.9-25.9 75.7zm294.5-646.8c-21.7 1.3-30.3-33-5.1-34.2 18.1-.2 25.8 35.6 5.1 34.2zM693 622.8c-11.1-3.5-25-44.6-33.8-19.4 1 7.9-23.5 10.2-31.5 3.1-7.5-1.6-4.5-11.6-11.3-13.3-27.5-2.5-11.5-23.2-22.2-30.3-26.6-4.8-52.7-10.4-15.8-32.5 4.3-9.1 18-.6 22.2-8.7 3.8-10.9 12 .3 17-7.1 4.5-5 10.4-6.4 16.3-5.2 7.8-4.3 14.7-10.7 24.6-5 8.4-4.5 19.9-18.3 30-6.5 14.2 10.7 13-8.8 21.6-8.8 10.6-4.5 1.5-19.3 3.3-27.9-3.3-13.1-23.7-17.1-28.5-29.8-3.1-5.3-8-.5-12.2-1.6-15.8-4.5-30.5-6.5-45.6 1.2-14.5-7.2 4.3-32.9 18.2-30.4 38.9 12 10.8 7.1 39.5-5.5 20 0 22.2 25.3 42.2 13.1 27.1 6.2 27.2 41.4 14.6 61.7-3.8 14.7 14.3 2.5 14.4 26.6 33.6 3.4 93.6-12.7 109.7 28-1.6 7.4-.1 9.1-2.9 12.1-5.9 7 5.3 16.7-1.9 24.6-8.9 9.5 4.7 14 4.5 23.1-1.5 15.8-37.8 23.8-33.7.1-4.7-33.8-20.8-36.7-44.4-54.7-9.3-11-35.6 2-50.4-6.2-16.4 4.4 10.7 20.6-6.1 29-3.4 6.4-12.3 10.8-12.7 16.4.3 3.6-.9 8.9-4 10.9-7.8 4.3 3.7 19.8-5.2 21.2-11.7 3.9.9 19.2-15.9 21.8zm106.5-5.6c-14-.5-25.1-29.9-5.1-28.9 19.2.1 23.8 28.1 5.1 28.9zm-247.6-100c-19.1 2.4-27.2-29.6-5.1-29.9 17-2.4 26.7 30.5 5.1 29.9zm-396.5-1.8c-22.8-1.3-14.3-33.6 4-34.8 23.6 1.2 19.2 31.8-4 34.8zM617.8 489c-18.3-.2-26.8-29-7.9-30.5 13.1-2.3 27.6 28.4 7.9 30.5zm-336.1-36.4c-16.6-2.8-6.1-15.3-19.4-24.7-.9-15.1 4.8-8.5-5.6-23.3-1.7-3.9.9-9.8-4.5-11.5-5.6-3.1-7.1-10.1-12.4-13.8-8.4-6.9 10.7-23.4-6.2-24-13.8 7.5-37.8-6.9-46 5.5-.2 1.8-1.6 3.3-3.4 3.6-14.2 1.8-18 14.2-30.1 18.8-5.6 9.3-10.9 23.9-11.7 35.5 1 16.2-23.7 13.3-32 .5-7.7-8.6 10.1-15.7 4.6-24.3-9.5-9.4 2.5-20-3.8-27.9-2.9-2-1.9-9.9-2.3-12 14.2-37 71.6-28.7 104.8-26.1 14.4-5.4-5.4-10.9 20.1-23.7-7.9-21-17.6-52 7.9-64.6 6.5-4.4 11.6.7 17.4 2.5 9.2-3.9 17.6-17.9 30-17.3 7.9-3.3 13.4 16.5 22.2 11.4 16.4-17.9 54.7 7.4 35.7 24.3-16.3-11.1-34.9-.6-52.2-2.1-11 6.2-20.3 18.6-29.8 27.2-6.3 7.6-7.4 21.4-4.3 30.7 2.8 4.1 11.6.2 11.4 6.9 2.7 16.7 17.5-2.3 24.9-.2 10.8 1.3 15.5 15.3 28.2 8.7 6.8-1 9.1 6.4 14.9 7.1 8.8-3.3 14.4 5.4 21.7 8 10.9-5.2 8.9 5.6 17.5 8.1 12.3-3.5 18.2 9.8 28.7 12.8 21.6 22.9-22.9 17.1-32.1 28 5 32.3-18.8 17-26.6 38.1-5.4 5.7-13.7 6.4-19.4 6.4-19.4 3.5-11-22.6-25.7-13.6-10.8 4-12.5 23-22.5 25zm-107.5-5.4c-21.8-1.1-6.8-33.2 4.8-28.9 22.6-.4 8 28.6-4.8 28.9zm801.8-.8c-49.3-1.4-49.7-10.5-79-43.3-43.6-1.9-32-48.7-55.1-41.3-23.4 3.4-31.2-22.5-46.5-22.1-26.9 8.9-57.2-12.1-68.2-37.5-6.2-9 9.3-27.3-5.3-29.2-18.8-1.9-33.1-11.5-43.8-29.4-9.4-7.6-24 7-34.6 4-15.7-1.4-31.8-1.5-42-17-6.3-12.2-16.3 1.4-26.4.6-26.8-.9-55.1-10.7-66.2-37.6-1.5-4.7-8.4-5.5-10.8-1.2-24.3 36.3-70.9 12.8-100.9-3.3-39.1-15.2-120.5 24.3-132-33.4 14.2-30.7 1.9-17.4-18.1-33.6-3.6-8.1-9.4-9-17.9-7.5-14.3 1.5-25.3-10.6-36 2.1-50.4 29.7-45.1-14.2-78.2-.4-18.9 7.3-31.7 9.9-47.9 8.8-8.1-3.1-12.7 1.3-15.8 8.3-9.8 11-49.1 42-55.5 29.9C-.4 159.5-11-5.1 0-4 4.4.2 980.5-11.8 980 0c-4.3 111.5 7.8 340-4 446.4zm-556.7-99.2c-32.1-9.4 17.9-51.7 21.4-16.3-1.8 14.2-14.1 16.2-21.4 16.3zM356.4 319c-19.8-2-5.6-32.7 7.7-30.5 18.7 1.3 10.4 30.2-7.7 30.5z" fill="#d81e1e"/><path d="M976.5 443.7c-.6-3.2-4.9-3-8-2.7-23.9 2.4-42.5-6.6-56.6-25.9-4.3-5.8-4.2-15.8-14.8-15.9-12.3-.1-21.8-6.7-28.2-16-4.1-5.9-15.3-14.3-2.8-21.5 34.2-17.5 15-36.2 36.8-34.6 79.5-19.8 18.3-103-39.3-96.4-2.6.1-4.8 4.4-7.6.8-5.9-7.6-12.4-14.5-21.2-18.8-.7-.6-1.3-1.4-1.5-2.3-.1-.2 1.1-.8 1.7-1.3 9.5-6.7 20.3-9.7 31.6-12.4 40.3-9.8 74.7 13.7 104.8 37 2 2.4 6 .8 4.8-2.3-33.2-40.7-91.5-59.2-139.6-33.4-6 2.7-7.1 12.3-17.3 9.3-24.2-7.1-58.6 13-66.7 36.6-1.2 3.6 1.5 10-4.3 10.9-16.1 1.3-17.6 14.8-25.8 14.4-36-2.3-38.1-37.2-51.1-32.4-19.4 9.2-52.2 11.6-66.3-8.2-3.5-5.5-7.5-9.8-15.6-5.8-15.5 9.4-34.3 2.4-49.7-3.5-23.5-8.4-37.9-39.4-27.3-61.8 7.3-21.6 61.1-48.1 71.8-18.2 1.5 4 4.5 1.4 5.7-.2 8.9-12.2 21.4-11 34.2-9.9 14.6 1.2 17.7 12.9 20.3 23.3 5.6 21-23.8 36.6-39.2 23.3-15.5-10.3 12.8-25.2 2.3-26.1-11.8.8-17.8 19.1-12.8 28.8 7 11.5 18.7 9.6 28.9 10.5 30 1.9 44.5-53.2 10.2-67.8-5.3-1.5-4.2-3.9-.8-6.1 13.5-8.8 39.1-7.3 51.6 7.7 2.2 2.6 5 4.6 7.6 3.6 41.7-14.5 84 42.8 22.8 50.7-5.6 1-11.8 1-16.8-2.3-3.9-2.7-10.6-6.2-7.2-11.7 4-6.4 11.5-8.7 19.4-6.6 7.2 3.6 15.8-3.9 6.5-7.2-5.7-1-11.5-2.4-17.1-1.9-17.8 1-28.5 20.6-11.3 32.2 10.1 8.1 20.5 7.6 32.4 6 21.4-2.9 33.1-14 33.8-34.9.1-2.9 1.2-3.2 3.2-2.5 37.9 7.6 77.3 1.8 105.5-28 15.6-13.6 46-28.2 33.8-54-23.3-29.8-61.3-23.6-90.2-4.1C765.8 82 740.9 40.2 688 94.6c-3.2 3.4-3.8 13.8-15.5 9.3-39.5-15.1-44.1 19.4-71.5 16.5-5.4-1.1-9 7.3-11.7 5-28.3-21.5-74.3 1.3-87.3 30.1-4.6-4.2-9.1-11-15.3-13.4-10.1-4-11.6-7.9-3.6-15.1 4.5-4.1 1.3-12.3 7.3-14.8 5.5-2.2 10.5-5.7 14.5-10.1 6.3-6.8 23.9 7.9 45.9-4.5 42-26.6-9.1-76.6-46.9-56.9-5.9 2-9.2 10.8-16.1 7.8-14.7-6.4-27.9-2.3-40.2 4.9S428.8 77 409.3 71.8c-28.3-1.3-58.1 29.5-47.3 58 16.8 37.6 92.9 27.9 81-16.5-5-12.1-20.1-16.3-33.5-9.3-3.2 1.6-8.4 2.6-6.3 7.4 1.8 4.2 5.5.8 8.3-.2 2.5-.8 5-1.3 7.6-2 29.5-3.8 16.3 33.1-3 35.1-12.3 3.2-26.2 1.4-36.1-6.6-42.9-46.5 44.5-71.1 77.8-49.7 25.1 11.6 26.8 28.1 5.8 45.6-5.1 4.5-3.1 13.1 4.2 11.4 61.4 17.1 21.2 77.1-25.9 60.5-38.8-17.6-53.2-30.8-98.6-22.1-20.2 2.4-40 3-58.2-6.8-7.7-4.1-17.9-8.4-15.7-20.3 1.4-7.9 5.8-16.8 12.8-18.7 19.2-5.1 34-14.5 42.4-33 3.4-7.5 11.8-5.3 17.6-8.6 28.7-18.2 21.8-52.6-13-56.9-8.5-2.3-31.4 5.1-35.8 11.9-4.1 6.3-13 4.9-15.2 1.3-15.4-25.6-56.2-20.9-75-9.4-5 3.1-6.3 12.3-14.6 9.7-12.5-3.8-24.2-1.5-35.8 3.6-2.8 1.3-7 3-9.1 1.8-8.9-4.9-17.5-9.8-27.9-11.6-51.7-17-123 31.3-67.7 77.7 4.1 2.8 2.3 4.5.2 6.8C35.7 144.6 21 155.3 3 160.8c-4.3.7-2.6 6.6 1.2 6.1 23-3.1 39.4-16.6 52.3-34.6 2.3-3.2 3.7-4 6.5-3.2 18.4 5.9 34.5-3.1 51.5-7.3 6.7-1.6 14.2-11.3 20.1-4 16.1 20.3 47.3 13.9 62.2 2.4 13.5-10.4 27.1 3.2 40.5-1.2 1-.3 2.3.1 3.4.3 6.3 11.5 17.9 15.6 29.7 17.7-19.7 17.2-4.5 47.1 19.6 51.8 21.2 6.8 45.1 5.6 67.3 3 19.5-3.6 37.5 0 54.1 8.9 28.2 18.5 68.9 26.4 91-5.9 13.1 29.3 47.4 46 78.5 40.7 4.4-.9 9.5-9.2 15.1-1.8 10.8 14.3 42.3 24.3 59.3 18.9 8-2.5 14.6-9.6 23.7 1.8 9.7 12.2 23 22.4 40.6 22.8 1.8 0 2.8 1 2 3.7-8.5 22 7.3 43.7 25.8 54.4 14.2 9.8 30 16.1 47.9 11.3 8.3-5.6 14.6 21.8 44.8 21.7 3.8.1 11.2-3.8 12.7 3 3.5 15.8 13.5 25.9 26.7 33.2 5.8 3.2 15 2.7 18.5 7.2 14.3 24.3 41.8 45.8 71.6 36.2 2.7-.5 7.4-.4 6.9-4.2zm-133-389.4c11.2-3.5 41.4 6.5 46.5 16.9 3.9 7.9-.8 15.6-6 21.6-6.6 7.6-13.5 19.9-19.1-2.1-4.5-17.9-21.4-21.9-37.9-23.7-3.4-.4-7.4 1.2-9.8-2.9 8.2-5.2 17.4-7 26.3-9.8zM793 89.7c-1.7-9.4-10.8-15.6 4-16.5 18.1-1 36 .6 52 10 44.5 42.2-60 71.4-89.6 54.9 21-6.3 35.6-27.7 33.6-48.4zm-103.7 13.9c14.7-23.1 93.5-51.7 93.7-7.5 1.1 11.2-23.6 42.8-37.1 36.8-13.5-13.9-29.3-20.6-48.8-15.9-6.3 1.5-8.5-4.4-12.9-6.5 1.6-2.4 3.3-4.7 5.1-6.9zM505.2 49c42.9-21.9 81.5 45.6 18.8 44.6-13.2 1.7-8.9-6.8-8.9-12.9 1.1-22.4-23-26.5-9.9-31.7zm-63.3 24c-4.2-.4-2.7-1.8-1.3-3.9 13.2-21.7 66.7-20.2 64.3 12.3 2.9 10.3-6.8 14.3-11.8 20.5-9.3 10.4-15-27.1-51.2-28.9zM299.7 54c10.4-10.1 28.9-8.1 41.3-2.8 15.6 6.4 13.4 24.2 1.8 34.1-10.3 8.5-14.3 8.3-16.6-5.8-1.7-10.5-11.4-15.6-19.9-20.9-2.4-1.4-8.5-1.1-6.6-4.6zm-173.4 51.8c1.3 6.4-8.1 5.1-12.4 6.8-14.7 5.7-29.8 9.9-46.2 8.5-17.1-1.5-27.5-15.3-30.6-30.9C37.1 79 55.8 58.2 67 55c16.2-4.6 59-2.8 70.7 9 2.9 3.3-3.8 7-6 10.6-6 9.8-7.8 19.4-5.4 31.2zm64.8 7.6c-8.7 6-18 8.3-27.4 9.2-22.8 2.2-39.3-24.1-25.9-43.3 23.5-43.6 112.5-7.7 53.3 34.1zm48.5-3.9c-9.7 2.2-18.8.7-28.4-1.2 15.3-19.8 7.4-37.5-10.8-52.1 13.7-15.2 36.5-14.9 55.1-11.3 31.6 13.9 14 57.3-15.9 64.6zm10.5 9.7c-8.7-4.7 31.1-13.2 30.7-47.5.1-10.1 1.8-11.8 11.9-8.9 64.8 19.3-2.7 93.2-42.6 56.4zm556.7 219c-4-6.4-10-2.8-15.4-1.3-21.9 6.6-52.9-15.5-60.3-35.8-5.1-16.6 7.2-34.1 25.9-37.1 7.1-1.1 15.6-.1 6.8-12.1-4.6-6.2 4.1-13.5 8.4-18.9 19.4-24.4 62.8-19.1 76.9 8.9 2.2 4.4 6.8 4.4 10.8 2.2 19.6-11.7 59.2 13.1 66.3 32.3 11 19.3-7.9 37.2-26.2 41-13.9 3.5-11.4-8.5-14.5-13.7-8.5-14.7-19.8-21.9-37-23.1-72.1-7-28.1 63.4-11.7 42-1.8-1.2-3.5-3-5.5-3.5-7.8-2.2-10.7-8.6-12-15.2-2.8-14.3 9.2-13.6 17-13.3 40.7-7.2 64.3 47.7 20.5 64.4-18.2 7.5-39.3.1-50-16.8zm58.3 1112.3c-14.4-35.6-25-73-30.2-111-2.6-17.6-4.4-35.6-13.7-51.4-1-2-1.8-4.2-2.3-6.4 18.2-6.4 50.7-24.4 53.5-45-8.1-29.7-71.8-67.4-100.1-79.4-12.8-5.7-25.9-11-40.8-10.9-4.2.2-12.9 2-14.2-4.9-5.3-21.9 11.4-32.6 10.8-48.4-4.1-22.5-16.9-37.4-40.8-40.6 4.9-4.3 13.2-18.8 18.6-19.2 46.7 13.9 93.9-7.4 133.7-30.6 4.3-2.5 8.3-6.5 9-11.9.2-1.8-1.7-5-3.4-5.7-15.3-6-29.4-14.6-41.8-25.3-25.9-8.1 7.8-17.2 16.9-24.4 29.8-20.9 52.2-48.6 64.2-83 1.8-3.9.1-7.4-5.4-7.5-39.2 2.3-75.9-15-110.6-31.1-21.2-11.4-43-20.6-67.2-22.9-1.4-.1-4.8 1.9-4.1-2 1.7-9.2 2.9-18.6 6-27.3 8.7-20.2-27-20.6-39.3-22.3-40.5-1.2-82.6 8.8-117 30.7-25 21.5-21.5 2.2-48.5 12.4-17 4.8-33.7 10.5-51.9 11-15 .4-26.7 9-32.8 24.1-2.2-3-5.7-5.6-6.1-8.7-1.7-13.1-29.8-16.8-12.9-36.4 2.8-3.2 4.4-7.6 6-11.7 26.6-64.5 73.8-41.6 112.3-68.8-.3-1.3-1.3-2.4-2.6-2.9-20.2-3.3-40.3-7.4-60.6-9.2-67.7-9.7-105 8.1-131.5 72.4-1.4 2.5-4.2 3.5-5.5-.2-12.2-46.3-62-47.7-101.5-45-7.8-.3-15.6 10-6.1 14.9 10.5 6.8 20.7 14 31.6 20.1 22.8 12.8 25 36.9 32.4 58 .3.8-3.6 3.4-5.8 4.6-1.6.8-2-.9-2.8-2.2-6.8-10.2-13.5-20.7-21.4-29.9-38.8-40.7-88.7-82.5-145.8-91.4-5.2-.6-13.8-7-16 .7-5.8 17.8 1.7 36.2 1.1 54.4C69 734.3-2.7 703.9 0 722.8c25.6 6.9 52.6 11.7 77.7 21.7 2.7 1 10.9 7.9 10.9-1.2.3-18.5-6.4-36.7-5.2-55.3.5-.1 1-.1 1.6 0 64.8 13.9 121.6 56.1 161.2 108.4 11.5 12.7 9.3 20-.4 31.5-7 8.3-16.7 10.4-24.6 16.1-15 10.5-13.8 26.7-14.7 42.6-7.2-4.4-14.4-10.7-14.2-20.2.5-11.5-9.2-24.1 3-34.4 10.6-9 14.6-21.9 21-33.4 1.4-2.6 6-8.1 1.6-10.5-6.3-4.8-18.4 35.9-30.5 41.1-.9-25.9-20.7-92.3-48.1-97.5-1.7 1.6-.3 4 1.3 5.5 13.6 12.9 27.1 35.5 28.7 55.5-13.6-14.7-25.8-27.9-38.1-41-.9-1-2.2-4-4.6-1.7-2 1.7-2.2 4.7-.6 6.8 10.5 12.6 20.3 25.8 32.8 36.6 5.8 5 14.1 9.9 15.9 16.4 5 18.4 7.3 37.5 10.6 56.3-5.4-.1-6.8-5.2-10.3-7.7-12.2-8.7-24.7-17.2-35.8-27.2-10.3-9.3-9.4-23.9-13.7-36.1-4.5-11-11.1-37.1-23.9-39.7-2.3.6-.9 2.4-.3 3.6 9.6 19.8 17.6 40.4 23.7 61.6C85 791.8 47 767.8.4 753.5c-1.7-.4-3.9-1.7-4.7.5-1.1 6.2 22.2 13.7 27.6 16.8 20.6 8.4 39 20.8 59.3 31.2-6.2 2.3-10.9-.5-15.9-1.2-16.2-2.3-32.3-4.7-48.5-7.1-3-1-6.7-.8-6.7 3.4 0 2.2 2 3.4 4 3.8 18.4 3.5 36.9 7.1 55.4 10 9.4 1.5 20.8-1.5 28.1 2.8 17.3 10.2 32.7 23.5 51 37.2-19.5 0-36.3 1.2-52.7-.4-7.3.6-41.5-8.6-41.8.2.1 1 .8 1.9 1.7 2.3 23.9 6.2 48.4 6.1 72.9 6.2 10.7 0 22.7-3 31.9.8 10.1 4.8 19.4 15.5 26.9 24.7-27.6-13.3-60.5-1.1-71.8 27.9-1.3 3.1-4.4 3.2-6.9 2.3-11.9-4.8-24.5-7.4-37.3-7.8-3.3-.1-5.2 1.6-5.3 4.3 0 6.6 20.4 4 25.9 5.9 2.8.9 15.5 2.3 7.3 5.4-14.7 6.2-30.2 10.3-46 12.3-2.8.4-6 1.5-5.9 3.7 2.5 13.3 49.1-5.8 57.9-8.8 4.2-1.5 5.4-.4 4.5 3.3-5.3 28.9-29.3 45.6-23.9 77.6-17.8-8.2-67.4-52.2-66.3-71.8 13.2-22.3 43-40.2 18.6-64.8-13.6-14.1-24.2-30.4-30.5-49.2-.8-3.3-3.9-9.5-8.8-7-3.8 5.4 3.6 15.3 5.6 20.9 34.3 69.8 53.3 32.3 18 82.6-3.9 6.4-11.6 11.4-11.6 19.5 8.7 30.9 34.8 55.3 61.1 72.4 9.1 5.6 22.5 6.4 23.2 21.7.2 4.2 4.6 8.1 5.7 12.4 1.8 7.3 8.1 13.5 6.4 21.7-8.6 34 14.1 47.1 42.8 57.2-36.4 9.8-66.9 53.5-37.8 86.3 10 11.7 23.5 21.2 28.6 36.6 1.3 4.1 9.1 10.3 1.8 13.1-12.4 4.7-24.2 10.7-35.2 18-24.2 16.2-41.3 38.6-56 63.6-18.5 30.5-25.6 68.6-52.5 93.2-9.4 7.7-14.5 10.8 0 15.9 79.9 29.4 87.2-10.3 76 27.8-5.4 12.5-3.9 25.5-2.2 38 1.3 19.1 3.5 41.9-10.2 56.9-4.9 9.7 11.2 10 17.7 9.5 79.9-5.4 161.4-31.6 217.3-91.3 26.1 48.3 26.7 40.9 67.9 10.4 49.3-37.9 73.6-108.3 68.5-169.2-.5-4.1 2.1-5.7 4.9-6 10.5-1 21-1.7 31.6-2.1 3.7-.1 5.6 1.1 4.8 6.2-7.4 41.7 12.1 81.8 30.5 118.2 16.8 30.8 41.7 56.4 71.9 74.2 9.2 5.9 19.7 10.9 29.7 10.9 5.1 0 1.6-12.7 2.7-19.5 5.5-22.6 9.6-46.2 18.2-68 1.9-3.5 5-5 10.5 1.6 49.8 50 190.5 73.7 254.1 43.8-11-14.1-22.9-27.4-29.3-44zm-147.7-366c4.6 13-3.3 21.8-7 31.6-12.2 35.6 25.7 64.9-26.8 87.6-16.6 6.4-28.5 16.6-38.9 30.5-44.8 62.2-98.7-8.7-144.9-30.5 19.8-9.1 26-28.3 36.5-43.8 9.3-13.8 23.4-20.6 36.5-28.8 22.9-14.2 27.4-48.8 12.8-70.4 0-1.8 1.9-4.6 4.2-2.6 26.7 15.8 58.2 11.6 86.3 1.6 11.4-6.1 36.9 12.4 41.3 24.7v.1zm-409.6-143c1.5 1.8-1.8 7.7-2.9 11.7-3.8 14.6-8.1 29.1-11.2 43.9-1 4.5-2.1 9.9.8 14.7.9 1.4.4 2.6-1.1 3.6-30.7 19.8-5 55.3-31 61.1-16.9 6-40.5 4.1-48.1-13.3-3.9-8.8 2.4-17.1 3.7-25.6 7.1-30-20.1-56.5-6.5-85.7 3.5-6.7 10.4-12.7 17.2-16.2 13.5-7 22.3-17.9 29.5-30.4 5.6-9.7 22.5-14 32.8-9.6 25.5 9.4-2.1 25.7 16.8 45.8zM419.9 967c4.8.2 10.8-.8 12.9 4.2 7.3 17.6 41.1 54 59 59.9 2.1.6 1.1 1.9.3 2.4-14.6 8.4-19.1 26-32.3 35.5-5.3 3-10.7 9.2-16.4 10.2 0-2-.5-4.2.3-5.8 5.7-12.6 11.7-25.1 17.3-37.7 1.3-2.8 1.7-7.6-1.3-8.1-5.4-1-6.6 5.6-8 8.6-7 15.1-15 29.7-17.4 46.8-.5 4-9.4 6.9-15.6 11.1 9-25.8 13-49.6 22.5-74.4.3-.7-.2-1.6-.4-2.4-13.1 4-13.7 20.7-17.5 31.3-5.3 16.4-7.8 33.6-12.7 50.2-1.4 4.8-6.8 8.4-12.5 15.1 4.3-34.8 10.1-62.2 19-94.6 1-3.9 3.5-7.7-.4-11.3-14.9 27.7-20.3 60.2-23.9 91.3-.9 13-2.7 25.9-4 38.8-.2 2-1.7 2.7-3.2 1.9-4.5-2.2-13.5-.4-12.1-8 4.1-22.8 4.9-46 6.9-68.9 1.4-15.8.5-31.8.7-47.7 0-2.6-1.8-3-3.5-3.3-2-.4-2.5.9-2.6 2.7-3.6 29.9-3.6 59.2-5.4 89.9-11.6-10.5-11.4-10.5-12.6-44.5-.4-10.2-2.5-20.3-4.1-30.3-.3-1.9-1.3-5.2-4.3-4.5-2.6.6-1.7 3.2-1.7 5.3-.3 16 4.2 31.8 1.6 47.9-12.8-13.7-11.6-34.3-21.9-48.7-10.8-7.9.4-10.3 3.7-12.3 16-10 32.4-20 51.5-22 9-1 17.3-3.8 25.5-6.6 7.1-2.4 7.1-10.9 9.8-16.9.6-2.1-1.4-5.3 2.8-5.1zm90.6-61c-4.6-17.2 8.9-11 14.1-11 27.7 1.1 23.6 39 57.8 47.5 12 4 23.7 23.5 19.5 35.5-3.6 10-.8 20.8 2 30.5 4.3 14.7-8.9 43.8-29 42.7-18.4-.7-33.4 3.6-39.2-18.7-.9-2.1 2.7-2.6 4.3-3.9 13.6-10.5 24-22.8 25.4-41.3 2.9-25.9-2.1-42.1-30-46.6-10 2.2-19.1 3-28.8.6-17-4.7 10.3-12.8 3.9-35.3zm9.3 45.5c18.1-2.4 39.2-2 36.8 23.1 5.5 37.1-34 68.3-65.5 47.3-18.2-14-35.2-29.2-47.5-49-9.2-14.8.3-43.5 17-46.2 16.7-1.7 27.2 26.8 59.2 24.8zm11.2 110.3c-9.8 12.6-26.4 18.5-32.6 34.5-10.2 28-19.3 56.7-52.4 62.5-42.9 10.2-70.3-22.2-27.2-53.9 14.1-11.6 32-16.9 45.6-28.7 10-8.8 17.1-20.8 26.9-30 16.9-15.9 16.3-4.1 31.2-9 11.9-2.2 15.5 17.2 8.5 24.6zm-169.6 75.5c-21.3 24.8-54-14.1-65.3-32.4-10.6-18.8-14.4-39-9.4-60.4 1.4-8.4 2.4-17.1 11.8-21 13.8-.1 26.3 14.1 28.6 29.3 2.4 16.1 10.2 30.8 22.2 41.8 14.7 13.6 20.6 31.8 12.1 42.7zM378 987.2c-12.3.9-23.7 6.2-34.8 12-11.9 6.5-41.8 33.5-40.1 2.8 5.8-23.5 5-58.6 30-71.3 21.5 1.7 30 23.2 53.4 14.7 7.3-2.9 20.2 6.4 20.5 14.9.8 22.4-2.7 25-29 26.9zm-161.1 93.1c39.4 24.6 64.6-18.3 61.5 8.6 5.5 25.6 28.5 55.1 54.2 62.4 3 .7 4.6 2.9 1.1 5.5-31.7 24.5-17.9 44.8-33.4 42.1-54.3-3.7-21.9-50.5-71.8-73.8-17.9-10-25.2-24.7-19.5-44.2 2.2-7.7 6-1.8 7.9-.6zm105.8 103.3c6.1-9.2 13.8-16.6 20.8-24.9 7.4-8.7 20.6-6.8 26.4-17 7.6 9.2 23.3 2 29.6 15.9 3.2 7 13.3 7.9 21.4 9.7 12 2.7 14.9 13.6 18 23.5 6.6 20.4-2.9 37.1-29.8 31.8-15.1-2.7-27.8 2.7-41.2 7.2-36.4 16.9-63.5-9.9-45.2-46.2zm115.1-14.3c39.2-4 56.9-30.7 67.2-66.1 6-21.1 28.9-24.1 36.6-43.4 2.5-6.3 8.9-.8 12.9 0 11.9 3 23.4-5.1 28.2 10.4 12 29.9-7.2 52.7-33.8 64.3-13.8 8.2-23.3 20.3-29.8 34.4-8.4 18.3-27.7 32-47 36.4-28.6 6.7-22.3-21.1-34.3-36zM699 1018.8c-4 17.2-22.4 34-40.2 36.3-24 4.7-36.7 8.3-60.2-2.3 14.5-17 17.8-33.8 12.8-54.9-.4-30.8 2.2-54-32.3-66.9-4.1-1.3-24.3-14.8-15.1-17.7 20.3-6.8 34.9-19.9 45.4-38.6 25.2-16.5 55.2 4.4 55.7 33.5 2.3 39.8 40.2 69.7 33.9 110.6zM543.7 781.5c40.1-29.5 91.2-36.1 139.4-31 25.3-1.3 6.4 25.1 6 38.5-2.2 11.2 5.9 9.9 12.9 10.2 58.3 6.1 112.3 60.4 172.8 52.6-8.8 31.1-28.8 48.5-50.3 70.2-9 10.5-23.1 15.8-35.4 22.7-7.9 4.4-7.2 10.3.1 15.5 16.9 11.7 31.8 25.6 52 31.7-39.2 22.9-81.6 41.2-127.2 35.3-11.7-2.9-4.2-11.6-4-16.3.9-30.1-22-53.9-28.5-81.5 9.2 13.8 22.6 22.3 35.1 31.3 9.4 6.7 5.3 16.6 10.2 24.1 5.8 8.5 10 20 20.7 23.2-1-3.5-.9-8.1-3.1-10.3-8.1-8.1-11.5-18.2-15-30.5 4.4 5.6 43.2 30.5 45.5 22.6 3.2-5.2-3.4-5.6-5.7-6.6-18-8-32.8-21.3-51.9-31.8 16.1-.3 29.8 2.2 43.3 5.1 2.9.6 6.8 2.3 8-.5 1.6-3.8-2.8-6.1-5.6-6.6-16.2-3-32.4-7.1-48.7-7.7-13.1-.5-16.7-11.8-25.4-16.5-22.9-13.3-7.8-46.3-36.7-56.8 15.8-6.6 23.5 6.8 32.4 14.1 21.5 17.3 49.7 38.2 77.3 42.4-7.8-12-23.2-14.8-34.8-21.5-15.4-8.4-28.3-20-44-32.3 18.7 3.5 32.4 6.5 50.3 8.1 26.1 4.2 45.6 27.4 73.6 24.4 8.9 1.2 10.7-4 .4-6-14.9.2-26.7-8.6-40-14.1 12.6 1.5 82.8-4.5 83.4-18.3-1.5-3.8-6.1-2.2-8.8-1.3-23.5 7-46.9 10.3-71.8 8.5-14.7-1-29.4-4.2-44.3-3.3-3.7.2-7.5-1.4-13.7-2.7C734 859 751 849.7 773 847c4.1-2 .1-6.4-3.5-6.1-24.5.5-47.4 11.7-69.4 21.2-4.5 2.4-12.1.1-18-1.5-18.2-5-36.3-4.6-54.7-1.6-6.2.9-11.7.6-6.3-6.4 11.8-46 11.8-7.7 70.2-35.2 2.6-1.1 1.9-2.9 1.3-4.5-1-2.8-4-2.3-5.6-1.7-10.2 4.6-21.2 6-32 8.6-6.9 1.7-13.3-1-21 1.9 10.9-17.8 20.5-34.6 35.3-47.6 1.1-1 2.3-2.1.7-3.8-11.4-5.5-23 16.7-28.9 23.7-4.3 5.5-5.2 2.9-6.7-1.1-2.5-6.4-5.2-12.8-7.3-19.3-.8-2.6-.4-6.7-3.8-6.3-9.6 5.3 3.3 27.8 7 34.7 2.5 4.4 1.1 6.7-.7 9.3-8.1 12.1-14.4 25-17.5 40.3-7.7-20.9-24.5-31-41.8-41.4-10.2-6.1-18.5-15.4-27.7-23.1-3.1-2.6-.9-4.3 1.1-5.6zm-107 25.2c4.6-3.1 9.4-.5 14.1-1.8 16.1 1.7 30.5-3.5 44.5-11.2 14.4-7.8 36.1-4.6 46.8 7.7 11.3 13 26.7 19.6 40.1 29.3 40.2 26.7 8.7 63.4-24.5 76.3-4.2 1.7-3.9-3.1-5.5-5-9.1-11.2-20.4-18.5-35-13.6-10 3.3-17.1.4-24.7-5.3-10.3-7.7-23.2-5.7-34.8-8.4-13-3.1-25.4-9-37.9-14.1-6.6-19 .1-43 16.9-53.9zm-5.5 68c11.3 6.7 23.8 9.9 37.1 10.5 28.4 0 42.1 24.4 26.6 48.6-1 1.9-5.7-.7-13.8-7.6-26.2-24.1-49.3 2.5-50.2 30.7.1.5-.8 1.8-1 1.7-4.9-.9-12.9-.5-14.2-3.3-14.8-32.1-38.3-8.2-60.7-26.2-16.8-11.3-25.2-11.7-43.3 5.7-4.8-17.3-2.2-32.1 13-42.4 9-6.2 20.2-2.9 30.3-5 9.8-2 19.2-6.1 27.3-11.9 11.7-8.6 37.2-7.7 48.9-.8zm16.5-169.8c-39.2 8.9-53.3 45.5-66.8 78.6-.3.7-1.6 1.5-2 1.4-10.3-4.2-20.9-3.1-31-1.9 4.4-21.7 27.3-24.4 39.1-38.2-3.4-9.4-13.5 2.5-19.9 4.1 10.7-21.5 26.8-43 52.6-43.3 5.9-1.2 25.6-5 30.1-2-.7.6-1.4 1-2.1 1.3zm-134.8 78.8c33.2-76.3 56.5-110.7 146.2-91.8-48.3 6.5-76 5.5-100.4 52.8-12 15.8-15.6 42-37.2 48.2-12.1 3.7-16.2 2.1-8.6-9.2zm-27.6-56.6c19.3 17.2 31.9 36.9 16.3 62.8-20.8-57.6-25.2-58.6-72.3-73.6 8.3-4.3 46.2 2 56 10.8zm-50.4 3.6c-5-2.2-9.3-5.8-17.7-11.1 45.1 12.8 62 22.3 73.6 67.2.9 2.5 5.5 6.9 1.1 7.6-5.5.9-14.6 8.3-16.9-5.3-4.2-25.5-14.5-47.2-40.1-58.4zm3 115.9c28.7-12.8 15.1-44.7 68.7-42.1 13.7.9 24.9-6.7 37.2-10.3 19.1-5.7 44.6-2.9 57.3 20.3 7.6 13.9 5.6 28 5.7 42.2 0 .7-1 2.1-1.5 2.1-16.2-.7-28.2 9-41.3 16.1-16.2 8.6-40.6-1-51.7 16.8-2.7 4.2-4.7 4.7-8.8 2-28.5-19.1-48.5-4.8-60.6 17.7-2 2.8-3.6 7.8-8.2 3.4-10.4-9.8-18.7-21-19.5-36 1.9-14.8 5.6-27.6 22.7-32.2zm-93.3 266.5c-20.7-6.7-30.1-13.9-27.4-36.4 2.8-33.2-30.4-59.8-18.1-93.8 9.9-22.1 21.7-30.3 23.7-57.4 4.6-29.3 37.5-46.2 63.9-32.1 12.6 6.8 23.5 15.7 34.7 24.3 7.6 5.8 5.1 9.5-1.9 13.7-38.3 21.4-11.7 62.7-9.7 95 .1 9.9-2.6 20.1-5.6 29.7-1 3.2.5 5 1.1 6.3 5.2 17.3-19.1 15.6-3 52.1-19.3 2.6-38.7 4.8-57.7-1.4zm.5 121.4c-8.9-11.7-18.7-22.7-27.8-34.1-27.1-45.2 45.8-76.6 82.1-75.9 76.7 12.8 33.7 84.5 103.6 81.1 8-1.5 4.3 6.8 5 9.3 2.9 10.7 7.7 19.2 17 25.5 5.4 3.7-.7 5.5-2.2 7.2-18.4 21.9-41.3 50.9-72.7 30.2-28.9-20.9-78 11.4-96.6-26.6-2.2-5.8-4.7-11.8-8.4-16.7zm264.6 195c-16.2 40.7-47.4 69.4-83.2 92.9-.4.3-2.7-.7-2.9-1.3-2.3-9.5-10.8-15.2-14-24.5-5.5-15.9-12.6-13.7-23.7-2.5-54.6 56-135.4 78.8-211.7 83.2 11.8-19.3 10.5-44.1 7.6-66.1-1.7-12.5.1-25.5 3.9-37.8 5.7-11.9 2.5-21-12.3-17.1-24.1 3.2-48.2-3.7-71.1-10.7 15.7-14.6 28.5-30 35-50.9 3.3-8.9 9.2-16.8 12.3-25.7 8.3-23.5 23.7-42.4 39.8-60.5 15.4-19.2 38.4-30 60.8-39.4 4.8-1.8 7.9 3.4 11.9 5.1 16 6.8 32.1 6.9 49.2 5.5 50.3-1.2 50.6 38.3 102.4-7.8-4.8 11.7-8.7 21.9-13.1 31.9-2.1 4.8-7.7 3.9-11.5 4.7-21.6 4.5-41.9 12.7-62.9 19-5.7 1.7-13-1.5-19.4-3.1-28.6-6-61.6-5.1-87.1 10.3-7.9 3-3.4 8.9 3.2 5.7 27.9-12.2 59.4-15.3 88.4-7.1-8.3 6.5-20.5 6-28.7 12-10.1 7-22.2 8-32.5 14.3-29.4 17-65.2 30-86.4 57.2 1.7.4 2.8 2.7 5.3 1 24.8-18.4 50.8-35.4 79.7-46.2-9.8 19.8-25.3 37.8-44.9 49.2-2.5 1.3-1.4 3.4-2 5.1 1.6.3 3.6 1.3 4.8.7 39.9-15.8 43.6-60.4 81.7-73.6 33.7-12.2 66.9-26.7 101.7-35.4 9.3-2.1.6 5.8.6 5.9-7.4 14.4-13.1 30.4-23.7 42.1-7.3 8.1-22.3 7.1-33.1 13-21.6 11.9-41.3 26.3-60.7 41.3-2.9 2.2-6.7 6.1-4.5 8.7 3.1 3.7 6.1-1.6 8.6-3.4 26.3-16.6 51.3-39.3 81.9-46.6-16.7 28.2-37.2 52.6-60.1 74.8-7.6 7.3-19.2 8.1-29.3 9.8-19.8 3-51.8 19.6-61.1 37.5-3.5 4.3 0 5.7 4 3.3 22.4-20.6 43.7-30.4 74.4-36.3-18.2 17.8-31.2 37-50.8 49.5-1.5 1-7.2 4.9-4.5 8 10.2 9 75.2-64.9 86.1-76.3-4 16.6-5.9 31.3-11.5 45.1-1.8 7.1-12.5 24.9-7.9 30.4 2.1 1.2 3.6-1 4.9-3 9.3-15 12.7-32 18.2-48.4 5.9-17.8 5.1-37.3 21.2-52.6 18.5-15.4 26.4-40.5 41.8-59.1 6.6 33.4.3 71.9-15 102.3-1.1 2.1 0 5.3.1 8.1 23.2-16.8 25.5-66.5 25.6-93.3 0-7.7-.3-15-3.5-22.4-3.6-8.5 4.1-14.9 7.4-21.8 2.3-6.7 5.3-13.2 9-19.2 9.9 18 15.5 38.1 21.9 57.5 3.6 12.1 8.4 24.6 8.3 36.9-2.6 17.8-25 35.1-18 55.2 1.5-1.2 4-2.2 4.4-3.6 3.1-13.2 10.1-24.7 15.8-37.8 5.1 20.6-.4 39.6-1.2 59.5-.2 1.8 1 2.5 2.5 2.1 4-1.1 5.1-4.9 5.4-8 1.6-14.8 4-29.6 3.6-44.3.3-16.5-6.9-32.8-7-49.2 11 9.6 16.6 23.6 24.5 35.6 4.4 5.1 4.9 18.6 12.7 18.7 3-.6 3-3.6 2.2-5.6-8.6-22-19.8-42.9-36.2-59.8-12.5-12.9-15.6-29-21.7-44.2-16-34.2-13.8-19.4-1-52.9 6.1 47.1 59.5 64.1 100.4 56.7 2.3-.9 2.5 1.9 2.5 3.8.4 32.6-3.6 63.8-17.5 93.9zm38-111.9c-48.2 13.2-117.3 5.3-115.3-59.9-1.9-13.5 6.2-12 16-13.3 14.3-1.8 28.1-7.6 41.9-12.1 20.5-6.6 44.9 13.3 54.8-14.6 5.1-14.3 15.1 7.9 35.9-5 11.1-6.3 18.3 1.1 26 5.6 35.3 18.1 69.1 68.3 32.6 102.9-21.4 18.8-61.8-13.1-91.9-3.6zm407.2 178.7c-68.7 7.7-166.5-8.6-216.5-59.1-9.9-6.1-12 5.7-15.2 10.2-10.5 20.1-14 42.5-18.4 64.6-.9 4.7-3.2 8.8-.4 14 .8 1.6-3.3 1.7-5 .9-69.7-33.6-116.7-110.3-116.1-187.8 1.6-19.5 12-5 14.1-4.4 55.5 19.8 86.3-39.6 56.9-85.6 15.5 13.8 28.4 17.7 46.5 18.6-29.9 50.6-53.1 108.6-43.7 168.7.7 4.9 1 10.3 6.1 12.7 1-3 2.9-6.1 2.7-9.1-1.2-19.6-3-39.2 1.1-58.8 1.1-5.2-2-11.2 2.7-15.9 8.1 18.6 17.4 36.8 21.5 56.8.7 3.3 2.2 9.2 5.3 8.3 11.9-2.9-14-62.2-19.3-70.3-11.7-18.8 20.1-68.6 29.7-86.6 4.4-11.9 27.8 12.8 33.3 16.7-4.7 31.7-7.9 64.4-4.7 96.9.2 4.3-2.2 11.4 3.4 11.1 4.5-.3 4.4-8.2 4.1-13.1-1-27.8-.2-55.8 5.8-82.9.6-7.1 3.2-3.2 5.2-1.2 8.5 8.8 17 17.5 25.2 26.6 7.7 8.6 1.9 19.6 4.6 29.3 4.9 17.4 6 35.7 12.8 52.8 3.8 7.2 10.5 38.5 19.5 36.9 1-.7 1.1-4.4.3-6.2-12.8-30.7-22-64.4-24.6-97.1 22.2 18.1 96.6 118.6 121.4 112.7 2.7-3.2-4.1-8.3-7.3-10.7-30.3-22.5-54.3-51.1-80.4-81.6 21.7 8.4 41.8 14.3 60.2 24.2 6.8 2 23.6 17.8 28.6 12.3 4.4-11.2-79-43.4-90.9-46.4-19.2-6.5-26-26.3-42.5-38.9 34.1.6 64 4.1 94.9 15.8.3.2 1.8-1 2-1.8.7-2.4.2-5.2-2.1-6-10.5-3.6-21-7.2-31.6-10.1-19.6-5.4-39.9-7.4-60-7.4-21.7 0-27.2-21.4-43.3-28.2-6.3-2.7-11.7-7.8-17.8-12 15-1.7 29.5-6.5 43.4-11.2 17.3-5.9 23 8.8 33.7 13.6 12.9 3.2 70 41 76 28.8 1.4-3.4-3.6-3.5-5.9-4.4-28.2-11.7-54.5-26.9-81.8-42.4 10.9-4.8 22.2-5.2 33.1-6.5 22-2.6 43.8-6.3 66-6.3 1.1 0 3.2-2.1 3.1-2.9-7.3-9.7-45.4.6-58.4-1.1 17-11.3 30.4-24.5 49.5-28.3 8.6-2.9 2.3-11.2-4.7-7.5-21.8 6.4-40.5 18-55.1 35.5-3.5 4.2-8.7 3.5-11.9 3.6-23.3.3-44.9 10.8-66.9 14.1 11.9-12 18.5-29.6 36.3-34.9 16.2-4.9 29.8-13.3 37.9-28.2 4.8-9 5.9-19.6 3-29.4-1.4-4.5-.4-5.7 1-5.7 32.3 4.7 61.1 17.5 88 35.2 17.7 11.1 32.5 26 48 40.2s.5 17.9-5.6 24.3c-27.6 30.4-54.1 14.7-38.3 38.8 7.9 12.3 9.3 26.6 11.2 40.4 8.5 55.6 19 116.8 56.8 160.5-8.7 1.7-17.5 3.9-26.5 4.9zM617.3 428.5c-25.9-14.4-70.9-1.1-84.9 25.3-1 1.9-1.6 5-5.8 4.8-15.8-.6-31.1 2.8-44.3 11.4-44.8 27.1-6.6 56.8 21.5 72.8 27.5 15.6 60.7 22.2 93 23-7 2.1 5.7 13.2-8.3 14.6-50.8 4.9-93.1-33.8-136.1-55.6-16.3-9.8-32.4-19.3-52.4-18-1.9.1-4.8-1.2-4.8 1.5 0 3.3 3.5 4 6.3 4.8 15.3 4 30.1 9.9 44 17.4 46.7 25 93.8 70.8 151 55.2 4.3 13.6 21.8 8.9 28.4 21.1 8.8 14.5 29 4.5 28.1 9.9 17.3 73.3 95 106.5 155 139.6 17.8 9.3 33.4 21.5 48 35.2 1.7 1.6 4.5 2.2 6.8 3.2.6-2.9 1.7-5.4-1-8.4-5.6-6.2-9.7-13.8-15.8-19.3-44.7-32.9-99.5-51-141-88.9-18.8-18.8-50.4-49.7-38.8-78.5 32.5 59.7 92 100.2 150.2 132.4 30.5 15.6 66.6-1.8 55.2-39.3-2.4-8.3-7-16.9-.5-25.6 7.9-25.4-6.7-48.5-27.5-64h6.6c13.3.5 29.1-17.7 16.9-28.3-10-10.6 11.8-23.5-3.1-36.1 31.7-49.6-78.7-52.9-106-39.9 6.4-13.8-.4-20.2-12.3-24-.5-.4-.8-.9-1-1.4 8.1-6.7 15.9-42.9 7-50.1-22.2-33.2-29.3-4.5-40.7-19.5-5-8.4-14.7-10.7-23.7-12.8-8.3-1.9-12.7 3.9-15.9 10.3-1.7 3.4-2.8 3.3-6 1.5-21.1-15.1-48.6-5.9-46.4 22.8-.1 1.1.6 4.3-1.7 2.9zm-19.4 131.3c-10.2-2.2-20.5-4.6-30.7-6.9-3.2-.7-1.7-3.5-2.5-6.3 7.4-17.8 28 2.8 39.2 6.7.2.1.2 1.3-.1 1.7-1.5 2-2 5.6-5.9 4.8zm48.8-45.2c-1-2.5-7.6-.6-4.8-4.8s9.4-4.4 12.5-2 13.6 4.8 4.8 12.7c-.4.3-.1 1.4-.2 2.2 2.4-.2 5.4.3 7.5-.8 17.5-12.9 57.6 12 32.4 26.7-1.2-2-2.9-3.8-3.3-5.9-3.7-17.5-40.4-24.7-54.2-11.5-6.8 6.3-1-4.4-20.3-14.3 10.5-9.5 18.4 1.1 26.4 6.6.9-.1 1.8-.5 2.4-1.3 3.9-4.1-2.2-5-3.2-7.6zm18.8-7.7c2.2-7.6 14.5-12.6 19.7-6.3-.1 11.6-9.1 9.8-15 11.9-.8.3-5.1-4.3-4.7-5.6zm59.7 27.4c.7-.2 1.4-.1 2 .4 5.1 4.3 8.2 8.9 1.7 14.7 2.3-7-14.4-6.4-3.7-15.1zM685 574.7c.7-2.8 1-5.7 6-5.7 5 2.4 23.6 24.2 15.7 29-3.4 2-4.3-2.9-5.9-4.7-5.6-5.8-19.2-5.1-15.8-18.6zm-3-11.7c-7.4-15.7-19.9-23.2-36.5-24.5 11.9-13.8 57.5.9 36.5 24.5zm11.7-1.3c6.7-12.4 19.9-3.1 20.4 9.8-.8 1.6-1 6.3-2.8 5.1-6.5-4.1-12.5-9.2-17.6-14.9zm15.1-9.3c4.5-1.2 3.7-8.9 8.1-7.4 5.9 2 8.9 9.4 5.3 13.1-5.7 5.9-6.5-7.9-13.4-5.7zm7.8-22.5c-2.2 1.8-2.9-3.2-4.3-5.1-6.2-8.5-15-12.4-25.7-14.5 13.1-16.1 49.7 2.1 30 19.6zm-82.3 7.6c.3.3-1.5 3.2-1.7 3.1-3.4-1.3-6.7 4.5-9.3 1.1-4.9-6.5-10-12.2-17.9-14.8-2.7-1.4-.5-7.2 2.3-5.8 12 1.4 19.3 8.8 26.6 16.4zm-25.2-1.5c3.6 1.9 6.5 4.9 9.5 7.7-3.7 1.9-8.7 9.1-12.8 4.4-5.6-7.9-14.8-10.9-23.4-16.6 10.6-5.1 18.6.1 26.7 4.5zm7.7 53.3c-9.1-.4-13.8-5.5-15.4-12.8-.4-2.9 1.6-5.6 4.6-6 .6-.1 1.2-.1 1.8.1 7.9-.5 22.9 18.7 9 18.7zm38.5 13.2c-2.1 6.3-16.5 5.6-24.1 1.4-2.2-1.5-7.8-2.7-5.3-7.3 3.9-8.4 13.6-6.8 20.7-3.2 4.3 1.8 9.7 4.9 8.7 9.1zm5-13.3c-6.9 2.6-12.4-5.1-19.4-5.3-1.2 0-2.5-.8-4-1.4-8.1 8.1-5.8-11.3-23.6-17.7-1.7-.8-4.4-3.3-4.1-3.7 7.7-12.3 28.6-13.7 41.8-12 21.1 1.7 31.2 31.2 9.3 40.1zm33.9 29.4c-4.5 3.3-10.4-19.3-22.9-25 4.8 2.4 7.2-7.9 12.3-2.5 6.4 5.8 24.8 20.1 10.6 27.5zm161.2 52.8c-5.3 8.3 3.8 13.1 4.5 19.9 14.2 93.6-138-36.1-157-59.5-2.8-2.9-6-4.9 0-8.1 11.4-5.6 1.1-17.1 11.2-21.3 4.4-1.9 2.5-9.4 3.3-14.5 1.4-8.6 3.7-17.3 10.9-23.9 4.7-4.3 7.1-10.7 11.2-15.8 5.7-7.3-2.7-12.7-6.6-19.5 17.7 8 37.3 1.7 53.8 10.9 21.9 12.1 36.9 29.2 37.6 55.4.3 13.2 9.4 16.6 18.6 21.9 17 9.6 23 37.9 12.5 54.5zm-64.3-141.9c25.1-3.1 48.2-3.9 66 16.5 5 5.7 1 11.4-.9 16.2-1.2 3-4.3-2.1-6.8-2.9-8.7-2.9-17.9-4.8-25.8-9-12-6-20.1-15.5-32.5-20.8zm67.6 60.3c-7 6.4-26.4 10.4-23.1-4.8.6-9.1-6.1-16-8-24.6 10-.6 42.5 18.6 31.1 29.4zM759.3 503c32.6-4.4 68.3-7.9 96.8 12.4 8.2 5.5 4.7 13.4 4.2 18.3-17-9.8-30.4-14.5-50.2-15-23.3-1.1-45.8 8.3-69 2.2 4.4-7.6 6.8-17 18.2-17.9zm-8.6-12.7c-4.5 21-9.8 1.5-19.4-2.5 3-5.1 9.3-1 12-4.6 5.5.1 8 3.2 7.4 7.1zm-26.4-47.5c1.2-6-.8-12.7-1.1-19-.2-3.3-5.8-6.2-1-9.5 5.1-3.5 10.5-.6 13.2 3 4.3 5.8 11.7 10.5 10.6 19.1-1.2 9.9-1.1 20.2-6.1 29.1-3.7 6.6-8.8 12.6-13.7 18.5-8.1 5-8.4-5.3-6.6-11.5-6.8-10.7 2.6-19.5 4.7-29.7zm7.1 55.6c9.9 7.4 2.5 14.9.7 22.5-.2-16.2-11.9-21.7-24.4-26.7 6.6-2.8 17.9-.1 23.7 4.2zm-54.1-94.9c4.6-6 10.5-3.9 15.5-1.8 19.7 8 25.3 32 20 50.5-3.3-2.7-6.7-6.4-10.9-8.7-12.8-7.1-16.4-21.6-26.1-31.2-3.1-3-.6-6.1 1.5-8.8zm-32.2 1.4c13.6.5 21.3 10.2 29.4 19.3.4.4.1 1.5.1 2.3-15.5-3.9-30.5-7.8-45.6-.1-1.1.3-2.4 2.4-2.7-.8-1.1-10.5 7.9-20.5 18.8-20.7zm-13.5 33.9c24.1-17.4 78.8 10.6 77.6 40.8.5 9-6.2 11.5-10.7 15.8-4.7 4.5-9.7-.8-13.7-2.8-7.8-4-21.1-.2-23.8 8.2-.5 5.3-14.2-6.6-24 5.8-2.4 3.9-16-6-16.1 10.3-7.8-.9-17.6-9.4-21.4 5.6-.2.6-2.3 1-3.5.9-6.4-.3-12.3-2.5-17.1 6-2.3 4-13.1 1.2-17.4 7.9-.7 1.1-2.4 2-2.4 3 .8 19.5-12.7 7.3-17.1 6-18.5-5.5-36.8-12-51.4-25.9-7.6-7.3-19.1-12.9-17-24.8 3-18.3 40.2-29.8 56.5-23.2 3.5 1.3 9.4-2.8 11.9-9.7 9.4-25.4 53.9-38.2 74.7-18.9 4.1 3.8 10.5-2.1 14.9-5zm182 206.8c-32.6 6.4-22.9 40.3 7 43.5 31.9 1 13-45.9-7-43.5zm4.4 35c-8.4-1.2-14.3-6.4-15.7-16.1 2-5.2 6.3-10.4 12.1-10 11.3.8 12.5 11.6 14.1 19.7 1 5.5-6.5 7-10.5 6.4zm-1.3-74.5c-.5-19-38.3-35-39.6-5.4.3 19.2 38.1 31.3 39.6 5.4zm-29.5-8.2c-.9-5.4 4.6-5.7 7.9-5.6 8.2.2 11.2 6.9 12.5 13.2.9 4.2-3.5 6.8-8.2 7.7-7.3-2.3-10.9-8.3-12.2-15.3zM606.3 455.1c-26.5 3.7-5.5 41.4 12.2 37.7 23.2-2 10.4-39.8-12.2-37.7zm5.4 7.5c7.2 1.4 10.3 8.4 11.8 14.8.7 2.8-.9 7.9-6.4 7.5-14.7-.8-19.1-25.1-5.4-22.3zm-66 18.7c-27.3.5-18.8 42.7 9.3 41.2 27.8-2.5 11.8-43.1-9.3-41.2zm4.8 31.8c-7.8-.4-12.3-5.5-13.1-12.4-.7-6.5 4.6-10 10.7-9.5 12.9.1 19 24 2.4 21.9zM424.6 352.7c8 .4 20.5-15.7 20.5-24.8.3-12.7-8.2-16-16.9-16.6-24.8-.5-36.8 43.3-3.6 41.4zm-11.2-16.9c-.1-16.4 23-20.4 23.2-5.4 1.1 11-23.1 19.9-23.2 5.4zm-311.2 156c3.5 13.8 1.7 25.8.1 38.1 1.7 94.8 132.4-15.4 161.4-42.7 18.1-16.9 32.1-36.8 47.2-62-4 9.9 3.6 13 1.9 17.9-3.7 10-6.9 20.7-12.8 29.4-30.8 46.8-82.5 73-130.3 98.9-20.5 11-40.1 22-54.5 40.7-7.1 6.9-6.2 19.5 5.1 7.7 28.9-29.7 68.6-43.5 103.3-65.1 39.9-24.2 83.9-54.8 95.9-102.5 2.4-12.7 11.8-3.3 25.2-11.5 8.2-2.9 8.2-16.2 19.4-13.5 5 .4 10.8-12.4 15-11 73.5 19 125-56.6 191.4-72.9 3.6-1.1 9-1.1 8.2-5.1-.7-3.5-6.2-1.2-9.6-1.2-18.7 0-33.1 10.9-49.1 18.4-41.6 20.6-78.8 57.7-128.2 55.5-6.4-.3-16.1 3.4-12-9.4.6-1.9-4.8-5.3-1.9-5.8 23.2.4 46.2-5 68.1-11.5 23.8-8.3 85.6-41.7 60.4-71.1-13.1-16.7-31.4-22.6-51.7-24.1-4.5-.4-9.7 1.6-12.6-4.5-13.1-27.5-59.5-40.7-86.4-25.8 1.4-18.4-10-38.5-32.1-32-9.4 2.9-19.1 12.4-27.7-3.4-3.5-6.5-29.3 2.3-32.9 9.9-1.5 3.1-3.8 7.8-7.8 5.9-14.3-6.1-35.7 7.9-36.1 22.3-.3 15.4 1.2 30.3 10.7 42.8-11.5 4.3-20.6 9.6-13.9 23.8-31.7-7.9-65.1-9-95.9 4.6-12.8 6.3-22 22.6-13.6 30.7 3.1 2.9 5.8 4.2 1.3 8.9-9.9 10.9 10.9 24.6-2.4 35.9-3.2 3.3-2.7 7.1-.5 11.4 5.3 10.6 13.8 14.7 26.1 13.6-20.9 15.2-34.9 34.6-28.7 58.7zm185-51c-2.2 2.8-1.8 10.3-8.2 7.1-7.7-3.8-4.3-10.1-.9-14.6s8.4-8.1 12.5-12.2c5.2-5.1 6.9 4.7 11.4 3-7.2 3.8-10.3 10.9-14.8 16.7zm17.4-90.5c3.2 1.7 6.7 4.7 9.9 2.3 2.9-2.4-3.2-3.8-2.9-5.9.8-4.6 4.8-7.8 8.5-9.2 4-1.5 9.3-1.6 12.3 2.9.3.4-4.2 4.3-6.8 6s-3.4 3.1-1.6 5.6c5.2 6.5 14.5-18.2 29.1-4.9-18.2 8.5-13.1 17.6-19.3 15.1-20-14.1-50.2-8.4-58.5 16.4-25.1-13.8 14-38.8 29.3-28.3zM288.4 332c-.1-3.6 5.3-4.5 7.9-4.2 5.4.5 9.7 4.1 13.3 10.4-1.9 1.4-4.4 4.7-6.1 4.3-6.2-1.4-14.7-1.4-15.1-10.5zm78.6 25.1c-12.9 5.7-15.2 21.8-27.5 11.6 6.7-9.5 14.7-15.5 28.2-18.2.8-.3 1.8 1.9 2.3 4 .7 2.4-1.8 1.8-3 2.6zm12.8 2.7c4.3-1.1 7.7-.9 11.2 2-7.5 5.6-16.7 7.9-22.1 15.6-4.2 5.8-9.5-1.5-13.5-3.8 7.5-6.2 14.6-12.1 24.4-13.8zm-51.3 8.6c-16.7 1.3-29.1 9-36.6 24.6-20.2-23.7 23.5-37.7 36.6-24.6zm-67.9-11.3c-.7 1.3-2.1 2.3-3.2 3.4-19.8-17.9 16.4-36.1 29.9-20.4-11.3 3-21.3 6.3-26.7 17zm-6.8 12.5c-3 2.9-8.3 3.3-9.5 9.1-5.8-5.4-1.8-11.6 3.6-14.8.7-.3 3.9 3.7 5.9 5.7zm3 5.5c4.5-1.4 4 6 8.4 7.3-6.7-2.2-7.4 11.6-13.5 5.5-3.4-3.4-.8-10.9 5.1-12.8zm14.2 10.5c3-1 10.2 5.2 9.3 6.2-5 5.8-10.8 10.7-17.3 14.7-2.5 1.5-2.1-3.7-3.2-5.4.7-7.6 4.7-13.4 11.2-15.5zm13.3 13.5c3.1-.6 4.8 2.7 4.2 4-1.5 3.6 4.6 6.9-.1 10.3-6.3 4.5-12.6 9.2-18.5 14.2-3 2.5-3.4-.2-4.1-1.5-2.6-5.2 12.3-27.1 18.5-27zm30.9 20.7c-8.6.2-11.8-14-14.1-20 .2-10.7 18.4-22.8 29.1-21.6 6.5.2 47.4 7.1 30.1 17-8.5 3.6-13.5 10.1-17.6 18.2-2 3.1-7-.4-9.9.4-5.8.8-11.7 6.3-17.6 6zm15.4 17.3c-24.9-.5-5.3-17.6 7.6-17.1 20.5 3 6.1 18.3-7.6 17.1zm42-30.4c-.9 10.7-20.4 18-21.1 8.2 2-7.4 6.8-13.1 15-14.4 4.1-.6 6.9 3.4 6.1 6.2zm36.2-26c-.9 4-4.7 1.6-7.2 2.3-8.6.5-29.2 13.5-31.9.9 8.6-4.5 17.5-8.8 25.9-13.7 5.6-3.4 8.7 1.3 12.3 3.3 1.3.7 1.3 5.1.9 7.2zM360 272.6c19-20.3 68.2-1.3 73.9 24.3 1.4 4.3 6.8 5.9 12.7 4.4 16.9-3.4 36.4 3.2 48.5 15.2 24.7 31.1-55 58.5-77.5 64.1-5 1.3-1.2-4.9-2-6.8-1.1-3.3-2.2-7.3-4.7-7.9-11.7-2.7-19.3-16.2-33.4-12.3-5 1.4-1.9-3.5-3.3-5.1-6.6-7.6-13.8-3.8-20.9-1.5 1-5.2-2.9-10.1-6-9.6-11.7 2.1-20.6-13.1-32.7-4.6-15.7-28.2-32 5.2-46.8-13.7-16.2-33.1 40.9-63.7 68.1-53.9 7.4 1.2 17.6 13.8 24.1 7.4zm-30.7-37.7c10.8.2 19 9.5 18.5 20.7-.1 2.5-1.4 1.7-2.3 1.2-15-9.3-31.2-3.3-46.2-.4 5.2-11.4 16.7-20.6 30-21.5zm-48.9-2.7c6.9-3.7 13.4-4.2 18 3.8 3.6 6.3-3.7 7.8-5.2 11.8-5.9 15.9-21.2 23.7-31.5 36-5.9-25.3-.1-41.5 18.7-51.6zm-13.2 91.3l.7.1c-13.9 5.5-25.7 11-25.3 31.3-2.5-9.9-7.8-15.9-4.1-21.8 6.5-10.4 17.4-10.9 28.7-9.6zM243.5 244c6.3-3.2 12.8.2 8.2 7.4-4 14.2-1.5 27.7 6 40.5-5.1 6 .9 23.2-5.5 23.6-2.7 0-6.4-2.2-7.3-4.9-3.1-9.7-13.1-15-14.6-26.6-2.8-22.1-.7-32.3 13.2-40zm-13.4 68.8c3.4 3.7 9.3.1 12.6 4.8-5.5 3.3-9.4 8-13.6 12.7-1.2 1.3-5.1-5.9-5.8-9.9-.8-4.2 2.1-6.5 6.8-7.6zm-92 22.5c25.2-8.4 51-5.1 76.8-2.3 11.2 1.2 13.7 10.4 18 18.2-22.7 6.3-45-3.7-67.9-2.5-16.6 1.2-33 2-46.6 13.5-1.2 1-3.3 1-5 1.4-4.4-16.5 10.8-24.7 24.7-28.3zm45.5 24.9c-10.8 1.4-16.8 8.1-22.4 13.5-9.9 8.8-22.5 8.5-33.3 13.8-3.8 1-8.2 7.5-10.2 4.3-14.3-25.4 34.7-38.4 53.1-32.9 5.2-.6 6.6-1.3 12.8 1.3zM113.8 417c-3-5.1.9-9 4.3-11.9 8.3-6.9 16.3-14.7 28.4-14.6-2.8 9.4-9.6 17.7-8.2 28.5.3 2 .3 5.8-3.7 5.9-7.9.2-16.1.2-20.8-7.9zm30 23.4c7-4.5 5-14.5 6.3-22.2 4.6-26 20.7-41.6 44.5-51.4 16.5-5.7 31.8-.2 47.7-8.9-22.4 22.6 3.4 23.6 10.4 46.9 2.5 8.1-.1 19.4 5.8 23.9 9.5 7.3 2.1 23.6 16.3 26.8-32.2 40.4-78 70.5-123.1 95.5-11.1 5-30.9 4.7-35.3-3.8-6.1-11.6-5.5-24.1 2.6-35.2 3.5-4.8.6-8.6-1.9-11.6-9.9-11.7-1.2-35.8 5.7-45.5 5.6-7.8 13.9-9.8 21-14.5zm211.7-117.6c23.4 2.9 38.5-43.4 5.6-37.2-18.8 4.5-25.6 35.9-5.6 37.2zm-5-15.3c1.5-6.4 4.6-13.4 11.6-14.9 13.5-3.3 9.8 21-5.1 22.3-5.4.4-7.2-4.6-6.5-7.4zM174 451.1c10.2 0 23.6-11.5 22.9-20.5-.6-8.5-4.8-16.1-13.9-16.6-11-.7-27.1 13.8-25.8 22.4 1.4 9.1 6.3 15.4 16.8 14.7zm-7.7-15.7c1.6-6.1 4.3-13.1 12.6-13.1 15.2-1.1 5.1 19.4-4.8 20.9-4.3-1-8.9-3.6-7.8-7.8zm-12.8 83.7c13 0 27.6-13 27.6-24.5 0-7-13.8-19.9-20.8-19.5-21.2 1.8-38.3 43.8-6.8 44zm-8-15.1c4.6-41.5 49.3-5.8 9.9 7.4-3.3-2.7-11.3-1.3-9.9-7.4z"/></g><g><path d="M52 1548v15l-37 37h946l-37-37v-15H52M52 52V37.7L14.3 0H0v1600h15l37-37V52m872 0V37.7L961.7 0H14.3L52 37.7V52h872m52-52h-14.3L924 37.7V1563l37 37h15V0z"/><path d="M961 1600h15V0h-14.3L924 37.7V1563l37 37H0V0H961.7M52 52V37.7L14.3 0m.7 1600l37-37V52h872m0 1496H52" fill="none" stroke="#333" stroke-width="2" stroke-linecap="square" stroke-miterlimit="3"/></g></svg>