<svg xmlns="http://www.w3.org/2000/svg" xmlns:xlink="http://www.w3.org/1999/xlink" viewBox="0 0 976 1600"><path d="M960 22v1556c0 3.3-2.7 6-6 6H22c-3.3 0-6-2.7-6-6V22c0-3.3 2.7-6 6-6h932c3.3 0 6 2.7 6 6z" fill="#fff"/><defs><path id="a" d="M960 22v1556c0 3.3-2.7 6-6 6H22c-3.3 0-6-2.7-6-6V22c0-3.3 2.7-6 6-6h932c3.3 0 6 2.7 6 6z"/></defs><clipPath id="b"><use xlink:href="#a" overflow="visible"/></clipPath><g clip-path="url(#b)"><path d="M558.8 1262.8c-15.3-5.9 6.9-40.3 7.9-52.6 17.2-53.5 38.3-97.1 74.2-143.7 1.3-15.3 54.3-15.2 68.1-16.3 3 2.5 7.1 1.3 9.3-1.7 9.6-7.3 24.3-8.8 35.7-7.7 11.4-5.6 20.7-15.3 34.2-14.3 7-2.1 13.7-11.1 21.7-9.8 8.7-2.3 8.8-14.2 21.2-14 17.2-3 49.6-41 62.6-35.2 5.5 15.7 18.3 33.3 20.6 49.2-9.7 8.4-51.8-12.7-40.9 13 15.6 59.7 38.7 152 18.1 205.3-56.3-27.2-81.4-79.8-112.9-135.6-9.8-14.5-37.7 42.8-51.6 48.7-48.5 47.5-107.8 84.9-168.2 114.7zm61.2-242.4c-57.8 0-115.7-8-169.9-28-2.7-23.3 61.6-37.4 80.2-48.7 51.5-22.9 112.9-26.7 167-35.3.3-22.5-18.7-47.9-12.1-67.5 21.6 5.3 74.1 26.4 57.9 56.1-14.8 11.5-24.1 29.5-35.5 45.7-3.5 3.5-9 8.6-10.6 14.3-2.3 11.1-16.4 11.6-16.8 21.3-10.7 31.8-26.9 43.9-60.2 42.1zm9.6-510.5c-20-11.6 19.5-135 34-157.4 7.8-11.7 8.6-23.6-8.7-20.1-37.2-1.8-73.3-9-109.9-14.7-60.1-7-41.7-20.7-.1-42.5C581 253.6 619.7 241 660 232.3c19.5-9.3-39.3-37.8-41.9-47-28.2-23.6-56.3-63.9-68.2-98.8-2.4-7 2.2-8.7 7-7.3 73.3 13.9 144 35.4 195.4 91.1 2.5 2.1 6.3 1.8 8.5-.7.2-.3.5-.6.7-.9 19.8-34.9 46.2-65.7 77.6-90.7 3.7-4.7 13.1-7.2 13.8 1.4 28 186.9-89.4 190.8 111.2 156.5 11.1-2.3 15.1 33.6.9 35.4-32.9-3.8-69.1 3.1-102 4.7-14 2.6 22.8 78.4 22.7 96.1 3.4 12.4 25.8 110.1.9 97.3-165.8-171.6-20.9-96.7-257 40.5z" fill="#333"/><path d="M292.2 1604c-29-21.3-70.4-30-100.3-53.7-14.6-5.7-36.5-30.9-50.6-24.7-18.8 27-42.2 51.2-63.8 75.7-2.8 4.4-13.5 3.6-17.2 1.3-3.9-5.2-8.3.3-12.2 1.4-5.8-.7-20.2 2.8-15-8.5-8.7-28.5 35.1-149.7-24.7-87.7-2.2 4.7-11.5 6.7-12.4.1 3.1-4-6.1-50.6 5.1-47.6 9.6 7.1 20-1.1 29.8-3.8 6.9-4.7 29.8-4.3 24.6-16.8-16.1-23.2-35.6-43-50.3-67.5-2-6.2-7.9-5.9-9.3-11.1-.8-1.2.1-26.2.8-26.3 3.3-3.2-8.9-72.2 5.8-64.6 32.1 22.8 74.5 50.2 99.5 73.4 4.9 4.2 10-1 11.1-6 12.8-56.7 48.6-123 88.2-171.6 37.3-41.1 23.4 133.9 21.2 148.7.4 8.6-9.8 34.9 6.9 30.2 30.3-7.4 61.4-11.7 93-14.8 24.4-.3 215.8 1.3 133.2 41.4-33.1 24-55.9 43.2-97.7 62.5-10.6 12.1-108.3 24.2-69.7 41.2 51.9 25.3 104 75 126.9 122.5 8.8 14.7-120.9 2.4-122.9 6.3zm-74-984.7c-11.4-8.6 31.5-67.3 34.1-85.1 72.2-149.7 46.8-38-159.9-103.2 55.6-44.4 117.6-74.7 189.4-99.7 8.1-15.4-38.9-60.5-49.5-75.9-13.6-20.2-35.8-32.9-52.1-49.9 5.9-22.4 74.2 4.5 89.5 10.2 134.5 58.3 74.6 150.6 156.1 27.8 13.5-13.1 68.6-84.4 57.7-30.2-10.6 175-93.1 158.3 70.5 159 34.5 5 46.5-14.7 42.6 27.9-9 10.2-31.8-2.5-45.2-.6-25.2-.4-52.3-9.3-81.5-2 14.2 58.8 56.5 115.8 69.7 175-42.4-5.8-95.7-40.6-130.8-69.1-16.6-1.2-34.7 35.4-56.5 47.3-40.9 31.4-86.2 51.3-134.1 68.5z" fill="#ffeb5c"/><path d="M107.8 1346.7c-41.6-12.6-8.3-141.3-52-107.1-18.5 10-36.8 18.7-55.8 27.5-7.5.7-2.7-19.7-4-23.1-1.3-125.7-.3-259 55-375.1 14.9-20.1 15.7-50.3 33.2-59.1 27.4 49.2 34.1 109.2 49.6 163.1 10.3 17.2-4.4 106.8 28.4 67 44.8-37.7 87.3-65.3 141.7-73.8 68.2-25.8-21.7 94.7-29.5 115.9-98.9 127-31.7 25 51.9 187.1-13.7 19.7-50.6 5.3-72.5 6-34.8 6.2-22.4-19.6-26-39.8-3.5-6 3.3-10.1 0-15.4-1.9-2.7-.9-6.4-.3-9.7 3.7-8.5-4.1-17.2-3-25.9-10.4-50-27.5-10.1-44.6 8.3-3.4 2.9-5.2 10.7-10.7 12.6s-2.8 7.5-5.4 11.7c-17.3 63.1-67.6-16.9-58.4 37.5 3.2 29.9 24.3 66.7 2.4 92.3zM976 1099.2c-32.5-35.4-58-81.3-79.2-124.6-1-4.9-3.3-12.5-10-9.2-123.5 87.3-260.2 114.1-236.2 70.2 25.8-47.2 59-91.8 91.3-134.2 3.7-8.9 32.5-28.2 13.1-33.8-36.3-8.4-66.4-29.5-98.2-47.1-21.3-12.5-48.8-22.3-62.7-43.8 47.6-48.5 128-52.2 192.6-35.4 21 6.1 5.2-24.5 9.9-35.2 1.8-30.5 5.7-61.5 13-90.9 7-14 12-84.3 34-66 52.2 54.5 60.8 130 72.3 202.5 5.3 54.9 40.9-28.2 61.3-33 5.8.2 1.4 28.9 2.7 31.8-7.5 16.2-30 27.5-33.5 45 6.5 8.8 28.8 6.9 33.5 15.1-3.2 50.3 7 256.3-3.9 288.6z" fill="#d81e1e"/><path d="M985.2 1019.8c-15.3-27.5-28.6-56.4-42-84.9-10.2-29.3-18.6-58.1-28.6-87.9 17.7 12 36 21.2 54.4 30 1.7.8 3.7 4.2 5.6.4 1.4-2.7.1-5-2.7-6.5-18.5-10.6-36.9-21.5-55.7-31.7-3.4-1.8-7.2-7.1-10.8-4.3-2.9 2.1.2 7 1.4 10.6 16.5 52.1 29.9 105.6 58.6 152.6-24.9-30.4-42.5-65.3-58.6-100.8-7.3-14.9-10.3-32-21.3-44.9-35.7 32.9-70.7 68.6-111 96.4 26.7-32.3 55.9-61.7 83.2-93.3 3.9-4.7 11.3-7.8 10.9-14.9-.3-5.4-6.6-4.5-10.1-5.5-58.5-15.5-114.6-28.8-172.7-47 16.7-3.5 31.3 3 47.6 4.9 22.5 3.3 45.4 5.1 67.4 10.5 128.4 20.9 59.3 27.3 45.5-118.7 10.9 38.2 23.4 74.5 40.9 110.1 8 17.7 9.6 17.8 22.4 4 20.5-26.3 43.6-50.6 65.5-75.7 3-3.2 3.2-7.3 0-9.5-3-2.4-5.7 1.5-7.5 3.5-14.1 16.1-29.4 31.3-42 48.6-10.1-41-11.2-86.4-26.4-127.1-14.2-31-23-66.6-48.5-90.7-12.6-11.3-21.9-9.9-26.1 1.3-20.1 57.5-38.5 119-31.8 180.2 3.3 11.6-5 5.5-8.5 5.2-68-13.7-133.5-14.5-188.9 32.9-4.5 3.2-10.3 7-3.5 14.8 5.7 6.7 12.1 12.7 19.2 17.8 12.4 8.8 26.2 15.3 39.1 23.2 11 6.6 25.3 10.3 27.2 27.9 1.4 13.7 7.1 27 11.3 40.3 3 9.7 5.1 18.2-10.2 15.3-20.7-1.7-40.5 4.9-60.7 7.9-29.5 4.1-57.5 13.4-85.3 23.7-14.5 5.8-124.3 46.8-75.9 61 38 12 76.7 23.3 116.4 25 23.4 2.2 47.1.5 70.7.6 1.9 0 5.2-.7 3.9 3.1-11 39.2-36.5 71.3-55.9 106.5-21.7 41.4-38.3 87.1-45.4 133.4-.1 1.4 1.7 3 2.8 4.4.2.2 1.4-.1 1.9-.4 12.4-8.3 26.4-13.8 39.6-20.2 27.7-14.6 54.3-30.2 78.3-50.2 6.4-6.3 16-9.2 23.1-14.8 10.2-8.1 19.3-17.5 29.1-26.1 17-15 32.4-31.4 44.1-51 6.4-13.4 11.7-13 14.7.7 4.5 16.7 15.7 29.7 24 44.1 9.4 18 80.9 110.3 97 77.5 7.9-71.7-4.2-142.5-25.1-211 12.2 3.3 26 2.3 38.3 5.2 10.3 2.5 11 14.2 15.8 21.4a541.9 541.9 0 0039.8 52c1.2 1.4 2.8 4.9 5.7 2.5 2.4-1.9 2.2-4.7.3-7.3-28.8-38.2-55.3-78.2-75.2-121.8-2-4.4-.1-18.9-13.1-12.3-20.6 10.5-37.6 26.5-58 37.5-30.6 16.3-61.2 33.2-95.7 39.3-9.5.9-18.5 5.6-27.9 7.4-15.2 2.8-30.7 4.3-45.9 7.1-4.2.8-6.6-.6-8.3-3.2-.9-1.4-.2-4.4.6-6.4 3.1-7.4 5.7-15.2 10.1-21.8 30.4-46.6 62.5-92.4 97.7-135.5 10.2-9 11-17.6-4.2-21.2-35.5-8.2-65.6-29.3-97.1-46.6-20.5-11.3-42.1-20.7-58.5-38.1-1-1.1-4.2-1.8.3-4.3 43-28.3 68.9-41.4 121.7-37.7 24.2-.9 47.4 4.9 70.8 9.9 4.6.8 13.2.5 11.7-6.4-12.4-26.8 4.5-107.5 12.2-137.4 4.2-17.5 9.6-34.7 16.1-51.4 1-3.7 3-3.1 8.3.8 14.4 10.7 21.8 25.7 28.4 41.7 17.3 37 33.2 74.9 35.4 116.3.5 9 3.6 17.9 4.2 26.9 1.2 18.7 14.5 38.6-5 55.3-2.6 2.2-6.1 10.9-9.6.6-3.1-8.6-6.6-17.1-10.7-25.3-22-44.6-27.4-95-44.2-140.8-16.3 14 11.5 152.1 26.5 171.2 1.6 3 2.3 7.6-4.1 6.7-59.1-7-117.6-22.2-177.2-23.8-7.5.2-10.3 7.9-3.4 11.6 7.2 3.2 14.5 6 22.1 8.3 50.8 14.3 101.9 28.5 152.5 43.4-37.8 40.1-73.5 84.5-112.5 123.9-5.5 4.2-2.5 10.8 3.8 5.1 50.5-28.3 94.8-65.9 135.2-107.2 1.6-1.6 4.1-3.4 3.9.7 6.5 25.7 20.7 48.7 32 72.6 16.5 30 31.5 62.3 57.4 85.5 2.6 2 5.9 6 9 4.1 3.4-2.6 2.5-6.3.2-9.8zm-183.7 3.4c16.2-8.2 14 8 17 14.3 15.3 32.4 26.4 66.7 37.1 100.9l-1.6.4c-22.6-35.1-42.5-71.9-59.4-110-.4-.7 4.2-4.3 6.9-5.6zm-52.6 20.4c-37.4 43.8-72.5 85.6-115.4 120.5L695 1084c8.5-11 16.4-22.6 26.1-32.5 6.4-6.5 16.8-3.8 27.8-7.9zm-89.7 15.8c16-.3 31.6-4.7 47.3-5.9-29.2 40.7-60.4 80-89.1 121.2-2.7 3.8-6.5 8.2-4.2 13.9 4.7-2.3 10.2-3.7 13.8-7 41.5-36.7 81.5-75.2 115.9-118.8 11.5-14.1 22-29.9 43-32 5.1-.5 2.5 2.4 3.2 3.7 23 47.6 46.4 94.9 76.6 138.3.4.6 1.8 2.9 3.5.7s4.6-4.4 3.4-7.9c-15.5-46.6-28.2-95.1-50.2-139.2-10.9-21.1 10.4-17.6 16.5-21.9 16.5-12 34.7-22.7 51-35 7 15.2 13.7 30.4 20.7 45.5-9.7.1-19.5-1.9-29.2-1.9-19.1-.5-19.4.7-11.9 18.5 12 28.8 11.7 61.1 19.8 91 7.3 32.9 5.6 66.1 3.4 99.4-.1 3.2-3.4 6.1-.3 9.5-52.3-23.2-86.9-89.4-112.7-138.2-1.8-13.4-8.7-7.5-13.5 1-49 75-129.2 121.8-205.9 164.3-10.7 4.1 12.9-51.4 13.6-57.6 14.9-45.1 36.4-87.5 65.1-125.4 9.7-9.3 4-16.3 20.2-16.2zm34.1-103.9c-6.5 14.8-18.5 15.7-32.9 16-29.7 2.6-59.5 4.3-89.1 2.6 18.2-3.1 35.6-9.3 54.1-11.3 23.6-2.3 47-9.8 70.2-11.3-.9 1.3-1.7 2.6-2.3 4zm46.6-60.9c-1.3 1.7-3.9 7-5.8.3-2.9-10.4-5.2-20.9-8-32.4 13.5 7.9 20.1 24 13.8 32.1zm-52.4-50.3c10.3 2.6 17.7 10.5 28 13.7 5.5 1.7 3.1 11 5.2 16.7 3.5 9.6 6.5 19.7 7.5 29.8.4 3.9-5.4 8.3-8.2 12.6-6.5 7.3-13.7 27.4-23.5 28-41.4 2.9-82.6 10.9-123 20-11.2 2.5-22.1 6.6-33 10.4-1.4.5-2.2 2.9-3.3 4.4 2 1 3.9 3 5.9 3 44.6 2.6 89-2.3 133.3-3.7-5.2 9.2-10.2 18.4-15.6 27.3-4.4 7.3-13.1 7.1-19.6 7.9-9.8 1.1-19.5 3.1-30.1 1.3-15.2-2.6-31.4.6-46.9-1-38.5-2.8-75.8-14.6-112.2-25.8 22-20.7 53.1-29 80.2-41.3 18.2-7.3 36.8-13.3 55.8-18 16.5-4.1 33.6-5.7 50.4-8.4 20-3.5 39.9-7.6 60.4-5.9 4.9.1 9.4.8 6-7-8.8-20.4-15-42.1-17.3-64zM976 750.4c6.2-8.5 6.9-8.8 8.9-6.2 5.3 6.9-2.4 10.3-5.2 14-9.8 13.3-20.3 25.3-31.3 38.8 11-.7 18.9 4.7 27.4 8.4 2.5.8 2.9 3.5.3 5-2.3 1.5-5.1.4-7-.6-20.2-9.6-26.5-11.7-39.8 8.2 15.7 11.3 33 19.8 47.7 32.6 4 3.9 1.4 9.2-3.9 5.5-15.9-11.4-33.8-19.8-48.1-33.6-3.5-3.4-6.3-6.3-1.6-11.5 17.6-20 35.1-40.5 52.6-60.6zM503 310.2c20.7 8.2 42.9 11.9 64.8 15.5 32.2 5.6 64.3 11.2 97.1 11.3 1.3.1 2.4.2 1.5 2-2.7 5.9-4.4 12.5-8.2 17.6-26.8 37.3-32.2 82.8-37.9 127.1-2.1 11.4-2.2 22.7 3.6 33.1.2.5 3.4.4 4.6-.4 9.4-5.5 18.4-11.5 27.8-16.8 54.2-31 100-75.4 135.1-126.8.7-1.1 1.5-3.3 3.5-.5 6 11.6 102 137.2 106.2 97.7 2.7-40.5-1.7-82.1-14.9-120.4-8.8-22.9-11.8-48.1-27.8-68.3 36-6.1 70.1-7.1 106-8.6 4.4-.1 11.7 1.5 11.9-4.6-.5-10.1 2.7-40.7-14.5-35.6-39 3.6-76.1 11.7-115.3 17.6 11.5-16.6 33.7-208-8.6-177.6-32 22.4-58.1 53.4-77.3 87.3-3.7 7-4.4 8.2-5.7 6.9C702.5 110.2 627.4 84 553.2 71c-2.7-.6-6.4-1.9-9.1 1.6-2 2.7-1.8 5.3-.8 7.9 21.1 60.9 63.7 110.1 117.2 145.3-5.4 4.6-13 5.2-19.7 6.8-24.7 3.7-47.1 13.9-69.7 23.6-24.6 12.2-49 25.8-70.2 43.3-4.9 4.6-2 9.1 2.1 10.7zm361.7-53.3c20.5-3.3 40.8-7.8 61.2-11.6 22.6-3.7 50.9-19 42.6 18.3-.5 6.2-7 2.8-10.7 2.2-42.8.8-85.6 5.6-128.3 9.3-8.8 1.8-22.9-.9-29.9 4.3-.6 1.2.3 3.8 1.3 5.2 18.3 28 36.8 57.2 46.5 89.3-22.5-27.6-42.3-58.1-66.7-84.5-8.7-9.8-12.1-6.9-17.3 3.7-19.7 36.6-38.2 74.3-66.5 105.4 6.5-17.9 20.3-32.4 27.2-49.7 7.3-19.6 18.5-38.2 19.6-59.7.7-8.4-56.6-.8-65.9-2.1-6.5 1.8-6.3-5.6 0-5.9 23.1-4.1 46.3-8.3 69.4-12.5 4.1-.7 4.2-2.6 2.3-5.8-23.1-37-52.8-69.5-85.2-98.5-.9-.8-.6-3-.9-4.6 42.2 22.3 72.9 60.3 102.2 97.1 1.3 1.5 3.4 3.2 5.1 3.2 2.7 0 3.2-2.8 4.2-5.1 13.5-30.7 27.3-61.2 38.7-92.7l1.6.4c-5.2 33.6-16.6 65.6-24.2 98.6-2.1 7.8 7.4 4.6 11.9 4.2 20.6-2.9 41.3-5.2 61.8-8.5zm-307.4 15.9c34.4-19.7 72.8-29.4 110.8-38.6 19.1-9.7-.2-13.7-3.9-16.4-47.4-33.9-91.1-76.5-110.6-132.8-1.1-3 .1-2.7 2.2-2.1 19.6 5.6 39.9 7.6 59.5 13.3 42.7 13.4 85.5 29.5 117.8 61.6 6.7 7.2 14.3 13.5 21.8 19.8 4.2 3.6 6.4-.7 7.9-3.4 21.2-37.5 49.3-72.8 84.7-97 12.3 50.1 1.6 103.6-4.7 154.1-.6 6.2-.7 14.4-4.5 17.9-4.3 4-12.5 4.1-19.1 5.5-5.1 1-10.6-1.5-15.5 1.9-.9.4-1.9.3-2.8-.3 4-26.3 15.8-51.5 18.3-78.5.5-14.4 10.8-36.1 3.3-48.8-22.3 34.9-36.2 79.5-53.3 117.7-34.7-40.4-70-83.8-120.2-106.7-7.3-2.1-21-12.2-27.6-7.9-1.9 2.4.3 4.9 2.1 6.3 18.4 13.9 36 28.7 51.5 45.9 21.5 23.8 44.7 46 62.3 73.1.9 1.4 3.5 3.1-.7 3.3-34.1 5.4-67.5 15-101.8 20-21.3 3.6-42.7 6.5-64.1 9.8-1.3.2-3.8.3-2 3 1.1 1.7 2 3.5 4.5 2.7 7.3-2.5 14.5.6 21.7.4 10.8-.1 21.6-1 32.3-2.9 33.3 2.8 67 .3 100.6.8 8.5 0 9.1 4 2.5 18.1-19.4 44.3-40.5 87.9-70.3 126.3-1.9 2.4-6.5 6.2-3.6 9.3 3.8 4.1 6.6-1.3 9.2-3.5 42.2-37.4 71.6-85.6 98.8-134.3 3.8-3.9 4-16.5 8.1-17.1 23 21.6 41.2 51 60.4 76.6 8.5 12.1 17.3 24 26.2 35.8 1.8 2.5 4.4 6.3 8 4s1.2-5.9-.1-9.2c-16.7-39.6-30.5-80.9-57.7-115 12.9-5.4 26.7-1.6 40.1-3.2 4.4-.5 7 9.1 9.2 14.7 18.2 55.1 38 113 33.3 171.5-34.9-27.5-61.1-64-87.3-99.3-8.8-10.8-11.7-9.3-20.6.9-41.1 53.9-92.8 97.3-149.5 133.6-1.5 1.5-4.9 2.5-6.6 1.8-2.9-1.2 1.1-2.5.9-4.3-1.8-14 2.5-27.4 4.3-41 2.2-17.1 5.1-34.1 10.3-50.9 8.8-26.3 21.3-50.7 33.3-75.5.7-1.4 2.5-2.8.4-4.2-1.7-1.1-3.8-2.8-5.5-2.5-21.4 3-42.3-.5-63.2-4-33.8-5.6-69-6.6-101-19.4 15-12.3 32.7-21 49.9-30.9zM90.9 430.6c.2 3.5 3.1 5.5 5.5 6.2 35.6 12.4 73.1 14.9 110 20.8 7.4 1.5 14.4-3.2 21.6 1.2 17.2 4.3 37.2-1.8 55-1.9 2.5-.2 3 .8 1.6 2.9-30.7 46.8-48.5 100.8-73 150.9-1.7 3.9-1.3 8.7-1.6 13.1 0 .3 2.4 1.4 3.5 1.1 10.4-2.4 20.2-6.9 30.2-10.4 59.6-23.3 123.7-54.2 160-108.9 18.1 14.1 35.1 29 55.6 39.4 8.7 4 97 54.4 87.5 27-22.6-58.6-44.7-118.2-76.5-172.4 39.8-.9 79.7 3.8 119.5 5.4 9.7-.1 14.4-13.8 12.8-22.1-2.2-20.8-56.6-13.5-72.8-16.8-10-.9-20.3 1.3-30.2.1-14.5-3-28.2 1.2-42.6.1-.2-.6-.2-1.2 0-1.8 5.6-9.7 7.3-20.6 9.8-31.3 7.9-27.8 14.6-55.7 18-84.4 2-16.4 8.9-47.7.3-61.6-2-2.1-5.3-2.2-7.4-.2-9.1 8-18.5 15.7-27.4 23.8-28.5 25.9-51.1 56.3-69.7 89.8-.7 1.3-2 3.7-3.5 1.2-34.2-54.5-91-97.4-155.2-107.2-13.7-.9-27.2-5.6-40.7.4-6 2.7-14.3 5.3-5.9 13.6 41.5 34.9 75 76.6 107.4 120.4-68.1 13.9-130.8 50.7-186.2 92.3-2.8 2.2-5.8 4.8-5.6 9.3zm396.3-55.4c35.2-.4 70.4 2.2 105.6 1.5l-.2 23.6c-60.2-8.3-120.8-10.2-181.4-9.3-14.4-.1-5.6 9.1-4 12.5 13.8 28.6 29.1 56.4 45.8 83.4-27.5-22.9-46.2-54.7-62.6-86.1-3-3.9-7.9.2-8.6 4.1-13.1 44.8-33.1 81.9-69.2 114.5 27.1-37 47.8-71.9 58.2-116 3.7-14.9-7.8-14.4-15.3-11.8-9.6 3.3-18.4-.7-27.8 1-20.2 2.5-41.5 6.8-61.6 5.3 21.9-10.5 48.4-9.3 72.3-13.2 4.6-1.5 28.3-.5 23-9.1-11.5-18.5-19.2-39-33.2-56.2-9.6-11.9-17.2-25.4-25.6-38.3-.3-.4.1-1.3.3-1.9 23.2 18.3 40.4 45.7 58.1 69.8 5.2 7.7 10.2 15.5 15.3 23.3 2.9 4.3 5.8 4.1 8.3-.2 13.7-22.9 24.7-46.6 40.9-68.3-34.2 101.4-35.8 68.4 61.7 71.4zm-311.4 5.3c25.5-13.4 51.8-24.5 78.4-34.9 11.5-4.5 24.4-6.1 34.2-14 8.2-6.6-2.2-10.9-4.7-14.8-24.9-37.4-51.7-75-88-102.2-4.3-3.3-9.5-6.6-12.2-11.4 75.4-6.7 149.4 45.3 189.8 106.7 1.6 2.4 2.3 8.2 7 6.9 4.2-1.2 4.9-6.3 7-9.8 24.9-42.9 54.3-81 93.8-112.1-2.6 40.1-9.8 78.2-18.3 117.3-4.7 17.9-8.8 36-14.9 53.5-.8 2.2-11.7 1-17.9 1.3-3.6-.8-21.3 3.8-16.9-3.3 10.4-32.4 24.8-63.8 31.7-97 0-5-3.9-7.9-6.4-2.3-22.5 31.3-38.6 65.8-58.5 98.9-25.7-40.9-78-117.4-125.9-127.3 4.2 11.3 17.8 18.5 25.1 28.2 26.9 33.1 50.6 68.5 70.9 106 .9 1.8 1.4 2.4-1.1 2.8-23.1 3.3-46.3 5.6-69.1 10.3-38 8.7-75 21.5-110.4 38 9 5.9 19.1-1.7 28.7-2.5 54.4-9.4 109.8-18.7 164.6-18.6-8.9 43-32.9 81.8-58.7 116.8-7 9.3-13.6 18.8-20.3 28.3-.6.9-.3 2.5-.5 3.7 13.2-1.5 23.4-13.7 33-22.1 33.1-31.1 59.7-70.4 71.8-114.6 22.2 43.3 51.5 80.6 92.3 107.8 2.6 2.1 5-.4 7.5-.4-25.5-38.1-55.4-74.2-72.5-117.5-.8-2.2-.1-3.1 2.6-3.1 13.9.1 27.8-.5 41.6.2 6.3.3 6.6 8 8.7 12.2 9 18.1 16.6 37 24.8 55.5 15 33.6 29.5 67.4 43.4 101.5.6 1.3 0 2.5-1.6 1.9-44.2-18.8-89.3-38.8-125.1-71.6-3.8-3.2-7.2-3.6-11.4 1.6-14.3 17.6-30.7 32.8-48.4 47.2-40.2 31-84.1 49.6-131.7 67.5 18.9-36.7 34.4-72.1 51.1-109.1 7.9-16.1 17-31.7 26-47.4 1.7-3 3-6.7 1.4-8.7-3.4-4.1-8.9-3.9-13.7-3.1-63.4 10-124.5-5.3-186.6-16.6 28.7-14.6 51.9-35.3 79.4-49.7zM480.4 1343c-81.5-20.5-167.3-26.9-249-4.3-1.3.3-7.1 4.9-6.3-2.6 1.7-15.1 2.7-30.3 5.5-45.2.7-3.5-5.7-14.9 7.7-11.6 9.7 2.4 19.7 5 29.6 5 17.6-.7 73.3 7 60.9-23.4-13.8-26.7-33.5-49.1-53.8-71.1-10.1-13-22.9-22.6-36.6-31.4-6.2-4-18.1-7.8-4-17.9 46.8-46.2 76.6-108.4 100.7-169 4-10.6.5-12.6-10.2-13.1-69.2.6-130.1 41.3-177.3 89.2.5-50.6-10.1-98.6-24.5-146.6-6.6-21.9-22.5-92.9-40.2-103.7-3-.5-4.6 3.8-5.9 6.8-6 13.3-11.7 26.6-18 39.5-33.7 59.7-53.5 127.8-58.7 196-.1 11-6.8 49.7.9 55.3 2.4 0 3.8-1.6 3.9-4.2.8-15.2.8-30.5 2.7-45.6 2.6-21.4 5.8-42.8 10-64 10.7-59.7 38.5-113.8 64.4-167.9 3.6 2.1 3.2 6.4 4.9 9.5 8.9 19.5 15.5 39.9 19.9 60.9 6.3 31.8 18.4 62.2 23.7 94.1 5.7 28.2 6.3 57 8.4 85.7.7 3.1 3.7 5 5.9 1.4 4.7-9.1 12.4-15.5 19.8-21.9 43.8-38.5 97.1-69.9 156.1-75.5 2.2-.5 8-2.3 5.6 4.2-24.7 59.5-55 119.5-100.6 165.6-11.1 10.8-23.6 20.2-32.8 33-13.3 19.8-8.5 9-36.2 6-12.9-2.3-25.9-3.4-38.9-4.8-1.1-.1-1.7 3.1-3.3.9 38.9-50.9 95.4-85.6 135.9-135.7 2-2.3 7.9-5.3 4.3-10-2.9-3.8-6.9-1.6-10.1.6-50.9 32.8-101.5 66.9-146.6 107.6-11.8-79.3-8.3-160.1-15-239.9-.1-8.2-10.6-10.8-11.8-1.3-2.3 14.8-4.9 29.7-6 44.7-4.1 68.2-7.5 136.8-.5 204.9-.1 1.9-1.2 6.5-4 5.9-14.2-8.5-31-9.3-46-15.3-4.9-1.9-12.5-.9-14.6 2.6-2.8 5.5 4.8 6.4 9.1 7.5 16 3.6 32.2 6.8 47.8 11.8 14.5 4.7 14.8-1.8 14.3-13.3-2.7-78.5-6.8-158 4.6-235.8 3.3 79.7 4.9 160.4 13.1 240.1-2 10.9 4.6 7.2 9.9 1.4 36.7-38.9 83.8-67.8 127.3-98.9-8 11.5-17.3 21.8-28.2 29.9-35.7 27.9-70.1 58-96.8 94.8-4.6 6.4-1 9.5 3.8 9.2 24.4-1.1 48.1 5.2 73.6 5.9-6.2 3.6-6.8 14.2-13.3 13-17.8-3.3-35.5-2.8-53.3-2.5-9.3.1-17.6 2.1-15.4 15.4 2.6 26.1 6.6 52.1 11.8 77.8.8 7.7 7 13.8 6 21.1-1.3 9.8-4.4 19.3-6.9 29.4-5.7-7.2-13.9-11-15.9-23.5-5.1-31.3-8.4-62.8-12.1-94.3-.8-7.3 3.1-24.5-16.5-16.2-21.1 9-43.5 15.3-63.2 27.4-3.3 3.1-3.6 10.1 2.9 7.3 21.9-9.1 43.3-20.2 66-27 2.3 18-7.8 13.4-20.2 22.6-15.8 7.8-31.7 15.3-47.4 23.3-4.6 2.3-7.9 5.5-1.4 10.8 34.2 24.6 70.2 46.6 101.5 75.1 3.5 3.1 5.9 10.1 11 8.2 4.8-1.8 2-8.5 2.7-13 8.3-30.6 18.4-60.6 33.9-88.5 15.3-30.8 33.4-60 55.5-86.4 6.8-8.4 7-8.2 8.5-5.2 7.4 15.1 9.5 31.5 9.7 47.8.6 41.7-1.4 83.5-6.3 124.9-.1 4.9-8.5 17.4 7.7 14.6 81.4-21.9 169.6-23.2 250.6 1-36.9 29.4-75.5 58.8-118.5 78.8-16.8 8.1-34.7 13.7-52.2 20.2-10.7 5-26.5 3.6-34.8 12.2-1.5 2.6-.6 5.9 2 7.4 15.4 9 31.4 17.2 46.3 27 40 25 72.3 61 94.3 102.7 2 2.8 4.7-2.5 3.8-4.5-25.6-59.4-78.3-100.8-135.6-130.1 47.3-10.6 90.3-26.5 130.3-52.8 24.8-16.2 48-34.8 71.9-52.3 8.3-5.6 11.3-16.4-1.8-17.7zm-399.5-23.4c-89.1-74.9-99.2-28.9-10.2-82 2.4 27.5 8.5 54.4 10.2 82zm55.9-61.7c-4.3 10.8-9.4 21.3-14.6 32.4-1.8-7.4-22.1-59.5-3.7-49.1 7 3 14.9 4.2 21.3 8.1 4.9 3.1-1.9 5.8-3 8.6zm23.4-42.8c-3.8 7.3-7.5 14.6-11.8 21.6-3.6 5.8-9.3 1.9-13.5 1.1-7-1.3-13.6-4.8-20.4-7-8.2-2.6-4.5-10.5-8.3-15.7 3.3-8.9 11.5-5 16.5-5.7 11.3-1.4 22.9-.5 34.4-.4 4.4.1 4.8 2.9 3.1 6.1zm57.6-59.3c46.9 29.1 80.9 66.9 104.8 115-14.5 3.7-29.4 5.5-44.8 2.9-9.9-1.7-20.1-3.4-29.9-2.4-15.3 1.4-18.3-5.1-15.6-18.2 5-12.4-8.8-28.9 5.2-25.9 11.9 3.2 24.4 4.6 35.3 11.2 7.5 4 15.3-1.5 5.6-7.3-11.6-13.4-27.8-20-42.8-28.2-7.9-4.4-6-12.5-7.2-19.2-1.8-9.4-6.4-17.5-10.6-27.9zm13.5 54.9c.5-4 2.3 0 3 .3 6.6 3.4 13 7.1 19.4 10.7-7-1.1-13.6-3-20.7-3.2-4.1-.1-2-5.2-1.7-7.8zm125.1 379.2c5.1 8.6-5.6 10.2-11.3 6.2-66.3-47.6-133.5-94-204.8-133.8-6.8-4.3-9.9-2.9-11.6.2-15.4 37.5-35.7 72.9-51.8 110.4-6.7 10.8-11.2 39.5-29 27.1-3.9-3.2-4.6-8-2.3-12.6 7.4-15.3 8.6-32.3 15.1-47.8 5.9-14 11.5-28.1 16.7-42.3 3.1-8.5 6.1-16.8 10.9-24.5.2-.3 0-1.4-.3-1.5-13.1 3.3-26.6 9.2-38.7 15.3-5.5 3.1-4.5 12.3-5.3 18.8-3.5 30.1-8.6 60.1-7.2 90.6.4 3.3-2 6.3-5.3 6.7H31c-4.1 0-2.5-4.3-2.4-6.6-.3-34.2 4.4-67.9 7.8-101.7-10.1 3.6-19.3 9.9-28.9 14.8-1.8 1-2.9 2.1-4.3-.1-1.3-1.8.6-2.8 1.8-4 13.1-15.5 31.8-21.6 49.1-30.4 6.1-2.6 40.9-19.2 43.6-14.1.8 1 .7 3.4.2 4.9-4.9 13.4-10.3 26.6-15 40-5 14.3-8 29.5-14.4 43.2-5.5 11.8-6.5 25-12.6 36.5-.5 1 .9 3 2.1 6.7 20.5-46.3 42.4-87.9 65.4-132.2 3.4-7.3 7.3-16.1 16.3-9.6 70.6 43.1 141.4 85.5 205.8 137.7-5.1-11-14.7-18.3-23-26-41.3-35.4-81.7-72.2-125.9-104.1-5.9-4.3-12.5-7.6-18.4-11.9-3.5-2.5-9.6-4-8.3-9.9 1.3-5.8 7.9-5.3 12-6.6 39.5-12 79.1-23.7 119.9-30.6 6.7-.9 13.1-4.2 19.4-8.2-50.9 7.1-102.5 11.9-151.6 27.6-6.2 1.8-6.8-.9-5.8-5.3 11.2-49.1 23.6-98 24.9-148.7-15.6 41.4-30.6 82.9-44.2 124.9-4.1 10.6-5.9 21.7-9.2 32.4-2.1 7-5.9 2.9-7.8 1-24.8-24.4-52.5-44.8-81.5-63.7-11.6-7.6-24.5-13.7-33.6-24.9-3.1.5-4.2 2.6-1.2 4.4 28.8 29.2 57.8 58.1 86.7 87.4 13.3 10.3 3.9 13.5-5.1 15-27 6.8-52.7 17-78.8 26.2-4.5 1.3-9.8 1.8-13-2.4 14.4-9.7 32.6-13.3 48.6-20.3 7.4-2.7 1.7-6 0-7.5-20.6-18.7-35.4-41.8-49.7-65.3-2.6-3.4-6.2-7.2-2.7-9.4 5.1-3 9 4.5 11.5 8.3 14.6 24.5 34.8 44.9 50.8 68.3 4.7 6.9 9.7-3.8 15.5-2 2.2.7 5.3-1 7.8-2.1 21.1-8.9 3-12.2-4.1-16.2-6.5-10.7-16.8-19.2-25.9-28.3-13.7-13.7-27.8-27-41-41.1-7.7-6.3-18.5-14.1-10.8-25.1 2.2-.6 3.9-3.4 6.8-1.4 42.5 28 85.8 56.3 121.8 92.3 15.8-57.5 36.7-112.6 57.1-168.4 1-3.2 2.6-6.1 4.8-8.7.8-.9.2-4.5 3.2-3 10.3 2.6.1 60-1.4 70.6-3.3 16.8-5.1 34-8.6 50.7-2.6 16.4-10.9 31.9-11.6 48.5 70.2-16 141.6-25.7 213.7-27.4 1.8-.2 4-.3 4.2 2.3.2 2.3-1.4 3.5-3.7 3.8-27.5 4.1-52.8 15.9-79.5 23-27 6.6-54.2 12.2-80.5 21.3-13 4.7-27.3 6.6-38.9 14.5 24.6 17.4 49.9 33.8 71.8 54.9 34.2 29.3 68.4 58 96.2 93.2zm-61.7 8.7c-18.7 12.3-127.1-57-148.3-71-1.5-1-2.3-.2-3.4 1.3-20 25.7-36.3 56.9-64.8 74.1-1.6.7-3 2.3-4.8 0-1-1.3-.8-2.2-.2-2.9 15.5-17.3 31.1-34.5 46.2-52.2 7.9-7 17.8-29.8 27.3-30 28.3 16.2 55 35.3 83.6 50.8 20.4 11.7 45 16.8 64.4 29.9zM7.3 1208.2c15.1-9.8 30.6-19.4 48-26.1-7.4-3.1-14.3-8.2-21.5-8.6-11.1-.6-19.4-8.5-30.2-9-6.3-3.5-1.5-9.7 4.7-7.3 17.3 6.5 34.6 13.2 51.9 19.6 11.8 2.1 6.4 8.5-1 12-18.2 7.3-34.5 18-51.1 28.1-2.8 1.7-6.3 3.2-7.7-.2-2.4-4.7 3.9-7 6.9-8.5z"/></g><g><path d="M52 1548v15l-37 37h946l-37-37v-15H52M52 52V37.7L14.3 0H0v1600h15l37-37V52m872 0V37.7L961.7 0H14.3L52 37.7V52h872m52-52h-14.3L924 37.7V1563l37 37h15V0z"/><path d="M961 1600h15V0h-14.3L924 37.7V1563l37 37H0V0H961.7M52 52V37.7L14.3 0m.7 1600l37-37V52h872m0 1496H52" fill="none" stroke="#333" stroke-width="2" stroke-linecap="square" stroke-miterlimit="3"/></g></svg>