<svg xmlns="http://www.w3.org/2000/svg" xmlns:xlink="http://www.w3.org/1999/xlink" viewBox="0 0 976 1600"><path d="M960 22v1556c0 3.3-2.7 6-6 6H22c-3.3 0-6-2.7-6-6V22c0-3.3 2.7-6 6-6h932c3.3 0 6 2.7 6 6z" fill="#fff"/><defs><path id="a" d="M960 22v1556c0 3.3-2.7 6-6 6H22c-3.3 0-6-2.7-6-6V22c0-3.3 2.7-6 6-6h932c3.3 0 6 2.7 6 6z"/></defs><clipPath id="b"><use xlink:href="#a" overflow="visible"/></clipPath><g clip-path="url(#b)"><path d="M685 1424.5c-33-2.7 1.2-49 18.4-58.1 6.5-4.8 11.2 6.9 17.1.5 2.7-2.3 4.6-7.5 8.9-6.5 15.6 19.1-30.7 68-44.4 64.1zm108.4-13.8c-30.7-14.3 20.1-56.8 40.3-57.5 38.8 11.5-18.6 57.6-40.3 57.5zM631 1315.4c-26.8-1.6-49.2-17.2-65.2-40.2-5.1-4.8.2-10.9-.1-16.3-1.2-4.5 3.9-5.6 7.3-5.2 27.6-.4 53.8 23.7 54.4 50 4.5 2.4 12.4 9.7 3.6 11.7zm108.5-27.1c-13-2.8-1.1-8.8-20-4.2-7.1-27.3 38.4-53.7 60-55.1 5.8.5 4.2 7 .5 9.3 2.8 21.8-19 49.7-40.5 50zm-89.3-59.1c-17.7-1-24.1-1.2-32.8-16.2-6.1-16.3 28.9-26.4 42.2-26.2 13.4 1.7 35.1 1.4 42.1 12.1-.6 3.3-5.1 4.9-3.7 8.9-9.9 16.3-34.3 20.7-47.8 21.4zm109.9-188.1c-25.2 5.9-91.8-42.9-67.4-60.8 18.1-9.7 83.6 18.3 70.4 45.4 8.3 9.3 18.4 14.8-3 15.4zm101.4-43.4c-44.9-1 3.1-96.5 31.5-91.3 19.8.5 7.8 11.5 10.1 25 1.3 25.6-17.8 56.9-41.6 66.3zm-110.2-56.8c-20.8-3.8-47.6-24.8-51.1-47.6 2.6-4-.7-8-4.3-9.9-2.7-18.8 31.7-4.3 43.3 6.2 17 11.5 38.6 45.5 12.1 51.3zm88.1-86.4c-5.6-.1-2.8-8.2-8-9.3-2-.7-3.1-2.7-2.6-4.7 4.9-21.5 10.9-44 35.6-53.1 24.2-7.6 30.7 11.1 18.4 33.6-9.8 19.6-25.3 27-43.4 33.5zm-554.7-12.2c-25.6-20 4-79.4 33.5-83.9 4.3 2.6 10.5-5.4 12.6 1.7 8.3 38.8-15.5 62.7-29.7 77-9.9 2.3-5.8-3.1-16.4 5.2zm481-1.8c-24.2 2.1-69.3-35.3-54.7-62.9 23.9-.5 67 26.9 54.3 50.8.9 4.2 9.5 10.5.4 12.1zm62.8-83.4c-8.4-7.7-16.6-1.2-15.3-12.5 24.3-84.2 132.9-35.9 15.3 12.5zm-464.3-98.2c-16.5.4-68-13-61.4-39.8 40.7-27.2 141.2 35.2 61.4 39.8zm-64.8-98.4c-26.4 5.1-100-42-40.1-50 18.6 1.1 58.3 12.4 58.3 35.9 21.8 13.3-5.8 13.5-18.2 14.1zm88.1-30.3c-25.7-15.5-3.1-95.4 27.1-87.9 18.4 15.1 5.1 49.4-2.2 66.5-3.8 4.3-7.1 15.3-14.3 14.4-5.3-.4-5.2 7.3-10.6 7z" fill="#333"/><path d="M269.5 1513.4c-61.2-6.4 32.8-62 46-41.7-2.8 20.1-19.4 40.8-46 41.7zm116.2-2.4c-39.1-4.4 37.8-87.3 35.3-45 1.4 16.4-20.7 44.1-35.3 45zm110.3-13.8c-27.7-6.5-6.8-64.8 9.3-70.2 17.1 13.4 17.9 65.6-9.3 70.2zm98.2-30.4c-18.4-2.3-11.6-41.3-9.5-56.2 1.5-50.6 55.3 53 9.5 56.2zm-269.3-57c-14.6-2.1-45.6-9.8-39.3-31.9 15.2-19.6 90 31.4 39.3 31.9zm93.3-45.2c-18.2 1.9-78.2-30.3-43-45.8 14.9-4.9 71.7 45.3 43 45.8zm23.5-74.6c-57.5-9.4-119.6-16.7-177.4-22.8-16.4-5-75.5 8.9-49.5-22.4 99.2-152.7 184.7-312.7 217.7-493.6 27.8-112.9 41.9-225.5 47.7-343.5 10.3-85.1-24.7-89.7 74.7-85.4 57.2.2 118.9-5 175.8-7.2 14.4-.3 5 20.9 6.3 29.6-7.1 92.6-22.6 187.1-27.2 278.8 9.2 1.4 38.6 38.6 15.1 35.6-8.3 2.1-23.5-3.4-24.3 8.5-9.3 49-21.9 97.5-34.8 145.7-45.5 165.2-104.7 354.4-224.1 476.7zm372.2-115.8c-50.6-3.1-66.4-111.8-18.8-72 8 12.6 38.4 66 18.8 72zm-588.6-148.5c-16.9-1.1-15.2-30.4.3-35.1 16.1-8.2 36.5-17.9 53.8-15.8 1.7 23.5-29.4 50.6-54.1 50.9zm-68.6-67.8c-18.6 1.5-44.5-25.1-16.4-34.4 22.1-5.7 47.6-19.1 69.4-12.6-.4 24.9-34.8 43.6-53 47zm-66-78.3c-88-23.6 70-67.6 56.9-30.4-11.2 14.5-34.2 28-56.9 30.4zM212 772.9c-14-13.4-6.8-38.2 4.1-56.8 8.9-15.7 47-16.5 37.7 8.2-9 20.4-25.2 36-41.8 48.6zm-69.3-2.3c-57.7-9.3-80-110.6-32.6-74.5 13.2 15.4 44.4 57.5 32.6 74.5zm715.2-102.3c-61.6.2-32.2-28.2 10.5-34.6 40.9 3 24.2 38-10.5 34.6zm8.7-83.4c-14.2-3.5-29.6.2-44-6.2-15.5-13.8 20.7-27 41.4-27.1 28.3-3.8 28.5 34.1 2.6 33.3zm-14.4-88.2c-66.2-.5-17.5-36 13.8-37.4 48.8 4.4 21.2 41.5-13.8 37.4zm-637.7-47.3c-30.3 6.6-83.3-35.1-24.4-42.1 26.2 1.2 82 46.9 24.4 42.1zm632.6-47.9c-71.3-.4-6.7-40.2 21.7-38.1 44.6 9.6 6.2 44.1-21.7 38.1zm-658.4-38.3c-21 .2-74.2-4.2-72.6-35.1 4.8-24.1 107.5 22.8 72.6 35.1zm128.3-8.1c-39.9-.7 54-82.1 62.1-40.1-6.3 25.6-40.1 36.5-62.1 40.1zm535-44c-64.2 3.1-19.4-34 14.4-33.8 30.7 2.5 13.2 35.5-9.5 33-1.6.2-3.2.6-4.9.8zm-136.7-33.7c-10.9-1.3-28.4-3.5-36.5-22.7-13.5-53.4 87.8 24.8 36.5 22.7zm-585.7-7.5c-19.7 1.2-71.2-27.9-33.1-41.8 20.5 3.7 92.7 40 33.1 41.8zm135.4-.4c-2.2 0-4-1.8-4-4 0-.6.2-1.3.4-1.8 50.9-96.7 126.1-10.2 3.6 5.8zm558.5-38.9c-40.8-1.4 24.6-44.7 43-29 20 23.7-27.4 29.3-43 29zm-104.8-25.5c-18.3-4.5-38.3-14.8-44.8-30.9-4.6-10.5 7.4-25.8 18.5-16.2 7.9 5.4 46 39.3 26.3 47.1zm65-17.4c-47.2-55 17.2-108.1 18.5-62.4-2.9 20.1-3.3 47.5-18.5 62.4zm-564.3-5.8c-6.1-.2-5.1-7.8-2.8-11.3 33.3-79.4 104.2-23.1 2.8 11.3zm-59.9-23.3c-52.8-25.4-16.9-106.9 1.7-60.4 4.5 17.6 12.5 47.5-1.7 60.4z" fill="#d81e1e"/><path d="M977.3 1254.5c-59.8-43.3-80.3-57.7-112.4-126.8-10.9-23.7-23-48.8-29-73.6 3.7-11.1 8.2-22 13.5-32.5 2.6-5 1.5-11.9 8.8-14.9 22.6-9.2 37.3-26.6 46.8-48.4 7.5-17.3 3.2-35.9 4.2-54-2.8-12.3-19.6-5.3-26.4-1.5-27.4 13.7-43.1 45.2-44.8 75 0 9.1 5.7 17.6 6.1 25.6.9 5-7.2 28.5-12.3 31.3-13.7-32.7-17.6-69.7-23.8-104.8-2.4-19.4-6.5-37.6 11.1-51.8 5.5-4.5 6.3-14.5 13.4-15.4 35.5-5.4 63.3-36.5 64.3-72.2 3.7-20.4-13.2-14.3-26.8-11.4-27.3 6.5-54.7 41.6-52.5 70.8 1.1 15-8.8 21.5-15.3 31.2-5.3-18.2-5.8-36.7-6.5-54.9-.5-11.7-8.5-24-.3-35.2 18.7-29.3 25.2-24.5 53.9-35.9 13.3-7.1 25-15.7 33-28.8 5.2-8.5 2.7-18.3 5.5-26.9 4.6-13.8-27.3-5.8-33.3-4.7-22.3 2.8-47.7 30.4-47.3 52.9.1 3.8 2.2 8.6.6 11.2-4.4 7-10.2 13.2-16.7 21 .4-35.8-7.2-71.8-2.6-106.7 12.2-1 21.6-11.7 36.8-5 16.2 7.1 35.3 8 53.4 2.8 49.5-18.1.3-61.5-39-32.8-14.8 8.6-28.2 19.5-45.6 22.2-2.5.4-8.3 4.6-8.6-.2-1.5-22.5-1.7-45.1-2.3-67.7 0-1.2-.7-2.5 1.4-3.6 32.6-18.2 66.5 15.6 99.4-3.9 9.3-5.7 12.5-27.8 3.1-33.3-13-7.7-27.2-6.7-41.7-4.1-19 3.4-27.7 24.1-47.1 26.4-4.2.5-8.4 4.2-12.3 3.8-8.1-.9-4.6-8.8-4.2-12.4 1.4-13.4-.5-26.9 1-40 1-8.3-8.6-21.5 7.4-25.5 27.5-11.1 20.6-4.1 45.5 1.4 20.5.4 51.5 2.5 62.6-18.2 2.9-7.5 1-16-6-22.2-11.9-10.4-38.6-10-53.7-.8-10.9 6.6-18.4 17.4-29.2 23.4-8.4 4.6-18.6 5.9-29 9 1.3-28.2-2.6-59.4 1.7-86.9 9.7-.6 17.2-11.9 28.9-4.7 23.4 16 101.7 11 82.7-31.3-17.6-26-52.6-10.6-72.6 4.4-11.7 13.2-22.3 16.3-38 19.6 0-19.1-1-38.9.3-58.5 1.1-17 16.8-27.1 31.7-22.2 23.8 9.4 80.7 11.2 75.9-26.8-9.2-26.2-44.7-15-62.2-3.8-6.7 4.3-10 12.8-15.7 15.9-8.9 4.8-18.9 8.6-28.3 12.9 4-22-11-77.5 23.9-75.9 18.9 3.5 38.4 1.4 56.1-6 30-11.6 8.1-46.1-17.5-36.4-14.4 3.1-27.5 10.7-37.4 21.6-1.9 3-22.9 23.9-20.7 11.9 1.9-7.1 1.3-14.6 1.4-22-1.5-12.3 7.2-21.9 10.5-33.4 5-12.6 5.8-26.1 7.7-39.3 9.2-56.3-78.4-29.5-38.3 47.5 2.8 6.6 11 11.9 11.6 18.3.8 13.2-2.1 26.5-4.2 39.5-3.4-1.8-6.5-3.9-9.4-6.4-12.8-12.1-31.4-17.9-38.8-35.8-7.6-17-30.7-52.1-52.2-45-30.4 17.6 10.9 52.7 31.4 57.9 5.9 1.1 11.9-3.4 17.4 1.3 11.7 10 23.3 20.1 35.9 29.1 5 3.5 14.4 4.8 14.4 11.6-.1 15-2.7 30-4.2 45-6.6-4.6-13.6-8.4-19.4-13.6-5.5-5-14.1-4.1-17.7-14.1-5.2-17.2-42-48.5-59.1-33.4-21.3 24.8 19.5 55 46.4 48.1 3.9-.7 8.8-1.4 12 .3 9.5 5.2 18.6 11 27.3 17.5 4.9 3.7 12.6 4.9 11.5 15-3 21.4.2 43.5-4.3 64.7-7.2-1.7-10.6-7.8-17.2-10.2-4.3-2.1-11.1-3-11.3-8.3-.6-12.7 1.4-25.5.1-38.1 0-5.9 6.6-17.7-9.5-15.7-16.6 2.1-33.4 4.3-50 3.7-64.8 1.8-129.5 6.8-194.3 9.2-2.1.1-9.8-5.6-10 3.5-.2 59.9-6.5 119.2-11.1 178.9-4 49.6-8.6 100.4-21.3 148.2-12.9-11.9-23.9-26.3-35-40-5.6-7.5-16.2-13-15.8-22.8 4.2-23-1-52.6 20.1-68.5 3.5-2.5 5.6-7.4 7.2-11.7 8.2-15.5 16.5-89.8-17.1-71.8-27.3 19.5-40.2 51.4-32.4 83.9 1.3 7.5 3.3 17.4 15.6 16 2.7-.3 2 2.8 1.8 4.3-1.5 12.4-3.1 24.7-4.7 37.6C357.7 543.6 337 506 313 470.5c-13.9-25.3-33.3-49.8-42.8-76.8-.6-3.8 9.5-9.1 14.7-13.8.9-.8 1.2-2.4 2.2-2.9 8.4-4.9 11.8-16.6 24.2-16.1 26.2 1.4 50.1-12.5 68.1-31.1 7.7-8.5 7.9-23.5-2.4-28.8-15.8-8.1-51.6 6.9-62 25.8-13.3 30.6-23.5 31.2-44.5 52.3-4.6 5.5-7.1 2.7-9.1-1.6-10.2-22.1-20.2-44.2-30.1-66.5-.7-1.5-4.7-3.2-.8-5.9s7.3-6.5 11.5-8.7c9.5-5 11.3-17.4 24.5-20.1 23.5-5.4 78.6-16.8 72.3-49.8-14.8-32.6-56.3-5.7-69.9 15.1-7.9 10.4-8.7 24.9-20.2 33.3-8.8 6.5-16.8 14.2-24.7 21l.3.6c-10.6-22.5-20.7-45.5-30.9-68.1-1.2-2.7-3.2-5.4-1-9.1 17.6-29.4 50.9-38.1 76-57.7 8.1-6.3 13.5-13.5 12-22.1-10.6-32.9-53.7-7.8-63.5 14.3-10.4 23.7-5.3 37-30 54.9-7.4-21.1-20.1-40.6-14.4-64.7 5.3-12.7-1.4-66.1-18.7-66.9-10.4-.7-19.7 2.5-24.6 12-11.7 22.5-2.9 53.4 17.2 68.1 8.9 6.5 16 13.1 20.1 23.8 9 28.9 18.8 57.7 31.8 85.3.6 1.3.6 3.1-1.4 2.6-13.6-7.5-29.8-7.1-43-18.6-17.6-15.6-72.7-51.9-78.6-8.6 3 20.4 40.4 39.5 60.8 33.8 11-3.1 22.5-8.5 34.8-4.3 4.4 1.5 9.4 1.9 13.3 4.2 7.4 4.3 18.4.4 23 11.2 10.6 25.6 23.7 50.1 33.5 76-12.8-3.4-29.9-5.4-39.1-13.5-14-17.5-87.3-56-93.1-18.2-1.2 19.5 25 29.2 40.5 33.7 13.5 4.4 26.7 4.2 40.4 3.3 7.2-.4 12.5-8.4 20.6-4.3 4.8 2.4 10.4 3.4 15.2 5.8 7.2 3.7 17.4 1.5 22.1 8.8 14.3 21.8 21.9 47.4 40.3 71.5-13.9-6.8-30.4-7.5-41.3-16.5-9.8-7.9-18.5-17.6-29.3-23.6-12.6-7-26.8-11.9-41.9-6.4-7.8 2.8-17.5 3.5-19.6 13.9-5.5 21.2 19.2 33.7 36.8 36.8 15.2 2.8 30.1 4 45.4.2 5-1.3 8.5-6.4 12.8-5.8 10.7.6 20.2 6.7 30.3 8.1 4.2-.3 8.5-1.4 12 5.2 15.5 29.5 37.7 55.4 52.6 85.1.5 1.6 4.3 1.3 3.1 3.9-.2.5-4-.9-6.2-1.1-12.3-1.5-16.1-13-24-19.5-20.6-16.9-43.4-30.7-72.1-22.5-58.6 11.9 43.2 80.1 77.6 53.9 4.5-2.9 7.5-5.2 12.2-1.9 8.3 5.9 20.4 4 27.2 13 17 24.6 37 46.9 56 69.9-6.4-2.6-13.5 2.1-19.6-6.9S381 621.1 371 615c-19.6-11.8-41-9.8-62-5.7-43.9 13.4 12.4 49.4 33.3 53.3 15.5 4.1 32.2 8.6 47.1-.7 10.4-6.4 19.4-9.7 32.4-7.5 19.1 3.1 22.4 4.3 19.2 18.4-18.7 86.7-36.1 174.5-68.8 257.2-1.5 3.6 1.7 15.3-8.8 10.1-27.5-13.6-52.7-31-78-48.2-2.8-1.9-10.2-3.6-7.9-7.2 8.6-13.9 10.5-30.4 26.7-41.9 22.8-16.2 36.3-41.3 33.9-71.7-.9-11.2-10.4-23.1-17.3-20.5-30.4 9.9-50.6 38.9-51.9 70.3-.9 9.2 0 18.6 8.9 23 11.7 5.8-6 15.2-6.4 29.8 2 18.8-48.8-37.3-54.2-40.5-5.5-5-16.1-11.9-15.1-15.4 4.1-14.8 5.6-30.9 17.5-43.3 16.9-17.1 46.5-38.5 40.5-66.3-25.6-35-69.9 19.3-60.4 49 9.6 18.9 1.4 35.2-6.1 53-13.7-12.8-27.9-25.9-38.9-42.4-12.1-29.1-20.3-60.9-46.6-81.3-21.6-17.8-32.8 4.9-29.8 25 2.7 22.4 27.8 50.2 48.5 57.5 7.4 1.5 16.9 3.1 21.1 8.3 11.1 13.5 22.9 26.4 35.4 38.6 2.2 2.1 1.4 2.8-.6 3.5-11.9 3.8-24.3 8.3-35.9 12.3-22.2-6.5-93.4.3-87.9 33.9 1.6 10.4 10.2 14.7 17.9 16.7 23.7 6.2 43.3-4 62.8-16.8 11.9-7.8 8-27.6 25.4-30 3.8-.5 7.3-3.8 11.1-4.3 6.4-.8 13.7-7.7 18.5-3.3 20.5 18.2 39.8 37.7 59.2 56.4-14.3 5.2-28.6 16.6-43.1 17.5-26.2 1.5-50.6 7.9-74.6 17.1-20.7 5.1-17.8 26.3-3.8 37.4 26.3 18.8 62.2-6.6 76.9-30.1 3.6-5.8 3-14.3 10.6-17.7 10.3-4.5 20.4-9.6 31.1-13.3 4.2-1.4 8.7-6.7 13.2-3.2 18 13.9 37 26.2 57 38.3-23.9 16.5-27 34.3-59 40.6-22.9 4.5-69.2 19.7-51.1 50.3 20.2 27.5 60.8-12.1 69.9-33.3 2.8-5.4 2.9-14.5 6.9-16.5 12.4-6.2 18.8-18.4 29.5-25.5 5.4-3.6 8.2-17.3 20.2-8.2 6.4 4.9 14.7 7.2 21.9 11.2 1.2.7 5 .4 3.7 3.5-42.9 103.7-102 199.6-160.3 295.2-8.2 13.6-1.1 24.3 12 23.4 19.6 2 39.2 3.7 58.7 5.5 41.7 3.3 82.9 9.7 124.6 12.2 6.3-.2 12.5.9 18.4 3.2 39.8 15.7 53.6-33.1 75-56.1 40.8-58.8 75.4-122.1 104.7-187.4 20.8-54 42.7-107.9 58.5-163.6 10.6-43.7 23.5-86.7 35.8-129.8 6.3-25.9 10.7-52.3 16.5-78.4 1.5-6.5.3-17.3 12.8-13.9 10.4 3.3 19.8-5.6 30 1.7 6.9 4.8 21 7 21.8 11.9 6.4 54.1 3.4 106.9 11.1 161.4-2-2.3-3.8-3.3-3.8-4.4-.4-13.9-9.9-23.8-16.1-34.9-5.6-20.6-75.6-43.2-63.6-10.2 8.2 24.9 39.2 67.2 69.4 55.2 7.3-5 9.5 4.5 14.8 4.6-.9 8.6 1.7 16.7 3.2 25 3.5 19.9 2.7 40.5 9.9 59.9 1.3 3.6-.5 12-1.2 11.2-8.3-8.6-24.8-8.5-26.3-24.2-7.2-26.7-31.8-42.9-56.6-50.9-23.5-5.5-31 14.7-15.9 31.3 9.3 23.4 37.6 53.3 65.2 44.2 7-2.8 33.5 6.4 35.5 13.5 7.3 30.6 14.1 61.9 22.3 92.1-7.6-3.8-16.3-7-23.6-12.3-6.3-4.5-16-4.9-19-13-7-19.3-19.1-33.5-37.7-42.4-14.6-5.8-45-17.7-57.5-5.4-2.8 2.5-1.8 7.3-.6 11.2 7.9 25.5 24.7 42.7 49.3 52.6 12.7 5.1 25.2 8.9 39.3 4.5 3.6-1.1.8-8.8 7.3-5.1 8.6 4.9 18.5 7.8 26.6 13.3 25.9 10.6 19.1 7.7 27.6 33.1 24.6 57.4 53.9 112.3 105.2 150.9-16.7-5.8-31.6-10.3-48.2-15.3-10.1-3.4-22.8-1.2-30.2-11.7-7.9-13-26-20.6-30.8-35-4.9-25.3-19-90.5-51.7-88.5-10.2 1.3-14.3 10.1-14.7 19-1.8 35.6 17.5 63.1 51 74.8 14.8 5.2 21.3 19.7 33.8 29.7-36.6-4.9-69.1-12.4-105.4-11.9-9.2.3-18.5-2.7-27.7-.1-.7.2-2-.9-2.7-1.7-21.3-22.3-68.3-23-91.9-2.6-10.9 9.4-13.4 20.2-2.5 28.9 22.6 17.9 51.1 13.7 74.8.7 11.8-6.5 20.4-19.3 36.8-15.3 25.3 3.5 51.3 3.8 76.8 6.2 2.2.2 3.8 1.9 2.1 2.9-27.3 22.5-29.6-4.6-67.3 23.3-19.2 14-31.7 31.9-32.1 56.6-.1 3.3 1 5.9 4.9 5 25.7-5.8 52.5-11.3 68.2-35.3 6.6-9.9 3.2-24 13.3-32.5 14.2-7.9 28.1-18.6 45.8-14 45.2 11.2 89.8 24.5 133.9 39.3 6.2 2.4 12.3-.2 4.7-5.5zM901 911.1c-4 15 .5 27.3-4 38.9-5.4 13.8-12.2 27.5-25.3 35.7-1.4 5.2-5.5 6.8-10.1 8 7.2-26.1 22.7-49.2 33.7-73.9 1-2.2 2.6-4.2 5.7-8.7zm-13.4-1.6c.7-.4 1.9-.1 2.8-.2-11.4 28.8-30 54.1-40.3 83.6-8.7-34.3 13.6-68 37.5-83.4zM859.1 841c-6.6 3.1-12.6 7.5-19.7 9.6 14.1-19.8 29.6-38.4 44.6-58.1 4.6 14.6-9.5 41.3-24.9 48.5zm4.4-48.8c3.6-1.7 6.8-4 10.9-2.9-12.3 18.3-30.6 32.7-41.8 52.1 5-20 9.4-40.3 30.9-49.2zm14.5-82.9c-.9 12.1-10.7 30.4-49.5 43.8 17-17 32.6-31.2 49.5-43.8zm-60.9 36.3c6.8-26.5 26.4-43.2 56.4-44.2-20.5 14.6-38 31.3-56.2 47.2-.2-1-.3-2-.2-3zm9.7-89.8c14.4-12.8 52.4-30.6 62.6-5.2-2.8 11-12.5 10-19.6 12.1-13.8 4-27.6-.7-41.4-1.9-2.4-.5-4.2-2.9-1.6-5zm-4.1-84.2c7.5-12.6 55.9-26.9 59.7-4.9-1.2 8.3-5.3 14.6-16.7 14.2-5.8-3.4-44.5.6-43-9.3zm6-92.9c14.8-11.8 30.7-18.9 50-13.6 13.4 4.7 11.7 20.8-.7 23.2-11.7 2.4-23.5 6.5-35.7 3.1-10.6-2.4-31.7-1-13.6-12.7zm-10.1-90c53.2-45.9 88.6-5 51.2 5.9-16.5 4.3-33.9 3.8-50.1-1.5-3.3-1.1-3.5-2.4-1.1-4.4zm10.1-93.6c9.1-9.1 42.3-22.5 49.9-6.9 6.6 23-44.6 19.5-56.3 15.5 2.1-2.8 3.7-6.3 6.4-8.6zM814 223.9c5-11.2 37.7-27.5 50.3-19 2.5 1.7 2.6 3.5 2.3 10.4-.5 3.9-8.1 5.8-13.9 7.3-3.3 1.4-42.4 8-38.7 1.3zm-38.7-100.8c3.5-7.4 11.6-11.4 19.6-9.6 4.8 1 3.6 8.8 3.3 11.3-1.6 20.7-4.9 39.8-14.5 58.9-9.5-20.3-18.8-39.3-8.4-60.6zm-58.5 77.7c-14.4-4.6-36.8-15.4-40.2-31 1.9-8.4 4.8-14.4 13.5-8.5 5.5.6 42.7 43.2 26.7 39.5zm-1.5 72.6c-35.6-.7-44.6-42.4-21.1-31.8 13.6 6.2 26.9 16.6 32.5 30.7l-11.4 1.1zm-399.6 67.8c9.8-16.3 23.8-27.9 42.1-32.7 5.4-1.4 15.1-3.3 17.5 7.3-7.5 21.3-44.4 37-65.7 34.7 2-3.1 4.2-6.1 6.1-9.3zm-24.6-110.3c36.5-25 73.5 15.8-26 34.6 6.6-12.9 15.4-24.6 26-34.6zm-72-55.9c18.5-65.9 101-40.3 1.9 2.4-3.3 1.8-2.1-1.3-1.9-2.4zm-58.3-22.1c-.3.7-.7 1.3-1.4 1.7-9.6-6.2-17-14.4-20.4-25.5-4.4-14.1-9.1-29.7 6.4-38.9 10.4-6.2 10.9 7 12.9 12.8 5.9 16.2 5.2 33.5 2.5 49.9zm-15 110.2c-19.8 4.5-46.7.2-58.3-18.4-3.4-7.3 6.1-15 12.4-12.2 18.1 4.5 32.4 16.3 47.5 26.4 3.9 2.7 2.9 3.8-1.6 4.2zm46.6 93.9c-1.5 3.8-5.9 1.5-9.1 1.9-1.6.2-3.3 0-9.4 0-12.3-1.5-28.9-2.5-43.2-13.1-6-4.4-13.8-9.3-10.9-16.3 3.5-8.4 13.1-3.5 19.5-2.2 17.4 3.7 34.4 9.3 47.4 22.5 2.2 2.2 7.1 3.3 5.7 7.2zm37.5 87.9c-20 .8-40 2-57.2-11.7-15-13.3 3.1-21.1 16.9-22 13.7 1.3 45.6 17.8 46.6 31.9.6 2.1-3.9 1.7-6.3 1.8zm84.1 94.8l-72.6-20c17.5-13.2 54.9.8 72.6 20zm-35.8 13.2c-13.4-5-26.6-10.2-37.9-23.2l81.8 24.4c-15.6 2.7-29.9 4-43.9-1.2zm134.4-102.1c6-21.4 15 40.6-12.5 68.7 2.9-18.5 4.9-33.9 8-49.1 1.4-6.6-.7-14 4.5-19.6zM389 521c-1 1.6 1.5 5-1.4 5.2-1.3.1-3.7-3.3-4.1-5.5-6.9-28.4-.4-58.7 25.1-76.6-9 20.6-18.1 39.8-18.6 61.5-.1 5.2 2.2 10.4-1 15.4zm-.4 117.1l-84.1-15.4c26.5-12.6 60.9-4 84.1 15.4zm-80-3.6c29 3.8 54.6 9.4 81.2 15.6-29.8 11-54.7 1.9-81.2-15.6zm18.3 126.4c6.9 32.2-8.9 53.5-28.6 73.4 9.2-23.7 18.5-47.3 28.6-73.4zm-47.5 64.5c-.6-24.9 12.2-50.6 34.9-62.8 2.7-1.2 2.6-1.3 2.6 2.9-4.6 10.3-10 21.4-14.7 32.7-6.4 13.1-8.7 28.4-17.6 40-4.2-3.2-5.3-8.8-5.2-12.8zm-60-107.2c4.9-8 21.6-12.5 28.4-7.2 13.5 16.3-25.7 46.3-36 57.9-6.6-18.5-2-34.9 7.6-50.7zm-80.1 46.6c-60.5-18.8-62-97.7-31.7-65.5 17.9 20 29 40.2 35 67.2-.5-1.5-2.2-1.3-3.3-1.7zm5.2 81.7c-13.9 16.8-32.2 25.8-53.9 29.1-7.7-3.9-20.9-.7-21.2-14.3-.9-14.9 42-21.7 53.4-21.5 6.9-.4 13.9.8 20.8 1.7.6 0 1.7 4.2.9 5zm54.5 80c-10.1 15.8-25.9 22.9-42.3 27.3-7-1.3-13.3-.9-18.3-6.5-9.8-10.9-9.5-14.2 3.6-20.2 16.5-7.6 34.9-7.9 51.7-14.5 3.6-1.5 8.6.5 13 .9-.6 5.5-5 8.8-7.7 13zm77 55.5c-9.9 18.5-25.5 38.2-47.9 39.3-9.1 2-9.7-5.4-10.9-10.6-4.3-20.1 44.6-30.6 59.2-33.3-.1 1.6.2 3.3-.4 4.6zm494-450.1c.4 10 .8 20.9-1.4 31.1-.7 3.3-4.1-.3-5.7-1.2-12.5-6.5-24.3-14.3-37.7-19.5-1.6-.6-.6-8.9-.1-13.6 3-20.3 5-40.8 6.4-61.3 1.8.8 4 1.1 5.3 2.3 7.8 7.4 18 10.5 27.2 15.3 8.7 3.6 4.8 36 6 46.9zm-27.1-158.1c8.2 5.7 16.8 10.9 24.3 17.4 4.9 4.2.3 10.5.2 15.7-.4 18.2-.8 36.4 1.3 54.5.5 4.3.3 9.7-2 12.9-2.1 2.9-5-2.4-8-3.5-6.6-2.4-12.3-6.9-19.5-8.5-4.7-1.1-8.3-4.6-5.7-10.5 1.9-25.3 3.7-50.6 5.5-75.9.3-2.7 1.5-3.8 3.9-2.1zm-39.5 252.5c-8.4 62.8-25.6 124.6-41.5 186-29.7 117-70 232.1-130.1 337.2-22.3 45.1-53.4 84.3-80.8 125.9-7 12.5-18.9 6.3-27.3 4.8-66.2-7.5-132.4-15.9-199-19.3-13.7 1.1-17.2-.4-6.6-14 8.6-14 17.1-28.1 25.8-42.1 52.7-80.1 95.7-165.7 135.8-252.5 5.7-9 5.1-21.7 9.6-31.8 10.8-21.4 15.7-44.7 21.9-67.7 15.3-55.4 28.1-111.5 39.9-167.7 23.2-116.4 34.2-235.3 35.5-353.9-.1-2.1.6-4.7 7.3-5 20.3 0 40.7.1 61 0 36-.9 72.3-.8 108.2-3.5 22.5-2.2 45.1-3.1 67.6-3.7 3-.1 4 .4 3.9 3.4-2.1 21.1-2.4 42.5-6.1 63.2-7.3 80.4-16.1 160.5-25.1 240.7zm23.7 28.7c-21.3-1-17.4 12.3-12.3-25.7 5.8 8.8 9.8 15.6 14.5 21.9 2.9 4 .7 3.6-2.2 3.8zm43.9 6.9c-24-3.3-39.4-22.9-53.6-40.2.4-22.5 1.5-46.2 6.4-68.4 12.8 7 25.9 14 38.8 21.3 5.3 3 7 6.8 6.8 14-.4 22.2 1.4 44.4 2.6 66.5.2 2.5.9 5.2-1 6.8zm-6.3 157.4c.1.5-.3 1-.5 1.5-14.6-7.1-25.3-20.7-39.8-28.5-3.9-2.3-6.4-8-13.2-10.8 20.5-1 50.4 21 53.5 37.8zm-53.1-25.7c18.2 14.4 35.9 28.4 54.3 42.9-25.1-1-42.6-18.3-54.3-42.9zm46 141c-8.1 8.8-37.1-11.4-42.5-21.5-4.4-5.6-9-10.7-11.5-17.7 1 .2 2.4 0 3.1.6 15.4 14.8 34.3 25.8 50.9 38.6zm-59.3-54.4c16.9-7.2 53.2 17.3 62.4 44l-62.4-44zm53.4 123.1c2.3 3.1 15.6 11.7 8.8 15.4-2.7 1-7.2-2-10.4-3.9-17.9-10.8-35.7-21.8-53.7-32.9 21.5-.4 39.4 8.2 55.3 21.4zm-50.9 2.5c-3.2-6.4-9-11.7-11.1-18.5 25.4 18 52 34.4 79.6 48.9-24 4.6-56.8-10.3-68.5-30.4zM817 1167.1c-.7 5.5-6.2 2.3-8.3 1.4-74.6-32.6-24.7-142.2 8.3-1.4zm-168.1 58.1c-7.9-1.2-18.3 0-23.7-7 22.3-6.1 44.4-7.2 69-9.4-14.8 10.4-29 16.8-45.3 16.4zm-30-15.8c22.8-24.6 49-20.6 78.9-10.8-28.1 3.6-53.6 3.9-78.9 10.8zm118.6 74.8l38.9-35.4c-3.4 17.3-24.5 37.5-38.9 35.4zm-3.8-13.3c-4.1 3.3-7.8 7.1-12.3 9.7 0-1.6-.7-3.7 0-4.9 12.5-22.2 31.7-39.6 58.1-42.7-14.1 15.2-30.8 25.5-45.8 37.9zM951.5 25.6c1.5-13.7 26.1-11.2 23.7 6.1-1.4 15.5-24.9 10.9-23.7-6.1zm6.7 673.3c-17.1-.5-13.4-25.7 5.7-23.9 10.6 2.9 8.2 24.3-5.7 23.9zm8 641.7c-11-7.8-24.3-8.6-36.3-13-21.9-8.1-44.4-13.2-67.5-14.1-26.5-1-53.1-.9-79.6-.4-37.3.9-74.2 9.5-111.3 11.4-43.7-.8-33-69.7-88-75.5-57.3-8.6-5.4 58.9 18.4 65.9 21.5 13.1 26.2-6.4 35.7 2 3.9 3.8 8.1 7.4 12.2 11-47.1 11.4-94.3 26.2-141.1 40.2-14.6 4.2-28 18-45.5 6.9-9.7-6.2-24-8.3-29.8-16.7-12.7-18.4-23.8-36.8-47.2-43-8.1-2.1-16-4.7-23.1 2.2-16.7 20.7 23.5 47.8 42.1 48.7 22.2-3.2 36.3 8.6 53.1 19.9-15.3 6.4-31.7 12.8-47.7 20-7.5 3.4-15.5 12.8-22 10-15.1-6.6-33.7-5.9-44.2-24.1-8-14.8-48.3-33-63.1-20-15.7 19.5 18.6 39.7 36.6 41.3 9.7.9 18.8-4.4 28-2 10.2 3.4 21.9 5.9 30.7 11.9-7.3 5.5-15.9 9-23.5 14.2-8.3 5.3-16 12.7-24.4 17.3-22.2 10-87.2 16-87 48.3 17.5 40.3 75.9 7.8 79.4-32.3.8-4.9 6-8.8 10.4-10.9 31.7-17.2 64.2-32.8 96.4-49-2 2.3-.6 4.9-1.3 6.8-1.6 4.6-2.2 9.5-3.3 14.2-5 25-41 18.3-51.8 57-2 6.7-5.5 13.6-1.4 20.4 17.7 23.4 46.9-8.2 52.4-27 6.7-18.9 4.7-40.3 12.6-59 2.9-6.8-1-17.9 10.2-19.8 10.3-1.7 18.9-8.6 28.8-9.3 10.3-1.8 23.9-21.5 23.7 9.5.7 5.6 3.9 13 1.5 16.5-15.3 19.1-40.3 79.6-1.8 82.8 12.4-2.7 22-16.8 23.7-30.1 2.9-30-16.5-53.9-16.4-83.4-1.2-7.1 2.8-8.9 8.5-10.5 12.5-3.4 24.7-9.7 37.2-10.4 8.6-.5 22.1-19.9 27.3 3.7 1.6 7.2 7 14.1 4.6 21.7-6.5 20.9-7.9 41.9-3.5 63.2 13 38.7 54.3-3.8 33-38.3-8.2-15.1-22.5-26.7-24.5-45.4-.8-8-6.7-16.5 6.4-19.3 6.7-1.4 13.9-1.4 20.2-3.8 43.8-14.1 90.3-18.7 135.9-22-8.9 7.5-16.7 22.3-26.8 25.5-16.6 3.7-30 11.1-41.5 22.8-14.3 14.6-19 32.5-16.5 52.3.5 3.7 5.2 6.1 8.2 5.4 28.8-6.2 69-37.2 64.6-69.1-2.7-9.3.4-13.4 5.6-17.9 7.8-4.8 13-17.7 21.1-19.9 15.9-2.9 32.1-4.2 48.3-3.8 23.4 1.9 42.1-1.2 66.7 4.4-14.7.6-22.6 19.8-34.1 19.3-10.9-2.2-19.5 1.9-28.2 4.7-19.2 1.9-64.1 61.6-27.4 63 22.3-1.2 51.3-20.4 61.4-40.5 3-8.3-2.1-19.5 9.5-24.9 10-4.6 25.8-24.3 36.9-20.6 21.4 6.9 43.9 9.9 64.7 18.7 5 2.3 10.6-4.5 3.8-7.1zm-342.5-48.5c-19-14.6-34.3-26.6-54.1-34.2 25.2-1.4 39.4 12.4 54.1 34.2zm-44-6.9c-3.2-5.8-13.1-10.9-12.1-18 1.8-2.1 3.2.7 4.5 1.8 17.6 15.6 38.4 26.7 59 42.4-21.9-3.4-39.5-9.2-51.4-26.2zm-161.5 75.3c-13.7-.4-57.2-16.9-48.3-35.1 4.3-5.5 10.6-1.1 15.8.2 18.1 4.9 28.7 19.4 36.9 34.9h-4.4zm-79.7 42c-2.7 5.2-8.6 1-13.6 3.2-14-3.6-30.4-3.6-36.4-21.9-3.2-4 6.4-8.1 9.5-6.7 12.7 3.6 25.4 7.4 35 17.2 2.3 2.4 7.6 4.1 5.5 8.2zm-28 75.7c-18.8 51.6-93.9 28.4-35.3 3.8 11.1-5.9 23-12.1 36.3-10.8-.3 2.3-.1 4.9-1 7zm77.7 28.5c-5.8 1.6-11.1-2.2-9-8.4 4.1-20.2 18.9-31.3 35.3-40.8 2.2-1.3 2.5-.7 2.5 8.6 2.4 12.8-18.2 37.6-28.8 40.6zm119.4-72.7c5.1 18.1 10.8 40-3.9 55.5-6.5 7.2-15.7 3-16.4-5.5-.4-18.8 2.7-36.8 15.6-51.6 2.8-3.1 4.3-.5 4.7 1.6zm81.1-23c.8-3.6-2.1-9.8 1.9-10.2 5.3-.6 4.8 6.7 7.3 10.3 6.4 9.1 11.7 18.8 11 31.4 3.3 12.8-20.4 32.1-21.7 10.3-2-13.9-1.5-28.1 1.5-41.8zm116.9-41.3c.7-.5 1.8-.4 2.8-.5 0 .7.3 1.7-.1 2.1-13 13.2-23.4 28.2-33.3 47 2.7-23.3 13.8-37.8 30.6-48.6zm-22 50.7c11.3-21.3 28.5-37.8 44.7-56.2 3.2 20.7-27.8 58.4-44.7 56.2zm104-18.1c-2-15.8 23.8-41.2 46.1-45.1-17 13.3-32.5 28.4-46.1 45.1zm5.9 4.4c18.8-14.1 31.6-32.5 51-44-3.2 18-31.3 42.8-51 44zM940.8 285.1c-.4-14.1 20.7-20.7 23.3-4.6 3.9 17.3-25.3 23.9-23.3 4.6zm22.6 580c.4 15-24.1 18.3-24 1.2-1.4-17.3 23.6-19.8 24-1.2zM939 1113.4c-1.1-20.4 25.2-15.8 22.4 3.2-.8 15.5-25.8 12.5-22.4-3.2zm3.1-622.9c6.3.3 16-1.1 15.9 9 0 7.5-2.6 15.7-13.1 15.5-14.3 1.5-16.7-24.1-2.8-24.5zm-.8-76.2c-.4-9.3 7.7-12.7 14.7-12.8 8.1-.1 10.1 7.6 11.2 14.6-.9 9.7-8.4 12.8-15.8 12.6s-9.8-8.3-10.1-14.4zM924.9 752c-2.6-18.2 20.5-15.8 18.9-.2-.8 16.8-18.2 15.2-18.9.2zm4.8-618.7c19.7.9 16.5 28.8-1.7 27.1-8.7-.4-9.5-9.2-10-16.5-.5-8.4 6.1-10.7 11.7-10.6zm-18.8-63.6c.8-15.2 26.9-16.4 25.7.4.2 13.5-26.4 16.3-25.7-.4zm2.2 272.3c-1.1-16.7 25.3-20 21.8-.9 2 10.1-6.6 10.1-11.9 10.6-5 .4-9.5-3.3-9.9-8.4V342zm-9.6-114.5c.2-14.5 26.5-9.3 24.2 4.9-.1 8.9-8.3 7.1-12.4 8.7-11.3.5-11.3-7.9-11.8-13.6zm6.6 818.5c13.9-.3 16.2 23.6 1.8 23.8-17.9 2.4-16.9-24.6-1.8-23.8zm-11.2-614.1c-1.6-21.4 25.6-14.2 22 4-1.4 14.2-25.2 10.5-22-4zm-17.8-405c-2.7-18 25.1-19.5 24.9-.9 2.1 18.2-26.3 18.1-24.9.9zM876 119c2.1 11.7-4.2 18.9-15.3 19.7-9.3.8-9.9-8.5-11.8-13.3-4.3-20.9 22.6-24.8 27.1-6.4zm-34.4-49.6c0-7.1.5-16.1 10.8-17.4 8-1 13.6 2.1 14.9 8.7 2.7 17.6-24.9 26.3-25.7 8.7zm-54.2-52.9c.4-5.9 2.1-13.5 11.2-13.5 9.8 0 16.2 3.9 14.9 14.7.5 13.1-27.8 18.4-26.1-1.2zM810.5 1546c1.7 21.9-26.4 20.8-26.3 4.8.5-7.3.2-16.2 10.9-17.6 9.7-1.2 15.1 4.3 15.4 12.8zm-69-1486.6c1-7 .6-18.1 13.4-16.6 9 1.1 10.3 7.8 10.1 15.1-.2 8.2-3 14.1-13.3 13-9.7 2.6-10.8-6.8-10.2-11.5zm-4.9 1449.1c6.4 19.1-25.2 19.7-24.2 1.5-.3-7.4 1.7-14.9 11.9-12.9 9.7-1.9 11 6.2 12.3 11.4zM671.4 61.9c7.5-.3 12.1 3 11.7 11.5 1.5 7.2-3.3 10.6-9.1 11.4-5 .9-9.8-2.5-10.6-7.5-.1-.4-.1-.9-.1-1.3-.1-5.6-1.5-13.7 8.1-14.1zm-26.2-46.8C646 9 645.3.3 655.6.7c5.8.2 13.9.1 12.9 8-.8 6.4-1.4 15.9-11.8 16.7-7-.2-12.6-2.4-11.5-10.3zm13.7 1519.4c2 17.9-26.1 19.4-27.5 2.8-.6-20.1 27.7-21.5 27.5-2.8zM592.2 55.4c.4-6.4.5-14.5 10.2-15 7.1-.3 12.9 2.2 12.6 10.6.8 14.9-23.2 15.4-22.8 4.4zm-25 42.5c.5-6.2 3-14 10.3-14.5 6.9-.5 14.3 2.1 13.2 15.8-.2 11.9-24.6 14.4-23.5-1.3zm21.9 1476c1 14.1-22.5 14.7-20.3.7-.1-5.1-.4-10.2 5.2-10 6.4.2 15.4-2.4 15.1 9.3zm-17.9-58.9c.6 14.9-25 16.2-22.3 1.1-.5-8.5 2.2-13.6 11.2-13.2 7.9.4 11.3 3.9 11.1 12.1zM549 16c-2.2-14.5 24.7-15 21.9-1-.7 6.6-3.8 12.2-13.8 12.2-6.6.8-7.8-5-8.1-11.2zm-17.5 118.4c5.8 0 10.8 4.1 9.7 11.8-1.1 5.9-1.7 13-9.9 12.6-17.3 1.2-15.6-24.5.2-24.4zM513 58c-1.5-13 22.5-15.9 22.8-3 .6 8.7-1.6 15.8-11.4 14-9.4.6-11.5-4.4-11.4-11zm-1.8 1504.5c-.3 7.4-4.2 12.4-10.6 12.1-5.6-.2-15.2 1-13.4-12 2.8-3.3-2.9-13.9 8.5-13.5 8.1.3 15.9 2 15.5 13.4zM469.9 105.2c.2-9.7 4.5-14.4 17.9-14.2 3.4.3 5.5 5.1 5.1 11.1.1 12.9-23.2 19.5-23 3.1zm-6.9 95.4c-.2 7.4-.3 15.5-11.8 14.5-18.6 3.9-13.2-22.1.6-23.5 3.4-.7 11.3 1.5 11.2 9zM435 53c-1.3-13.7 25.2-14.4 24.1 1.9.1 15.8-25.5 12.9-24.1-1.9zm-1.9 98c.3-20.7 23.3-15.5 21.8-2.9-.2 18.4-23.2 14.7-21.8 2.9zm-2 1425.8c1.1 8-4.6 9.8-10.3 10.1-10.6.5-10.5-7.7-10.8-15 .3-14.1 23.5-7.6 21.1 4.9zM413.8 216.6c-.4 17.8-22.2 11-20.7-2-.9-14.8 22.9-12.9 20.7 2zM399.9 86.8c12.8-1.5 15.9 21.4 2.4 20.3-15.3 2-18.2-20.3-2.4-20.3zm-12.6-71.7c0-4 1-10.2 7-9.9 5.8.3 14.7-1.7 13 9.5 1.9 7.9-3.3 9.4-9.2 10.4-8 1.2-10.8-3.9-10.8-10zm-40 48.4c.8-6 2.5-12.8 11.3-12.6 8.3.2 10.4 5.5 11 16.5.6 5.7-7.4 5.6-12.9 6-4.7.5-8.9-3-9.4-7.7-.2-.8-.2-1.5 0-2.2zm-11.8 73.1c1.4-16 22.2-14.7 21.8 2 .7 16.6-23.6 12.1-21.8-2zm1.5 1437.3c.3 18.8-24.6 19.8-25.7 2.1-1.8-17 24.7-20.1 25.7-2.1zM282.7 45.4c-.3-14.3 7.6-18 14.8-17.8 6.7.2 8.1 8.6 8.1 14.4.7 14.5-19.7 12.7-22.9 3.4zm-63.6 6.7c-.8-6.5 1.5-10.9 9.1-8.9 9.1-1.9 12.4 3.5 13.4 10.8 2.3 17.3-22.9 20.5-22.5-1.9zm21 1518.5c-1.9 3.9.6 12.1-6 10.9s-17.2 5.3-19.4-7.7c-3.3-19.8 22.5-22 25.4-3.2zm-30.4-179.3c-1 7.8-8.4 9.4-17.8 10-5.7.6-6.6-5.9-6.6-10.8-1.4-19.7 27.1-18.4 24.4.8zm-29-836.7c-2.1-14.8 23.8-11.4 23.1 2 .6 7.8-2 13.7-11.2 12.5-12 1.2-11.2-7.8-11.9-14.5zm19.9 954.6c-1 3.6-1.4 12-11.3 11.7-16.8 1.4-15.6-24.5-1-25.3 4.9-.3 14 .2 12.3 13.6zM166.7 16.7c.4-8 3.7-10.8 11-9.6 10.5-1.9 11.7 5.8 12.1 12.6.3 3.9-.4 10-6.7 9.9-8.4-.1-17.1 0-16.4-12.9zm-31.4 586.8c-2.8-16 24.3-16.8 24.2-1.3.8 10.4-3.7 16.1-13.9 15.7-8.9-.3-9.5-8.6-10.3-14.4zm26.1 851.9c-2.7 4.3-3.2 10.9-10.3 10.6-7.4-.3-13.6-2.5-13-11.8.6-8.7 8.5-10.2 14-10.6 5.9-.5 7.5 6.4 9.3 11.8zm-36.6 77.6c3.1 20.5-29.8 19.6-25.7.1 1-5.4 2.5-12.5 10-11.3 6.4 1.1 14.9 1.5 15.7 11.2zM95 451.9c0-6.5 2.8-11.6 9.7-11.8 7.4-.2 15.2.1 14.5 11.3-.5 8-3 13.3-12.4 11.5-9.2 2-11.7-3.4-11.8-11zm-8.3 566.5c-.8-16.6 26.6-19.7 24.3-2.3-.5 8.7-4 15.5-13.9 15.5-9 0-8.8-7.7-10.4-13.2zm2.4 256.2c10.1.7 12.3 8.1 12.7 15.6.4 9-9 10.2-14 10.1-7.2-.1-9.3-7.4-8.7-15-1-7 1.2-11.3 10-10.7zm-1.8-779.2c7.3.4 15.9 2.8 13.9 12.1-.3 8.3-1.6 13.9-9.9 13.5-16.8.9-14.5-26.2-4-25.6zm13.1 914.6c-2.2 5.8-.4 16.3-12.1 15.3-8.4-.4-8.8-7.7-9.1-13-1.5-12.3 23.1-13.9 21.2-2.3zm-2.6-799.7c-1.1 4.8-.4 13.1-9.8 12.9-6.8-.2-11-2.4-11-9.9 0-8.1 3.7-12.5 13.4-12.5 7.1-2 8.2 5.9 7.4 9.5zM77.6 117.2c12.9 1.2 13.7 29.4-5.5 27.6-6-.2-8.1-5.2-7.7-11.1 1.1-8.3 1.5-17.7 13.2-16.5zm7 273.7c-.2 5.5 1.1 13.6-6.9 13.7-6.7.1-16.5.1-14.6-12.2-2.3-12.9 9.3-8.6 15-10.8 2.1-.8 6.7 4.8 6.5 9.3zm-1.5 1101.7c.3 10.4-28.4 12.4-26.7-1.8.3-7.2-.6-17.5 12.6-15.8 14.1-2.3 12.5 10.8 14.1 17.6zm-10-1179.8c1.1 10-7.2 11.6-13.3 11.9-7.4.4-7.3-7.6-7.4-12.6-1.7-17.1 22.6-16.8 20.7.7zm-26-273.4c-.4-7.3 5.9-10.5 11.1-10.2 4.7.3 13.4-1.1 12.9 8.7 2.6 19-23.4 19.7-24 1.5zm5.4 1203.7c-11.1-.4-14.5-6.4-13.7-16.7.6-6.7 1.2-12.4 10.5-11.4 17.1-3.3 22.4 28.5 3.2 28.1zm11.8-144c-.1 16.6-21.3 17.3-25.5 4.9-.7-11 1-18.3 9.2-18.6s17.3 1.7 16.3 13.7zm-3.5-124.3c.7 16.4-28.9 15.9-25.6.1-1.3-23.4 25-21.7 25.6-.1zm-25.6 365.5c-1.9-8.7 4.1-11.3 12.5-11.4 11-1.6 12.2 7.9 13 15.2-1.6 21.3-23.7 14.4-25.5-3.8zm24.5-773.9c-.3 5.3.2 12.3-7.7 12.5s-15.9-2.5-16.7-11.4c-3.2-19.7 27.7-22.9 24.4-1.1zm-24.1-68.5c2.5-6.6-2.8-18.4 10.1-18.8 6.1-.2 13.7.7 13.1 9.3 1.6 12.6-21 25.3-23.2 9.5zm20.8 1073.8c1.6 11.9-24.6 10.8-26.7 1.2-1.9-8-2.1-16.3 12.1-16 9.5-1.8 13.4 6.9 14.6 14.8zM37.7 184.8c8.9-.2 14 2.6 13.4 12.2-.3 5.7-1.7 13.5-7.4 13.4-9.3-.1-15.9-6.1-14.7-17.1-1.3-7.1 2.5-8.4 8.7-8.5zm-18.2 979.5c-.3-6.9 2-16.2 10.4-16.7 15.1-2.6 23.6 31.2 3.5 27.2-8.7 2.1-13.6-3.3-13.9-10.5zm12.1-141.4c10.2-.9 10.5 7.3 11.2 13.4 1 8.2-6.6 10.3-12.1 10.2-12.3-.3-13.5-23.2.9-23.6zM13.9 649.6c-.1-6.3 2.6-15.7 10.9-16.1 5.5-.2 15.8-.7 15.2 9.8-.4 8.2.9 19.3-13.4 17.7-9 1.6-12.6-6.1-12.7-11.4zm25.3-391c-.3 8.8-5.7 12.4-13.7 12.4-9.6.1-6.4-8.3-7-12.8-3.2-17.5 20.9-16.3 20.7.4zM17.9 358.9c7.3-.1 11.5 2.7 11 9.8-.4 6.3 1 14.3-9.1 14.3-12.5 1.1-15.7-25.3-1.9-24.1zm11 1079c-1.3 14.3-27.3 11-23.9-4.9-2.3-16.6 26.8-17.4 23.9 4.9zM7.4 96c0-3.2 3.1-9 7.1-8.5 7.9 1 16.4 3 14.2 17-6.9 12.4-22.6 5.2-21.3-8.5z"/></g><g><path d="M52 1548v15l-37 37h946l-37-37v-15H52M52 52V37.7L14.3 0H0v1600h15l37-37V52m872 0V37.7L961.7 0H14.3L52 37.7V52h872m52-52h-14.3L924 37.7V1563l37 37h15V0z"/><path d="M961 1600h15V0h-14.3L924 37.7V1563l37 37H0V0H961.7M52 52V37.7L14.3 0m.7 1600l37-37V52h872m0 1496H52" fill="none" stroke="#333" stroke-width="2" stroke-linecap="square" stroke-miterlimit="3"/></g></svg>