<svg xmlns="http://www.w3.org/2000/svg" xmlns:xlink="http://www.w3.org/1999/xlink" viewBox="0 0 976 1600"><path d="M960 22v1556c0 3.3-2.7 6-6 6H22c-3.3 0-6-2.7-6-6V22c0-3.3 2.7-6 6-6h932c3.3 0 6 2.7 6 6z" fill="#fff"/><defs><path id="a" d="M960 22v1556c0 3.3-2.7 6-6 6H22c-3.3 0-6-2.7-6-6V22c0-3.3 2.7-6 6-6h932c3.3 0 6 2.7 6 6z"/></defs><clipPath id="b"><use xlink:href="#a" overflow="visible"/></clipPath><g clip-path="url(#b)"><path d="M521 1570.3c-64.9-2.9 22.5-60.6 49-42.1 38.3 13-30.8 45.9-49 42.1zm274.1-33.4c-21.6-1.6-39-8.4-44.5-24.8-6.2-13 24.9-16.9 34-17.4 9.9-.9 53.3 11.3 43.8 25.8-4.4 1-4.3 5.2-4.7 8.8-7.3 5.8-19.5 6.9-28.6 7.6zm114.5-59.2c-24.7-13.5-20.7-90.8 9.1-95.7 23.7 22.4 33.2 95-9.1 95.7zm-314-9.1c-26.2-7.4-51.8-54-23.8-70.7 24.3 4.2 52.7 58.9 23.8 70.7zm235-22c-31.4-7.8-37.6-66.8-6.8-79.3 24.4 16.1 36.1 66.9 6.8 79.3zm-126.3-8.4c-24.7-.9-64.6-7.1-71-35.1 2.4-7-16.2-9.4-4.7-15 28.7-3.2 66.4 2.4 83 28.7 1.8 15.1 35.4 19.2-7.3 21.4zm187.8-79.5c-10.2-.8-43-.9-29.5-15 4.3-20.9 28.4-34.8 48.3-34 13.5.4 25.8 2.3 34.6 10.3 2.5 4.7-1.8 10.1 4 14.1-9.4 17.6-37.7 23.2-57.4 24.6zm-34.4-307.1c-38.5 2.9-82.5-34.1-19-36.2 13.7 1.4 43.2 2.8 47.2 18.4-3.6 4.6 3.3 7.7 2 12-7.5 6.5-21.4 4.6-30.2 5.8zm-91.2-81.2c-17.7 1.2-48.7-14.2-42.8-33.8 49.7-35.9 137.7 24.6 42.8 33.8zm127.8-33.6c-16.7-13.9-5-69.7 31-79.6 18.8 19.6 8.2 74.4-31 79.6zM836.7 847c-5.2-4.6-11 .5-15.1-3.6-6.4-28.1 5.4-51.9 25.4-66.2 1.6-1.1 3.4-1.7 5.3-2 5.5.4 8.5-13.3 13.4-4.1 5.2 21.9-8.1 64.6-29 75.9zm-113.5-27.4c-33.8-7.1-77.9-22.1-73.8-59.1 10.5-18.7 51.2 5.9 61.7 13.9 12.7 11.7 37.6 38.9 12.1 45.2zm50.6-84.2c-6-.5-60.7-3.8-52.3-18.9 3.7-1.4 4-5.4 3.4-8.8 3.1-8.1 16.8-8.6 24.3-12.4 17-3.8 38.5-.1 53.8 6.6 1.6 11 10.8 8.4 18.8 11.5 9.7 15.2-36.7 22-48 22zm147.8-34.1c-19.6-34.5 9.4-83.6 46.5-96.6 20.1 34.2-20.2 88-46.5 96.6zm-299.4-38c-50.3-3.3 5.7-55.3 31-48.9 9.2.7 24.1 1.3 34.2 4.4 3.5 3-.4 9.2 3.9 12 2 1.5 1.8 4 .8 6-12.9 19.5-45.3 24.7-69.9 26.5zm-107.3-52c-5.5-1-19.6 1.6-18.3-6.9.9-6.3-5.9-10.6-.2-17.2 19.9-30.4 64.7-28.7 93.7-18.8 12.9 18.2-55.9 44.9-75.2 42.9zM378.1 607c-46.2-22 51.6-83.3 79.5-63.2 2.9 33.8-47.8 56-79.5 63.2zm316.7-96.6c-22.3-14.1-35.3-55.2-19-83.6 32.8 10.5 46.5 64 19 83.6zm-216.3-2c-26 1.4-82.4-30.6-68.3-59 33.3-5.3 68.7 20.5 72.1 50 8.2 2.7 3.5 10.7-3.8 9zm127.7-18.2c-80.9-47.6-21-146.1 8.7-44.5-.9 10.1 8.4 28.6.7 35.5-6.3-.1-3.9 8.8-9.4 9z" fill="#333"/><path d="M556.5 1416.2c-19-4.9-38.1-6.2-41.4-17.9 3.5-25.8 13.3-51.6 18.9-77 8.1-5.4 7.2-11.8 17.6-16.6 5.4-2.3 14.6-7.4 7-13.5-6.5-5.6-18.4-8.3-22.1-16.8-12-5.8-27.4-11.9-39.6-20.3-2.9-2.3-3.2-8.2-8.1-7.7-11.7.2-24.1-10.2-34.1-15.7-1.7-5.3-6.1-7.3-11.1-5.1-9.7-3.5-18.9-9-27.9-12.7-4.1-5.8-6.4-6.8-13.4-5.8-20.9-9.8-40.6-15.4-61.6-23.3-28-3.4-57.5-1.9-80.2 17.1-5.2 12.7 12.3 38.6 22.1 51.6 7.5 2.9 3.9 18.9 11.4 22.1 1.8-1.2 4 5.4 5 9 8 12 5 35.7-13.3 35.6-9.8 6-15.8 17.9-31.5 16.2-15.1-3.2-2.6-35.6-16.4-45-5.4-17.5-11.6-13.2-22.4-23.8C194 1252 163 1390.7 132 1393.1c-2.8.7-7.4.1-9.7-2.1-6.1-5.2-15.9 1-23-4.3-32.9-10.1 1.4-34.3 7.9-52.1 9-20.9-9.1-46.1 3.5-64.4 28.9-24.5 68.3-46.6 75-89.4-13.1-9.8-14.4-31.9-25.1-42.5-30.3-45.6 31.5-50.3 56.1-67.2-34.5-54.2-65.3-124.2-83.3-185.8-15.1-28.1-18.5-63.5-3.3-92.2 7.7-16.6 25.6-16.1 29.4-1.2.6 2.7 3 4.7 5.9 4.7 12.8 6.7 25.6 23.7 39.5 30.1 49.1 39.4 112.9 38.9 172.8 54.1C585.4 926.6 776 1051 898 1226.8c-22.3 55-78.1 98.1-131 125.2-18 7.4-54.3 29.6-68.1 23.2-1.5-3.8-5.6-4.1-9-3.1-10.4-6.6-21.9-13-28.7-20.6-6.1-6.4-22.3-7.8-30.2-12-47.9-15.2-53.3 51.2-74.5 76.7zM188.4 885.5c-29 10.3 30.3 145.4 44.8 95 11.9-18-3-26.2-12.4-39.2-14.9-16.6-18.2-42.9-32.4-55.8z" fill="#ff970d"/><path d="M395 1537.2c-86.5-14 84-86.8 50.9-30.6-13.4 19.2-30 29.2-50.9 30.6zm-119.2-12.7c-64.1-19.1 33-62.8 58.6-54-4.1 22.7-30.1 50.7-58.6 54zm-132.5-17.1c-72-21.8 120.2-97.2 40.5-15.3-13 12.2-25.8 15.3-40.5 15.3zm-83-46.3c-22.9-2.6-19.2-32.9-.7-37.3 11.2-8.4 76.6-16.4 57.9 9.3-12.9 11.7-31.4 25.6-57.2 28zm404.3-54.1c-21.4-5-40.4-60.2-7.4-65.7 22.8.7 24.2 61.4 7.4 65.7zm-80.8-5.9c-33.1-7.1-32.4-101.3 2.7-52.5 3 15.5 11.2 42.5-2.7 52.5zM301 1393c-73.4-37.6-4.2-96.5 2.7-36.9-.9 9.8 9.6 34.2-2.7 36.9zm-90.8-9c-20.1-14.2-35.2-42.9-27.8-64.1 8.1-13.8 30.2-4.1 31.5 8.3 7.2 15.8 7.8 44-3.7 55.8zm726.3-829.5c-73.2-1.4 15.8-55.9 42.2-35 18.1 24.7-24.1 35.1-42.2 35zm-150-.2c-41.8 4.6-76-60.1-29.6-49.8 10.6 6.7 49.2 44.9 29.6 49.8zm-11.3-93.9c-65.4-.8-75-82.2-13.8-33 5.6 6.1 31 29 13.8 33zm160.3-9.2c-64.2.7-14-36.2 20.3-37.8 43.9 7 4 39.5-20.3 37.8zm-157.2-75.7c-18.8-3-35-12.5-51.6-26.6-13.7-8.8-7.8-47.7 12.7-31 7.3 5.8 53.2 44.2 38.9 57.6zM0 369.5C-11.6 370.3-.1 4-4 0c3.1-7.6 981-7.6 984 0-2.7 3.5 8.5 143.3-7.9 132.8-46.1 13.5-90.7-22.9-113.3-57.3-32.6 38.5-84 65.6-133.5 46.5-18.3.7-22.8-20.7-33.8 7.7 18.2 22.7 3.9 65.6-28.2 63.4-36.8-15.5-84.3 17.8-102.2-21.8-.3-26.4-44.4-9-50.3-57.9-8.9-20-21.2 29.3-44 23.4-13.4 8.5-2.2 38.5-32 46.2-63 25.5-98.9-44.7-153.2-44.4-4.3 14.6 4 35-10.4 47.4-9 10.7-23.7 15.8-38.8 15.1-6.9 2-18.3-7.9-22.2 1.4-6.1 27-28.5 33-48.9 42 11.6 33.4-16.4 59-52.7 67.6-10.4 6.6-32-8-34.9 6.1-6.3 38.5-40.6 53.5-73.7 51.3zm319.1-6.4c-17.9 1-53.1-5.8-45.4-32.8 4.3-25.2 152.1 18.9 45.4 32.8zm203-7.6c-17-15.9 6.7-52.8 27.8-57.7 44.9-2.2-2.1 56.9-27.8 57.7zm408.3-.2c-51.6-.5 9.8-40.4 33.6-32.1 38.5 12.5-18.7 34.9-33.6 32.1zm-485-68c-15.4-22.6 14.6-63.2 40.9-66.1 29.4 17.9-19.5 59-40.9 66.1zM354 271.7c-46.2-.6-64.6-98.5-19.8-61.6 8.7 9.1 35.1 49.2 19.8 61.6zm417.4-5.2c-75.9-7.3-60.3-98.4-10.2-36.3 4.6 9 26 30.1 10.2 36.3zm140.6-2.7c-21.9-12.2 21.3-40.1 40.5-38.2 9-.7 17.8 6.8 18.5 15.7-5.1 24.5-40.3 19.5-59 22.5zm-75.5-31.1c-23.7-14.9-25-99.8 18.4-81.9 7.1 24.5 2.6 63.7-18.4 81.9z" fill="#d81e1e"/><path d="M976 1136c-24.1-49.9-48.8-99.7-77.7-147-3.3-5.2-9.5-12.2-8-16 13.2-50.7 63.2-42.3 46.5-108.4-15.1-39-54.5 15.7-55.2 37.2-8.8 45.7 19.8 29.5 1.3 60.9-3.2-2.8-7.3-5.1-9.3-8.6-11.6-20.7-28.9-36.8-43.2-55.4-4.4-5.7-15.6-9.2-11.1-19.2 7.8-26.9 17.4-15.9 31.9-36.8 14.2-18 31.1-57.1 13.4-76.9-3.5-3.1-8.1-.6-11.4 1.3-27 16-48 43-37.4 74.8 3.4 11.4 1.4 18.7-2.5 28-2.9 6.8-5 3.8-8 .8-20.3-19.7-41.7-38.2-65-54.4-1.6-1.1-4.7-2.3-2.9-4.7 4.1-5.7.6-10.7-1.5-15-15.8-32.3-43.2-46.2-73.2-47.8-45.6.5-12.7 42.7 4.8 55.6 14 10.1 29.4 17.2 46.6 19.6 7.5 1.1 17-1.6 22.4 2.1 45.8 32.6 85.9 74.3 118.2 120.2-4.5 1.8-8.9-1.9-12.7-1.2-33.4 4.8-40.2-29-79.7-25.8-8.3-.3-16.8 3.2-25 5.7-17.8 3.3-28.4 17.7-14.2 33.1 17.8 18.6 55.2 23.6 78.1 12.1 8.4-4.2 15.7-14 22.9-14.2 19-.8 39.3-4.6 52.5 18.6 11.8 20.7 26 40.4 37.9 61.3.7 1.3.8 3.6-1.5 2.9-22.4-2.2-17.6-17.1-39.3-23.5-15.1-7.9-97.7-12.6-70.9 20.6 17.2 19.5 46.3 25.7 71.3 21.3 8.3-2.2 15.7-3.7 22.6-11.1 30.3-7.8 39.8 34.4 52.1 54.3 4.5 6.7 19.2 44.9 26.3 41.8 2.2-1.4 2.3-3.8.9-6.2zm-50.6-275c7.6 25.2 8.3 48-19.9 70 6.6-23.2 13.1-46 19.9-70zm-10.1 1.5l-20.9 70.2c-7.3-25-4-35.9 20.9-70.2zm-53.5-90.4c5.2 20.2-8.3 57.9-25.1 70.8 8-24 19.5-45.8 25.1-70.8zm-12.4 8.3c.9-.5 2-.9 3-1.3 0 1.3.5 2.7 0 3.7-9.5 19.1-16.2 40.7-27.3 58.5-4.7-25.7 5.6-47.4 24.3-60.9zm-174.5 17.4c-9.2-6.6-20.7-17.5-23.5-28.3 24.1 13.7 48.4 27.3 71.8 46.1-18.2-3.5-34-8.5-48.3-17.8zm-.8-26.5c-6.2-4.2-13.3-7-19.9-10.5-.5-.3-.7-1.2-1-1.9 33.6-2.8 68.3 19.2 78.1 52.9-17.4-18-38.3-27.8-57.2-40.5zm129.8 172c-27-2-52.6-3-78.4-3.2 26-13.5 51.8-16.3 78.4 3.2zm-8.1 16.7c-24.4 9.6-45.2 9.8-66.1-8.6 25.5-.9 51.4 1 75.2 4.1-3 1.4-5.9 3.2-9.1 4.5zm86.7 71.6c-24.6-2.4-45.7-9.6-67.8-9.2 22.6-5.6 44.6-4.4 67.8 9.2zm-53.7 11.1c-55-26.8 23.6-4.5 38.7-2.6 5.5 1.3 12.2-1.7 16.7 4.2-18.7 4.3-37.3 4.8-55.4-1.6zm35.5-474.4c13.8-2.8 26.5-15.1 40.7-15.7 22.7 11.2 48.8 8.1 71.1-3.5 35.7-20.8-3-64.6-59.5-23.2-7.8 5.4-8.9 15.8-17.8 19.1-12.7 4.8-25.5 9.6-38.4 13.8-2.6.8-5.9 8.7-8.5 1.1-5.9-23.2 0-47.8-5.1-71.4-.5-2.6-2.2-7.3 3.2-9.8 10.9-5.3 20.8-12.9 32.1-17.1 8.4-3.1 13.6-12.6 27.2-7.5 21.3 9.4 70 .6 73.6-27.7-5.1-24.6-39.9-18.5-56.7-10.2-12.9 5.7-20.5 17.9-31.3 25.9-13.6 10.1-30 16.3-44.6 25.1-6.5 4-5.1.5-5.2-3.4-.2-20.6-.4-41.3-1-61.9-.1-4.7-2.6-9.8 3.6-12.2 14.8-5.8 27.3-15.5 41.1-23 27-21.8 37.8 11 87.2-20.1 6.9-4 9.3-12.8 5.4-19.7-.8-1.4-1.9-2.7-3.1-3.8-12.8-10.5-34.3-7.4-51.8 1.1-11.3 5.7-16.7 18.4-26.3 25.2-17.8 12.6-37.8 22-56.4 32.4 1.1-16.5-8-65.7 2.3-76 25.5-13.4 46.1-40.2 77.3-38.3 16.3 1.8 61.6-7.7 52.7-30.5-8.9-27.8-51.2-15.4-66 2.1-7.8 9.4-9 23.1-22.6 29-16.4 6.6-29.2 20.7-44.8 28.7.8-16.9-1-33.9-1.2-50.9-.3-11.7 9.7-18.5 13.6-28.3 6.4-18.1 21.7-80.8-11.1-76.6-39.1 10.8-32.5 61.2-17 88.4 2.6 5.9 8.6 10.5 8.6 17.4-4.8 15.4-.7 31.4-5.2 46.8-15.6-13.8-38.5-20.6-48.5-39.7-11-20.3-30.7-60.3-58.8-49.7-13.2 6.3-12.7 17-8.5 29.9 5 15.4 26.9 29.3 40.2 33.3 10.5 3.2 22.8-1.2 31.4 6.3 9.7 8.4 20.8 14.7 30.2 23.2 5 4.4 14.2 5.2 14.5 13.9.3 28.7-.5 57.4 1.8 85.9-21.4-12.5-44.5-24-57.4-47.9-5.3-11.8-42.1-50.4-54.5-35.7-26.3 36.7 31.1 60.9 61 65.1 17.2 2.5 29.6 19.1 45.2 27.8 13.5 3.5 5.4 50.2 8.3 63.3.9 12.8 2 20.4-12.7 7.8-10.7-9.1-25.7-14.2-34.2-24.7-12.6-15.6-23-32.4-41.3-42.6-9.7-5.4-18.8-6.2-27.3.1-20.4 18.6 10.1 42.8 27.8 49.5 19.3 9 44.4 0 59.8 19.9 9.3 12 33.2 9 30.5 34.5-2.1 20.1 3.2 40.9 5 61.5.2 2-.2 2-2.1.7-9.3-5.9-19.1-11-28.3-16.9-4.6-3-10.7-3.9-13.3-9.8-9.3-20.3-42.4-71.9-66.3-44.2-13.7 22.8 11.4 44.5 29.7 50.3 16.8 5.3 35.9 1.5 50.9 15.4 12.7 11.6 34.5 14.3 33.7 38.1-.9 25.4 5.1 50.1 10.6 74.7-32.9-32.7-74-54.5-112.4-79.9-6.1-4.1-15.4-4.6-18-12.9-5.1-16.6-10.5-33.3-13.7-50.4-2.4-12.7-13.3-24.5-2.9-39.5 6.9-10 5.4-23.2 2.8-35.8 0-11.8-34.8-64.3-43.2-41-12.3 29.6-7.7 71.2 20.5 90.5 2.1 1.2 5.2-1.3 6.4 2.9 6.9 21.8 10.8 45.6 19.8 66.2-.2 2.3-2.8.8-4.6-.5-28.5-21.7-74.5-34.6-84.5-71.5-2-7.9-10.3-17.4-8-22.6 5.1-11.3 4.9-21.3 3.2-32.6-1.9-27.6-15-59.7-46.9-61-4.4-.4-11-1.1-13.6 6.5-12 33.3 2 71.2 32.3 89.5 5.8 3.6 14.1.6 17.5 6.5 4.9 8.6 7.5 18.5 13.8 26.6.4.5.2 1.4.2 2.1-49.5-31.6-95.7-68.1-137.8-109.1-3-3.2-.1-4.6.8-6.2 4.4-7.5 9.2-14.8 13.9-22.2 5.5-8.6 9-21.8 16.7-25 18.9-8.1 35.2-18.3 47.1-34.8 15.9-20.2 3.3-48.3-23-35.7-19.1 7.6-28.2 23.9-31.5 44.1-1.3 7.7 3.4 15.5-2.1 23.3-8.5 11.8-15.4 24.6-23.9 36.4-2.6 3.6-4.2 14.9-10.5 8.8-18.8-18.4-35.4-39-53.4-58.2-4.9-5.2-4.6-7.5 0-12.5 5-5.5 8.1-12.6 12.3-18.9 5.4-7.7 5.9-20.5 15.2-25 22.6-10.3 40.3-24.6 49.7-48 3.2-7.9 4.2-16.5-1.2-23.6-4.9-6.6-13.5-7.1-19.8-4.3-25 11.1-40.5 30-42 58.4 3.5 23.1-11.4 39.7-22 58.5-1.6 2.8-2.4 3.2-4.7.3-10.1-12.9-20.7-25.4-30.7-38.4-5.3-6.9-13.1-14.2-13.8-21.9-.5-24.3-21.7-84.6-52.4-77-10.2 3.7-9.7 15.1-10.6 25-1.3 14.4 11.1 36.5 22.7 45.2 11.1 8.4 27.2 6.1 35.7 19.8 10.6 17 23.1 32.8 35.3 49.8-13.3-2.4-25.9 6.5-39.1-.3-19.4-9.9-39.8-17.4-61.5-19.8-28.7-7.4-42.2 25.9-20 42.9 22 16.1 46.9 13.8 70.4 4.3 14.1-5.7 24.8-19.8 42.6-15.5 5.6-2.1 14.3-2.1 18.3 1.8 49.1 54.3 98.8 109.6 159.3 151.3-19.3 2.7-37.1 19.6-57.2 5.2-4.6-3.5-13.4-2.6-15.5-8.1-3.8-10.1-11.1-17.5-17.2-25.5-10.2-17.3-69.9-45.8-73-12.9 7.4 32.4 47.1 62.2 81.6 54.9 3.7-.8 4.7-6.2 9.6-3.8 6.5 3.2 13.4 5.5 20.3 8.2-9.5 3.8-18.9 7.5-28.2 11.4-8.5 3.6-18.4 12.3-25.1 10.3-37.5-12.3-81.1 7.1-98.3 41.9-13.5 27.6 14.2 32 34 25.1 23.6-5.8 41.9-19.9 58.4-37.1 6.3-6.6 6.6-17.1 12.5-21.7 26.3-15.9 58.1-23.4 85.8-36.8 12.5-5.6 22.9-6.5 33.8 3.9 15.7 16.7 37.6 24.9 55 39.4-4.3 4.6-10.5 1.5-15.7 3.8-11.8 2.3-25.6 9.5-34.8 5.7-17.4-7.2-34-9.8-52-7.4-18.9 2.4-36 8.2-47 25.2-8.3 12.8-5.8 28.8 5.6 32.8 34.5 9.1 72.6-8.5 96.8-33.2 1-1.1 1.8-3.6 1.2-4.7-2.7-5.1 1.4-4.7 4.1-5.3 9.9-2.3 19.8-5 29.7-7 8.5-1.8 15.8-7.7 25.3-1.6 25.9 17.1 52.4 33.2 78.7 49.7-1.8.6-3.6 1.8-5.5 1.9-10.2.3-20 7.7-30.3 3.3-18.1-7.8-37.5-9.3-56.2-7.7-15.5 1.3-32.2 7-40.1 23.3-3.7 7.6-11.6 15.6-5.5 25 20.3 18.5 63.5 7.3 86.3-5.3 22.9-10.4 10.7-21.3 19.2-23.7 8-1.7 15.8-4.1 23.8-5.8 6.7-1.5 15.1-5.5 19.8-3 44.7 25.1 86.5 55.2 124.5 89.6-21.5-1.5-41.9.2-61.2-11.4-28.6-14-65.5-17.4-90.5 5.7-4.3 4-9.1 8.3-6.4 15.1 10.5 25.8 82.3 25.4 102.8 12.5 12.5-7.3 23.9-20.1 39.8-14.7 16.4-1.5 28.1 4.3 38.5 18.3 16.3 22 33.3 43.3 46.5 67.5 9.3 16.9 17.8 34 24.5 52 2.1 5.5 4.8 13.3 9.7 11.8 6.9-1.7-.3-7.6-1.3-11-7.5-27.1-19.1-52.8-34.5-76.3-11.2-17-24.7-32.2-13.6-54.4 2.7-5.5 1.9-14.7 5.9-17.2 14.1-8.9 23.2-21.9 31.9-35 11.6-18.3 22.1-43.9 13.2-65-4.5-10.8-12.4-9.5-21.4-3.1-31.5 18.6-52.8 55-44.1 92.1 1.5 5.5 7.6 9 6.9 13.7-1.3 9.9-4.8 19.5-7.4 29.4-8.3-10-16.4-20.1-24.8-29.9-5.8-6.7-15-12-17.4-19.6-5-15.1-8-30.8-9-46.7-.9-17.3-3.6-34.6-5-51.9-.9-9.9-4.4-20.1 10.3-23.8zm52-31c13.2-9 26.3-18.8 44.7-18.2 10.5-.7 20.2 2.4 17.3 15.2-2 8.5-12.4 9.6-19.6 12.3-13.9 5.2-29.1 5.3-43.1.5-10-3.7-.2-9.2.7-9.8zm-6.8-99.2c11.8-11.9 26.8-18 42.7-20.4 17.9-3.2 28.5 15.4 7.7 22.2-9.1 3.7-18.1 8.5-27.8 7.1-4.6.4-33.4-2.6-22.6-8.9zm54.1-111c3.8.3 9.1 1.5 9 6-.1 8-8.5 9-13.6 11.4-14.4 6.8-30.5 8.7-46.1 4.2 12.8-18 30.4-23.3 50.7-21.6zM910.2 255c8.6-17.8 24.7-24.1 42.5-25.4 13.6-.7 21 18.4 5.5 22-14.3 7.6-30.2 6.9-45.7 8.2-3.2.3-3.8-1.8-2.3-4.8zm-78.4-30.9c-2.2-17.5-12.5-33.9-6.9-52.4 3.4-11.2 10.7-19.2 22-20 7-.5 7.5 7.6 6.9 12.7-.6 23.3-2.2 46.4-17.4 64.4-1.6-1.6-4.3-2.9-4.6-4.7zm-59.4 38c-18.8-1.2-38.9-11.5-48.5-29.1-5.5-9.8-1.8-19.6 11.5-20.1 11 1.9 17.9 13.4 25.5 23.7 3 5.6 14.7 20 11.5 25.5zm5.9 109.4c-18.4-3.7-57.5-20.7-55.3-43.4 1.4-6.7 3.3-14.5 14.2-6.9 17 13.1 33.9 30.5 41.1 50.3zm-3.6 84.9c-16.6-3.4-33.5-6.5-45.5-20.1-6.9-6.4-8.5-21.2 5-21.3 18.3 6.3 35.8 22.7 43.2 41.1-.8.2-1.8.3-2.7.3zm8 93.5c-50.9-4.5-52.7-53.9-27.9-41.9 15.5 9.6 24.7 24.7 33.7 39.8 1.4 2.1.1 3.1-5.8 2.1zM675.9 430.7c5.6 26.3 11 51.2 19 75.6-13.8-9.7-27.6-38.7-19-75.6zm26 67.5c-5.3-21.6-10.3-41.7-15.6-63.2 16.8 18.8 23.8 38.4 15.6 63.2zm-131.3-62c0-7.5-4-16.8.9-23 1 .9 2.5 1.6 3.1 2.8 10.7 23.9 23 45.2 31.6 70.2-17.7-13.8-32.6-27.3-35.6-50zm42.5 41.4c-9.6-24.9-22.3-48.4-34.3-72.2 32.8 5.9 32.5 45.4 36 71.9l-1.7.3zm-92-133.7c0-19.6 11.7-36.1 30.2-42.3 3.4-1.1 7.9-2.2 10.8 1.1 10.9 19-21.3 42.1-36.8 47.9-8.8 3.6-1.5-5.4-4.2-6.7zm-35.3-118.6c1.2-.3 3.9.9 4 1.7.6 4.1 2.1 8.9.6 12.5-8 21.9-25.2 33.6-45.1 43.8-1.4-26.3 14.4-52.2 40.5-58zm-134.4 41.8c-26.3-9.5-38.3-24-38.3-47.4-.5-4.7-.4-12.3 3.7-13.9 5.9-2.4 11 3.5 15.3 8.1 13.6 14.3 19.8 31.9 22.9 50.9.5 3.1-.2 3.5-3.6 2.3zm1.1 81.5c-21.8 12.5-51.7 16.3-71.4-.3-5.4-5-5.1-11.3-3.5-16.9 2-7.3 9.5-4.9 14.5-4.9 21.6-.3 40.3 10.5 60.2 16.9 3.1.9 2.7 3.9.2 5.2zm88.4 108.6c14.9 6.4 28.7 16.2 35.6 31.5-23.7-8.5-41.3-27.3-65.8-35.4 10.3-1.7 20.8-.4 30.2 3.9zm-29.6 1.4c23.3 17.5 45.9 32.9 71.5 45.5-22.7 2.5-63.4-15.7-71.5-45.5zM370.1 599c.9-36.3 47.8-56.3 83.5-54.4-32.5 15-61.1 29.9-83.5 54.4zm84.3-42.5c-20.2 24.5-44.3 40.1-76.3 46.5 23.8-22.7 48.5-36.3 76.5-49.3 0 .9.3 2.2-.2 2.8zm43.3 38.2c13.1-31.7 50.2-29.8 81.2-26.9-32.7 5.2-53.9 15.6-81.2 26.9zm54.7 4c-16.4 6.8-34.2 10.9-52 7 28.5-17.4 56.5-23 89.8-33.4-12.3 13.2-24.3 20.9-37.8 26.4zm125.9 22.8c2.3.5 6.9-2.2 6.8 2.2 0 3-4.1.7-6.3 1.5-25 8.3-50.4 17.2-74.8 26.9 15.6-30.7 35.3-39.1 74.3-30.6zm8.4 16.9c-21.2 16.6-48.3 22.6-75.1 19.9 24.5-8.5 48.1-16.7 71.7-24.8 1.6-.5 3.7.3 5.5.5-.7 1.5-1 3.4-2.1 4.4zm63.6 60.8c16.4-4.6 32.1 2.1 48.1 4.1.8.1 1.4 1.2 2 1.8-23.1 4-48-.5-71.5 3.9 0-.5-.1-1.1-.1-1.7 7.2-2.7 14.1-6 21.5-8.1zm68.1 19.8c-31.1 18.5-62.5 14-95.3 1.2 23.3-5.1 45.5-1.8 67.5-3.9 10-.6 20.8-3.2 30.2 1.1-.8.6-1.6 1.1-2.4 1.6zm149.7-110.3c5.4 35-11.6 59.3-33.1 83 7.9-29.2 21.5-54.9 33.1-83zm-9.5 3c-15 28.7-27.8 55.6-36.9 85.7-7.9-37.2 8.1-62.7 36.9-85.7zm13.9 979.8c-9.9-9-19.9-18-30.4-26.3-8.6-6.9-14-14.1-13.4-26.3.5-11.9-3.4-23.9-3.2-35.8.2-7.6-6.9-16.6 3.4-23.3 25.1-18.2 17.7-89.7-11.4-101.2-17.2-2.2-25.4 29.1-27 42.9-3.2 22.9-3.3 44.1 15.2 61.3 3.3 3 9.2 7.3 8.6 9.8-.8 17.1 2.2 33.2 4 50.2-20.9-14.2-40.8-30.4-61.3-45.5-2.1-1.6-6.5-1.5-5.7-5.6 1.9-9.5-1.6-18.1-3.6-27-1.4-6.3-6-15.9-3.6-18.2 7.7-7.3 9.4-15.7 8.9-24.9-1.2-20 .2-41.2-19.2-54.7-5.7-3.9-11.1-9.5-19-1.2-20.8 20.2-26.6 76.3 8.7 83.4 4.1.7 9.6 3.7 11 7.1.9 2.7 12.6 34 5.9 30.1-28.2-19.7-59.9-33.2-89-51.5-8.7-5.2-20.3-5.5-26.8-13.9-20.1-26.2-46.6-39.2-80.3-38-49.6 3.4-2.6 51.4 21 58.2 18.5 7.4 37.1 2.7 55.7-2.2 9.3-1.5 18.6-.9 28 4.9 40.2 23 80.5 45.6 117.5 73.7-9-1.2-24.9 3.5-30.6-2.6-16.5-24.8-57.6-33.2-81.9-17.7-18.1 8.2-16.8 22.8-.2 32 21.6 14.6 45.2 17.4 69.2 9 8-2.3 11.6-12.6 21-10.3 9.6 2.4 19.2 1.1 28.8 1 4-.1 7.7-2 11.5 1.1 27.9 20.2 55.4 40.9 79.9 65.3 3.8 5.1 16.1 2.4 8.3-3.8zm-62.9-117.8c-16.8-16.7-15.4-53.4 0-83.8v83.8zm-279.3-81.8c30.7-3.6 54.7 4 77.5 23.4-26.3-10-51.3-18-78.8-23.3l1.3-.1zm89.9 41.3c-27.4 2.9-71.7-1.2-83-29.3 20.3-1.6 64.7 17.3 84.1 29.2l-1.1.1zm110.4 9.4c-26-10.4-27.8-44-14.1-67.9 4.7 24.6 10.9 44.3 14.1 67.9zm9.6-6.5c-5.4-21.2-10.9-43-16.4-64.8 17.7 16.3 24.5 44.1 16.4 64.8zm-31.3 95c-19.2 5.5-35.7-1.2-51.6-11.4 18 3.8 36.2 4.6 54.3 7.1 2.8.4 6.2-3.2 8.4 1.1-3.7.9-7.4 2-11.1 3.2zm-56.3-22.3c21.1-14.1 49.5-14.8 74.7 8-25.3-1-49.9-3.2-74.7-8.1v.1zm168.5-45.6c-2.7-26.4-6.4-51.6-5.2-78.4 20.8 22 26.2 64.3 6.8 88.2-3.2-2.9-1.2-6.6-1.5-9.9v.1zm-66.6-106.4c28.2 15.2 71.6 9.8 96-13.3 4.3-4 5.4-12.3 14.3-11.2 1.4.2 7.2-5.3 3.3-6.2-9-2.1-14.6-8.5-21.9-12.5-18.5-9.4-43.2-11.8-62-2.8-11.4 4.7-50.2 34.3-29.8 45.9v.1zm15.3-24c18.3-20 50.5-26.4 73-9.9l-1.6 1c-25.7-.9-48.9 4-72 10.7.2-.7.2-1.5.6-1.9v.1zm-5.2 14.4c26.3-10.2 52-13.2 81.1-11.9-23.4 18.3-56 25.5-82.9 14 .6-.9 1-2 1.8-2.2v.1zM421.1 858.7c-14.4 7.4-27.3 10.2-43.1 14 14.9-.5 25.9 6.3 39 1.5 12.9-4.7 26.8-7 40.5-8.8 8-1.1 15.9-6.1 24.4-2.4-17.4 11.2-37.4 13.5-56.5 18.7 6.5 5.2 17.7 7.2 42.5 5.2 14.7-1.2 28.3-9.7 45.7-7.7-15.9 7.5-30.1 13.3-44.5 16.5 25.1 17.2 52.5-8.6 78.6-5.5-8.3 13.1-29.6 13.4-43.9 18 41.7 20.8 47.6-3.6 83.1.5-10.8 9.2-27.5 11-40.7 15.5 35.5 28.1 58.6-1.8 92.1 2.7.4 4.2-4.1 5.4-6.4 5.9-15 3.1-29 10.1-44.8 10.6 26.5 27.5 58.6.6 90.8 6.7-17.6 8.2-34.9 11.2-52.8 13.3 13 12.4 27.6 10.5 43.1 8 12.7-2 25.8-1.5 38.7-2.1.4 0 .9.7 1.4 1.1-13 10.2-37.8 8.6-56.3 11.7 33.4 15.2 67 1.8 98.6 11.8-14.8 6-29.4 5.3-44 5.4-6.4.7-13.9-2-19.4 2 22.3 28.3 57.9 8.8 86.8 17.7-16.5 8-37.3 5.7-55.1 6.2 21.8 25.9 53.8 15.6 80.2 23.9-7.1 6.8-33.8.8-45.6 2.3 8.6 14.2 22.3 18.3 37.3 17.4 12.5-.7 24.5 5.3 37.1 2.5.3-.1 1 1.7 1.4 2.6-13.9 7.3-29.5 2.4-44.1 2.9-1.5 0-3-1-3.7.8 18.6 24.3 51.1 10.6 74.4 24-7.7 6-18.2 3.1-27.1 2.3-6.7-.9-13.7 1.2-20.3-2.1 11.1 8.7 15.2 25.3 35 23.9 13.8-1 28.1 4.4 42.8 7-15.8 9.8-31.5-.5-46.6 2.9 14.7 28.5 53.4 16.2 74.2 38.4l-52.3-10.2c14.9 26.6 51 18.5 68.3 39.4-14.5-2.1-29.5-5.2-43.1-11.4-.9-.4-2.2-.2-3.3-.2 7.2 14.8 19.8 26.7 24.2 43.3.4 1.2 1.5 2 .1 3.3-8.8 3.5-20.5-23.3-26-29.2-57.4-69.4-118.9-136.8-193.7-187.7-126.4-91.4-278.7-135.9-431-160.3-6.4-2-20.4-6.7-18.3-11 1.5-3 4.4-3.9 6.8-2.8 15.1 6.5 31.5 7.4 47.3 9.3 21.8 2.6 43.1 9.3 64.8 9.8 22.1.8 40.3-9.1 63.4-7.6zM881 1251.4c-3.6-5.8-12-11.9-10.3-19.3 6.2 1.7 10 8.4 15.1 12.2 6.9 7 15.3 13 21.3 20.7-3.8 12.2-22.1-9.4-26.1-13.6zm-13.8 6.8c8.6 6.5 18.2 12 25.9 19.4-6.7 11.4-18.8-5-24.6-9.9-2.8-3.2-5.9-6-5.3-10.8 1.4.5 3 .6 4 1.3zm-7.9 20.3c4.5 5.3 8.7 10.8 14.3 14.6.6.4.7 2.6.6 2.7-2.1.8-4.4 2.3-6.4 2-8.4-2.2-28.6-27.1-29.3-34.5 9.4 2.4 15.3 8.7 20.8 15.2zm-39.3 10.1c4.7-3.5 8.4 3.9 12.8 6.4 4.8 2.8 23.8 19.7 11.8 22.6-8.6-3.2-11.1-11.6-17.3-17.1-3.6-3.1-9.7-10.1-7.3-11.9zm3-74.6c-15.3-20.8-34.8-39.5-47.4-61.9l2.8-.7c21.6 13.8 34.2 36.8 50.1 56.2 1.7 2.2 4.1 4.6.5 7.7-2.8 2.7-4.6.4-6-1.3zm-1.4 396.1c-43.9-35.9-96.4-59.8-145.6-87.3-15.1-9.7-37-8.1-46.3-26.6-6.5-13-22.5-22.3-16.9-40.6.4-15.8-6.7-31.4-15.5-44.8-7.4-10.3-25.1-19.3-32.7-15.2-8.2 8.5-10.7 21.8-8.3 33.8 10.8 52 47.2 34.4 60.5 66.9-18.6-3.6-37.7-12.5-56-18.5-17.8-7-36.8-9.4-54-17.1-6-2.7-14.5-.5-17.8-8.6-3.2-8-6.7-15.8-9.2-24-1.9-6.3-8.7-11.5-6.5-18.1 8.3-21.2 16-69.5-15-74.7-21.5-1.2-28.9 23.5-22.7 43.1 4.1 13 13.5 21.5 22.4 31.4 9.6 10.6 14.1 25.8 20.6 39.2 1.8 3.5.9 4.6-3.4 3.7-23.3-5.6-48.1-7.5-70.7-14.8-5.9-2.8-13.1-38.9-11.1-45.4 5.8-19 3.4-37.5-7.1-54.1-24.5-27.2-50.2 15-23.6 47.1 11.5 16.2 28.4 28.6 29.2 51-14.7-2-29.6-4-43.9-7.8-8.3-2.3-19.3 2.7-24.7-7.9-4.3-8.6-11-17.1-11.8-26-3.7-20.9 6.3-53.8-14.3-67.2-5.5-2.7-2.4-3-.5-5.1 23.1-16.1 8.1-42.8-3.1-60.9-9.2-15.4-20.6-30.2-32.7-43.7-2.8 10.1 11.9 29.4 18.5 37.4 6.6 7.3 8.6 13.3.4 21.9-7.2 7.5-16.1 10-24.9 12.8-21.3 9.3-13.6-21.7-28.6-20.8-4.9 2 .6 9.2 1.4 12.7 4.4 12.8 9.7 25.4 12.6 38.5 4.1 25.8 22.7 14.3 20 22.4-11.8 40.5 46 46.1 51 80.3-22.1.9-45.1-6-67.3-5.4-37.9-2.1-26.4-32.8-20.3-57.9 2.7-17.1-1.8-31.5-12-44.5-4.4-5.6-12.7-6-17.6-9.6-9.3-7-16.4-16.6-19.3-28.2-6.5-15.5-14.1 15.9 15.6 32.9-15.1-3-7.7 17.1-25.4-13.5-1.8-3.2-1.6-9.9-6.1-8.1-4.1 2-.8 11.8 2.1 15.2 8.9 11.8 15.2 26 12.9 40.8-9.9-10.4-16.6-23.8-25.4-35.3-1.1-1.5-3.4-2.2-5.1-3.3-1.9 8.8 13.9 30.7 20.9 36.6 19.4 19 42 37.1 47.8 65.4.3 2.2 5.2 7.5.1 7.7-16.9.6-33.9-.4-50.9-.7-18.6 1.7-36.1 1.8-54-4.2-26-6.8-77.1 5.3-71.3 39.4 10 36 56 11.4 75.7-3.2 9-6.7 11.5-20.7 27.6-19.9 26.9 1.2 54-1.6 83.3 2.5-13.6 5.4-19 19.5-34.1 20-9.1.3-18.1 4.1-27.2 6.2-14.2 3.2-23.8 13.7-34.6 22.2-11.2 8.8-10.2 23.8 1.3 32 28.1 17.1 62.3-8.3 75.1-33.9 5.8-11.5 3.1-26.5 17.4-35.1 10-6 18.9-11.9 30.7-10.8 37.3 3.7 69.2 7.1 107.4 13.3-13.9 6.4-19.8 19.5-34.5 19.8-24.6 4.9-63.7 13.4-74.3 38.4-5.3 14.9 7.6 29.8 24.2 29.1 26.9-1.1 44-18.9 56.1-39.8 9.2-14.7 25-43.7 43.1-45.6 31.9 7.7 65.4 12.2 97.2 18.1-13 9-24.6 20.1-43.1 20-24.2-2.6-87.6 27.9-51 54.8 26.3 14.4 63.7-8.2 74.6-32.7 3.1-9 3.5-19.5 13.2-25.2 19.8-16.2 22.2-14.1 45.2-5.3 36.5 9.7 72.2 20.3 107.1 35-29.8 20.3-39.8 7.8-70.4 10.5-18.8 3.3-35 10-48.1 23.9-14.4 15.7-6.6 27.1 13 28.5 23.6 5.3 49.9-3.1 67.8-19 9.4-10 12.5-25.7 29.1-29.1 7.9-1.6 17-10.6 22.5-8.4 66.3 25 126.8 62.3 187.5 98.5 4.9 4.9 9.3-.6 3.8-5.1zm-225.1-145.5c-20.5-7.4-38.4-31.8-30.4-57.5 7.8 20.7 22 38.4 30.4 57.5zm7.5-7.9c-11-18.4-21.8-36.7-32.6-54.8 16.7 1.3 35.3 37.2 32.6 54.8zm-135.1-58.8c-5.7 20.1-29.4-24.8-25.3-36.8 1.7-4.6 2.1-14.5 11.8-15.6 19.7-1.8 16.3 40 13.5 52.4zm-84.1-3c.1 3.3-1.9 2.1-3.6.9-12.1-8.4-21.7-34.5-18.3-48.7 2.8-13 18-7.6 19.6 2.4 2.5 9.2 3.5 18.8 5.2 28.2 1.1 6.2-3.1 11.4-2.9 17.2zm-102.5-103.8c.3-4.5 5.5-9.7 9.8-12.5 2.3-1.5 2 4.2 3.2 6.4 3 5.1 3.9 10.5 4.3 18.7-.3 4.3-5.3 7.9-10.1 11.3-2.5 1.8-1.9-2-2.2-2.8-2.1-7-5.4-14.1-5-21.1zm-25.8 39.8c-9.9 3.4-2.1-15-9-28.2-3.8-7.1 15.3-.9 24.2-7.3 6-3.1 4 3.7 4.9 5.8 7.2 15.9-2 29.8-20.1 29.7zm46 56c-3.2 11.7-34.6-29-31.3-35.6.3-7.8 3.4-15.9 12-15.6 8 .2 15.6 3.3 16.4 15.1.5 7.7-.7 16.3 4 23.3-2 4.5-2.6 8.6-1.1 12.8zm-187.6 43.3c-11.2 10.7-55.2 41.9-65.9 18-3.8-11.8 4.3-16.8 12.4-20.7 17.4-7.4 40.2-12.7 57.1-2-1.1 1.6-2.3 3.2-3.6 4.7zm95.9-51.5c.2 2.2-1.5 1-2.2.2-13.2-13.9-22.9-29.9-24.6-49.3-1-17.5 23.9-15.1 26.1-.7 1.4 7.9 7.8 15 4.5 23.5 2.8 9.5-4.7 17.2-3.8 26.3zm-12 83c-15.9 56.5-100.5 48.9-54.9 15.7 15-12.4 34.2-14.7 52.3-19.3 2.7-.7 3.1 1.8 2.6 3.6zm85 57.5c-8.9 3-17.3 1.2-22.9-6.1-6.3-8.3 1.4-14.4 6.3-18.6 18.1-15.4 41.1-17.5 64-21.6-11.2 21.1-24.7 38.6-47.4 46.3zm162.3-22c-24.7 55-100.2 36.2-58.8 9.3 16.2-11.2 35.5-13.2 54-17.1 4.6-1 7.2 2.8 4.8 7.8zm120.3 32.7l-63.1 24.9c5.7-16.1 44.2-28.4 63.1-24.9zm-65.3 32.4l77.2-27c-8.4 24.2-53.6 38.3-77.2 27zm288.8-260.1c-1.4-3.1-.6-3.4 3.2-3.2 8.1 5.3 15.3 12.1 21.1 19.9 3.5 3.5 9 5.5 8.5 12.1.6 3.6-3.4 4.4-5.6 3.2-3.3-3.5-6.7-6.7-10.2-10.1-6.5-6.5-12.9-13.2-17-21.9zm-7.5-103.9c8.2 8.8 13.4 20.3 20.7 29.9-1.9 3.1-3 6.6-6.7 3-12.7-11.6-21.1-26.5-31.5-40-3.3-5-7.1-10.1-8.7-16 12.9 1.1 18.5 15 26.2 23.1zM775 1327c-1.7-2.1-1.5-5.7-2.5-9.7 10.8 8.2 20.4 17.9 28.3 28.9 1.7 4.4-2.6 6-5.6 4-6.9-7.5-13.8-15.2-20.2-23.2zm-2.5-85.4c-.6-6.9-50-55.7-26.2-47.2 3.3 1.1 7.5 6.6 11.7 12.5 7.3 10.2 16.5 19 21.9 30.6 2.8 6.4-4.7 11-7.4 4.1zm-1.2 114.9c-.8 1.9.8 4-1.8 4.6-5.8 1.1-7.6-5.5-10.5-9-5.5-9-13.5-16.8-15-27.6 3.7.3 5.5 3.1 7.6 5.5 7.3 8.3 16.4 15.5 19.7 26.5zm-9-233.6c5.1 4.4-2 10.5-5.8 5.1-14-16-30.6-29.3-46.4-43.4-4.1-3.7-10.5-5-11.6-13.4 28.1 10 45.9 30.9 63.8 51.7zm-7.8 128.1c2.5 8.3-4.6 10.6-7.2 5.3-2.3-9.8-30-38.4-24.4-42.3 7.9-6.3 29.9 32.6 31.6 37zM737 1361.8c-7.9-10.1-16.6-24.3-16.8-28.6 2-8.3 29.5 29.9 32.3 33.6 1.2 2.4-1.2 7-4.6 5.9-2.1-.6-6.4-5.1-10.9-10.9zm-48.1-269.5c7.2 5.3 58.9 43.2 46.9 50.9-2.1 2-3.9-.1-5.3-1.5-15-16-32.6-30.1-45.4-47.9l3.8-1.5zm22.4 147c3.5-3.7 5.9 1.5 7.8 3.2 2.7 2.4 18.6 20.1 7.3 18.2-4.5 0-17.6-18.8-15.1-21.4zm-4.2-81.3c-10.4-14.2-25.5-23.5-36.7-36.8 4.6-10.7 42.8 27.2 44.7 34.3-2 4.4-4.5 8.6-8 2.5zm4.8 200.4c1.3-1.2-4.3-7.8-8.1-11.1-31.1-27.1-61.1-55.3-94.6-79.6-72.9-49.8-158.4-75.6-238.8-110.4-13.2-5-26.6-9.7-39.9-14.4-7.9-2.8-16.7-3.4-23.5-9.1-32.1-27.1-57.2-62.7-69-103.1-16.1-41.5 13.1-59.7.6-74.8-22.8-24.9-41.2-55.1-44.7-89.6-.1-1.8-1-4.5-3.2-2.2-26 29.7-9.4 74.8 5.8 106.2 17.5 25.2 27.9 18.9 28.8 55.8 9.1 29.5 21 57.5 42.2 80.7 1 1.2 2.6 2.3.8 3.5-29-17.7-51.7-49-70-78.5-26.4-46.5-44.1-97.4-60.8-148.1-1.3-3.8-6.9-7.9-3-11.8 17.6-19.6 31.3-44.8 31.7-71.3-.2-4.1-.1-8 2.2-11.4 16-23.8 26.1-49.4 24.6-78.5-.3-5.1-2.2-13.5-7.4-12.9-5.7.7-2.2 7.2-.6 11.3-1.3 26.2-8.2 51.1-23.2 73.3-.5-3-4.5-4-2.8-8.3 3.7-9 6.1-18.4 6.1-28.3-.5-7.8 2.9-27.1-8.3-27.8-.7.1-1.8 2.2-1.6 2.8 7.6 16.4-.7 31.7-3 50.6-3.8-15.4-2.7-25-11.2-36.7-2.8-4.6-8.7-12.6-14.6-8.3.1 4.7 3.4 7.8 5.8 11.5 6.7 10.3 7.9 22.6 10.5 34.3 1.4 6.5-7.4 3.8-10.6 7.7-14 16.6-16.4 36.6-18.6 56.7s13.2 34.8 17.1 53.3c8.4 35.7 23.7 69.5 36.4 103.8 13.1 24.2 23 49.7 40.6 70.7 4 5 .9 6.8-2 8-19.1 5.2-41.2 1.8-53.4 22-5.3 8.6-9.4 17.2-7.9 27.3 4 24.4 30.9 46 29.6 70.5-23.7 62.8-91 48.7-74.2 111 10.6 54.9-35.3 65.7-18.7 80.8 14 12.4 42.9 16.7 60.3 10.7 14.5-5.7 17-20.5 21.8-33.1 2.3-4.5 4.9-10.8-3.7-10.6-8.6 0-17.1-2.3-24.6-6.5-9.7-5.2-22.7-8.4-21.7-22.3 2.6-40.6-17.7-42.4 25.1-67.8 30.5-22.2 51.6-55 59.2-92 1.9-10.5 4.5-21.8 13.9-28.8 10.1-7.5 22.6-8.3 34.4-10.5 8-1.5 16.3-3.8 23 4.3 13.3 18.5 33.6 10.2 37 26.6 3.1 14.7 4.9 34.6 19.8 42.2 3-9.2-8.3-26.7-10.1-37.4-.8-2.9-4.5-6.5-1.4-9.5 2.9-2.3 20.2 7.8 18.9 12.5.2 12.8 6.9 23.4 12.5 34.4 1 2 5.4 2.4 8.3 3.5-1.4-10.3-8-19.7-10.3-30-.4-2.6-5.8-9-.9-9.9 5.9-.4 16 3.2 17.3 7.3 5.5 13.7 12 51 29.6 51.4-7.1-17.9-15.4-33.9-20.4-53.4 7.6 12 24.4 8 27.9 19 4.5 18.2 14.4 33.7 25 48.9 3.4 4.2 8.6 2.4 5.1-2.6-6.2-13.7-12.5-27.4-18.9-41-.9-1.8-1.4-5.3.7-4 8.8 5.7 20.8 5.9 26.3 17.3 7.6 15.2 12.2 34.1 28.4 43 2.9-6.2-3.3-11.2-5.2-16.9-4.3-8.5-8.6-17.1-13-25.8 5 1.4 10.6 1.5 14.1 4.3 5.7 4.4 14.9 3.2 17.7 12.6 5.2 15.3 12.3 41.9 27.2 49.6 1.9-6.5-3.9-12.6-5.5-18.9-4.2-10.2-8.3-20.5-11.8-31 3.4 1.1 7.5 1.5 10.1 3.6 5.5 4.3 15.4 1.9 17.5 10.2 4.9 19.1 12 36.9 25.5 51.4.8.9-.7 4.8 2.5 3 4.8-3-.5-8.4-1.5-12.2-5.7-13.5-11.4-27-17.2-40.8 29.4 13.5 59 28.7 84.7 48.7 7.5 7.2 4 18.4 7.9 27.3 5 10.9 5.1 25.8 16.5 32.6-1.5-16.3-8.2-33.1-11.4-48.7 37.8 16.7 21.3 54.6 46 78.1 4.3-12.2-8.1-36.3-11.1-50.4 5.2 4.2 9.6 7 13.2 10.7 5.3 5.4 13.8 7.3 15.3 17.1 2.3 15.3 9.2 29 18 41.6 2 2.7 6.8 1 5.3-3.1-4.7-12.1-8.9-23.9-13.5-36.3 6.7 1.7 10.5 11.1 17.1 6zM222.1 984.8c-16.6-16.9-26.2-38.9-32.4-61.5-2-7.2.8-15.1-3.3-21.9 1.4-6 3-6.7 4.6-1.2 10.9 21.5 20.4 43.8 40.6 59.3 4.8 3.7-3.1 9.8-3.8 15.4-.2 3.5-3.6 6.6-5.7 9.9zm-92.2-120c-10.3-22.3-6-48.2 4-70 3.1-6.4 7.8-11.1 15.3-9.5 21.7 9.4-8.4 67.3-19.3 79.5zm9.4 497.3c4.3-6.8 10.1-1.7 15.3-.9 1.4.2 1.1.5-2.6 6.4-4.8 9-10.5 18.8-21.3 21.6l-4.8-.7c2.8-9.4 8.5-17.9 13.4-26.4zm-18.6-13c20.5 7.4 4.2 15.8-.1 30.3-6 9.8-15 4.9-21.9 2.5-25.7-9.3 9-29 11.3-44.4 2.6 5.4 5.5 9.5 10.7 11.6zm121.1-236.3c-39.1-2.8-56.7 25.3-59 60.9-6.9-32-48.2-56.9-7.6-81.4 10.2-5.8 23.5-4.8 34-11.2 17.4-10.6 14 12 23.5 14.9 5.4 2.2 10.1 9.6 13.7 14.7-1.5.7-3.1 2.2-4.6 2.1zm441.8 65.8c-5.6-5.6-10.1-12.4-15.6-18.2-2.3-2.4-5.4-5.4-4-7.6 2.2-3.5 4 1.5 6.2 2.2 11.8 4.1 18.5 14.6 24.3 24.6-3.3 9.9-7.3 4.4-10.9-1zm6.4-121c-1.8 1.6-3 5.2-6.7 2-16.1-13.5-32.3-26.9-48.6-40.3-2-2.4-15.6-9.4-10.3-12.1 15 1.6 24.7 11.2 34.9 19.4 10.4 8.4 20.2 17.6 30.3 26.3 2 1.7 1.9 3.2.4 4.7zm-15.9 141.5c-4.7 0-25.4-17.7-24.9-20.9s2.7-4.4 5.8-2.1c8.1 3.5 14 11.3 20.9 16.9 1.4 2.1 2 5.9-1.8 6.1zM625.6 1042c17.7 7.2 33.4 18.1 42.8 35.1-.7 2.4-3.8 1.9-5.3 1.1-13.4-10.4-26.7-21-39.9-31.6-5.3-4.4-3.3-8.5 2.4-4.6zm29.4 168.8c.5 13.5-12-.6-13.9-5.7-.5-6.4 14.4 2.3 13.9 5.7zm-51.7-151.2c20.1 5.5 31.5 22.6 47.1 33.9 2.3 3.2.4 11.5-4.8 5.5-8.6-8.9-43.6-29.4-42.3-39.4zm21.5 58.7c-9.5-9.3-22.3-16.5-29.5-27.5.6-1.4-1.2-3.3 1.8-2.5 14.4 3.9 24.7 13.2 33.3 24.7 2.7 3.2-2.8 8.2-5.6 5.3zm-42.5-6.5c-2.3-2.6-9-6.3-4.7-9.8 3.2-2.6 9.1 2.2 12.7 5.2 7.4 6.2 14.4 12.9 21.4 19.6 3.3 4.1 2.8 5.9-2.8 7.5-10.4-5.9-19-13.7-26.6-22.5zm26.1-116.7c-1.6 2.4-3.9 4.3-7.2 2.5-18.3-9.6-36.7-19.2-55-29-1-.5-1.3-2.4-1.8-3.7l6.2-2.7c19.6 7.1 38.2 16.7 55.3 28.5 1.4 1.1 4.2 1.8 2.5 4.4zm-23.8 23.3c-3.9-3.8-41.6-19.9-33.1-24.6 9.3.8 46.7 14.9 39.3 26.4-2.5 2.7-4.3-.6-6.2-1.8zM568 1131c3.2-11.4 15.5 5.2 18.8 9.3 1 1.3 1.2 4.6-5.1 3.3-4.2-2.3-9.3-7-13.7-12.6zm.9 177.9c4 16.7 10.3 33.1 11.9 50 .5 1.7 1.6 3.2 3.1 4.3.2.1-.2 1.1-.3 1.6-9.4-1.8-13.7-19-16.7-27.2-2.8-9.9-5.5-19.8-8-29.8-.9-3.4-3.1-1-3.7-.7-3.4 1.9-9.7 5.1-9.4 6.4 4.7 21.3 14.2 42.3 17.7 63.5-9.3 11.9-23.2-49.9-25.8-54.8-5.5 26.1-16.2 51.5-18.6 77.8.1 2.7-.5 4.8-4.4 4.2-4.9-.7-4-8.7-3.8-13.8.9-21.7 7.6-42.1 12.7-63 7.8-30 38.5-34.6 63.5-43 7.6-1.4 7 4.9 7.4 7.4 2.5 15 4.9 30 9.5 44.5 1.3 4.9 3.9 7.7 2.7 13.3-12.3-14-18.4-31.8-23.7-49-.8-2.7-2.5-5.8-3.8-5.1-5.8 3.1-13.4 3.5-10.3 13.4zm-10.7-287.3c7.9 4 20.3 7 20.1 19.3-1.6 0-3.5.6-4.7-.1-12.5-8-26.3-14.6-37.9-23.8 9.1-4.8 17.1.9 22.5 4.6zm13.2 136.2c.4 1.4-2.2 6.1-3.4 4.9-3.5-4.3-14.3-8.4-12.3-15.1 7.3 1 13.5 3.2 15.7 10.2zm-39.9-125.3c14 .6 22.6 9.3 32.3 15.9 2.4 1.6 1.8 4.8.4 7.2-1.8 3-3.3.3-4.7-.5-10.7-6.5-23.3-10.8-31.5-20.7l3.5-1.9zm-6.3 20.8c8.2 4.3 18.4 9.8 26.7 18 .3 4.8-7.6 5.3-10.4 3.2-4.4-3.5-39.7-23-16.3-21.2zm-2.4 38.5c.2.7-2.2 3-2.4 2.9-5.1-3.2-11-5.3-14.4-10.7 0-.1 2-1.4 2.9-2 6.1 2.2 12.1 3.3 13.9 9.8zm-.8-138.2c-3.2 4.9-4.4 3.2-9.5 1.3-3.8-5.5-66-23.5-35.8-24.5 6.1 1.4 49.8 15.2 45.3 23.2zm-46.1 2.6c13.1 3.8 26.6 7.5 36.3 18.7 3.4 3.2-1.5 6.9-4.5 5.8-10.7-8.5-23.8-12.3-35.8-18.1-1.9-.9-5-3.7-4.7-4.3 1.9-3.7 5.4-.4 8.7-2.1zm28.9 154.3c-3.5 7.1-10.8-1.1-15.6-3l7.1-2.9c4.2.9 7.2 2.5 8.5 5.9zm-31.6-128c10.3 3.7 23 4 30.3 15.8 1 1.7 1.9 2-.2 3.3-1.5 1-1.6 3.4-4.5 1.8-4-3.4-49.6-20.6-25.6-20.9zm-1.9 23c6.6 3 18.1 3.4 23.7 14.2.5 1.1 2.2 2.7-.1 3.7-1.4.6-3.3 1.6-4.3 1.1-8.5-3.9-16.9-8-25.2-12.3-7.3-4.5-3.3-8.9 5.9-6.7zm-14.6 22.3c8.4 1.5 26.7 5.9 21.9 16.5-7.5 3.1-16.1-6.3-23-9.2-6.6-2.6-3.6-5.5 1.1-7.3zm-10.6 31c5.2.8 10.8 1.9 12.5 7.4.8 2.6-4.4 3.1-5.8 2.6-4.6-1.6-10.1-3.2-11.5-8.4-.7-2.7 3.2-.6 4.8-1.6zm-.4-129c.1.3-2.8 1.2-4.5 1.9-7.2-3-63.5-18.5-60-24.2 1.3-3.1 4.6-3 7.4-2.2 8.3 2.5 16.6 5 24.8 7.8 9.5 3.2 18.9 6.7 28.3 10 3.4 1.1 3.3 4.1 4 6.7zm-17.3 156c.3-7.1 16.3-.1 16.4 4.6.5 3.7-.3 5.7-2.2 4.5-4.9-2.9-12.4-2.2-14.2-9.1zm-44.6-153c2-3.3 5-.6 7.6-.5 14.6.4 27.5 7.3 41.2 11.4 1.9.6 3.2 3.4 5.2 5.8-2.1 1.4-4.1 3.8-5.2 3.4-9.1-4.2-46.8-12.8-48.8-20.1zm42.6 46c-10.8-4.1-21.3-8.7-31.9-13.2-2.1-.9-5.9-1-5.2-4.1.7-3.3 4.4-2.8 9.7-2.4 9.7 3.6 27.5 3.8 33.7 17.5-2.1.9-4.7 2.8-6.3 2.2zm-7.6 22c-9.2-3.1-18.2-6.8-27.1-10.6-2.1-.9-5.7-1.7-4.6-5.3 1.2-4.1 5.8-2.6 7.6-2.4 7.7 1 32.5 7.4 32.1 16.6-1.3 4.8-5.9 2.4-8 1.7zm-33.7 7.2c1.1-1.1 2.4-2 3.7-2.8 11.4 2.9 22 6.1 29.9 14.4 4.9 3.3 1.1 7.1-3.7 5.4-5-3.3-30.5-12.3-29.9-17zm-5.9 36.6c22.9-11.2 23.6 10.1 13.8 6.5-4.9-1.4-10.6-1.3-13.8-6.5zm-82.5-143.5c-1.8.6-3.6 1.3-5.3 2.2 10.2 17.8 32.6 3.2 38.7 13.1 1.3 5.9-6.9.9-10.2 4.2-3.1 3-11.9-2.9-12.4 3.2-1.2 19.3 30.9 12.9 41 22.4-10.1 7.2-22.5-.6-33.3-2.1.5 4.4-2.1 9.5 2.6 12.9 10 7.8 22.3 9.3 34.1 12.7-6.6 6.2-17 3.5-24.7.7-3.3-1.5-6.6-5.6-10-3.5-4.4 2.8-1.5 8.7-2.5 13.1 7.6 9.1 25.3 14.6 35.9 21.4.5.3.4 1.7.6 2.6-17.7 3.4-36.5-11.8-49.9-22.2-4.9-4.2-.4-9.7-2.2-13.3.7-14.3-3.1-26.6-8.1-38.6-1.5-5.1-9.6 6.5-13.3 5-12.6-1.2-5.5 5.8-4.1 9.5s4.4 6.8 6.4 10.3c8.7 6.4 1.3 7-5.2 3.1-14.9-10.7-20.2-27.3-25.7-43.4-10.7-28.2 9.5-23.6 26.4-21.4 7 .3 14.1 0 21.2.1 2.5 0 6.1-.8 6.2 3 .1 3.5-3.2 4.3-6.2 5zm-.3 279.1c.8 5.6 13.6 27.5-.7 16.9-9.9-12.2-12-27.2-17.3-41.6 6.1-13.5 16.1 20.1 18 24.7zm-25.4 9.3c1.4 3.6 2.9 7.1 4.6 10.7-2.2 8.1-11 .5-11.8-3.4-3-6.9-13.3-29.6-2.6-33.5 4.2-.9 4.4 3.7 4.6 5.6.8 7 2.6 14 5.2 20.6zm-17.8-394.1c1.7 19.5-14.4 35.8-28.6 47.7-3.5 2.9-8.7 7.5-13 2.4-2.2-3.1 1.5-4.4 3.2-5.7 13.8-10.6 23.5-24.7 32.2-39.5 1.3-2 4.1-3.3 6.2-4.9zm-22.1 399.2c-.8-3.8-5.4-17.8.6-18.3 3.8-.5 4.6 3.7 5.2 6.1 1.9 8.7 5.1 17.1 9.5 24.9 1.6 2.1 2.5 4.8 2.4 7.5 0 .2-1.5.5-2.6.9-9.8-2.7-12.3-12.6-15.1-21.1zm1.1-417c1.4-2.8 4.2-4.9 6.3-7.3.7 1.2 1.4 2.5 1.9 3.4-5 23.2-19.9 41.8-37.6 56.3-4.3 2.4-17.8 14.9-21.7 9.9-1-1.5-2-3.3.9-5.3 21.3-14.5 38.6-34.1 50.2-57zM221 1236.2c-9.9-10.8-15-23.2-14.2-38.3 1.4-6.1 8.1-1.5 7.7 2.2.5 12.6 8.7 21.7 13.7 32.3 3.5 6.1-3.7 9.4-7.2 3.8zm-8.1-469c-1 19-23.8 48.4-44.7 53.9-7.1-4.3 5.2-8.7 7.8-11.6 14.4-11.5 23.2-27.4 31.2-44 1-2 2.1-5.8 5.5-4.6 4.3 1.6.2 4.3.2 6.3zm-7.3 491.2c-4.4-5.1-22.6-40-14.8-43.4 4-1 5.7 1 6.7 3.4 3 11.2 7.8 21.9 14.1 31.7 2.8 4.4 6 7.6 6.9 13.2l-1.8 3c-3.8-2.7-8.6-4.3-11.1-7.9zm-8.5 16.4c2.2 4.1 6.5 7.3 6.8 12.2-8.3 4.8-32.6-30.3-22.7-33.3 6.8 5.4 10.5 14.3 15.9 21.1zM75.3 333.2c2.2-4.6 1.7-13.9 6.5-13.4 39.4 5.7 81.7-15.8 87-56.5 2.7-5.8-4-15 .6-16.2 18.3-4.8 32.3-14 42.1-30.6 1.8-3.1.6-10.9 10.2-10.1 40.4 9.4 72.1-19.9 63.7-61.5-1-3.5 6-1.2 7.9-1.4C310 145.8 321.7 161 336 169c35.8 25.6 116.3 47.6 129.3-13.6.4-4.1 1.5-11.4 3.2-11.7 17.2-3.1 30.8-10 35.7-29.6 3.5 23 14.6 36 35.2 45.5 5.1 2.4 14.1.7 15.2 8.2 3.3 22.3 31.3 38.6 52.2 30 11.6-4.7 23.7-6.8 36.1-2 37.7 17.5 75.6-22.8 56.2-58.9-3-7 .5-10 4.3-13.6 1.7-1.4 4.1-4 5.6-3.6 49.2 28.8 118.4 8.8 149-38 18.7 40.4 74.4 73.8 117.9 53.3 2.7-.5 2.7-4.9 0-6-2.2-1-5.5.2-7.3.7-32.2 7.7-63.4-9.5-86.8-30.5-28.3-22.9-4.8-56.1-9-85.9-9.6-29.1-9.8 24.1-11.6 30.6-2.9 22.9-13.3 40.8-31.2 54.3-30.8 23.3-64.9 32.9-102.6 20.2-6.9-1.1-19.9.5-14-12.2 1.6-4-1.5-16.5 11.3-10.6 12.4 5.8 25.5 5.8 38.1.8 32.6-12.9 63.3-44.4 64-81.2 0-2.7-.2-6.4-3.2-6.3-2.9 0-4.1 3.3-4.6 5.9-7.1 43.3-57.5 94.1-102.3 66.8-10.1-7.2-10.2 26.8-28.1 41.7-28.1 27.8-67.5 38.5-106.3 34.9-14.9-1.3-29.4-4.1-42.9-9.8-31.9-11.1-37-80.3 8-72 7.8 2 14.7 13 26.6.4 20.7-31.6 102.3-10.2 71.8 28.5-9.4 8.3-33.8 16.9-42.2 4.8-4.1-6.8-1.2-15.2 5.8-20.7 2.5-2 8.8-2.2 5.2-7.4-2.8-3.9-7.3-1.1-10.2 1.1-9.3 7-14.8 15.8-11.7 28.2 5.1 19.6 29.7 17.5 44.8 11.9 75.1-32.9-20.3-102.4-64.2-61.9-3.6 2.7-7 9.6-13.1 6.9-17.1-7.7-32.3-4.6-46.9 6.7-10.3-37.2-57-48.9-82.6-20.7-13.4 15.1-6.1 4.4-29-1.7-30.5-8.9-58.9 19.7-54.8 48.6.5 3.2-.9 4.7-2.8 5.5-24 7.9-47.4-21.3-41.2-44.7 4.8-12.1 2.9-59.3-13.7-58.5-2.7 1.2-2.3 4.4-.7 7.6 12.8 26.2 8.1 61-19.5 74.4-20.9 15-23.7-2.1-44.1-.6-2.4.2-2.4-1.3-1.5-2.9C236.3 59 243.2 15.7 216 1.4c-13.3 1.6 13.6 16.8 7.2 46.5-2 14-6.9 27.4-14.4 39.4-4.8 7.8-12 4.1-18.3 3.4-2.6-.3-7-2-7.2-3.5-2.6-20.7-18.2-28.4-34.9-34-20.9-7-32.9-2.5-45.8 15.5-1.7 2.4-3.9 2.3-6.2 2.1-14.1-1-27.2 3.2-39.4 9.3C-6.3 108.3-3.3 233.4 82.5 214c4.5-1.3 9.9-11 16.7-.4 26.8 46.8 64.2 21.7 61.6 49.5-8.3 51.4-117.4 67.9-103.7 4.7 3.7-9.4 8-20.5 20.2-18.2 10.9 2 15.4 11.4 13.2 23-.3 1.3 1.2 4.3 1.8 4.2 2-.1 5-.5 5.9-2 8.8-13-2-34-17.5-35.9-39.6-.8-49.8 56.9-16 73.9 4 2.2 6.2 4.5 4.4 9.6-8.3 23.6-32.7 50.9-60 40.2-2.3-1-4.2-3.4-6.7 0-2.5 3-.5 5.3 2.5 6.8 27.8 17.1 59.4-11.2 70.4-36.2zm490.6-166c38 5.7 81.1 4.5 111.6-21.6 3.6-3.6 8.4-7.3 13.2-8.3 4.2-.8 3.5 5.9 3.8 8.2 5.5 40.7-24.7 51.2-58.8 38-26-4.4-54.6 20.6-70.8-13.8-.5-1.4-2.1-3.1 1-2.5zM393.2 62.4c33.1 2.8 27.2 28.8 36.8 28.4 4.2-1 3.3-5 3-8-.6-5.6-9-11.3-4.2-15.7 26.9-34.2 86.3-17.5 70.6 31.8-2.9 9.6-5.2 19-12.9 25.7-29.4 26.5-50.1-21.5-85.9-4-52.5 17.3-58.5-56.6-7.4-58.2zM291.4 80c1.8-1.9 3 1.1 3.5 2.4 4.3 24.7 29.5 40.2 52.4 32.9 7.4-2.3 7.2 5 10.1 7.8 28.4 27 58-10.5 87.5 14.8 4.3 3 14.3.3 12.1 10.4-8.9 52.2-78.9 36.8-110 14.6-16.8-11.6-31.1-27.9-52.5-27.1-19.4-4.1-16.3-27.7-33.3-35.9 12.8-3.7 23-9.6 30.2-19.9zM147.8 236.6c-43.5-6.2-36.7-52.6-56.4-38-30 18.4-66.8-1.6-68.3-36.3-4.8-43.2 32.3-91.1 79-78.4 5.5 1.8 7.3-5.8 9.7-10.6 6.4-13.1 28-15.5 41.7-7 11.1 6.8 21.2 12.5 19.9 28.1 1.5 15.5 27.5-5.4 38.8 23.9 4.3 10.8.8 21.8-10.2 29.9-12.6 9.3-25 18.6-40.6 8.6-8-5.1-10.2-2.4-15.1 3.8-10.7 13.6-26.6 13.7-37.3 1.5-14-23 5.7-59.4 33.9-37.9 2.6 2.2 3.7-.3 5-1.2 2.7-1.8.7-3.7-.6-5.3-8.7-10.9-27.8-11.5-40.1-2-15.4 11.7-14.6 38-6.8 51.4 10.9 18.7 33.6 18.4 48.3 4.8 5.7-5.3 9.3-4.9 15.7-2.9 19.7 6 45.2-8.1 55.2-26.5 10.2-18.1.4-29.9-8.2-44 32.9-14 63.5 23.8 65.5 54 6 32.3-30.8 54.3-59.5 41.2-17.2-8.8-7 50.5-69.6 42.9z"/></g><g><path d="M52 1548v15l-37 37h946l-37-37v-15H52M52 52V37.7L14.3 0H0v1600h15l37-37V52m872 0V37.7L961.7 0H14.3L52 37.7V52h872m52-52h-14.3L924 37.7V1563l37 37h15V0z"/><path d="M961 1600h15V0h-14.3L924 37.7V1563l37 37H0V0H961.7M52 52V37.7L14.3 0m.7 1600l37-37V52h872m0 1496H52" fill="none" stroke="#333" stroke-width="2" stroke-linecap="square" stroke-miterlimit="3"/></g></svg>