<svg xmlns="http://www.w3.org/2000/svg" xmlns:xlink="http://www.w3.org/1999/xlink" viewBox="0 0 976 1600"><path d="M960 22v1556c0 3.3-2.7 6-6 6H22c-3.3 0-6-2.7-6-6V22c0-3.3 2.7-6 6-6h932c3.3 0 6 2.7 6 6z" fill="#fff"/><defs><path id="a" d="M960 22v1556c0 3.3-2.7 6-6 6H22c-3.3 0-6-2.7-6-6V22c0-3.3 2.7-6 6-6h932c3.3 0 6 2.7 6 6z"/></defs><clipPath id="b"><use xlink:href="#a" overflow="visible"/></clipPath><g clip-path="url(#b)"><path d="M204.2 1367c-27.8-8.4-16.5-59.6-8.4-79.1 26.2-4.3 54.6 77 8.4 79.1zm-84.9-126.1c-24.4-1.7-76.8-39.2-41.8-52.6 14.2-.9 73.8 51.1 41.8 52.6zm154.5-23.6c-4.2-.2-8.9.2-12.9-1l.5.2c-13.3-15.6 31.1-41.3 47.9-41.3 67.6 16.2-2 47.6-35.5 42.1zm-157.6-79.9c-20.4-.3-79-47-51.2-65.3 18.8 7 73.2 51.8 51.2 65.3zm139-14.6c-41.6-6.5 46.3-70.1 60.3-27 3 29.8-41.4 23.3-60.3 27zm-30.7-87.5c-13.9-.5-14.5-11-1.9-19 62.3-77.7 108.3 26 1.9 19zm-109.7-13.1c-15 2.3-75.9-32.1-45.4-44.4 18.6-1 57.8 33.9 45.4 44.4zm614.6-32.8c-43.8.2-10.5-74.2 7.2-85.6 26.2 12.8 29.4 81.1-7.2 85.6zm-521-58.2c-28.4-10.1 29.6-41.6 45.1-36.5 17.3-2.3 27.3 23.4 4.7 29.3-16.9 7.5-32.7 7-49.8 7.2zm-93-16.2c-20.9-2.1-77-35-51.2-53.2 16.5-1 71.4 37.8 51.2 53.2zm547.3-70c-22.3 7.2-83.5-31.9-41.5-44.8 17-2 85.3 41.8 41.5 44.8zm-424.5-31.6c-7.8-5.1-20.2 1.9-24.9-7 5.1-12 35.1-38.6 48.9-32.7 10.3 37.4 13.3 32.8-24 39.7zm583.4-2.1c-10.9-2.3-56.8-2-34.5-20.2 11.9-10.4 27.6-21.8 45.8-19.1 42.5 10.8 25.4 42.2-11.3 39.3zm-699.1-18.4c-36.4 7.7-106.2-74.6-37.7-58 7.2.8 59.6 51.6 37.7 58zm542.7-37.4c-21.6-4.3-71.9-16.2-59-48.2 17.3-20.3 92.2 38.7 59 48.2zm141.4-46.8c-85.6-1.1 8-65.6 34.1-30.5 12.8 21.4-18.2 30.3-34.1 30.5zm-682.4-31.2c-27.6-3.7-83.6-47.4-41-61.8 20.1-2.8 65.9 45.3 41 61.8zM653.3 653c-21.4.7-86.7-50.7-40.1-57.8 21.1 1.3 67.8 45 40.1 57.8zm118.6-39.5c-53.5 2.4 17.8-45.5 34.7-42 38.9 11.1-11.8 48.7-34.7 42zm-623.6-71.7c-25.2-.4-69.4-55.6-26.4-59.9 14.9 11.3 44.3 46.1 26.4 59.9zm492-6.5c-20.8-5.4-42.8-9.3-55.8-30.4-7.6-11.1 5.3-29.3 18.6-22.2 12.4 5 62.9 47 37.2 52.6zm99.7-14.1c-43 3.5 45.4-79.8 61.9-39.4.2 30.3-37.2 38.6-61.9 39.4z" fill="#5d4e8c"/><path d="M849.8 462.8c-31.9-14.5-54.4-57.3-33.2-87.3 1.9-4.7-7.5-12.1 1.3-13.5 31.9 10.2 54.9 77.8 31.9 100.8zM73 454.2c-34-15-7-66.9 7-84.8 6.7-5 9.4 2.7 18.2-5.3 19.7 28-3 68.5-25.2 90.1zm466.7-17.3c-23.8-11.7-35.2-41.9-38.1-66.4 1.2-4.7 8.4-2.2 9.2-7.4.6-2.1 2.9-3.3 5-2.7.5.1.9.4 1.3.7 22.1 16.3 49.4 59.9 22.6 75.8zm211.1-7.8c-7.7-.7-.2-9.7-5.7-12.8-15.8-21.7-3.9-72.9 28.3-64.9 22.1 9.7-1.9 67.9-22.6 77.7zm-572.5-52.5c-12-8.1-9.2 0-17.4-3.1-19.1-21.1-33.1-61.3-7.6-73.7 19.8 2.4 38.4 64.6 25 76.8zm475.2-16.1c-39.9-5.8-3.5-85.1 23.1-100.4 36.8 12.1 7.7 87.5-23.1 100.4zM575 349.7c-18.4.3-43.6-11.6-53.7-28.7 3.7-9 5.2.5 12.5-14.3 21.1-8.1 38.9 6.7 55.1 19.3 2.8 1.4 2.6 4.9.8 7-.9 14.8 8.2 15.3-14.7 16.7zm299.8-1.5c-15.5-.2-39.1-9-48.3-28.4 2.6-8.3-10.9-7.4-10.8-14.5 24.5-31.6 131.2 35.4 59.1 42.9zm-293-69.4c-14.3-21.3-2.2-62.9 20.6-83.4 13.1 4.7 9.9-8.8 18.3-11.3 18.3 36-6.3 82.4-38.9 94.7zm257.8-6.7c-7.7 0-15.4-1.2-22.8-3.5-12.8-6-39-12-45.4-28 2.4-4-1.9-6.5-2.7-9.9 3-8.6 16.9-6.4 26.1-7.7 36.3-5.8 107.6 43.4 44.8 49.1zM346 267.3c-25-27 18.7-117.7 39.3-73.8 1 22.3-5.4 54.8-25.1 65.2-9.1-4.8-8.2 7-14.2 8.6zm-105.6-2.6c-25.6-5-51-54.9-23.1-67.1 22.7 2.5 56.4 61.7 23.1 67.1zM66 245.5c-51.3-10.3 15.6-51.3 37.7-46.9 16.2 1.5 29.6-.9 23.8 19.4-12.6 16.2-42.6 27.5-61.5 27.5zm459.3-9.2c-22.2-.8-43.5-15.4-50.9-33.9-4.5-1.9-5.6-10 .9-11.2 23.4-14.3 107.1 37.7 50 45.1zm-213.6-65.9c-28.7-4-50.9-60.5-25.5-77.8 27.6 11.1 55.7 73.9 25.5 77.8zm479-3.7c-14.8.4-70.7-13.4-67.3-30.8 36.7-46.3 166.8 20 67.3 30.8zm-286-28.2c-29-1.2-47.2-11.7-67.5-26.5-10.1-39.9 64-13.1 76.3 8.7-1.1 8.4 5.8 19.8-8.8 17.8zm-355.9-16.7c-72.7-2.7-22.6-48.7 11.7-46.8 10.7.9 30.3 2.6 34.2 14.2-3.3 4-.8 7.3 0 11.4-7.1 16.3-29.7 20.2-45.9 21.2zm529-18.3c-12.8-1.6-30.2-.6-36-13.2-4.3-2.6-18.4 3.6-12.7-6.8 34.8-31.2 68.8-33.5 107.7-10.6 4.8 3-1.5 7.9 1.4 11.8-9.6 19.3-41.5 16.4-60.4 18.8z" fill="#333"/><path d="M509.9 1289.7c-33.2-4.7-43-52.6-65.9-74.4-40.3-64.8-78.4-131.8-103.8-203.6C259.1 811.8 227.5 598.8 210.8 385c1.9-15.6-14.6-61.4 1.1-66 71.9 5.5 144.3 4.1 216.5 8.1 10.2 2.1 37.2-4 33.2 12.8-2 45.3 4.9 84 5.4 127.6 3.2 83.7 19.4 165.2 35.3 247.4 32.1 195.9 121.2 375.2 230.6 539.2 17.2 25-40.6 12.8-51.9 17.7-57.4 4.4-113.1 10.8-171.1 17.9z" fill="#d81e1e"/><path d="M943.9 1427.4c.3-6.7 2.7-15.7 10.6-15.8 13.2-.9 18.5 28.2.9 23.2-6.8 1.7-11.8-1.4-11.5-7.4zm5 124c-14.1-1.9-12.2 31.7 1.7 27.8 22.7.7 18.6-29.9-1.7-27.8zm4.3-1477.7c5.2-.9 12.4-2.8 11.9-12.1 1.2-7-4.7-10.5-10.2-10.2-12-.7-14.8 23-1.7 22.3zm.2 257.2c-7.5.1-5.9 5.7-6.5 9.9-1.8 7.5 3.1 9.3 8.3 9.1 6-.3 10.1-3.2 10-10.6-.1-9.1-5.8-8.5-11.8-8.4zm1.3 897c5.8-.3 9-2.6 8.7-8.8-.4-5.2.5-11.3-7.1-12.2-6.5-.7-13.8-1-14.8 7.8-1.1 9.2 3.7 13.7 13.2 13.2zm-3.7-186.8c-15.3-4.3-12.2 22.2 2.6 20 5.5 0 10-.2 9.7-8-.4-8.3-2.4-13.7-12.3-12zm.4-574.4c16.8-.6 15.4-23.8-1.3-23.2-12.8-.7-11.5 24.3 1.3 23.2zm-.6 489c18.5 0 10.3-29-5.5-25.7-12 1.7-12.7 28.5 5.5 25.7zm2.8-752.9c-8.3 0-10.2 4.4-10.6 10.1-.7 7.9 5.7 9.1 10.8 9.9 6.3 1 6.8-6 6.7-9-.3-4.4 0-11.7-6.9-11zM945 782.7c3.5-14.3-9.5-9.9-14.7-10.8-3.7-.6-7.9 7.2-7.4 13.3-1 20.2 27.2 17.4 22.1-2.5zm-22.1-662.3c.5 6.9 2.9 12.6 10.6 12.4 6.4-.2 12.5-2.6 11.3-14.4-.5-2.6.6-10.2-8.7-9.3-6.6.6-14 1.3-13.2 11.3zM933 284.5c2.4-17.8-21.8-16.7-20.5-.5.2 4.9.3 12.6 5.9 12.4 6.7-.2 16.5-1.1 14.6-11.9zm0 397.7c.7-7.8-4.1-9.6-10.9-9.3-9.4-.8-12.3 4.8-13.4 13.4-1.9 19.5 25 16.1 24.3-4.1zm-15.3 686.7c-11.1-1.9-11.2 6.5-11.4 13.3-3.2 18 21 13.6 22.5-.8 1.9-8.6-2.5-12.7-11.1-12.5zm-6.5-58c19.8 1.3 24-28.5 3.5-28.1-14.7 0-19.5 27-3.5 28.1zm15.6-917.7c4.2-17-22-13.5-21.6.7.2 7.1 3.6 13.4 12.8 13.3 9.3-.6 7.4-8.7 8.8-14zm-11.2 1079.7c-12.3 0-15.5 2.2-14.6 11.2.9 9.5 3.8 18.7 16.3 16.7 11.9-.8 14.1-33.1-1.7-27.9zm.6-1422c4.7.7 9.3-4.2 8.2-6.8-2.2-5.4 2-14.6-4.2-15.6-12.8-.8-15 5-15.3 12.4-.3 8 5.7 9.2 11.3 10zm-5.6 466.8c5.7-.3 14.4.6 12.3-10 1.8-8.5-5-12-10.3-12.2-12.9-2-15.4 22.3-2 22.2zm-3.5 379.8c-16.4.1-10.5 26.3 4.7 24.4 8.6.2 8.7-7.7 9-13.6.5-7.5-3.9-11.4-13.7-10.8zm-3.8 231.3c19.1 2.7 21-27.7 2-27.4-13.4-1.4-16.3 25.6-2 27.4zm3.9-270.5c7.8-.2 9-7.2 9.7-13.1 1-8.2-5-10.8-11.5-10.8-6.8 0-11.5 3.5-10.4 11.3-1.2 9.5 4.7 12.7 12.2 12.6zm-16.3-677.5c.1 6 .4 12.5 8.4 12.1 6.6-.4 12-3.3 12-11.9 0-7.1-1.3-11.6-9.6-9.8-7.9-1.6-10.9 2.2-10.8 9.6zm-.1 275.1c-1.3 16.2 20.9 10.8 20.4-2.8-.6-4.7-1.5-10.2-7.6-9.9-7.4.3-12.8 3.9-12.8 12.7zm2 528.9c15.2.6 14.8-27.8-1.8-23.7-16.2-3.4-10.8 24.8 1.8 23.7zm-4 184.1c-18.8-2.3-16.2 28.6 4 26 8.7-.2 9.8-7.9 10.1-14.4.4-9.4-6.6-11.1-14.1-11.6zm1-420.3c4.3 0 11.5-1.7 9.3-10.2-1.4-4.9 1.5-13.1-7.5-13.2-6.9-.1-14.5 2.3-14.2 10.9.2 6.7 5.3 12.5 12.4 12.5zm1-653.6c6.6-.4 8.9-4.3 8.2-11.2 3-10.8-8.4-11.2-13.1-11.8-7.4-.4-13.1 26 4.9 23zm-12.5 1125.7c-11.7-1.3-14 27.3 4.4 26.2 14.7.1 14.7-27.9-4.4-26.2zm1.5-609.2c-14.1-2.1-17.5 23.9-3.8 25.9 11.3 1.3 15-6.2 15.1-17.1 2.1-9-6.8-8.3-11.3-8.8zm-4.3 947.3c-8.5.2-9.6 7.1-10.5 13.5-1.2 9.2 3.7 14.5 12.5 14.7 15.4.1 13.6-28.7-2-28.2zm-4.8-494.2c6-.3 16.5.3 15.8-10.3-.4-6.9-4.7-12.8-14.1-13.5-4.5 1.4-9.7 2.5-9.6 10 .2 6.3-.7 14.2 7.9 13.8zm1.8-919.9c5.1.2 12.1-.6 10.5-8.7.1-6.2-.5-12.4-7.3-12.8-16.9-3.2-17.3 20.4-3.2 21.5zm4.2 732.4c1.7-16-25-15-23.3 1.2.1 7.4 3 15.4 10.1 12.6 11.8-1.8 12.6-7.3 13.2-13.8zM776.3 808c-9.6-1.3-20.7 5.8-30.8 10-14.4 6.1-5.3 18.6-5.1 27.3.3 16 .7 32.1.7 48.1 0 9.2 8.9 12.7 12.2 20.1 9.5 21.3 13.8 54.3-4.7 74.7-14.4 15.2-46.9 7.3-46.6-16.3-.3-27.7 14-49.9 27.7-72.3 3.1-5-1.4-11.1-.3-15.5 4.1-16.2-8.1-18.2-17.8-22.8-19.2-9.3-31-18.8-53.2-12.2-16.8 1.1-31.3-3.8-44-15.4-5.4-4.9-12.1-8.8-13.4-16.4-4-42 61.8-15.7 71.8 5.5 11.3 22.9 35 24.2 52.9 35.4 2.6 1.6 3.2.6 3.1-1.9-.3-20.3-3.1-41.3-3.7-61.4 2.9-14.9-6.6-19.3-17.3-23.9-9.1-3.8-18.5-7.5-26.5-13.1-5.1-3.5-7 1.2-10.5 1.3-76 1.5-100.3-71.7-42.8-59.9 22.6 6.3 39.8 20.5 49.7 42.1 6.1 13.3 21 11.6 30.2 19.4 8.9 3.3 16.9 10.8 15-4.3-2.8-24.3-5-48.8-8.3-73-.9-6.8-9.5-8-14.4-11.7-6.6-5-16.9-5.7-22.7-11.2-10.1-9.5-21.6-2.4-31.9-5.5-22.1-6.6-42.5-16-52.1-38.7-3.2-7.6-4.7-17.5 3.5-23.8 10-7.7 20.3-3 30.3 1.2 22.1 9.2 32.6 28 42.2 48.5 8.1 14 29.3 13.4 41.5 23.5.2-24.2-8.3-47.8-10.1-72-1.6-11.5-4.4-22.8-8.3-33.7-1.4-3.9-7.9-6.5-12.6-8.4-7.8-3-15-7.2-21.6-12.4-5.7-4.6-10.6-1.2-16.3-.4-22.8 1.1-48-10.5-61.9-29.2-11.5-16.2 3-41.6 23.5-32.7 23 10.3 38 27.6 50.4 49.2 6.2 9 23.6 12.6 34.4 18.2 1.9-23.3-8.6-45.7-13.6-68.2-9.5-33-18.7-66-29.8-98.5-4.1-11.1-12.3-20.5-14.4-33-6.2-26.1 16.3-75.2 40.1-85.9 18.8-7.5 18.9-24.4 27.4-38.2-17.5-24.9-45.8-44.9-65.4-69-22.4 44.6 14.6 33.6-6.8 90.2-5.9 16.8-40.1 65.2-55.1 34.3-7.5-35.1 10-75.7 40.2-95.2 7.6-5.9 6.1-18.8 12.4-26.4 6.8-15.4-10.4-19.8-18.2-27.2C565 89.3 519.8 56 489.6 8.7c-1-1.3-.1-4-.2-6.1 13.1.4 18.5 14.5 25.2 23.2C535 53.6 562 74.6 586.9 97.7c3.8 3.6 8.4 1.5 10.8-.1 8.9-5.6 19-7.3 28.6-10.5 2.4-.8 2-1.5 2.2-3.4 7.8-40.3 80.4-38.4 107.2-18 17.9 9.9 15.5 23.5-2.2 31.2-32.3 16.4-64.6 16.5-98.1 1.7-11.1-5.1-24.3 4.2-35.4 8.8 15 13.6 30.3 27.4 45.5 41.3 2.6 2.4 4.7 2.4 7.9 1.6 21-6.3 42.7-8.6 64.2-11.6 4.7-.9 4-7.5 7.6-11 30.7-36.4 143.6 7.8 95 37.8-31.7 16.3-67.9 3.5-95.3-15.1-3-2.3-8.9-1.9-13.2-1.2-18.1 3.6-36.9 5.7-54.4 11 20.2 21.4 41.9 42 61.5 64.2 1.4 1.5 3.4 2.5 5.5 2.6 8.4 1 16.9-1 25.5 1.6 5.7 1.7 10.7-1 16.2-4.9 31-21.2 71.9-3.2 95.9 21 4.7 5 11 11.1 8.6 17.8-19 36.5-89.9 2-109.5-21.1-5.7-5.3-13.9-3.2-20.6-3.3-6.4-.1-5.8 1.6.1 8.9 12.8 15.8 25.2 32 37.4 48.2 4.8 6.3 12.2 2.1 17.8 5.5 12 7.4 18.9-5.9 28.7-8 33.4-7 70.6 11.3 81.6 44.3 2 5.2-6.4 12.1-15.2 14.2-34.2 7.9-57.1-8.9-77-33.7-6.1-6.6-15.3-1.9-26.6-9.2 8.8 15.4 14.4 32.1 25.7 42.9 8.2 7.8 21.5 10.7 29.1 21.6 11.5 16.3 20.8 32.6 21.8 53.5 1 14.3.9 49.8-21.9 38.1-30.9-16.9-45.3-51.6-36.7-85.3 3-22.3-14.9-37-22.8-55.3-8.3 12.2 3.3 24.7 4 37.2.7 16.7-1.1 32.9-9.8 48-5.9 8.6-29.9 42.9-35.2 18.4-11.8-30.6-16.4-75.3 24.9-84.7 8.6-1.6 4.2-10.8 7-16 7.3-22-12.4-33.1-22.4-47.3-12.3-17.4-27.7-32.5-41.7-48.6-3-4.2-5.8-5.6-7.5.3-2.6 7.8-5.2 15.6-8.7 23.1-3.8 8.2 3.2 13.5 4.7 20.2 4.6 20.3-.7 38.5-9.9 55.7-7.9 14.9-16.7 29.3-32.5 37.9-5.1 2.8-5.4 5.8-4.2 8.8 13 25.3 18.2 53.9 28.1 80.6 7.1 24.2 15.2 49.6 19.7 74.1 21.5-5.9 28.1-26.4 40-41.7 14-18.6 46.6-36 65.3-16.1 3.9 4.7 4.8 11.2 2.2 19.4-6.7 21.2-24.8 23.8-41.2 29.8-11.3 4.1-23.9-.1-34.9 3-10.4 2.9-20.6 9.3-28.5 16.7-2.7 2.5 2.1 12.8 3.4 19.5 2.7 14 5.6 27.9 7.7 41.9.8 5.4 4.5 10.5 2 17.7 11.2-10.1 26.5-10.1 36-20.4 14.2-18 55.7-53.5 74-24.4 7.7 35.5-43.2 48-70.2 40.8-14.7-2.6-25.1 6.3-36.7 11.8-1.1.5.6 7.1 1.1 10.8 4 21.8 5.7 44.8 11 66.1 11.5-4.8 24.9-7.5 34-15.3 20.3-20.8 47.5-42.7 76.5-23.6 16.9 12 8.1 36.4-10.2 41.1-22 8.5-42.8 3.4-64-4.7-4.9-1.9-12.6 3.3-18.9 5.5-6.1 3.7-18.5 4.4-16.7 13.8 2.2 22.5 4.5 44.9 6 67.4.4 5.8 4.1 11.4.9 17.5-1 1.8.3 2.3 2.4 1.6 11.6-3.8 24.3-5.8 34.6-11.7 6.3-3.7 9.6-13.2 16.3-18.2 19.5-14.3 52.2-24.8 70.6 4.9 9.8 12.9-3.5 25.5-16.6 28.1-23.7 6.6-45.8-1.7-68.7-4.8zM775 697c16.6 7 33.7 11.2 51.1 3.6 8.4-3.7 18.6-7.5 11.2-20.5-4.9-8.6-13.9-6.8-20.2-9.4-19.3 1.1-31.6 12-43.2 24.3-1.7 1.8.1 1.6 1.1 2zm-19.8-89.1l16.8 1.7v-.6c16.7 2.1 40.2-5.5 44-22.8 1.5-8-3.7-11.2-10.7-10.7-20.8 1.8-38.1 16.5-50.1 32.4zM733.8 517c23 .6 60.7-4.6 64.5-33.4-17.9-25.6-56.4 10.9-65 29.9-.2.2-5.5 3.2.5 3.5zm28.4-149.1c1.3-4.4 5.4-9.8 2.1-13.2-2.5-2.6-6.6 2.8-9.8 4.6-2.5 1.4-3.7 4.8-5.8 6.9-8.2 8.5-8.6 38.6-.6 47.3 4.7-15.3 9.5-30.4 14.1-45.6zm13.5-13.2c-7.2 23.5-13.4 46.2-24.8 70.4 19.4-15 31-49.8 24.8-70.4zm42.2 11.2c15.8 24.9 27 52.4 36.4 80.3 7.3-29.6-17.5-74.1-36.4-80.3zm31.9 92.9l-35.4-75.9c-6 34.6 6.8 59.5 35.4 75.9zm39.7-117c-7-6.2-17.3-7.6-25.7-11.9-10.7-4.6-22-7.6-33.5-9.1 16.3 17.9 35.9 28.4 59.2 21zm-69.8-36.1c23.3 11.6 51.2 11.9 72.6 29.1 1.1.8 3 .4 4.5.5-15.6-26.5-46-41.7-77.1-29.6zm39.2-42.6c-28.1-9.8-52.8-17.2-84-20.7 21.5 15.4 60.9 36.2 84 20.7zm-86.3-32.6c30.8 6.3 60 13.5 87.9 25.3-8.7-20.7-58.8-35.6-87.9-25.3zm50.5-77.3c-28.6-4.8-56.5-6.4-88.5-6.1 31.1 12.4 58.3 24.7 88.5 6.1zm-97.3-14.1c34.4-1.1 67.1.4 99.8 9.6-26.1-27.5-69.3-36-99.8-9.6zm8.5-53.3c-28.5-3.2-57.4-.2-86 8.2 24.1 8.1 65.6 7.9 86-8.2zm-102.6.6c34.4-7.8 66-17.3 103-10.1-38.8-22.9-70.9-18.7-103 10.1zM604 202c.1-.9.1-1.9-.1-2.8-19.7 18.4-27.4 48.1-22 75.7 8.4-24.1 14.7-48.7 22.1-72.9zm16.2-13.9c-12.2 26.5-16.3 54.2-25 80.5 23.5-21.7 31.1-48.4 25-80.5zm49 125.6c-5.7 14.1-10.9 28.5-15.8 42.9 25.2-16.5 41.4-52.9 34-84.3-1.3 1-3.5 1.9-3.9 3.2-3.5 13.1-9.1 25.5-14.3 38.2zM653.5 328c7.5-21.6 19.4-42.6 25.1-64.4-27.4 21.6-44.8 57.6-34.5 92.4 3.1-9.1 5.8-18.7 9.4-28zm-9.3 199.2c-12.3-15.7-23.4-32.2-42.7-40.9-5.9-2.6-8.7-.8-11.9 2.7-14.6 24.4 33.9 38.6 50.8 42.2 1.8-.7 5.7-.8 3.8-4zm10.9 107.3c-8.5-20.1-24.2-30.8-42.8-35.4-7.2-.4-11.7 2-10.8 7 1.3 8.2 5.2 15.8 11.2 21.7 8.7 8.5 19 13.1 29.9 17.3 12.6 7.2 20 3.8 12.5-10.6zm13.7 109.1c-10.7-17-39-45.2-60.3-33.1-3.2 2.3-1.9 6.9 0 10.5 12.2 22.5 34.9 25.1 56.6 30.5 6.7-1 6.6-2.8 3.7-7.9zm5.6 95.4c-10.2-18.4-27.9-27.5-46.7-33.6-5-1.9-12.4-2.4-16.2 3.8-2.3 3.8-.5 8.5 2.3 11.6 14.8 17.5 38.6 24.2 60.6 18.2zm62.4 68.8c-5-.2-5.8 7.8-7.9 12.6-10.1 13.9-14.4 30.5-18.2 46.8 1.6 4.9.6 10.7 5.3 13.7 17.3 12.5 33.8-3.3 34.9-21.3 2.8-11.4-1.6-48.8-14.1-51.8zm84.8-100.5c7.8-.8 36.9-2.4 32.5-14.6-2.8-9.2-11-15.4-21.7-16.7-17.7-2.2-30.4 7.6-42.5 18-.5.5-9 5.4-3.5 7.2 11.1 3.7 23.3 4.3 35.2 6.1zm31.3-758.7c7.8-.1 8.4-7.3 8.2-14 .8-9.5-6.5-11.1-13-10.4-8.9.9-9.7 8.3-9.1 15.7.7 8.9 8.8 8.8 13.9 8.7zm-4.3 895.3c0-5.5-4.1-10-6.1-10.4-14.4-.9-19.5 4.3-18.6 14.1 1.8 14.7 26.5 16.3 24.7-3.7zm-9.4 234.9c-16.5-.6-14.5 26.6 2 24.3 9.6-.1 7.7-8.1 7.3-12.6-.4-5.2-2.2-12.1-9.3-11.7zm-9.2-176.1c-11.1-.4-10.3 7.1-11 13.9-.5 5 .2 11 6.9 10.2s15-1.7 13.2-11.6c.1-7.1 0-12.2-9.1-12.5zm-4.5 379.1c-4.9.2-12.9 2.4-13 12.5-.2 11.6 6.4 12.2 17.3 13.2 9.7 2.6 14.1-26.7-4.3-25.7zM817.9 92.9c11.6 2.2 7.9-7.4 9-12.6s-1.5-9.4-7.3-9.4c-14.8-1.2-18.1 25.8-1.7 22zm3.2 1216.2c-.5-3.3 0-10.6-7-9.7-6 .8-15.4-3-17.3 8.3-3.8 20.2 26.8 24.3 24.3 1.4zm-14.2-153.4c8-.4 10.3-6.3 10.3-13.2 0-11.7-10-12.3-17.3-12.9-6.1-.5-7.9 6.1-6.9 12-1.8 11 4.6 14.5 13.9 14.1zm-9.5 89c18.2.7 21.4-24.5 3.7-27.4-11-.7-14.7 7-14.2 17.7-2 8.4 5.1 10 10.5 9.7zm-.7 285.3c-11.5-.5-7.5 10.1-9.1 15.2-1.4 4.8 4.2 10.1 9.9 10.7 16 1.6 20-27.4-.8-25.9zM780.1 35.4c5.3.6 6.5-5 7-11.4.8-9.9-7.2-8.5-12.5-9.1-15.6-1.6-12.7 21.8 5.5 20.5zm-34.5 1434.8c-7.7-.4-12.5 2.6-10.5 11.3-1.6 8.4 2.1 12.7 10.3 12.5 9-.2 11.1-6.3 11.8-14.1.8-9.3-5.7-9.3-11.6-9.7zm-16.1-109.6c-.1 5.2 0 13.4 7.1 12.7 10.7-.2 15.1-5.6 15.6-12.4 2.3-16.2-24-16.2-22.7-.3zm4.2 202.9c-11.7-1.4-11.3 8.3-11.2 16 .1 10.2 8.4 13 15.8 12.2 11.2-1.1 8.7-10.4 7.5-17.7 1.7-10.2-7.4-10-12.1-10.5zm-160.2-272.4c-21.7 2.4-43.4 4.5-65 7.7-13.5 2-19.3-7.8-25.9-15.7C380.3 1148.7 312.1 990.8 273.1 827c-4-25-26.8-1.4-59.3-11.6-7.6-2-12.3 4.1-18.5 6.2-5 2.6-26.2 6.8-26.1 11.9-.6 34.5-2.1 69-2 103.5 0 .9-.5 3.9 1.5 2.4 8.3-6.4 19.9-9.1 26.2-15.7 6.6-7 13-14.8 20.3-21.5 15.9-17 55.6-25.4 62 4.3 3.8 31-58.9 34.5-79.7 27.3-3.1-.9-7.8 3.4-11.5 5.6-8 4.6-20.2 5.5-18.2 19.4 3.6 24.5-1.2 49.4 3.3 73.9 1.7 5.5-3.7 9.8-1.3 15.3 12-4.5 23.6-10.1 35.5-14.9 7.8-3.2 9.3-11.5 13.4-17.3 15.9-24.2 52-50.8 74.6-19.3 20.2 37.9-52.8 48.3-77 43.3-12.7-2.3-21.1 10.1-32.7 12.5-19.4 4-12 17.5-10.8 29.2 1.8 19.2 3.1 38.5 4.4 57.7.1 3.2 2.3 2.5 3.8 1.8 17.3-7.3 34.3-15.3 51.9-22 11.8-4.5 11.8-17.3 19.8-24.8 16.3-19.6 66.6-28.5 69.5 6.5-4.1 30-59.1 29.3-82.1 24.8-2.7-.5-5.5-.2-8.1.8-16 8.7-33 15.4-49.4 23.2-3.5 1.6-3.8 4.3-3.4 7.3 3.3 22.9 6 45.9 10.3 68.6 1.7 8.6-.3 18.2 6.6 25 17.9-10.2 36.6-20.4 54.8-31.5 3.8-2.3 6.1-7.9 7.9-12.5 8.6-22.7 37.5-38.5 62.3-34.8 25.9 4.4 32.3 31 5.8 42.3-28.8 16.8-64.8-.3-90.3 22.7-11 8.1-23.3 14.3-35.1 21.2-4.4 2.6-2.9 19.6 1.9 23.5 19.7 16 31.5 36.3 31.6 62.2-2.1 33.4-53.5 42.5-51.8 1.7-.3-19.3-1.1-38.5 7.1-57.4 4.2-9.6-1.9-19.7-14.3-22.2-15.6-3.1-28.2-13-42.7-18.8-30.4-2.5-55.7-10.1-71.8-38.3-3.9-7-2.1-16.6 5.8-22.5 21.9-13.1 59.9 29.9 67.7 49 4.5 9.2 16.6 9.8 25.2 14.2 6.6 3.3 14.1 5 20.5 8.5 6.9 3.9 4.3-2.1 4-3.7-3.6-25.2-10.4-50.7-13-75.8.5-21.6-20.4-19.2-30.5-28.7-14.4-13.4-35.2-7-50.9-16.3-17.1-10-41-30.9-37.4-56.8 7.3-30.1 67.7 27.7 70.6 43.3 8.6 20.2 30.1 20.2 42.9 33 1.7 1.7 1.9-.2 1.7-1.8-3.2-31.7-7.2-63.1-8.5-95-1.4-13.2-13.1-12.3-19.5-18.4-17.6-12.9-25-11.3-44.7-13.7-11.3-2.5-38.1-22.5-40.4-34-3.9-16.7 15.6-20.2 27.2-14.3 18.6 6.5 29.2 21.5 39.4 37.2 7.4 11.4 21.5 14.2 31.5 22.5 1.7 1.4 4.5 3.7 5.8 3.2 3.5-1.5-.1-4.1-.1-6.3-.4-27.7-.7-55.4-2.1-83-.4-8.3-11.1-8.8-15.7-14.2-28-27.4-68.7-10.3-89.9-61.1-4.5-12.8 11.6-21.3 21.8-16.2 23.2 6.8 41.5 21.3 50.6 43.4 6.4 15.4 21.1 18.4 30.7 28.5 3.8 4 2.7-.5 2.7-1.9.5-30.6-1.1-61.7 2.5-92.1 2.4-16.7-8.8-21.8-18.1-30.5-14.2-13.3-33.1-7.8-48.5-15.4-18.1-8.8-44-28.3-42-47.7 15.9-45.6 74.8 13.4 80.1 40 5 13 18.2 15.3 26.4 23.9 1.2 1.2 4.7-7.6 3.3-12.7-2.3-8.8.5-17.2.6-25.8.2-15.5.7-31.3 4.1-46.3 3.6-15.5-10.4-17.4-16-25.6-13.9-12.9-15.5-15.9-35.9-17.3-16.4-1.2-43.2-22.5-48.7-37.9-8.6-21.3 6.6-33.6 27.7-27.5 23.6 3.4 43 34.9 44.3 54.7.3 4.5 1.4 7.2 5.3 10 8.7 6.4 15.8 15 24.4 21.6 1.9-26.3 8.3-52 9-78.5.4-14.1 4.3-28.1 7.3-42s-10-15.8-15.9-23.1c-11.6-14.4-31.7-9.2-45.2-19.9-12.3-9.7-23.7-20.1-26.1-36-1.4-9.4 4.8-17 13.3-21.6 9.9-5.6 17.2.4 24.1 6.4 26.5 26.5 14.8 49.6 52.2 74.1 1.7 1.6 1.6-1.3 1.7-2.3 3-26.5 11.3-51.7 19.6-76.8 6.4-19.3 2.8-37.9.8-57-3.3-34.6-3.1-69.5-4.3-104.3-.1-4.2.2-7.3 5.7-6.8 40.3 4.6 80.7 3.4 121 6.4 41.6.3 83.3 7.9 124.9 5.4 15.3-1.2 13.2 8.2 13.2 17.7-.1 36.8 3.8 73.3 5.7 110 6 122.7 30.9 243.4 60.8 362.3 35.9 159.5 121.8 301.1 206.5 439 20.4 28-27.2 23.7-43.3 26.8-41.6 1.3-82.5 9.2-123.9 12.3zM150.1 532.9c-2.9-18.3-15.9-37.7-30.6-47.8-28.2 7.4 3.6 48.9 21.9 49.2 1.8.2 9.8 8.6 8.7-1.4zm-25.3 123.4c-5.6-18.7-26.9-37.1-42.2-36.6-9 .3-13.1 8.4-9.2 17.1 8.7 18.9 25.1 28.1 43.8 33.6 13 8.9 11.6-4.5 7.6-14.1zm-.4 130.5c-7-17.2-40.3-64.1-61.5-48.7-4.5 4.3-3.5 9.6-.8 14 13.7 22.3 34.6 33.4 57.2 36.8 5.8.2 6.1 0 5.1-2.1zm-7.6 121.8c-3.6-16.5-34.8-42.4-52.6-42.8-3.8 1-3.8 6.1-2.2 9.1 10.1 17.7 25.9 28 45 33.8 2.6.2 10.5 5.2 9.8-.1zm-2 109.6c-9.7-15.6-29-42-50.1-34.4.3 2.3 0 3.8.6 4.6 11.1 17.5 29.2 27.3 49.5 29.8zm.3 104.3c-11.7-19.6-28.5-34.1-47.9-45.7-4.3-2.5-4.4 2.2-6 3.5-.9 16.7 29.3 48.1 48.3 50.5 10.6 5.3 11.1 1 5.6-8.3zm9.6 111c-5.3-11.6-39.9-50-52.8-38.6-4.5 4.7-1.6 10.4 1 14 11.7 16 28.6 23.9 46.4 28 6.4.1 7-.4 5.4-3.4zm136.7-21.3c16.7 2.3 64.8 1.2 71.6-16.7-10.6-35.2-61.9-7-71.6 16.7zm-66.2 87.6c-3.4 13.1-10.9 68.1 12.6 62.5 34.1-10.8 11.6-57.4-8.3-72.9-1.5 3.5-3.4 6.8-4.3 10.4zm52-183.7c7.1 4.7 14.5.9 22 1 11.7 1.2 23.5-1 33.9-6.4 32.8-14.9-26.4-51.8-55.9 5.4zm-29.4-87.5c2.6 4.3 10 2.1 15.3 2.2 13.9.9 27-3.4 39.3-8.6 24.5-7.1 11-35-10.1-30.7-15.3 3.8-27.9 13.6-36.6 27.2-2.4 4-10.3 5.9-7.9 9.9zM204 924.5c1.4 4.3 6.9 2 10.7 2.4 14.1.8 28-.8 41-6.2 6-2.4 14.2-4.9 11.1-14.3s-10.9-7.5-18.6-7.8c-12.2-1.9-41.2 16-44.2 25.9zm-26.8-221.4c17-10.7 33.6-21 50-31.5 2.8-1.8 8.5-.6 7.5-6.6-12.6-59.4-13-120.2-21.6-180.1-22.3 70.1-28.9 144.7-35.9 218.2zm79.3 63c-9.9-23.1-11.1-49.9-17.6-74.3-1.8-8.8-1.8-17.2-14.8-7-12.2 9.6-25.7 17.3-40.1 23.1-14.5 5.8-9.6 20.8-10.4 31-2.1 27.1-.7 54.4-.7 80.5 8.1-5 24.1-6.9 29.2-14.1 14.1-19.8 33.1-30.7 54.4-39.2zm6.2 27.2c-.6-1 .1-3-.6-3.6-4.3-3.5 3.5-19.3-10.2-12-12.3 6.5-22.6 16.8-33.7 25.5-6 6.5 15.7 1.9 20 6.3 8-7.2 35.2 4.3 24.5-16.2zM520 1284.7c44.8-7 90-9.3 134.9-15 19.2-1.7 38.4-2.3 57.5-4.2 6.7-.7 14.7 2.3 19.7-2.6-54.5-92.8-117.7-188.2-159.2-290.1-57-135.1-81.3-281.6-103.6-425.8-6-68.6-11.2-137.9-11.9-206.7.1-1.5 3.1-6.7-2.5-7.1-80.8-6.8-162.5-3.6-243-10-1.5 0-2.9-.2-2.7 2.3 7.6 82.3 14.6 164.6 25.5 246.5 7.7 102.5 34.6 201.1 62.2 299.5 32.1 121 82.9 236.2 150.3 341.6 13.5 19.5 28.8 38.1 40.4 58.6 8.8 15.3 19.6 15 32.4 13zm170.7 220.5c-7 0-15.1 1.6-15.1 10.4 0 7.1 1.9 16.7 11.4 16.1 8.4-.5 16.9-4.9 13-14.5-1-7.9-3.9-12-9.3-12zm-36.8-68.8c-17.8-.8-12.7 26.5 1.8 26 6.4.3 12.9-4.9 11.4-13.3 1-10.6-5.1-13-13.2-12.7zm-31.1 96.6c-16-.5-14.4 25.2.9 24.1 10.4.2 12.7-6.6 12.2-14.8-.6-7.6-6.9-9-13.1-9.3zm-2-162.7c6.7.4 6.2-8.1 6.3-13.8.2-10.3-8-10.5-14.4-10.2-5.6.3-8.6 5.2-7.8 11.4-1.3 12.4 9.8 12.3 15.9 12.6zM602 1474c-9.9-.5-7.8 7.3-9.1 11.6-.1 6.5.5 11.9 7.4 11.3 6.2-.5 12.5-1.7 12.9-10.4.4-8.3-3.1-12.1-11.2-12.5zm-29.6 89c-10-.1-9.6 8.6-10.2 14.5-.9 7.9 2.8 13.5 12 11.5 7.6.9 12.7-.5 12.9-9.5.4-10.7-4-16.4-14.7-16.5zM546 1425.3c-13.5-.2-17.5 26.4.6 25.7 3.3-2.5 12.2 1 11.9-7.5-.2-8-.1-18.7-12.5-18.2zm-15.7 93.6c-8.1-.7-12.8 2.4-13.1 10-.2 6.4.4 13.7 9.1 14 6.7.2 14-2.6 14.3-10.1.3-6.3.5-15.6-10.3-13.9zm-.7-139.9c6.8-.3 9.3-5.1 11.5-10-.9-15.3-25.2-20.3-24-3 .6 7.4 3.6 13.4 12.5 13zm-41 94.2c-14.4-1.3-12.9 25.7 1.9 24 12.1.9 10.8-8.9 11.1-15.3.3-7.7-7.6-8.1-13-8.7zm-11.9 96.3c-13-1.1-13.9 25.3 2.8 25.2 17.2-.2 17.5-26.2-2.8-25.2zm1.6-134.7c-1.6-11.5-26.5-12.2-23.8 6.6.3 7.8 6.8 7.7 13.9 7.7 10.6 1.7 10.6-7 9.9-14.3zm-49.4 58.2c-18.4.3-15.6 27.9 3.8 25.8 6.9 0 8.7-5.8 8.4-12.1.4-8.5-2.9-14-12.2-13.7zm-3.9 62.3c-13.9-1-13.5 24.6 1.8 21.7 10.9 1.5 7.9-7.5 8.7-12.6 1.1-7.3-5.3-9.3-10.5-9.1zm-59.8 9.6c-9.9-.5-15 3.7-14.3 13.9-1.1 8.1 5.2 11 10.6 10.9 11-.2 12.7-7.9 11.8-17.6-.6-5.8-3.3-6.9-8.1-7.2zm-2.5-95.6c-.9-5.1-9.1-5.9-14.2-6-7-.2-12.7 4.4-12.3 11.6.5 8.6 4.4 15.7 12 14.6 18.2-.5 15.8-12 14.5-20.2zM151 225.3c3.5-6.7 7.8-13 12.7-21-32.4 5.3-25.6 7.5-43.3 30.3-13.7 12.2-43.9 16.4-61.9 14.5-7.3-.7-17.8-1.2-19.1-7-3.3-32.7 41-48.6 67.6-48.2 26.4 1.2 23.7 13.4 53.6 1.8 18-3.8 21.3-21.7 29.8-34.1 16.7-24.5 33.4-47.8 53-70.4-11.2 1.4-21.7 3.5-32.3 3.7-20.9 3.2-11.3 31.1-60.7 32.4-15 .6-28.6-4.1-42.3-8.7-7.9-2.6-5.8-18.3 4.4-28.5 23-24.8 61.4-27.6 88-6.9 6 4.3 12.1 2.7 18.6 1.8 10.3-1.4 20.8-1.4 31.1-2.7 6.6-.8 9.3-7.4 13.2-11.6 13.1-14.3 27.9-26.8 42.3-39.7 6.3-5.6 13.4-10.5 19.7-16.2 4.8-4.2 8.8-9.2 11.8-14.9.6-2.2 5-4.4 5.7-.8-.5 12.3 7.4 21.6 12.2 32 7 15 13.9 30 20.2 45.3 1.6 3.9 4.3 4.8 7.1 5 12.5 1.5 24.3 7.2 36.7 10.2 3 1 4.7 1 7.5-.7 13.4-8.1 28.6-6 42.3-3.6 18.2 1.2 69.4 31 52 52.2-22.9 11.8-50.1-.1-70.4-10.9-8.6-4.2-18.1-8.6-23.2-16.7-9.6-14.3-31.1-14.8-45.5-21.9 8.1 31.3 26.9 60.4 39.2 90.5 3.6 8.3 11.5 2.2 17.3 5.9 4.9 3.3 11.9 3.1 17.1 6 8 4.4 10.4-2.7 15.3-5.5 24.7-16 76.5 12.4 82.7 38.4 2.2 8.8-7.6 11.6-12.4 13-33.9 9.6-56.6-9.3-78.3-31.7-5.4-5.6-15.5-6.6-23.4-9.8-4-1.3-7.7-4.8-12-3.2 14.4 34.2 29.8 69.6 50.9 100.2 3.7 4.6 13.6 3.7 19.7 7 17.7 9.5 33.3-3.7 49.9-3.4 19.9.7 40.1 17 51.4 32.8 5.3 9 .8 19.6-9.3 22.5-30.6 8.8-56.3-8.2-74.6-29-6.1-7-18.8-14.6-29.6-14.7 8 14.6 15.2 29.3 23.9 43.2 4 6.3 13.7 4.4 19.5 9.8 17.6 15.2 37 59.2 23.8 80.4-2.6 3.5-6.2 3-9.5 1.9-20.8-6.5-30.7-23-38.5-41.6-4.2-10.1-10.6-20.3-7.6-31.3 6-22.2-12-34.8-19.3-51.4-28.4-57.6-59.6-112.6-84-172.5-3.2 7.9-5.6 15.1-9 21.9-5.5 20.6 17.5 15.3-.8 65.8-3.5 18-44.4 61.9-50.8 25.6-5.4-34.4 5.7-70.9 37.6-88.7 9.6-5.2 8.7-16.8 13.8-24.9 9.6-15.4-4.4-26.6-9-39.2-11-30.9-23.9-60.9-37.8-90.6-1.7-4-3-1-4.4.3C315 34.9 296.4 52 277.9 69c-1.3 1.2-3 4.3-2.6 4.7 3.1 3.4 2.7 9.8 7.6 11.1 31.5 8 47.9 44 45.5 74-2.9 16.1-16.9 19.6-32.3 9.2-18.3-12.4-30.2-39.9-23.5-62.4 1.5-5 1.1-11.2-.2-16.4-1-3.9-2.4-11.2-9.9-3.3-20 21.2-38.2 44.1-54.4 68.3-7.2 11.3-14.3 15.5-4.2 30.1 1.7 2.6 3.6 4.4 5.1 4.5 35 2.7 53.8 46 49.7 72.7-2 13.4-12.9 10.1-20.9 8-18.2-4.9-33.7-27.5-37.7-45.4-3-14.8 5.4-33.2-8.6-43.7-17.5 33-60.5 70.9-40.2 111 2.8 5.3 11.9 6.9 16.4 11.8 17.9 20.1 21.3 50.4 17.4 76.3-1.6 8.9-9.2 13.8-17 9.3-18.7-10.9-26.7-28.5-31.5-48.5-3.1-12.9-4.4-26.5 2.7-37.2 6.4-10.4-.5-18.8 1.1-28.4-.6-2.5-3.4-1.3-5.5 3.8-10.6 24.7-19.6 50.2-30.8 74.7-5.6 14.8 14 26 3.2 55.1-32.3 93.3-81.1 42-43.9-23.4 6.9-12.1 16.1-21.2 27.1-29.7 5.7-4.4 7.2-14.6 10.1-22.3 14.5-37 31.3-72.9 50.4-107.6zM85.4 374.4c.3-.8-.3-2-.5-3-15 14.1-32.5 52-19.3 74.3 3.6-24.3 9.9-48.5 19.8-71.3zm12.8-6.2c-8.3 27.1-19.3 52.9-25.3 82.1 19.1-25.2 35.2-49.5 25.3-82.1zm61-43.4c5.6 15.8 7.4 35.3 19.1 47.8.5-24.3-3.6-52.3-23.4-69.1-.9 7.7 2.3 14.4 4.3 21.3zm-13.5-15c-6.4 13.8 2.4 45.5 18.1 60.9-6.4-21.4-12.3-41.3-18.1-60.9zm69.9-108l34.5 55.2c3.7-19.2-19.6-58.4-34.5-55.2zm-7.4 11.6c3.7 19.6 11 40.7 32.3 47.4-8.2-17.9-21.1-33.2-31.2-50.3-.6 1.2-1.3 2.1-1.1 2.9zm78.1-116.8l34 68c-1-29.3-7.9-51.2-34-68zm25.6 69.8c-13.1-18.7-23.9-39-32.1-60.3-6 21.3 14.8 60.6 32.1 60.3zm57.9 18C349.9 199.8 337 231 346 263.3c7.3-26.8 13.4-53.3 23.8-78.9zm12 12.8c-.6-3-.6-8.2-2-8.7-3.5-1.2-2.9 3.7-4.3 5.8-1.8 2.5-1.5 6.3-2.4 9.5-3.9 13.3-8.2 26.6-11.6 40-.9 3.4-4.6 7.1-1.3 10.8 11.4-2.8 23.5-45.2 21.6-57.4zm132.9 167c10.3 20.3 19.8 39.1 29.5 57.7.5.9 0 4.3 2.8 2.6 1.7-1 1.6-2.5.8-4.7-5.3-22.2-12.9-41.6-33.1-55.6zm-5.7 23c7.4 16.6 12.7 36.8 30.7 45.6-9.7-20.9-22.8-40.4-34.2-61.5-1.4 6.4 1.4 11.1 3.5 15.9zm26.1-76.6c.4.8.6 2 1.2 2.2 16.7 6 33.4 11.9 50.2 17.8l.6-1.1c-1.9-1-4.3-1.5-5.6-3-11.6-13.3-28.9-21.8-46.4-15.9zm-10 11.6c18.3 14.3 37.9 29.6 62.5 21.5-5.6-5.9-15.3-6.3-22.6-9.7l-39.2-13.7c-.3.6-.5 1.2-.7 1.9zm14.2-92.3l-57.7-19.1c16.8 13.5 33.6 27.1 57.7 19.1zm-64.9-33.4c.3.9.9 2.1 1.6 2.3 22 6 43.4 15.8 64.6 22.8-10-17.1-31.1-23.6-48.1-28.9-5.6 1.5-15.2.7-18.1 3.8zM439.9 98c24.4 7.8 47 15 69.9 24.3-17.4-20-42.6-29.6-69.9-24.3zm-.4 10.7c20 15.2 43.6 26.7 69.1 25.6 1.4-.1 2.4.1 2.2-1.4-.2-.8-.8-1.5-1.6-1.8-7.3-2.5-14.7-5.1-22.1-7.4-15.8-5-31.7-10-47.6-15zm-248.7-8.8c-24.1-2.1-47 8.7-71.1 12.6 22.1 7.9 56.6 8.7 71.1-12.6zm.1-11.8c-21.5-13.9-52.7-14.3-78.2 15.4 25.6-5.1 51.1-13.4 78.2-15.4zm-66.6 127.4c-23.9 9.8-47.3 13.8-68.6 24.4 15.8 6.3 54.8-6.6 68.6-24.4zm.9-9.6c-27.8-8.8-58.1 1.1-75.5 24.5 1.6.1 3.4.8 4.7.2 22.6-11 46.3-19.2 70.8-24.7zM308.5 1529c-14.1-2.9-11.7 21.8.3 21.8 7.1.4 11.9-4 12.3-11.8.7-9.5-6.5-9.3-12.6-10zm-44.8 38c-11.1-1.8-9.5 8.3-10.1 13.4-.6 5 1.8 11.7 9.3 12.9 10-2.6 13.4-9.9 13-19.1-.4-7.9-7.4-6.4-12.2-7.2zm-1.4-61.1c16.8-1.2 7.3-28.1-4.6-25.9-4.4.1-12.4 1.5-11.3 9.1 1.3 8.8 4.6 17.7 15.9 16.8zm-1.4-70.9c.7-10.2-8-11.2-14.9-11.8-5.9-.5-7.4 6.4-6.6 10 1.3 5.6-2.3 14.8 8.4 16.3 8.5-1.2 12.6-6.8 13.1-14.5zm-42.4 91.8c.1-4.1-.3-12-7.6-11.6-7.5.4-14.3 3.5-14 10.8-.1 12.7 8.2 12.2 14.5 12.8 9.3 1 7-7.9 7.1-12zm-15.5-71.9c-1.1-8.3-7.8-9.9-14.4-9.8-7.1.1-7.4 6.6-7.4 11.4 0 8.4 7.7 7 11.9 8.8 7.8-.2 10.7-4 9.9-10.4zm-14.7 113.5c-6.5.6-7.6 6.4-7.2 12.7-1.4 6.8 2.6 12 9 11.2 18.8.6 16.4-25.7-1.8-23.9zm-37.8-72.2c-8.1-.1-11.4 5-11 11.2.4 6.3 1 15 11.5 13.7 11.4 1.9 9.8-8.1 10.5-13.2.9-6.2-2.9-11.6-11-11.7zm-31.4 63c-6.7-.7-8.5 4.7-8.1 10.8-1.3 7.7 4.6 11.6 10.2 12.5 17.7 1.6 13.3-23.4-2.1-23.3zm-25.3-138.1c-7.3.9-8.1 8.6-8.4 13.2-.4 9.1 5.8 14.1 15.1 14.7 10.3.7 9.3-8.8 9.8-13.6 1.3-10.9-6-15.6-16.5-14.3zm6.9-100.8c-.9-12.7-23-14.1-21.8.1-.9 17.4 25.2 16.7 21.8-.1zm-27.3 177c-12.7-.8-14.4 23.4-1.3 23.3 18.3 1.8 21.2-24.1 1.3-23.3zM31.7 1561c-15.9-2.8-12.4 23.7.5 23.6 15.8 1.3 17.4-25.7-.5-23.6zm3.5-162c5.6.2 9.1-2.3 8.1-7.2-.3-7.9-1.4-14.3-9.2-14.7-16.1-1.4-15.2 24.1 1.1 21.9z"/></g><g><path d="M52 1548v15l-37 37h946l-37-37v-15H52M52 52V37.7L14.3 0H0v1600h15l37-37V52m872 0V37.7L961.7 0H14.3L52 37.7V52h872m52-52h-14.3L924 37.7V1563l37 37h15V0z"/><path d="M961 1600h15V0h-14.3L924 37.7V1563l37 37H0V0H961.7M52 52V37.7L14.3 0m.7 1600l37-37V52h872m0 1496H52" fill="none" stroke="#333" stroke-width="2" stroke-linecap="square" stroke-miterlimit="3"/></g></svg>