<svg xmlns="http://www.w3.org/2000/svg" xmlns:xlink="http://www.w3.org/1999/xlink" viewBox="0 0 976 1600"><path d="M960 22v1556c0 3.3-2.7 6-6 6H22c-3.3 0-6-2.7-6-6V22c0-3.3 2.7-6 6-6h932c3.3 0 6 2.7 6 6z" fill="#fff"/><defs><path id="a" d="M960 22v1556c0 3.3-2.7 6-6 6H22c-3.3 0-6-2.7-6-6V22c0-3.3 2.7-6 6-6h932c3.3 0 6 2.7 6 6z"/></defs><clipPath id="b"><use xlink:href="#a" overflow="visible"/></clipPath><g clip-path="url(#b)"><path d="M505.6 1290c-29.1-10.8-40.9-52.1-61.5-74.5-40.2-65.1-78.6-132.1-104-204.1-69.4-173.5-107-363.3-122.5-550.6-2.1-36.3-5.2-72.3-9.9-108.4 1.3-10-9.3-31.8 4.5-33.3 80.6 6 162.2 4 243.2 10 11.4-5.9 5.4 83.1 9.4 94.8 2.4 68.6 8.5 138.3 21.7 205.7C520.3 868.9 600.3 1057 734.9 1258c5.8 9.8-4.1 11.7-10.7 10.7-73.2 3.1-146 13-218.6 21.3z" fill="#5d4e8c"/><path d="M839 1556.3c-21.2-31.1-.2-105.7 14.7-136.8 19.6-24.9-47-14.1-59.5-20.5-41.5-10.6-88.3-15.7-121.4-46.7 34.4-41.3 100.1-62.2 152.7-63.6 29.2 6.3-22.6-68.7-22.8-93.6-15.2-50.6-21.4-101.3-26.3-153.6 1.2-8.8 8.9-1.8 11.8 2 65.5 49.8 105 118.4 144.9 186.4 11.3 17.2 39-43.1 47-25.5-.4 50.9-.1 109.5 0 160.8-3.3 3.3 6 100.4-4 100.8-21.4-29.7-12.6-40.3-36.6-1.1-29.9 40.3-57.6 69.7-100.5 91.4zm34.3-974.7c-6.3.7-6.9-11.7-8-17-6.4-38.4-14.2-77.3-8.3-116.8-.5-9.4 12.4-39.7-5.1-36-35.3 21-73.6 31.7-114.4 40.7-22.9 3-195.6 32.9-144.5-13.2 30.1-45.2 65.2-75.8 106.4-106.9 15.5-20.3 94.9-52 80-64.6-47.8-24.1-109.5-59.4-142.7-99.2 54.7-32.3 135.3-20 196.8-7.1 21 8.5 17.8-5.8 11.8-20-7.6-37.4-19.5-73.7-21.7-112 .7-24-8.4-100.6 27.2-55.2 44.3 45.4 90.9 94.4 116.3 153.4 18 16.9 11.7 59 12.9 82.4-.9 25.5.4 67.8 0 93.8-2.3 8.8 4.3 177.6-2.4 184.8-32 29.2-67.9 76.6-104.3 92.9z" fill="#333"/><path d="M256.1 958.3c-7.6-.4-10.4-9.5-12.6-15.4-20.1-36-18-82.8-25.5-121.5-43.3 16-80.6 48.3-131.3 53.8-13.1.9-56 17.4-56.3-1.5 23.5-42.4 60-75.7 96.9-105.7 19.6-21.1 65-36.8 14.2-51.3-36.9-15.9-92.1-43.6-103.8-79.8 43.1-21.3 94.8-7.5 138.8-4.3 4.8-27.1 7.5-57.1 19.4-81.7 4.7-6.7 16.4-43.9 25.2-31.3 7 78.9 16.6 157.8 33.7 229.2 14.7 41.4 22.1 86 35.9 128 .3 20-21.2 71.3-34.6 81.5z" fill="#ffeb5c"/><path d="M282.4 1604c-2.3-.1-4.2-2-4.1-4.4 0-.2 0-.4.1-.6 1.5-36.3-22.5-3.2-34.5 5-15.9-.3-43.6.1-59.3 0-3.7-2.5-41.6 6.2-31.5-7.7 5-17.8 37.5-53.1 1.4-51.3-53.3-11.4-110.7-22.4-156.9-52.2-9.9-9.6-46.9-31.8-34.6-45.6 39.8-20.4 85.7-24.3 130.2-23.4 112.8 11.2 52.9 8.1 39.6-70.3-19.6-66.8-30.1-139.5-54.6-202.5 9.5-6.1 19.8 7.3 27.4 12.1 56.1 41.8 99.7 95.9 141.6 151.7 12.3 8.6 23.3 53.8 38.7 38.5 41-52.3 94.5-83.7 154.7-120.2 28.7-3.7-34.7 171.9-47.1 187.8-6 7-2 16.2 8.1 13.7 22.1 0 43.6 4.4 64.1 8.9 32.9 5.8 66.6 18.5 97 30.6 7 14.1-37.1 28.3-47.3 35.9-146.1 77-243.4 12.6-194.4 87.6 7.2 12.3-35.2 4.2-38.6 6.4zm371.2-494c-88.5-140.6-129.2-296.9-159.9-460-19-60.6 40.5-1.5 59.9 14.4 22.7 12.1 57.5 90.4 69.2 78.3 41.3-71.2 136-94.1 204.8-127.9 17.9 5.8-39.3 110.8-50.1 125.9C664.6 901 706 804.4 840 887.6c38.8 22-58.8 35-72.2 40-25.9 6.2-54.3 2.8-79.5 6.5-6 22.4 4.7 55-3.8 79.2-6.4 32.2-10.8 72.4-30.9 96.7zm-516-639.3c-15.6-27.3.3-70.8 5.6-101.7 22.7-45.1-58.7 12.2-144.4-18h.2c-60-10.3 31.6-60.8 51.8-75.2 66.8-32.2 43.2-15.7 18.9-76.7C61.3 179.9 2 40.2 39.1 48.1 88 68 149.1 117 182.3 153.9c6 4.6 14 23.1 21.4 11.1 1.5-21.9 113.1-185.2 104.1-100 .2 45.7 16.8 86.4 13.9 132.8.6 11.8 14.9 3.6 22.5 5 35.3 1.6 65.9 14.4 99.5 22.3 43 14.4-72.5 75.1-90 81.8-25.6 9.7-58.7 21.5-85.3 8.2-8.1 7-55.3-5-62.6 2.5-.9 12.1 5.3 24.5-1.7 37.3 3.8 14 6.8 30 6.2 45.9-14 31.6-46 57.5-72.7 69.9z" fill="#d81e1e"/><path d="M979 1249.8c1.6 3.3-1.3 6.7-3.4 9.5-15.2 20.5-30 41.4-44.6 62.2-3.9 4.4-6.5.3-7.9-3.3-18.9-42.4-39.5-84.2-61.3-125.2 15.9 45.7 36.8 90.6 54.8 135.8 1.6 3.9 1.5 6.4-4.1 6.3-41.3-1.6-83.1 1.2-124 4.8 36.1 7.9 73.9 10 110.9 9 15.3-.7 33.2-1.3 19.4 16.9-10.7 32.7-28.5 63.1-34.3 97.2 67.5-102.1 32.3-126 90.6-3.8.9 1.8 1.2 4.1-.7 5.3-3 3.6-13.8-21.4-16.8-25.1-23.4 52.3-66 95.8-117.2 120.8-17.2 7.2-13-9.1-13-15.1.3-22.8-2.9-45.5 3-68.4 17.4-90.3 57.9-63-36-72.4-17.6-1.9-146.5-33.8-122-59.4 42-42.8 103.7-60.4 162.3-60.9-34.9-55.2-46.8-121.1-57.3-184.5-3.7-21.9.4-44.7-6.2-66.4 3.7-20.6 77.7 61 83.9 69.4 13.5 16.8 26.4 33.9 37.2 53 13.6 23.7 32.8 45 42.7 71 1.8 4 3.2 2.2 5 .7 10.3-8.7 20.8-17.4 30.9-26.4 2.6-2.3 4.8-1.6 7.5-1.4-9.5 16.3-26.9 27.2-39.5 41.2-2.4 2.3-4.8 1-5.6-1-39.2-74.4-86.8-146-152.9-198.8 7.3 79.6 19.6 156.9 55 228.8 2.7 5.3 4.5 11.3 9.2 15.8 4.7 5.6-6.9 7.2-10.8 7.2-19.8-1.1-39.4 1.9-58.3 6.4-35.9 8.5-69.1 25.7-96.6 50.2-11.5 7.5 54.9 30.5 61.7 31.6 33.4 11.9 68.3 16.3 103.4 19.4 1.7.2 2.8-1.8 5.3-1.2 17.9 4.2 17.4 3.9 6.9 23.8-16.7 33.1-21 71.7-21 108.4.1 6.3.5 12.8 2.2 18.8 1.1 3.9 4.4.1 6-.7 37.3-20.8 68.3-52.8 92.8-87.3 26.4-36.6 14.3-39.3-2.4-75.2-14.6 36.2-36.3 69.4-58.5 101.9-1.5 2.3-3 4.9-6.5 3.3-3.9-1.7-.9-4.7-.5-6.4 5.9-25 12.2-50.1 23.3-73.3 6.7-14 8.8-30 18.9-42.6 2.2-2.7 1.1-8.3 4.3-11.7-20.4-4-44 .6-65.4-1.8-15.5-.8-30.8-4-46.2-6.3-12.4-1.8-24.8-3.7-37.1-5.4-3-.4-7.5.8-6.8-4 5.5-15.9 124.5-14 145.1-14.2 2.3 0 3.2-1 2.4-3-9.2-22.3-18.4-44.5-27.7-66.8-18.3-43.6-36.4-87.2-55.1-130.6-.9-2.1-1.7-3.7.8-5s4.7-.6 6 1.7c36.1 60.6 67.3 123.8 99.2 186.6 5.4-6.4 42.2-66.2 49-59.4zm-2.1 30.5c-3.1-.6-4.7 2.2-6 4.6-10.3 17.9-20.7 35.8-30.7 53.9-3.2 5.8-3.4 10.6 5.8 10.3 10.2-1.5 22 2.9 31-2.7-5.8-11.5-33.7-.7-28.2-8 3.2-7.1 37.8-56.9 28.1-58.1zm-.9 84.9c-1.4-.9-3.7.5-4.8-.1-5.7 1.8-28.1-1.6-23.1 8.1 9.1 15.9 12.3 36 25.4 49.2 4.9-7.2-12.8-38-15.8-47.1-1-2.3.3-2.1 1.7-2.1 6-.8 22.8 3.2 16.6-8zM635.9 176.6c44.1 37.7 88.6 77.1 144 96.9-53.7 25.1-99.3 63.9-143.6 102.4-20.3 20.1-37.1 43.6-54.1 66.7-11.3 15.4-10.7 19.6 7.1 22.4 39.2 8.5 78.4 0 117.6-3.8 53.3-4.5 105-21.4 151.4-47.4.2 1.1.8 2.4.4 3.3-6.4 12.7-6.5 26.9-7.2 40.2-2.4 38.5.7 78.6 11.8 115.8 1.9 5-1.1 15.9 8.5 14 7.5-1.5 14.1-7.9 20.8-12.7 31.2-23.8 61.5-49.7 83.5-82.3 1.7-2.6 2.3-6.3-1-8-3.4-1.9-5.1 2.7-7 4.9-6.5 8-12.3 16.7-19.2 24.3-5.1 6.8-75.6 73.5-77.6 62-7-41.9-16.5-84.3-10.4-126.9 2.4-13.1 3.3-26.6 5.1-39.8.3-2 .2-3.5-1.5-4.8-9.4-3.6-25.5 14.3-36.4 16.3-13 4.2-25.4 10.4-38.5 14.5-65.1 19.6-137 31.3-204.5 21.5 47.8-71.9 116.2-126.9 190-170.6 10.1-6.9 27.9-10.6 4.8-21.9-49.8-20.8-90.9-57-134.9-87.5-6.1-4.5-6.7-8.9 2-11.1 54.4-16.2 112-15 167.2-3.8 14.6 1.6 28.5 10.1 43.4 6.7-1.3-9.6-6.1-18.2-8.5-27.4-3.7-15.3-6-31-10.5-46-11-42.7-16.6-89.2-6.8-132.2 14.1 11 25.3 25.1 37.9 37.7 21.3 20.6 40.5 43.3 57.1 67.9 14.4 18.7 27.9 39.2 36.5 61.2 2.2 6.1 10.6 10.7 10.6 17.5-.1 2.5-1.1 4.9-2.7 6.8-9.9 12.9-20.6 25.2-30.7 37.4-17.6-28.4-28.7-59.4-43-89.4C887 82.3 883 60.5 871.9 41.8c-4.8 3.7-8.5 7.7-7.1 14.6 3.4 16.7 3.5 33.8 7.7 50.5 3.7 14.5 3 30.2 6.8 44.7 7.3 27.8 11.8 56.6 25.4 82.4 2.7 11.9-17.3-1.6-22.1-2.4-48.5-20.6-98.7-38.1-150.8-46.3-11.9-1-23.9-.5-35.8-.1-1.5.1-3.1 3.7-4.1 6-.2.5 1.8 2.6 3.1 3.1 29.5 12.6 60.2 22.4 89.5 35.2 23.3 11.1 45.9 23.7 68.9 35.4 20 10.2 20.1 10.1 8 20.5-18.4 15-35.4 31.4-56.4 43-49 34.6-102.8 60.5-156 87.8-2.1 1.1-5.8 3.6-5.6 4.1 1.3 3.3 4.7 3.1 7.7 2.8 89.6-20.6 179.2-56.3 251.1-114.3 2 8.9-1 18.8 1.3 27.4 2.9 11.1 1.9 22.1.6 32.7-1.6 12.6.4 25.4-2.8 38-1.9 7.6-.7 16-1.7 23.9-2.5 33.2-13 65.4-13.1 98.9 7.4-.3 11-7 13.6-12.8 7.8-16.7 17.5-32.5 23.2-50.3 18.2-53.9 32.2-110 28.9-167.4 5.9 2.2 18.5 14.2 23.8 11.1 3.3-1.1 2.2-3.4 1-4.8-4.9-8.8-15.3-10.2-23.4-14.5-5.3-2.8-8-.4-8.3 4.5.9 75.3-15.8 147.7-50.3 215.7 1.6-23.4 9.4-44.3 11.8-67.4.9-16.5 20.9-157.3-10.9-140.6-60 50.2-130.4 77.3-204.4 101.7 5.2-4.6 6.7-6.9 8.8-7.6 25.6-9.5 48.1-24.8 71.5-38.4 37-23.7 75.3-45.7 105.1-78.5 5.4-5.3 1.8-10.4-3-13.1-14.1-8.1-28.4-15.8-42.9-23.2-38.2-20-76.3-36.9-117.7-50.3 15.9-6.1 29.2 3.6 44.7 5.1 21.8 2.8 42.3 10.5 62.9 17.1 25.2 8.1 49.5 19.2 74.2 28.8 10.3 5.9 21.8 1.7 17.8-11.6-7.1-25.1-15.5-49.9-21.6-75.2-3.9-27.4-11.5-54.2-14.5-81.7-2.4-1.8-1.6-4.1-.1-6.4 11.7 39.2 31.5 77 50.1 114 8.8 15.8 13.7 17.9 26.2 5.6 6.6-6.6 12.6-13.8 17.8-21.6 4.3-6.4 13.3-13.3 9.6-21.8-8.5-19.2-17.5-38.4-28.9-55.9-31.9-49.6-69.9-96.4-115.7-133.9-24.7-12.3-15 50.1-16.8 62.4-1.2 47.6 14.3 94 25.5 139.8-5.6 1.3-9.5-3.5-14.8-3.6-16.6-.6-32.3-6.6-48.8-8.8-21.5-2.9-42.8-3.7-64.3-3.4-13.6.1-113 9-80.7 33.9zM973 225.4c2.9-3.7 4.2-8.5 5.9-12.8.2-.3-1.6-1.4-2.9-2.6-11.1 8.8-19.2 20.6-28.3 31.4-3.6 4.8-8.6 11.1-.8 17 9.5 6.5 18.4 15 29.1 19.2 12.5-6-12.1-14.3-15.4-18.9-3-2.9-10.9-5-8.3-9.1 5.6-8.8 14-15.9 20.7-24.2zm-16.4 650.9c-12.6-.6-11.4 23 1.6 21.4 6.5.2 12.4-1.9 10.6-11 2.4-10.6-5.7-10.1-12.2-10.4zm3.2 143.1c-6.5 1-16.9-1.3-15.2 8.1.8 13 7.3 17.2 15.5 16.4 10.9-1.2 6.3-11.4 7.6-17.7.9-4.4-4.6-7.3-7.9-6.8zm-12-355.3c-18.8.5-15.7 34 3.7 28.9 9.4-2 10-10.3 11.6-17.8-2.1-7.8-7.9-11.3-15.3-11.1zm11.8 78.6c-.3-11.1-11-8.7-16.1-8.8-5.9-.2-8.6 7.8-8.5 14 .1 7 1.9 13.7 11.5 13.4 12.7-.4 13.4-9.4 13.1-18.6zm-14.3-144.8c-14.1.7-16.9 30-.2 27.1 13.4 1.9 11.9-10.3 13.2-16.2s-5.6-12.3-13-10.9zm1.8 243.1c13.4 1.7 15-24.1 1.1-23.2-8 .3-14.4 1.7-13.2 11.5-1.1 9.6 5.2 11.3 12.1 11.7zm-23.9 134.7c.3 4.9 2.2 11.4 8.9 11.1 6.4-.3 14-1 12.6-12.2-2.1-3 1.7-11.1-7-11.5s-15.1 3-14.5 12.6zm-2.1-59c1.1-15.8-21.7-13.1-21 1-.1 6.7 3.8 10.2 9.8 10 6.8-.2 9.1-6.2 11.2-11zm-10-181.1c0-15-2-16.7-16.7-16.6-10.6.1-7.3 9.3-8 14.5-1.5 10.6 7.4 11.4 14.6 11.4 5.3.1 9.8-4 10.1-9.3zm-15.2 312.7c14.3 0 15.8-29.7-2.1-25.3-12.5-2.4-11.7 8.2-12.3 14.7-.9 9.3 8.8 11 14.4 10.6zm-13.4-261c-1.6 14 23.3 14 22.3.7-.2-14-22.9-20.2-22.3-.7zm-1.1 190.2c7.5-.2 9.3-6 10.3-15.8 1-4.6-4.6-5.8-10.1-5.7-14.1-1.1-14.8 23.6-.2 21.5zm-8-319.9c-15.1 1.4-13.6 26.8 1.8 25.2 18.4 1.9 13-26.2-1.8-25.2zm-23.3 191.7c6.9 0 7.5-7.3 7.8-12.4.5-8.8-6.5-10.3-13.3-11-9.6-1-10.5 5.1-9.6 11.5-1.2 12.9 8.4 11.9 15.1 11.9zm-289.4 641c-73.9 49.4-162.8 71.8-251.2 71.1 5.5 11.4 10.3 23.2 15 34.9.1 4.5-3 9.1-6.7 3.7-13.2-27.9-27.3-55.5-38.5-84.3-1.4-3.7 2-6.8 6.1-6.7 55.3-1.2 103.6-8.8 160-17.1-54.7-1.6-108.6-5-163-.2-5.4.4-3.8-4-3-5.6 30.7-57.1 74.1-106.1 105.4-163.1-7.3 1-7.8 8.3-11.6 12.1-28.2 29.2-51.4 62.8-77.5 93.9-8 10-16 20-24 29.9-11 13.5-13.1 13.4-20.2-2-25.3-51.7-42.6-107.6-77.2-154.3 22.4 53.3 38.6 108.9 61.3 162.2 2 5.3 7.9 11.7 4.3 15.8-4.6 5.3-13.7 3.6-20 1.9-12.4-3.3-24.8-.7-37.3-3s-25.8-4.8-37.9-3.7c-21.6 1.9-42.9-3.8-64.7 0 55.6 12.8 111.7 21.4 167.7 31.7 3.6.6 3 2.6 1.6 4.6-21.8 29.1-40.4 62-64.5 88.7-.3-2.3-1.9-5.5-.9-6.9 17.9-26.5 36.5-52.5 54.3-79-3.6-1.3-7.3-3.5-11-3.7-28-1.7-54.7-9.9-82.1-14.6-33.5-7.6-69.5-11-100.9-25.1 8.2-8.4 52.3-5 65.1-4.1 40.6 3 80.9 4.2 121.3 8.8-4.1-19.2-15.5-36.7-21.5-55.6-8.5-22.9-15.3-46.5-24.4-69.2-18.1-43.4-36-86.9-55.2-129.8-.7-1.5.1-3.6.3-5.5 56.3 71.2 96.2 156.8 132 240.6 51.3-55 91.6-119.3 146.4-170.4 1 17.3-12.2 32.1-20 46.5-29.7 54-69.3 99.9-101.8 152.2 47-5.2 92.9-1.5 139.8-1.9 12.9 1.2 28.5 1 40.5 5.4-13.4 11.8-33.4 8.8-49.1 14.9-40.8 8.3-83 8.6-124.5 13.7-3.6.4-2.1 2.5-1.3 4.3 4.5 10.4 8.8 20.8 13.5 31.1 1.8 4 5.8 2.7 8.9 2.4 86-5.3 176.8-24.4 246.5-77.1-1.2-.9-2.3-2.4-3.5-2.5-13.3-1.2-24.4-8.6-36.5-13-43.6-13-88.9-25.9-134.8-22.7-1.2.1-2.9-1.8-3.9-3.1-1.4-1.7.8-2.4 1.4-3.6 32.3-61.2 54.2-128.4 61.3-197.3-56 33.5-114.9 68-155.5 120.3-7.2 9.1-13.5 8.9-19.9-1.3-7.9-12.7-16-25.4-25.1-37.2-33.1-41.4-63.4-85.9-104.4-120-14.1-13-29.1-24.9-44-37-3.6-2.2-10.7-7.9-14.3-6.6 10.5 19.5 16.4 41.5 23 62.8 5.3 14.7 5.4 31.2 8.8 46.6 3.5 16 8.1 31.7 12.3 47.5 11.2 36.9 16.1 76 38.2 108.6 2.6 4.2 9.6 7.1 6.6 13.9-.8 1.8-4.2 4.2-5.2 3.7-23.4-5.1-47.8-9.4-71.7-8.8-11.4.1-23.4.6-34.7.2-20.5-.7-39.4 5.5-58.7 9.8-12.5 1.8-23.8 7.3-35.1 13-4.1 1.9.2 4.9 1 6 32.4 44.7 87 58.5 137.3 73.1 22.8 5.3 46.1 10.7 69.3 13.1 12.6 2.8 4.5 10.3 2.4 15.4-5.6 13.6-12.1 26.8-18.4 40.1-1.2 2.8-5.4 3.8-7.4 1.4 22.5-76.9 45.6-31.6-62.2-63.5-48-11.5-97.9-33-126.8-75.2-6-10.3 2.2-23.6 16-26.6 11.8-2.5 23-7.6 34.7-10.6 29-9.1 59.1-6.9 89-5.7 17.8 0 35.2 2.9 52.5 6.4 3.1.6 6.1.1 2.6-3.8-23.5-29.8-29.3-67.9-37.8-103.8-8.6-28.4-14.3-57.3-20-86.4-7.6-29.9-13.8-60.3-31.5-86.6-.8-1.1-.3-4.6-.1-4.6 3.4-.4 7.6-1.8 10.2-.4 72.5 39.9 127.2 103.6 173.8 170.8 9.6 13.2 18.7 26.5 26.5 40.8 1.6 3 3.6 1.4 5-.5 19.2-29.5 48.9-48.5 76.2-69.7 26.2-18.8 52.7-36.9 82.1-50.3 3.2-1.8 3.9-3.5 1.2-7.3-21.4-31.2-39-65.1-57.9-97.8-37.3-73.6-68-149.2-90.7-228.8-5.4 16.4-20.7 63.8-36.6 67.9-32.1-13.7-40.6-101.9-40.3-134 3-7.2-4.3-3.5-7.6-.7-45.1 33-99.5 49.4-154.5 55.8-9.3 1.4-17.8-.2-26.3-2.5-7.7-2.1-1.8-9-.8-10.8 33.2-57.2 85.3-101 137.2-140.6-50.1-20.8-102.5-43.8-132.5-91.8-4.5-13.1 51.9-20.5 61.1-19.8 17.4-.5 35.8-.8 53.5 4.2 7.8 2.2 16.3 4.2 24.3 4.1 7.3 0 4.4-9.4 4.6-13.3 2.3-37.7 16.7-74 40.3-103.5 3-3.2.9-11.7.3-17.7-.9-9.9-2.7-19.8-3.8-29.7-2.1-14.9-1.9-30.4-4.9-45-8.5 12-72 81.1-78.9 46.4-7.5-35.8 5.6-71.6 13-106.4 2-10.4-7.1-1.8-9.5-1.3-43.1 9.4-88.4 9.6-130.8-3.5-9-2.4-17.7-5.7-26-9.9-5.8-3-2.6-9.6.4-12.5 8.6-8.3 17-17 25.7-25.3 24.4-26.1 57.7-41 90.1-54.7 6.1-2.9-2.3-7.9-4-10.5-33-55.6-55.5-118-63.2-182.3-4.9-12.1-1.2-26 15-18.2 63.2 26.4 118.9 71.3 160.4 125.4C217.5 109.9 256.9 63.7 305.4 30c9.2-6 7.4 27.8 7.3 32.1 1.3 44.7 16.4 87.9 14.3 132.6 0 3.2.8 4.8 4.1 4.1 43.5-5.6 84.9 13.2 125.5 25.6 25.5 8.6-53.3 64.7-64.5 69-16.6 8.7-32.9 17.8-51.5 24.8 39.5 2.4 77.1 4.5 116.3 4.4 14.9-.1 10.4 10 10.8 17.4.8 15 .8 30.1 1.5 45.1 3.8 72.9 10.7 145.6 19.6 218 1 15.6 14.4 15.5 23.2 21.2 45.2 27.3 78.3 69.2 104.5 114.6 1.4 2.2 5.1-2 8.6-8.2 7.4-13 18.8-22.3 29.6-32.5 9.8-9.1 19.5-18 30.9-24.6 26.9-15.8 55.1-29.3 84.3-40.5 22.3-8.4 45.4-14.9 63.5-31.7 4.4-3.2 11.9 2.5 8 8.1-6.2 17-11.7 34.2-18 51.1-23.7 65.3-65.8 122-111 174-3.2 3.3 1.8 1.8 1.8 3.2 44.1 1.1 83.2 21 120.8 41.9 8.6 4.2 14.3 11.7 21.9 17 2 1.4 5.3 2.9-.7 6.8-50.2 27-108.5 38.5-165 34.4-2.3-.5-.2 7.2.5 10.8 3.9 19.7 3.6 39.3-.1 58.9-5.3 29.5-9.9 59.7-23.3 86.7-6.4 14.3-8.3 26 1.4 39.9 20.1 31.8 38.3 64.8 58.2 96.7 11.6 16.7 31.5 45.7-5.4 45.3-51.5 2.3-102.4 9.2-153.5 14.7-20.5 2.7-41 5.2-61.4 7.9-13 1.7-18.7-8.4-25.2-16.3-8.7-10.6-16.1-22.2-24.3-33.1-1.9-2.6-3.5-5.2-3.6-12.1-8.5 68.7-24.3 131.5-59.2 190.8 58.3 3.4 116.7 17.1 169.1 43 10.4 4.9 9 11.5-3.7 19.2zM494 630.4c12.6 64.9 25.3 129.9 42.3 193.9 1.5 5.5.7 12.9 6.5 16.3 11.8 6.8 23.9 13 36.1 19.5-9.8-28-13.6-58.8-25-86.3-8.2-21.8-16.8-43.6-28.8-63.9-1.3-2.5-.6-5.6 1.6-7.3 4.8-.8 9.8 7.7 13 10.9C568 752.1 593 792.9 608 838.6c52.1-60.7 107.5-119.7 172.7-166.6 2.4-1.6 4.3-2.5 6.2 0 2.9 3.8-1.1 7.1-2.5 8.4-17 15.7-34.8 30.6-50 48.1-12 13.8-26.2 26.1-35.8 41.3-23.1 31.4-49.7 60.8-69.3 94.5 26.5 1.6 53.2.7 79.6 6.5 4.2.5 91.1 17.4 67 22.3-18.8 2.1-38.1 0-57.2 1.7-33.3-1.9-66.3-1.5-99.4 2.3-1.6.1-2.4.1-1.3 2.3 23 46.6 31.5 100.1 32.1 151.6-2.6-2.4-5.1-5-7.4-7.6-12.2-38-24.3-78.2-45.7-112.7-3.5-6.7-3.9-7-8.9 2.9-3.5 7-11 13.8-7.9 22 20 52.5 47.7 100.5 73.5 150.5 20.7-46.3 33.2-99 29.6-150.2-1.1-7.9-5.6-18.1 2.4-24.8 7.5-6.2 17.2-.3 26.1-1.7 43-2.8 85.7-8.5 125.5-26.2 11.9-2.8 10.8-6.5.8-12-38.8-21.5-80.1-39.5-124.6-44.6-5.3-.8-13 1.6-16.2-4.3-2.9-5.2 3.9-6.4 6.5-9.3 54.5-62.5 101.9-134.2 124.6-214.3-70.3 35.2-157.3 52.9-201.6 124.8-4.5 7.4-12.2 14.8-16.8 2.8-26.8-48.8-65.9-95.1-116.1-120.2 0 1.4 0 2.9.1 4.3zm71.2 287.1c2.8 7.8 5.9 15.5 9 23.5 4.4-9.2 8.4-18.3 13.2-27.1.5-1 1.4-8.3 5.5-3.4 20.5 23.1 28.8 49.5 42.4 78.1C632 956 624 927.8 608.6 900c-8.9-15.2 2.6-10.6 9.2-11 10-.6 20-1 30-1.2 20.3-.2 40.4-4.1 60.8-1.4 9.2 1.2 18.8 1.4 30.2-2.3-38.5-8.6-72-10.8-110.1-12.6-6.5-.5-20.7 2.4-8.2-12.1 4.7-5.4 8.2-11.9 12.4-17.7 12.4-17 24.6-34.3 37.6-50.9 5.9-7.5 12.7-14.3 18.3-27.3-121.3 118-49.9 121.5-132.7-12.6.6 6.6 0 9.4 1.1 10.9 6.8 9.1 8.8 19.9 11.8 30.3 6.2 21.6 12.3 43.2 17.3 65.1.8 3.7 6.2 8.6.7 12.6-5.8 4.3-9.5-1.7-13.8-3.9-9.2-4.7-18.1-10-27.9-13.3 1.3 4.7 1.7 10 4.1 14 1.7 2.9 6 4.7 9.4 6.1 18.6 7.5 22.1 17.8 11.9 34.1-2 3.5-7.2 5.7-5.5 10.7zm-8.6-35.8c-.9-.4-1.8-.6-2.7-.9-1.9 6.7 5.4 17.1 7 24.1 10.6-10.7 7.6-18.1-4.3-23.2zm-350.3-481c.2-11.7-1.6-23.5-2.7-35.7-90.2 137.2-25.8-15.5-1.7-60.5-14.3 1.5-25.9 7.9-38.8 9-35 4.3-69.6 11.7-104.9 13.2-9.8 1.2-19-4.1-28.5-.6-10 5.2-15.3-5.9-5.2-10.6 49.5-23.2 101.8-39.6 156.5-43-7.3-2.7-135.4-190.7-99.8-168.4 47.7 45.8 82.3 104.3 130.9 149.1 8.7-33.9 20-67.7 35.2-99.6 6.9-15.3 14.5-30.2 22.4-44.9 6.9-10.9 16.3-7.3 9.7 4.2-1.1 1.9-1.8 3.9-2 6.1-.4 14.3-7 27.2-9.4 41-6.3 35.3-18.2 70.2-18.5 106.3 17.4-6.9 34.7-13.7 53.2-17.8 6.9-2.4 114.7-18.1 89.8 2.1-44.4 11.6-88 26.7-129 47.6 4.4 5.5 7.8 14 13.4 15.9 9.5 3.1 19.5 3.8 29.4 2.2 53.5-9.3 102-38.1 140.7-75.7 9.1-8.9 3.7-9.6-4-11.6-38.6-8-77.8-28.6-117.8-19.6-7.1 2-8.6 0-7.8-5.7 1.5-12.1 2.5-24.1 0-36.2-4.4-25.5-6.8-51.8-11.7-77.1-2.8-16.4-.4-32.3-2.8-48.3-43.4 30.8-76.4 76.3-95.7 125.9-6.5 24.2-18.9-4.6-27.5-11.3-40.7-43.2-88-81.3-142.6-105.3-15.1-13.8 4.1 62.1 6.4 66.6 15.3 45.1 31.1 91.6 58.1 131.2 5.3 7 1.3 8.3-3.2 9.5-42.9 13.6-80.9 40.8-112.3 72.4-4.7 4.9-8.7 9.8 2.5 12.6 11.6 3 22.7 7.5 34.7 8.7 17 1.6 34.1 3.6 51.1 4 23.5-1 47.2-6.6 70.1-12.1 7.6-2.7 10.2 2.6 8.2 8.9-11.6 35.9-19.6 74.2-15.3 111.9 0 2.6 1 1.2 2.3.5 26.9-14.6 53-37.5 66.6-64.9zm-4.5-75.4c-7.3 10-10.6 22.9-15.6 34.3-4.1 11.1-11.9 20.8-13.1 34.3 15.2-20.8 36.8-40.6 28.7-68.6zm5.7-14.6l54.3 2.9c-8.1-7.8-13.7-15-2.6-21.3 34.9-21.2 69.6-30.5 109.7-43.7-42.1 3.8-78.6 10.4-116.7 26-5.9 2.1-14.8 4.2-13.1-8.2 2.1-15.4 3.6-30.9 6.2-46.2C249.7 193.5 260 168 263 141c-19 37-31.1 77.2-42.4 117-.7 2.5.4 8-5.2 8.3-10.6-1.1-16.4-16.9-24.9-22.9-34-32.8-59.5-70.2-89.2-107.5-.1 2.1-.5 3.1-.1 3.7 24.3 42.3 50.2 83.5 80.4 121.9 20.3 15.3-4.8 19.4-18.9 21.5-42.5 5.7-84 15.8-122.4 35.8 31.5-.9 62.8-4.2 93.8-9.7 19.3-2.8 38.5-5.1 57.1-11.5 5.6-2 13.4-3.1 18.6 1.1 4.3 3.6-1.6 7.9-2.3 12zm79.1 566.9c-12.9-41.4-21.9-84.1-34.4-125.7-26.7 21.7-55.3 42.4-86.3 58-13.7 5.4-59 31.5-70.2 26.6-.3-.2.2-1.9.7-2.3 20.4-18 45.7-29.6 66.8-46.5 23.1-19.8 49.6-37.7 69-61.1-18-4.2-124.6-47.5-125-62.8.4-.9 2.1-2 2.9-1.7 42.7 10 84.7 24.6 128.4 29.7-10.8-56-15.4-112.4-21.5-171.8-20.7 34.2-33.5 66.7-34.4 106.2 0 4.4 2.7 16.3-9.8 12.2-17.9-6.5-37.1-5.5-55.7-8.7-17.5-2.5-34.7 1.5-52.1 2.4-8.8.5-17.1 4.1-25.7 8.4 39.3 45.4 76.4 62 130.5 84.7 3.8 1.8 8.4 4.3 2.6 9.3-49.3 44-107.5 82.8-139.2 142.5 18 3.2 35.4-2.3 52.6-5.7 47.8-7.4 89.8-33 130.9-57.2 1.9-1.1 2.9-4.3 6.1-2.5 2.8 1.6 2.2 4.2 2.1 6.6-.8 46.2 5 94.8 28.3 134.9 5.3 4.1 6.3-3.8 7.2-5.5 7.7-17.2 28.1-52.6 26.2-70zm-47.3-176.1c-31.2-6.1-62.7-13-93.7-20.8l-.4 1.4c27.1 14.7 56 25 85.2 34.5 4.8 1.6 11.2 5.5 13.4-2.1 1-3.9.2-11.4-4.5-13zM224 747.7c-24.9 22.6-51 43.6-79 62.3l.6 1c31.9-14.1 61.4-33.3 89.3-54.3 9-7.2 18.9-13.1 12.2-27-.6-1.1.3-3.8-2.3-1.4-7 6.4-13.7 13.1-20.8 19.4zm223.4 465.5c13.4 19.5 26.7 38.9 40.7 57.9 5.9 7.9 8.5 17.3 22.6 14.2 16.5-3.6 33.8-3.7 50.7-5.5 55.4-6.5 110.8-13.9 166.7-15.1 1.3 0 6.9 1 3.5-4.6-57.5-93.3-117-186-158.9-287.6-45.3-105.7-67.9-219.3-88.4-332.1-19.3-99-25-200.1-26.8-300.6.1-1.1 3-6.3-2.4-6.7-46.7-2.7-93.5-4.4-140.2-5.9-34.2-1.6-68.9.1-102.8-4.1-1.4 0-3-.5-2.8 2.2.9 8.9 1.4 17.8 2.3 26.7 11.4 108.2 19.6 216.8 35.8 324.4 17.7 82.2 40.7 163.4 63.1 244.3 34 102.2 78 201.7 136.9 292.5zm397.4-459.5c2.3-12.8-23.5-12.9-22.6 4-.7 11.7 9.3 11 15.3 10.8 8.2-.2 6.3-9.3 7.3-14.8zm-36 199.5c-12.5 1.7-10 24.6 1 23.9 12.6.3 14-6.8 13.8-14.2-.3-9.7-7.9-11.1-14.8-9.7zm-25 469.7c-17.5.5-22.7 29.4 1.3 24.6 11.8.5 14.4-27.7-1.3-24.6zm-4.1-625.8c-14.4-.3-11.5 23.3 1.1 24 16.8-1.9 14.9-24.8-1.1-24zm-8.8 768c-19.6-.2-23.7 22.5-4.8 26.1 8.5.9 13.8-2 13-11.7 0-9.2-3.1-15-8.2-14.4zm3.6-66.7c.4-5.4-3-11.3-9.9-10.3-7 1-15.5 2.6-15.4 12.2.1 9.3 7.3 12.1 16.5 13 7.5-1.4 8.4-8.9 8.8-14.9zM761.4 110.6c7.3-.1 10.5-6.9 9.6-15 1.9-10.7-4.3-13-13.8-12.1-18.4 3.1-14.4 28.5 4.2 27.1zm-49.3 1316.3c-6.5 1.3-6.4 8.1-6.5 12.2-.3 9.1 6.4 12.2 17.3 12.3 10.1.9 10-10 9.6-16.6-.8-14.8-12-9.7-20.4-7.9zm2.3-1376.2c10.9-.5 13.2-10.1 14.2-18.1.8-5.9-4.6-9.6-12.8-9.8-14.4 1.6-21.1 30.3-1.4 27.9zm-6.3 1478.7c-9.4-.2-9.8 8.4-9.8 15.1-.1 9 7.3 9.8 15.9 10.9 7.5-3 6.3-10.8 5.4-17.2-.9-5.5-7.4-8.7-11.5-8.8zm-30.3-48.5c-14.1-1.4-15.6 21-3.7 21.7 6.7-.2 13.7-3.1 13-10.9.1-7.8-2.7-11-9.3-10.8zm-8.9-62.1c2.6-18.5-24.4-17.1-22.9.1-1.2 15.4 25.3 15.9 22.9-.1zM637.3 102.9c23.3 2.9 23.2-23.6 3.9-25.7-10.8-2.2-10 8.4-11.8 14.1-1.3 4.9 1.6 10 6.5 11.4.5 0 .9.1 1.4.2zm4.6 1456.4c-17.5-1.6-14.3 26.9.3 26.8 12.7.9 15.8-26.3-.3-26.8zm-32-108.9c-7.4-.8-12.8 4-12.7 11.5.1 5.6 4.4 9.2 12 9.3 6.5 1.1 6.1-5.3 6.5-9.8s-.3-10.4-5.8-11zm-20 64.2c-12.3-1.2-12.7 24.5-.6 23.5 17.2.7 18.3-23.9.6-23.5zM573.4 94.8c15.5 1.5 11.1-27-2.7-25.6-12.2.8-14.6 25.9 2.7 25.6zm-6.1 114.9c8.7-.1 15.3-4.8 13.8-14.6.2-9.2-4-13.2-11.6-14.3-10.8-1.5-11.6 5.9-12.3 12.9-.9 7.6-.2 16.1 10.1 16zm-28.8 1185.9c2.4 13.1 22.8 11.8 22.7-2.2-1-15.5-27.3-16.7-22.7 2.2zM532.6 46.1c19.4 1.5 20.6-28.4 3.3-25-18-5.2-17.6 25.3-3.3 25zm-5.8 1499.1c-19.8.5-18.5 28.8.3 27.8 15.1.4 15.8-28.2-.3-27.8zM481.9 108c10.5.4 11.1-7.8 11.7-17.2-1.7-8.7-10.1-7.6-16.7-7.6-7.7 0-7.1 8.1-7.5 12.4-.6 7.6 5.3 12.2 12.5 12.4zm-15 1467.4c-6.3.3-12.7 4.7-11.9 14.3-1.8 7.5 3.1 9.6 7.9 10.2 19 4.7 22.8-24.4 4-24.5zM442.5 62c15.1-1 17.4-27.1.9-26.5-14.1-.9-18.1 28.2-.9 26.5zm-17.6 107.9c13 0 17.8-29.7 4-28.9-18.2-2.6-23 31.2-4 28.9zm-35.4-75.3c16.6-.8 13.7-24.2-2.9-24.4-13.1.8-10.9 27.1 2.9 24.4zM368.9 43c16.6 3.2 15.2-23.5-1.7-21.5-6.7.6-7.6 8.2-8.3 14.3-.8 7.8 4.3 7.6 10 7.2zm1.6 76.2c-12.3.1-11.7 23.9 1.3 21.6 12.9-1.6 10.7-22-1.3-21.6zm-106.8 1420c-1.3-3.7-3.2-9.8-8-4.2-17.1 19.8-33.5 40.1-50 60.3-1.1 1.3-1.3 3.1-.7 4.7 2.3 4.5 4.4 3.3 6 0 13.6-16.8 26.9-33.9 40.6-50.6 1.4-1.7 4.2-7.8 6.4-3.9 4.9 8.9 7.6 18.9 12.1 31-8.8 4.6-16.1 14.1-24 20.5-5.2 4.3-.7 8.5 4.6 5.3 7.7-5.8 14.9-12.2 21.6-19.1 8.4 8 1 14.5 10.1 15.7 4.3-.1 1.3-3.1.6-5-3.8-19.1-12.7-36.6-19.3-54.7zM235.9 35.6c10.6-.1 8.8-9.2 10.1-16.3-.5-7.3-7.5-10.5-12.2-9.7-12.9 2.2-13 27.5 2.1 26zm-25.1 947.2c6.4.7 6.7-5.7 7-9.9.6-8.6-4.5-12-12.7-11.9-7.1.1-7.9 4.8-8.2 10.1-.8 10.4 7.3 11.1 13.9 11.7zm-4.5-897.4c9.2-1.8 10.4-10.3 10-15.9-.4-6.1-7.8-10-14.2-10.4-8-.4-11 6.1-11 12.7.1 9.6 8.6 10.8 15.2 13.6zm-15.6 941.8c-10.7 1.8-9.5 23-1.3 21.6 14.4 2.8 16.1-23.9 1.3-21.6zM176.5 30.5c13 1.5 14.3-24.1.7-22.7-10.2.1-16.9 21.5-.7 22.7zm-22 902.5c-6.9.5-6.7 7.6-7 11.3-.7 8.6 5.8 11.1 13.5 10.8 7.5-.3 5.6-6.7 6-7.7 3-14.7-4.7-14.9-12.5-14.4zM144.1 71.3c8.4-.7 9.3-7.3 9.8-13.3.8-9-7-11.2-13.1-11.9-15.6.3-11 24.8 3.3 25.2zM133 1004.2c1 10 18.6 12.4 17.9-.5 0-4 .5-10.5-5.9-10.4-5.4 0-12.1.5-12 10.9zm-7.2 54.9c-10.8.4-8.4 25.6 4.4 22 8.2 1.2 10.4-3.9 11-10.8.8-12.3-7.5-11.9-15.4-11.2zm-13.5-144.3c-8.8.1-8.9 5.8-9.1 7.4-.5 9.5-.5 15.3 6.4 14.6 5.7-.5 13-2.5 13.8-8.9.9-6.6-1.4-13.2-11.1-13.1zm-24.9 61.1c5.4-.6 12.8.6 11.9-11.1 1.9-12.6-20-12-19.6.5.3 3.7-.3 11.5 7.7 10.6zM87 524.4c8.4-.6 7.5-10.1 7.9-13.7.2-8.4 1.8-13.6-7.1-14-21.2-1.2-21.9 30.3-.8 27.7zM69.4 22c-.2 8 7.8 9.3 14.1 9.4 7.8 0 9.4-6.3 9.4-12.5 0-8-3.9-12.6-13.1-11.8C67.2 4.7 69.5 15.8 69.4 22zm1.7 1004.2c.7 7.3 6.7 9.4 12.6 9 6.3-.4 5.4-6.3 5.7-12.8 2.1-8-4.2-8.1-11-7.5-7.1.7-7.8 6-7.3 11.3zm-15.2 316.7c.3 7.9 3.6 13.2 11.6 12.2 11.3.7 11.3-7.4 11.3-13.6-1.6-17.2-25-17.4-22.9 1.4zm-4.8-284c-12.5-.2-11.9 20.1.3 20.4 10.8-1.4 12.3-21.2-.3-20.4zM43.7 910c-6.9-.5-8.4 6.8-8 9.8.6 4.8-.3 14.2 10.1 11 10.7 2.7 9.6-5.8 10.2-11.6 1-9.1-6.4-8.7-12.3-9.2zm-12.1 290c.8 4.2-1.6 14.5 9.1 10.9 9 1.5 11.9-2.6 12.6-10.9 1-11.1-7.7-11.1-13.8-11.6-6.6-.6-8.9 6.9-7.9 11.6zm-.7-739.5c15.3 2.3 20.9-27.4 3.5-27.6-15.1-.8-16.8 26-3.5 27.6zm-20.3 66.4c1.8 5.6.4 14.7 9.6 13.8 14.3-1.4 18.9-11.3 16.6-24.6-1.2-6.8-8.4-6.4-12.4-6.3-10.1 0-11.8 8.8-13.8 17.1zm12.1 454c-9.2-.6-8.9 7.2-9.3 12.3-.3 3.6.5 9.9 7.5 9.9 17.7 2.2 20-22.6 1.8-22.2zm-6.1 305.3c5.9.2 16.6-.4 14.4-12 1.3-10.6-6.1-14.2-13.5-14.8-14.1-1-13.1 26-.9 26.8zm6-167c-4.4.5-11.8-2.3-11.8 7.8 1.5 4.7 1.2 11.9 9.6 12 11.9 1.6 15.4-20.7 2.2-19.8zM6.2 1367c1.2 12.5 20.3 12.9 20-.2 1-14.9-21.6-15.8-20 .2z"/></g><g><path d="M52 1548v15l-37 37h946l-37-37v-15H52M52 52V37.7L14.3 0H0v1600h15l37-37V52m872 0V37.7L961.7 0H14.3L52 37.7V52h872m52-52h-14.3L924 37.7V1563l37 37h15V0z"/><path d="M961 1600h15V0h-14.3L924 37.7V1563l37 37H0V0H961.7M52 52V37.7L14.3 0m.7 1600l37-37V52h872m0 1496H52" fill="none" stroke="#333" stroke-width="2" stroke-linecap="square" stroke-miterlimit="3"/></g></svg>