<svg xmlns="http://www.w3.org/2000/svg" xmlns:xlink="http://www.w3.org/1999/xlink" viewBox="0 0 976 1600"><style>.st2{fill:#333}</style><path d="M960 22v1556c0 3.3-2.7 6-6 6H22c-3.3 0-6-2.7-6-6V22c0-3.3 2.7-6 6-6h932c3.3 0 6 2.7 6 6z" fill="#fff" id="Paper_Backing"/><g id="Wikipedia_Cropped"><defs><path id="SVGID_1_" d="M960 22v1556c0 3.3-2.7 6-6 6H22c-3.3 0-6-2.7-6-6V22c0-3.3 2.7-6 6-6h932c3.3 0 6 2.7 6 6z"/></defs><clipPath id="SVGID_2_"><use xlink:href="#SVGID_1_" overflow="visible"/></clipPath><g clip-path="url(#SVGID_2_)"><path class="st2" d="M150.2 1426.5c-10.6-2.8-14-10.1-15-21.6-4.3-15.5-12.3-32.1-15.6-48.7-17.7-49.8-35.9-102-56.7-150.8-15.3-36.6-30.9-72-48.4-106.4-31.9-11-15.2-349.6-18.2-376.2 2-208.5-29.4-462.4 104.3-639.3 20.9-29.9 70.1-76.1 97.2-87.2 28.3 2 146.8-2 172.8-.3 3.1 1.6 6.1.9 9.2 0 3.3 2 201-3.7 202.7 1.9-13.6 36.7-37.5 73.2-56.5 107-98.9 192.3-247.3 358.7-352.4 545.2-39.8 79.8-47.4 168.7-38.2 257.9-20.8 32.8-35.9 80.2-34.5 115.8 10.5 19.5 24.4-17.8 32.9-22.1 6.5 1.8 7.3 16.8 16.3 8.8 50.5 109.6 54.9 298.3.1 416zm664.3-425.3C654.2 795.9 594.1 530.1 667.7 285.1c-76 28.9-130.5 110-162.4 182.9-13.3 30.2-22.8 64.1-31.9 94.8-2.3 17.3-2.6 40.1-16.4 51.7-40.6-21.1-55.7-93.8-58.1-141.3-5.5-78.8 36.3-154.3 88.7-212.5 81.6-89.2 197.3-149.7 319.8-163 11.3-3.5 26.6 1.8 35.6-4.3C859.8 73 875.3 57.7 891.3 37c3.8-3.1 6.5-9.8 12.3-7.9 9.2-3.3 10.6-16.8 22-19.6 8.1-.6 1.5-13 8.9-13.5 2.8.4 47.4-3.3 45.6 4-.8 110.5.4 357.3 0 463.3-59.3 104-103.7 230-130.2 346.8-7.3 39.5-15.4 80.4-20.7 119.5-4.4 23 2.2 55.9-14.7 71.6z"/><path d="M103.8 1032.8c-3.6.1-5.3-4.4-4.7-6.9 2.7-54 24.4-101.2 52-146.7 4.2-22.2.3-41 16.7-63 12.9-2 13.4-19.6 18.2-27.9 9.7-16.7 19.8 11.7 32.3 9.3 9.5-1.4 18.9 3.5 27.7 2.8 4-2.5 7.6-3.7 11.1-3.7 2.9 0 5.4-2.1 5.9-5 2.6-5.1 10.1-6.4 14-10.6 38.3-24 14.7-75.8 27.6-70.3 16.7 6.2 35 20.6 53.3 15 12.2-4.7 11.3-18.6 14.6-29.5 10.2-42.8 54.3-46.4 92.4-38.9 4.7.2 10.6 8 15.5 2.5 47.9-10.5 101 7.8 148.8 16.3l-.4-.3c13.1 20.3-37.7 16.2-43 28.6-2.4 10.5 29.7 14.3 16.7 23.7-79.3-3.5 10 31.6-60 16.8-16 3.9 4.5 14.6 2.2 22.3-8.3 7.3-25-6.2-32.4 2.9-2.7 8.2 11.6 15.1 10.8 22.2-.5 14.4 13.2 26.4 14.8 54.5 9.2 38.6 7.2 81-2.8 121.1-9.8 8.8-22-18.9-31.4-22.7-8.4-5.5-35.8-37-39.1-16.3-8.3 13.8-47-5-60.5-6.5-23.7-.3-78.6-66.2-75.3-19.5 2.5 12.8-10.6 13.1-15.1 5.2-30.2-29.4-16.9 7.1-33.9 17.7-30.7-32.4-19.6 20.6-42.3 17.9-21-33.5-24.6 4.7-42.2 19.6-3.4 4.6-7.4 2.6-11.7 1.3-12.8 9.1-17.6 28.5-29.6 40.4-14.6 25.4-11-10-24.3 2.3-7.1 9-15.6 20.6-25.9 25.4z" fill="#ffeb5c"/><path class="st2" d="M832.5 1604c-11.2-83.9-10-183.5-13.2-273 1.5-33.8-9.3-68-6.7-102.3-1-8.1-7.9-21.3 1.5-26.6 3.3-2.1 3.3-6.3 1.2-9.3-6.7-14.9-4.4-29.8-2.4-44.3 4.3-37.8 24-63.1 41.7-94.7 41.3-86.3 58.2-183.1 89.8-273.3 8.3-27.4 14.3-57.2 31.5-76.7 12.2 7.3-2 131 4 136.7-3.3 4 6.4 249.4-3.6 249.4-30.3 86.9-30.8 191.8-29.5 285.7 4.5 64.4 7.7 129.6 16.7 193.5-1.8 9.5 10 31.4 1.3 35.1l-132.3-.2z"/><path d="M742.1 1501.7c-13.6-31.9-14.9-75.3-28.1-109.9-17.2-51.9-39.5-102-66.6-149.5-32.5-55-70.4-108.1-114.6-154.7-55.2-68.1-24.3 23.3-26.5 53.6-1.6 9.4 3.9 24.8-2.7 32.4-6.2 1.8-3.3 9.9-5 14 .7 11.5 10.7 23.6 4.2 35.5-1.3 2.4-.9 5.3 1 7.2 6.9 10 .5 24.3 4.3 34.4 1 26.8 1.7 50.7-2.7 76.6 1.2 18.3 3.8 46.7-6.7 61.3-11-22.9-2.6-58.8-9.1-85.5-9.4-92.8-33.3-184.8-73.3-269.7-13.7-29.3-29.4-59-47.9-85-8.2-10.3-15-19.1-8.2-31.7 4.1-10.1 2-24.1 7.8-33 27.9 13.7 59.1 26.8 93.2 28.5 10.5 8.3.7 15.1 19.4 11.9 68.3 49.9 115.9 121.2 156.1 194.2 2.3 6.7-4.8 7.4-5.7 12.6 1.5 7.7 10.2 13.5 10.2 21.9.4 2.3 2 4.1 4.2 4.8 10.5 11.5 12.7 28.2 23.1 39.2 2.5 3.9 5 8 4.6 12.3 5.2 9.8 14.1 16 13.5 30.9 5.2 7.8 15.5 15.2 14.7 26.5 6.1 11.2 14 24.4 13.8 37.8 6.4 12.4 13.4 27.4 11.6 43.2-2.1 4.4-.7 8.6 3.2 11.3 9.1 10.3 3.9 26.9 8.6 38.2 7 21.2 5.4 45.8 7 67.6-1.4 7 4.8 20.4-3.4 23.1zM266.9 796.5c-23.4-6-50.6-2.3-67.8-21.4-29.9-20.5-12.2-65.3 19.5-73.9 74.3-13.9 28.1-.6 90.4-48.9 30.3-13.1-10.9 37.4-14.2 46.5-5.2 9.3 8.8 9 11.9 14.5 11.2 31.3-9.8 70-39.8 83.2z" fill="#d81e1e"/><path d="M979.3 832.2c-36.1 80.8-53.2 167-72.4 252.9-9.3 45.5-22.5 89.9-32 135.4-7.5 26.8-2.1 50.1 17.6 69.5 1.8 2.9 9.3 3.4 5 8.4s-9.3-.2-12.3-2.7c-32.7-24.2-25.5-71.5-12.7-114.2 9.8-37.7 18.3-75.8 28.3-113.6 14-66.2 27.8-133.1 53-196.1 4.4-7.6 19.4-51.5 26.5-48.3 3.3 1.8.2 5.5-1 8.7zM976 430.1c-7.7-12.4-27.6-77.8-19.1-89 5.8-10.1 14.7-18.4 21-28.4 2.3-3.6 10.5-7.8 5.1-12.1-3.2-2.6-5.2-.2-7 2.7-6.5 8.2-11.5 17.4-20.5 23.4-12.4 6.8-24.5 14.3-36.6 21.7C887 369.8 850.6 383.8 818 403c9.2 4.1 37-11 46.8-15.4 28.2-13.1 54.2-32.3 81.4-46.3-9 17-19.6 37.4-38.4 48.5-29.5 19.1-61.7 33.9-93.2 49.5-2.1 1-6.6 2.6-4.8 5.9 3.2 5.6 15.8-5.2 20.9-6 29.7-11 56.2-28.4 83.3-43.9.2 0 .9 1.5.7 1.9-6.1 10.3-10.2 22.4-17.3 31.2-28.1 28.2-70.9 38.5-105.6 57.2-1.8.8-5.3 2.8-3.9 5.6 1.8 7 22.9-9.1 28.4-10 24.9-8.5 46.8-23.6 70.8-33.5-7.5 54-66.5 68.3-105.7 94.1-.9.7-3.8 1.5-1.9 3.6 1.2 1.7 3.6 2.1 5.3.9 28.6-13.5 55.9-28.5 81.7-46.9 1.9 3.9-.1 7.4-1.7 10.5-4.4 8.7-2.4 20.4-9.8 27.1-25.7 21.2-53.2 40.1-82.2 56.4-1.6.7-2.5 3-3.7 4.6 20.1 1.1 62.9-37.3 83-48.9-4.3 13.8-6.4 29.7-14.2 41.1-8.7 11.9-21.5 21.2-33.6 30.1-19.3 14.1-37.4 30-58.2 42.1-7 2.5-2.5 8.4 3.1 4.5 32.9-15.9 58.1-41.2 86.6-63.7-3.9 16-3.7 35.8-12.4 48.7-25.8 27.9-57.3 51.1-84.8 77.7 33.2-15.6 56.7-43.2 84.4-66.7-1.5 7.7-1.8 15.1-4.3 21.8-3.7 9.7.9 21.2-7.7 29.8-17.5 17.6-36.1 34.1-55.7 49.3-7.5 5.8-11.7 10.9-14 18.2 27-17.8 49-39.1 71.7-61.9-2.6 17.4 2.9 39.8-11.1 51.2-21.3 17.6-41.1 37.3-61.7 55.9-2.2 2.1-3.3 5.4-4.9 8.1 11.2 2.2 23.3-17.8 32.5-23.6 13.6-11.5 25.2-24.8 38.5-36.4 3.2 21.5-1.6 42.2-16.6 59.2-22.6 28.6-43.9 58.5-69.9 84.3-1.3 1.4-4.7 2.8-1.9 4.9 2.4 1.8 4.9-.8 6.7-2.7 4.9-5.5 8.7-12.7 14.7-16.2 3.8-2.3 7.4-5 10.6-8.1 21.1-21.6 35-42.7 53.6-69.3-1 13.6-3.7 24.3-2.1 34.3 2.6 30.1-15 54.5-23.8 81.6-5.7 13.4-12.2 26.5-19.5 39.1-.9 1.5-1.9 2.7.4 4 12.6 0 38.3-75.7 43.7-90.6 4.1 35.2 6.3 67.3 12.5 101.3l6.6 39.3c.2 1.3 2.3 2.4 3.4 3.6.4-1.4 1.3-2.9 1.2-4.3-1.4-15.6-3.7-31.1-6-46.6-3.9-29.2-8-56-6.2-86.8 7.2 19.4 18.8 50.7 37.3 60.4-.2-1.3.1-2.9-.6-4-7.6-13.3-15.7-26.3-23.2-39.7-16-30.8-17.4-66.1-13.1-99.9.9.9 2.4 1.7 2.6 2.7 2.5 11.5 11.6 19.2 18 28.1 6.5 9.1 33.4 42.3 44 37.3-1.5-3.1-3.1-6-7-7-11.2-11.7-21-25.4-32.2-37.3-21.1-20-30.9-53.3-21.5-81.5 12.9 22.8 37.8 78.7 62.1 84-21.4-29.8-44.2-58.3-57.3-92.8-5.9-14.3-1.1-28 1.1-41.4 1.2-7.5-1.8-16.3 3.8-22.3 14.5 35.2 29.1 70.9 58.4 97 1.1-10-6-13.7-9.5-19.4-4.6-7.5-9.4-15-14-22.5-12.8-21.7-26.8-44-31.1-69.1-2-13.8 4.1-27.2 6.4-43.5 9.5 22.3 33.5 95.9 58 98.2-2.6-2.2-3.5-2.7-4-3.4-16.1-27.8-32.1-55.6-42.7-86-2.6-7.5-8.2-15.4-7.3-22.5 2-14.9 7.3-29.3 12-46.5 17.2 37.5 27.8 74.2 55.2 104.7 5 5.6 8.2 2.6 4.1-2.6-16.1-25.1-31-51.1-41.6-79-5.1-13.1-15.3-25.4-12-40.2 3.4-15.5 9.6-30.3 15.4-47.9.7 28.6 33.8 106 55.4 125.1 2.2 3.3 5.8-.2 3.5-3.2-20.2-32-37.9-65.9-48.5-102.4-2.7-10.1-7.6-20.1-6-30.7.9-6.1 6.6-11.5 7.4-17.6 1-7.5 3.9-13.9 7-21.3 14.2 32 28.4 93.7 64.2 106.5-22.6-24.9-35.6-49.4-45.9-80.1-4.4-14.3-16.2-26.9-10.9-43.5 5.9-13.9 13.8-25.8 21-39.7 4.2 41.5 21.3 77.8 40.9 114 1.3 2.5 3.7 6.5 6.7 5 3.5-1.8-.8-4.1-1.7-6.2-13.1-29.7-27.5-59-36.1-90.4-2.6-10-8.3-21.5-5.5-30.1 4.4-13.9 14.7-25.9 22-38 6.2 32 7.7 68.3 34.5 91.8-1.8-5.1-4.1-10.3-7-15.3zm-149.7 772.6c20.7-21.2 22.4-58.1 18.6-86-.2-1.4-2.4-3.1-4-3.6-2.5-.8-3 1.5-3 3.4-.3 12.4.2 24.9-1.1 37.3-7.4 57.5-27.9 47.7-19.8-4.9 7.5-59.8 58.9-101.6 68.8-161.3 17.8-69.5 43.5-137.3 62.6-206.2 5.8-24.7 14.7-48.5 26.4-71 1.3-2.1 2.9-5.7.4-7.7-.5-.5-3.2.1-3.7.9-20 27.8-29.1 60.5-37 93.4-16.8 57-37.5 113.3-53.2 170.6-6.6 43.8-28.4 80.8-51.7 117.6-43.7 72.5-16.6 158.8-16.4 238.1 5 70.8 5.8 141.7 5.8 212.7l1.4.1c2.6 9.3 3.6 62.2 12.2 60.9 4.6 0 2.8-4.6 2.4-7.3-9.9-94.1-9-189-12.3-283.4-2.7-23.9-6.7-50.6-6.5-74.1 3.6-9.9-14.5-27.7 10.1-29.5zm145.2-125.4c-10 39.1-14.7 80.1-22.4 119.9-8.6 82-8.9 164.4-2.1 246.5 2.3 19.3 5.7 39 5.2 58.4-.3 9.5-.3 19.4 1.5 27.9 4.5 21.4 5.8 43.1 9.1 64.5-.1 8.4 9.2 7.6 10 .2-8.5-43.8-14.2-88.3-11.7-133h-2.2c-7.9-88.5-11.7-178.1-1.7-266.7 4.9-34.4 11.7-68.6 17.5-102.9.6-4.5 2.2-12.8-3.2-14.8zM659.8 194.7c-12.2 3.2-21.2 13.7-32.8 16.4-13.6 3.2-28 3.2-42.4 2.3-24.5-1.6-49-.4-73.5-.4l-.2 4.5 99.9 4.4c-11 7-20.2 17.4-31.8 22.8-25.5 10.3-53.8 4.9-80.5 10-9.5 1.9-20.6-.3-28.9 4.9 16.2 9.3 75.7-2.4 97.9-4.3-11.7 10-19.2 25.9-35 29.6-21.4 3.7-43.1 5.8-64.8 6.3-3.2.2-5.8 2.4-11.1 4.9 25.3 2.1 49.4 1.6 73.9-4.8 1.2-.4 3.5.1 2.4 1.8-19.9 35.8-33.6 38.6-72.3 43.9-6.9 2.7-35.8 1.3-36.3 7.7 14.3 7.6 63.5-6.9 80.3-12.4-11.4 17.9-15.6 42.1-38.6 49-23 8.7-45.8 17.8-68.6 27-2.7 1.1-7.5 2.5-5.9 6.4 3.1 5.2 11.9-1.9 16.1-2.7 22.7-9.1 45.3-18.7 67.9-28 1-.3 3.4-.9 3.2.9-7.2 12.1-7.3 28.2-21.1 36.6-17.8 15-36.6 29.1-55 43.4-2.8 2.1-5.7 4.6-4.1 7.5 1.1 2 2.8 1.8 4.4.9 20.4-14.5 39.4-31 59.7-45.5-.2 17.5-8.2 35.1-18.3 49.7-15.4 22-31.7 43.9-47.3 65.3 16.4 2.8 42.2-50 53.8-63.2 1.4 13.3-3.6 25.5-8.5 36.5s-6.7 22.9-12.2 33.6c-7 13.7-12.9 28-19.1 42.2-.4 1 0 2.3 0 3.5 19.9-13.1 27.3-53.5 37.9-75.6-4.1 30.4 3.6 61.3 6.1 91.6 1.5 9.8 6.8 30.1 13.6 37.1 3.7-14-5-29.3-6.5-43.6-4.6-22.7-3.6-46.1-6.2-69-.5-2.9.2-5.2 2.2-6.9 7.5 25.1 13.3 50.3 33.7 68.8-19.1-44.6-40.6-87.4-27.6-138.9 6 28.2 14.4 49.7 34.1 70.5.9 1 2.8 3.5 4.4 1.4 2.6-5-13.4-19.6-15.4-26.6-18.6-38.8-21.5-71.5-3-111.2 3.7 37.5 10.4 73.4 34.3 102.5 5.9 4.9 8.8 1.6 4-3.5-23.9-37.6-45.2-104.9-15.8-144.4 1.4 37.5 11.1 74.6 32.5 105.6 1.9 2.4 5.2 2.2 5.3-1.3-6.9-16.5-16-32.3-21.4-49.4-7.3-33.4-17.5-78 14.9-101 2.6 27 2 55.9 14.2 80.8 2.1 4.1 3.6 10.9 8.9 9.9 2.9-1-4.9-16.5-4.9-20.8-9.5-40.6-22-90.8 24.1-113.7-3.3 18.6-4.7 72.7 8.5 86.6 3.1-3.3 1.3-7.1 1.1-11-1.4-12.6-3-25.1-3.8-37.8-.7-12 2.2-23.7 1-35.6-.4-3.8 1-9.4 3.8-11.6 11.7-9.7 24.2-18.4 38.1-28.8-9.1 21.9-21.4 86.7-5.3 105.9-.5-36.7-.8-76 14-109.8 4.7-1.5 35.5-22.9 34.8-13.8-8.1 23.6-23.8 64.7-11.9 87.7 3.2-1.9 2-5.1 2.1-7.9-.1-24.2 5.8-48.5 14.1-71.3 6.3-23.2 15.8-21.3 35.6-28.2-7.2 20.5-24.4 49.6-18.7 71.1 9.3-12.1 19.3-73.3 33.1-76 20.7-5.2 41.6-9.7 63-11.2-1.6 5.6-6.3 9.3-10.2 13.4-20.4 19.1-40.9 38.1-61.3 57-1.5 1.4-2.7 3.1-.8 4.5.8.6 3.2-.2 4.3-1.1 15.5-12.7 30.9-25.5 46-38-18.1 58.4-73 91.7-118.4 128.3 9 4.2 26.6-16.4 36.1-20.5 17.1-9.3 29.9-27.9 46.7-35.9 1.6.9.8 1.6.3 3-4.6 11.4-4.6 24.9-12.8 34.5-25.2 29.1-55.6 52.5-87.7 73.4-2 1.3-6.1.6-4.8 4.4.2.6 5.5-.3 8.4-.8 29.9-16.1 57-36.8 80.3-61.5-3.6 32-7.8 37.9-31 59.6-22.6 23.3-47.7 43.8-72.5 64.6-1.8 1.5-5.3 2.6-2.8 5.4 2 2.3 4-.9 5.7-2 33.4-21.5 60.5-50.4 89.3-77.4-2.7 15.7-3.5 32-13.7 45.3-24.8 36.8-53.9 70.1-88 98.5-4.7 2.9.3 6 3.8 3.9 35.4-26.9 62.4-60.4 90.2-95.2-1.3 6.5.6 14.1-1 18.4-4.9 13.6.6 28-6.5 41.7-13.5 26.3-29.1 51-47.9 73.8-3.5 5.8-10.8 10.4-11.4 17.3 5.2-.3 8.3-6.1 12.2-9.1 20.4-20.7 34.6-44.9 50.4-69.5-.3 22.1 3.2 44.3-4.5 65.2-8.6 23.5-15.5 47.7-28.3 69.4-1.3 1.9-.1 2.8 1.3 3.8 1.6 1.6 2.6.4 3.5-1 11.3-18.2 20.4-37.3 25.3-58.3.6-2.7 3.4-7.3 4.2-7.1 3.8 1 2.3 4.8 2.4 7.6-.3 21.4 7.3 42 10 63.1 3 18.8 9.6 36.4 16 54.3-7.9-46.2-17.8-92.2-20-143.1 5.7 10 35.2 78.8 43.1 69.9 2.5-2.3-.7-3.9-1.7-4.6-5.6-3.8-6.1-10.5-8.8-15.8-10.5-20.3-19.8-41.1-29.4-61.8-7.3-15.6-4.5-32.1-4.6-52 8.6 25.7 25.7 45.1 40.3 67.3 2 2.8 5.3 6.4 10 4.5 2.6-1.1 1.8-3.7.5-5-8.3-7.9-14.3-17.5-20-27.1-13.9-23.5-33.2-45.3-28.9-75.6 1.8-12.7-.6-25.9 4.1-38.2 13.3 22.3 29.9 74.1 51.1 85.6 1.7-6.7-4.8-9.5-7.5-14.5-18.2-42.2-55.6-83.8-32.5-131.4 13.1 29.4 26.1 60.5 44.9 87.8 1.3 1.9 3.1 3.1 5.5 2.1 2.7-1.2 1.2-2.6.3-4.3-10.5-20.4-21.5-40.5-31.3-61.3-21.5-37.7-14.7-55.2.1-93.9 7.1 34.5 23.8 63.3 37.6 95.1 1.3 2.8 4.1 6.9 8.9 6.5 5.3-.9 1.2-8.5-3-8.5-8.5-21.1-16.4-42.6-26.1-63.2-5.8-12.4-12.3-26.9-12.5-38.1-.3-14.5 12.2-29.3 20-45.8-1 15 5.2 26.3 9.6 37.7 8 20.8 17.5 41 26.7 61.3 1.6 3.5 3.7 9.8 8.5 7.5 4.3-2-1.2-5.1-2.3-7.7-11.6-35.5-34.9-70.7-37.4-108.3 1.8-9.8 9-18.6 14.1-28.2 6.8 28.8 16.2 55.1 26.8 82.3 3.7 10.3 7.5 20.4 13.6 29.5 1.6 2.4 4 2 5.7 1 2.2-1.3-.2-2.6-.8-4-14.7-33.8-26.9-68.7-35.5-104.6-1.3-5.2-6.5-10.5-2-17.1 6.8-9.5 10.3-21.2 18.6-29.7 9.8 35.9 18.4 72.8 33.8 107.1 1.3 3.3 3.3 3 5.1 2.3 2.8-1 1.7-3.6.9-5.5-13.6-33.3-24-67.6-29.3-103.3-.7-4.5-6.2-7.9-2.4-13.4 7-9.1 11.6-20.6 19.5-28.6 1.9 11.1 3 22.5 6.7 33.4 6.5 22.4 12.8 44.9 19.4 67.3.4 1.3 2 2.2 3 3.3.6-1.4 1.9-2.9 1.6-4.1-6.3-35.2-21.2-69-23.3-104.8-1-16.2 16-24 23.8-36.6 3.4 35.8 11.2 69.6 17.7 104.8.5 2.6.5 7.6 5.3 7.4 1.6 0 2.8-2 2.3-4.7-4.6-26.5-11.3-53-15.1-79.5-4.8-34.3-2.3-41.2 23.2-65.8.5 17.2-2.1 33.7 1.9 50.2 3.7 15.2 5.4 30.8 8.5 46.2.5 2.4 2 6.4 6 6.5 1.1 0 1.7-1 1.2-2.9-2.7-10-7-20.2-7-30.3.2-28.3-16.1-71.1 14.7-89 5.9 31.7 5 64.3 16.8 94.8.5 1.5 0 3.8 2.2 3.7 4.4-4.7-2.1-22.4-2.2-29.4-4-24.6-7.7-49.2-5.8-74.2-.5-10.9-28 8.3-31.9 11.5-17.2 12.8-30 29.8-43.7 45.9-9.4 11.1-20.3 20.9-28 33.5-8.2 13.5-17.3 26.4-26.5 39.3-5.4 7.6-7.1 19.7-19.2 20.1-8.8.3-17.3.3-26.6-2.9-30.1-10.5-59.9-21.8-89.2-34.1-3-1.3-7.6-5.2-10.7-.9-1.9 2.7 2.3 4.3 4.3 5.4 26.7 13.6 55.4 23 83.6 33.1 1.9.5 4.3 2.8 2.6 3.2-12.2 3.4-24.7 8.1-37.1 8.2s-24.7-4.9-37.1-7.4c-14.2-2.9-28.5-5.5-42.3-9.8-8.1-2.5-16-5.8-23.5-9.7-1.9-1-4.6-1.4-5.6 1.2-1.3 3.8 6 2.9 7.7 3.7 25.6 18.9 59.2 19.9 89 28-9.7 2.2-19.1 9.4-28.8 9.9-16.5.7-33.1-.4-49.4-3.1-24.1-4.2-48.4-7.3-72.6-10.8-1.3-.2-2.7.7-4 1 4.4 6.3 14.5 5.1 21.3 7.7 16.4 3.9 32.5 8.6 49.7 8.6 12.8 0 25.3 6.1 38.3 1.8 1.5-.3 4.2 1.7 2.6 3.1zm270.2 933c-1-3.2-1.6-4.9-2.2-6.6-27.4 34.2-7.9 152.2-20.9 200.7-6.6 52.7-14.1 106.4-37.2 154.7-1.2 2.7-5.3 5.8-1.8 8s7.9-.4 9.8-4c20.5-33 26.1-71.1 31.6-108.8 11.8-54.4 12.8-109.7 12.4-165.2 0-9-1.6-18.2-.3-27 2.7-17.7.4-36.1 8.6-51.8zm-56.1 411.5c-4.6-14-8.8-28.3-15.2-41.4-5-10.3-5.3-21.1-7.2-31.6-3.3-13.2-.1-27.8-3.2-40.7-4.6-.9-5.7 1.9-5.4 6-2.1 13.5-1 27 .2 38.7-1.9 21.4 9.9 37.3 14.9 54.9 6.3 22.3 16.9 43.4 16.9 67.2 0 2.8 1.4 4.3 4.1 4.7 14.4-1.7-2.3-48.4-5.1-57.8zM829.4 48.4c1.5 2.5 4.1 5.4 7.7 3.7 2.4-1.1.1-2.8-.5-4.1-6.3-15.3-14.6-29.7-24.8-42.8-1.2-1.5-1.5-5.1-2.3-7.5-2.2 4.5-4.4 9.1-1.6 13.4 7.3 12.3 14.2 24.9 21.5 37.3zM759 7.2c7.8 15.3 33 89.5 49.7 87.7 3.8-2.9-6.5-11.4-7.6-15.3-12.8-23.7-24.2-48.2-34.3-73.2-.9-2.3-3.4-3.5-6.1-3.4s-1.5 3.3-1.7 4.2zm-42.2 2.3c11.9 34.9 29.7 77.8 60.1 100.5 1.7-1.7.4-3.6-.7-5.2-13.9-20-28.7-39.5-38-62.2-4.9-11.9-13.1-22.4-15.5-35.5-.4-1.8-3.2-4.7-4.5-4.6-3 .8-.8 3.9-1.4 7zm31 1424.6c3.5 36.7 3.9 73.5 1.1 110.3-.2 3.1-.8 8.3-4 8.2-3.6-.1-2.4-5.3-2.8-8.2-.5-43.5 1.1-86.9-6.2-130.1-2.6 5-5.6 9.6-7.6 14.8-.8 2.1-1.6 4.2-3.3 3.4-3.4-1.7-2.6-5.8-.9-9.5 9.5-14.9 12-32.2 2.1-47.9-4.2 6.3-5.3 17.9-12.3 20.4-2.9-12.3 6.8-22.9 8.5-34.7 2.4-10.8-4.8-20.3-5.7-32.7-4.8 8.8-6.6 31.6-15.5 32.6-4.5-2.8-.4-9.1.8-13 10.2-27.6 12.1-30.4-.3-58.9-1.3 13.7-6 24-9.8 34.4-1.4 6.9-6.7 12.2-6.9 1.2 2.5-9 4.8-18.2 8.6-26.7 5.5-12.1 4.2-23-3-33.6-.3-.5-1.8-.9-2-.7-6.2 11.6-6.2 26.5-13.3 37.6-9.6-19.7 18.4-36.5 1.4-67-1.3-1.7-2.2 1-2.7 2-2.9 6.5-8 39.8-14.1 39.5-4.5-3.3.1-12 .7-17 2.9-11.8 6.5-23.4 8.3-35.4.7-4.4-4.3-9.8-7-15.3-2.3 12.1-5.2 23.5-10.4 34.3-2.1 4.3-2.5 9.3-6.9 12.3-3.5-7.2.7-13.4 2.7-19.7 4.1-11.5 7.3-23.2 8.1-35.1 0-7.8-8.3-15.9-11.2-24.1-3.8 12-5.4 42.2-14.9 49-7 1.2 7-39.9 7.3-45.7 2.4-9.6-.1-18.2-6.1-25.4-1.9-2.3-2.9 1.4-3.4 3.3-3.1 6.7-8.6 47.7-17 43.8-3.3-1.5 0-5.3.8-8.2 4.1-15.8 8.5-31.5 11.8-47.4 1.9-9.3-8.3-13.8-10.7-24.2-4.3 15.4-8 28.8-11.9 42.1-.7 2.7-1.9 7.4-4.9 8-2.8.2-2.1-2.7-2.3-4.6-3.4-23.3 26.7-50.5.3-67.6-2.1 8.7-6.8 47.6-16 49.1-5.3-2.6.6-9.6.7-14 2.5-13.7 6.3-27.2 8.9-41 1.1-9.2-8.4-14.1-13.1-20.8-.8 7.8-13 51.1-20.5 50.6-.6-19.8 10-37.7 13.7-56.9 1.5-6.3-5-10.6-9.5-12.7-3.4-1.5-2.7 5-3.9 7.7-5.6 12.2-10.1 24.9-15.2 37.3-.9 2.2-2.2 5-5.3 4.5-.9-.1-2.3-1.4-1.2-3.5 4.4-18.6 13.7-36.1 18.5-54.7.9-3.1-5.9-8.4-9.6-13.2-3.2 15.8-7 30.2-15.1 42.9-2.1 4.3-2.3 11.9-6.5 9.3-5.1-4.2 1.1-11.9 2.3-17.5 3.9-13 9.2-25.7 11.7-39 1.2-6.3-7.8-9-11.3-14.9-.7 16.8-5.9 31.3-13.3 45.3-4 9.8.5 19.2 1.5 28.7 1.8 34.6 5.3 69.2 4.9 103.9-2.5 46.9-1.7 94-2.3 140.8-2.5 24.2-1.1 48.7-6.8 72.7-3.3 13.7-1.5 29.4-10.2 41.5-6.6-6.8 3.1-35.4 3.1-46.2 2-18.2 5.7-37.3 3.2-55.4-5 4.2-6.3 11.3-13.3 13.4-.8-19.8 19.5-6.4 16.5-53.3-4.6 3.8-10.4 15.7-15.8 14.7 1.6-12.3 15.2-18.8 15.4-31.2-.4-6.4-.2-12.8.7-19.2-8 9.8-14.8 18.2-22.6 27.8 3-27.5 28.9-29.3 18.9-60.6-.4-9-15.7 25.7-26.2 25.8 3.3-15.1 16.8-25.9 23.9-39.3 4.4-7.5-.9-16-2.6-25.6-7.8 12.2-13.8 28.2-26.3 33.9 11.3-29.5 31.6-32.4 22.6-67.8-10 12-18 24.3-28.4 35.1-3.5-2.9 11.5-25.5 14.6-28.5 12.4-13.3 11.7-31 4.8-45.2-11.2 12.7-14.7 32.4-29.1 42.2 2-15.6 12.9-29.3 21.3-42.4 4.8-6.8 7.5-14.1 3.4-22.3-1.8-3.6-.1-12.5-3.2-10.7-5.3 3.1-7.5 11.3-11.4 17-4.7 6.8-7.8 14.6-12 21.6-2.2 4.4-17.5 22.9-13.5 6.9 3.3-5.6 6.7-11.1 10.1-16.6 8-12.9 16-25.8 23.4-39.1 4.4-7.9-3.2-15.8-4.1-23.9-12.4 17.5-19.2 43.7-37.7 56.7 6.4-24.5 26.4-42.9 34.3-66.4 2.2-6.7-4.4-16.3-7.7-26.7-3.8 21.7-16 37.4-25.7 54.1-2 4-5.8 10.7-10.6 9.8-2.3-2.3 1.6-3.1 2.5-4.8 9.4-18.7 19.5-37.1 28.3-56.1 5.9-11.5-2.1-22.7-5.9-33.5-7.8 13.3-20.6 56.8-32.6 61.9-1.5-4.7.7-8.1 2.6-12.1 7.2-16 14.6-31.9 22-47.9 5.7-12.2-2.1-20-9.1-28-1.5-1.7-1.8-.8-2.4.9-5.5 18.7-12.4 36.9-20.9 54.5-3.6 6-5 13.9-11.3 17.7-2.7-8.7 4.9-17.2 7.1-25.6 3-7.4 6-14.8 8.9-22.2 4.1-10.5 9.8-20.7 11.6-31.5 1.4-8.5-8.8-13.8-11.9-21.1-9.1 28.5-17.7 57.2-30.1 84.4-.1.9-2.6 1.6-4 2.4-4.6-13 6.8-25.4 9.7-37.7 4.9-16.5 9.8-33 14.8-49.4 5-16.2 7.7-32.9 10.3-49.6.3-1.6 3.1-2.9 4.7-4.3 4.5 15-7.6 30.9-3.1 45.8 3.3 10.4 13.7 18.4 20.9 27.7 12.2 15.7 20.8 33.2 27.9 51.8 21.7 52.8 28.9 107.2 40.8 163.1.5-69.4-11-136.8-29.8-203.2-11-42.3-31-81.1-54.8-117.5-2.5-4.2.3-7.5 2.6-10s4.7-.1 6.5 1.9c22.5 22.6 27.8 56.3 49.6 78.7 32.1 20.9 58.1 49.5 81.5 79.6 67.6 81.5 115 176.7 149.6 276.3 19.4 50.9 33.9 104.3 40.2 158.6zM494.1 988.3c-.8-.4-1.7-.7-2.6-1.1 2.7 19.1 9.6 37.8 14.3 58.6 9.6-25.7 14.2-45-11.7-57.5zm138.7 145.4c-40-72.4-86.9-142.9-154.6-192.4 9.3 13.3 1.1 34.1 22.6 43.1 17 7.1 28.9 23.4 41.6 37 31.5 36.1 64.3 72.3 87.1 114.8 1.8 1.7 3.9-.2 3.3-2.5zM675.6 41.9c9 18 23.9 63.9 43.3 69 2.3 0 2.5-1.4 1.7-2.6-21.8-30.4-38.2-64-47.6-100.2-.5-5.5-8.2-13.6-9.7-4.4 3.8 12.9 7.2 25.9 12.3 38.2zM633 45.3C638.6 62 643.6 79 655.8 93c3.8-9.5-2.8-16.1-5.6-23.1-8.1-20.3-15.1-40.8-19.2-62.2-.5-2.6-.7-6.7-3.9-6.1-8 7.2 3.4 34.2 5.9 43.7zm-48-14.8c3.4 6 6.2 32.1 14.2 32.3 4.9-1.7-.4-4.1-.8-6.3-3-17.4-8.5-34.4-7.6-52.3-1.1-4.8-5.3-6.4-6.3-.1-3.8 8.3 1.5 16.5.5 26.4zm-32.2 872.6c1-.3 1.6-1.9 2.1-2.7-8.5-19.6-33.2-37.9-50.8-49.8-1.4-.8-2-2.5-3.9-.5-1.5 1.6-2.1 3.2 0 4.9 13.5 11.9 27.5 23.3 39.7 36.6 4.4 3.4 7 11.4 12.9 11.5zm-4.9 20c-24.3-24.9-48.3-50.7-79.9-66.5-13.1 6.8 6.5 11 11.2 15.6 10.4 7 19.5 15.8 29.1 23.6 10.8 8.7 20.4 18.9 30.4 28.5 3.4 2.1 6.4 9.7 11 5.3 3-3.2-.4-5.1-1.8-6.5zm-11.1 16.8c-6.7-7.3-64.2-65.3-69.6-48 3.6 3.9 8.2 8.3 12.9 10.9 21.9 11.5 36.3 31.8 54.9 47.3 4.3 3 10.7 15.1 14.9 6-3.1-6.8-8.2-11-13.1-16.2zm3.6-78.4c2.2 3.1 3.9.3 4.9-1.6.1-5.4-39.5-47.7-35.2-26.9 10 9.6 20.2 19 30.3 28.5zM440.6 37.7c11.5-1.9 23-4.3 38.9-7.4-11.3 5.4-14.4 13-23 16.8-11.9 5.2-24.2 8.2-36.4 11.6-19.6 6.7-43.4 6.7-60.7 18.1 5.5 4.8 17.1-1.2 24.1-1.7 14-3.2 28-6.8 42.1-9.6 6.3-1.2 11.9-6 19.1-3.3-2.7.1-3.5 2.3-4.9 3.7-7.9 7.8-14.9 17.9-24.4 22.2-43.1 15.8-89.3 24.1-133.5 37-1.4.4-2.3 2.4-3.5 3.6 13.3 4.6 44.9-9.1 60.5-11.6 23.4-5.6 42.2-9.2 66-17.6-10 11.1-15.8 22.6-26.5 27.2-17.1 7.4-35.4 12.4-53.2 18.2-26 8.4-51.9 17-78.8 22.6-2.3.5-6.9 2-5.4 5.8s4.9.6 7.2.1c41.7-8.6 82.7-20.6 122.6-35.8-38.5 49.2-35.3 31.7-88.3 55.2-19.6 6.5-39.5 12.2-59.1 18.5-1.4.5-2.2 3.1-3.2 4.7 15.9 2.6 31.8-7.1 47.2-10.6 22.3-5.7 43.1-15.6 64.9-22.1.1.7.7 1.8.4 2.2-7.7 9.3-13.7 21.6-23.6 27-17.8 9.7-37.7 15.5-56.9 22.5-6.4 3.8-50.6 13.7-47 19.5.5 2.2 2.7 3.3 5.2 2.5 31.2-10.2 61.8-19.7 92.4-32.2-11 17.8-18 35.8-39.6 41.3-29.9 11.8-59.7 23.7-90.5 32.9-6 1.9-3.9 8.8 1.9 6.1 34.3-6.2 65.3-22.4 97.9-33.5 1 4.3-3.9 5.5-4.8 8.9-.2.8-.5 1.6-.9 2.3-5.9 7.8-7.4 18.8-15.9 24.5-35.6 24.5-74.6 43.6-111.4 65.9 3 3 6.5 2.9 10 1.2 12.9-6.6 26.3-12.5 38.6-20.1 20.3-11 39.1-24.6 58.5-36.7.1.8.6 1.8.3 2.4-10.3 29.8-27.8 42.7-54.8 56.6-16.4 8.2-31.4 18.7-47.8 26.9-2 1.3-3.3 3.4-3.6 5.8-.1 2 1.9 1.7 4 .8 28.8-13.6 55.7-30.2 83.1-49.3-9.8 15.2-10.2 33.5-24.7 45.6-19.6 15.9-40 30.8-58.9 47.5-4.1 3.6-13.8 6.4-10.7 16.4 25.3-16.6 46.9-37.6 72-56.3-6.8 14-8 28.4-19.8 39.9-20.1 19.2-39.4 39.3-59 59.1-1.7 1.7-5.5 3.4-3.2 6 12.9 5 53.8-49.5 67.1-58.5 0 .8.4 1.9.1 2.4-6.8 8.3-8 19.5-8.9 28.7-2.1 21.2-14.8 35.1-27.5 49.2-4.1 7.3-48.9 42.1-42.1 44.5 3.5 3.1 7.4-1.5 10.2-4.3 17.6-17.8 38.8-32.2 52.9-57.2-5.1 48.2-10.6 94.4-3.8 142.3 3.7-11.3 3.6-16.3 2.1-23.5-.9-9.3 3.1-18 1.1-27.3-.4-24.9 5.9-51 7.6-76.1.1-1.2-2.6-2.7-.1-3.5 2.2-.7 2.4 1.5 2.8 3.2 7.1 30.9 8.5 62.6 31.4 87.6-17-56.9-43.4-114.5-13.7-172.6-.3 30.6 20.2 105.2 45.9 122.7-.1-1.9.4-4.1-.5-5.5-5.6-8.7-10.5-17.7-14.8-27.1-11.9-33-32.8-81.5-24-116.1 2.9-10.3 8-20.1 12.1-30.1 3.5 37.6 22.8 116.7 53.3 138.6 3.3-2.4-1.6-6.3-3.2-9.1-21-35.9-33.5-76-42.3-116.4-9.4-21.3 2.4-38.3 11.2-57.6 6.3 41.7 20.6 81.4 45.7 115.8 6.3 9 12.5 18.3 19 27.2 1.5 2 5 2.5 7.6 3.7 1.1-3-1.4-4.4-2.8-6.3-23.6-36.3-48.3-73.9-58.5-116.4-9.4-27.7-7.5-39.3 8.6-63.5 9.9 43.4 27.5 84.9 54.8 120.4 6.7 11.4 18.3 10.4 6-2.3-24.4-37.8-51.2-80.1-53.3-126.2.7-18.1 16.5-30.3 24.5-47.4 5.8 58.2 22 116.4 59 162.3 2.4 2.6 13 8.4 7.8.2-33-46.4-52.7-100.1-59.8-156.2-2.7-19.4 9.9-34.1 21.5-46.4 3.6 55.4 12.8 116.3 50.1 159.7 1.3 1.4 2.3 4.7 4.5 3.2 2.8-1.9.3-4.8-.9-6.4-3.6-5.1-7-10.5-9.9-16-20.7-37.5-31.6-79.7-36.6-121.9-4.6-35.3 1.4-31.8 22.2-59 2.5 23.2 3.4 46.7 8.8 69.8 4.1 22 8 43.8 22.2 62.1 1.6 2.1-.2 6.2 3.8 7.2-.3-3.4.3-7.1-.9-10.1-6.9-17.1-13.5-34.1-17-52.4-2.5-13.5-4-27.1-6.7-40.4-2.8-13.9-3-27.8-3.1-41.6-.1-9.6 10.6-13.4 14.3-21.5.9-1.9 3.5-3.1 5.3-4.6 1.5 33.4 6.5 66.7 19.3 97.7 4.3 10.2 7.8 25.7 20.8 28.8-8.4-24-22.8-46.4-25.6-72.6-1.9-12.3-5.8-24.2-7.5-36.5-8.4-30.7 13.3-40.2 32.1-61.7-1.4 29.6 1.9 54 6.8 82.2 2.8 11.4 6.2 42.7 14.9 48.6.5-1.1 1.8-2.1 1.6-3.1-2.9-4.2-1.2-9.1-2.2-13.5-7.8-33.8-12.9-68.1-15.1-102.7-.2-5.9-3.3-12.9 1-18 9-10.6 19-20.4 29.9-32 .3 3.5.6 4.3.4 5-5.5 18.9-1.5 38.2-.9 57.1 2.1 24.6 3.6 52.7 17.7 73.9 1-2.3 2.3-4.2 1.5-6.5-4-23.1-9.5-46.2-11.8-69.5-1.6-18.5 0-37.3-.6-55.9-.2-6.3 1.5-11.4 6.3-14.5 7.9-4.5 10.7-13.2 19-17 3 30.3-2.7 86.2 18 110.1 1.9-18.9-8.7-37.6-8.5-56.5-1.1-19.6-3.8-39.5-.3-59.1 1.5-8.5 11.6-8.7 16.4-14.4 3 3.7.8 8 1.3 12-.8 32.9 1.6 65.6 12 96.8.5 4.4 5.3 3.7 4.1-.6C523 86 514.1 48 517.9 9c.1-1.6-1-3-2.6-3.1-.6-.1-1.3.1-1.8.5-37.4 31-91.1 19.4-133.2 37.9 19.1 4.9 40.7-4.4 60.3-6.6zm-57 905.4c6.8-22.4 7.8-46 12-68.6-1.8-3.9 2-10.1-3.4-10.2-4.6 0-2.9 6-3.3 9.6-3.3 29.2-11.5 57.6-17.4 86.3-1.6 7.2-3.2 14.5-4.8 21.7-.3 1.4-3.1 3.6 0 4.3 8.6-2.1 13.1-34.4 16.9-43.1zM313.5 58.2c-8.2 11.4-14.9 23.7-20.2 36.7.6 1.4 1.3 2.8 1.9 4.2 22-35.8 49.1-68.9 82.2-95.7 2.4-2.1 4-4.8 1.2-7.4-3-2.8-4 1-5.7 2.3-22.1 17.5-42.5 37-59.4 59.9zm56 843.2c-1.7 14.6-4.8 29-9.2 43-2.9 6.8-3 15.3-8.8 20.4-5.6-8.8 0-19.7 2.1-28.8 4.1-11.9 6-24.3 7.3-36.8.1-.6-1.2-2-1.4-1.9-10.9 5.6-16.7-5.8-26-6.7 2.3 43.2-13.2 30.1-38 11.2-.8 11.5-10.1 42-24.3 24.1-7.7-8.8-9.4-5-12.3 3.6-3 8.6-8.8 16-16.4 21-9.3 2.9-16.6-10.4-20.4-18.1-6.8 14.5-16.3 27-27.3 38.3-3.5 3.5-7.1 8.2-12.1 1.2-1.6-2.2-2.8.1-3.5 2-6.4 17.3-16.4 32.7-30.9 43.5-10.9 8.1-10.1-6.6-14.3-11.5-6.5 13.4-16.8 24.5-29.8 31.9-17.3 7.4-.4-71.9 3.7-79.5 9.1-28.3 23.5-54.7 42.5-77.6-3.6-21.7.6-43.9 12-62.7 6.9-12 14.1-23.2 23.6-33.4 5.6-6-4-10.6-5.9-16.1-9.9-28.8 2.1-64.9 37.2-72 10.7-2.1 21.9-8 32.1-6.6 22.3 3.1 25.8-18.6 39.6-26.4 7.4-1.7 47.7-45 43.9-21.3-9.1 19.5-19 38.6-27.7 58.3-3.7 7.5 5.8 8.2 9.9 9.9 10.4 5.4 21.8 9.2 33.1 12.4 5.3 1.5 9.3 0 11.4-7.7 3.1-11.8 10.3-22.4 14.3-33.9 15.5-41.1 62.6-30 96.2-26.5 7.9 1.2 16.3-2.2 24.5-2.9 29.5-2.2 58.7 4.8 87.7 9.5 17.5 3.8 34.8 8.3 52.1 13 2.5.7 4.4 3.6 6.6 5.5-14.7 18-25.4 21.5-52 24 7.4 6.7 13.7 13.9 21.4 19 3.7 2.4 2.7 4.5 2.5 6.7-.2 2.9-2.7 4.2-5.6 3.9-6.5-.6-12.4 2.9-19.8 1.1-5.2-1.3-12 1.7-19.8-2.1 3.1 3.4 4.6 5 6.1 6.7 2.7 3.2 8.7 5.1 6.7 10.2-2.4 6.1-8.8 3.6-13.7 4.2-10.4 1.3-19.7-3-29.6-6 4.2 7.3 16.1 14.1 11 20.7-7.7 10-21.3 5.3-32.4 3.5 2.6 9.4 16.9 17.1 9.1 27.2-8 10.7-21.5 2.7-32.5.6 2.3 3.7 5.7 7.1 6.3 10.9.7 4.7 7.6 9 2.9 13.3-6 4.9-14.4 1.9-21.5.3 5.7 8.6 8.8 18 7.3 27.4-2.3 5.6-10.3-1.9-14.2-3-40.8-21.7-89.5-15.8-130.1-37.2-10.1-6-20.9-11.6-26.5-23.2-4.7-5.7 4.1-9.6 7.9-4.8 13.4 16 32.3 21.3 51.4 26 19.3 4.8 38.5 9.8 58 13.7 15.8 2.1 29.8 11.5 44.8 14-9.5-20.6-29-33.5-47.3-45.9-11.2-7.3-22.2-1.5-33.1-2.5-8.9-.8-18.4.8-26.9-3.6-4.5-2.3-10.3-1.6-14.2-5.7-5.8-2.7-2.7-7.9 2.7-5.4 6.8 5 67.6 13.9 56.7-3.5-5.9-5.9-12.4-9.7-22.3-8.5-10.7 1-24.3 5.3-33.9-2.3 1.1-.8 2.3-2.1 3.5-2.2 22.5-3.5 46.9-.2 68-9.3 6.2-1.6 1.9-6 .8-8.1-3.2-6.1-8.5-7.8-15.4-6.3-10 2.3-20.2 3.8-30.3 5.6-5.1 1-4.1-5.9-.8-6.9 20.9-3.8 42.1-6 62.1-13.8.8-.3 1.8-2.5 1.7-2.5-9.1-10.6-34.7-.4-47.5.1-5.4.1-11.9 3-16.2-1.4 2-1.2 3.9-3 6-3.3 20.3-3.5 40.7-6.5 60.9-10.4 3.6-.7 11.4-.2 9.4-7.4-5-19.3-42.3 4.9-57.4-4.7 1.1-1.1 2.1-2.8 3.4-3.1 21.6-4.7 44.4-5 65-13.2 1.1-.5 2.3-3.8 2.1-3.9-16.5-14.1-51.5-10.8-71.8-5.3-35.5 14.2-21.5 57.7-44.4 66.6-20.4 6.4-38.3-8.3-56.5-15-9.9-4.5-19.8-9-30-12.3-34.2-10.9-88.3 5.9-85.1 48.8 4.7 25 40.9 40.3 64.7 38.3 32.9.7 37.5 45.1 90.4 45.8 3.3.1 6.6 2.4 9.8 3.7-16.2 12.5-29.9.2-41.6 8.4-1.4 1.1-4.6.7-2.7 5 6.2 13.9 18.9 20.7 30.4 28.7 7.2 4.9 15.4 8.5 22.6 13.4 2.7 1.4 1.6-1.3 1.6-2.6.1-12.5.1-25.1 0-37.6 0-2.5.9-4.4 3.2-4.9 9.8-4 3.3 45.1 3.2 51.7zm118.3-94.3c-18.6-21.3-40.5-42.7-69.6-48 8.5 10.3 10.4 23.9 24.6 29.7 17.8 6.9 29.1 27.7 49.9 28.9-1.6-3.5-2.5-7.7-4.9-10.6zm23.1-26.6c-19.9-19.9-42.6-35.6-70.2-43.1.2 1.5-.2 3.5.6 4.6 5.8 8.3-10.5 11.8-.3 15.6 34 14.8 27.8 31.7 71.1 37.9 2.1-2.3 7.6 1.4 6.9-2.3-.8-4.6-4.5-9.2-8.1-12.7zm-35.8-59.1c-5.7-2-16.4-4.7-17.1-3.2-3.3 6.7-10 6.4-15.7 10.7 45.1 8.5 50.6 37.2 98.8 36.6-17.2-23.3-40.6-35.4-66-44.1zM522 714c-13.9-6.4-28.3-11.7-42.7-16.8-10.7-3.8-13.7 11.9-23.8 12 29.8-3 52.1 22 79.5 28.7 10.6 2.8 20.6 10.2 32.8 6.4-13.4-13.3-29.1-22.7-45.8-30.3zm29.2-17.7c-28.6-9-56.6-23.6-88-12.2 22.9 7.9 47.2 11.2 68.5 24.4 20.7 16.7 43.5 19.4 70.1 15.8-17-10.6-31.9-22.5-50.6-28zm-69.6-32.1c2.9 1.4-.4 6.2 3.5 6.7 18.5.8 36.8 6 56.2 11 17.2 3.5 30.7 19.5 50.9 13.4 11.8-4.4 28-3.9 35.7-15.1-46.4-10.3-93.8-21.3-141.8-19-1.6.1-3 1.9-4.5 3zm-210.7 28.6c6.8.2 12.9 2.6 19 6.3 8.2-13.8 16.7-27.5 24.8-41.5.6-1.1 3.9-2.4 1.3-4.2-.7-.5-3.3 1-4.5 2-13.3 12.6-30.4 22-40.6 37.4zm-23.4 111.4c14.1 9.7 43.4 46.4 61.1 35 1-.7-.2-1.5-1.4-2.2-10.2-6.1-20.3-12.4-30.5-18.4-9.3-5.5-11.9-25.7-29.2-14.4zm-22.2 1.5c14 14.2 33.3 53.2 57.4 38.8-7.3-5.7-14.3-11.3-21.6-16.6-11.4-8.3-15.5-25.8-33.1-26.5-3.3-.9-4 2.1-2.7 4.3zm-10.2-.4c4.8 16 9.8 32 14.9 48 1.5 4.6 4.9 7.1 10.2 7.8 1.8-.9 3.9-2.8 5.9-2.7 5.3.2 6.3-3.9 7.9-7.1 1.4-2.9-2.1-3.6-3.6-5.3-11.6-12.5-25-23.8-30.1-41.2-.4-1.5-2.6-2.5-4-3.8-.4 1.5-1.5 3.2-1.2 4.3zm-1.7 60.7c3.2 3.4 7.1-1.3 10.6-2.8 4.2-1.9.3-2.8-.1-4.1-5.8-18.3-14.4-37.5-15.2-59.3-.1-.9-1.8-1.7-2.7-2.5-1.6 23.1-10.2 48.9 7.4 68.7zm-36-15.4c2.4 5-2.2 13.5 8.3 21 6.8 4.8 9.4 1.8 12.9.5 4.2-1.5 1.6-5 .7-8.7-5.8-22.4-4.8-44.8 1.5-67 1.6-5.5-4.3-6.4-6.8-9.1-8.6-3.8-20 53.2-16.6 63.3zM157 872.4c.7 10.4 10.5 8.6 17.5 5.7.5-.2.7-3.4 0-4.6-10.1-17.5-3.9-35.4-3.4-55.2-12 19.7-15.6 34.1-14.1 54.1zm-19 73.4c4.9-17.5 9.4-35 19.4-50.3 3.8-5.9 2.7-10.5-1.6-12.7-4.6-2.5-2.8 4-4.3 6.2-29.2 40.4-44.6 87.6-48.6 137.4-1.9 10.7 28.4-25.7 27.5-29.1 6.6-16 1.1-34.8 7.6-51.5zm48.6-57.5c1.6-3.1 1.6-6.8-3.6-5.2-27.9 10.7-32.4 54.5-39.1 80.2-3 15.7-1.1 30.8.8 47.3 11.5-17.6 30.4-34 31.9-55.6-.8-23-.7-45.5 10-66.7zm30.7 32.4c-4-14.5-6.2-30.5-3.1-45.2-25.9-8.7-35 72-24.9 87 8.4-6.8 15.1-17 20.5-26.2 2.7-4.9 9.9-8.3 7.5-15.6zm37.1-14.9c-5.3-9.7-10.5-19.4-11.4-30.5-.7-9.1-10.7-4.5-13.5-10.1-9.2 4.8-6 19.3-8.4 28.8 3.3 8.2 14 69 26.4 36.8 3.1-8 12.4-15.1 6.9-25zm32.2-7.7c-.7-1.7 1.4-4.7-1.2-7.7-7.7-9-15.2-18.7-17.8-30.1-1.4-6-5.5-4.6-8-7-3.4 5.1-10.2 10.6-9.7 15.3 2.3 20.6 13.1 37.5 28 51.7.7.7 1.9 2.9 2.8.3 2.6-6.9 7.4-13.3 5.9-22.5zm37.9 2.4c8.4-26-18.3-23.3-23.3-45.2-2.7-8.8-11.6-5.2-15.7-10.2-.1 2.3-.4 4.5-.8 6.8-.1.6-2.4.6-2.7 1.3-1.2 3.4-9.1-.4-6.8 4.9 8.5 20.2 23.9 34.6 41.1 47.3 2.1 1.5 3.1 5.7 6.6 4 4.2-2 .9-6.1 1.6-8.9zM263.9 73.7c19.2-28.3 44.4-50.5 73.3-68.6 1.4-1.1 3-4.3 2.6-4.6-4.8-4.5-7.7 2.8-13.8 3-25.6 17.9-53 37.7-65.5 67.3.5 2.2.8 3.6 1.1 4.9.8-.5 1.6-1.2 2.3-2zm-4.4 702.7c10.1 4.7 26.9 15.3 35.3 2.7.8-1.6-1.8-3.1-3.7-2.9-9.6 1.2-18.9-1.8-27.4-5.9-5.3-3.2-6.7 3.6-4.2 6.1zm-6.5-35.9c-3.1 4.5-8.2 7.7-7.9 13.8 0 0 1.5.6 1.8.3 10.4-9.1 21.3-17.9 22-31.2.8-10.8-4.1-12.3-11-10.5-10 2.5-29.3 32-27.5 42.1 0 7.9 5.4 6.5 6.4-.4-.2-7.8 5.4-12.8 8.5-19 2.7-5.4 5.5-.7 8.1.5 3.7 1.7.4 3.3-.4 4.4zm-82.7 617.2c-27.7-35.6-32.8-60.3-38.9-104.3 15.3 21.2 25.9 47.8 51.7 58.2-5.4-11.9-16.4-20-24-30.6-22.7-27.9-37.9-60-41.1-95.8.7.3 2 .4 2.1.8 5.7 13.9 42.3 59.5 58.2 56.9-25.5-29.3-58.3-54.9-70.6-93.7-2.8-9.3-5.6-18.6-8.8-29.4 18.3 22.6 35 53.6 65.8 57.7-1.3-1.6-2.2-3.7-3.9-4.6-17-9.2-30.2-23.1-41.1-38.3-12.8-17.9-31.8-32.5-32.2-58.1-.2-10.4-5.5-20.7-8.5-31.1 17.4 24 50.4 69.3 82.1 70.6 0-3-1.5-4-4.4-5.4-6.8-3.2-13.2-7.2-19.1-11.9-18.2-14.9-34.2-32.3-47.4-51.7-4.9-7.3-13-12.3-15.4-21.3-3.3-13.1-7.2-26.1-9.6-39.4-1.4-7.6-5.7-14.9-3.8-24.1 6.5 7.7 12.1 18.3 22.3 18.6 2.6-1.2-.1-2.9-.8-3.8-3.6-4.9-7.6-9.5-11.4-14.2-7.8-9.5-15.9-18.5-16.9-31.9-.8-10.6-4.7-20.9-5.4-31.4-.4-7.4-4.6-14.6-1.5-22.9 11 20.6 27 38.3 46.9 50.3 1.2.6 3.2 4.4 5.4.5 1.9-3.3-1-4.6-2.5-6.5-5.3-6.8-13.8-9.6-19.3-16.9C39.1 862.8 42 851.6 37 796.3c20 21.4 28.6 50.3 57.7 62.2 4.4 2.4 5.7-.8 2.8-4-21.8-16.9-38.2-39.6-53.3-62.6-11.5-15.9-11.7-32.7-11.1-52.1 16 23.8 29.8 47.3 57.4 56.7 1.3-2.4-.1-3.9-1.7-5.2C56.3 764.6 20.5 727 30 681.2c12.4 19.1 24.6 38.8 41.9 54.3 6.5 6.5 13.7 13.2 26.6 14.7-37-33.3-82-81-68.1-131.5.5 15.5 44.6 69.3 61.2 63.4-32.1-30.8-76.3-65.4-59.1-116.4 11.7 16.5 34.6 60.5 57.9 56.3-30.8-25.2-72.6-73.7-54.5-112.4 8.8 12.3 32.7 53.4 49 50.4-.4-1.3-.3-3.2-1.3-4C69 543.7 57.4 528.7 47 512.8c-4.6-7.2-11.7-13.9-11.6-23 2.7-17.6 4-56.6 10.6-65.3 11.1 22.9 16.4 49.9 42.4 63.1-26.4-35.8-51.7-85.8-28-130.1 4.8 16.7 21.1 67.6 39.9 69.1 0-1 .4-2.3-.1-3-7-11.5-16.5-21.2-20.7-34.7-20.5-44.9-16.2-53.2-1.8-99.6 6.9 29.7 11.5 61.5 36.9 81.4 1.2-12.8-15.3-28.4-18.4-43.1-17.5-43.7-13.6-61.8 3.8-105.7 3.2 17.6 15.4 85.7 33 88.1 4.2-2.3-3.2-8.1-3.3-12.1-10.2-24.5-25.2-63.4-21.2-89.6 4.6-12.9 14.8-22.6 19-35.6.2-.7 1.4-1 2.2-1.5 3.4 30.6 1.9 64.3 19.8 91.4 1.4 2.3 5.8 5.3 6.7 4.7 3-1.9-.1-4.4-1-6.7-15.1-28-14.8-59-17.1-89.9-.4-4.5-2.2-10-.4-13.4 5.9-11.1 13.1-21.6 20.2-32.8 2.4 7.1-1.5 13.1-.8 19 4.2 23.2 4.7 48.5 18.7 68.3 3 4.1 10.3 4.3 5.2-1.7-12.3-35.7-29.8-83.3-1.2-115.2 6.4-7.3 11.4-15.9 17-23.9-.4 33.7-3.1 67.2 8.2 99.5.9 3.3 1.4 9.8 5.2 9.1 4.4-.9 1.9-6 1.1-9.8-4.6-30.5-17.7-93 1.9-117.9 9.4-12.3 20.6-23.3 31.3-35.3-3.9 20.5-16.4 94.2-2.7 107.8 5.2-1 1.3-4.8 1.1-7.6 2.8-35.2.2-71.5 11.3-105.4.5-1 9.1-9 .9-9-13.1.5-25.8 6-38.7 9.5-31.3 8.2-62.1 17.3-92.9 27.4 6.2 7.7 12.8 2.5 19.7 1.3 14.7-4 29.4-8.3 44.1-12.6 14.9-4.3 29.7-8.7 44.6-12.9 1.1-.3 2.5.3 3.7.5-7.7 10.4-17.2 19.6-25.7 29.3-3.2 3.5-8.6 9.9-10 9.2-7.6-3.8-12.6 2.4-18.5 3.8-18.3 4.4-36 11.3-54.3 15.6s-37 6.3-55.5 9.6c-3.1.6-5.8 3-8.8 4.6 12.9 6.7 27.2-.8 40.8-1.9 31.4-6 62.2-15.7 91.9-26.6-6.5 11.8-17.1 20.9-23.2 33.2-3.4 6-7.9 14.1-13.5 15.8-32.9 9.7-65.8 16.8-99.7 23.1 20.9 9.9 70.2-9.2 93.1-14.2-.6 1.7-.7 3.8-1.8 5.1-6.7 7.7-11.1 16.9-16.6 25.4-3.9 6-6.2 14.3-14.5 17.3-23.6 9.8-47.9 17.3-72.4 24.8-5.3 3-18.5 3-19.9 9.3-.5 4.5 13.7.2 16.3-.1 25.5-7.9 49.1-14.5 74.2-25-10.2 13.1-12.4 32.5-24.1 41.7-21.4 15.8-53.7 17.9-74.5 33.7 25.2 1.7 46.3-14.2 69.3-21.6-1.8 5.8-3 12.1-5.6 17.9-4.7 10.7-2.9 24.6-13.6 32.1-21.1 13-41 22.7-62.9 36.8 3.8-.5 9.5.1 11.8-1.1 16.8-9.3 34.3-17.7 50.5-28-.5 10.7-6.1 20.4-8.1 31-3.2 11.6-2.9 25.1-15.5 32.7-14.5 8.2-29.9 17-41.3 28.9 1.5 4.4 6.3 1.7 9.1-.5 11.5-7.9 23.1-15.7 34.7-23.5.8-.5 2-.3 3-.4-2.5 10-5.3 19.9-7.6 29.9-2.4 10.5-3.7 21.1-12.5 29-9 8.3-17.6 17.5-26.3 26.5-1 1-1.1 2.8-1.7 4.2 8.3 1.7 26.5-19 32.8-26.6-3.7 25.4-3.5 50.3-10.7 74.3-1.4 8.8-23.9 22.7-18.7 29.3 8.3-2.5 12-14.7 19.5-18.9-4.3 30.5 5 66.2-25.2 86-1.5.9-3.5 3.4-1.4 6 4.7 5.6 16.3-13.9 21.7-15.8 2.3 24.9-5.3 48.7-18.4 69.7-1.2 2-2.6 5-.2 6.6 5.2 3.2 15.8-19.8 17.3-25.4 2.7 33.7.2 64.5-21.5 91.2-1.6 2.7.2 7.7 3.7 4.2 9.4-6.5 14.6-15.4 16.6-26.5 3.6 19 9 41.4 1.9 61.9-2.1 5.6-7.3 9.7-8.4 14.7-1.3 10.2-9 17-10.5 26.6 12.8-6.9 15.8-22.8 24.2-35 .8 9.9 1.5 19 2.2 28.1 1.1 13 5 25.9-1.1 38.8-7.9 16.8-12.5 35.2-24.7 49.9-1.1 1.7-.1 4.3-.2 6.3 15.6-5 23.2-37.6 31-52.4 0 21.1 9.1 41.2 6.1 60.8-4.7 23.3-20 42.8-32.7 62.5 9.1 9.6 31.3-40.1 37-48.7 1.4 24.7 12.2 43.5 0 67.6-8.7 18.8-18.4 37.1-32.2 52.9-.8 1.1-1.1 2.5-.8 3.8.9 1.9 2.5 1.2 4.2.5 10.1-4.4 13.6-14.7 18.7-22.8 7.8-12.2 17.2-24.2 19.1-39.2 4.5 3.5 3 8.8 4.4 13.2 3.6 11.3 9.9 24 6.1 34.6-9.7 27.9-22.2 54.8-44.1 75.9-2 1.9-8 3.5-3.4 8.6 20.8-5.2 42.8-50.8 52.4-70.7 1.3 19.4 15.6 36.4 4.3 58.4-9.3 18.1-17.7 36.6-30.1 52.5-2.2 5.1-16.1 13.2-12 18.4 6 3.6 11.6-7.2 15.7-10.4 11.5-13.1 20.1-28.2 28-43.8 1.9-3.8 2-8.7 4.3-12.2 9.1-13.7 3.3 4.9 7 3.3 2.3 14.6 12.2 27.7 8.6 43.3-6.3 27.4-20.1 51.3-36.2 73.7-.8 1.1-2.6 1.7-.7 3.5 1.5 1.5 2.9 1.6 4.2 0 19.1-19.2 29.2-43.5 39.7-68 2.4 14.8 11.2 30.2 10.4 44.3-4.7 31.3-22.1 57.6-37.1 84.7 10.7 1.6 8.8-10.3 14.7-13.9 12.6-16 21.1-35.8 26.2-56.7 3.2 15.2 10.6 32 7.9 46.3-5.3 16.6-9.3 34.3-19.2 48.9-7.1 10.5-10.6 23.3-20.8 31.8-1.2 1-1.2 3.2-1.7 4.9 3.3 1.9 13.1-5.6 14.5-8.2 12.3-21.9 26.6-41.5 31.4-67.6.9 16.4 7.3 30.2 6.2 45.7-5.6 25.3-19 49.6-34.3 70.5-1.1 1.5-2 5.1-1.3 5.7 2.1 1.8 3.1-1.1 4.4-2.3 16-14.3 23.9-33.8 33-52.5 4.8 6.6 1.2 14.5 3.5 21.2 7 19.9.8 37.5-9.2 54-5 10.7-20.6 25-19.7 36 9.9-1.5 28.3-37.7 34.3-47.6 0 9.4.2 17.5-.1 26.4-.5 14.2 3.4 28.3.4 42.5-.4 1.7 1.7 3.9 2.7 5.9.5-.6 1.5-1.1 1.5-1.7 2.3-23.5 3.2-47.2 2.7-70.8 7.9 13.1 11.4 32.6 28 37.3-.4-1.5-.4-3.3-1.3-4.3-4.7-5-8.3-10.8-10.8-17.2-5.6-14.8-16.9-26.5-17.6-43.3-.9-15.3-4.9-29.8-5.6-46 12.6 19 20.5 42.4 41.8 52-1.4-8.7-10.2-14.6-14.3-22.2z"/></g></g><g id="Layer_1_2_"><g><path d="M52 1548v15l-37 37h946l-37-37v-15H52M52 52V37.7L14.3 0H0v1600h15l37-37V52m872 0V37.7L961.7 0H14.3L52 37.7V52h872m52-52h-14.3L924 37.7V1563l37 37h15V0z" id="Layer0_0_FILL_1_"/></g><g><path id="Layer0_0_1_STROKES_1_" d="M961 1600h15V0h-14.3L924 37.7V1563l37 37H0V0H961.7M52 52V37.7L14.3 0m.7 1600l37-37V52h872m0 1496H52" fill="none" stroke="#333" stroke-width="2" stroke-linecap="square" stroke-miterlimit="3"/></g></g></svg>