<svg xmlns="http://www.w3.org/2000/svg" xmlns:xlink="http://www.w3.org/1999/xlink" viewBox="0 0 976 1600"><path d="M960 22v1556c0 3.3-2.7 6-6 6H22c-3.3 0-6-2.7-6-6V22c0-3.3 2.7-6 6-6h932c3.3 0 6 2.7 6 6z" fill="#fff"/><defs><path id="a" d="M960 22v1556c0 3.3-2.7 6-6 6H22c-3.3 0-6-2.7-6-6V22c0-3.3 2.7-6 6-6h932c3.3 0 6 2.7 6 6z"/></defs><clipPath id="b"><use xlink:href="#a" overflow="visible"/></clipPath><g clip-path="url(#b)"><path d="M238 1515.7c-28.7-4.9-86.3-25.7-80.6-63.3 26.1-20.4 67.2 9 78.5 37.2 2.4 4.7-3.2 6.6-2.9 10.9 0 5.7 16.8 11.1 5 15.2zm117-8.3c-31.7-6.1-98.8-65.6-54.4-90.3 31.5-1.5 90.4 64.6 54.4 90.3zm122.1-14.3c-19.4 2.6-77.2-66.2-41-85.2 30 .5 76.8 67.7 41 85.2zm-163.2-159.6c-13.6-26.2 58.1-106 77.4-76.9-3.9 29.7-34.2 76.9-68.4 71.5-4.3-.5-5.1 5.3-9 5.4zm-185.5-67.7c-32.9-19-50.2-72.6-24.7-100.8 34.6 19 54.3 74.6 24.7 100.8zm506.4-134.3c-11.3-1.1-37.8-3.4-48.7-18.6 8.3-53.5 151.2 6.2 48.7 18.6zm-300.2-.5c-16.6.8-19.7-7.1-21-19.8 7.6-18.6 59.7-34 82.7-19.5-10.9 22.6-34.8 40.3-61.7 39.3zm-219.2-8c-15.8-.1-32.8-8.9-43.2-20.8-3.2-4.2 4.3-7.6 1.4-12.1-1-2-.1-4.4 1.9-5.3.1 0 .1-.1.2-.1 26-14 54.8-5.2 80.8 9.4 14.5 18.5-26.2 29.1-41.1 28.9zm331.8-72.3c-27.1-23-37.8-71.5-23.6-104.1 40 15 48 78.1 23.6 104.1zm253.8-2c-15.6-.1-67-8.9-42.7-34.7 37.8-30.6 129 27.5 42.7 34.7zm-464.4-16c-38.4-6.4 3-61 34.5-72.8 22.7 2.7 7.1 33.1-.9 42.2-8 10.3-18.5 25.8-33.6 30.6zm-74.4-30.1c-25.4-5.4-67.8-101.6-24.9-103.2 32.4 16.6 41.5 55.5 37.4 87.9-12.6 8.5-5 13.1-12.5 15.3zm555.5-33.8c-16.9-.3-32.7-5.2-40.9-19-10.6-13.3 32.8-20.9 41.1-20.6 58 2 65.1 35.6-.2 39.6zm-203.5-30.1c-24.1-16.5-56.6-93.7-19.2-103.1 30.2 17.7 46.7 81.2 19.2 103.1zm80.2-67.3c-29.7-19.3-49.3-76.7-18.5-96.5 33 17.1 37.5 72.3 18.5 96.5z" fill="#333"/><path d="M640.8 1457.3c-25.8-7.4-38-33.4-43.1-56.5-13.2-46.5 92.9 47.2 43.1 56.5zm73.5-45c-26-6.8-44.9-39.8-46.4-63 35.9-7.6 85.8 57.2 46.4 63zm73.2-52c-24-4.1-39.3-22.9-53.7-46.3-.4-39.2 115.9 32.1 53.7 46.3zm59.5-66.6c-19.5-.4-34.1-14.5-48-26.8-31.2-28.3 40.4-19.9 49.1-9 17.5 6.2 21 34.9-1.1 35.8zm-331.1-2c-16.5-15.8 0-47.3 7.6-66.1 48.2-42.9 16.7 59.6-7.6 66.1zm88.1-22.5c-18.2-17.1-10.8-69.5 16.2-82.3 41.6-7.8 5.8 74.8-16.2 82.3zm87.5-42.4c-18-17.9-4.4-54.7 6.4-73.2 8-15 31.8-14.2 29.2 5.4-2.6 28.3-17.1 51.1-35.6 67.8zm82.7-19.3c-10.2-15.2 10-51.6 19.1-67.1 61-50 74.1 34.7-19.1 67.1zm24.5-334.8c-10.8 1.8-66.3-14.4-47.4-29.5 39.9-17.7 110.2 21.8 47.4 29.5zm-584.3-66c-25.6 7.2-88-40.3-42.3-49.9 24-1.8 124.1 47.6 42.3 49.9zm612.7-4c-18.6-1.5-42.6-8.8-52.7-23.8 8.7-14.3 49-15.4 64.9-6.9 16.2 11.9 6 31.7-12.2 30.7zm-140.4-38.2c-64-19.7-51.4-95.2-22.2-64.4 12.2 18.7 35.4 46.6 22.2 64.4zm-370.6-9.9c-13.8-6 .9-31.5 6.8-37.9 63.4-64.6 86 15.7-6.8 37.9zm532.9-27c-14.3 0-36.6-9.2-42.5-17.6 3.6-15.2 37.2-16.2 51.7-12.3 27.5 5.5 13.2 31.7-9.2 29.9zm-665.4-10.4c-28 8.8-90.1-38-40.5-53.4 23.3 1.9 106.8 59.2 40.5 53.4zm327.2-.3c-71.6-3.6-29.3-30.8 9-34.8 43.3 2 23.1 38.2-9 34.8zm208.4-27.1c-19.8-.5-62.3-55.8-33-66.5 16.9 5.3 48 54.2 33 66.5zm152-34.6c-11.3.4-57.1-4.3-41-20.5 31.2-28.2 108.3 11.4 41 20.5zm-510.4-1.1c-21.6 6.4-90-38.1-49.7-48.9 10-1.2 63.6 38.7 49.7 48.9zm-159-23c-19 1.9-54.2-43.4-46.6-62.1 5.7-17.5 24.5-21.5 33.8-3.4 6 14.4 31.6 59.5 12.8 65.5zm303.7-7.7c-80.2 7.5 46.6-74.5 41.3-16.7-6.5 11.6-28.3 15.4-41.3 16.7zm241.3-6.6c-48.4-19.6-37-113.4-2.4-57.3 3.6 18.1 18.1 45.8 2.4 57.3zm-386.5-54c-20.2-1.6-39.8-1.3-55.6-18.7-14.9-10.2-3.8-33.3 5.8-30.6 15.9.1 73.2 40 49.8 49.3zm451.9-4.1c-17.2-11.7-4.1-50.9 1.3-64.7 5-15.2 38.9-25.5 35.4-1.5-3.5 23.4-17.4 51.7-36.7 66.2zm-340.8-27c-21.9-11.1 39-45.2 47.8-44.7 47 9.9-20.2 50.4-47.8 44.7zm-120.8-51.9c-36.2 8.2-91-57-43-50 13.6 3.7 68.8 45.8 43 50zm102.1-36.6c-33-.8 23.2-55.1 39.7-53.5 56.7-2.4-14.1 58.1-39.7 53.5zm-131.4-49.9c-17.6-2.4-56.7-20.3-49.9-46.9 13.5-24.7 95 50.7 49.9 46.9zm102.5-39.7c-27.8-6.1 21.1-61 37.6-64.5 41.8 2.8-16.8 64.5-37.6 64.5zm-76.6-54.8c-25-7-70.6-64.8-29.3-77.8 23.3 11 43 55.7 29.3 77.8z" fill="#d81e1e"/><path d="M901.2 641.3c-.9-10.8-8-13.4-17-16.8-17.8-6.6-34.2-3.9-49.5 5.1-9.4 5.5-17.7 11.8-29.3 9.4-7.1-1.5-18.2 3.8-13.1-8 4.4-13.8 8.7-27.7 12.8-41.7 2-6.5 1.2-15.1 5.6-20.6 9.6-11.2 20-21.5 28.3-34.1 8.3-11.3 26.3-55.3 7.2-61.7-12-5.2-21.8 1-30.3 8-16.5 14.8-19.6 46.7-16.1 67.3 2.3 8.9 2.6 18.2.8 27.2-6.9 23.5-16.2 46.5-23.8 69.8-.8 1.5-1.6 4.6-3.6 2.3-26.5-31.8-4.1-80.4-38.1-108.1-7.4-6-15.8-3-19.7 2.9-11.8 17.9-4.3 50 11.8 64.7 9.8 9 22.7 14.9 29 27.8 5.6 11.5 18 20.7 11.2 36.2-6.3 14.2-12 28.6-17.8 42.6-15.8-19-22.3-30.2-27.5-54.8-4.6-13.4-14.6-23.3-23.5-33.9-5.2-6.2-11.8-7.9-18.5-5.8-22.1 11.2-.7 40.7 8.1 54.1 4.2 7.1 11.5 14.1 17.4 14.8 18.6 2.2 24.2 18.2 35.2 28.3 2.3 2.1 4.5 7.3 3.5 9.7-8.5 19.9-15.7 40.8-26.1 59.6-.8-.5-2-.9-2.3-1.7-6.4-12.6-20.9-20.2-21.7-36.3-.3-5.3-1.8-10.4-4.3-15.1-7.9-12.4-23.6-54.6-42.6-43.6-8.5 4.2-12.8 12-12.3 22.2 1 21.7 15.8 33.9 30.6 46.3 10.1 8.5 26.5 6.2 33.5 20.2 4.6 9.2 19.5 12.9 10.6 29.1-8 14.5-15.8 29.6-21.6 45.5-4.9 13.3-13.9 25-21 37.4-11.4 20-21.9 40.6-37 59.2-6.1-19.8-10.4-38.7-18.3-56.6-3-6.9-4.4-14.4-4.1-21.9 8.8-31.6 9.9-67.2-18.6-90.6-43-41.9-48.9 78.5 7.1 100.2 4.1 1.7 4.6 6.3 6 10.1 5.5 17.3 11.5 34.5 16.2 52.1 1.8 6.8 9.8 13.1 1.1 21.9-9.9 9.8-17.3 21.9-26 32.8-9.9 12.5-20.1 24.8-30.3 37.1-1.1 1.3-3 5-4.8.6s-4.8-8.5-5.5-12.4c-4-21.7-15-41.1-19.3-62.7-1.7-8.5-6.5-16.1-2.9-25.8 13.2-33.7 2-75.4-25.8-98.9-4.5-3.5-8.5-11.3-16.6-8.9-14.9 4.5-13 18.4-14.9 29.2-2.9 34.9 12.6 71.9 41.1 92.8 2.3 1.7 5.3 1 6.8 5.2 9.6 27.2 15.6 55.6 27.1 82.1 11.5 16-27.4 38.4-35.8 51.2-11.1 13-23.4 25.1-35.9 38.3-4.9-19.4-9.5-35.6-12.8-52.1-1.9-9.3-8.3-17.9-3.9-28.3 16.1-36.2 7.1-81.4-28-102.5-5-3.7-10.6-6.1-13.9 1.7-12.2 27.8-5.1 93.2 24.4 108.8 4.6 2.4 7.4 3.9 8.7 9 4.3 17.8 9.5 35.3 13.4 53.1 1.3 5.9 8.7 12.5-.8 18.9-8.5 5.8-16.5 12.3-23.8 19.6-73.9 66.2-171.3 97.4-266.5 119.3 14.2-13.6 20.6-30.9 33-44.3 7.7-8.3 12.4-19.4 18.6-29.3 26.9-42.5 24.1-57.3 77.6-67.5 9.2-3.4 19.1 5.1 28.9 5.3 26.9.5 48.7-10.5 64.8-32 2.6-3.5 6.8-9.6 3.8-12.8-25.5-22.6-66.9-10.2-89.4 12.1-4.5 4.5-5 12-10.1 14.5-9.8 5-20.6 8.1-32 12.4 41.5-72.7 78.3-148 106.4-227.1 9.9-34.7 22.1-69.8 27.4-105.4 3.5-20 9.8-39.8 9.3-60.6-.1-3.8-.1-10.4 7.2-12.4 9.5-2.6 18.3-7.2 27.7-10.2 6.9-2.2 13.6-9.3 20.8-5.6 22.9 13 70.8 21 83.1-9 1.9-8.3-2.8-14.8-10.5-18.4-29-14.1-55.5 5-79.4 18.2-13.5 3.4-26.4 8.2-39.2 13.4-2.3.9-4.1 4.2-6.8 2.8-3-1.6.4-4 .8-5.7 3.9-11.3.6-55.2 9.3-60 23.1-7 41.4-28.2 67.6-23.7 15.9 4 63.6-3.1 61.7-24.6-2.8-33.1-42.4-22.6-60.9-8.8-10.8 6.5-16 18.5-26.1 24.9-11.1 7-23.5 12.1-35.4 17.9-6.2 3-11.8 7.3-10.5-6.1 2-20.4 1.5-41.1 2-61.6.1-5.7-1.3-11.6 6.6-13.8 15.8-4.5 25.2-21.5 45.9-18.9s40.6-5 56.1-21c22.9-18.3.2-43.2-22.6-31.1-15.7 7-29.5 17.6-40.1 31.1-3 3.8-3.9 8.8-9.7 11.5-12.5 6-23.9 14.1-35.7 21.3-1.8-18.8-4.3-37-6.4-55.7-.9-8.9-5.2-21.2-1.1-26 7.8-9.2 16.4-20.8 32.3-19.3 22.1 6.5 82.2-30.5 69.4-53.9-15.9-26.3-63.3 6.8-71 27.8-3.1 6.2-3.8 13.6-11.6 17.3-7.3 3.5-13.5 9-20.1 13.8-.8.5.2 3.2-1.9 2.5-7.2-15.6-8.4-34.8-13.8-51.5-2.2-8.3-7.3-15 1.6-24 10.8-11.1 21-20.1 36.4-25.4 20.8-7.2 32.3-26.7 43-45.1 9.1-13-6-31.2-20.7-25.2-48.8 19.1-35.4 65.9-68.1 92.3-5-12.5-10-25.7-15.7-38.5-8.1-18.2-20.7-34-20.5-56.1.2-21.3-6.8-41.5-23.1-57.3-18-22.4-43.9 1.3-37 24 8.7 27.4 26.5 47.3 53.7 58 3.2 1.3 5 4.3 7 9.7 14.2 33.4 26 64 34.5 98.4-18-14.9-44.6-12.4-55.5-38.6-7-18.5-25.6-28.4-43.4-36.7-7.8-3.6-15.6-7.3-23.4.4-21.2 26.9 28.8 59.2 53.1 60.4 6.1.9 11.7-3.6 17.7-.6 14.3 7.2 28.9 13.9 42.9 21.8 3.6 2 9.7-3.8 11.3 5 3.8 22.5 14.3 43.9 11.4 67.1-3.3-1.2-7-1.8-10-3.7-10-6.3-23.9-6.2-31-16.8-13.4-19.8-30-36-51.7-46.1-16.2-10.8-34.3 5.3-26.3 22.3 22.3 48.4 67.5 24.4 103.8 49.1 6.7 4.1 18.4 2.5 18.7 15.3.4 16.1 2 32.2 2.8 48.3.3 7.1 3.4 17.9-10.6 8.2-7.5-5.2-19.1-6.3-24.4-12.8-13.5-17.3-57.8-64.2-79.6-41.2-23 32.5 39.2 58.3 63.4 51.5 11.9-5.9 29.3 8.8 41.1 13.1 3.8 1.9 10.5 4.6 10.5 6.8-.7 28.1-2.3 56.1-3.8 85.2-13.6-11.9-30.5-14.5-41.9-30.1-12.4-17-28.9-30.6-47.9-39.7-10.3-5.7-26.7 2.9-22.8 16.2 2.3 15.7 15 22.2 26.5 28.8 21.1 12 48.6 8 67.6 26.1 4.8 4.6 15.6 4.7 15.6 11.7-1.5 41-10.1 81.8-17.2 122.1-9.5 41.9-17.7 85.7-37 123.9-13.1-44-28.9-87.3-46.3-129.7-3.9-10.9-12.6-20.2 1.6-33.3 27.1-19.3 65.8-19.2 77.8-55.4 3.1-10.1-.8-18.3-8.7-23.8-16.2-9.4-39.7 7.1-50.9 19.8-9.5 11.8-16.7 23.4-16.7 38.7 0 11.1-10.9 15.1-14.7 23.7-26.6-41-38.5-90.6-70.4-128.5-5-6.2-7.9-12.6-7.3-21-2.3-18.8-9.7-37-17.3-54.4-12.4-29.5-44.8-24.6-50.5 6.5-1.5 26 25.2 51.1 44.3 59.7 6.5 2.9 16.4 1.3 20.4 5.7 17.1 21.8 28.7 51.6 41.5 75.4-1.7 11.7-7.4-.7-11.4 1-.9.4-2 .4-2.9 0-7.9-4.7-19.1-1.7-25.4-9.8-15.3-20-66.5-65.6-89.8-39.5-7 8.4-6.9 20-1.9 29.1 12 22 41.4 32.8 62.6 27.5 25.1-6.3 46.6.8 69 8.4 3.4 1.2 7.3-1 9.6 4.4 9.4 22.7 19.5 45.1 29.5 68-15.7-5-31.8-8.8-45.6-18.3-18.4-15.5-92.4-60.7-97.9-16.3 8.8 40.6 62.1 49.4 95.6 36.6 4.6-1.5 8.9-6.2 14-3.3 8.1 4.7 17 6.4 25.5 9.7 6.1 2.4 15.2.7 17 11.1 7.4 25 17.6 49.4 25.8 74.2 5.5 15.7 6.6 33.3 19 46.3.5.5.3 2-.1 2.9-32.6 77.1-70 151.6-115.6 222-8.1-30.4-27.6-74-19.3-103.1 5.3-8.6 9.6-20.5 18.5-23.3 30.6-10.6 59.8-43.1 59.3-76.5-.2-3.7.4-8.3-6-10.3-10.4-3.3-18 1.3-25.9 6.3-22.4 14.5-40.9 31.3-42.4 60.8-.4 8.2 7.1 16.9-1.7 24.9-5.3 5-8.1 12.6-13 18.2-8.1-14.8-12.1-31.7-18.5-47.4-1.9-5.2-6.5-13.9-5-15.1 15.5-18 2.8-69.8-10.5-87.8-6.4-9.5-16.5-14-26.1-19.3-8.5-6.6-17.1-5-20.5 3.5-19.8 35.7 6.8 100.2 46.1 110.9 4.7.5 12.8 27.1 14.6 32.2 6 21.9 15.1 42.8 20.5 64.8-1.4 0-3.1.9-4.4.2-7.8-4.4-21.7.9-27.8-5.4-7.7-17.4-25.5-18.4-39.7-23.9-17.2-6.6-35.6-8.1-52.9 3.2-7.5 4.9-14.3 16.9-9.2 22.9 19.9 27.5 53.3 31.3 84.1 19.6 27.5-13.5 16.4-10.4 46.3-9.1 12.7 2.2 14 33.4 18.9 44.2 2.9 9.2 9.6 19.5.7 31.2-23.4 31.7-44.1 66.5-67.1 98.4-2-6.1-9.2-16-8.1-21.8 12-34.7 7.6-65.8-18.9-91.9-5.7-5.7-12.6-14.7-22.6-11.1-24.8 17.9-13.3 59.7-1.3 83.2 6.6 11.1 13.8 21.2 26.5 24.7 9.6 2.7 19.4 22.7 13.5 31-18.9 26.6-38.1 53-57.3 79.4-19.9 26.4-38.8 53.5-57.4 80.8-7 12.4-31.7 37.5-24.1 51.3 4.1 2.9 6.6-1.7 9.3-4.6 24-29.1 55.7-50.8 91.6-62.5 11.2-4.6 21.3-17.1 34.5-5.3 6.1 5.4 15.1 6.5 16.2 17.9.9 10.3 6.1 20.7 13.2 28.2 20.7 20.6 51.2 38.7 81.4 33.8 19.6-3.8 1.7-13.9-.9-25.2-17.6-40.9-45.3-58-90.4-54.5-5.2-2.2-9.9-6.5-16.2-9.2 39.3-15.1 83.8-28.9 124.8-33.3 6.9 8.7 18.3 15.4 17.6 29.2-3.5 38.5 29.3 65.6 58.8 82.8 8.2 5.1 20.3 10.8 28.6 2.9 7.5-7.1 4.3-19.3 3.5-29.6-1.2-15.5-11.3-26.5-18.4-39.1-10.4-18.5-26.5-29.3-47-31.3-36.5 3-17.6-13.6-36.7-14.9 5.6-1.9 7.8-3.2 10.1-3.3 20.2-1.3 39.5-8.7 60-8.4 9.5.1 19.6-.9 28.3-4.4 25.1-10.9 38.6 3.9 50.3 23.9-1 40.4 18.5 82.3 59.1 95.5 4.3 1.5 8.9 2.1 13.5 1.9 12.7-.7 7-8.5 6.2-15.4-1.6-22.5-5.3-39.4-19.8-57.2-5.6-11-15-16.8-25.3-22.3-7.5-4.1-17.2-1.7-23.1-6.2-7.2-5.5-11.6-14.8-17.2-22.4-1.5-2.1-.8-3.6 1.5-4 19.4-3.8 38.9-7.3 58.3-11.2 19-3.9 38.5-6.8 56.9-12.6 22.3-7.1 30.4-5.8 44.2 13.6 7.4 10.3 14.8 19.3 17.3 33.8 15.6 90.6 110.8 75 49.4 4.9-12-9.1-26-14.9-38-23.2-14.9-10.3-26-26.1-38.2-38.9 15.7-6.5 30.8-12.9 46.1-19.1 5.1-2 12.5-6.4 15.4-4.4 10.8 7.1 20 16.4 30 24.7 3.1 2.5 6.4 4.2 6.1 9.1-.5 8.2 4.4 14.9 7.2 22.1 9 21.7 35.4 56.6 61.1 40 19.7-18.7-10.2-52.7-27-62-27.1-6.9-45.4-16.7-64.3-37.6-2-1.8-1-3.3 1.6-4.7 12.9-7 27.5-10.5 39.4-19.4 2.7-2 5.8-4.9 9.8-2.1 13.5 9.8 32.8 11.3 40.1 30.2 5.1 13.1 16.6 21.9 25.7 32.3 11.9 13.6 31.9 19.8 47.1 11.2 9.3-5.2 14-15.4 10.3-25-9.1-27.3-43.5-37.3-70-38.8-4.2.1-7.7 3.5-12.9 0-10.4-7.1-22-12.7-33.5-19.1 14.8-12.2 31.3-24.9 45.4-37.8 19.8 7.3 39.9 12.9 55.2 30.5 14 18.1 49.5 41.8 70.4 20.2 5.7-7.2 6.4-17.2 1.7-25.1-17.3-27-52.2-31-80.7-21.8-9.5 2.3-21.5-6.5-32.6-9.8-7.6-2.3-2.6-4.3-.6-7.3 2.4-3.5 5.3-6.5 8.7-9 31.1-16.3 66.5-28.5 82.7-62.4 23.9-60-79.4-58.1-78.7 49-28.2 27.1-56.4 49.3-89.2 72.9 10.6-17.6 9.4-36.2 24.2-52.9 15-17.6 30.8-36.5 31.7-62.4.5-13.7-1.1-25.3-16.6-28.1-21.1-2.5-36.1 30.3-37.5 47.8-1 14.7-3.6 29.9 4.2 43.9 1.1 1.9 1.3 3.4.2 6.1-4.8 11.6-7.9 23.9-13.1 35.3-3.5 7.7-4.1 17.8-13.1 21.9-22.6 9.5-44.7 20.4-68 28 1.7-4.7 2.9-9.6 5.6-13.8 6.6-13.8 7.4-30.7 22.6-39.8 3.8-2.5 7-5.9 9.4-9.8 10.7-16.8 30.5-64.5 5.3-75.4-11.4-3.8-20.5 2.9-28.6 12.9-13.9 17.1-14.8 35.9-13.6 56.1.6 10.4 10.2 19.1 4.9 30.4-4.6 9.8-9.2 19.7-13.4 29.7-2.8 6.7-3.6 15.4-11.1 17.9-22.1 7-44.4 14.5-67 19.8 1.8-6.2 6.4-12.8 6.9-18.9 3.7-18.1 13.6-32.6 23.8-46.9 11.3-15.8 21.9-31.8 21.4-52.4 1.5-16.2-15.8-25.7-28.6-15-11.2 8.2-13.8 20.9-17.5 32.9-4.3 13.6-6.5 27.2-3 41.7 1 4.3 7.6 6.7 3.4 13.6-5.1 8.4-6.7 18.8-11.2 27.6-3.6 7.2-3.4 17.4-12 21-51.1 10.4-103.7 18.7-155.5 26-13.4.9-26.3 2.2-39 6.6-1.1.4-2.6-.1-3.9-.2 11.3-16.4 19-38.3 41.4-44.7 21.2-7.7 39.9-24 53.2-41.9 7.9-9.8 8.7-22.7 12-34.4 2.1-7.5-4.4-21.9-9.8-20.6-27.7 4.7-48 25.2-63.7 47.3-8.9 11.6-14.7 25.3-16.7 39.8-.8 4.9 2.1 9.9-2 14.9-7.3 9-12.9 19.4-20.5 28.1-4.3 4.9-5 12.9-14.6 14.1-37.4 3.4-72.7 16.1-108.2 27.4-47 15-94.7 33-133.9 63.5-.2-7.6 6.4-13.5 10.8-18.3 30.5-37.9 58.5-77.5 87.4-116.8 11.9-16.1 25-31.4 35.7-48.3 5.5-8.6 11.9-14.8 20.9-15.4 100.3-13.1 197.3-56.4 274.4-122 19.5-15.6 36.4-35.7 56.5-49.9 17.6-.8 34.9 2.9 52.3 4.6 8.6.8 17.9-.5 23.2 9.5s38.2 21.9 48.8 19c93.5-21.1 2.7-72.1-44.2-46.5-5.9 2.9-8 13.8-18 8.9-3.2-1.6-7.3-1.7-10.9-2.1-12.8-1.4-25.6-2.7-38.3-4-3.4-.3-1.4-1.7-.5-2.7 17.6-19.3 37.2-36.6 53-57.6 1.6-2.2 4.7-5.4 6.4-5.1 13.3 2.7 26.7 1 40 1.7 8.1.4 19.5-.8 23.7 3.8 18.8 19.5 54.5 26.4 78.8 16 48.9-21.2 1.2-45.9-28.2-51.2-16.8-3.3-40.8 3.1-50.3 17.7-1.4 2.1-4.1 5.3-5.8 5-16.2-2.1-32.5-1.6-48.8-1.6-2.7 0-3.7 0-1.3-2.8 6.3-7.6 11.3-16.4 18.3-23.2 13.2-12.8 16.6-35.7 39.1-38.8 7.7-1.1 16.8-2.4 22.7 2.6 10.9 9 23.5 13.9 36.7 16 16.7 5.2 89.6-13.7 58.4-36.4a75.6 75.6 0 00-34.6-14c-57.7-12.5-52.6 28.2-84 19.5 19.8-29.5 36.6-61.3 52.9-93 3.3-6.7 9.5.4 14.5.3 8.1-.2 18.8-2.5 24 1.6 21.1 16.8 43.5 27.1 71.1 24.3 14.3-1.5 22.5-14.4 14.5-26.1-11.2-15-40.7-18.7-58-15.1-20.8 5.8-41.3 9.8-62.3 3.8 19.1-17.2 14.1-64.8 49.1-56.8 6.1 1.7 13.7-1.8 19.4 1.7 19.2 16.9 66.6 39.2 80 5.6 5.1-30.4-38.4-29.4-58.1-24.5-11.4 1.9-20.4 11.6-33.1 9.3-5.9-1.4-22 2.5-23-5 5-12.4 10-24.8 14.9-37.3 4.6-11.8 8.7-24.1 25.8-20.1 6.1-.5 17.9-4.1 22.2-.6 14.5 15.1 45.1 24.2 64.6 16.8 13.3-3 19.1-23.6 6.5-31.3-14.2-8.2-30.5-9.6-45-3.8-5.8 4-68.5 18.7-59.5 3.1 3-8.6 5.2-17.7 9.7-25.4 5-8.4 1-25.3 19.2-22.5 9.8 1.5 19.7-5.3 29.3.3 13.1 10.1 77.2 18.2 74.7-8.4zm-92.4-105.1c.3-20.5 4.1-54.7 31-53.9 17.3 3.5-11 55.6-19.7 62.5-3 3.4-6.4 11.8-8.8 9.5-4-3.9-2.5-11.8-2.5-18.1zm-60 73.5c-.1 1.7-1.1 4.4-3.8 2.3-15.8-12.8-26.7-28.3-28.1-50.3.4-6.1 1.9-14.4 9.4-14.9 17.4-1.2 24.2 49.7 22.5 62.9zM717 685.3c-13.8-2.7-49.2-43.2-32-58.2 20 9.7 30.2 35.4 34.8 56.1.7 3.6-.7 2.5-2.8 2.1zm-30.3 75.3c-18.6-5-53.1-37.6-41-57.1 1.9-3.5 4.5-6.7 9.9-6.7 4.3 0 4 3.5 5.2 5.1 12.8 17.2 26 36.1 25.9 58.7zM568.2 786c8.9 27.6 17.4 54.1 26.2 81.4-24.2-22-34.5-47.9-26.2-81.4zm31.7 66.7c-8.8-25.4-17.3-50.1-25.7-74.3 20.5 10.1 33.4 45.8 25.7 74.3zm-85.7 82c-22.1-23.9-37.3-59.5-28.6-91.8 8.3 24.6 16.8 49.8 25.3 74.9 2 5.6 5.3 10.8 3.3 16.9zm7.7-13.2c-9.6-27.2-19.1-54.5-29-82.5 27.3 16.8 37.8 65.8 29 82.5zm-98.3 29c8.3 33.9 15.7 64 23.6 96.1-25.3-27.8-27.2-59.3-23.6-96.1zm30 84.2c-7.6-27.8-14.6-53.5-21.7-79.3 26.1 19.9 28.4 47.1 21.7 79.3zM320 1123.4l65.1-20.7c-11.9 20.7-52.5 30-65.1 20.7zm72.5-31.5l-75.2 21.2c9.5-17.3 38.3-25.6 75.2-21.2zm83.9-389.1c18.6-13.5 44-22.7 61.8-11.3 1.9 1.1 3.6 4.8 3.3 7.1-8.3 21.6-51.7 14.9-67.2 6 .7-.7 1.3-1.3 2.1-1.8zm14.9-96c10.1-9.3 22.3-14.3 35.5-17.1 16.5-2.1 24.3 18.7 6.2 23.1-12.4 5.4-25.9 7.5-39.3 6.2-4.2-.6-10.5 2.4-11.7-2.7-.6-2.4 5.9-6.5 9.3-9.5zm-21.4-81.4c8.8-12.1 49.3-48.5 61.4-28.5 1.6 4.1-1.7 6.4-4.1 9-14.8 16.8-34.5 21.3-55.6 21.7-1.2 0-3.4-.3-1.7-2.2zm-19.3-96.7c7-17.4 39.4-44.8 57.7-32.9 8.1 19.8-45.5 48.8-62.9 42.7 1.7-3.4 3.5-6.6 5.2-9.8zM424 332.8c9.9-15.5 21-34.4 39.9-40.1 9.9 1.4 10.6 8.2 6.8 13.7-9.7 13.9-17.7 29.5-33.5 37.9-15.9 10.2-24.5 4.7-13.2-11.5zm-76.7-38c-20.2-8.4-60.9-52.3-31.4-70.4 10.4 6.1 19.3 13.3 22.9 24.5 5.6 14.7 10.2 29.6 8.5 45.9zm-30.8 93.9c-17.5-5.6-33.3-14.2-42.1-31.6-2-5.2.3-12.9 7.1-12.3 12.2 4.5 24.3 10.6 33.4 20.9 3.5 3.9 8.9 5.3 11.1 11 1.6 4 5.2 7.3 5.6 12-5.1 0-10.6 1.4-15.1 0zm36.8 87.1c-54.8 3.1-76.8-55.8-45.4-41.4 19.4 8.4 35.7 23.2 46.6 41.1l-1.2.3zm6.6 83c-7.4-.6-14.9-2.3-22.3-1.7-11.8.9-36.6-17.3-36.6-26.5.5-13.7 8.4-15 16.9-11.2 17.5 8.6 37.5 20 44.7 39.1-.9.2-1.8.2-2.7.3zm-13.3 90.1c-70.6-20.5-47.8-78.5 14.2 1.2-4.7-.4-9.7 0-14.2-1.2zM326 719.3c7.4-13.4 48.9-39.2 49-8.5-4.3 10.2-12.1 18.6-22 23.6-11.2 5.7-23.1 10-34.5 15.5-3.7 1.8-3.4.3-3.6-2.2-1-11.4 4.8-20.6 11.1-28.4zM203 627c-18.1 1.7-49.7-38.8-44-56.8 22.5-42.9 42.7 35.5 46 53.1-.5 1.3.9 3.4-2 3.7zm-2.8 85.8c-25.8 1.6-63.9 1.4-71.1-30 4.5-40.2 66.8 12.7 77.4 27.8-2.1.8-4.2 2.1-6.3 2.2zm43.2 81.5c-17.5 19.1-81.8 5.4-82.5-25-.8-22.1 52.1 2.4 62 10.5 4.1 2.7 8.3 5.3 12.4 7.9 3 2.1 8.8 3.1 8.1 6.6zm35.2 173.2c3.1 20.6-24.8 53.1-42 61.2 12.2-21 27.9-40 42-61.2zm-5.9-4c-15.2 21.1-33 39.8-46.6 63.3-4.2-21.8 18.1-51.1 46.6-63.3zm-110.5 35.1c-1.1-.2-3.9.3-4.5-.6-19.1-26.5-45.1-57.9-29.9-92.7 11.8 29.4 21.7 59.4 34.8 88.1.5 1.5-.2 3.4-.4 5.2zm8.2-11.8c-12.4-28.1-22-55.8-35-83.9 20.4 11.5 31.1 27.7 33.6 49.3-.1 9.7 6.6 27.1 1.4 34.6zm-81.3 123.5c-4.8-3.4-10.7-5.2-13.7-10.7 23.8.2 47.4 7.6 71.1 10.5 1.8.3 3.7-.7 5.6-1.1-20.9 9-41.8 16.3-63 1.3zm64.1-9.4c-21.5-3.5-43.5-4.1-64.7-9.8-3.8-1-8.5 2.1-11.3-2.8 8.5-2.7 14.1-7.9 23.7-7.2 17.6 3.1 41 4.4 55.9 19.1-1.2.2-2.5.9-3.6.7zm-24.8 160.9c-27.4-18.3-38.5-55.9-28.6-86.9 7.8 24.4 15.4 48.5 23.3 72.5 1.6 4.8 6.8 8.4 5.3 14.4zm9.4-14.3c-.1 1.2-1 2.2-1.5 3.3-12.7-27.2-17.9-54.8-32.6-81.7 27.4 18.9 37.7 47.3 34.1 78.4zm94.4 243.7c.1.5.2 1 .2 1.5-23.3-13.1-42.7-28.8-65.9-43.2 28.6-1.5 54.7 15.6 65.7 41.7zm5.8 20.5c-37.4-7.7-65.9-20.6-80.4-55.3l80.4 55.3zm62.4-90.6c21.8 1.5 35.9 14.6 46.9 31.9 8 12.7 18.3 24.8 15.2 42.2-21.4-25.8-43.6-49.3-66.2-73.2 1.3-.3 2.7-1 4.1-.9zm-10.1 12.9c.1-.7.1-1.4.2-2.2 21.9 23.6 43.5 47.1 64.5 71.5-27.7-9.1-65.8-37.1-64.7-69.3zm196.1 47.2c-16.4-24.4-37.4-44.2-50.4-69.4 22.2 1.4 50 34.6 50.4 69.4zm-26-16.7c5.5 7.3 9.8 15.7 17.3 21.5.7.6.8 2 1.2 3-31.3-6.7-48.2-40.5-51.1-69.9 8.4 17 21.3 30.6 32.6 45.4zm139.2-73.1c23.5 8.4 44 25 49.5 50.3.8 5-1.2 8.3-5.1 10.6-3.7 2.2-7.1.2-10-1.7-21.4-12.9-30.4-35.5-34.4-59.2zm74.7-40.2c25.5 8.3 44.7 21.1 50.6 48-.2 7.8-10.3 11.5-17.1 7.2-19.7-12.3-29.2-31.9-36.7-52.7-.9-2.7 1.3-3.1 3.2-2.5zm67.4-44c17.6-2.1 53.4 15.3 59.2 33.2 0 14.1-10.9 19.6-22.9 13.4-18.3-9.4-30.9-24.4-40.8-41.8-2.5-4.3 2.5-4.4 4.5-4.8zm53.9-52.5c15.3-10 66.6 3.7 63 25.5-10 25.3-44.7-5-56.3-15.7-2.8-2.9-9.6-5-6.7-9.8zm1-112.1c9.4-13.2 28.8-18.3 39.6-7.4 7.4 7.5 1 15.2-2.2 21.5-11.9 24.1-36.9 35.2-59.7 46.7 4.4-21.4 9.2-42.3 22.3-60.8zm-95.3 13.1c5.7-11.2 24.3-12.4 21.8 2.6-1.5 27.4-16.8 45.4-31.6 64.4-9.2-21.5-2-47.3 9.8-67zm-102.4 84c-4.1-33.4 32.1-68.3 35.8-40.8-.4 25.8-10.5 47.9-29.2 65.6-3.4 3.2-3.9-4.8-4-5.9-.5-7-4.5-13.6-2.6-18.9zm-85.6 32.9c4.7-15.6 5.9-51.5 26.6-53.2 7.1 1.1 4.8 7.8 5.2 12.6.3 16.6-10.3 28.6-18 41.8-2.4 5.5-6.3 10.3-11.2 13.8-2.6-4.6-3.8-10-2.6-15zm-125.9-16.8c-4.8 32.4-27.3 60.8-58.2 70.6 17.8-24.8 37.2-48.4 58.2-70.6zm-11-2.4c-20 24.1-41.2 47.2-62.5 76.1 12-36.6 30.7-61.8 62.5-76.1zm293-141.1c-27.1-7.6-51.7-9.2-77.2-9.5 22.8-11.1 51.3-10.5 77.2 9.5zm-2.8 5.3c-25.4 16.8-49.6 10.3-76.5-3.8 27.8-2.4 52.1 1.5 76.5 3.8zm-6-100.4c20.4-14.6 57.5-6 72.9 9.6-26 0-52.9-.5-76.8-5.3 1.3-1.5 2.3-3.2 3.9-4.3zm72.9 17.9c-18.9 12.3-43.4 14.4-77.8-3 28 3.7 52.5 2.7 77.8 3zm-20.1-70.4c-6.3-.9-25.2-4.1-28.2-9.7 22.3-4.8 49.6-.3 75.5-1.8-16.5 7.4-31.4 12.5-47.3 11.5zm46.7-20.5c-27.2 3.4-53-5.4-82.3 1.7 29.2-18.9 55-14.4 82.3-1.7zm-8.1-97c8.7-1.7 17.4-3.2 26.4-4.9 11.6 3.7 40.4 2.3 40 19-1.8 7.4-10.8 7.1-16.7 7.4-19 .8-35.8-5.8-50.5-17.9-1.2-1.3-1.7-3.3.8-3.6zm31-70.4c9.8-4.3 20.2-5.3 31.1-6 7.2 1.8 15.2-1.3 22.7 4.4 16.5 12.9-.7 27.2-16.4 23-4.8 1.9-58.2-21.5-37.4-21.4zm70.6-76c6.1 1.7 13.1 1.5 15.2 8.3 3.5 11.6-7.6 11-13.4 13.5-10 4.4-39.2-5.8-45.6-14.8 14.1-5.1 27.8-11.4 43.8-7zm39.2-56.6c-.7 3.5-3.3 4.8-7 4.8-18.1 3.3-37.3 3.5-53-6.1-2.2-1.3-4.7-2.4-.7-4.7 18.4-10.3 37.1-14.3 56.6-3.2 3.3 1.8 5 5.6 4.1 9.2z"/></g><g><path d="M52 1548v15l-37 37h946l-37-37v-15H52M52 52V37.7L14.3 0H0v1600h15l37-37V52m872 0V37.7L961.7 0H14.3L52 37.7V52h872m52-52h-14.3L924 37.7V1563l37 37h15V0z"/><path d="M961 1600h15V0h-14.3L924 37.7V1563l37 37H0V0H961.7M52 52V37.7L14.3 0m.7 1600l37-37V52h872m0 1496H52" fill="none" stroke="#333" stroke-width="2" stroke-linecap="square" stroke-miterlimit="3"/></g></svg>