<svg xmlns="http://www.w3.org/2000/svg" xmlns:xlink="http://www.w3.org/1999/xlink" viewBox="0 0 976 1600"><path d="M960 22v1556c0 3.3-2.7 6-6 6H22c-3.3 0-6-2.7-6-6V22c0-3.3 2.7-6 6-6h932c3.3 0 6 2.7 6 6z" fill="#fff"/><defs><path id="a" d="M960 22v1556c0 3.3-2.7 6-6 6H22c-3.3 0-6-2.7-6-6V22c0-3.3 2.7-6 6-6h932c3.3 0 6 2.7 6 6z"/></defs><clipPath id="b"><use xlink:href="#a" overflow="visible"/></clipPath><g clip-path="url(#b)"><path d="M0 1604c-7.7-3-7.6-587.7 0-590.7 25.7-6.4 46.2-30.3 74.5-36.8 5.5-3.2 19.7-1.2 18.7-10.7 7.1-13.5 29.3-15.3 41.5-19.1 3.3-.7 5.4-3.9 4.7-7.2-.1-.4-.2-.8-.4-1.2 11.6-16.7 40.9-19.5 57.4-27 119.4-37.6 259.2-48.5 373.4-17.5 6.1-8.1 19.7 7.8 25.3-2 34.2-7.9 76.6 20.4 110.8 32.9 11.7-8.6 10.5-5.1 24.1-1 5.5 0 5.8-7.8 12-6.5 24.7 7.7 48.8 17.3 73.3 26.4 56.3 21.4 110.2 51.5 160.7 81.3 11.5-.9.2 571.2 4 575.2.9 11.8-976-.3-980 3.9z" fill="#333"/><path d="M934 673.8c-74.5-9-130.3-62.8-204.5-74.2-32.6 27.7-78.9 34.1-121.2 36.9-6.1-2.1-55.3-8.5-38.9-17.1 9.1.2 82.6-13.3 48-23.7-47.2-3-95 13.5-143.1 4.3-45.9-13.1 49.5-20 55-27.1-1.5-12.6-10.7-17.4 9.9-19.8 46.2 8.3 8.8-14.5 36.9-20.8 22 3.7 21.2 13.8 30.7-10.7 7.9-8.3 16 2.3 23.8 3.8 10.5.4 2.1-31.8 29.1-9.9 12.7 10.3 15.9-24.3 39.6-8.3 47.8-27.3 11.1 17.4 50.4-45.2 11.5-14.1 31.5-13.8 45.2-7 8.1-2.3 15.6-6.7 23.6-6.9 16.4 1.4-6.4 21.4 6.1 26.2 4.4 1.6 5.3 6.6 7.2 9.8 19.7 28.4-45.7 17-9.2 44.2 1.4 15 25.4 10 26.1 25.2.1 4.2 4.3 5.9 8 5.8 12.2-.1 22.4 4 22.7 16.9 7.6 5 18.3 3.9 21.7 14-.8 25 12.3 10.6 20.8 28.5 1.8 7-8.3 8.8-8.2 15.1 8.8 12.9 29.4 16.2 35.5 30.9 6.1 10-9.4 8.8-15.2 9.1zm-401.7-140c-53.7-3.7-96.5-39.3-145.4-55.5-19.7-5.6-44.1-21.8-64-16.4-36.7 29.3-88.3 38.3-132.5 31-64.9-13.8 11.4-15.3 31.7-25.9 27.7-28.5-117 2.1-131.5-4.1-44.1-2.2-34.2-16.9 1.9-21.5 15.4-6.7 44.1 4.6 31.5-21.6 7.9-14.5 27.8-.3 38.5-6.6 1.6-8.6-2.6-20.8 11.9-20.6 22.7 4.1 20.7 13.2 30.8-10.9 8.8-8.9 16.9 5.3 25.6 3.7 2.7-1.1 4.3-3.9 4-6.8 2-20.1 19.9-4.7 27.9 0 11.2-7.7 20-22.3 35-11.4 7.4-1.8 13.4-13.6 22.5-8.9 2.8 1.7 6.5.8 8.2-2l.6-1.2c21.5-61 49.3-34.3 85.9-46.5 15.6-.8 1.9 16 4.1 22.9 3.7 3.9 9.5 6.4 10.5 12.3 17.1 23.5-17.6 17.3-21 32.8.9 6.1 9.4 5.4 11.6 10.9 4.2 3.4 1.3 11.1 8.3 11.5 17-1 13.9 15.9 23.5 20.5 8.3.5 23.8 1 24.8 12.4 1 12.6 26.9 6.7 23.7 26.1-.1 18.3 34.6 7.6 11.6 36.3 8.6 11.3 63.7 38.5 20.3 39.5zm414-206c-74.1-5.8-136.8-71.6-209.8-72.1-35.1 29.6-90.4 39.2-133.8 30.9-59-13.4 17.6-16 33.7-25.2 31.9-28.8-118.8 1.4-132.2-4.5-43.6-2.2-33.5-17.2 2-21.5 16.7-7 43.7 4.8 31.7-21.8 6.4-17 40.8 6.9 38.9-13.1-3.6-5.4 4.2-15 11.4-14.1 8.6-.9 15.8 7.9 23.7 4.8 5.5-15.7 10.6-25.2 28-12.3 18.3 6.5-2.8-34.9 36.8-6.4 11.1-7.7 20-22.3 34.9-11.5 8.5-3.6 15.2-14 25.7-7.9 20.5-29.3 28.8-50.1 54.2-48 14.1 4.3 25.4.8 39.1-2.8 10.4.1 4.7 12.9 2.3 18.2-2 7.6 19 20.7 14.3 27.2 1.5 11.3-34.7 14.3-19.2 26.6 2.2.4 7.3 7.1 8.2 12.3 3.3 10.1 25.7 7.3 24 20.6 3.1 12.8 24.7 1.7 29.4 14.8 2.2 3.7-.6 10.5 6.1 11 25.2 3.5 12.8 18.9 21.6 27.1 7.3 2.6 20.6 10.3 15.5 19.3-2.6 2.3-7.6 4.1-7.2 8.5 8.7 11.7 64.3 38.8 20.7 39.9z" fill="#ff970d"/><path d="M453.8 714.3c-14.6-9 40.4-79.9 56.7-81.5 11.8-11.6 88.3-9.3 76.4 8.9-50.1 14.6-91.9 41.5-133.1 72.6zM51.7 574.4c-14.7-9 40.8-80.3 57.1-81.9 10.7-11.3 90.8-9.1 76 9.4-49.9 13.8-92.5 42-133.1 72.5zm413.9-205.8c-14.9-8 41-80.6 57-81.8 10.3-13.9 101.9-4.9 72.5 9.9-48.4 15.5-90.1 41.1-129.5 71.9z" fill="#d81e1e"/><path d="M976.4 1028.5c-4.6 5.3-31.6-20.2-39.8-22.6-62.5-34.3-129.1-65.1-197.4-84.5 61.8 31.8 114.2 79.4 151.8 137.9-50.3-54.6-104.7-110.8-176-136.7.3 3.7 3.8 3.6 6 5.1 44.3 30 72.9 73.1 102.5 116.6-3.6.1-13.8-9.3-16.4-12.9-17.9-25.1-37.8-48.7-59.5-70.5-34.6-33.7-101.6-63.9-149-67.3 64.7 25.1 118.7 72.1 156.9 129.6 4.1 4.7-.7 10.2-4.1 3.7-31.8-36.3-63-74-106-97.7-24.2-12.1-44.8-28.1-72.1-33.7 40 19.8 73.5 48.3 102 82.3 7.7 9.5 14.8 19.4 22.2 29.2 1.6 2.1.3 3.5-1 4.7-.3.3-2.2-.7-2.9-1.5-29.2-34.5-60.6-67.1-98.7-91.8-69.9-47-155.8-42.1-235.8-34.9-74.8 8.5-147.7 19.6-216.4 53.8 36-3.8 66.9-2.7 101.1 6.8 52.2 9.9 100.5 34.4 135.3 75 2.7 4-4.8 3.7-6.4 1-45.7-49.1-114.9-68-179.3-76.3-27.3-1.1-72.7 6.5-96.4 21.4 81.8-9.8 177.1 2.8 235.9 65.4-41.5-34.3-94-48-146.1-56.2-66.1-10.8-126.6 2.9-180.1 43.3-1.7 1.1-3.7 2.8-5.2 1-.8-1.4.1-4 .9-5.2 7.1-9.8 18.2-14.7 27.5-21.8 108.5-86.3 248.5-117.4 384.4-123.4 140-6.9 281.3 15 410.1 71.2 27.5 12.6 148.3 65.5 152 89zm-4.4 334.3c-150.5-28.4-309 31.4-426.1 124.9-22 18.7-79.8 69.8-79.9 97.8 8.2-1.8 14.4-17 21.4-22.6 27.8-29.6 56.6-57.8 89-82.3 34.7-28.3 79.6-39.3 123-45.2 56.3-9.1 113.3-.1 166.5 17.7-.7-1.8-.9-4.5-2.1-5.2-11.9-6-23.9-11.4-36.7-15.2-58.6-14.9-119.7-15.1-177.6 2.7 32.5-22.9 77.7-23.2 116.4-28.8 53.5-5.5 106.9 1.9 157.6 19.3 1.2.4 3-.8 4.5-1.2-21.8-17.8-55.3-21.1-82.8-25.6-12.8-1.4-26.1 0-38.5-2.9-12-2.8-23.4.3-35.2-.6-10.3-.8-20.8 2.1-31.2 3.3-.9.1-1.9-.8-2.8-1.2 71.5-31.4 156.1-40.2 233.8-28.5 4.8 2.2 5.4-5.5.7-6.4zm1.8-204.8c-93.1-78.4-219.3-104.7-338.4-106.7-98.1-3.7-203.7 6.7-284.5 66.3-102.8-10.4-212.7-8.4-307.4 37.5-14.6 7-34.5 10.8-42 26.8.1 1.8 4 3 4.7 2.6 6.6-4.9 15.3-5.4 21.9-9.4 15-9.2 31.8-10.3 48-11.6 54.4-8.2 109.9 3.6 159.2 28.4 4.2 2.3 6.5-.8 2.7-3.3-45.5-34.7-105.2-40.8-160.4-35.3 48.2-20.4 101-24.9 152.2-28.8 15.1-4 27.4 2.4 40 6.3 72.5 24.8 122.6 69.8 165.3 131.3 2.3-5.1-1.3-10.8-3.6-15.3-36.3-56-88.7-102.6-153.4-122.6 27.3-3 51.4 11.2 74.7 22.8 50.6 25.1 89.3 69.3 124.6 112.6 4.6 8.5 12.1 3.4 5-3.9-31.3-45.7-65.8-82.6-113.9-114 62.4 22 115.2 60.6 166.4 101.3 3.9 2.7 7.2.6 2.8-2.7-44.2-47.3-101-83.6-161.3-106.7 106.6 19.7 211.5 60.4 288.9 139.1 1.3-3.4 1.2-5.6-1.1-7.8-26.3-26.3-52.2-53.7-85.3-71.3-64.1-39.4-137.2-59.3-210.4-73.8 1.8-2.2 3.2-5.5 5.5-6.5 46.6-22 96.9-39.7 148.2-45.6 100.7-13.9 224 63.8 287.8 138.4 1.3 1.5 3.1 3.6 5.5 1.8 6.3-2.5-9.6-17.4-11.6-21.1-52.3-58.8-121.8-101.7-197.5-123 50.1-3.7 98.1 13.2 143.2 33.3 64.2 24.4 116.1 70.9 165.7 117.1 3.3 3.3 7.8 9.8 11.6 6.4 4.8-4.3-1.1-8.6-5.1-11.9-59.7-62-132.5-114.5-215.4-141.1 74 6.3 146.9 29 212.8 62.9 17.8 9.5 34.7 20.7 51.7 31.5 2.5 1.6 3.2-.2 4.7-.4-.7-1.3-.9-2.9-1.8-3.6zM453.2 377.7c11.1-40.4 31.6-83.6 72.6-100.1 36-12.3 75.3-9.7 111-24-11.1 2.4-22.3.8-33.5 1.6-30.3 2-61.2 8.3-91.5 7.1-13.4-1.7-40.8 1.9-44.4-15.9 2.3-13.8 60.5-20.6 73.3-20.1-6.3-2.2-9-6.8-8.3-12.8 3.2-15 28.8-14.5 39.9-8.8.6.3 2.5.9 2.2-1.4-5-28.9 20.5-20.5 37.8-13.1-2.3-26.7 17.6-24.4 33.7-12-4.7-25.3 16.6-26.3 27.8-11.2 8.5 11.7 10.2-30.4 38.8-8 2.1 1.9 2 .3 2.2-1.6 3.1-8.7 20.2-17.1 22.8-3.8 10.7-29.3 34.4-67.2 69.8-48.6 8.3.1 23.5-12.4 30.5.3.7 1.2 1.3 3.3.7 4.3-11.1 25 44.5 35.4-10.5 58.1 4.9 5.1 12.3 8.3 13.3 17 .4 3.4 5.2.7 8 1.5 9.1 2.7 13.9 6.9 13.6 16.9 0 12.3 29.1-5.7 32 21.6.6 5.4 7.2 3.6 10.8 5.6 8.6 4.9 12.5 10.9 10.3 20.8-.6 2.6 2.4 2.8 4.2 3.6 9.5 4.1 19.8 7.5 18.4 21-.8 7.1-7.4 7.2-12 10 78.3 43 35.1 60.3-28.1 36-53.5-17.2-100.3-49.6-154.5-64.4-7.2-2.2-11.5 6.6-16.3 10.4-35.8 27.6-81.6 24.4-123.5 32.8-51.2 13.9-99.2 39.1-137.4 76.4-2.4 4.6-15 11.5-13.7.8zm381.1-95.9c-41.4-40.7-78.8-56-109.8-49.8 3.7 2.9 7.7 5.8 11.4 8.9s6.8 8.8 11 9.7c31.3 6.6 57.4 18.5 87.4 31.2zm65.6 3.3c-15.7-5.8-32.3-5.4-48.7-5.9-2-.1-6.1-1.4-5.8 1.2.5 3.7 1.4 8.5 5.6 10.4 35.2 13.6 68.2 37.5 108 31.8-13-20.8-37.5-28.9-59.1-37.5zm-15.8-26.4c-17-.1-34-.1-48.7 9.8 7.9 5.1 18.2.2 27 .9 18.3-1 36.5 2.8 52.9 11 5.6 2.8 10.7-.7 15.1-4.2-7.1-16.4-30.7-16.7-46.3-17.5zm1.4-22.2c-21.5-.1-43.9 7.3-59.8 21.9 2.7 2.6 2.6 2.3 10.2-1.1 24.1-11.9 49.1-8.5 74.6-6.8-1-13.3-14.8-14.1-25-14zm-33.4-16.7c-15.2 4.7-26 16-38.1 25.2-1.2.9-4.4 1.7-2 3.7 8.4 13.3 20.8-20.4 66.9-21.8 2.7-.1 5.3-1.4 7.9-2.2-1.7-1.9-3.2-4.9-5.2-5.4-8.8-1.5-19.1-4.1-29.5.5zm-19-22.2c-16.3 8.8-28.1 22.3-39.5 36.4-.8 1-2.1 1.8.1 2.9 4.3 2.1 8.4 4.5 12.9 7-.6-7.6 7.6-8.3 11-13.3 6.8-10.3 18.5-15 29.7-20 3.1-1.4 9.6.8 9-4.1-.8-7.6-16.1-12.7-23.2-8.9zm-6.8-19.6c-24.2 2-35 29.1-43.5 47.9-.7 1.9-3.3 3.3.2 4.8 2.7 1.2 4.8-.4 5.7-2.5 7.6-17.5 22.1-28.4 37.2-38.6 2.1-1.4 7.7-.9 6.2-3.8-1.5-3.2-4.5-8.1-5.8-7.8zm6.8-45.6c-10.1 11.4-17.7 26.4-34.3 29.4-2.3.3-3.9 6-5.6 9.3-.2.4.8 1.5 1.3 2.3 12.1-5.3 23.7-10 34.9-15.4 9.5-4.6 21.6-9 7.8-22.3-1.4-1.5-2.2-5.2-4.1-3.3zm-54.7.4c7.6.7 10.8-8.5 21.5-3.3 7.3 4.6-1.3 14.3 2.1 21.3 17-7.6 25.1-24.6 30.7-41.2 1-14-48 18.4-54.3 23.2zm-32.6 20.7c19.8-11.1 32.4-32.7 55.2-43.5-26-5.2-45.4 10.9-55.2 43.5zm-6.6 23.3c-.1.3.6.8 1 1.3 8.2-5.8 16.6-14.9 27.3-12.6 9.4 2.8 3.5 12.1 6.3 18.3 11.8-11.2 17.7-27.7 20.4-43.3 1.1-4.3.3-4.7-6.8-1.3-18.2 8.7-40.4 16.4-48.2 37.6zm-14 20.3c-5.1 4.5-11.9 9.2-16 14.4-2.6 4.7 7.2 4.5 8 8.1.3 1.4 1.3 5.2 4.6 5.2 16.8-5.6 33.7-5.6 49.6 1.7 1.3.6 3 1.6 3.2-1 1.8-18.5 15.5-30.6 24.2-45.9-21.8.3-28.5 22.9-37.3 39.5-.7 1.2-3.1 2.5-4.2 2.1-2.5-.7-1.4-2.8-.6-4.5 5.7-13.1 11.8-28.6 8.2-42.9-14.5 3.3-27.5 14.7-39.7 23.3zm-16.6 4.5c10.5-9.5 19-14.7 22.3-24.3 1.9-5.5 7.3-10.5 4.2-17-3.6-12.6-18.8 1.2-19.5 8.8-2.1 9.4.9 19.7-7 32.5zm-19.4 9.3c4.7-1 11 4.7 13.3.6 6.1-11.1 7.3-25 6.3-37.4-2.2-5.1-.3-14.4-9.9-12.8-7.7 1.3-12.7 7.4-15.6 14.4-5.1 12.8 4.4 23.4 5.9 35.2zM653 175.1c1.8 8.5 17.1 42 29.2 37.5-1.1-11.6-7.8-24.4-11.3-36-2.5-6.7-7.5-11-15.2-9.5-5.5 1.1-1.1 5.9-2.7 8zm-32.4 17c4.9 8.6 13.9 11.8 20 18.5 2.5 2.8 1.5 10.1 8.5 8.4 5.4-1.6 10.8-3 16.2-4.7 1.2-.4 2.1-1.5.7-3.1-9.9-11-18-23.8-31.5-30.9-3.6-1.9-8.2-6-12.3-2-3.9 3.6-5 7.7-1.6 13.8zM584.5 204c6 10.8 18.1 10.2 27.3 15 16.5 14 12 9.3 31.1 1.1-11.5-8.5-49.2-39.3-61.8-26.1-3.4 4.8 1.7 6.8 3.4 10zm10 40.7c-24.5-17.9-59.1-10.2-87.4-5.5-9.5 2.1-19.9 2-29.1 9.3 38.1 10.1 74.8.4 112.9-1.7 1.3 0 2.5-1.3 3.6-2.1zm21.7-13.2c-20.6-8-40.9-20.8-63.9-20.3-10.9.3-14.8 3.6-4.1 11.8 8.4 7.8 19.2 3.9 28.8 5.1 13.2 1.7 25.2 17 39.2 3.4zm55.8 8.1c11.5-6.1 21.7-19.8 37.9-11.4.3.2 1.1-.6 1.7-.9-22.3-15.9-81.5 4.6-102.8 18.1 21-1.4 43 4.2 63.2-5.8zM584 278c15 .1 25.5 10.3 39.4 8.5 37.8-5.7 83-5 111.2-35.1-2.5-1.4-5.5-4.4-7.2-3.8-9.9 3.2-17-17.1-33.4-10.3-34.6 20.7-69 34.9-110 40.7zm-88.7 34.9c5.2-.8 8.5 3.5 12.7 4.7 5.6 1.5 6 12.4 12.4 8.4 24.5-14.3 50.4-25.7 77.5-34.2-36.4-16.9-76.3-9.5-102.6 21.1zm-29.8 51.7c16.9-12.5 27.1-24 45.2-32.4-8.4-5.5-17.5-20.4-26.8-3.5-5.9 11-11.4 22.3-18.4 35.9zM574 612.7c17.2-2.7 33.9-7.8 50.8-12.9-11.7 3.2-23.6.1-35.3 2.1-16.4 3.4-33.9.2-50.2 3.7-13 2.3-26.3 3.2-39.5 2.5-13.3-1.1-40.9 2-44.2-15.8 2.1-13.3 61-21.1 73.4-19.8-14.5-5.8-8.7-22.6 5.1-23.9 14.3-5.6 30.8 6 28.6.7-10.2-16 12-24.9 24.7-17.9 4.2 2.1 9.5 1.6 13.1 6-1.5-28.1 16.4-26.1 34-13.2-5.5-24.6 16.7-26.6 27.7-11.1 9.1 11.1 10.5-30.8 38.8-8 2.3 1.9 1.9.1 2.1-1.8 2.9-8.4 20.2-16.8 22.6-4.3 11.6-27.8 34.5-66.9 69.8-48.3 16.4-1.4 34.2-16.8 29.3 12.5-1.5 8.3 5.1 9.1 7.9 12.9 16.7 19.5 4.6 30.4-16.3 37.4 5.2 5.3 12.4 8.5 13.5 17.2.4 3.2 5.2.6 8.1 1.5 8.7 2.7 13.9 6.6 13.4 16.5-.6 13.6 26.3-6.7 32 21.5 1.1 6 8 3.7 11.9 6.3 7.5 5 11.5 11.1 9.5 20.3-.4 1.8.5 2.3 4.1 3.9 9.3 4 19.4 7.2 18.3 20.6-.6 7.5-7.4 7.5-11.9 10.4 13.2 6.7 44.1 24 41.3 40.2-14.1 17.3-51.3 0-69.5-4.3-53.2-17.3-100-49.3-154-64.2-7.7-2.4-11.7 7.2-17.6 11-43.1 31.8-98.8 21.5-146.8 39.1-34 12.5-65.9 31.1-95 52.8-7.9 5.8-15.3 12.3-22.2 19.3-3 3.1-6.1 4.3-9 2.8-4-2-.8-5.8 0-8.5 6.7-25.5 16.6-49.7 34.4-69.5 22.6-29.1 62.6-33 97.1-37.7zm-75.2 65.8c-8.4-7.4-19.3-19.8-27.5-2.9-5.3 10.9-10.9 21.7-17.4 34.7 16.4-11.8 27.3-23.8 44.9-31.8zm87.1-40.7c-36.5-16.9-76.4-9.5-102.8 21.3 5.2-1 8.3 2.9 12.1 3.9 6 1.5 6.9 12.9 13.2 8.9 24.4-14.2 50.4-25.7 77.5-34.1zm236.7-9.8c-38.8-38.7-77.8-56.1-110.3-50.4 4.4 3.6 8.5 7.3 13 10.6 3.6 2.7 4.9 8 10.1 8.8 31.5 5.9 57.2 18.2 87.2 31zm65.7 3.1c-15.8-5.9-32.6-5.5-49.1-6-2 0-6.1-1.5-5.7 1.3.5 3.7 1.4 8.4 5.7 10.4 34.9 13.7 68.3 37.5 107.7 31.8-12.5-20.8-37.4-28.8-58.6-37.5zM874 604.7c-17.5-.3-35.2-.1-50.8 9.4 6.1 8 31.6-2.1 38.7.9 16.2 2.9 29.3 4.7 41 11.2 5.4 3 11 .4 14.1-3.2 7.1-12.2-34.6-19.8-43-18.3zm-.2-22.2c-21.7 0-44 7.2-60.1 22.2 4.2 8.1 7.3-.1 10.9-1.7 24-11.8 48.8-7.9 74.1-6.6-1.6-13.1-14.7-14.1-24.9-13.9zm-33.7-16.7c-15.2 4.7-26 16-38.1 25.2-1.2.9-4.4 1.7-2 3.7 8.4 13.3 20.7-20.4 66.9-21.8 2.7-.1 5.3-1.4 7.9-2.2-1.7-1.8-3.2-4.8-5.3-5.3-8.8-1.6-19-4.2-29.4.4zm-19.2-22c-16.3 8.6-27.9 22.2-39.2 36.1-.8.9-2 1.4-.2 3 21.5 17.1 18.4-20 63.4-29-.5-8.1-16.6-14-24-10.1zm-9.5-19c-20.9 1.2-33.2 30.6-40.5 47.2-.6 1.6-3.3 2.8-.1 4.5 2.9 1.5 5.1-.2 6.1-2.4 8.1-19.5 27.6-32.6 43.6-42-2.4-3.3-4.8-8.4-9.1-7.3zm9.8-45.9c-5.9 4.1-9 12-14.4 17.1s-12.2 8.8-18.4 13.1l-2-2.1c-1.7 3.9-4.4 7.4-4.8 11.7 11.8-3.7 24.4-7.9 34.6-14.5 5.5-3.8 22.6-2.8 12.4-17.8-1.9-2.8-3.1-10.5-7.4-7.5zm-55.5.4c9.3-.9 12.6-8.6 22.2-3.7 7.3 4.6-1.3 14.2 2.1 21.3 17-7.6 25.1-24.6 30.8-41.1.5-14.1-47.9 18.1-55.1 23.5zm-32.9 22.8c4.6-5.6 9.4-8.5 13.8-12 13.6-10.5 23.8-25.1 39.8-32.8 1.5-.7 1.7-2.1-.2-2.1-12.1-.4-25.3-1.3-33.2 9.4-7.9 10.9-15.7 22.4-20.2 37.5zm-5.4 21.3c1.1-.4 2.5-.5 3.3-1.2 6-5.9 13.5-8.8 20.3-11.4 13.7.9 8.7 11 10.6 18.9 10.6-8.5 15.3-22.3 18.8-34.8.8-3 4-12.5.1-11-19.9 8-46.2 16.2-53.1 39.5zM713 543.1c-5 4.4-11.6 9.3-15.8 14.1-2.5 4.4 5.7 5.1 7.3 7.7 1.1 1.8 1.8 5.8 5.2 5.8 16.7-5.5 33.5-5.5 49.4 1.5 1.4.6 3.2 1.7 3.4-.5 1.6-18.7 15.6-30.9 24.3-46.4-3.5-.2-8.4-1.6-9.3-.3-5.9 8.6-17.2 12.4-20.2 23.5-1.3 4.9-4 9.5-6.3 14.1-1.2 2.5-3 6.2-5.9 4.3-3.3-2-.5-5.4.8-7.7 6.2-11.7 8-24.3 8-37.2 1.2-11-37 18.6-40.9 21.1zm-13.5 1c7.5-5.8 15.8-11 19.2-20 2.1-5.7 7.4-11.2 4.3-18-3.6-12.5-19.2 2-19.5 9.7-1.8 9.2 1 19.2-4 28.3zm-21.8 12.6c.3 1.5 7.4 1.6 11.4 2.1 1.4-.1 2.2-2.1 2.6-3.3 4.1-8.8 12.1-49.6-4.7-48-7.9.3-13 7.3-15.7 14.6-4.8 12.6 3.9 23.1 6.4 34.6zm-14.2 1.7c.6 1.1 4.3.3 6.6.3.3-.7.4-1.6.3-2.4-2.4-7.2-4.7-14.5-7.6-21.6-3.5-8.6-3.4-20.1-14.7-21.7-6.9-.1-6.5-.1-7.2 5.2-2.3 18.9 14.7 27 22.6 40.2zm-54.8-20c4.4 7.9 12.4 11 18.3 16.7 3.3 3.2 2.5 11 11.2 9.6 4.1-1.2 9.5-2.6 14.9-4.3 1.2-.4 2.4-1.5 1-3.1-10-11.1-18.2-24.1-31.9-31.2-3.5-1.8-8.1-6-12.3-1.7-3.8 4-4.4 8.1-1.2 14zM572.5 550c6 10.8 18.1 10.2 27.3 15 16.5 14 12 9.3 31.1 1.1-11.5-8.5-49.2-39.3-61.8-26.1-3.4 4.8 1.7 6.8 3.4 10zm10.1 40.7c-24.8-17.9-59.1-10.3-87.5-5.5-9.5 2.1-19.9 2-29 9.3 38.2 10 74.8.4 112.9-1.7 1.2 0 2.4-1.4 3.6-2.1zm21.7-13.2c-17.8-6.4-58.2-30.4-74.7-16.3 8.4 15.5 21.2 12.2 35.5 12.9 13.1 1.6 25.1 16.9 39.2 3.4zm34.6 15.2c7.1 1.5 16-5.8 24.2-9 10.9-4.3 19.3-17.4 33.8-9.6.6.3 1.8-.4 2.7-.7-23.2-16.7-81.7 6.5-107.2 19.7 6-.7 8.4-1.3 10.7-1.1 11.8.8 23.5-2 35.8.7zm-69 30.8c16.8 1.2 26.5 9.3 41.2 8.9 37.5-4.1 78.4-5.9 109-31.3 9.3-7-13.5-7-17.7-13.2-6.7-5.8-15.8-8.7-24.7-2.3-32.8 20-66.1 32.9-107.8 37.9zM417 1446.1c-48.9-40.9-106.4-75-169.4-87.7-26.6-3.1-52.7-10.5-79.4-12.2 77-12.9 154.7 7.2 225.7 37 25.8 9.7 50 22.4 71.6 39.6 13.8 9.8 24.3 24.7 40 31.5-48.7-79.3-219-129-308.9-123.3l-.4-1.7c73-21.8 148.8-35 225-37.6 26.6-1.2 53.3.8 79.9 1.9 20.9.3 44 8.1 64 3-32.2-10.2-67.7-11.8-101.6-14.4-18.9-2.6-37.7-1.1-56.3-.2-89.4 4.1-178.5 19-261.9 52.3-51.6 24.6-115.8 46.3-144.6 98.1 23.7-9.3 40.2-36 65.6-43 75.6-24.2 145.5-5.3 214.9 27.6 34.9 15.4 67 37.1 92.9 65.3 8.3 10 19.3 17.7 29.1 26.3 5.6 4.9 8.8 12.3 16.7 14.5-72.8-102.2-203.6-176.4-332.6-148.4 56.6-34.2 123.5-12.6 183.3.1 74.4 22.7 140 68.7 189.7 128.2 20.7 11.3-39.2-56-43.3-56.9zM525.5 309.3c4.6-.5 9.7.4 9.6-6 .1-4.9-2.6-6.2-6.8-6.3-6.3-1.5-7.5 12.4-2.8 12.3zm-9.1 333.6c-4.3-.1-5.6 2.6-5.6 6.7-.3 3.8.6 6.7 4.5 5.4 4.4.3 7.7-.4 7.8-5.7.1-4.8-2.5-6.3-6.7-6.4zM41.6 574.6c35.3-111.8 89.2-87.3 181.3-113.9l-.3-1.5c-41.8 2.8-84 9.9-125.8 9.1-11.8-.8-24.9.4-36.4-6.4-32.2-20.6 55.1-30.5 66.4-29.3-6.8-3-10.1-7.7-7.9-14.8 6.2-13 28-12 39.3-7 .5.2 2.2-.9 2.2-1.3-3.9-28.9 20.4-20.8 37.9-13.1-2.3-26.7 17.6-24.6 33.7-12.1-4-25.6 16.5-26 27.8-11.1 8.5 11.6 10.8-30.8 38.8-8 2.1 1.9 2 .5 2.3-1.5 3.6-9.3 21-17.8 23.1-2 8.8-31.3 34.7-68.3 69.5-50.5 8.4.1 23.3-12.3 30.5.3.7 1.2 1.3 3.3.8 4.3-11.8 23.9 45.2 36-10.6 58.1 4.9 5.2 12.3 8.3 13.3 17 .4 3.5 5.2.7 8 1.6 9 2.7 14 6.8 13.6 16.9-.1 12.4 29.1-5.7 32.1 21.6.7 5.5 7.5 3.6 11.2 5.8 8.3 4.9 12.1 11 10 20.7-.6 2.7 2.3 2.8 4.1 3.6 9.5 4.1 19.8 7.4 18.4 21-.7 7.1-7.3 7.2-12 10 14.4 5.6 65.8 40 28.6 47.2-61.6-1.6-114.5-38.5-169.9-60.9-13.5-5.9-27.3-10.8-41.5-14.8-7.2-2-11.4 6.7-16.1 10.4-35.8 27.7-81.6 24.4-123.5 32.8-21.1 5.3-41.6 13.1-60.9 23.1-27.4 14.2-54.3 30.1-76 53-2.4 2.6-5.9 6-8.8 5.9-13.7-.8-4.1-11.6-3.2-14.2zm380.7-86.1c-34.5-30.1-66-56.6-112.2-50.9 4.5 3.6 8.8 6.9 13 10.4 3.3 2.8 6 7.9 9.5 8.6 33.1 6.7 57.1 18.9 89.7 31.9zm63.6 2.6c-15.7-5.8-32.3-5.5-48.7-5.9-2-.1-6.1-1.4-5.8 1.2.4 3.7 1.4 8.5 5.6 10.5 35.1 13.6 68.2 37.4 108 31.8-13-20.9-37.5-29-59.1-37.6zm-31.1-26.8c-11.8-.1-23 3.9-33.6 9.6 4.6 7 20.3-.3 28 1.2 18.2.1 35.9 2.9 52.4 11.5 5 2.6 10.3-.2 13.4-3.3 3.5-3.6-1.1-7-4-9-17.1-11.9-37-9.8-56.2-10zm16.9-21.8c-21.7-.1-43.9 7.3-60 22 3.8 7.4 6.5.6 10.2-1.1 24.1-12.4 49.4-8.2 74.9-7.1-2-13.1-14.9-14-25.1-13.8zm-33.9-16.7c-14.9 5-25.6 16-37.6 25.1-1.3 1-4.4 1.7-2.3 3.6 8.4 13.7 21-20.5 67.4-21.7 2.5-.1 5.1-1.3 7.6-2-1.8-1.9-3.4-5-5.6-5.5-11.3-2.4-21.6-3-29.5.5zm-20.1-21c-15.9 8.2-26.6 21.6-37.6 34.8-.7.9-2.8 1.8-.8 3 4.4 2.6 8.9 4.8 13.4 7.1-.9-7.5 7.5-7.8 10.7-12.7 6.8-10.7 18.7-15.2 29.9-20.4 3-1.4 10.2.8 8.9-4.4-2.4-9.1-16-11.8-24.5-7.4zm-5.2-19.2c-23.4-3.4-34.7 28.9-43.3 45.5-.7 1.5-4.8 3.9-.1 5.6 3.3 1.2 4.5-1 6-3.8 9.1-18.8 26.2-30.4 43.7-40.7-2.1-2.4-3.8-5.8-6.3-6.6zm6.7-46.7c-5.9 4.1-9 12-14.4 17.1s-12.2 8.8-18.4 13.1l-2-2.1c-1.8 3.9-4.3 7.4-4.9 11.7 11.8-3.6 24.4-7.9 34.6-14.4 5.5-3.8 22.8-2.6 12.5-17.8-1.9-2.8-3.2-10.6-7.4-7.6zm-54.6-.2c7.5.6 10.4-8.2 21-3.4 7.7 4.5-.9 14.2 2.1 21.4 17.2-7.4 25.2-24.3 31-40.8 0-14.3-47.5 17.9-54.1 22.8zm-32.8 20.8c19.8-11.2 32.4-32.7 55.2-43.5-26-5.3-45.2 10.7-55.2 43.5zm-6.4 25.1c18.8-15.3 28.6-22.3 34.4 5.1 10.2-8.8 15.2-22.1 18.5-34.6.8-3.2 3.8-12.6.4-11.4-19.7 8.2-48.3 16.9-53.3 40.9zM311 403.1c-5 4.3-10.8 9-15.5 13.5-3.6 4.9 5.2 5.6 7 8.3 1.1 1.8 1.8 5.8 5.2 5.8 16.7-5.5 33.5-5.5 49.4 1.5 1.4.6 3.2 1.7 3.4-.5 1.6-18.7 15.6-30.9 24.4-46.4-3.5-.2-8.4-1.6-9.3-.3-5.9 8.6-17.2 12.4-20.2 23.5-1.3 4.9-4 9.5-6.3 14.1-1.2 2.7-3.3 6.4-6.3 4.1-2.5-1.7-.1-5.2 1.1-7.5 6.3-11.6 8.1-24.3 8-37.2 1.2-11-37 18.6-40.9 21.1zm-13.5 1.1c7.5-5.9 15.8-11 19.1-20 2.1-5.7 7.4-11.1 4.4-18-3.6-12.5-19.2 2.1-19.5 9.6-1.8 9.2 1 19.2-4 28.4zm-22.4 12.7c4.6-1 10.9 4.7 13.3.5 6.1-11 7.2-25.1 6.3-37.4-2.1-5.1-.2-14.4-9.9-12.8-7.7 1.3-12.7 7.4-15.5 14.4-5.1 12.9 4.4 23.5 5.8 35.3zm-36.8-34.4c1.7 15.9 15.5 24.3 23.6 36.1.7 1 4.4 0 6.7 0-2.5-12.3-7.7-24.4-11.8-36.4-2.5-6.4-7.5-10.6-15.1-9.1-5.8 1.3-1.1 6.2-3.4 9.4zm-31.7 15.8c4.4 8 12.4 11 18.3 16.7 3.3 3.2 2.5 10.9 10.8 9.8 1.9-1.4 20.7-3.1 16.1-7.7-7.1-8.1-32-41-43.8-32.7-3.8 3.7-4.6 7.8-1.4 13.9zm-37.9 9.6c4.1 5.9 8.7 11.9 16.1 12.1 20.4 4.1 17.9 22.9 44.3 6.3-12.4-8.8-48.1-38.7-61.9-26.4-2.4 2.9-.5 5.2 1.5 8zm11.7 43c-5.2-6-25.9-11.9-34.4-11.4-25.3 1.7-59.7 2.2-82.1 15 38.9 8.7 78.6 2.9 116.5-3.6zm21.8-13.4c-17.4-6.4-58.6-30.5-74.6-16.3 8.8 15.8 21 12 35.5 12.9 13.1 1.7 25.1 17 39.1 3.4zm53.2 9.7c15.4-8.4 21.6-19.2 42.2-13.6-20.5-17-81.9 6.4-103.7 17.7 21.1-1.5 41.2 3.9 61.5-4.1zM168 483.5c16.8 1.3 26.6 9.3 41.2 8.9 21-3.7 42.7-2.3 63.4-9.1 5.6-.8 60.3-22.3 44.5-28-16.6-2.4-26.9-22.8-44.3-7.6-32 18.4-64.4 31.1-104.8 35.8zm-86.4 35.2c4.7-.3 8.1 3.5 12.1 4.7 5.6 1.7 6.5 12.5 12.4 8.7 24.4-14.2 50.7-26.2 77.8-34-35.7-17.9-76-9.8-102.3 20.6zm-29.9 51.7c16.4-12.4 27.8-23.1 45-32.2-8.4-6.3-18.5-20-27.1-3.3-5.6 11.1-11.1 22.2-17.9 35.5zm59.7-55.1c4.7-.5 9.8.4 9.7-6 .1-4.8-2.5-6.3-6.6-6.4-4.5-.1-5.7 2.7-5.6 6.6 0 2.9-.4 5.8 2.5 5.8z"/></g><g><path d="M52 1548v15l-37 37h946l-37-37v-15H52M52 52V37.7L14.3 0H0v1600h15l37-37V52m872 0V37.7L961.7 0H14.3L52 37.7V52h872m52-52h-14.3L924 37.7V1563l37 37h15V0z"/><path d="M961 1600h15V0h-14.3L924 37.7V1563l37 37H0V0H961.7M52 52V37.7L14.3 0m.7 1600l37-37V52h872m0 1496H52" fill="none" stroke="#333" stroke-width="2" stroke-linecap="square" stroke-miterlimit="3"/></g></svg>