<svg xmlns="http://www.w3.org/2000/svg" xmlns:xlink="http://www.w3.org/1999/xlink" viewBox="0 0 976 1600"><path d="M960 22v1556c0 3.3-2.7 6-6 6H22c-3.3 0-6-2.7-6-6V22c0-3.3 2.7-6 6-6h932c3.3 0 6 2.7 6 6z" fill="#fff"/><defs><path id="a" d="M960 22v1556c0 3.3-2.7 6-6 6H22c-3.3 0-6-2.7-6-6V22c0-3.3 2.7-6 6-6h932c3.3 0 6 2.7 6 6z"/></defs><clipPath id="b"><use xlink:href="#a" overflow="visible"/></clipPath><g clip-path="url(#b)"><path d="M484.1 940.8c-21.5-13.3-39-33-59.8-48-30.6-16.5-46.9-71.5-64.4-68.5-48.3 30-106.1 5.1-158.6 10.8-9.8-4.2-37.5 18.7-38.2 3.1 2.7-4.2 7.9-10.4 1.9-14.2-9.8-75.8 119.4-246.1 179.7-122.3 4.1 12.3-7.9 12.2-16.1 11.1-36 2.9-80.6 15.6-91 41.6 11.4 7.5 25.5-10.4 39.9-12.8 27.8-7.3 58.8-22.6 82-7.1 6.5 8.9 33.6-22.8 50.5-18.1 22.4-1.3 41.1 6.7 55.6 22.5 23.4-22.7 61.9-22.8 92.6-10.7 16.4-3-20.6-63.3 24.2-61.5 27.6 3.1 60 8.1 90.6 21.6 23.5 6.1 41.6 33.4 61.5 31.6-5.5-32.4-60.5-49-84.5-59.3-18-4.9-36.3-8.6-54.8-11-6.4 1.1-18 2.9-17.1-4.6 16.6-93.7 151.2-36.8 169.9 33.4 3.5 15.5 26.9 54 9.8 68 4 12.2 16.3 25-7.8 22.2-42.7-6-82 2.7-124.3-6.9-82.8-37.4-7.2 10.1-49 76.6-20.1 41.5-53.4 82.2-92.6 102.5zm-13-201.4c-8.9.6-5.4 10.3-2.8 15.5 10 26.2 14.1 51 15.6 76.9 6.1 187.2 44.2-69-12.8-92.4zM437.9 663c-19-18-11.7-57-2.8-81.7 3.8-21.1 44.5-38.7 47.6-11-4.1 34.4-24.2 68-44.8 92.7zm-85.1-72.3c-30.2-24.9-4.5-89 29.8-102.1 58.1-12.2-11.2 91.2-29.8 102.1zM534.3 551c-28.4-4.8-62.7-24.6-63.3-57.7-1.9-8.5 2.4-23.5 15.8-22.8 18-1.2 70.1 71.2 47.5 80.5z" fill="#5d4e8c"/><path d="M590.5 1604c-14.5-1.3-54.7 1-68.8-.1-9.3-1.9-38 7.2-26.6-12.9 19.5-170.3 22.6-341.2 45.6-511.2 4.4-67.3 13.6-133.5 24-200.1 9.1-43.1 36.4-75.4 25-121.7.6-14 18.2-.2 25.4 1.8 4.5 2.9 10.8.4 15.2 4.9 8.5 3.9 26-1.1 32.4 7-17.2 101.8-37 211.8-40 316.7-14.3 132.6-5.8 117.8 43.3 5.7 58-101.8 116.8-194.5 193.4-281.5 12-12.3 120.4-133.1 112-94.8-53.6 69.6-93.7 149.5-138.1 225-24.2 40.6-42.6 83.5-59.7 127.4-5.7 20.5-22.5 41.7-15 59.8 26.4-12.1 42.2-46.5 64.9-64.1 40.1-36.8 81.5-90.4 131.1-109.6-66.7 86.4-150.7 172.1-192 278.8-76.4 190.9-48.2 125.7 57.3 23.8 37.6-32.8 79.3-58 121.9-83 37.4-10.7-19.5 30.6-22.9 40.7-67.9 85.5-133 182.5-151.3 290.6-28.6 137.6 55.9 88-177.1 96.8zm-175.6 0c-38.7.1-107.7-.1-146.6 0-3-5-72.2 7.4-68.3-4.9 18.3-108.8-13.4-233.6-55.2-333.9-27.9-55-48.6-97-92.2-149.7-65.5-67.8-6.1-32.4 31.5-6.5 40.4 29.5 90.8 72.6 125.7 113.8 77.1 121.5 60.6 90.6 34.9-24.5-49.4-159.4-115.6-319.8-225.5-445.5 44.8-.1 87.5 50.4 121.5 76.7 101.9 85.6 147.2 221.4 211.3 329.6 11-71-20.5-153.4-31.8-226.5 2.9-18.7-35.7-89.9-19.3-92 23.8-1.6 44.1-5.5 62.6-19 15.3 16.6 24.8 42.3 40 52.6 11.5 10.3 15.7 24.2 19 37.4 40.4 179.3 66.8 367.1 55.5 550.7.4 48.7-5.7 91.5-13.9 138.6 1.2 7.3-46.8 1.1-49.2 3.1zM235.6 675.8c-42.7-59.5-73.7-142.8-126.8-200.1-7-16.4-106.2-95.2-85.1-99.3C167.6 416.2 269 543.1 334.3 669.6c-6.6 20.7-29.1-40.7-98.7 6.2zm471.6-56.5c-43.5-33-81-9.8-50.4-59.5 59.4-131 142-250.3 253.3-343.1 9.7-7.6 64.5-60.7 65.6-38.5-127 125.9-210.2 277.9-268.5 441.1z" fill="#333"/><path d="M493.1 908.5c-11.9-7.5-3.4-28-6.2-40.2-2.9-46.3-6.4-99.1-30-138.2-11.2-13.9-44-8.2-32.8-33.6 3.3-11.9 23-60.2 36.7-38.2 16.4 23.8 39.5 56.8 13.6 76.5 22.9 33.6 28.8 78.4 24.4 120.5-3.1 15.6 7.4 42.8-5.7 53.2zM231.3 762.7c-13.2-13.3 40.7-36 54.4-41.1 20.2-10.9 42-8.3 61.9-6.4-5.8-37-16.2-70.1.8-107 11.2-38.1 54.8 83.2 19.5 116.5-41.9 2.2-94 12.2-136.6 38zm327.5-34.9c-17.7-10.3-38.5-1.6-39.4-30.1-.8-20.5 1-50.6 18.7-67.7 2.7-1.3 4.1-4.4 3.2-7.2-5-21-8.1-49.5.2-69.5 32 21 34.7 65.3 35.2 89.7 5.5 13.2 30 4.3 42.8 10.3 24.9 4.9 49 13.4 71.5 25.2 7.9 3.5 65.7 41.4 41.5 45.4-18.8-13.8-39.2-28.1-63.2-37.5-34.2-11.1-71.8-24-104.2-16.3-18.7 22.4 3.3 52.2-6.3 57.7z" fill="#ffeb5c"/><path d="M728.1 577.3c19.7-46.9 39.3-94.5 62.1-140 51.5-92.9 114.7-180.7 188.7-257.3 11.3-6.4-.5-16-9.3-10.3-45.9 23.9-80.4 64.4-119.7 97.5-82.2 78.1-141 176-190.4 277.4-4.5 9.3-7.4 19.5-13.1 28-3.5 5.3-2.4 15-8.8 15.9-23.8 1.8-41.5 12.4-57.8 29-3.6-16.3-7-32.5-16.1-47-4.8-7.5-14.7-12.1-16.1-20-5.2-29.8-19-54.6-40.7-74.9-31.3-30.2-52.2 9.7-36.4 36.5 10.8 23.7 30.5 33.5 53.2 40.9 4.3 1.4 13.3-.1 12.5 4.2-3.7 19.2-5.6 38.2-1.4 57.5.8 3.5 2.1 9.2.5 10.5-18.6 18.3-22.1 45.5-21.7 70.3 0 8.4 10.5 22.6-10.6 19.8-.9-.1-2.3 1.7-2.8 1.4-3.1-2-7.9 6.1-8.7-.1-3.6-26.6-15.3-48.6-34.4-67-1-1-1.6-.7-.6-2.8 9.4-21.2 26.3-39 29.9-62.9 1.6-10.8 4.2-23.8-6.5-30-31.6-16.1-55.7 24.7-55.8 52.8-1 18.6-2.9 36.9 6.2 54.4 1.4 2.7 4.8 6.3 2 9.9-6.9 8.7-9.5 18.9-12.7 29.3-1.3 4.2 6.3 12.4-3.5 12.6-17.7-.7-25.2 1.5-40.6 9.9-1.3-6.4 6.4-11.1 7.5-17.3 9.1-31.5 1.3-67.1-15-95-3.1-5.4-11.4-10-8.2-16.5 4.1-8.5 11.6-15.5 17.3-23.3 14.3-21.4 53-68.8 22.2-89.5-45.9-3.1-77 62.9-59.1 101.6 2.8 5.3 13.1 10.3 6.9 19.8-7.9 18.3-13.3 36.3-11.9 58.2C306.6 604 269.9 555 228.4 507.9c-13.5-17.5-28.9-33.4-45.8-47.6-48.2-41.9-105.9-73.7-167.5-91.1-3.4-.9-7.4.2-10.9 1.1-.9 1.3.1 3.7 1.6 5.3 14.8 13.7 29.5 27.3 43.6 41.7 31 33.6 63.3 66.3 89.1 104.1 31.3 43.9 55.3 92.8 81.5 139.9 6.5 10.4 9.5 24.6-4.9 30.8-16.2 20.6-30.7 42.3-39.7 67.2-7.4 20.4-15.5 40.6-16.7 62.8-.6 12-2.8 14.1-8.1 10.8-32.5-30.6-97.6-91.4-143-91.8-1.2.2-3.6-.2-3.6 1.1 2.7 5.2 6.2 10 10.4 14.1 70.4 68.3 112 160.4 154.3 247.5 45.1 99.6 79 202.4 98.9 310.2-31.3-73.5-74.6-122.4-135.8-171.8-23.6-20.6-99.5-86.6-130-70.7 43.6 34.2 75.6 81.4 103.6 128.6 70.2 117.2 101.8 255.9 94.6 392-.5 2.6-.2 7.3 3.9 7 5.6-.7 1.8-10.8 3.6-14.7 11.3-182.6-55.8-372-182.1-505 42.2 18.8 81.9 50.4 116.4 82 62.8 51.9 115 120.3 133.7 200.9 8.6 57.4 13.6 115.2 14.9 173.2 2.1 19.8.5 40 .7 60.1 0 1.1 2 2.2 3 3.4 7.8-42.8 2.8-89.3.9-133.3-.6-25.7-4.1-51-8-76.4-17.6-143.2-60.2-284-123.4-413.7-39.9-78.3-75.1-160.2-140.9-221.2 45.6 13 80 47.9 115.2 78.1 104 95.3 162 229.6 216.6 357 4.6 10.5 1.1 23 2.9 34.2 6.2 54.5.2 109 1.5 163.7l-2.1.3c-13-58.7-19.3-118.8-39.9-175.5-29.3-88.8-62.9-179.3-120.3-254-1.4 4.9 1.6 8.1 4.1 11.6 19.5 32.6 38.8 65.4 54.3 100.2 46.7 98.1 75.4 202.7 93.8 309.5 9 33.2 8.7 67.1 6.1 101.1 1.5 40.6-5.7 80.4-9 120.3 7.5-2.1 9.4-29.3 11-36.9 3-37.9 6-75.8 7.3-113.8 9.5-120.1 4.8-240.5-9.4-360-8.6-62.4-23.9-123.7-36.4-185.3-5.5-19.6-12.6-38.8-19-58.1-.5-1.5-.5-2 1.7-2.2 10.8-.6 21.6-2.1 32.1-4.6 3.5-.8 10.7-8 13.6 1.3 21.8 69 44.1 137.9 50 210.4 27.5 148.6 17 299.8 18.9 449.9-1 32.8-8 66.1-4.9 98.5.7 1.1 1.7 2 2.8 2.7 6.4-18.3 4.3-39 7.2-58.2 1.5-20 3.7-39.9 3.9-59.9-3.1-49.6-1.4-99.2.9-148.8-.3-44-3-88-2.9-132-4.2-29.4-4.5-59.4-8.2-88.7-2.9-18-6-36-7.6-54.2-5.6-57.5-18.3-114.1-36-169.1-3.6-11.8-9-23.3-11-35.4-1.5-9-16.6-19 .6-28.7 3.3-1.8 2.3-3.7 4.5.4 9.4 18.1 20.4 35.4 35.6 49.1 28 26.5 35.5 142.5 46.8 185 30.7 156.5 34.1 316.9 22.6 475.6-2.2 17.5-4.8 34.8-9 51.9-.9 3.4-4.4 8.2-.9 10.2 4.5 2.1 7.7-4.1 8.7-8 7.6-32.3 11.1-65.2 12-98.3 2-79.8 3.8-159.7 1.3-239.4-4.7-42.6-10.2-85.5-6.8-128.7 1.5-30.3 2.1-61.8 6.5-91.6 7.5-28.9 5-81 26.4-102 18.6-16.1 34.3-33.5 50.7-52.4-9.5 75.3-20.6 148.4-25 224-7.3 73.6-18.6 147.1-23 221-6 89.5-8.1 179.1-18.2 268.3-.3 2.8 1.1 4.3 3.8 4.3 2.9 0 2.3-2.4 2.3-4.2 0-9.2 2.5-18.1 2.9-27.5 14.9-106.3 14-214 23.6-320.8 18.8-121.1 22.1-243.9 43.1-364.6 2.9-28.8 22.9-50.6 26.5-79 2.2-12 1.2-23.5-1.9-35.2-.8-3.2.5-7 .9-10.5 5.7 3.5 13.5 4.3 18.7 7.9 4.9 4.5 17.7-1.6 15.9 11.2-.8 6.2-3.4 12.2-4.9 18.3-20.3 86.8-38 174.5-46.8 263.3-4.1 93.7-14 187-17 280.6-1.7 17.4-1.1 35.1-6.9 52.2-10.9 40.1-18.9 81.2-25.9 122.3-2.1 11.7-2.9 23.7-4.5 35.5-1.2 17-11.1 39.5-2.8 55 2.7.7 3.2-2.6 3.6-4.6 5.8-37.6 12.2-75.2 17.6-112.8 20.3-107.1 51.9-211.8 94.2-312.4 32-80.6 77.9-154.8 127.5-225.7 57.7-87.7 124.7-168.3 207.2-234.4-46.6 60.3-80 129.2-120.8 193.5-15.7 29.3-32 58.5-47.8 87.7-15.8 39-34.1 77.2-46.4 117.4-3.3 12.7-6.8 25.5-12.1 37.5-16.7 24.8-36.3 49.1-53.4 74-21.3 33.2-38 63.5-56.9 99.3 36.2-117.7 89.9-225.8 142.4-336.4 7.1-17.8 17.5-34.3 26.3-51.5 1.7-2.8 5.8-8.4.7-10.3-74.9 133.9-141.4 273.4-182.7 421.4-22.1 55.9-48.4 110.8-66.1 168.5-4.5 18-26.2 77.7-16.8 90.5 9.3-9.3-1.3-5.1 5.8-20.3 27.4-102.6 65.9-203 118.2-295.6 43.7-74.1 93.2-144.9 153.9-206.2 43.1-44.4 85-88 137.3-122.3-108 114.2-201.7 246.8-237.3 401.7-.6 5-1.3 9.8-3.8 13.7-11.3 18.1-22.2 36.3-33 54.7-25.9 49.2-42.9 102.6-50.2 157.7-1.7 5.6 5.9 9.8 7.3 2.1 5.3-20.4 8.8-41.3 14.5-61.6 43.7-152.5 160.5-281.4 302-349.8-32 27.7-56.2 63.3-81.1 97.6-49 68.6-92.2 147.7-106.2 231.5-1.9 16.1-16 74.2-4.8 83.8 4.2-.1 4.4-5.4 4.4-9.3.1-16.7 3-33.2 6-49.6 6.7-32.8 11.8-66.7 22.9-98.2 24.3-53.8 50.3-107.6 86.4-154.6 13.5-17.8 28.1-34.8 40.5-53.4 15.7-23.1 36.6-41 57.2-59.2 10.7-7.2 1-11.4-6.4-6.5-101.5 42.3-185.8 112-250.4 201.7 11.1-27.5 15.8-50.9 27.6-77.2 15.4-36.6 32.1-73.1 50-108.4C843 1091 908.4 1019 972.9 948c4.4-3.6 1.9-10.3-3.6-7.1-84.5 43.3-144.3 119.7-210.6 186.3 7.4-32.1 22.2-59.9 34.5-89.8 20.9-55.8 52.1-106.6 82-158 34.3-53.8 60.2-113 100.9-162.5 4.2-4.9 2.2-19-6.6-12.8-12 9.2-25 17.4-36 27.7-132.7 125.6-239 279.6-311.6 447-.5-.7-1.6-1.4-1.6-2.2-.1-26.8 4.7-53.3 6.8-80 5.3-100.4 14.4-201.3 38.4-299.2 2.9-11.1-1.6-28.1 20.1-26.5 28.3 2.1 57.4-3.5 84.8 8 3 1.2 12 4.8 10.4-1.5-17.5-53.3-19.3-115.3-65-154.6-1.1-1-2.6-3.2-2.3-4 6.1-13.4 9.3-27.9 14.6-41.5zm-152.7 82.1c6-11.8 32-3 43.3-2.2 42.1 9.6 91.5 26.8 116.1 63.4-43.3-34.8-97.1-54-152-57.5-4.3 1.9-12.6 4.3-7.4-3.7zm-32.6-102.3c21.4 20.5 39.1 73.3 25.5 97.1-5.3 3.3-6.9-4.1-9.3-7.1-21.7-26.2-19.2-56.9-16.2-90zm-12.3-10.6c-17.7-5.7-37-12.7-47.4-29.8-4.1-7.5-9.7-14.6-7.9-24.2-1.1-6.9-.3-14.4 6.5-17 21.3-7.8 50.7 49.6 55 66.8 2 6-2.9 4.7-6.2 4.2zm4.8 91.4c.9-1.9 3.2-3.1 4.5-4.3 6.9 10 11 21.5 22.5 27.7 3.9 2.1-.3 5.7-1.5 8-8.9 17.4-11.1 35-2 54.5-10.3-5.4-19.9-7-29.3-9.6-14.4-19.6-3.7-55.3 5.8-76.3zm-76.8 23.9c12.7 16.3 22.3 34.1 24.1 58.3-.8 6-9.8 7.3-15.1 12-3.4 3.1-4.5-4-7.4-5-11.9-4.3-9.1-12.3-7.5-21.8 1.8-10.7-1.8-21.3-8.3-30.5-6.1-8.7 3.4-12.9 6.8-18.1 2-3.2 5.8 2.9 7.4 5.1zM438.8 583c5.4-11.4 11.3-21.5 25.4-22.8 7.9-.8 13.9 1.1 14.6 10.1-.3 25.2-15.7 43.9-26.4 64.6-4.9 7.9-7.8 17.6-14.4 24.1-11.5-14.6-8-58.9.8-76zm-9 108.6c.6-5.7 4.9-11.1 7.5-16.5 7.1 9.9 7.5 20.5 8.1 31.6.7 12.5-5.6 10.2-12.3 7.5-13.3-5.4-4.1-15.2-3.3-22.6zm-76-170.1c4.7-13.9 46.1-51.4 47.2-17.9-2.8 30.7-28.5 54.5-44.1 79.7-2 3.7-5.8 4.5-7.6.1-8.8-21.3-5.8-42.2 4.5-61.9zm.2 82.2c23.9 34.4 35.3 82.3 10.5 119-1.5 2.5-3.9 2.4-5 0-20.5-38.5-21.5-78.7-5.5-119zm-9.5 119.2c-40.7 3.1-78.1 15.3-113.2 35.8 22-21.6 84.3-55.9 113.2-35.8zm-159.9-142c-21.9-37.5-44.2-74.8-72.7-107.8-27.2-32.9-61.2-60.6-88.7-92.8 134.8 34.1 247.2 170 307.2 290.3-16.8-11.2-32.7-20.1-54.2-16-8.5 1.2-7.9-8.8-11-13.6-32.3-54.1-60.9-111.4-104.7-157.4-9.4-9.6-19.8-18.3-29.9-27.3-1.3-1.1-3.4-1.3-6.3-2.3 59.9 57.1 102.5 126 139.4 199.2 1.7 3.1.7 2.9-1.8 4.1-5.7 2.7-11.2 5.9-16.3 9.7-18.2 14-16.5-6.7-20-12.8-13.9-24.3-25.7-49.7-41-73.3zm-18.5 236.9c13.5-59.5 52.6-154.9 124.8-154.5 34.8-.9 62.4 48.7 45.1 45.7-71.6-1-134 49.9-167 109.8-.4 3.5-3.2 1.9-2.9-1zm141.7 82.1c21.2 87.2 39.4 172.8 45.8 263.1v-.8c.7 4.2.9 5.2 1 6.3l-1 .1c-17.2-52.2-43.5-97-67.1-145.7-32.4-60.7-66.5-122.6-116.1-171.1-3.5-3.2 1.2-4 2.8-4.6 36.6-12.8 76.2-8.3 113.9-3.8 6.5.9 5.9 8.7 7.6 13.4 5.1 14.1 9.9 28.4 13.1 43.1zm38.7-73.2c-20.4 8.7-42.1 11.5-63.4 7.7-27.3-4.8-54.5-3-81.8-3.3-11.6-.1-22.4 4.9-34.9 9.2 34.3-56.6 90.4-98.5 156.4-105.6 11.4-1.3 37.8-9.8 34.2 10.8-21.8 59.2 20.5 72.2-10.5 81.2zm22.7-9.2c-29.6-57.4 7-114.7 73.5-92.1 14.3 5.3 17.2 19.3 21.9 31 12.4 30 14.2 62.9 17 94.8 3.2 18.5-.8 37.2 2.7 55.7 1.7 9.1.5 18.8.6 28.2 0 2.2-.9 2.1-2.4.9-41.9-35.6-88.9-67.7-113.3-118.5zm75.2 172.6c-7.8-29.5-13.6-59.2-20.7-88.9 16 10.7 30.5 23.5 45.8 35.1 2.1 1.6 3.1 3.7 2.3 5.5-11.4 29-16.3 52.2-22.3 84.3-2-15.1-1.9-26-5.1-36zm42.1-33.3c-11.5 56.8-17.4 109.2-20.4 169-2.6-19.4-4.1-35.9-7.3-52.1-2.7-13.8-5.7-27.2-1.9-41.3 7.5-26 11.3-53 20-78.5.8-3-.5-9.1 2.6-8.1s7.3 7.3 7 11zm8.4-55.5c0 1.1-1 2.2-1.5 3.3-.7-1.8-2.1-3.7-2.1-5.5.1-43.1-1.8-86.5-13.7-128.3-2.7-9.3-4.9-18.6-9.7-27-1.3-2.2.4-2.4 1.1-3.5 1.7-2.5 2.1.2 2.6.8 36.7 44.9 20.3 106.7 23.3 160.2zm91.2-103.4c-11 55.9-49.2 97.1-90.4 134.2 12.9-44.5 20.5-165.6-19-195-3.9-2.2 1.1-3 1.1-3.1 32.7-18.4 89.4-12.7 104.1 25.6 4.1 12.3 5.6 25.3 4.2 38.3zm72-9.7c-19.6 79.7-30.7 161.7-35.1 243.6-5.1 60.8-9.7 121.7-14.5 182.4-1.8 12.4-9.4 23.8-13.6 36-9.5 28-18 56.3-26.8 84.5l-1.6-.1c11.4-140.8 10.7-283.1 38.8-422 10.3-46.9 19.7-94.1 31.3-140.7.8-3.5 4.2-1.4 6.3-1.7 1.5-.2 3.2.8 4.8.8 13.9.4 14.5 3.3 10.4 17.2zm92.6-23.7c-41.4-6.1-83.1 2.6-124.2-6.9-36.8-8.6-83.4-45-56.6-85.1 2.1-2.4 8-1.4 12-2 51 4.3 99.8 20.1 140.3 51.8 13.7 9.7 22.8 23.4 35.8 33.4 1.9 1.5 1.9 5.5 2.8 8.3-3.4.3-6.9 1.1-10.1.5zm-6.5-84.6c7.7 18.3 12.9 37.3 17.1 58-38.9-57.9-98.4-84.3-165.4-92.8-4.8 2-14.2 1.5-14 .8 2.8-29.1 26.1-45.4 53-47.1 48.1-.2 91.3 37.8 109.3 81.1zm-37-64.5c-6.3-3.8-12.5-6.5-17.3-10.8-3.6-3.2.1-7.9 1.5-11.3 8-19.8 16.3-39.5 24.4-59.3 12.6-29.9 30.4-57.8 45.5-86.7.8-1.6 1-5.1.3-5.4-2.1-1-2.1 1.6-3 2.9-34.2 46.8-54.6 101.3-75.8 154.7-1.5 3.5-4.3-.4-5.7-1-7.8-3.6-15.8-6.4-24.4-7.5-4.9-.6-4.4-4.8-3.2-7.3C706.9 465.3 770 344.5 872.1 258.4c32.5-28.9 60.5-63.4 100.8-83.1-123 126-213.4 271.2-265.7 440.1zm68.2 760.3c-38.5 60.9-61.9 131.4-74.4 202-1 6.1-.7 12.8-5.6 17.3-3.4-2.8-4.9-6.3-4.1-12.8 5.5-33.2 16-70.3 25.8-104 15.8-49.2 40.7-94.2 70.1-136.4 23.9-36.1 50.6-69.8 81.9-99.8 1.3-1.4 1.9-.5 2.7.2 2.5 2.2.7 3.8-.7 5.4-12.2 14.3-24.8 28.4-36.6 43.1-21.1 27.3-40.6 55.9-59.1 85zm-134.6 41c-23.3 57.9-37.4 119.1-48 180.5-1.2 3.7-7.6 5.7-5.8-.7 10.6-88.6 38.9-174.5 77.3-254.7 20.1-40 39.2-80.2 61.7-118.8 9-14.7 16.5-31.5 29.8-42.5-17.8 42.5-45 76.9-61.3 119.5-18.4 38.5-40 75.8-53.7 116.7zm-287.1-251.8c-.3-.6-.1-1.2-.2-1.9l.2 1.9zM273 1596.4c2 6-5.9 5.9-6 .3 1.2-25.5-.8-50.8-2.4-76.2-2.4-130.8-63-251-139-354.4-.7-1.1-3.1-2-1.1-3.4 2.7-.7 5.3 2.5 7 4.4 39.8 48.3 72.2 103.9 98.6 160.5 35.7 84.6 45.8 177.6 42.9 268.8z"/></g><g><path d="M52 1548v15l-37 37h946l-37-37v-15H52M52 52V37.7L14.3 0H0v1600h15l37-37V52m872 0V37.7L961.7 0H14.3L52 37.7V52h872m52-52h-14.3L924 37.7V1563l37 37h15V0z"/><path d="M961 1600h15V0h-14.3L924 37.7V1563l37 37H0V0H961.7M52 52V37.7L14.3 0m.7 1600l37-37V52h872m0 1496H52" fill="none" stroke="#333" stroke-width="2" stroke-linecap="square" stroke-miterlimit="3"/></g></svg>